<svg width="63" height="81" viewBox="0 0 63 81" fill="none" xmlns="http://www.w3.org/2000/svg">
<line y1="-0.5" x2="60" y2="-0.5" transform="matrix(-8.74228e-08 1 1 8.74228e-08 31.7734 9.82812)" stroke="white"/>
<path d="M8.83594 71.8359L53.8902 71.8359" stroke="white" strokeLinecap="square"/>
<path d="M8.83594 70.1953L53.8902 70.1953" stroke="white" strokeLinecap="square"/>
<path d="M56.5035 80.8409C56.6625 80.8409 56.7891 80.7143 56.7891 80.5553L56.7891 62.2856C56.7891 62.1266 56.6625 62 56.5035 62C56.3445 62 56.2179 62.1266 56.2179 62.2856L56.2179 80.5553C56.2179 80.7114 56.3445 80.8409 56.5035 80.8409Z" fill="#56E4EE"/>
<path d="M58.0816 80.8409C58.2406 80.8409 58.3672 80.7143 58.3672 80.5553L58.3672 62.2856C58.3672 62.1266 58.2377 62 58.0816 62C57.9227 62 57.7961 62.1266 57.7961 62.2856L57.7961 80.5553C57.7961 80.7114 57.9227 80.8409 58.0816 80.8409Z" fill="#3EBED0"/>
<path d="M59.9098 80.8409C60.0687 80.8409 60.1953 80.7143 60.1953 80.5553L60.1953 62.2856C60.1953 62.1266 60.0687 62 59.9098 62C59.7508 62 59.6242 62.1266 59.6242 62.2856L59.6242 80.5553C59.6242 80.7114 59.7537 80.8409 59.9098 80.8409Z" fill="#56E4EE"/>
<path d="M59.3454 63.9434L60.3316 63.9434C60.4906 63.9434 60.6172 63.8168 60.6172 63.6579C60.6172 63.4989 60.4906 63.3723 60.3316 63.3723L59.3454 63.3723C59.1865 63.3723 59.0599 63.4989 59.0599 63.6579C59.0599 63.8168 59.1865 63.9434 59.3454 63.9434ZM56.0041 63.9434L56.9874 63.9434C57.1463 63.9434 57.2729 63.8168 57.2729 63.6579C57.2729 63.4989 57.1463 63.3723 56.9874 63.3723L56.0041 63.3723C55.8451 63.3723 55.7186 63.4989 55.7186 63.6579C55.7186 63.8168 55.8451 63.9434 56.0041 63.9434ZM59.3454 65.8864L60.3316 65.8864C60.4906 65.8864 60.6172 65.7598 60.6172 65.6008C60.6172 65.4419 60.4906 65.3153 60.3316 65.3153L59.3454 65.3153C59.1865 65.3153 59.0599 65.4419 59.0599 65.6008C59.0599 65.7569 59.1865 65.8864 59.3454 65.8864ZM56.0041 65.8864L56.9874 65.8864C57.1463 65.8864 57.2729 65.7598 57.2729 65.6008C57.2729 65.4419 57.1463 65.3153 56.9874 65.3153L56.0041 65.3153C55.8451 65.3153 55.7186 65.4419 55.7186 65.6008C55.7186 65.7569 55.8451 65.8864 56.0041 65.8864ZM59.3454 67.8264L60.3316 67.8264C60.4906 67.8264 60.6172 67.6998 60.6172 67.5409C60.6172 67.3819 60.4906 67.2553 60.3316 67.2553L59.3454 67.2553C59.1865 67.2553 59.0599 67.3819 59.0599 67.5409C59.0599 67.6998 59.1865 67.8264 59.3454 67.8264ZM56.0041 67.8264L56.9874 67.8264C57.1463 67.8264 57.2729 67.6998 57.2729 67.5409C57.2729 67.3819 57.1463 67.2553 56.9874 67.2553L56.0041 67.2553C55.8451 67.2553 55.7186 67.3819 55.7186 67.5409C55.7186 67.6998 55.8451 67.8264 56.0041 67.8264ZM59.3454 69.7664L60.3316 69.7664C60.4906 69.7664 60.6172 69.6399 60.6172 69.4809C60.6172 69.3219 60.4906 69.1953 60.3316 69.1953L59.3454 69.1953C59.1865 69.1953 59.0599 69.3219 59.0599 69.4809C59.0599 69.6399 59.1865 69.7664 59.3454 69.7664ZM56.0041 69.7664L56.9874 69.7664C57.1463 69.7664 57.2729 69.6399 57.2729 69.4809C57.2729 69.3219 57.1463 69.1953 56.9874 69.1953L56.0041 69.1953C55.8451 69.1953 55.7186 69.3219 55.7186 69.4809C55.7186 69.6399 55.8451 69.7664 56.0041 69.7664ZM59.3454 71.7065L60.3316 71.7065C60.4906 71.7065 60.6172 71.5799 60.6172 71.4209C60.6172 71.2619 60.4906 71.1353 60.3316 71.1353L59.3454 71.1353C59.1865 71.1353 59.0599 71.2619 59.0599 71.4209C59.0599 71.5769 59.1865 71.7065 59.3454 71.7065ZM56.0041 71.7065L56.9874 71.7065C57.1463 71.7065 57.2729 71.5799 57.2729 71.4209C57.2729 71.2619 57.1463 71.1353 56.9874 71.1353L56.0041 71.1353C55.8451 71.1353 55.7186 71.2619 55.7186 71.4209C55.7186 71.5769 55.8451 71.7065 56.0041 71.7065ZM59.3454 73.6465L60.3316 73.6465C60.4906 73.6465 60.6172 73.5199 60.6172 73.3609C60.6172 73.202 60.4906 73.0754 60.3316 73.0754L59.3454 73.0754C59.1865 73.0754 59.0599 73.202 59.0599 73.3609C59.0599 73.5199 59.1865 73.6465 59.3454 73.6465ZM56.0041 73.6465L56.9874 73.6465C57.1463 73.6465 57.2729 73.5199 57.2729 73.3609C57.2729 73.202 57.1463 73.0754 56.9874 73.0754L56.0041 73.0754C55.8451 73.0754 55.7186 73.202 55.7186 73.3609C55.7186 73.5199 55.8451 73.6465 56.0041 73.6465ZM59.3454 75.5895L60.3316 75.5895C60.4906 75.5895 60.6172 75.4629 60.6172 75.3039C60.6172 75.1449 60.4906 75.0183 60.3316 75.0183L59.3454 75.0183C59.1865 75.0183 59.0599 75.1449 59.0599 75.3039C59.0599 75.4629 59.1865 75.5895 59.3454 75.5895ZM56.0041 75.5895L56.9874 75.5895C57.1463 75.5895 57.2729 75.4629 57.2729 75.3039C57.2729 75.1449 57.1463 75.0183 56.9874 75.0183L56.0041 75.0183C55.8451 75.0183 55.7186 75.1449 55.7186 75.3039C55.7186 75.4629 55.8451 75.5895 56.0041 75.5895ZM59.3454 77.5265L60.3316 77.5265C60.4906 77.5265 60.6172 77.3999 60.6172 77.241C60.6172 77.082 60.4906 76.9554 60.3316 76.9554L59.3454 76.9554C59.1865 76.9554 59.0599 77.082 59.0599 77.241C59.0599 77.3999 59.1865 77.5265 59.3454 77.5265ZM56.0041 77.5265L56.9874 77.5265C57.1463 77.5265 57.2729 77.3999 57.2729 77.241C57.2729 77.082 57.1463 76.9554 56.9874 76.9554L56.0041 76.9554C55.8451 76.9554 55.7186 77.082 55.7186 77.241C55.7186 77.3999 55.8451 77.5265 56.0041 77.5265ZM59.3454 79.4666L60.3316 79.4666C60.4906 79.4666 60.6172 79.34 60.6172 79.181C60.6172 79.022 60.4906 78.8954 60.3316 78.8954L59.3454 78.8954C59.1865 78.8954 59.0599 79.022 59.0599 79.181C59.0599 79.34 59.1865 79.4666 59.3454 79.4666ZM56.0041 79.4666L56.9874 79.4666C57.1463 79.4666 57.2729 79.34 57.2729 79.181C57.2729 79.022 57.1463 78.8954 56.9874 78.8954L56.0041 78.8954C55.8451 78.8954 55.7186 79.022 55.7186 79.181C55.7186 79.34 55.8451 79.4666 56.0041 79.4666Z" fill="#56E4EE"/>
<path d="M53.9484 64.8232C54.022 64.8232 54.0956 64.7938 54.1516 64.7378L55.441 63.4219C55.5529 63.31 55.5499 63.1275 55.4381 63.0186C55.3262 62.9067 55.1437 62.9097 55.0347 63.0215L53.7453 64.3375C53.6334 64.4493 53.6364 64.6319 53.7483 64.7408C53.8042 64.7967 53.8748 64.8232 53.9484 64.8232ZM53.9484 67.3373C54.022 67.3373 54.0956 67.3078 54.1516 67.2519L55.441 65.936C55.5529 65.8241 55.5499 65.6416 55.4381 65.5327C55.3262 65.4238 55.1437 65.4238 55.0347 65.5356L53.7453 66.8515C53.6334 66.9634 53.6364 67.1459 53.7483 67.2549C53.8042 67.3108 53.8748 67.3373 53.9484 67.3373ZM53.9484 69.8543C54.022 69.8543 54.0956 69.8249 54.1516 69.7689L55.441 68.456C55.5529 68.3441 55.5499 68.1616 55.4381 68.0526C55.3262 67.9408 55.1437 67.9437 55.0347 68.0556L53.7453 69.3686C53.6334 69.4804 53.6364 69.663 53.7483 69.7719C53.8042 69.8249 53.8748 69.8543 53.9484 69.8543ZM53.9484 72.3713C54.022 72.3713 54.0956 72.3419 54.1516 72.286L55.441 70.97C55.5529 70.8582 55.5499 70.6757 55.4381 70.5667C55.3262 70.4549 55.1437 70.4578 55.0347 70.5697L53.7453 71.8856C53.6334 71.9975 53.6364 72.18 53.7483 72.2889C53.8042 72.3448 53.8748 72.3713 53.9484 72.3713ZM53.9484 74.8854C54.022 74.8854 54.0956 74.856 54.1516 74.8L55.441 73.4871C55.5529 73.3752 55.5499 73.1927 55.4381 73.0838C55.3262 72.9719 55.1437 72.9748 55.0347 73.0867L53.7453 74.3997C53.6334 74.5115 53.6364 74.6941 53.7483 74.803C53.8042 74.8589 53.8748 74.8854 53.9484 74.8854ZM53.9484 77.3995C54.022 77.3995 54.0956 77.3701 54.1516 77.3141L55.441 76.0011C55.5529 75.8893 55.5499 75.7068 55.438 75.5978C55.3262 75.486 55.1437 75.4889 55.0347 75.6008L53.7453 76.9138C53.6334 77.0256 53.6364 77.2081 53.7483 77.3171C53.8042 77.373 53.8748 77.3995 53.9484 77.3995ZM54.1604 79.7016C54.234 79.7016 54.3076 79.6722 54.3635 79.6162L55.441 78.5182C55.5499 78.4063 55.5499 78.2238 55.4351 78.1149C55.3232 78.0059 55.1407 78.0059 55.0318 78.1178L53.9543 79.2159C53.8454 79.3277 53.8454 79.5103 53.9602 79.6192C54.0162 79.6751 54.0868 79.7016 54.1604 79.7016Z" fill="#3EBED0"/>
<path d="M62.2144 64.8206C62.2851 64.8206 62.3587 64.7941 62.4146 64.7382C62.5265 64.6293 62.5294 64.4468 62.4176 64.3349L61.1311 63.0219C61.0192 62.91 60.8396 62.9071 60.7278 63.019C60.6159 63.1279 60.613 63.3104 60.7248 63.4223L62.0113 64.7353C62.0672 64.7912 62.1408 64.8206 62.2144 64.8206ZM62.2144 67.3347C62.2851 67.3347 62.3587 67.3082 62.4146 67.2523C62.5265 67.1434 62.5294 66.9608 62.4176 66.849L61.1311 65.536C61.0192 65.4241 60.8396 65.4212 60.7278 65.533C60.6159 65.642 60.613 65.8245 60.7248 65.9364L62.0113 67.2493C62.0672 67.3082 62.1408 67.3347 62.2144 67.3347ZM62.2144 69.8517C62.288 69.8517 62.3587 69.8252 62.4146 69.7693C62.5265 69.6574 62.5294 69.4779 62.4176 69.366L61.1311 68.056C61.0192 67.9441 60.8396 67.9411 60.7278 68.053C60.6159 68.1649 60.613 68.3445 60.7248 68.4563L62.0113 69.7664C62.0672 69.8223 62.1408 69.8517 62.2144 69.8517ZM62.2144 72.3688C62.2851 72.3688 62.3587 72.3423 62.4146 72.2863C62.5265 72.1774 62.5294 71.9949 62.4176 71.883L61.1311 70.57C61.0192 70.4582 60.8396 70.4552 60.7278 70.5671C60.6159 70.676 60.613 70.8585 60.7248 70.9704L62.0113 72.2834C62.0672 72.3393 62.1408 72.3688 62.2144 72.3688ZM62.2144 74.8828C62.288 74.8828 62.3587 74.8563 62.4146 74.8004C62.5265 74.6885 62.5294 74.509 62.4176 74.3971L61.1311 73.0871C61.0192 72.9752 60.8396 72.9723 60.7278 73.0841C60.6159 73.196 60.613 73.3756 60.7248 73.4874L62.0113 74.7975C62.0672 74.8534 62.1408 74.8828 62.2144 74.8828ZM62.2144 77.3969C62.288 77.3969 62.3587 77.3704 62.4146 77.3145C62.5265 77.2026 62.5294 77.023 62.4176 76.9112L61.1311 75.6011C61.0192 75.4893 60.8396 75.4863 60.7278 75.5982C60.6159 75.7101 60.613 75.8896 60.7248 76.0015L62.0113 77.3115C62.0672 77.3704 62.1408 77.3969 62.2144 77.3969ZM62.0054 79.702C62.0761 79.702 62.1497 79.6755 62.2056 79.6196C62.3175 79.5106 62.3204 79.3281 62.2085 79.2162L61.1311 78.1182C61.0192 78.0063 60.8396 78.0034 60.7278 78.1152C60.6159 78.2242 60.613 78.4067 60.7248 78.5185L61.8023 79.6166C61.8582 79.6725 61.9318 79.702 62.0054 79.702Z" fill="#3EBED0"/>
<path d="M55.9822 80.8426L60.1802 80.8426C61.1694 80.8426 62.0496 80.2155 62.3734 79.2823C62.4087 79.1822 62.4382 79.0704 62.4588 78.9615C62.4853 78.8231 62.5 78.6729 62.5 78.5228L62.5 64.3244C62.5 64.2773 62.5 64.2302 62.4971 64.1831C62.4882 64.0271 62.4617 63.8711 62.4205 63.7121C62.4205 63.7062 62.4176 63.7033 62.4176 63.6974C62.3587 63.4884 62.2704 63.2882 62.1556 63.1027C61.7258 62.4139 60.9898 62.0017 60.1802 62.0017L55.9852 62.0017C54.9489 62.0017 54.0304 62.6994 53.7508 63.6944C53.7066 63.8505 53.6772 64.0153 53.6683 64.1772C53.6654 64.2243 53.6654 64.2714 53.6654 64.3215L53.6654 78.5199C53.6654 78.67 53.6801 78.8201 53.7095 78.9615C53.7302 79.0674 53.7567 79.1764 53.7949 79.2823C54.1129 80.2155 54.9931 80.8426 55.9822 80.8426ZM61.8612 63.8416C61.8612 63.8446 61.8641 63.8475 61.8641 63.8534C61.8965 63.9741 61.9171 64.0978 61.9259 64.2185C61.9289 64.2538 61.9289 64.2891 61.9289 64.3274L61.9289 78.5258C61.9289 78.6406 61.9171 78.7524 61.8965 78.8584C61.8818 78.9438 61.8612 79.0203 61.8317 79.0939C61.5874 79.8005 60.9221 80.2744 60.1773 80.2744L55.9822 80.2744C55.2374 80.2744 54.5721 79.8005 54.3307 79.0969C54.3013 79.0174 54.2807 78.9408 54.2659 78.8614C54.2453 78.7495 54.2336 78.6376 54.2336 78.5258L54.2336 64.3244C54.2336 64.2891 54.2336 64.2508 54.2365 64.2155C54.2453 64.0919 54.2659 63.9712 54.2983 63.8505C54.5103 63.0968 55.2021 62.5728 55.9822 62.5728L60.1802 62.5728C60.7896 62.5728 61.346 62.8819 61.6698 63.403C61.7523 63.5384 61.817 63.6856 61.8612 63.8416Z" fill="#3EBED0"/>
<path d="M2.83944 80.8409C2.99841 80.8409 3.125 80.7143 3.125 80.5553L3.125 62.2856C3.125 62.1266 2.99841 62 2.83944 62C2.68047 62 2.55388 62.1266 2.55388 62.2856L2.55388 80.5553C2.55388 80.7114 2.68047 80.8409 2.83944 80.8409Z" fill="#56E4EE"/>
<path d="M4.41757 80.8409C4.57654 80.8409 4.70312 80.7143 4.70312 80.5553L4.70312 62.2856C4.70312 62.1266 4.57359 62 4.41757 62C4.2586 62 4.13201 62.1266 4.13201 62.2856L4.13201 80.5553C4.13201 80.7114 4.2586 80.8409 4.41757 80.8409Z" fill="#3EBED0"/>
<path d="M6.24569 80.8409C6.40466 80.8409 6.53125 80.7143 6.53125 80.5553L6.53125 62.2856C6.53125 62.1266 6.40466 62 6.24569 62C6.08672 62 5.96014 62.1266 5.96014 62.2856L5.96013 80.5553C5.96013 80.7114 6.08967 80.8409 6.24569 80.8409Z" fill="#56E4EE"/>
<path d="M5.68137 63.9434L6.66757 63.9434C6.82654 63.9434 6.95312 63.8168 6.95312 63.6579C6.95312 63.4989 6.82654 63.3723 6.66757 63.3723L5.68137 63.3723C5.5224 63.3723 5.39581 63.4989 5.39581 63.6579C5.39581 63.8168 5.5224 63.9434 5.68137 63.9434ZM2.34005 63.9434L3.32331 63.9434C3.48228 63.9434 3.60887 63.8168 3.60887 63.6579C3.60887 63.4989 3.48228 63.3723 3.32331 63.3723L2.34005 63.3723C2.18108 63.3723 2.05449 63.4989 2.05449 63.6579C2.05449 63.8168 2.18108 63.9434 2.34005 63.9434ZM5.68137 65.8864L6.66757 65.8864C6.82654 65.8864 6.95312 65.7598 6.95312 65.6008C6.95312 65.4419 6.82654 65.3153 6.66757 65.3153L5.68137 65.3153C5.5224 65.3153 5.39581 65.4419 5.39581 65.6008C5.39581 65.7569 5.5224 65.8864 5.68137 65.8864ZM2.34005 65.8864L3.32331 65.8864C3.48228 65.8864 3.60887 65.7598 3.60887 65.6008C3.60887 65.4419 3.48228 65.3153 3.32331 65.3153L2.34005 65.3153C2.18108 65.3153 2.05449 65.4419 2.05449 65.6008C2.05449 65.7569 2.18108 65.8864 2.34005 65.8864ZM5.68137 67.8264L6.66757 67.8264C6.82654 67.8264 6.95312 67.6998 6.95312 67.5409C6.95312 67.3819 6.82654 67.2553 6.66757 67.2553L5.68137 67.2553C5.5224 67.2553 5.39581 67.3819 5.39581 67.5409C5.39581 67.6998 5.5224 67.8264 5.68137 67.8264ZM2.34005 67.8264L3.32331 67.8264C3.48228 67.8264 3.60887 67.6998 3.60887 67.5409C3.60887 67.3819 3.48228 67.2553 3.32331 67.2553L2.34005 67.2553C2.18108 67.2553 2.05449 67.3819 2.05449 67.5409C2.05449 67.6998 2.18108 67.8264 2.34005 67.8264ZM5.68136 69.7664L6.66757 69.7664C6.82654 69.7664 6.95312 69.6399 6.95312 69.4809C6.95312 69.3219 6.82654 69.1953 6.66757 69.1953L5.68136 69.1953C5.52239 69.1953 5.39581 69.3219 5.39581 69.4809C5.39581 69.6399 5.52239 69.7664 5.68136 69.7664ZM2.34005 69.7664L3.32331 69.7664C3.48228 69.7664 3.60887 69.6399 3.60887 69.4809C3.60887 69.3219 3.48228 69.1953 3.32331 69.1953L2.34005 69.1953C2.18108 69.1953 2.05449 69.3219 2.05449 69.4809C2.05449 69.6399 2.18108 69.7664 2.34005 69.7664ZM5.68136 71.7065L6.66757 71.7065C6.82654 71.7065 6.95312 71.5799 6.95312 71.4209C6.95312 71.2619 6.82654 71.1353 6.66757 71.1353L5.68136 71.1353C5.52239 71.1353 5.39581 71.2619 5.39581 71.4209C5.39581 71.5769 5.52239 71.7065 5.68136 71.7065ZM2.34005 71.7065L3.32331 71.7065C3.48228 71.7065 3.60887 71.5799 3.60887 71.4209C3.60887 71.2619 3.48228 71.1353 3.32331 71.1353L2.34005 71.1353C2.18108 71.1353 2.05449 71.2619 2.05449 71.4209C2.05449 71.5769 2.18108 71.7065 2.34005 71.7065ZM5.68136 73.6465L6.66757 73.6465C6.82654 73.6465 6.95312 73.5199 6.95312 73.3609C6.95312 73.202 6.82654 73.0754 6.66757 73.0754L5.68136 73.0754C5.52239 73.0754 5.39581 73.202 5.39581 73.3609C5.39581 73.5199 5.52239 73.6465 5.68136 73.6465ZM2.34005 73.6465L3.32331 73.6465C3.48228 73.6465 3.60887 73.5199 3.60887 73.3609C3.60887 73.202 3.48228 73.0754 3.32331 73.0754L2.34005 73.0754C2.18108 73.0754 2.05449 73.202 2.05449 73.3609C2.05449 73.5199 2.18108 73.6465 2.34005 73.6465ZM5.68136 75.5895L6.66757 75.5895C6.82654 75.5895 6.95312 75.4629 6.95312 75.3039C6.95312 75.1449 6.82654 75.0183 6.66757 75.0183L5.68136 75.0183C5.52239 75.0183 5.39581 75.1449 5.39581 75.3039C5.39581 75.4629 5.52239 75.5895 5.68136 75.5895ZM2.34005 75.5895L3.32331 75.5895C3.48228 75.5895 3.60887 75.4629 3.60887 75.3039C3.60887 75.1449 3.48228 75.0183 3.32331 75.0183L2.34005 75.0183C2.18108 75.0183 2.05449 75.1449 2.05449 75.3039C2.05449 75.4629 2.18108 75.5895 2.34005 75.5895ZM5.68136 77.5265L6.66757 77.5265C6.82654 77.5265 6.95312 77.3999 6.95312 77.241C6.95312 77.082 6.82654 76.9554 6.66757 76.9554L5.68136 76.9554C5.52239 76.9554 5.39581 77.082 5.39581 77.241C5.39581 77.3999 5.52239 77.5265 5.68136 77.5265ZM2.34005 77.5265L3.32331 77.5265C3.48228 77.5265 3.60887 77.3999 3.60887 77.241C3.60887 77.082 3.48228 76.9554 3.32331 76.9554L2.34005 76.9554C2.18108 76.9554 2.05449 77.082 2.05449 77.241C2.05449 77.3999 2.18108 77.5265 2.34005 77.5265ZM5.68136 79.4666L6.66757 79.4666C6.82654 79.4666 6.95312 79.34 6.95312 79.181C6.95312 79.022 6.82654 78.8954 6.66757 78.8954L5.68136 78.8954C5.52239 78.8954 5.39581 79.022 5.39581 79.181C5.39581 79.34 5.52239 79.4666 5.68136 79.4666ZM2.34005 79.4666L3.32331 79.4666C3.48228 79.4666 3.60887 79.34 3.60887 79.181C3.60887 79.022 3.48228 78.8954 3.32331 78.8954L2.34005 78.8954C2.18108 78.8954 2.05449 79.022 2.05449 79.181C2.05449 79.34 2.18108 79.4666 2.34005 79.4666Z" fill="#56E4EE"/>
<path d="M0.28438 64.8232C0.357977 64.8232 0.431575 64.7938 0.487509 64.7378L1.77693 63.4219C1.8888 63.31 1.88586 63.1275 1.77399 63.0186C1.66212 62.9067 1.4796 62.9097 1.37068 63.0215L0.0812519 64.3375C-0.0306159 64.4493 -0.0276725 64.6319 0.0841953 64.7408C0.140129 64.7967 0.210783 64.8232 0.28438 64.8232ZM0.28438 67.3373C0.357977 67.3373 0.431575 67.3078 0.487509 67.2519L1.77693 65.936C1.8888 65.8241 1.88586 65.6416 1.77399 65.5327C1.66212 65.4238 1.4796 65.4238 1.37068 65.5356L0.0812518 66.8515C-0.030616 66.9634 -0.0276726 67.1459 0.0841952 67.2549C0.140129 67.3108 0.210782 67.3373 0.28438 67.3373ZM0.28438 69.8543C0.357977 69.8543 0.431575 69.8249 0.487509 69.7689L1.77693 68.456C1.8888 68.3441 1.88586 68.1616 1.77399 68.0526C1.66212 67.9408 1.4796 67.9437 1.37068 68.0556L0.0812517 69.3686C-0.0306161 69.4804 -0.0276727 69.663 0.0841951 69.7719C0.140129 69.8249 0.210782 69.8543 0.28438 69.8543ZM0.284379 72.3713C0.357977 72.3713 0.431575 72.3419 0.487509 72.286L1.77693 70.97C1.8888 70.8582 1.88586 70.6757 1.77399 70.5667C1.66212 70.4549 1.4796 70.4578 1.37068 70.5697L0.0812516 71.8856C-0.0306162 71.9975 -0.0276728 72.18 0.084195 72.2889C0.140129 72.3448 0.210782 72.3713 0.284379 72.3713ZM0.284379 74.8854C0.357977 74.8854 0.431575 74.856 0.487508 74.8L1.77693 73.4871C1.8888 73.3752 1.88586 73.1927 1.77399 73.0838C1.66212 72.9719 1.4796 72.9748 1.37068 73.0867L0.0812515 74.3997C-0.0306163 74.5115 -0.0276729 74.6941 0.0841949 74.803C0.140129 74.8589 0.210782 74.8854 0.284379 74.8854ZM0.284379 77.3995C0.357976 77.3995 0.431574 77.3701 0.487508 77.3141L1.77693 76.0011C1.8888 75.8893 1.88586 75.7068 1.77399 75.5978C1.66212 75.486 1.4796 75.4889 1.37067 75.6008L0.0812514 76.9138C-0.0306164 77.0256 -0.027673 77.2081 0.0841947 77.3171C0.140129 77.373 0.210782 77.3995 0.284379 77.3995ZM0.496339 79.7016C0.569937 79.7016 0.643534 79.6722 0.699467 79.6162L1.77693 78.5182C1.88585 78.4063 1.88585 78.2238 1.77104 78.1149C1.65918 78.0059 1.47665 78.0059 1.36773 78.1178L0.290267 79.2159C0.181343 79.3277 0.181343 79.5103 0.296155 79.6192C0.352089 79.6751 0.422742 79.7016 0.496339 79.7016Z" fill="#3EBED0"/>
<path d="M8.55037 64.8206C8.62102 64.8206 8.69462 64.7941 8.75055 64.7382C8.86242 64.6293 8.86536 64.4468 8.75349 64.3349L7.46702 63.0219C7.35515 62.91 7.17557 62.9071 7.0637 63.019C6.95183 63.1279 6.94889 63.3104 7.06076 63.4223L8.34724 64.7353C8.40317 64.7912 8.47677 64.8206 8.55037 64.8206ZM8.55037 67.3347C8.62102 67.3347 8.69462 67.3082 8.75055 67.2523C8.86242 67.1434 8.86536 66.9608 8.75349 66.849L7.46702 65.536C7.35515 65.4241 7.17557 65.4212 7.0637 65.533C6.95183 65.642 6.94889 65.8245 7.06076 65.9364L8.34724 67.2493C8.40317 67.3082 8.47677 67.3347 8.55037 67.3347ZM8.55037 69.8517C8.62396 69.8517 8.69462 69.8252 8.75055 69.7693C8.86242 69.6574 8.86536 69.4779 8.75349 69.366L7.46702 68.056C7.35515 67.9441 7.17557 67.9411 7.0637 68.053C6.95183 68.1649 6.94889 68.3445 7.06076 68.4563L8.34724 69.7664C8.40317 69.8223 8.47677 69.8517 8.55037 69.8517ZM8.55037 72.3688C8.62102 72.3688 8.69462 72.3423 8.75055 72.2863C8.86242 72.1774 8.86536 71.9949 8.75349 71.883L7.46701 70.57C7.35515 70.4582 7.17557 70.4552 7.0637 70.5671C6.95183 70.676 6.94889 70.8585 7.06076 70.9704L8.34724 72.2834C8.40317 72.3393 8.47677 72.3688 8.55037 72.3688ZM8.55037 74.8828C8.62396 74.8828 8.69462 74.8563 8.75055 74.8004C8.86242 74.6885 8.86536 74.509 8.75349 74.3971L7.46701 73.0871C7.35515 72.9752 7.17557 72.9723 7.0637 73.0841C6.95183 73.196 6.94889 73.3756 7.06076 73.4874L8.34724 74.7975C8.40317 74.8534 8.47677 74.8828 8.55037 74.8828ZM8.55037 77.3969C8.62396 77.3969 8.69462 77.3704 8.75055 77.3145C8.86242 77.2026 8.86536 77.023 8.75349 76.9112L7.46701 75.6011C7.35515 75.4893 7.17557 75.4863 7.0637 75.5982C6.95183 75.7101 6.94889 75.8896 7.06076 76.0015L8.34724 77.3115C8.40317 77.3704 8.47677 77.3969 8.55037 77.3969ZM8.34135 79.702C8.412 79.702 8.4856 79.6755 8.54153 79.6196C8.6534 79.5106 8.65635 79.3281 8.54448 79.2162L7.46701 78.1182C7.35515 78.0063 7.17557 78.0034 7.0637 78.1152C6.95183 78.2242 6.94889 78.4067 7.06076 78.5185L8.13822 79.6166C8.19415 79.6725 8.26775 79.702 8.34135 79.702Z" fill="#3EBED0"/>
<path d="M2.31817 80.8426L6.51615 80.8426C7.5053 80.8426 8.38552 80.2155 8.70935 79.2823C8.74468 79.1822 8.77412 79.0704 8.79472 78.9615C8.82122 78.8231 8.83594 78.6729 8.83594 78.5228L8.83594 64.3244C8.83594 64.2773 8.83594 64.2302 8.83299 64.1831C8.82416 64.0271 8.79767 63.8711 8.75645 63.7121C8.75645 63.7062 8.75351 63.7033 8.75351 63.6974C8.69463 63.4884 8.60631 63.2882 8.4915 63.1027C8.06169 62.4139 7.32572 62.0017 6.51615 62.0017L2.32111 62.0017C1.28486 62.0017 0.366371 62.6994 0.0867016 63.6944C0.0425432 63.8505 0.0131036 64.0153 0.00427192 64.1772C0.00132803 64.2243 0.00132853 64.2714 0.00132852 64.3215L0.0013279 78.5199C0.0013279 78.67 0.0160478 78.8201 0.0454867 78.9615C0.0660939 79.0674 0.092588 79.1764 0.130859 79.2823C0.448798 80.2155 1.32902 80.8426 2.31817 80.8426ZM8.19711 63.8416C8.19711 63.8446 8.20006 63.8475 8.20006 63.8534C8.23244 63.9741 8.25305 64.0978 8.26188 64.2185C8.26482 64.2538 8.26482 64.2891 8.26482 64.3274L8.26482 78.5258C8.26482 78.6406 8.25305 78.7524 8.23244 78.8584C8.21772 78.9438 8.19711 79.0203 8.16767 79.0939C7.92333 79.8005 7.25801 80.2744 6.51321 80.2744L2.31817 80.2744C1.57336 80.2744 0.908045 79.8005 0.666646 79.0969C0.637207 79.0174 0.616601 78.9408 0.601881 78.8614C0.581274 78.7495 0.569498 78.6376 0.569498 78.5258L0.569499 64.3244C0.569499 64.2891 0.569499 64.2508 0.572442 64.2155C0.581274 64.0919 0.601882 63.9712 0.634265 63.8505C0.846225 63.0968 1.53804 62.5728 2.31817 62.5728L6.51615 62.5728C7.12554 62.5728 7.68193 62.8819 8.00576 63.403C8.08819 63.5384 8.15296 63.6856 8.19711 63.8416Z" fill="#3EBED0"/>
<path d="M8.83594 9.83191L53.8902 9.83191" stroke="white" strokeLinecap="square"/>
<path d="M8.83594 8.18994L53.8902 8.18994" stroke="white" strokeLinecap="square"/>
<path d="M56.5035 18.8409C56.6625 18.8409 56.7891 18.7143 56.7891 18.5553L56.7891 0.285557C56.7891 0.126587 56.6625 -5.53332e-09 56.5035 -1.24821e-08C56.3445 -1.94309e-08 56.2179 0.126587 56.2179 0.285557L56.2179 18.5553C56.2179 18.7114 56.3445 18.8409 56.5035 18.8409Z" fill="#56E4EE"/>
<path d="M58.0816 18.8409C58.2406 18.8409 58.3672 18.7143 58.3672 18.5553L58.3672 0.285557C58.3672 0.126587 58.2377 -5.66198e-09 58.0816 -1.24821e-08C57.9227 -1.94309e-08 57.7961 0.126587 57.7961 0.285557L57.7961 18.5553C57.7961 18.7114 57.9227 18.8409 58.0816 18.8409Z" fill="#3EBED0"/>
<path d="M59.9098 18.8409C60.0687 18.8409 60.1953 18.7143 60.1953 18.5553L60.1953 0.285557C60.1953 0.126587 60.0687 -5.53332e-09 59.9098 -1.24821e-08C59.7508 -1.94309e-08 59.6242 0.126587 59.6242 0.285557L59.6242 18.5553C59.6242 18.7114 59.7537 18.8409 59.9098 18.8409Z" fill="#56E4EE"/>
<path d="M59.3454 1.93855L60.3316 1.93855C60.4906 1.93855 60.6172 1.81196 60.6172 1.65299C60.6172 1.49402 60.4906 1.36743 60.3316 1.36743L59.3454 1.36743C59.1865 1.36743 59.0599 1.49402 59.0599 1.65299C59.0599 1.81196 59.1865 1.93855 59.3454 1.93855ZM56.0041 1.93855L56.9874 1.93855C57.1463 1.93855 57.2729 1.81196 57.2729 1.65299C57.2729 1.49402 57.1463 1.36743 56.9874 1.36743L56.0041 1.36743C55.8451 1.36743 55.7186 1.49402 55.7186 1.65299C55.7186 1.81196 55.8451 1.93855 56.0041 1.93855ZM59.3454 3.88151L60.3316 3.88151C60.4906 3.88151 60.6172 3.75493 60.6172 3.59596C60.6172 3.43699 60.4906 3.3104 60.3316 3.3104L59.3454 3.3104C59.1865 3.3104 59.0599 3.43699 59.0599 3.59596C59.0599 3.75198 59.1865 3.88151 59.3454 3.88151ZM56.0041 3.88151L56.9874 3.88151C57.1463 3.88151 57.2729 3.75493 57.2729 3.59596C57.2729 3.43699 57.1463 3.3104 56.9874 3.3104L56.0041 3.3104C55.8451 3.3104 55.7186 3.43699 55.7186 3.59596C55.7186 3.75198 55.8451 3.88151 56.0041 3.88151ZM59.3454 5.82154L60.3316 5.82154C60.4906 5.82154 60.6172 5.69495 60.6172 5.53598C60.6172 5.37701 60.4906 5.25042 60.3316 5.25042L59.3454 5.25042C59.1865 5.25042 59.0599 5.37701 59.0599 5.53598C59.0599 5.69495 59.1865 5.82154 59.3454 5.82154ZM56.0041 5.82154L56.9874 5.82154C57.1463 5.82154 57.2729 5.69495 57.2729 5.53598C57.2729 5.37701 57.1463 5.25042 56.9874 5.25042L56.0041 5.25042C55.8451 5.25042 55.7186 5.37701 55.7186 5.53598C55.7186 5.69495 55.8451 5.82154 56.0041 5.82154ZM59.3454 7.76156L60.3316 7.76156C60.4906 7.76156 60.6172 7.63497 60.6172 7.476C60.6172 7.31703 60.4906 7.19044 60.3316 7.19044L59.3454 7.19044C59.1865 7.19044 59.0599 7.31703 59.0599 7.476C59.0599 7.63497 59.1865 7.76156 59.3454 7.76156ZM56.0041 7.76156L56.9874 7.76156C57.1463 7.76156 57.2729 7.63497 57.2729 7.476C57.2729 7.31703 57.1463 7.19044 56.9874 7.19044L56.0041 7.19044C55.8451 7.19044 55.7186 7.31703 55.7186 7.476C55.7186 7.63497 55.8451 7.76156 56.0041 7.76156ZM59.3454 9.70158L60.3316 9.70158C60.4906 9.70158 60.6172 9.57499 60.6172 9.41602C60.6172 9.25705 60.4906 9.13047 60.3316 9.13047L59.3454 9.13047C59.1865 9.13047 59.0599 9.25705 59.0599 9.41602C59.0599 9.57205 59.1865 9.70158 59.3454 9.70158ZM56.0041 9.70158L56.9874 9.70158C57.1463 9.70158 57.2729 9.57499 57.2729 9.41602C57.2729 9.25705 57.1463 9.13047 56.9874 9.13047L56.0041 9.13047C55.8451 9.13047 55.7186 9.25705 55.7186 9.41602C55.7186 9.57205 55.8451 9.70158 56.0041 9.70158ZM59.3454 11.6416L60.3316 11.6416C60.4906 11.6416 60.6172 11.515 60.6172 11.356C60.6172 11.1971 60.4906 11.0705 60.3316 11.0705L59.3454 11.0705C59.1865 11.0705 59.0599 11.1971 59.0599 11.356C59.0599 11.515 59.1865 11.6416 59.3454 11.6416ZM56.0041 11.6416L56.9874 11.6416C57.1463 11.6416 57.2729 11.515 57.2729 11.356C57.2729 11.1971 57.1463 11.0705 56.9874 11.0705L56.0041 11.0705C55.8451 11.0705 55.7186 11.1971 55.7186 11.356C55.7186 11.515 55.8451 11.6416 56.0041 11.6416ZM59.3454 13.5846L60.3316 13.5846C60.4906 13.5846 60.6172 13.458 60.6172 13.299C60.6172 13.14 60.4906 13.0135 60.3316 13.0135L59.3454 13.0135C59.1865 13.0135 59.0599 13.14 59.0599 13.299C59.0599 13.458 59.1865 13.5846 59.3454 13.5846ZM56.0041 13.5846L56.9874 13.5846C57.1463 13.5846 57.2729 13.458 57.2729 13.299C57.2729 13.14 57.1463 13.0135 56.9874 13.0135L56.0041 13.0135C55.8451 13.0135 55.7186 13.14 55.7186 13.299C55.7186 13.458 55.8451 13.5846 56.0041 13.5846ZM59.3454 15.5216L60.3316 15.5216C60.4906 15.5216 60.6172 15.3951 60.6172 15.2361C60.6172 15.0771 60.4906 14.9505 60.3316 14.9505L59.3454 14.9505C59.1865 14.9505 59.0599 15.0771 59.0599 15.2361C59.0599 15.3951 59.1865 15.5216 59.3454 15.5216ZM56.0041 15.5216L56.9874 15.5216C57.1463 15.5216 57.2729 15.3951 57.2729 15.2361C57.2729 15.0771 57.1463 14.9505 56.9874 14.9505L56.0041 14.9505C55.8451 14.9505 55.7186 15.0771 55.7186 15.2361C55.7186 15.3951 55.8451 15.5216 56.0041 15.5216ZM59.3454 17.4617L60.3316 17.4617C60.4906 17.4617 60.6172 17.3351 60.6172 17.1761C60.6172 17.0171 60.4906 16.8906 60.3316 16.8906L59.3454 16.8906C59.1865 16.8906 59.0599 17.0171 59.0599 17.1761C59.0599 17.3351 59.1865 17.4617 59.3454 17.4617ZM56.0041 17.4617L56.9874 17.4617C57.1463 17.4617 57.2729 17.3351 57.2729 17.1761C57.2729 17.0171 57.1463 16.8906 56.9874 16.8906L56.0041 16.8906C55.8451 16.8906 55.7186 17.0171 55.7186 17.1761C55.7186 17.3351 55.8451 17.4617 56.0041 17.4617Z" fill="#56E4EE"/>
<path d="M53.9484 2.8232C54.022 2.8232 54.0956 2.79377 54.1516 2.73783L55.441 1.42191C55.5529 1.31005 55.5499 1.12752 55.4381 1.0186C55.3262 0.906733 55.1437 0.909677 55.0347 1.02154L53.7453 2.33746C53.6334 2.44933 53.6364 2.63185 53.7483 2.74078C53.8042 2.79671 53.8748 2.8232 53.9484 2.8232ZM53.9484 5.33728C54.022 5.33728 54.0956 5.30785 54.1516 5.25191L55.441 3.93599C55.5529 3.82413 55.5499 3.64161 55.4381 3.53268C55.3262 3.42376 55.1437 3.42376 55.0347 3.53563L53.7453 4.85154C53.6334 4.96341 53.6364 5.14593 53.7483 5.25486C53.8042 5.31079 53.8748 5.33728 53.9484 5.33728ZM53.9484 7.85431C54.022 7.85431 54.0956 7.82487 54.1516 7.76894L55.441 6.45596C55.5529 6.34409 55.5499 6.16157 55.4381 6.05265C55.3262 5.94078 55.1437 5.94373 55.0347 6.05559L53.7453 7.36857C53.6334 7.48044 53.6364 7.66296 53.7483 7.77188C53.8042 7.82487 53.8748 7.85431 53.9484 7.85431ZM53.9484 10.3713C54.022 10.3713 54.0956 10.3419 54.1516 10.286L55.441 8.97004C55.5529 8.85817 55.5499 8.67565 55.4381 8.56673C55.3262 8.45486 55.1437 8.45781 55.0347 8.56967L53.7453 9.88559C53.6334 9.99746 53.6364 10.18 53.7483 10.2889C53.8042 10.3448 53.8748 10.3713 53.9484 10.3713ZM53.9484 12.8854C54.022 12.8854 54.0956 12.856 54.1516 12.8L55.441 11.4871C55.5529 11.3752 55.5499 11.1927 55.4381 11.0838C55.3262 10.9719 55.1437 10.9748 55.0347 11.0867L53.7453 12.3997C53.6334 12.5115 53.6364 12.6941 53.7483 12.803C53.8042 12.8589 53.8748 12.8854 53.9484 12.8854ZM53.9484 15.3995C54.022 15.3995 54.0956 15.3701 54.1516 15.3141L55.441 14.0011C55.5529 13.8893 55.5499 13.7068 55.438 13.5978C55.3262 13.486 55.1437 13.4889 55.0347 13.6008L53.7453 14.9138C53.6334 15.0256 53.6364 15.2081 53.7483 15.3171C53.8042 15.373 53.8748 15.3995 53.9484 15.3995ZM54.1604 17.7016C54.234 17.7016 54.3076 17.6722 54.3635 17.6162L55.441 16.5182C55.5499 16.4063 55.5499 16.2238 55.4351 16.1149C55.3232 16.0059 55.1407 16.0059 55.0318 16.1178L53.9543 17.2159C53.8454 17.3277 53.8454 17.5103 53.9602 17.6192C54.0162 17.6751 54.0868 17.7016 54.1604 17.7016Z" fill="#3EBED0"/>
<path d="M62.2144 2.81684C62.2851 2.81684 62.3587 2.79035 62.4146 2.73441C62.5265 2.62549 62.5294 2.44297 62.4176 2.3311L61.1311 1.01813C61.0192 0.906259 60.8396 0.903315 60.7278 1.01518C60.6159 1.12411 60.613 1.30663 60.7248 1.4185L62.0113 2.73147C62.0672 2.7874 62.1408 2.81684 62.2144 2.81684ZM62.2144 5.33092C62.2851 5.33092 62.3587 5.30443 62.4146 5.24849C62.5265 5.13957 62.5294 4.95705 62.4176 4.84518L61.1311 3.53221C61.0192 3.42034 60.8396 3.4174 60.7278 3.52926C60.6159 3.63819 60.613 3.82071 60.7248 3.93258L62.0113 5.24555C62.0672 5.30443 62.1408 5.33092 62.2144 5.33092ZM62.2144 7.84795C62.288 7.84795 62.3587 7.82145 62.4146 7.76552C62.5265 7.65365 62.5294 7.47407 62.4176 7.36221L61.1311 6.05218C61.0192 5.94031 60.8396 5.93736 60.7278 6.04923C60.6159 6.1611 60.613 6.34068 60.7248 6.45254L62.0113 7.76257C62.0672 7.81851 62.1408 7.84795 62.2144 7.84795ZM62.2144 10.365C62.2851 10.365 62.3587 10.3385 62.4146 10.2825C62.5265 10.1736 62.5294 9.9911 62.4176 9.87923L61.1311 8.56626C61.0192 8.45439 60.8396 8.45144 60.7278 8.56331C60.6159 8.67224 60.613 8.85476 60.7248 8.96662L62.0113 10.2796C62.0672 10.3355 62.1408 10.365 62.2144 10.365ZM62.2144 12.8791C62.288 12.8791 62.3587 12.8526 62.4146 12.7966C62.5265 12.6848 62.5294 12.5052 62.4176 12.3933L61.1311 11.0833C61.0192 10.9714 60.8396 10.9685 60.7278 11.0803C60.6159 11.1922 60.613 11.3718 60.7248 11.4836L62.0113 12.7937C62.0672 12.8496 62.1408 12.8791 62.2144 12.8791ZM62.2144 15.3931C62.288 15.3931 62.3587 15.3666 62.4146 15.3107C62.5265 15.1988 62.5294 15.0193 62.4176 14.9074L61.1311 13.5974C61.0192 13.4855 60.8396 13.4825 60.7278 13.5944C60.6159 13.7063 60.613 13.8859 60.7248 13.9977L62.0113 15.3078C62.0672 15.3666 62.1408 15.3931 62.2144 15.3931ZM62.0054 17.6982C62.0761 17.6982 62.1497 17.6717 62.2056 17.6158C62.3175 17.5068 62.3204 17.3243 62.2085 17.2125L61.1311 16.1144C61.0192 16.0025 60.8396 15.9996 60.7278 16.1114C60.6159 16.2204 60.613 16.4029 60.7248 16.5148L61.8023 17.6128C61.8582 17.6688 61.9318 17.6982 62.0054 17.6982Z" fill="#3EBED0"/>
<path d="M55.9822 18.8409L60.1802 18.8409C61.1694 18.8409 62.0496 18.2138 62.3734 17.2806C62.4087 17.1805 62.4382 17.0687 62.4588 16.9597C62.4853 16.8214 62.5 16.6712 62.5 16.5211L62.5 2.32273C62.5 2.27563 62.5 2.22852 62.4971 2.18142C62.4882 2.0254 62.4617 1.86937 62.4205 1.7104C62.4205 1.70451 62.4176 1.70157 62.4176 1.69568C62.3587 1.48666 62.2704 1.28648 62.1556 1.10101C61.7258 0.412144 60.9898 -6.60136e-08 60.1802 -1.01401e-07L55.9852 -2.84772e-07C54.9489 -3.30068e-07 54.0304 0.697701 53.7508 1.69274C53.7066 1.84876 53.6772 2.01362 53.6683 2.17553C53.6654 2.22264 53.6654 2.26974 53.6654 2.31978L53.6654 16.5182C53.6654 16.6683 53.6801 16.8184 53.7095 16.9597C53.7302 17.0657 53.7567 17.1746 53.7949 17.2806C54.1129 18.2138 54.9931 18.8409 55.9822 18.8409ZM61.8612 1.83993C61.8612 1.84287 61.8641 1.84582 61.8641 1.85171C61.8965 1.97241 61.9171 2.09605 61.9259 2.21675C61.9289 2.25207 61.9289 2.2874 61.9289 2.32567L61.9289 16.524C61.9289 16.6389 61.9171 16.7507 61.8965 16.8567C61.8818 16.9421 61.8612 17.0186 61.8317 17.0922C61.5874 17.7988 60.9221 18.2727 60.1773 18.2727L55.9822 18.2727C55.2374 18.2727 54.5721 17.7988 54.3307 17.0952C54.3013 17.0157 54.2807 16.9391 54.2659 16.8596C54.2453 16.7478 54.2336 16.6359 54.2336 16.524L54.2336 2.32273C54.2336 2.2874 54.2336 2.24913 54.2365 2.2138C54.2453 2.09016 54.2659 1.96946 54.2983 1.84876C54.5103 1.09513 55.2021 0.571114 55.9822 0.571114L60.1802 0.571114C60.7896 0.571114 61.346 0.880223 61.6698 1.40129C61.7523 1.53671 61.817 1.6839 61.8612 1.83993Z" fill="#3EBED0"/>
<path d="M2.83944 18.8409C2.99841 18.8409 3.125 18.7143 3.125 18.5553L3.125 0.285557C3.125 0.126587 2.99841 -5.53332e-09 2.83944 -1.24821e-08C2.68047 -1.94309e-08 2.55388 0.126587 2.55388 0.285557L2.55388 18.5553C2.55388 18.7114 2.68047 18.8409 2.83944 18.8409Z" fill="#56E4EE"/>
<path d="M4.41757 18.8409C4.57654 18.8409 4.70312 18.7143 4.70312 18.5553L4.70312 0.285557C4.70312 0.126587 4.57359 -5.66198e-09 4.41757 -1.24821e-08C4.2586 -1.94309e-08 4.13201 0.126587 4.13201 0.285557L4.13201 18.5553C4.13201 18.7114 4.2586 18.8409 4.41757 18.8409Z" fill="#3EBED0"/>
<path d="M6.24569 18.8409C6.40466 18.8409 6.53125 18.7143 6.53125 18.5553L6.53125 0.285557C6.53125 0.126587 6.40466 -5.53332e-09 6.24569 -1.24821e-08C6.08672 -1.94309e-08 5.96014 0.126587 5.96014 0.285557L5.96013 18.5553C5.96013 18.7114 6.08967 18.8409 6.24569 18.8409Z" fill="#56E4EE"/>
<path d="M5.68137 1.93855L6.66757 1.93855C6.82654 1.93855 6.95312 1.81196 6.95312 1.65299C6.95312 1.49402 6.82654 1.36743 6.66757 1.36743L5.68137 1.36743C5.5224 1.36743 5.39581 1.49402 5.39581 1.65299C5.39581 1.81196 5.5224 1.93855 5.68137 1.93855ZM2.34005 1.93855L3.32331 1.93855C3.48228 1.93855 3.60887 1.81196 3.60887 1.65299C3.60887 1.49402 3.48228 1.36743 3.32331 1.36743L2.34005 1.36743C2.18108 1.36743 2.05449 1.49402 2.05449 1.65299C2.05449 1.81196 2.18108 1.93855 2.34005 1.93855ZM5.68137 3.88151L6.66757 3.88151C6.82654 3.88151 6.95312 3.75493 6.95312 3.59596C6.95312 3.43699 6.82654 3.3104 6.66757 3.3104L5.68137 3.3104C5.5224 3.3104 5.39581 3.43699 5.39581 3.59596C5.39581 3.75198 5.5224 3.88151 5.68137 3.88151ZM2.34005 3.88151L3.32331 3.88151C3.48228 3.88151 3.60887 3.75493 3.60887 3.59596C3.60887 3.43699 3.48228 3.3104 3.32331 3.3104L2.34005 3.3104C2.18108 3.3104 2.05449 3.43699 2.05449 3.59596C2.05449 3.75198 2.18108 3.88151 2.34005 3.88151ZM5.68137 5.82154L6.66757 5.82154C6.82654 5.82154 6.95312 5.69495 6.95312 5.53598C6.95312 5.37701 6.82654 5.25042 6.66757 5.25042L5.68137 5.25042C5.5224 5.25042 5.39581 5.37701 5.39581 5.53598C5.39581 5.69495 5.5224 5.82154 5.68137 5.82154ZM2.34005 5.82154L3.32331 5.82154C3.48228 5.82154 3.60887 5.69495 3.60887 5.53598C3.60887 5.37701 3.48228 5.25042 3.32331 5.25042L2.34005 5.25042C2.18108 5.25042 2.05449 5.37701 2.05449 5.53598C2.05449 5.69495 2.18108 5.82154 2.34005 5.82154ZM5.68136 7.76156L6.66757 7.76156C6.82654 7.76156 6.95312 7.63497 6.95312 7.476C6.95312 7.31703 6.82654 7.19044 6.66757 7.19044L5.68136 7.19044C5.52239 7.19044 5.39581 7.31703 5.39581 7.476C5.39581 7.63497 5.52239 7.76156 5.68136 7.76156ZM2.34005 7.76156L3.32331 7.76156C3.48228 7.76156 3.60887 7.63497 3.60887 7.476C3.60887 7.31703 3.48228 7.19044 3.32331 7.19044L2.34005 7.19044C2.18108 7.19044 2.05449 7.31703 2.05449 7.476C2.05449 7.63497 2.18108 7.76156 2.34005 7.76156ZM5.68136 9.70158L6.66757 9.70158C6.82654 9.70158 6.95312 9.57499 6.95312 9.41602C6.95312 9.25705 6.82654 9.13047 6.66757 9.13047L5.68136 9.13047C5.52239 9.13047 5.39581 9.25705 5.39581 9.41602C5.39581 9.57205 5.52239 9.70158 5.68136 9.70158ZM2.34005 9.70158L3.32331 9.70158C3.48228 9.70158 3.60887 9.57499 3.60887 9.41602C3.60887 9.25705 3.48228 9.13047 3.32331 9.13047L2.34005 9.13047C2.18108 9.13047 2.05449 9.25705 2.05449 9.41602C2.05449 9.57205 2.18108 9.70158 2.34005 9.70158ZM5.68136 11.6416L6.66757 11.6416C6.82654 11.6416 6.95312 11.515 6.95312 11.356C6.95312 11.1971 6.82654 11.0705 6.66757 11.0705L5.68136 11.0705C5.52239 11.0705 5.39581 11.1971 5.39581 11.356C5.39581 11.515 5.52239 11.6416 5.68136 11.6416ZM2.34005 11.6416L3.32331 11.6416C3.48228 11.6416 3.60887 11.515 3.60887 11.356C3.60887 11.1971 3.48228 11.0705 3.32331 11.0705L2.34005 11.0705C2.18108 11.0705 2.05449 11.1971 2.05449 11.356C2.05449 11.515 2.18108 11.6416 2.34005 11.6416ZM5.68136 13.5846L6.66757 13.5846C6.82654 13.5846 6.95312 13.458 6.95312 13.299C6.95312 13.14 6.82654 13.0135 6.66757 13.0135L5.68136 13.0135C5.52239 13.0135 5.39581 13.14 5.39581 13.299C5.39581 13.458 5.52239 13.5846 5.68136 13.5846ZM2.34005 13.5846L3.32331 13.5846C3.48228 13.5846 3.60887 13.458 3.60887 13.299C3.60887 13.14 3.48228 13.0135 3.32331 13.0135L2.34005 13.0135C2.18108 13.0135 2.05449 13.14 2.05449 13.299C2.05449 13.458 2.18108 13.5846 2.34005 13.5846ZM5.68136 15.5216L6.66757 15.5216C6.82654 15.5216 6.95312 15.3951 6.95312 15.2361C6.95312 15.0771 6.82654 14.9505 6.66757 14.9505L5.68136 14.9505C5.52239 14.9505 5.39581 15.0771 5.39581 15.2361C5.39581 15.3951 5.52239 15.5216 5.68136 15.5216ZM2.34005 15.5216L3.32331 15.5216C3.48228 15.5216 3.60887 15.3951 3.60887 15.2361C3.60887 15.0771 3.48228 14.9505 3.32331 14.9505L2.34005 14.9505C2.18108 14.9505 2.05449 15.0771 2.05449 15.2361C2.05449 15.3951 2.18108 15.5216 2.34005 15.5216ZM5.68136 17.4617L6.66757 17.4617C6.82654 17.4617 6.95312 17.3351 6.95312 17.1761C6.95312 17.0171 6.82654 16.8906 6.66757 16.8906L5.68136 16.8906C5.52239 16.8906 5.39581 17.0171 5.39581 17.1761C5.39581 17.3351 5.52239 17.4617 5.68136 17.4617ZM2.34005 17.4617L3.32331 17.4617C3.48228 17.4617 3.60887 17.3351 3.60887 17.1761C3.60887 17.0171 3.48228 16.8906 3.32331 16.8906L2.34005 16.8906C2.18108 16.8906 2.05449 17.0171 2.05449 17.1761C2.05449 17.3351 2.18108 17.4617 2.34005 17.4617Z" fill="#56E4EE"/>
<path d="M0.28438 2.8232C0.357977 2.8232 0.431575 2.79377 0.487509 2.73783L1.77693 1.42191C1.8888 1.31005 1.88586 1.12752 1.77399 1.0186C1.66212 0.906733 1.4796 0.909677 1.37068 1.02154L0.0812519 2.33746C-0.0306159 2.44933 -0.0276725 2.63185 0.0841953 2.74078C0.140129 2.79671 0.210783 2.8232 0.28438 2.8232ZM0.28438 5.33728C0.357977 5.33728 0.431575 5.30785 0.487509 5.25191L1.77693 3.93599C1.8888 3.82413 1.88586 3.64161 1.77399 3.53268C1.66212 3.42376 1.4796 3.42376 1.37068 3.53563L0.0812518 4.85154C-0.030616 4.96341 -0.0276726 5.14593 0.0841952 5.25486C0.140129 5.31079 0.210782 5.33728 0.28438 5.33728ZM0.28438 7.85431C0.357977 7.85431 0.431575 7.82487 0.487509 7.76894L1.77693 6.45596C1.8888 6.34409 1.88586 6.16157 1.77399 6.05265C1.66212 5.94078 1.4796 5.94373 1.37068 6.05559L0.0812517 7.36857C-0.0306161 7.48044 -0.0276727 7.66296 0.0841951 7.77188C0.140129 7.82487 0.210782 7.85431 0.28438 7.85431ZM0.284379 10.3713C0.357977 10.3713 0.431575 10.3419 0.487509 10.286L1.77693 8.97004C1.8888 8.85817 1.88586 8.67565 1.77399 8.56673C1.66212 8.45486 1.4796 8.45781 1.37068 8.56967L0.0812516 9.88559C-0.0306162 9.99746 -0.0276728 10.18 0.084195 10.2889C0.140129 10.3448 0.210782 10.3713 0.284379 10.3713ZM0.284379 12.8854C0.357977 12.8854 0.431575 12.856 0.487508 12.8L1.77693 11.4871C1.8888 11.3752 1.88586 11.1927 1.77399 11.0838C1.66212 10.9719 1.4796 10.9748 1.37068 11.0867L0.0812515 12.3997C-0.0306163 12.5115 -0.0276729 12.6941 0.0841949 12.803C0.140129 12.8589 0.210782 12.8854 0.284379 12.8854ZM0.284379 15.3995C0.357976 15.3995 0.431574 15.3701 0.487508 15.3141L1.77693 14.0011C1.8888 13.8893 1.88586 13.7068 1.77399 13.5978C1.66212 13.486 1.4796 13.4889 1.37067 13.6008L0.0812514 14.9138C-0.0306164 15.0256 -0.027673 15.2081 0.0841947 15.3171C0.140129 15.373 0.210782 15.3995 0.284379 15.3995ZM0.496339 17.7016C0.569937 17.7016 0.643534 17.6722 0.699467 17.6162L1.77693 16.5182C1.88585 16.4063 1.88585 16.2238 1.77104 16.1149C1.65918 16.0059 1.47665 16.0059 1.36773 16.1178L0.290267 17.2159C0.181343 17.3277 0.181343 17.5103 0.296155 17.6192C0.352089 17.6751 0.422742 17.7016 0.496339 17.7016Z" fill="#3EBED0"/>
<path d="M8.55037 2.81684C8.62102 2.81684 8.69462 2.79035 8.75055 2.73441C8.86242 2.62549 8.86536 2.44297 8.75349 2.3311L7.46702 1.01813C7.35515 0.906259 7.17557 0.903315 7.0637 1.01518C6.95183 1.12411 6.94889 1.30663 7.06076 1.4185L8.34724 2.73147C8.40317 2.7874 8.47677 2.81684 8.55037 2.81684ZM8.55037 5.33092C8.62102 5.33092 8.69462 5.30443 8.75055 5.24849C8.86242 5.13957 8.86536 4.95705 8.75349 4.84518L7.46702 3.53221C7.35515 3.42034 7.17557 3.4174 7.0637 3.52926C6.95183 3.63819 6.94889 3.82071 7.06076 3.93258L8.34724 5.24555C8.40317 5.30443 8.47677 5.33092 8.55037 5.33092ZM8.55037 7.84795C8.62396 7.84795 8.69462 7.82145 8.75055 7.76552C8.86242 7.65365 8.86536 7.47407 8.75349 7.36221L7.46702 6.05218C7.35515 5.94031 7.17557 5.93736 7.0637 6.04923C6.95183 6.1611 6.94889 6.34068 7.06076 6.45254L8.34724 7.76257C8.40317 7.81851 8.47677 7.84795 8.55037 7.84795ZM8.55037 10.365C8.62102 10.365 8.69462 10.3385 8.75055 10.2825C8.86242 10.1736 8.86536 9.9911 8.75349 9.87923L7.46701 8.56626C7.35515 8.45439 7.17557 8.45144 7.0637 8.56331C6.95183 8.67224 6.94889 8.85476 7.06076 8.96662L8.34724 10.2796C8.40317 10.3355 8.47677 10.365 8.55037 10.365ZM8.55037 12.8791C8.62396 12.8791 8.69462 12.8526 8.75055 12.7966C8.86242 12.6848 8.86536 12.5052 8.75349 12.3933L7.46701 11.0833C7.35515 10.9714 7.17557 10.9685 7.0637 11.0803C6.95183 11.1922 6.94889 11.3718 7.06076 11.4836L8.34724 12.7937C8.40317 12.8496 8.47677 12.8791 8.55037 12.8791ZM8.55037 15.3931C8.62396 15.3931 8.69462 15.3666 8.75055 15.3107C8.86242 15.1988 8.86536 15.0193 8.75349 14.9074L7.46701 13.5974C7.35515 13.4855 7.17557 13.4825 7.0637 13.5944C6.95183 13.7063 6.94889 13.8859 7.06076 13.9977L8.34724 15.3078C8.40317 15.3666 8.47677 15.3931 8.55037 15.3931ZM8.34135 17.6982C8.412 17.6982 8.4856 17.6717 8.54153 17.6158C8.6534 17.5068 8.65635 17.3243 8.54448 17.2125L7.46701 16.1144C7.35515 16.0025 7.17557 15.9996 7.0637 16.1114C6.95183 16.2204 6.94889 16.4029 7.06076 16.5148L8.13822 17.6128C8.19415 17.6688 8.26775 17.6982 8.34135 17.6982Z" fill="#3EBED0"/>
<path d="M2.31817 18.8409L6.51615 18.8409C7.5053 18.8409 8.38552 18.2138 8.70935 17.2806C8.74468 17.1805 8.77412 17.0687 8.79472 16.9597C8.82122 16.8214 8.83594 16.6712 8.83594 16.5211L8.83594 2.32273C8.83594 2.27563 8.83594 2.22852 8.83299 2.18142C8.82416 2.0254 8.79767 1.86937 8.75645 1.7104C8.75645 1.70451 8.75351 1.70157 8.75351 1.69568C8.69463 1.48666 8.60631 1.28648 8.4915 1.10101C8.06169 0.412144 7.32572 -6.60136e-08 6.51615 -1.01401e-07L2.32111 -2.84772e-07C1.28486 -3.30068e-07 0.366371 0.697701 0.0867016 1.69274C0.0425432 1.84876 0.0131036 2.01362 0.00427192 2.17553C0.00132803 2.22264 0.00132853 2.26974 0.00132852 2.31978L0.0013279 16.5182C0.0013279 16.6683 0.0160478 16.8184 0.0454867 16.9597C0.0660939 17.0657 0.092588 17.1746 0.130859 17.2806C0.448798 18.2138 1.32902 18.8409 2.31817 18.8409ZM8.19711 1.83993C8.19711 1.84287 8.20006 1.84582 8.20006 1.85171C8.23244 1.97241 8.25305 2.09605 8.26188 2.21675C8.26482 2.25207 8.26482 2.2874 8.26482 2.32567L8.26482 16.524C8.26482 16.6389 8.25305 16.7507 8.23244 16.8567C8.21772 16.9421 8.19711 17.0186 8.16767 17.0922C7.92333 17.7988 7.25801 18.2727 6.51321 18.2727L2.31817 18.2727C1.57336 18.2727 0.908045 17.7988 0.666646 17.0952C0.637207 17.0157 0.616601 16.9391 0.601881 16.8596C0.581274 16.7478 0.569498 16.6359 0.569498 16.524L0.569499 2.32273C0.569499 2.2874 0.569499 2.24913 0.572442 2.2138C0.581274 2.09016 0.601882 1.96946 0.634265 1.84876C0.846225 1.09513 1.53804 0.571114 2.31817 0.571114L6.51615 0.571114C7.12554 0.571114 7.68193 0.880223 8.00576 1.40129C8.08819 1.53671 8.15296 1.6839 8.19711 1.83993Z" fill="#3EBED0"/>
</svg>
