<svg width="63" height="143" viewBox="0 0 63 143" fill="none" xmlns="http://www.w3.org/2000/svg">
<line y1="-0.5" x2="75" y2="-0.5" transform="matrix(0 1 1 0 32 10)" stroke="white"/>
<line y1="-0.5" x2="45" y2="-0.5" transform="matrix(0 1 1 0 32 87)" stroke="white"/>
<path d="M8.83594 86.8359L53.8902 86.8359" stroke="white" strokeLinecap="square"/>
<path d="M8.83594 85.1953L53.8902 85.1953" stroke="white" strokeLinecap="square"/>
<path d="M56.5035 95.8409C56.6625 95.8409 56.7891 95.7143 56.7891 95.5553L56.7891 77.2856C56.7891 77.1266 56.6625 77 56.5035 77C56.3445 77 56.2179 77.1266 56.2179 77.2856L56.2179 95.5553C56.2179 95.7114 56.3445 95.8409 56.5035 95.8409Z" fill="#56E4EE"/>
<path d="M58.0816 95.8409C58.2406 95.8409 58.3672 95.7143 58.3672 95.5553L58.3672 77.2856C58.3672 77.1266 58.2377 77 58.0816 77C57.9227 77 57.7961 77.1266 57.7961 77.2856L57.7961 95.5553C57.7961 95.7114 57.9227 95.8409 58.0816 95.8409Z" fill="#3EBED0"/>
<path d="M59.9098 95.8409C60.0687 95.8409 60.1953 95.7143 60.1953 95.5553L60.1953 77.2856C60.1953 77.1266 60.0687 77 59.9098 77C59.7508 77 59.6242 77.1266 59.6242 77.2856L59.6242 95.5553C59.6242 95.7114 59.7537 95.8409 59.9098 95.8409Z" fill="#56E4EE"/>
<path d="M59.3454 78.9434L60.3316 78.9434C60.4906 78.9434 60.6172 78.8168 60.6172 78.6579C60.6172 78.4989 60.4906 78.3723 60.3316 78.3723L59.3454 78.3723C59.1865 78.3723 59.0599 78.4989 59.0599 78.6579C59.0599 78.8168 59.1865 78.9434 59.3454 78.9434ZM56.0041 78.9434L56.9874 78.9434C57.1463 78.9434 57.2729 78.8168 57.2729 78.6579C57.2729 78.4989 57.1463 78.3723 56.9874 78.3723L56.0041 78.3723C55.8451 78.3723 55.7186 78.4989 55.7186 78.6579C55.7186 78.8168 55.8451 78.9434 56.0041 78.9434ZM59.3454 80.8864L60.3316 80.8864C60.4906 80.8864 60.6172 80.7598 60.6172 80.6008C60.6172 80.4419 60.4906 80.3153 60.3316 80.3153L59.3454 80.3153C59.1865 80.3153 59.0599 80.4419 59.0599 80.6008C59.0599 80.7569 59.1865 80.8864 59.3454 80.8864ZM56.0041 80.8864L56.9874 80.8864C57.1463 80.8864 57.2729 80.7598 57.2729 80.6008C57.2729 80.4419 57.1463 80.3153 56.9874 80.3153L56.0041 80.3153C55.8451 80.3153 55.7186 80.4419 55.7186 80.6008C55.7186 80.7569 55.8451 80.8864 56.0041 80.8864ZM59.3454 82.8264L60.3316 82.8264C60.4906 82.8264 60.6172 82.6998 60.6172 82.5409C60.6172 82.3819 60.4906 82.2553 60.3316 82.2553L59.3454 82.2553C59.1865 82.2553 59.0599 82.3819 59.0599 82.5409C59.0599 82.6998 59.1865 82.8264 59.3454 82.8264ZM56.0041 82.8264L56.9874 82.8264C57.1463 82.8264 57.2729 82.6998 57.2729 82.5409C57.2729 82.3819 57.1463 82.2553 56.9874 82.2553L56.0041 82.2553C55.8451 82.2553 55.7186 82.3819 55.7186 82.5409C55.7186 82.6998 55.8451 82.8264 56.0041 82.8264ZM59.3454 84.7664L60.3316 84.7664C60.4906 84.7664 60.6172 84.6399 60.6172 84.4809C60.6172 84.3219 60.4906 84.1953 60.3316 84.1953L59.3454 84.1953C59.1865 84.1953 59.0599 84.3219 59.0599 84.4809C59.0599 84.6399 59.1865 84.7664 59.3454 84.7664ZM56.0041 84.7664L56.9874 84.7664C57.1463 84.7664 57.2729 84.6399 57.2729 84.4809C57.2729 84.3219 57.1463 84.1953 56.9874 84.1953L56.0041 84.1953C55.8451 84.1953 55.7186 84.3219 55.7186 84.4809C55.7186 84.6399 55.8451 84.7664 56.0041 84.7664ZM59.3454 86.7065L60.3316 86.7065C60.4906 86.7065 60.6172 86.5799 60.6172 86.4209C60.6172 86.2619 60.4906 86.1353 60.3316 86.1353L59.3454 86.1353C59.1865 86.1353 59.0599 86.2619 59.0599 86.4209C59.0599 86.5769 59.1865 86.7065 59.3454 86.7065ZM56.0041 86.7065L56.9874 86.7065C57.1463 86.7065 57.2729 86.5799 57.2729 86.4209C57.2729 86.2619 57.1463 86.1353 56.9874 86.1353L56.0041 86.1353C55.8451 86.1353 55.7186 86.2619 55.7186 86.4209C55.7186 86.5769 55.8451 86.7065 56.0041 86.7065ZM59.3454 88.6465L60.3316 88.6465C60.4906 88.6465 60.6172 88.5199 60.6172 88.3609C60.6172 88.202 60.4906 88.0754 60.3316 88.0754L59.3454 88.0754C59.1865 88.0754 59.0599 88.202 59.0599 88.3609C59.0599 88.5199 59.1865 88.6465 59.3454 88.6465ZM56.0041 88.6465L56.9874 88.6465C57.1463 88.6465 57.2729 88.5199 57.2729 88.3609C57.2729 88.202 57.1463 88.0754 56.9874 88.0754L56.0041 88.0754C55.8451 88.0754 55.7186 88.202 55.7186 88.3609C55.7186 88.5199 55.8451 88.6465 56.0041 88.6465ZM59.3454 90.5895L60.3316 90.5895C60.4906 90.5895 60.6172 90.4629 60.6172 90.3039C60.6172 90.1449 60.4906 90.0183 60.3316 90.0183L59.3454 90.0183C59.1865 90.0183 59.0599 90.1449 59.0599 90.3039C59.0599 90.4629 59.1865 90.5895 59.3454 90.5895ZM56.0041 90.5895L56.9874 90.5895C57.1463 90.5895 57.2729 90.4629 57.2729 90.3039C57.2729 90.1449 57.1463 90.0183 56.9874 90.0183L56.0041 90.0183C55.8451 90.0183 55.7186 90.1449 55.7186 90.3039C55.7186 90.4629 55.8451 90.5895 56.0041 90.5895ZM59.3454 92.5265L60.3316 92.5265C60.4906 92.5265 60.6172 92.3999 60.6172 92.241C60.6172 92.082 60.4906 91.9554 60.3316 91.9554L59.3454 91.9554C59.1865 91.9554 59.0599 92.082 59.0599 92.241C59.0599 92.3999 59.1865 92.5265 59.3454 92.5265ZM56.0041 92.5265L56.9874 92.5265C57.1463 92.5265 57.2729 92.3999 57.2729 92.241C57.2729 92.082 57.1463 91.9554 56.9874 91.9554L56.0041 91.9554C55.8451 91.9554 55.7186 92.082 55.7186 92.241C55.7186 92.3999 55.8451 92.5265 56.0041 92.5265ZM59.3454 94.4666L60.3316 94.4666C60.4906 94.4666 60.6172 94.34 60.6172 94.181C60.6172 94.022 60.4906 93.8954 60.3316 93.8954L59.3454 93.8954C59.1865 93.8954 59.0599 94.022 59.0599 94.181C59.0599 94.34 59.1865 94.4666 59.3454 94.4666ZM56.0041 94.4666L56.9874 94.4666C57.1463 94.4666 57.2729 94.34 57.2729 94.181C57.2729 94.022 57.1463 93.8954 56.9874 93.8954L56.0041 93.8954C55.8451 93.8954 55.7186 94.022 55.7186 94.181C55.7186 94.34 55.8451 94.4666 56.0041 94.4666Z" fill="#56E4EE"/>
<path d="M53.9484 79.8232C54.022 79.8232 54.0956 79.7938 54.1516 79.7378L55.441 78.4219C55.5529 78.31 55.5499 78.1275 55.4381 78.0186C55.3262 77.9067 55.1437 77.9097 55.0347 78.0215L53.7453 79.3375C53.6334 79.4493 53.6364 79.6319 53.7483 79.7408C53.8042 79.7967 53.8748 79.8232 53.9484 79.8232ZM53.9484 82.3373C54.022 82.3373 54.0956 82.3078 54.1516 82.2519L55.441 80.936C55.5529 80.8241 55.5499 80.6416 55.4381 80.5327C55.3262 80.4238 55.1437 80.4238 55.0347 80.5356L53.7453 81.8515C53.6334 81.9634 53.6364 82.1459 53.7483 82.2549C53.8042 82.3108 53.8748 82.3373 53.9484 82.3373ZM53.9484 84.8543C54.022 84.8543 54.0956 84.8249 54.1516 84.7689L55.441 83.456C55.5529 83.3441 55.5499 83.1616 55.4381 83.0526C55.3262 82.9408 55.1437 82.9437 55.0347 83.0556L53.7453 84.3686C53.6334 84.4804 53.6364 84.663 53.7483 84.7719C53.8042 84.8249 53.8748 84.8543 53.9484 84.8543ZM53.9484 87.3713C54.022 87.3713 54.0956 87.3419 54.1516 87.286L55.441 85.97C55.5529 85.8582 55.5499 85.6757 55.4381 85.5667C55.3262 85.4549 55.1437 85.4578 55.0347 85.5697L53.7453 86.8856C53.6334 86.9975 53.6364 87.18 53.7483 87.2889C53.8042 87.3448 53.8748 87.3713 53.9484 87.3713ZM53.9484 89.8854C54.022 89.8854 54.0956 89.856 54.1516 89.8L55.441 88.4871C55.5529 88.3752 55.5499 88.1927 55.4381 88.0838C55.3262 87.9719 55.1437 87.9748 55.0347 88.0867L53.7453 89.3997C53.6334 89.5115 53.6364 89.6941 53.7483 89.803C53.8042 89.8589 53.8748 89.8854 53.9484 89.8854ZM53.9484 92.3995C54.022 92.3995 54.0956 92.3701 54.1516 92.3141L55.441 91.0011C55.5529 90.8893 55.5499 90.7068 55.438 90.5978C55.3262 90.486 55.1437 90.4889 55.0347 90.6008L53.7453 91.9138C53.6334 92.0256 53.6364 92.2081 53.7483 92.3171C53.8042 92.373 53.8748 92.3995 53.9484 92.3995ZM54.1604 94.7016C54.234 94.7016 54.3076 94.6722 54.3635 94.6162L55.441 93.5182C55.5499 93.4063 55.5499 93.2238 55.4351 93.1149C55.3232 93.0059 55.1407 93.0059 55.0318 93.1178L53.9543 94.2159C53.8454 94.3277 53.8454 94.5103 53.9602 94.6192C54.0162 94.6751 54.0868 94.7016 54.1604 94.7016Z" fill="#3EBED0"/>
<path d="M62.2144 79.8206C62.2851 79.8206 62.3587 79.7941 62.4146 79.7382C62.5265 79.6293 62.5294 79.4468 62.4176 79.3349L61.1311 78.0219C61.0192 77.91 60.8396 77.9071 60.7278 78.019C60.6159 78.1279 60.613 78.3104 60.7248 78.4223L62.0113 79.7353C62.0672 79.7912 62.1408 79.8206 62.2144 79.8206ZM62.2144 82.3347C62.2851 82.3347 62.3587 82.3082 62.4146 82.2523C62.5265 82.1434 62.5294 81.9608 62.4176 81.849L61.1311 80.536C61.0192 80.4241 60.8396 80.4212 60.7278 80.533C60.6159 80.642 60.613 80.8245 60.7248 80.9364L62.0113 82.2493C62.0672 82.3082 62.1408 82.3347 62.2144 82.3347ZM62.2144 84.8517C62.288 84.8517 62.3587 84.8252 62.4146 84.7693C62.5265 84.6574 62.5294 84.4779 62.4176 84.366L61.1311 83.056C61.0192 82.9441 60.8396 82.9411 60.7278 83.053C60.6159 83.1649 60.613 83.3445 60.7248 83.4563L62.0113 84.7664C62.0672 84.8223 62.1408 84.8517 62.2144 84.8517ZM62.2144 87.3688C62.2851 87.3688 62.3587 87.3423 62.4146 87.2863C62.5265 87.1774 62.5294 86.9949 62.4176 86.883L61.1311 85.57C61.0192 85.4582 60.8396 85.4552 60.7278 85.5671C60.6159 85.676 60.613 85.8585 60.7248 85.9704L62.0113 87.2834C62.0672 87.3393 62.1408 87.3688 62.2144 87.3688ZM62.2144 89.8828C62.288 89.8828 62.3587 89.8563 62.4146 89.8004C62.5265 89.6885 62.5294 89.509 62.4176 89.3971L61.1311 88.0871C61.0192 87.9752 60.8396 87.9723 60.7278 88.0841C60.6159 88.196 60.613 88.3756 60.7248 88.4874L62.0113 89.7975C62.0672 89.8534 62.1408 89.8828 62.2144 89.8828ZM62.2144 92.3969C62.288 92.3969 62.3587 92.3704 62.4146 92.3145C62.5265 92.2026 62.5294 92.023 62.4176 91.9112L61.1311 90.6011C61.0192 90.4893 60.8396 90.4863 60.7278 90.5982C60.6159 90.7101 60.613 90.8896 60.7248 91.0015L62.0113 92.3115C62.0672 92.3704 62.1408 92.3969 62.2144 92.3969ZM62.0054 94.702C62.0761 94.702 62.1497 94.6755 62.2056 94.6196C62.3175 94.5106 62.3204 94.3281 62.2085 94.2162L61.1311 93.1182C61.0192 93.0063 60.8396 93.0034 60.7278 93.1152C60.6159 93.2242 60.613 93.4067 60.7248 93.5185L61.8023 94.6166C61.8582 94.6725 61.9318 94.702 62.0054 94.702Z" fill="#3EBED0"/>
<path d="M55.9822 95.8426L60.1802 95.8426C61.1694 95.8426 62.0496 95.2155 62.3734 94.2823C62.4087 94.1822 62.4382 94.0704 62.4588 93.9615C62.4853 93.8231 62.5 93.6729 62.5 93.5228L62.5 79.3244C62.5 79.2773 62.5 79.2302 62.4971 79.1831C62.4882 79.0271 62.4617 78.8711 62.4205 78.7121C62.4205 78.7062 62.4176 78.7033 62.4176 78.6974C62.3587 78.4884 62.2704 78.2882 62.1556 78.1027C61.7258 77.4139 60.9898 77.0017 60.1802 77.0017L55.9852 77.0017C54.9489 77.0017 54.0304 77.6994 53.7508 78.6944C53.7066 78.8505 53.6772 79.0153 53.6683 79.1772C53.6654 79.2243 53.6654 79.2714 53.6654 79.3215L53.6654 93.5199C53.6654 93.67 53.6801 93.8201 53.7095 93.9615C53.7302 94.0674 53.7567 94.1764 53.7949 94.2823C54.1129 95.2155 54.9931 95.8426 55.9822 95.8426ZM61.8612 78.8416C61.8612 78.8446 61.8641 78.8475 61.8641 78.8534C61.8965 78.9741 61.9171 79.0978 61.9259 79.2185C61.9289 79.2538 61.9289 79.2891 61.9289 79.3274L61.9289 93.5258C61.9289 93.6406 61.9171 93.7524 61.8965 93.8584C61.8818 93.9438 61.8612 94.0203 61.8317 94.0939C61.5874 94.8005 60.9221 95.2744 60.1773 95.2744L55.9822 95.2744C55.2374 95.2744 54.5721 94.8005 54.3307 94.0969C54.3013 94.0174 54.2807 93.9408 54.2659 93.8614C54.2453 93.7495 54.2336 93.6376 54.2336 93.5258L54.2336 79.3244C54.2336 79.2891 54.2336 79.2508 54.2365 79.2155C54.2453 79.0919 54.2659 78.9712 54.2983 78.8505C54.5103 78.0968 55.2021 77.5728 55.9822 77.5728L60.1802 77.5728C60.7896 77.5728 61.346 77.8819 61.6698 78.403C61.7523 78.5384 61.817 78.6856 61.8612 78.8416Z" fill="#3EBED0"/>
<path d="M2.83944 95.8409C2.99841 95.8409 3.125 95.7143 3.125 95.5553L3.125 77.2856C3.125 77.1266 2.99841 77 2.83944 77C2.68047 77 2.55388 77.1266 2.55388 77.2856L2.55388 95.5553C2.55388 95.7114 2.68047 95.8409 2.83944 95.8409Z" fill="#56E4EE"/>
<path d="M4.41757 95.8409C4.57654 95.8409 4.70312 95.7143 4.70312 95.5553L4.70312 77.2856C4.70312 77.1266 4.57359 77 4.41757 77C4.2586 77 4.13201 77.1266 4.13201 77.2856L4.13201 95.5553C4.13201 95.7114 4.2586 95.8409 4.41757 95.8409Z" fill="#3EBED0"/>
<path d="M6.24569 95.8409C6.40466 95.8409 6.53125 95.7143 6.53125 95.5553L6.53125 77.2856C6.53125 77.1266 6.40466 77 6.24569 77C6.08672 77 5.96014 77.1266 5.96014 77.2856L5.96013 95.5553C5.96013 95.7114 6.08967 95.8409 6.24569 95.8409Z" fill="#56E4EE"/>
<path d="M5.68137 78.9434L6.66757 78.9434C6.82654 78.9434 6.95312 78.8168 6.95312 78.6579C6.95312 78.4989 6.82654 78.3723 6.66757 78.3723L5.68137 78.3723C5.5224 78.3723 5.39581 78.4989 5.39581 78.6579C5.39581 78.8168 5.5224 78.9434 5.68137 78.9434ZM2.34005 78.9434L3.32331 78.9434C3.48228 78.9434 3.60887 78.8168 3.60887 78.6579C3.60887 78.4989 3.48228 78.3723 3.32331 78.3723L2.34005 78.3723C2.18108 78.3723 2.05449 78.4989 2.05449 78.6579C2.05449 78.8168 2.18108 78.9434 2.34005 78.9434ZM5.68137 80.8864L6.66757 80.8864C6.82654 80.8864 6.95312 80.7598 6.95312 80.6008C6.95312 80.4419 6.82654 80.3153 6.66757 80.3153L5.68137 80.3153C5.5224 80.3153 5.39581 80.4419 5.39581 80.6008C5.39581 80.7569 5.5224 80.8864 5.68137 80.8864ZM2.34005 80.8864L3.32331 80.8864C3.48228 80.8864 3.60887 80.7598 3.60887 80.6008C3.60887 80.4419 3.48228 80.3153 3.32331 80.3153L2.34005 80.3153C2.18108 80.3153 2.05449 80.4419 2.05449 80.6008C2.05449 80.7569 2.18108 80.8864 2.34005 80.8864ZM5.68137 82.8264L6.66757 82.8264C6.82654 82.8264 6.95312 82.6998 6.95312 82.5409C6.95312 82.3819 6.82654 82.2553 6.66757 82.2553L5.68137 82.2553C5.5224 82.2553 5.39581 82.3819 5.39581 82.5409C5.39581 82.6998 5.5224 82.8264 5.68137 82.8264ZM2.34005 82.8264L3.32331 82.8264C3.48228 82.8264 3.60887 82.6998 3.60887 82.5409C3.60887 82.3819 3.48228 82.2553 3.32331 82.2553L2.34005 82.2553C2.18108 82.2553 2.05449 82.3819 2.05449 82.5409C2.05449 82.6998 2.18108 82.8264 2.34005 82.8264ZM5.68136 84.7664L6.66757 84.7664C6.82654 84.7664 6.95312 84.6399 6.95312 84.4809C6.95312 84.3219 6.82654 84.1953 6.66757 84.1953L5.68136 84.1953C5.52239 84.1953 5.39581 84.3219 5.39581 84.4809C5.39581 84.6399 5.52239 84.7664 5.68136 84.7664ZM2.34005 84.7664L3.32331 84.7664C3.48228 84.7664 3.60887 84.6399 3.60887 84.4809C3.60887 84.3219 3.48228 84.1953 3.32331 84.1953L2.34005 84.1953C2.18108 84.1953 2.05449 84.3219 2.05449 84.4809C2.05449 84.6399 2.18108 84.7664 2.34005 84.7664ZM5.68136 86.7065L6.66757 86.7065C6.82654 86.7065 6.95312 86.5799 6.95312 86.4209C6.95312 86.2619 6.82654 86.1353 6.66757 86.1353L5.68136 86.1353C5.52239 86.1353 5.39581 86.2619 5.39581 86.4209C5.39581 86.5769 5.52239 86.7065 5.68136 86.7065ZM2.34005 86.7065L3.32331 86.7065C3.48228 86.7065 3.60887 86.5799 3.60887 86.4209C3.60887 86.2619 3.48228 86.1353 3.32331 86.1353L2.34005 86.1353C2.18108 86.1353 2.05449 86.2619 2.05449 86.4209C2.05449 86.5769 2.18108 86.7065 2.34005 86.7065ZM5.68136 88.6465L6.66757 88.6465C6.82654 88.6465 6.95312 88.5199 6.95312 88.3609C6.95312 88.202 6.82654 88.0754 6.66757 88.0754L5.68136 88.0754C5.52239 88.0754 5.39581 88.202 5.39581 88.3609C5.39581 88.5199 5.52239 88.6465 5.68136 88.6465ZM2.34005 88.6465L3.32331 88.6465C3.48228 88.6465 3.60887 88.5199 3.60887 88.3609C3.60887 88.202 3.48228 88.0754 3.32331 88.0754L2.34005 88.0754C2.18108 88.0754 2.05449 88.202 2.05449 88.3609C2.05449 88.5199 2.18108 88.6465 2.34005 88.6465ZM5.68136 90.5895L6.66757 90.5895C6.82654 90.5895 6.95312 90.4629 6.95312 90.3039C6.95312 90.1449 6.82654 90.0183 6.66757 90.0183L5.68136 90.0183C5.52239 90.0183 5.39581 90.1449 5.39581 90.3039C5.39581 90.4629 5.52239 90.5895 5.68136 90.5895ZM2.34005 90.5895L3.32331 90.5895C3.48228 90.5895 3.60887 90.4629 3.60887 90.3039C3.60887 90.1449 3.48228 90.0183 3.32331 90.0183L2.34005 90.0183C2.18108 90.0183 2.05449 90.1449 2.05449 90.3039C2.05449 90.4629 2.18108 90.5895 2.34005 90.5895ZM5.68136 92.5265L6.66757 92.5265C6.82654 92.5265 6.95312 92.3999 6.95312 92.241C6.95312 92.082 6.82654 91.9554 6.66757 91.9554L5.68136 91.9554C5.52239 91.9554 5.39581 92.082 5.39581 92.241C5.39581 92.3999 5.52239 92.5265 5.68136 92.5265ZM2.34005 92.5265L3.32331 92.5265C3.48228 92.5265 3.60887 92.3999 3.60887 92.241C3.60887 92.082 3.48228 91.9554 3.32331 91.9554L2.34005 91.9554C2.18108 91.9554 2.05449 92.082 2.05449 92.241C2.05449 92.3999 2.18108 92.5265 2.34005 92.5265ZM5.68136 94.4666L6.66757 94.4666C6.82654 94.4666 6.95312 94.34 6.95312 94.181C6.95312 94.022 6.82654 93.8954 6.66757 93.8954L5.68136 93.8954C5.52239 93.8954 5.39581 94.022 5.39581 94.181C5.39581 94.34 5.52239 94.4666 5.68136 94.4666ZM2.34005 94.4666L3.32331 94.4666C3.48228 94.4666 3.60887 94.34 3.60887 94.181C3.60887 94.022 3.48228 93.8954 3.32331 93.8954L2.34005 93.8954C2.18108 93.8954 2.05449 94.022 2.05449 94.181C2.05449 94.34 2.18108 94.4666 2.34005 94.4666Z" fill="#56E4EE"/>
<path d="M0.28438 79.8232C0.357977 79.8232 0.431575 79.7938 0.487509 79.7378L1.77693 78.4219C1.8888 78.31 1.88586 78.1275 1.77399 78.0186C1.66212 77.9067 1.4796 77.9097 1.37068 78.0215L0.0812519 79.3375C-0.0306159 79.4493 -0.0276725 79.6319 0.0841953 79.7408C0.140129 79.7967 0.210783 79.8232 0.28438 79.8232ZM0.28438 82.3373C0.357977 82.3373 0.431575 82.3078 0.487509 82.2519L1.77693 80.936C1.8888 80.8241 1.88586 80.6416 1.77399 80.5327C1.66212 80.4238 1.4796 80.4238 1.37068 80.5356L0.0812518 81.8515C-0.030616 81.9634 -0.0276726 82.1459 0.0841952 82.2549C0.140129 82.3108 0.210782 82.3373 0.28438 82.3373ZM0.28438 84.8543C0.357977 84.8543 0.431575 84.8249 0.487509 84.7689L1.77693 83.456C1.8888 83.3441 1.88586 83.1616 1.77399 83.0526C1.66212 82.9408 1.4796 82.9437 1.37068 83.0556L0.0812517 84.3686C-0.0306161 84.4804 -0.0276727 84.663 0.0841951 84.7719C0.140129 84.8249 0.210782 84.8543 0.28438 84.8543ZM0.284379 87.3713C0.357977 87.3713 0.431575 87.3419 0.487509 87.286L1.77693 85.97C1.8888 85.8582 1.88586 85.6757 1.77399 85.5667C1.66212 85.4549 1.4796 85.4578 1.37068 85.5697L0.0812516 86.8856C-0.0306162 86.9975 -0.0276728 87.18 0.084195 87.2889C0.140129 87.3448 0.210782 87.3713 0.284379 87.3713ZM0.284379 89.8854C0.357977 89.8854 0.431575 89.856 0.487508 89.8L1.77693 88.4871C1.8888 88.3752 1.88586 88.1927 1.77399 88.0838C1.66212 87.9719 1.4796 87.9748 1.37068 88.0867L0.0812515 89.3997C-0.0306163 89.5115 -0.0276729 89.6941 0.0841949 89.803C0.140129 89.8589 0.210782 89.8854 0.284379 89.8854ZM0.284379 92.3995C0.357976 92.3995 0.431574 92.3701 0.487508 92.3141L1.77693 91.0011C1.8888 90.8893 1.88586 90.7068 1.77399 90.5978C1.66212 90.486 1.4796 90.4889 1.37067 90.6008L0.0812514 91.9138C-0.0306164 92.0256 -0.027673 92.2081 0.0841947 92.3171C0.140129 92.373 0.210782 92.3995 0.284379 92.3995ZM0.496339 94.7016C0.569937 94.7016 0.643534 94.6722 0.699467 94.6162L1.77693 93.5182C1.88585 93.4063 1.88585 93.2238 1.77104 93.1149C1.65918 93.0059 1.47665 93.0059 1.36773 93.1178L0.290267 94.2159C0.181343 94.3277 0.181343 94.5103 0.296155 94.6192C0.352089 94.6751 0.422742 94.7016 0.496339 94.7016Z" fill="#3EBED0"/>
<path d="M8.55037 79.8206C8.62102 79.8206 8.69462 79.7941 8.75055 79.7382C8.86242 79.6293 8.86536 79.4468 8.75349 79.3349L7.46702 78.0219C7.35515 77.91 7.17557 77.9071 7.0637 78.019C6.95183 78.1279 6.94889 78.3104 7.06076 78.4223L8.34724 79.7353C8.40317 79.7912 8.47677 79.8206 8.55037 79.8206ZM8.55037 82.3347C8.62102 82.3347 8.69462 82.3082 8.75055 82.2523C8.86242 82.1434 8.86536 81.9608 8.75349 81.849L7.46702 80.536C7.35515 80.4241 7.17557 80.4212 7.0637 80.533C6.95183 80.642 6.94889 80.8245 7.06076 80.9364L8.34724 82.2493C8.40317 82.3082 8.47677 82.3347 8.55037 82.3347ZM8.55037 84.8517C8.62396 84.8517 8.69462 84.8252 8.75055 84.7693C8.86242 84.6574 8.86536 84.4779 8.75349 84.366L7.46702 83.056C7.35515 82.9441 7.17557 82.9411 7.0637 83.053C6.95183 83.1649 6.94889 83.3445 7.06076 83.4563L8.34724 84.7664C8.40317 84.8223 8.47677 84.8517 8.55037 84.8517ZM8.55037 87.3688C8.62102 87.3688 8.69462 87.3423 8.75055 87.2863C8.86242 87.1774 8.86536 86.9949 8.75349 86.883L7.46701 85.57C7.35515 85.4582 7.17557 85.4552 7.0637 85.5671C6.95183 85.676 6.94889 85.8585 7.06076 85.9704L8.34724 87.2834C8.40317 87.3393 8.47677 87.3688 8.55037 87.3688ZM8.55037 89.8828C8.62396 89.8828 8.69462 89.8563 8.75055 89.8004C8.86242 89.6885 8.86536 89.509 8.75349 89.3971L7.46701 88.0871C7.35515 87.9752 7.17557 87.9723 7.0637 88.0841C6.95183 88.196 6.94889 88.3756 7.06076 88.4874L8.34724 89.7975C8.40317 89.8534 8.47677 89.8828 8.55037 89.8828ZM8.55037 92.3969C8.62396 92.3969 8.69462 92.3704 8.75055 92.3145C8.86242 92.2026 8.86536 92.023 8.75349 91.9112L7.46701 90.6011C7.35515 90.4893 7.17557 90.4863 7.0637 90.5982C6.95183 90.7101 6.94889 90.8896 7.06076 91.0015L8.34724 92.3115C8.40317 92.3704 8.47677 92.3969 8.55037 92.3969ZM8.34135 94.702C8.412 94.702 8.4856 94.6755 8.54153 94.6196C8.6534 94.5106 8.65635 94.3281 8.54448 94.2162L7.46701 93.1182C7.35515 93.0063 7.17557 93.0034 7.0637 93.1152C6.95183 93.2242 6.94889 93.4067 7.06076 93.5185L8.13822 94.6166C8.19415 94.6725 8.26775 94.702 8.34135 94.702Z" fill="#3EBED0"/>
<path d="M2.31817 95.8426L6.51615 95.8426C7.5053 95.8426 8.38552 95.2155 8.70935 94.2823C8.74468 94.1822 8.77412 94.0704 8.79472 93.9615C8.82122 93.8231 8.83594 93.6729 8.83594 93.5228L8.83594 79.3244C8.83594 79.2773 8.83594 79.2302 8.83299 79.1831C8.82416 79.0271 8.79767 78.8711 8.75645 78.7121C8.75645 78.7062 8.75351 78.7033 8.75351 78.6974C8.69463 78.4884 8.60631 78.2882 8.4915 78.1027C8.06169 77.4139 7.32572 77.0017 6.51615 77.0017L2.32111 77.0017C1.28486 77.0017 0.366371 77.6994 0.0867016 78.6944C0.0425432 78.8505 0.0131036 79.0153 0.00427192 79.1772C0.00132803 79.2243 0.00132853 79.2714 0.00132852 79.3215L0.0013279 93.5199C0.0013279 93.67 0.0160478 93.8201 0.0454867 93.9615C0.0660939 94.0674 0.092588 94.1764 0.130859 94.2823C0.448798 95.2155 1.32902 95.8426 2.31817 95.8426ZM8.19711 78.8416C8.19711 78.8446 8.20006 78.8475 8.20006 78.8534C8.23244 78.9741 8.25305 79.0978 8.26188 79.2185C8.26482 79.2538 8.26482 79.2891 8.26482 79.3274L8.26482 93.5258C8.26482 93.6406 8.25305 93.7524 8.23244 93.8584C8.21772 93.9438 8.19711 94.0203 8.16767 94.0939C7.92333 94.8005 7.25801 95.2744 6.51321 95.2744L2.31817 95.2744C1.57336 95.2744 0.908045 94.8005 0.666646 94.0969C0.637207 94.0174 0.616601 93.9408 0.601881 93.8614C0.581274 93.7495 0.569498 93.6376 0.569498 93.5258L0.569499 79.3244C0.569499 79.2891 0.569499 79.2508 0.572442 79.2155C0.581274 79.0919 0.601882 78.9712 0.634265 78.8505C0.846225 78.0968 1.53804 77.5728 2.31817 77.5728L6.51615 77.5728C7.12554 77.5728 7.68193 77.8819 8.00576 78.403C8.08819 78.5384 8.15296 78.6856 8.19711 78.8416Z" fill="#3EBED0"/>
<path d="M8.83594 133.836L53.8902 133.836" stroke="white" strokeLinecap="square"/>
<path d="M8.83594 132.195L53.8902 132.195" stroke="white" strokeLinecap="square"/>
<path d="M56.5035 142.841C56.6625 142.841 56.7891 142.714 56.7891 142.555L56.7891 124.286C56.7891 124.127 56.6625 124 56.5035 124C56.3445 124 56.2179 124.127 56.2179 124.286L56.2179 142.555C56.2179 142.711 56.3445 142.841 56.5035 142.841Z" fill="#56E4EE"/>
<path d="M58.0816 142.841C58.2406 142.841 58.3672 142.714 58.3672 142.555L58.3672 124.286C58.3672 124.127 58.2377 124 58.0816 124C57.9227 124 57.7961 124.127 57.7961 124.286L57.7961 142.555C57.7961 142.711 57.9227 142.841 58.0816 142.841Z" fill="#3EBED0"/>
<path d="M59.9098 142.841C60.0687 142.841 60.1953 142.714 60.1953 142.555L60.1953 124.286C60.1953 124.127 60.0687 124 59.9098 124C59.7508 124 59.6242 124.127 59.6242 124.286L59.6242 142.555C59.6242 142.711 59.7537 142.841 59.9098 142.841Z" fill="#56E4EE"/>
<path d="M59.3454 125.943L60.3316 125.943C60.4906 125.943 60.6172 125.817 60.6172 125.658C60.6172 125.499 60.4906 125.372 60.3316 125.372L59.3454 125.372C59.1865 125.372 59.0599 125.499 59.0599 125.658C59.0599 125.817 59.1865 125.943 59.3454 125.943ZM56.0041 125.943L56.9874 125.943C57.1463 125.943 57.2729 125.817 57.2729 125.658C57.2729 125.499 57.1463 125.372 56.9874 125.372L56.0041 125.372C55.8451 125.372 55.7186 125.499 55.7186 125.658C55.7186 125.817 55.8451 125.943 56.0041 125.943ZM59.3454 127.886L60.3316 127.886C60.4906 127.886 60.6172 127.76 60.6172 127.601C60.6172 127.442 60.4906 127.315 60.3316 127.315L59.3454 127.315C59.1865 127.315 59.0599 127.442 59.0599 127.601C59.0599 127.757 59.1865 127.886 59.3454 127.886ZM56.0041 127.886L56.9874 127.886C57.1463 127.886 57.2729 127.76 57.2729 127.601C57.2729 127.442 57.1463 127.315 56.9874 127.315L56.0041 127.315C55.8451 127.315 55.7186 127.442 55.7186 127.601C55.7186 127.757 55.8451 127.886 56.0041 127.886ZM59.3454 129.826L60.3316 129.826C60.4906 129.826 60.6172 129.7 60.6172 129.541C60.6172 129.382 60.4906 129.255 60.3316 129.255L59.3454 129.255C59.1865 129.255 59.0599 129.382 59.0599 129.541C59.0599 129.7 59.1865 129.826 59.3454 129.826ZM56.0041 129.826L56.9874 129.826C57.1463 129.826 57.2729 129.7 57.2729 129.541C57.2729 129.382 57.1463 129.255 56.9874 129.255L56.0041 129.255C55.8451 129.255 55.7186 129.382 55.7186 129.541C55.7186 129.7 55.8451 129.826 56.0041 129.826ZM59.3454 131.766L60.3316 131.766C60.4906 131.766 60.6172 131.64 60.6172 131.481C60.6172 131.322 60.4906 131.195 60.3316 131.195L59.3454 131.195C59.1865 131.195 59.0599 131.322 59.0599 131.481C59.0599 131.64 59.1865 131.766 59.3454 131.766ZM56.0041 131.766L56.9874 131.766C57.1463 131.766 57.2729 131.64 57.2729 131.481C57.2729 131.322 57.1463 131.195 56.9874 131.195L56.0041 131.195C55.8451 131.195 55.7186 131.322 55.7186 131.481C55.7186 131.64 55.8451 131.766 56.0041 131.766ZM59.3454 133.706L60.3316 133.706C60.4906 133.706 60.6172 133.58 60.6172 133.421C60.6172 133.262 60.4906 133.135 60.3316 133.135L59.3454 133.135C59.1865 133.135 59.0599 133.262 59.0599 133.421C59.0599 133.577 59.1865 133.706 59.3454 133.706ZM56.0041 133.706L56.9874 133.706C57.1463 133.706 57.2729 133.58 57.2729 133.421C57.2729 133.262 57.1463 133.135 56.9874 133.135L56.0041 133.135C55.8451 133.135 55.7186 133.262 55.7186 133.421C55.7186 133.577 55.8451 133.706 56.0041 133.706ZM59.3454 135.646L60.3316 135.646C60.4906 135.646 60.6172 135.52 60.6172 135.361C60.6172 135.202 60.4906 135.075 60.3316 135.075L59.3454 135.075C59.1865 135.075 59.0599 135.202 59.0599 135.361C59.0599 135.52 59.1865 135.646 59.3454 135.646ZM56.0041 135.646L56.9874 135.646C57.1463 135.646 57.2729 135.52 57.2729 135.361C57.2729 135.202 57.1463 135.075 56.9874 135.075L56.0041 135.075C55.8451 135.075 55.7186 135.202 55.7186 135.361C55.7186 135.52 55.8451 135.646 56.0041 135.646ZM59.3454 137.589L60.3316 137.589C60.4906 137.589 60.6172 137.463 60.6172 137.304C60.6172 137.145 60.4906 137.018 60.3316 137.018L59.3454 137.018C59.1865 137.018 59.0599 137.145 59.0599 137.304C59.0599 137.463 59.1865 137.589 59.3454 137.589ZM56.0041 137.589L56.9874 137.589C57.1463 137.589 57.2729 137.463 57.2729 137.304C57.2729 137.145 57.1463 137.018 56.9874 137.018L56.0041 137.018C55.8451 137.018 55.7186 137.145 55.7186 137.304C55.7186 137.463 55.8451 137.589 56.0041 137.589ZM59.3454 139.527L60.3316 139.527C60.4906 139.527 60.6172 139.4 60.6172 139.241C60.6172 139.082 60.4906 138.955 60.3316 138.955L59.3454 138.955C59.1865 138.955 59.0599 139.082 59.0599 139.241C59.0599 139.4 59.1865 139.527 59.3454 139.527ZM56.0041 139.527L56.9874 139.527C57.1463 139.527 57.2729 139.4 57.2729 139.241C57.2729 139.082 57.1463 138.955 56.9874 138.955L56.0041 138.955C55.8451 138.955 55.7186 139.082 55.7186 139.241C55.7186 139.4 55.8451 139.527 56.0041 139.527ZM59.3454 141.467L60.3316 141.467C60.4906 141.467 60.6172 141.34 60.6172 141.181C60.6172 141.022 60.4906 140.895 60.3316 140.895L59.3454 140.895C59.1865 140.895 59.0599 141.022 59.0599 141.181C59.0599 141.34 59.1865 141.467 59.3454 141.467ZM56.0041 141.467L56.9874 141.467C57.1463 141.467 57.2729 141.34 57.2729 141.181C57.2729 141.022 57.1463 140.895 56.9874 140.895L56.0041 140.895C55.8451 140.895 55.7186 141.022 55.7186 141.181C55.7186 141.34 55.8451 141.467 56.0041 141.467Z" fill="#56E4EE"/>
<path d="M53.9484 126.823C54.022 126.823 54.0956 126.794 54.1516 126.738L55.441 125.422C55.5529 125.31 55.5499 125.128 55.4381 125.019C55.3262 124.907 55.1437 124.91 55.0347 125.022L53.7453 126.337C53.6334 126.449 53.6364 126.632 53.7483 126.741C53.8042 126.797 53.8748 126.823 53.9484 126.823ZM53.9484 129.337C54.022 129.337 54.0956 129.308 54.1516 129.252L55.441 127.936C55.5529 127.824 55.5499 127.642 55.4381 127.533C55.3262 127.424 55.1437 127.424 55.0347 127.536L53.7453 128.852C53.6334 128.963 53.6364 129.146 53.7483 129.255C53.8042 129.311 53.8748 129.337 53.9484 129.337ZM53.9484 131.854C54.022 131.854 54.0956 131.825 54.1516 131.769L55.441 130.456C55.5529 130.344 55.5499 130.162 55.4381 130.053C55.3262 129.941 55.1437 129.944 55.0347 130.056L53.7453 131.369C53.6334 131.48 53.6364 131.663 53.7483 131.772C53.8042 131.825 53.8748 131.854 53.9484 131.854ZM53.9484 134.371C54.022 134.371 54.0956 134.342 54.1516 134.286L55.441 132.97C55.5529 132.858 55.5499 132.676 55.4381 132.567C55.3262 132.455 55.1437 132.458 55.0347 132.57L53.7453 133.886C53.6334 133.997 53.6364 134.18 53.7483 134.289C53.8042 134.345 53.8748 134.371 53.9484 134.371ZM53.9484 136.885C54.022 136.885 54.0956 136.856 54.1516 136.8L55.441 135.487C55.5529 135.375 55.5499 135.193 55.4381 135.084C55.3262 134.972 55.1437 134.975 55.0347 135.087L53.7453 136.4C53.6334 136.512 53.6364 136.694 53.7483 136.803C53.8042 136.859 53.8748 136.885 53.9484 136.885ZM53.9484 139.399C54.022 139.399 54.0956 139.37 54.1516 139.314L55.441 138.001C55.5529 137.889 55.5499 137.707 55.438 137.598C55.3262 137.486 55.1437 137.489 55.0347 137.601L53.7453 138.914C53.6334 139.026 53.6364 139.208 53.7483 139.317C53.8042 139.373 53.8748 139.399 53.9484 139.399ZM54.1604 141.702C54.234 141.702 54.3076 141.672 54.3635 141.616L55.441 140.518C55.5499 140.406 55.5499 140.224 55.4351 140.115C55.3232 140.006 55.1407 140.006 55.0318 140.118L53.9543 141.216C53.8454 141.328 53.8454 141.51 53.9602 141.619C54.0162 141.675 54.0868 141.702 54.1604 141.702Z" fill="#3EBED0"/>
<path d="M62.2144 126.821C62.2851 126.821 62.3587 126.794 62.4146 126.738C62.5265 126.629 62.5294 126.447 62.4176 126.335L61.1311 125.022C61.0192 124.91 60.8396 124.907 60.7278 125.019C60.6159 125.128 60.613 125.31 60.7248 125.422L62.0113 126.735C62.0672 126.791 62.1408 126.821 62.2144 126.821ZM62.2144 129.335C62.2851 129.335 62.3587 129.308 62.4146 129.252C62.5265 129.143 62.5294 128.961 62.4176 128.849L61.1311 127.536C61.0192 127.424 60.8396 127.421 60.7278 127.533C60.6159 127.642 60.613 127.824 60.7248 127.936L62.0113 129.249C62.0672 129.308 62.1408 129.335 62.2144 129.335ZM62.2144 131.852C62.288 131.852 62.3587 131.825 62.4146 131.769C62.5265 131.657 62.5294 131.478 62.4176 131.366L61.1311 130.056C61.0192 129.944 60.8396 129.941 60.7278 130.053C60.6159 130.165 60.613 130.344 60.7248 130.456L62.0113 131.766C62.0672 131.822 62.1408 131.852 62.2144 131.852ZM62.2144 134.369C62.2851 134.369 62.3587 134.342 62.4146 134.286C62.5265 134.177 62.5294 133.995 62.4176 133.883L61.1311 132.57C61.0192 132.458 60.8396 132.455 60.7278 132.567C60.6159 132.676 60.613 132.859 60.7248 132.97L62.0113 134.283C62.0672 134.339 62.1408 134.369 62.2144 134.369ZM62.2144 136.883C62.288 136.883 62.3587 136.856 62.4146 136.8C62.5265 136.689 62.5294 136.509 62.4176 136.397L61.1311 135.087C61.0192 134.975 60.8396 134.972 60.7278 135.084C60.6159 135.196 60.613 135.376 60.7248 135.487L62.0113 136.797C62.0672 136.853 62.1408 136.883 62.2144 136.883ZM62.2144 139.397C62.288 139.397 62.3587 139.37 62.4146 139.314C62.5265 139.203 62.5294 139.023 62.4176 138.911L61.1311 137.601C61.0192 137.489 60.8396 137.486 60.7278 137.598C60.6159 137.71 60.613 137.89 60.7248 138.002L62.0113 139.312C62.0672 139.37 62.1408 139.397 62.2144 139.397ZM62.0054 141.702C62.0761 141.702 62.1497 141.675 62.2056 141.62C62.3175 141.511 62.3204 141.328 62.2085 141.216L61.1311 140.118C61.0192 140.006 60.8396 140.003 60.7278 140.115C60.6159 140.224 60.613 140.407 60.7248 140.519L61.8023 141.617C61.8582 141.673 61.9318 141.702 62.0054 141.702Z" fill="#3EBED0"/>
<path d="M55.9822 142.843L60.1802 142.843C61.1694 142.843 62.0496 142.216 62.3734 141.282C62.4087 141.182 62.4382 141.07 62.4588 140.961C62.4853 140.823 62.5 140.673 62.5 140.523L62.5 126.324C62.5 126.277 62.5 126.23 62.4971 126.183C62.4882 126.027 62.4617 125.871 62.4205 125.712C62.4205 125.706 62.4176 125.703 62.4176 125.697C62.3587 125.488 62.2704 125.288 62.1556 125.103C61.7258 124.414 60.9898 124.002 60.1802 124.002L55.9852 124.002C54.9489 124.002 54.0304 124.699 53.7508 125.694C53.7066 125.85 53.6772 126.015 53.6683 126.177C53.6654 126.224 53.6654 126.271 53.6654 126.321L53.6654 140.52C53.6654 140.67 53.6801 140.82 53.7095 140.961C53.7302 141.067 53.7567 141.176 53.7949 141.282C54.1129 142.216 54.9931 142.843 55.9822 142.843ZM61.8612 125.842C61.8612 125.845 61.8641 125.848 61.8641 125.853C61.8965 125.974 61.9171 126.098 61.9259 126.218C61.9289 126.254 61.9289 126.289 61.9289 126.327L61.9289 140.526C61.9289 140.641 61.9171 140.752 61.8965 140.858C61.8818 140.944 61.8612 141.02 61.8317 141.094C61.5874 141.8 60.9221 142.274 60.1773 142.274L55.9822 142.274C55.2374 142.274 54.5721 141.8 54.3307 141.097C54.3013 141.017 54.2807 140.941 54.2659 140.861C54.2453 140.749 54.2336 140.638 54.2336 140.526L54.2336 126.324C54.2336 126.289 54.2336 126.251 54.2365 126.216C54.2453 126.092 54.2659 125.971 54.2983 125.85C54.5103 125.097 55.2021 124.573 55.9822 124.573L60.1802 124.573C60.7896 124.573 61.346 124.882 61.6698 125.403C61.7523 125.538 61.817 125.686 61.8612 125.842Z" fill="#3EBED0"/>
<path d="M2.83944 142.841C2.99841 142.841 3.125 142.714 3.125 142.555L3.125 124.286C3.125 124.127 2.99841 124 2.83944 124C2.68047 124 2.55388 124.127 2.55388 124.286L2.55388 142.555C2.55388 142.711 2.68047 142.841 2.83944 142.841Z" fill="#56E4EE"/>
<path d="M4.41757 142.841C4.57654 142.841 4.70312 142.714 4.70312 142.555L4.70312 124.286C4.70312 124.127 4.57359 124 4.41757 124C4.2586 124 4.13201 124.127 4.13201 124.286L4.13201 142.555C4.13201 142.711 4.2586 142.841 4.41757 142.841Z" fill="#3EBED0"/>
<path d="M6.24569 142.841C6.40466 142.841 6.53125 142.714 6.53125 142.555L6.53125 124.286C6.53125 124.127 6.40466 124 6.24569 124C6.08672 124 5.96014 124.127 5.96014 124.286L5.96013 142.555C5.96013 142.711 6.08967 142.841 6.24569 142.841Z" fill="#56E4EE"/>
<path d="M5.68137 125.943L6.66757 125.943C6.82654 125.943 6.95312 125.817 6.95312 125.658C6.95312 125.499 6.82654 125.372 6.66757 125.372L5.68137 125.372C5.5224 125.372 5.39581 125.499 5.39581 125.658C5.39581 125.817 5.5224 125.943 5.68137 125.943ZM2.34005 125.943L3.32331 125.943C3.48228 125.943 3.60887 125.817 3.60887 125.658C3.60887 125.499 3.48228 125.372 3.32331 125.372L2.34005 125.372C2.18108 125.372 2.05449 125.499 2.05449 125.658C2.05449 125.817 2.18108 125.943 2.34005 125.943ZM5.68137 127.886L6.66757 127.886C6.82654 127.886 6.95312 127.76 6.95312 127.601C6.95312 127.442 6.82654 127.315 6.66757 127.315L5.68137 127.315C5.5224 127.315 5.39581 127.442 5.39581 127.601C5.39581 127.757 5.5224 127.886 5.68137 127.886ZM2.34005 127.886L3.32331 127.886C3.48228 127.886 3.60887 127.76 3.60887 127.601C3.60887 127.442 3.48228 127.315 3.32331 127.315L2.34005 127.315C2.18108 127.315 2.05449 127.442 2.05449 127.601C2.05449 127.757 2.18108 127.886 2.34005 127.886ZM5.68137 129.826L6.66757 129.826C6.82654 129.826 6.95312 129.7 6.95312 129.541C6.95312 129.382 6.82654 129.255 6.66757 129.255L5.68137 129.255C5.5224 129.255 5.39581 129.382 5.39581 129.541C5.39581 129.7 5.5224 129.826 5.68137 129.826ZM2.34005 129.826L3.32331 129.826C3.48228 129.826 3.60887 129.7 3.60887 129.541C3.60887 129.382 3.48228 129.255 3.32331 129.255L2.34005 129.255C2.18108 129.255 2.05449 129.382 2.05449 129.541C2.05449 129.7 2.18108 129.826 2.34005 129.826ZM5.68136 131.766L6.66757 131.766C6.82654 131.766 6.95312 131.64 6.95312 131.481C6.95312 131.322 6.82654 131.195 6.66757 131.195L5.68136 131.195C5.52239 131.195 5.39581 131.322 5.39581 131.481C5.39581 131.64 5.52239 131.766 5.68136 131.766ZM2.34005 131.766L3.32331 131.766C3.48228 131.766 3.60887 131.64 3.60887 131.481C3.60887 131.322 3.48228 131.195 3.32331 131.195L2.34005 131.195C2.18108 131.195 2.05449 131.322 2.05449 131.481C2.05449 131.64 2.18108 131.766 2.34005 131.766ZM5.68136 133.706L6.66757 133.706C6.82654 133.706 6.95312 133.58 6.95312 133.421C6.95312 133.262 6.82654 133.135 6.66757 133.135L5.68136 133.135C5.52239 133.135 5.39581 133.262 5.39581 133.421C5.39581 133.577 5.52239 133.706 5.68136 133.706ZM2.34005 133.706L3.32331 133.706C3.48228 133.706 3.60887 133.58 3.60887 133.421C3.60887 133.262 3.48228 133.135 3.32331 133.135L2.34005 133.135C2.18108 133.135 2.05449 133.262 2.05449 133.421C2.05449 133.577 2.18108 133.706 2.34005 133.706ZM5.68136 135.646L6.66757 135.646C6.82654 135.646 6.95312 135.52 6.95312 135.361C6.95312 135.202 6.82654 135.075 6.66757 135.075L5.68136 135.075C5.52239 135.075 5.39581 135.202 5.39581 135.361C5.39581 135.52 5.52239 135.646 5.68136 135.646ZM2.34005 135.646L3.32331 135.646C3.48228 135.646 3.60887 135.52 3.60887 135.361C3.60887 135.202 3.48228 135.075 3.32331 135.075L2.34005 135.075C2.18108 135.075 2.05449 135.202 2.05449 135.361C2.05449 135.52 2.18108 135.646 2.34005 135.646ZM5.68136 137.589L6.66757 137.589C6.82654 137.589 6.95312 137.463 6.95312 137.304C6.95312 137.145 6.82654 137.018 6.66757 137.018L5.68136 137.018C5.52239 137.018 5.39581 137.145 5.39581 137.304C5.39581 137.463 5.52239 137.589 5.68136 137.589ZM2.34005 137.589L3.32331 137.589C3.48228 137.589 3.60887 137.463 3.60887 137.304C3.60887 137.145 3.48228 137.018 3.32331 137.018L2.34005 137.018C2.18108 137.018 2.05449 137.145 2.05449 137.304C2.05449 137.463 2.18108 137.589 2.34005 137.589ZM5.68136 139.527L6.66757 139.527C6.82654 139.527 6.95312 139.4 6.95312 139.241C6.95312 139.082 6.82654 138.955 6.66757 138.955L5.68136 138.955C5.52239 138.955 5.39581 139.082 5.39581 139.241C5.39581 139.4 5.52239 139.527 5.68136 139.527ZM2.34005 139.527L3.32331 139.527C3.48228 139.527 3.60887 139.4 3.60887 139.241C3.60887 139.082 3.48228 138.955 3.32331 138.955L2.34005 138.955C2.18108 138.955 2.05449 139.082 2.05449 139.241C2.05449 139.4 2.18108 139.527 2.34005 139.527ZM5.68136 141.467L6.66757 141.467C6.82654 141.467 6.95312 141.34 6.95312 141.181C6.95312 141.022 6.82654 140.895 6.66757 140.895L5.68136 140.895C5.52239 140.895 5.39581 141.022 5.39581 141.181C5.39581 141.34 5.52239 141.467 5.68136 141.467ZM2.34005 141.467L3.32331 141.467C3.48228 141.467 3.60887 141.34 3.60887 141.181C3.60887 141.022 3.48228 140.895 3.32331 140.895L2.34005 140.895C2.18108 140.895 2.05449 141.022 2.05449 141.181C2.05449 141.34 2.18108 141.467 2.34005 141.467Z" fill="#56E4EE"/>
<path d="M0.28438 126.823C0.357977 126.823 0.431575 126.794 0.487509 126.738L1.77693 125.422C1.8888 125.31 1.88586 125.128 1.77399 125.019C1.66212 124.907 1.4796 124.91 1.37068 125.022L0.0812519 126.337C-0.0306159 126.449 -0.0276725 126.632 0.0841953 126.741C0.140129 126.797 0.210783 126.823 0.28438 126.823ZM0.28438 129.337C0.357977 129.337 0.431575 129.308 0.487509 129.252L1.77693 127.936C1.8888 127.824 1.88586 127.642 1.77399 127.533C1.66212 127.424 1.4796 127.424 1.37068 127.536L0.0812518 128.852C-0.030616 128.963 -0.0276726 129.146 0.0841952 129.255C0.140129 129.311 0.210782 129.337 0.28438 129.337ZM0.28438 131.854C0.357977 131.854 0.431575 131.825 0.487509 131.769L1.77693 130.456C1.8888 130.344 1.88586 130.162 1.77399 130.053C1.66212 129.941 1.4796 129.944 1.37068 130.056L0.0812517 131.369C-0.0306161 131.48 -0.0276727 131.663 0.0841951 131.772C0.140129 131.825 0.210782 131.854 0.28438 131.854ZM0.284379 134.371C0.357977 134.371 0.431575 134.342 0.487509 134.286L1.77693 132.97C1.8888 132.858 1.88586 132.676 1.77399 132.567C1.66212 132.455 1.4796 132.458 1.37068 132.57L0.0812516 133.886C-0.0306162 133.997 -0.0276728 134.18 0.084195 134.289C0.140129 134.345 0.210782 134.371 0.284379 134.371ZM0.284379 136.885C0.357977 136.885 0.431575 136.856 0.487508 136.8L1.77693 135.487C1.8888 135.375 1.88586 135.193 1.77399 135.084C1.66212 134.972 1.4796 134.975 1.37068 135.087L0.0812515 136.4C-0.0306163 136.512 -0.0276729 136.694 0.0841949 136.803C0.140129 136.859 0.210782 136.885 0.284379 136.885ZM0.284379 139.399C0.357976 139.399 0.431574 139.37 0.487508 139.314L1.77693 138.001C1.8888 137.889 1.88586 137.707 1.77399 137.598C1.66212 137.486 1.4796 137.489 1.37067 137.601L0.0812514 138.914C-0.0306164 139.026 -0.027673 139.208 0.0841947 139.317C0.140129 139.373 0.210782 139.399 0.284379 139.399ZM0.496339 141.702C0.569937 141.702 0.643534 141.672 0.699467 141.616L1.77693 140.518C1.88585 140.406 1.88585 140.224 1.77104 140.115C1.65918 140.006 1.47665 140.006 1.36773 140.118L0.290267 141.216C0.181343 141.328 0.181343 141.51 0.296155 141.619C0.352089 141.675 0.422742 141.702 0.496339 141.702Z" fill="#3EBED0"/>
<path d="M8.55037 126.821C8.62102 126.821 8.69462 126.794 8.75055 126.738C8.86242 126.629 8.86536 126.447 8.75349 126.335L7.46702 125.022C7.35515 124.91 7.17557 124.907 7.0637 125.019C6.95183 125.128 6.94889 125.31 7.06076 125.422L8.34724 126.735C8.40317 126.791 8.47677 126.821 8.55037 126.821ZM8.55037 129.335C8.62102 129.335 8.69462 129.308 8.75055 129.252C8.86242 129.143 8.86536 128.961 8.75349 128.849L7.46702 127.536C7.35515 127.424 7.17557 127.421 7.0637 127.533C6.95183 127.642 6.94889 127.824 7.06076 127.936L8.34724 129.249C8.40317 129.308 8.47677 129.335 8.55037 129.335ZM8.55037 131.852C8.62396 131.852 8.69462 131.825 8.75055 131.769C8.86242 131.657 8.86536 131.478 8.75349 131.366L7.46702 130.056C7.35515 129.944 7.17557 129.941 7.0637 130.053C6.95183 130.165 6.94889 130.344 7.06076 130.456L8.34724 131.766C8.40317 131.822 8.47677 131.852 8.55037 131.852ZM8.55037 134.369C8.62102 134.369 8.69462 134.342 8.75055 134.286C8.86242 134.177 8.86536 133.995 8.75349 133.883L7.46701 132.57C7.35515 132.458 7.17557 132.455 7.0637 132.567C6.95183 132.676 6.94889 132.859 7.06076 132.97L8.34724 134.283C8.40317 134.339 8.47677 134.369 8.55037 134.369ZM8.55037 136.883C8.62396 136.883 8.69462 136.856 8.75055 136.8C8.86242 136.689 8.86536 136.509 8.75349 136.397L7.46701 135.087C7.35515 134.975 7.17557 134.972 7.0637 135.084C6.95183 135.196 6.94889 135.376 7.06076 135.487L8.34724 136.797C8.40317 136.853 8.47677 136.883 8.55037 136.883ZM8.55037 139.397C8.62396 139.397 8.69462 139.37 8.75055 139.314C8.86242 139.203 8.86536 139.023 8.75349 138.911L7.46701 137.601C7.35515 137.489 7.17557 137.486 7.0637 137.598C6.95183 137.71 6.94889 137.89 7.06076 138.002L8.34724 139.312C8.40317 139.37 8.47677 139.397 8.55037 139.397ZM8.34135 141.702C8.412 141.702 8.4856 141.675 8.54153 141.62C8.6534 141.511 8.65635 141.328 8.54448 141.216L7.46701 140.118C7.35515 140.006 7.17557 140.003 7.0637 140.115C6.95183 140.224 6.94889 140.407 7.06076 140.519L8.13822 141.617C8.19415 141.673 8.26775 141.702 8.34135 141.702Z" fill="#3EBED0"/>
<path d="M2.31817 142.843L6.51615 142.843C7.5053 142.843 8.38552 142.216 8.70935 141.282C8.74468 141.182 8.77412 141.07 8.79472 140.961C8.82122 140.823 8.83594 140.673 8.83594 140.523L8.83594 126.324C8.83594 126.277 8.83594 126.23 8.83299 126.183C8.82416 126.027 8.79767 125.871 8.75645 125.712C8.75645 125.706 8.75351 125.703 8.75351 125.697C8.69463 125.488 8.60631 125.288 8.4915 125.103C8.06169 124.414 7.32572 124.002 6.51615 124.002L2.32111 124.002C1.28486 124.002 0.366371 124.699 0.0867016 125.694C0.0425432 125.85 0.0131036 126.015 0.00427192 126.177C0.00132803 126.224 0.00132853 126.271 0.00132852 126.321L0.0013279 140.52C0.0013279 140.67 0.0160478 140.82 0.0454867 140.961C0.0660939 141.067 0.092588 141.176 0.130859 141.282C0.448798 142.216 1.32902 142.843 2.31817 142.843ZM8.19711 125.842C8.19711 125.845 8.20006 125.848 8.20006 125.853C8.23244 125.974 8.25305 126.098 8.26188 126.218C8.26482 126.254 8.26482 126.289 8.26482 126.327L8.26482 140.526C8.26482 140.641 8.25305 140.752 8.23244 140.858C8.21772 140.944 8.19711 141.02 8.16767 141.094C7.92333 141.8 7.25801 142.274 6.51321 142.274L2.31817 142.274C1.57336 142.274 0.908045 141.8 0.666646 141.097C0.637207 141.017 0.616601 140.941 0.601881 140.861C0.581274 140.749 0.569498 140.638 0.569498 140.526L0.569499 126.324C0.569499 126.289 0.569499 126.251 0.572442 126.216C0.581274 126.092 0.601882 125.971 0.634265 125.85C0.846225 125.097 1.53804 124.573 2.31817 124.573L6.51615 124.573C7.12554 124.573 7.68193 124.882 8.00576 125.403C8.08819 125.538 8.15296 125.686 8.19711 125.842Z" fill="#3EBED0"/>
<path d="M8.83594 9.83191L53.8902 9.83191" stroke="white" strokeLinecap="square"/>
<path d="M8.83594 8.18994L53.8902 8.18994" stroke="white" strokeLinecap="square"/>
<path d="M56.5035 18.8409C56.6625 18.8409 56.7891 18.7143 56.7891 18.5553L56.7891 0.285557C56.7891 0.126587 56.6625 -5.53332e-09 56.5035 -1.24821e-08C56.3445 -1.94309e-08 56.2179 0.126587 56.2179 0.285557L56.2179 18.5553C56.2179 18.7114 56.3445 18.8409 56.5035 18.8409Z" fill="#56E4EE"/>
<path d="M58.0816 18.8409C58.2406 18.8409 58.3672 18.7143 58.3672 18.5553L58.3672 0.285557C58.3672 0.126587 58.2377 -5.66198e-09 58.0816 -1.24821e-08C57.9227 -1.94309e-08 57.7961 0.126587 57.7961 0.285557L57.7961 18.5553C57.7961 18.7114 57.9227 18.8409 58.0816 18.8409Z" fill="#3EBED0"/>
<path d="M59.9098 18.8409C60.0687 18.8409 60.1953 18.7143 60.1953 18.5553L60.1953 0.285557C60.1953 0.126587 60.0687 -5.53332e-09 59.9098 -1.24821e-08C59.7508 -1.94309e-08 59.6242 0.126587 59.6242 0.285557L59.6242 18.5553C59.6242 18.7114 59.7537 18.8409 59.9098 18.8409Z" fill="#56E4EE"/>
<path d="M59.3454 1.93855L60.3316 1.93855C60.4906 1.93855 60.6172 1.81196 60.6172 1.65299C60.6172 1.49402 60.4906 1.36743 60.3316 1.36743L59.3454 1.36743C59.1865 1.36743 59.0599 1.49402 59.0599 1.65299C59.0599 1.81196 59.1865 1.93855 59.3454 1.93855ZM56.0041 1.93855L56.9874 1.93855C57.1463 1.93855 57.2729 1.81196 57.2729 1.65299C57.2729 1.49402 57.1463 1.36743 56.9874 1.36743L56.0041 1.36743C55.8451 1.36743 55.7186 1.49402 55.7186 1.65299C55.7186 1.81196 55.8451 1.93855 56.0041 1.93855ZM59.3454 3.88151L60.3316 3.88151C60.4906 3.88151 60.6172 3.75493 60.6172 3.59596C60.6172 3.43699 60.4906 3.3104 60.3316 3.3104L59.3454 3.3104C59.1865 3.3104 59.0599 3.43699 59.0599 3.59596C59.0599 3.75198 59.1865 3.88151 59.3454 3.88151ZM56.0041 3.88151L56.9874 3.88151C57.1463 3.88151 57.2729 3.75493 57.2729 3.59596C57.2729 3.43699 57.1463 3.3104 56.9874 3.3104L56.0041 3.3104C55.8451 3.3104 55.7186 3.43699 55.7186 3.59596C55.7186 3.75198 55.8451 3.88151 56.0041 3.88151ZM59.3454 5.82154L60.3316 5.82154C60.4906 5.82154 60.6172 5.69495 60.6172 5.53598C60.6172 5.37701 60.4906 5.25042 60.3316 5.25042L59.3454 5.25042C59.1865 5.25042 59.0599 5.37701 59.0599 5.53598C59.0599 5.69495 59.1865 5.82154 59.3454 5.82154ZM56.0041 5.82154L56.9874 5.82154C57.1463 5.82154 57.2729 5.69495 57.2729 5.53598C57.2729 5.37701 57.1463 5.25042 56.9874 5.25042L56.0041 5.25042C55.8451 5.25042 55.7186 5.37701 55.7186 5.53598C55.7186 5.69495 55.8451 5.82154 56.0041 5.82154ZM59.3454 7.76156L60.3316 7.76156C60.4906 7.76156 60.6172 7.63497 60.6172 7.476C60.6172 7.31703 60.4906 7.19044 60.3316 7.19044L59.3454 7.19044C59.1865 7.19044 59.0599 7.31703 59.0599 7.476C59.0599 7.63497 59.1865 7.76156 59.3454 7.76156ZM56.0041 7.76156L56.9874 7.76156C57.1463 7.76156 57.2729 7.63497 57.2729 7.476C57.2729 7.31703 57.1463 7.19044 56.9874 7.19044L56.0041 7.19044C55.8451 7.19044 55.7186 7.31703 55.7186 7.476C55.7186 7.63497 55.8451 7.76156 56.0041 7.76156ZM59.3454 9.70158L60.3316 9.70158C60.4906 9.70158 60.6172 9.57499 60.6172 9.41602C60.6172 9.25705 60.4906 9.13047 60.3316 9.13047L59.3454 9.13047C59.1865 9.13047 59.0599 9.25705 59.0599 9.41602C59.0599 9.57205 59.1865 9.70158 59.3454 9.70158ZM56.0041 9.70158L56.9874 9.70158C57.1463 9.70158 57.2729 9.57499 57.2729 9.41602C57.2729 9.25705 57.1463 9.13047 56.9874 9.13047L56.0041 9.13047C55.8451 9.13047 55.7186 9.25705 55.7186 9.41602C55.7186 9.57205 55.8451 9.70158 56.0041 9.70158ZM59.3454 11.6416L60.3316 11.6416C60.4906 11.6416 60.6172 11.515 60.6172 11.356C60.6172 11.1971 60.4906 11.0705 60.3316 11.0705L59.3454 11.0705C59.1865 11.0705 59.0599 11.1971 59.0599 11.356C59.0599 11.515 59.1865 11.6416 59.3454 11.6416ZM56.0041 11.6416L56.9874 11.6416C57.1463 11.6416 57.2729 11.515 57.2729 11.356C57.2729 11.1971 57.1463 11.0705 56.9874 11.0705L56.0041 11.0705C55.8451 11.0705 55.7186 11.1971 55.7186 11.356C55.7186 11.515 55.8451 11.6416 56.0041 11.6416ZM59.3454 13.5846L60.3316 13.5846C60.4906 13.5846 60.6172 13.458 60.6172 13.299C60.6172 13.14 60.4906 13.0135 60.3316 13.0135L59.3454 13.0135C59.1865 13.0135 59.0599 13.14 59.0599 13.299C59.0599 13.458 59.1865 13.5846 59.3454 13.5846ZM56.0041 13.5846L56.9874 13.5846C57.1463 13.5846 57.2729 13.458 57.2729 13.299C57.2729 13.14 57.1463 13.0135 56.9874 13.0135L56.0041 13.0135C55.8451 13.0135 55.7186 13.14 55.7186 13.299C55.7186 13.458 55.8451 13.5846 56.0041 13.5846ZM59.3454 15.5216L60.3316 15.5216C60.4906 15.5216 60.6172 15.3951 60.6172 15.2361C60.6172 15.0771 60.4906 14.9505 60.3316 14.9505L59.3454 14.9505C59.1865 14.9505 59.0599 15.0771 59.0599 15.2361C59.0599 15.3951 59.1865 15.5216 59.3454 15.5216ZM56.0041 15.5216L56.9874 15.5216C57.1463 15.5216 57.2729 15.3951 57.2729 15.2361C57.2729 15.0771 57.1463 14.9505 56.9874 14.9505L56.0041 14.9505C55.8451 14.9505 55.7186 15.0771 55.7186 15.2361C55.7186 15.3951 55.8451 15.5216 56.0041 15.5216ZM59.3454 17.4617L60.3316 17.4617C60.4906 17.4617 60.6172 17.3351 60.6172 17.1761C60.6172 17.0171 60.4906 16.8906 60.3316 16.8906L59.3454 16.8906C59.1865 16.8906 59.0599 17.0171 59.0599 17.1761C59.0599 17.3351 59.1865 17.4617 59.3454 17.4617ZM56.0041 17.4617L56.9874 17.4617C57.1463 17.4617 57.2729 17.3351 57.2729 17.1761C57.2729 17.0171 57.1463 16.8906 56.9874 16.8906L56.0041 16.8906C55.8451 16.8906 55.7186 17.0171 55.7186 17.1761C55.7186 17.3351 55.8451 17.4617 56.0041 17.4617Z" fill="#56E4EE"/>
<path d="M53.9484 2.8232C54.022 2.8232 54.0956 2.79377 54.1516 2.73783L55.441 1.42191C55.5529 1.31005 55.5499 1.12752 55.4381 1.0186C55.3262 0.906733 55.1437 0.909677 55.0347 1.02154L53.7453 2.33746C53.6334 2.44933 53.6364 2.63185 53.7483 2.74078C53.8042 2.79671 53.8748 2.8232 53.9484 2.8232ZM53.9484 5.33728C54.022 5.33728 54.0956 5.30785 54.1516 5.25191L55.441 3.93599C55.5529 3.82413 55.5499 3.64161 55.4381 3.53268C55.3262 3.42376 55.1437 3.42376 55.0347 3.53563L53.7453 4.85154C53.6334 4.96341 53.6364 5.14593 53.7483 5.25486C53.8042 5.31079 53.8748 5.33728 53.9484 5.33728ZM53.9484 7.85431C54.022 7.85431 54.0956 7.82487 54.1516 7.76894L55.441 6.45596C55.5529 6.34409 55.5499 6.16157 55.4381 6.05265C55.3262 5.94078 55.1437 5.94373 55.0347 6.05559L53.7453 7.36857C53.6334 7.48044 53.6364 7.66296 53.7483 7.77188C53.8042 7.82487 53.8748 7.85431 53.9484 7.85431ZM53.9484 10.3713C54.022 10.3713 54.0956 10.3419 54.1516 10.286L55.441 8.97004C55.5529 8.85817 55.5499 8.67565 55.4381 8.56673C55.3262 8.45486 55.1437 8.45781 55.0347 8.56967L53.7453 9.88559C53.6334 9.99746 53.6364 10.18 53.7483 10.2889C53.8042 10.3448 53.8748 10.3713 53.9484 10.3713ZM53.9484 12.8854C54.022 12.8854 54.0956 12.856 54.1516 12.8L55.441 11.4871C55.5529 11.3752 55.5499 11.1927 55.4381 11.0838C55.3262 10.9719 55.1437 10.9748 55.0347 11.0867L53.7453 12.3997C53.6334 12.5115 53.6364 12.6941 53.7483 12.803C53.8042 12.8589 53.8748 12.8854 53.9484 12.8854ZM53.9484 15.3995C54.022 15.3995 54.0956 15.3701 54.1516 15.3141L55.441 14.0011C55.5529 13.8893 55.5499 13.7068 55.438 13.5978C55.3262 13.486 55.1437 13.4889 55.0347 13.6008L53.7453 14.9138C53.6334 15.0256 53.6364 15.2081 53.7483 15.3171C53.8042 15.373 53.8748 15.3995 53.9484 15.3995ZM54.1604 17.7016C54.234 17.7016 54.3076 17.6722 54.3635 17.6162L55.441 16.5182C55.5499 16.4063 55.5499 16.2238 55.4351 16.1149C55.3232 16.0059 55.1407 16.0059 55.0318 16.1178L53.9543 17.2159C53.8454 17.3277 53.8454 17.5103 53.9602 17.6192C54.0162 17.6751 54.0868 17.7016 54.1604 17.7016Z" fill="#3EBED0"/>
<path d="M62.2144 2.81684C62.2851 2.81684 62.3587 2.79035 62.4146 2.73441C62.5265 2.62549 62.5294 2.44297 62.4176 2.3311L61.1311 1.01813C61.0192 0.906259 60.8396 0.903315 60.7278 1.01518C60.6159 1.12411 60.613 1.30663 60.7248 1.4185L62.0113 2.73147C62.0672 2.7874 62.1408 2.81684 62.2144 2.81684ZM62.2144 5.33092C62.2851 5.33092 62.3587 5.30443 62.4146 5.24849C62.5265 5.13957 62.5294 4.95705 62.4176 4.84518L61.1311 3.53221C61.0192 3.42034 60.8396 3.4174 60.7278 3.52926C60.6159 3.63819 60.613 3.82071 60.7248 3.93258L62.0113 5.24555C62.0672 5.30443 62.1408 5.33092 62.2144 5.33092ZM62.2144 7.84795C62.288 7.84795 62.3587 7.82145 62.4146 7.76552C62.5265 7.65365 62.5294 7.47407 62.4176 7.36221L61.1311 6.05218C61.0192 5.94031 60.8396 5.93736 60.7278 6.04923C60.6159 6.1611 60.613 6.34068 60.7248 6.45254L62.0113 7.76257C62.0672 7.81851 62.1408 7.84795 62.2144 7.84795ZM62.2144 10.365C62.2851 10.365 62.3587 10.3385 62.4146 10.2825C62.5265 10.1736 62.5294 9.9911 62.4176 9.87923L61.1311 8.56626C61.0192 8.45439 60.8396 8.45144 60.7278 8.56331C60.6159 8.67224 60.613 8.85476 60.7248 8.96662L62.0113 10.2796C62.0672 10.3355 62.1408 10.365 62.2144 10.365ZM62.2144 12.8791C62.288 12.8791 62.3587 12.8526 62.4146 12.7966C62.5265 12.6848 62.5294 12.5052 62.4176 12.3933L61.1311 11.0833C61.0192 10.9714 60.8396 10.9685 60.7278 11.0803C60.6159 11.1922 60.613 11.3718 60.7248 11.4836L62.0113 12.7937C62.0672 12.8496 62.1408 12.8791 62.2144 12.8791ZM62.2144 15.3931C62.288 15.3931 62.3587 15.3666 62.4146 15.3107C62.5265 15.1988 62.5294 15.0193 62.4176 14.9074L61.1311 13.5974C61.0192 13.4855 60.8396 13.4825 60.7278 13.5944C60.6159 13.7063 60.613 13.8859 60.7248 13.9977L62.0113 15.3078C62.0672 15.3666 62.1408 15.3931 62.2144 15.3931ZM62.0054 17.6982C62.0761 17.6982 62.1497 17.6717 62.2056 17.6158C62.3175 17.5068 62.3204 17.3243 62.2085 17.2125L61.1311 16.1144C61.0192 16.0025 60.8396 15.9996 60.7278 16.1114C60.6159 16.2204 60.613 16.4029 60.7248 16.5148L61.8023 17.6128C61.8582 17.6688 61.9318 17.6982 62.0054 17.6982Z" fill="#3EBED0"/>
<path d="M55.9822 18.8409L60.1802 18.8409C61.1694 18.8409 62.0496 18.2138 62.3734 17.2806C62.4087 17.1805 62.4382 17.0687 62.4588 16.9597C62.4853 16.8214 62.5 16.6712 62.5 16.5211L62.5 2.32273C62.5 2.27563 62.5 2.22852 62.4971 2.18142C62.4882 2.0254 62.4617 1.86937 62.4205 1.7104C62.4205 1.70451 62.4176 1.70157 62.4176 1.69568C62.3587 1.48666 62.2704 1.28648 62.1556 1.10101C61.7258 0.412144 60.9898 -6.60136e-08 60.1802 -1.01401e-07L55.9852 -2.84772e-07C54.9489 -3.30068e-07 54.0304 0.697701 53.7508 1.69274C53.7066 1.84876 53.6772 2.01362 53.6683 2.17553C53.6654 2.22264 53.6654 2.26974 53.6654 2.31978L53.6654 16.5182C53.6654 16.6683 53.6801 16.8184 53.7095 16.9597C53.7302 17.0657 53.7567 17.1746 53.7949 17.2806C54.1129 18.2138 54.9931 18.8409 55.9822 18.8409ZM61.8612 1.83993C61.8612 1.84287 61.8641 1.84582 61.8641 1.85171C61.8965 1.97241 61.9171 2.09605 61.9259 2.21675C61.9289 2.25207 61.9289 2.2874 61.9289 2.32567L61.9289 16.524C61.9289 16.6389 61.9171 16.7507 61.8965 16.8567C61.8818 16.9421 61.8612 17.0186 61.8317 17.0922C61.5874 17.7988 60.9221 18.2727 60.1773 18.2727L55.9822 18.2727C55.2374 18.2727 54.5721 17.7988 54.3307 17.0952C54.3013 17.0157 54.2807 16.9391 54.2659 16.8596C54.2453 16.7478 54.2336 16.6359 54.2336 16.524L54.2336 2.32273C54.2336 2.2874 54.2336 2.24913 54.2365 2.2138C54.2453 2.09016 54.2659 1.96946 54.2983 1.84876C54.5103 1.09513 55.2021 0.571114 55.9822 0.571114L60.1802 0.571114C60.7896 0.571114 61.346 0.880223 61.6698 1.40129C61.7523 1.53671 61.817 1.6839 61.8612 1.83993Z" fill="#3EBED0"/>
<path d="M2.83944 18.8409C2.99841 18.8409 3.125 18.7143 3.125 18.5553L3.125 0.285557C3.125 0.126587 2.99841 -5.53332e-09 2.83944 -1.24821e-08C2.68047 -1.94309e-08 2.55388 0.126587 2.55388 0.285557L2.55388 18.5553C2.55388 18.7114 2.68047 18.8409 2.83944 18.8409Z" fill="#56E4EE"/>
<path d="M4.41757 18.8409C4.57654 18.8409 4.70312 18.7143 4.70312 18.5553L4.70312 0.285557C4.70312 0.126587 4.57359 -5.66198e-09 4.41757 -1.24821e-08C4.2586 -1.94309e-08 4.13201 0.126587 4.13201 0.285557L4.13201 18.5553C4.13201 18.7114 4.2586 18.8409 4.41757 18.8409Z" fill="#3EBED0"/>
<path d="M6.24569 18.8409C6.40466 18.8409 6.53125 18.7143 6.53125 18.5553L6.53125 0.285557C6.53125 0.126587 6.40466 -5.53332e-09 6.24569 -1.24821e-08C6.08672 -1.94309e-08 5.96014 0.126587 5.96014 0.285557L5.96013 18.5553C5.96013 18.7114 6.08967 18.8409 6.24569 18.8409Z" fill="#56E4EE"/>
<path d="M5.68137 1.93855L6.66757 1.93855C6.82654 1.93855 6.95312 1.81196 6.95312 1.65299C6.95312 1.49402 6.82654 1.36743 6.66757 1.36743L5.68137 1.36743C5.5224 1.36743 5.39581 1.49402 5.39581 1.65299C5.39581 1.81196 5.5224 1.93855 5.68137 1.93855ZM2.34005 1.93855L3.32331 1.93855C3.48228 1.93855 3.60887 1.81196 3.60887 1.65299C3.60887 1.49402 3.48228 1.36743 3.32331 1.36743L2.34005 1.36743C2.18108 1.36743 2.05449 1.49402 2.05449 1.65299C2.05449 1.81196 2.18108 1.93855 2.34005 1.93855ZM5.68137 3.88151L6.66757 3.88151C6.82654 3.88151 6.95312 3.75493 6.95312 3.59596C6.95312 3.43699 6.82654 3.3104 6.66757 3.3104L5.68137 3.3104C5.5224 3.3104 5.39581 3.43699 5.39581 3.59596C5.39581 3.75198 5.5224 3.88151 5.68137 3.88151ZM2.34005 3.88151L3.32331 3.88151C3.48228 3.88151 3.60887 3.75493 3.60887 3.59596C3.60887 3.43699 3.48228 3.3104 3.32331 3.3104L2.34005 3.3104C2.18108 3.3104 2.05449 3.43699 2.05449 3.59596C2.05449 3.75198 2.18108 3.88151 2.34005 3.88151ZM5.68137 5.82154L6.66757 5.82154C6.82654 5.82154 6.95312 5.69495 6.95312 5.53598C6.95312 5.37701 6.82654 5.25042 6.66757 5.25042L5.68137 5.25042C5.5224 5.25042 5.39581 5.37701 5.39581 5.53598C5.39581 5.69495 5.5224 5.82154 5.68137 5.82154ZM2.34005 5.82154L3.32331 5.82154C3.48228 5.82154 3.60887 5.69495 3.60887 5.53598C3.60887 5.37701 3.48228 5.25042 3.32331 5.25042L2.34005 5.25042C2.18108 5.25042 2.05449 5.37701 2.05449 5.53598C2.05449 5.69495 2.18108 5.82154 2.34005 5.82154ZM5.68136 7.76156L6.66757 7.76156C6.82654 7.76156 6.95312 7.63497 6.95312 7.476C6.95312 7.31703 6.82654 7.19044 6.66757 7.19044L5.68136 7.19044C5.52239 7.19044 5.39581 7.31703 5.39581 7.476C5.39581 7.63497 5.52239 7.76156 5.68136 7.76156ZM2.34005 7.76156L3.32331 7.76156C3.48228 7.76156 3.60887 7.63497 3.60887 7.476C3.60887 7.31703 3.48228 7.19044 3.32331 7.19044L2.34005 7.19044C2.18108 7.19044 2.05449 7.31703 2.05449 7.476C2.05449 7.63497 2.18108 7.76156 2.34005 7.76156ZM5.68136 9.70158L6.66757 9.70158C6.82654 9.70158 6.95312 9.57499 6.95312 9.41602C6.95312 9.25705 6.82654 9.13047 6.66757 9.13047L5.68136 9.13047C5.52239 9.13047 5.39581 9.25705 5.39581 9.41602C5.39581 9.57205 5.52239 9.70158 5.68136 9.70158ZM2.34005 9.70158L3.32331 9.70158C3.48228 9.70158 3.60887 9.57499 3.60887 9.41602C3.60887 9.25705 3.48228 9.13047 3.32331 9.13047L2.34005 9.13047C2.18108 9.13047 2.05449 9.25705 2.05449 9.41602C2.05449 9.57205 2.18108 9.70158 2.34005 9.70158ZM5.68136 11.6416L6.66757 11.6416C6.82654 11.6416 6.95312 11.515 6.95312 11.356C6.95312 11.1971 6.82654 11.0705 6.66757 11.0705L5.68136 11.0705C5.52239 11.0705 5.39581 11.1971 5.39581 11.356C5.39581 11.515 5.52239 11.6416 5.68136 11.6416ZM2.34005 11.6416L3.32331 11.6416C3.48228 11.6416 3.60887 11.515 3.60887 11.356C3.60887 11.1971 3.48228 11.0705 3.32331 11.0705L2.34005 11.0705C2.18108 11.0705 2.05449 11.1971 2.05449 11.356C2.05449 11.515 2.18108 11.6416 2.34005 11.6416ZM5.68136 13.5846L6.66757 13.5846C6.82654 13.5846 6.95312 13.458 6.95312 13.299C6.95312 13.14 6.82654 13.0135 6.66757 13.0135L5.68136 13.0135C5.52239 13.0135 5.39581 13.14 5.39581 13.299C5.39581 13.458 5.52239 13.5846 5.68136 13.5846ZM2.34005 13.5846L3.32331 13.5846C3.48228 13.5846 3.60887 13.458 3.60887 13.299C3.60887 13.14 3.48228 13.0135 3.32331 13.0135L2.34005 13.0135C2.18108 13.0135 2.05449 13.14 2.05449 13.299C2.05449 13.458 2.18108 13.5846 2.34005 13.5846ZM5.68136 15.5216L6.66757 15.5216C6.82654 15.5216 6.95312 15.3951 6.95312 15.2361C6.95312 15.0771 6.82654 14.9505 6.66757 14.9505L5.68136 14.9505C5.52239 14.9505 5.39581 15.0771 5.39581 15.2361C5.39581 15.3951 5.52239 15.5216 5.68136 15.5216ZM2.34005 15.5216L3.32331 15.5216C3.48228 15.5216 3.60887 15.3951 3.60887 15.2361C3.60887 15.0771 3.48228 14.9505 3.32331 14.9505L2.34005 14.9505C2.18108 14.9505 2.05449 15.0771 2.05449 15.2361C2.05449 15.3951 2.18108 15.5216 2.34005 15.5216ZM5.68136 17.4617L6.66757 17.4617C6.82654 17.4617 6.95312 17.3351 6.95312 17.1761C6.95312 17.0171 6.82654 16.8906 6.66757 16.8906L5.68136 16.8906C5.52239 16.8906 5.39581 17.0171 5.39581 17.1761C5.39581 17.3351 5.52239 17.4617 5.68136 17.4617ZM2.34005 17.4617L3.32331 17.4617C3.48228 17.4617 3.60887 17.3351 3.60887 17.1761C3.60887 17.0171 3.48228 16.8906 3.32331 16.8906L2.34005 16.8906C2.18108 16.8906 2.05449 17.0171 2.05449 17.1761C2.05449 17.3351 2.18108 17.4617 2.34005 17.4617Z" fill="#56E4EE"/>
<path d="M0.28438 2.8232C0.357977 2.8232 0.431575 2.79377 0.487509 2.73783L1.77693 1.42191C1.8888 1.31005 1.88586 1.12752 1.77399 1.0186C1.66212 0.906733 1.4796 0.909677 1.37068 1.02154L0.0812519 2.33746C-0.0306159 2.44933 -0.0276725 2.63185 0.0841953 2.74078C0.140129 2.79671 0.210783 2.8232 0.28438 2.8232ZM0.28438 5.33728C0.357977 5.33728 0.431575 5.30785 0.487509 5.25191L1.77693 3.93599C1.8888 3.82413 1.88586 3.64161 1.77399 3.53268C1.66212 3.42376 1.4796 3.42376 1.37068 3.53563L0.0812518 4.85154C-0.030616 4.96341 -0.0276726 5.14593 0.0841952 5.25486C0.140129 5.31079 0.210782 5.33728 0.28438 5.33728ZM0.28438 7.85431C0.357977 7.85431 0.431575 7.82487 0.487509 7.76894L1.77693 6.45596C1.8888 6.34409 1.88586 6.16157 1.77399 6.05265C1.66212 5.94078 1.4796 5.94373 1.37068 6.05559L0.0812517 7.36857C-0.0306161 7.48044 -0.0276727 7.66296 0.0841951 7.77188C0.140129 7.82487 0.210782 7.85431 0.28438 7.85431ZM0.284379 10.3713C0.357977 10.3713 0.431575 10.3419 0.487509 10.286L1.77693 8.97004C1.8888 8.85817 1.88586 8.67565 1.77399 8.56673C1.66212 8.45486 1.4796 8.45781 1.37068 8.56967L0.0812516 9.88559C-0.0306162 9.99746 -0.0276728 10.18 0.084195 10.2889C0.140129 10.3448 0.210782 10.3713 0.284379 10.3713ZM0.284379 12.8854C0.357977 12.8854 0.431575 12.856 0.487508 12.8L1.77693 11.4871C1.8888 11.3752 1.88586 11.1927 1.77399 11.0838C1.66212 10.9719 1.4796 10.9748 1.37068 11.0867L0.0812515 12.3997C-0.0306163 12.5115 -0.0276729 12.6941 0.0841949 12.803C0.140129 12.8589 0.210782 12.8854 0.284379 12.8854ZM0.284379 15.3995C0.357976 15.3995 0.431574 15.3701 0.487508 15.3141L1.77693 14.0011C1.8888 13.8893 1.88586 13.7068 1.77399 13.5978C1.66212 13.486 1.4796 13.4889 1.37067 13.6008L0.0812514 14.9138C-0.0306164 15.0256 -0.027673 15.2081 0.0841947 15.3171C0.140129 15.373 0.210782 15.3995 0.284379 15.3995ZM0.496339 17.7016C0.569937 17.7016 0.643534 17.6722 0.699467 17.6162L1.77693 16.5182C1.88585 16.4063 1.88585 16.2238 1.77104 16.1149C1.65918 16.0059 1.47665 16.0059 1.36773 16.1178L0.290267 17.2159C0.181343 17.3277 0.181343 17.5103 0.296155 17.6192C0.352089 17.6751 0.422742 17.7016 0.496339 17.7016Z" fill="#3EBED0"/>
<path d="M8.55037 2.81684C8.62102 2.81684 8.69462 2.79035 8.75055 2.73441C8.86242 2.62549 8.86536 2.44297 8.75349 2.3311L7.46702 1.01813C7.35515 0.906259 7.17557 0.903315 7.0637 1.01518C6.95183 1.12411 6.94889 1.30663 7.06076 1.4185L8.34724 2.73147C8.40317 2.7874 8.47677 2.81684 8.55037 2.81684ZM8.55037 5.33092C8.62102 5.33092 8.69462 5.30443 8.75055 5.24849C8.86242 5.13957 8.86536 4.95705 8.75349 4.84518L7.46702 3.53221C7.35515 3.42034 7.17557 3.4174 7.0637 3.52926C6.95183 3.63819 6.94889 3.82071 7.06076 3.93258L8.34724 5.24555C8.40317 5.30443 8.47677 5.33092 8.55037 5.33092ZM8.55037 7.84795C8.62396 7.84795 8.69462 7.82145 8.75055 7.76552C8.86242 7.65365 8.86536 7.47407 8.75349 7.36221L7.46702 6.05218C7.35515 5.94031 7.17557 5.93736 7.0637 6.04923C6.95183 6.1611 6.94889 6.34068 7.06076 6.45254L8.34724 7.76257C8.40317 7.81851 8.47677 7.84795 8.55037 7.84795ZM8.55037 10.365C8.62102 10.365 8.69462 10.3385 8.75055 10.2825C8.86242 10.1736 8.86536 9.9911 8.75349 9.87923L7.46701 8.56626C7.35515 8.45439 7.17557 8.45144 7.0637 8.56331C6.95183 8.67224 6.94889 8.85476 7.06076 8.96662L8.34724 10.2796C8.40317 10.3355 8.47677 10.365 8.55037 10.365ZM8.55037 12.8791C8.62396 12.8791 8.69462 12.8526 8.75055 12.7966C8.86242 12.6848 8.86536 12.5052 8.75349 12.3933L7.46701 11.0833C7.35515 10.9714 7.17557 10.9685 7.0637 11.0803C6.95183 11.1922 6.94889 11.3718 7.06076 11.4836L8.34724 12.7937C8.40317 12.8496 8.47677 12.8791 8.55037 12.8791ZM8.55037 15.3931C8.62396 15.3931 8.69462 15.3666 8.75055 15.3107C8.86242 15.1988 8.86536 15.0193 8.75349 14.9074L7.46701 13.5974C7.35515 13.4855 7.17557 13.4825 7.0637 13.5944C6.95183 13.7063 6.94889 13.8859 7.06076 13.9977L8.34724 15.3078C8.40317 15.3666 8.47677 15.3931 8.55037 15.3931ZM8.34135 17.6982C8.412 17.6982 8.4856 17.6717 8.54153 17.6158C8.6534 17.5068 8.65635 17.3243 8.54448 17.2125L7.46701 16.1144C7.35515 16.0025 7.17557 15.9996 7.0637 16.1114C6.95183 16.2204 6.94889 16.4029 7.06076 16.5148L8.13822 17.6128C8.19415 17.6688 8.26775 17.6982 8.34135 17.6982Z" fill="#3EBED0"/>
<path d="M2.31817 18.8409L6.51615 18.8409C7.5053 18.8409 8.38552 18.2138 8.70935 17.2806C8.74468 17.1805 8.77412 17.0687 8.79472 16.9597C8.82122 16.8214 8.83594 16.6712 8.83594 16.5211L8.83594 2.32273C8.83594 2.27563 8.83594 2.22852 8.83299 2.18142C8.82416 2.0254 8.79767 1.86937 8.75645 1.7104C8.75645 1.70451 8.75351 1.70157 8.75351 1.69568C8.69463 1.48666 8.60631 1.28648 8.4915 1.10101C8.06169 0.412144 7.32572 -6.60136e-08 6.51615 -1.01401e-07L2.32111 -2.84772e-07C1.28486 -3.30068e-07 0.366371 0.697701 0.0867016 1.69274C0.0425432 1.84876 0.0131036 2.01362 0.00427192 2.17553C0.00132803 2.22264 0.00132853 2.26974 0.00132852 2.31978L0.0013279 16.5182C0.0013279 16.6683 0.0160478 16.8184 0.0454867 16.9597C0.0660939 17.0657 0.092588 17.1746 0.130859 17.2806C0.448798 18.2138 1.32902 18.8409 2.31817 18.8409ZM8.19711 1.83993C8.19711 1.84287 8.20006 1.84582 8.20006 1.85171C8.23244 1.97241 8.25305 2.09605 8.26188 2.21675C8.26482 2.25207 8.26482 2.2874 8.26482 2.32567L8.26482 16.524C8.26482 16.6389 8.25305 16.7507 8.23244 16.8567C8.21772 16.9421 8.19711 17.0186 8.16767 17.0922C7.92333 17.7988 7.25801 18.2727 6.51321 18.2727L2.31817 18.2727C1.57336 18.2727 0.908045 17.7988 0.666646 17.0952C0.637207 17.0157 0.616601 16.9391 0.601881 16.8596C0.581274 16.7478 0.569498 16.6359 0.569498 16.524L0.569499 2.32273C0.569499 2.2874 0.569499 2.24913 0.572442 2.2138C0.581274 2.09016 0.601882 1.96946 0.634265 1.84876C0.846225 1.09513 1.53804 0.571114 2.31817 0.571114L6.51615 0.571114C7.12554 0.571114 7.68193 0.880223 8.00576 1.40129C8.08819 1.53671 8.15296 1.6839 8.19711 1.83993Z" fill="#3EBED0"/>
</svg>
