<svg width="63" height="158" viewBox="0 0 63 158" fill="none" xmlns="http://www.w3.org/2000/svg">
<line y1="-0.5" x2="60" y2="-0.5" transform="matrix(0 1 1 0 32 10)" stroke="white"/>
<path d="M8.83594 9.83191L53.8902 9.83191" stroke="white" strokeLinecap="square"/>
<path d="M8.83594 8.18994L53.8902 8.18994" stroke="white" strokeLinecap="square"/>
<path d="M56.5035 18.8409C56.6625 18.8409 56.7891 18.7143 56.7891 18.5553L56.7891 0.285557C56.7891 0.126587 56.6625 -5.53332e-09 56.5035 -1.24821e-08C56.3445 -1.94309e-08 56.2179 0.126587 56.2179 0.285557L56.2179 18.5553C56.2179 18.7114 56.3445 18.8409 56.5035 18.8409Z" fill="#56E4EE"/>
<path d="M58.0816 18.8409C58.2406 18.8409 58.3672 18.7143 58.3672 18.5553L58.3672 0.285557C58.3672 0.126587 58.2377 -5.66198e-09 58.0816 -1.24821e-08C57.9227 -1.94309e-08 57.7961 0.126587 57.7961 0.285557L57.7961 18.5553C57.7961 18.7114 57.9227 18.8409 58.0816 18.8409Z" fill="#3EBED0"/>
<path d="M59.9098 18.8409C60.0687 18.8409 60.1953 18.7143 60.1953 18.5553L60.1953 0.285557C60.1953 0.126587 60.0687 -5.53332e-09 59.9098 -1.24821e-08C59.7508 -1.94309e-08 59.6242 0.126587 59.6242 0.285557L59.6242 18.5553C59.6242 18.7114 59.7537 18.8409 59.9098 18.8409Z" fill="#56E4EE"/>
<path d="M59.3454 1.93855L60.3316 1.93855C60.4906 1.93855 60.6172 1.81196 60.6172 1.65299C60.6172 1.49402 60.4906 1.36743 60.3316 1.36743L59.3454 1.36743C59.1865 1.36743 59.0599 1.49402 59.0599 1.65299C59.0599 1.81196 59.1865 1.93855 59.3454 1.93855ZM56.0041 1.93855L56.9874 1.93855C57.1463 1.93855 57.2729 1.81196 57.2729 1.65299C57.2729 1.49402 57.1463 1.36743 56.9874 1.36743L56.0041 1.36743C55.8451 1.36743 55.7186 1.49402 55.7186 1.65299C55.7186 1.81196 55.8451 1.93855 56.0041 1.93855ZM59.3454 3.88151L60.3316 3.88151C60.4906 3.88151 60.6172 3.75493 60.6172 3.59596C60.6172 3.43699 60.4906 3.3104 60.3316 3.3104L59.3454 3.3104C59.1865 3.3104 59.0599 3.43699 59.0599 3.59596C59.0599 3.75198 59.1865 3.88151 59.3454 3.88151ZM56.0041 3.88151L56.9874 3.88151C57.1463 3.88151 57.2729 3.75493 57.2729 3.59596C57.2729 3.43699 57.1463 3.3104 56.9874 3.3104L56.0041 3.3104C55.8451 3.3104 55.7186 3.43699 55.7186 3.59596C55.7186 3.75198 55.8451 3.88151 56.0041 3.88151ZM59.3454 5.82154L60.3316 5.82154C60.4906 5.82154 60.6172 5.69495 60.6172 5.53598C60.6172 5.37701 60.4906 5.25042 60.3316 5.25042L59.3454 5.25042C59.1865 5.25042 59.0599 5.37701 59.0599 5.53598C59.0599 5.69495 59.1865 5.82154 59.3454 5.82154ZM56.0041 5.82154L56.9874 5.82154C57.1463 5.82154 57.2729 5.69495 57.2729 5.53598C57.2729 5.37701 57.1463 5.25042 56.9874 5.25042L56.0041 5.25042C55.8451 5.25042 55.7186 5.37701 55.7186 5.53598C55.7186 5.69495 55.8451 5.82154 56.0041 5.82154ZM59.3454 7.76156L60.3316 7.76156C60.4906 7.76156 60.6172 7.63497 60.6172 7.476C60.6172 7.31703 60.4906 7.19044 60.3316 7.19044L59.3454 7.19044C59.1865 7.19044 59.0599 7.31703 59.0599 7.476C59.0599 7.63497 59.1865 7.76156 59.3454 7.76156ZM56.0041 7.76156L56.9874 7.76156C57.1463 7.76156 57.2729 7.63497 57.2729 7.476C57.2729 7.31703 57.1463 7.19044 56.9874 7.19044L56.0041 7.19044C55.8451 7.19044 55.7186 7.31703 55.7186 7.476C55.7186 7.63497 55.8451 7.76156 56.0041 7.76156ZM59.3454 9.70158L60.3316 9.70158C60.4906 9.70158 60.6172 9.57499 60.6172 9.41602C60.6172 9.25705 60.4906 9.13047 60.3316 9.13047L59.3454 9.13047C59.1865 9.13047 59.0599 9.25705 59.0599 9.41602C59.0599 9.57205 59.1865 9.70158 59.3454 9.70158ZM56.0041 9.70158L56.9874 9.70158C57.1463 9.70158 57.2729 9.57499 57.2729 9.41602C57.2729 9.25705 57.1463 9.13047 56.9874 9.13047L56.0041 9.13047C55.8451 9.13047 55.7186 9.25705 55.7186 9.41602C55.7186 9.57205 55.8451 9.70158 56.0041 9.70158ZM59.3454 11.6416L60.3316 11.6416C60.4906 11.6416 60.6172 11.515 60.6172 11.356C60.6172 11.1971 60.4906 11.0705 60.3316 11.0705L59.3454 11.0705C59.1865 11.0705 59.0599 11.1971 59.0599 11.356C59.0599 11.515 59.1865 11.6416 59.3454 11.6416ZM56.0041 11.6416L56.9874 11.6416C57.1463 11.6416 57.2729 11.515 57.2729 11.356C57.2729 11.1971 57.1463 11.0705 56.9874 11.0705L56.0041 11.0705C55.8451 11.0705 55.7186 11.1971 55.7186 11.356C55.7186 11.515 55.8451 11.6416 56.0041 11.6416ZM59.3454 13.5846L60.3316 13.5846C60.4906 13.5846 60.6172 13.458 60.6172 13.299C60.6172 13.14 60.4906 13.0135 60.3316 13.0135L59.3454 13.0135C59.1865 13.0135 59.0599 13.14 59.0599 13.299C59.0599 13.458 59.1865 13.5846 59.3454 13.5846ZM56.0041 13.5846L56.9874 13.5846C57.1463 13.5846 57.2729 13.458 57.2729 13.299C57.2729 13.14 57.1463 13.0135 56.9874 13.0135L56.0041 13.0135C55.8451 13.0135 55.7186 13.14 55.7186 13.299C55.7186 13.458 55.8451 13.5846 56.0041 13.5846ZM59.3454 15.5216L60.3316 15.5216C60.4906 15.5216 60.6172 15.3951 60.6172 15.2361C60.6172 15.0771 60.4906 14.9505 60.3316 14.9505L59.3454 14.9505C59.1865 14.9505 59.0599 15.0771 59.0599 15.2361C59.0599 15.3951 59.1865 15.5216 59.3454 15.5216ZM56.0041 15.5216L56.9874 15.5216C57.1463 15.5216 57.2729 15.3951 57.2729 15.2361C57.2729 15.0771 57.1463 14.9505 56.9874 14.9505L56.0041 14.9505C55.8451 14.9505 55.7186 15.0771 55.7186 15.2361C55.7186 15.3951 55.8451 15.5216 56.0041 15.5216ZM59.3454 17.4617L60.3316 17.4617C60.4906 17.4617 60.6172 17.3351 60.6172 17.1761C60.6172 17.0171 60.4906 16.8906 60.3316 16.8906L59.3454 16.8906C59.1865 16.8906 59.0599 17.0171 59.0599 17.1761C59.0599 17.3351 59.1865 17.4617 59.3454 17.4617ZM56.0041 17.4617L56.9874 17.4617C57.1463 17.4617 57.2729 17.3351 57.2729 17.1761C57.2729 17.0171 57.1463 16.8906 56.9874 16.8906L56.0041 16.8906C55.8451 16.8906 55.7186 17.0171 55.7186 17.1761C55.7186 17.3351 55.8451 17.4617 56.0041 17.4617Z" fill="#56E4EE"/>
<path d="M53.9484 2.8232C54.022 2.8232 54.0956 2.79377 54.1516 2.73783L55.441 1.42191C55.5529 1.31005 55.5499 1.12752 55.4381 1.0186C55.3262 0.906733 55.1437 0.909677 55.0347 1.02154L53.7453 2.33746C53.6334 2.44933 53.6364 2.63185 53.7483 2.74078C53.8042 2.79671 53.8748 2.8232 53.9484 2.8232ZM53.9484 5.33728C54.022 5.33728 54.0956 5.30785 54.1516 5.25191L55.441 3.93599C55.5529 3.82413 55.5499 3.64161 55.4381 3.53268C55.3262 3.42376 55.1437 3.42376 55.0347 3.53563L53.7453 4.85154C53.6334 4.96341 53.6364 5.14593 53.7483 5.25486C53.8042 5.31079 53.8748 5.33728 53.9484 5.33728ZM53.9484 7.85431C54.022 7.85431 54.0956 7.82487 54.1516 7.76894L55.441 6.45596C55.5529 6.34409 55.5499 6.16157 55.4381 6.05265C55.3262 5.94078 55.1437 5.94373 55.0347 6.05559L53.7453 7.36857C53.6334 7.48044 53.6364 7.66296 53.7483 7.77188C53.8042 7.82487 53.8748 7.85431 53.9484 7.85431ZM53.9484 10.3713C54.022 10.3713 54.0956 10.3419 54.1516 10.286L55.441 8.97004C55.5529 8.85817 55.5499 8.67565 55.4381 8.56673C55.3262 8.45486 55.1437 8.45781 55.0347 8.56967L53.7453 9.88559C53.6334 9.99746 53.6364 10.18 53.7483 10.2889C53.8042 10.3448 53.8748 10.3713 53.9484 10.3713ZM53.9484 12.8854C54.022 12.8854 54.0956 12.856 54.1516 12.8L55.441 11.4871C55.5529 11.3752 55.5499 11.1927 55.4381 11.0838C55.3262 10.9719 55.1437 10.9748 55.0347 11.0867L53.7453 12.3997C53.6334 12.5115 53.6364 12.6941 53.7483 12.803C53.8042 12.8589 53.8748 12.8854 53.9484 12.8854ZM53.9484 15.3995C54.022 15.3995 54.0956 15.3701 54.1516 15.3141L55.441 14.0011C55.5529 13.8893 55.5499 13.7068 55.438 13.5978C55.3262 13.486 55.1437 13.4889 55.0347 13.6008L53.7453 14.9138C53.6334 15.0256 53.6364 15.2081 53.7483 15.3171C53.8042 15.373 53.8748 15.3995 53.9484 15.3995ZM54.1604 17.7016C54.234 17.7016 54.3076 17.6722 54.3635 17.6162L55.441 16.5182C55.5499 16.4063 55.5499 16.2238 55.4351 16.1149C55.3232 16.0059 55.1407 16.0059 55.0318 16.1178L53.9543 17.2159C53.8454 17.3277 53.8454 17.5103 53.9602 17.6192C54.0162 17.6751 54.0868 17.7016 54.1604 17.7016Z" fill="#3EBED0"/>
<path d="M62.2144 2.81684C62.2851 2.81684 62.3587 2.79035 62.4146 2.73441C62.5265 2.62549 62.5294 2.44297 62.4176 2.3311L61.1311 1.01813C61.0192 0.906259 60.8396 0.903315 60.7278 1.01518C60.6159 1.12411 60.613 1.30663 60.7248 1.4185L62.0113 2.73147C62.0672 2.7874 62.1408 2.81684 62.2144 2.81684ZM62.2144 5.33092C62.2851 5.33092 62.3587 5.30443 62.4146 5.24849C62.5265 5.13957 62.5294 4.95705 62.4176 4.84518L61.1311 3.53221C61.0192 3.42034 60.8396 3.4174 60.7278 3.52926C60.6159 3.63819 60.613 3.82071 60.7248 3.93258L62.0113 5.24555C62.0672 5.30443 62.1408 5.33092 62.2144 5.33092ZM62.2144 7.84795C62.288 7.84795 62.3587 7.82145 62.4146 7.76552C62.5265 7.65365 62.5294 7.47407 62.4176 7.36221L61.1311 6.05218C61.0192 5.94031 60.8396 5.93736 60.7278 6.04923C60.6159 6.1611 60.613 6.34068 60.7248 6.45254L62.0113 7.76257C62.0672 7.81851 62.1408 7.84795 62.2144 7.84795ZM62.2144 10.365C62.2851 10.365 62.3587 10.3385 62.4146 10.2825C62.5265 10.1736 62.5294 9.9911 62.4176 9.87923L61.1311 8.56626C61.0192 8.45439 60.8396 8.45144 60.7278 8.56331C60.6159 8.67224 60.613 8.85476 60.7248 8.96662L62.0113 10.2796C62.0672 10.3355 62.1408 10.365 62.2144 10.365ZM62.2144 12.8791C62.288 12.8791 62.3587 12.8526 62.4146 12.7966C62.5265 12.6848 62.5294 12.5052 62.4176 12.3933L61.1311 11.0833C61.0192 10.9714 60.8396 10.9685 60.7278 11.0803C60.6159 11.1922 60.613 11.3718 60.7248 11.4836L62.0113 12.7937C62.0672 12.8496 62.1408 12.8791 62.2144 12.8791ZM62.2144 15.3931C62.288 15.3931 62.3587 15.3666 62.4146 15.3107C62.5265 15.1988 62.5294 15.0193 62.4176 14.9074L61.1311 13.5974C61.0192 13.4855 60.8396 13.4825 60.7278 13.5944C60.6159 13.7063 60.613 13.8859 60.7248 13.9977L62.0113 15.3078C62.0672 15.3666 62.1408 15.3931 62.2144 15.3931ZM62.0054 17.6982C62.0761 17.6982 62.1497 17.6717 62.2056 17.6158C62.3175 17.5068 62.3204 17.3243 62.2085 17.2125L61.1311 16.1144C61.0192 16.0025 60.8396 15.9996 60.7278 16.1114C60.6159 16.2204 60.613 16.4029 60.7248 16.5148L61.8023 17.6128C61.8582 17.6688 61.9318 17.6982 62.0054 17.6982Z" fill="#3EBED0"/>
<path d="M55.9822 18.8409L60.1802 18.8409C61.1694 18.8409 62.0496 18.2138 62.3734 17.2806C62.4087 17.1805 62.4382 17.0687 62.4588 16.9597C62.4853 16.8214 62.5 16.6712 62.5 16.5211L62.5 2.32273C62.5 2.27563 62.5 2.22852 62.4971 2.18142C62.4882 2.0254 62.4617 1.86937 62.4205 1.7104C62.4205 1.70451 62.4176 1.70157 62.4176 1.69568C62.3587 1.48666 62.2704 1.28648 62.1556 1.10101C61.7258 0.412144 60.9898 -6.60136e-08 60.1802 -1.01401e-07L55.9852 -2.84772e-07C54.9489 -3.30068e-07 54.0304 0.697701 53.7508 1.69274C53.7066 1.84876 53.6772 2.01362 53.6683 2.17553C53.6654 2.22264 53.6654 2.26974 53.6654 2.31978L53.6654 16.5182C53.6654 16.6683 53.6801 16.8184 53.7095 16.9597C53.7302 17.0657 53.7567 17.1746 53.7949 17.2806C54.1129 18.2138 54.9931 18.8409 55.9822 18.8409ZM61.8612 1.83993C61.8612 1.84287 61.8641 1.84582 61.8641 1.85171C61.8965 1.97241 61.9171 2.09605 61.9259 2.21675C61.9289 2.25207 61.9289 2.2874 61.9289 2.32567L61.9289 16.524C61.9289 16.6389 61.9171 16.7507 61.8965 16.8567C61.8818 16.9421 61.8612 17.0186 61.8317 17.0922C61.5874 17.7988 60.9221 18.2727 60.1773 18.2727L55.9822 18.2727C55.2374 18.2727 54.5721 17.7988 54.3307 17.0952C54.3013 17.0157 54.2807 16.9391 54.2659 16.8596C54.2453 16.7478 54.2336 16.6359 54.2336 16.524L54.2336 2.32273C54.2336 2.2874 54.2336 2.24913 54.2365 2.2138C54.2453 2.09016 54.2659 1.96946 54.2983 1.84876C54.5103 1.09513 55.2021 0.571114 55.9822 0.571114L60.1802 0.571114C60.7896 0.571114 61.346 0.880223 61.6698 1.40129C61.7523 1.53671 61.817 1.6839 61.8612 1.83993Z" fill="#3EBED0"/>
<path d="M2.83944 18.8409C2.99841 18.8409 3.125 18.7143 3.125 18.5553L3.125 0.285557C3.125 0.126587 2.99841 -5.53332e-09 2.83944 -1.24821e-08C2.68047 -1.94309e-08 2.55388 0.126587 2.55388 0.285557L2.55388 18.5553C2.55388 18.7114 2.68047 18.8409 2.83944 18.8409Z" fill="#56E4EE"/>
<path d="M4.41757 18.8409C4.57654 18.8409 4.70312 18.7143 4.70312 18.5553L4.70312 0.285557C4.70312 0.126587 4.57359 -5.66198e-09 4.41757 -1.24821e-08C4.2586 -1.94309e-08 4.13201 0.126587 4.13201 0.285557L4.13201 18.5553C4.13201 18.7114 4.2586 18.8409 4.41757 18.8409Z" fill="#3EBED0"/>
<path d="M6.24569 18.8409C6.40466 18.8409 6.53125 18.7143 6.53125 18.5553L6.53125 0.285557C6.53125 0.126587 6.40466 -5.53332e-09 6.24569 -1.24821e-08C6.08672 -1.94309e-08 5.96014 0.126587 5.96014 0.285557L5.96013 18.5553C5.96013 18.7114 6.08967 18.8409 6.24569 18.8409Z" fill="#56E4EE"/>
<path d="M5.68137 1.93855L6.66757 1.93855C6.82654 1.93855 6.95312 1.81196 6.95312 1.65299C6.95312 1.49402 6.82654 1.36743 6.66757 1.36743L5.68137 1.36743C5.5224 1.36743 5.39581 1.49402 5.39581 1.65299C5.39581 1.81196 5.5224 1.93855 5.68137 1.93855ZM2.34005 1.93855L3.32331 1.93855C3.48228 1.93855 3.60887 1.81196 3.60887 1.65299C3.60887 1.49402 3.48228 1.36743 3.32331 1.36743L2.34005 1.36743C2.18108 1.36743 2.05449 1.49402 2.05449 1.65299C2.05449 1.81196 2.18108 1.93855 2.34005 1.93855ZM5.68137 3.88151L6.66757 3.88151C6.82654 3.88151 6.95312 3.75493 6.95312 3.59596C6.95312 3.43699 6.82654 3.3104 6.66757 3.3104L5.68137 3.3104C5.5224 3.3104 5.39581 3.43699 5.39581 3.59596C5.39581 3.75198 5.5224 3.88151 5.68137 3.88151ZM2.34005 3.88151L3.32331 3.88151C3.48228 3.88151 3.60887 3.75493 3.60887 3.59596C3.60887 3.43699 3.48228 3.3104 3.32331 3.3104L2.34005 3.3104C2.18108 3.3104 2.05449 3.43699 2.05449 3.59596C2.05449 3.75198 2.18108 3.88151 2.34005 3.88151ZM5.68137 5.82154L6.66757 5.82154C6.82654 5.82154 6.95312 5.69495 6.95312 5.53598C6.95312 5.37701 6.82654 5.25042 6.66757 5.25042L5.68137 5.25042C5.5224 5.25042 5.39581 5.37701 5.39581 5.53598C5.39581 5.69495 5.5224 5.82154 5.68137 5.82154ZM2.34005 5.82154L3.32331 5.82154C3.48228 5.82154 3.60887 5.69495 3.60887 5.53598C3.60887 5.37701 3.48228 5.25042 3.32331 5.25042L2.34005 5.25042C2.18108 5.25042 2.05449 5.37701 2.05449 5.53598C2.05449 5.69495 2.18108 5.82154 2.34005 5.82154ZM5.68136 7.76156L6.66757 7.76156C6.82654 7.76156 6.95312 7.63497 6.95312 7.476C6.95312 7.31703 6.82654 7.19044 6.66757 7.19044L5.68136 7.19044C5.52239 7.19044 5.39581 7.31703 5.39581 7.476C5.39581 7.63497 5.52239 7.76156 5.68136 7.76156ZM2.34005 7.76156L3.32331 7.76156C3.48228 7.76156 3.60887 7.63497 3.60887 7.476C3.60887 7.31703 3.48228 7.19044 3.32331 7.19044L2.34005 7.19044C2.18108 7.19044 2.05449 7.31703 2.05449 7.476C2.05449 7.63497 2.18108 7.76156 2.34005 7.76156ZM5.68136 9.70158L6.66757 9.70158C6.82654 9.70158 6.95312 9.57499 6.95312 9.41602C6.95312 9.25705 6.82654 9.13047 6.66757 9.13047L5.68136 9.13047C5.52239 9.13047 5.39581 9.25705 5.39581 9.41602C5.39581 9.57205 5.52239 9.70158 5.68136 9.70158ZM2.34005 9.70158L3.32331 9.70158C3.48228 9.70158 3.60887 9.57499 3.60887 9.41602C3.60887 9.25705 3.48228 9.13047 3.32331 9.13047L2.34005 9.13047C2.18108 9.13047 2.05449 9.25705 2.05449 9.41602C2.05449 9.57205 2.18108 9.70158 2.34005 9.70158ZM5.68136 11.6416L6.66757 11.6416C6.82654 11.6416 6.95312 11.515 6.95312 11.356C6.95312 11.1971 6.82654 11.0705 6.66757 11.0705L5.68136 11.0705C5.52239 11.0705 5.39581 11.1971 5.39581 11.356C5.39581 11.515 5.52239 11.6416 5.68136 11.6416ZM2.34005 11.6416L3.32331 11.6416C3.48228 11.6416 3.60887 11.515 3.60887 11.356C3.60887 11.1971 3.48228 11.0705 3.32331 11.0705L2.34005 11.0705C2.18108 11.0705 2.05449 11.1971 2.05449 11.356C2.05449 11.515 2.18108 11.6416 2.34005 11.6416ZM5.68136 13.5846L6.66757 13.5846C6.82654 13.5846 6.95312 13.458 6.95312 13.299C6.95312 13.14 6.82654 13.0135 6.66757 13.0135L5.68136 13.0135C5.52239 13.0135 5.39581 13.14 5.39581 13.299C5.39581 13.458 5.52239 13.5846 5.68136 13.5846ZM2.34005 13.5846L3.32331 13.5846C3.48228 13.5846 3.60887 13.458 3.60887 13.299C3.60887 13.14 3.48228 13.0135 3.32331 13.0135L2.34005 13.0135C2.18108 13.0135 2.05449 13.14 2.05449 13.299C2.05449 13.458 2.18108 13.5846 2.34005 13.5846ZM5.68136 15.5216L6.66757 15.5216C6.82654 15.5216 6.95312 15.3951 6.95312 15.2361C6.95312 15.0771 6.82654 14.9505 6.66757 14.9505L5.68136 14.9505C5.52239 14.9505 5.39581 15.0771 5.39581 15.2361C5.39581 15.3951 5.52239 15.5216 5.68136 15.5216ZM2.34005 15.5216L3.32331 15.5216C3.48228 15.5216 3.60887 15.3951 3.60887 15.2361C3.60887 15.0771 3.48228 14.9505 3.32331 14.9505L2.34005 14.9505C2.18108 14.9505 2.05449 15.0771 2.05449 15.2361C2.05449 15.3951 2.18108 15.5216 2.34005 15.5216ZM5.68136 17.4617L6.66757 17.4617C6.82654 17.4617 6.95312 17.3351 6.95312 17.1761C6.95312 17.0171 6.82654 16.8906 6.66757 16.8906L5.68136 16.8906C5.52239 16.8906 5.39581 17.0171 5.39581 17.1761C5.39581 17.3351 5.52239 17.4617 5.68136 17.4617ZM2.34005 17.4617L3.32331 17.4617C3.48228 17.4617 3.60887 17.3351 3.60887 17.1761C3.60887 17.0171 3.48228 16.8906 3.32331 16.8906L2.34005 16.8906C2.18108 16.8906 2.05449 17.0171 2.05449 17.1761C2.05449 17.3351 2.18108 17.4617 2.34005 17.4617Z" fill="#56E4EE"/>
<path d="M0.28438 2.8232C0.357977 2.8232 0.431575 2.79377 0.487509 2.73783L1.77693 1.42191C1.8888 1.31005 1.88586 1.12752 1.77399 1.0186C1.66212 0.906733 1.4796 0.909677 1.37068 1.02154L0.0812519 2.33746C-0.0306159 2.44933 -0.0276725 2.63185 0.0841953 2.74078C0.140129 2.79671 0.210783 2.8232 0.28438 2.8232ZM0.28438 5.33728C0.357977 5.33728 0.431575 5.30785 0.487509 5.25191L1.77693 3.93599C1.8888 3.82413 1.88586 3.64161 1.77399 3.53268C1.66212 3.42376 1.4796 3.42376 1.37068 3.53563L0.0812518 4.85154C-0.030616 4.96341 -0.0276726 5.14593 0.0841952 5.25486C0.140129 5.31079 0.210782 5.33728 0.28438 5.33728ZM0.28438 7.85431C0.357977 7.85431 0.431575 7.82487 0.487509 7.76894L1.77693 6.45596C1.8888 6.34409 1.88586 6.16157 1.77399 6.05265C1.66212 5.94078 1.4796 5.94373 1.37068 6.05559L0.0812517 7.36857C-0.0306161 7.48044 -0.0276727 7.66296 0.0841951 7.77188C0.140129 7.82487 0.210782 7.85431 0.28438 7.85431ZM0.284379 10.3713C0.357977 10.3713 0.431575 10.3419 0.487509 10.286L1.77693 8.97004C1.8888 8.85817 1.88586 8.67565 1.77399 8.56673C1.66212 8.45486 1.4796 8.45781 1.37068 8.56967L0.0812516 9.88559C-0.0306162 9.99746 -0.0276728 10.18 0.084195 10.2889C0.140129 10.3448 0.210782 10.3713 0.284379 10.3713ZM0.284379 12.8854C0.357977 12.8854 0.431575 12.856 0.487508 12.8L1.77693 11.4871C1.8888 11.3752 1.88586 11.1927 1.77399 11.0838C1.66212 10.9719 1.4796 10.9748 1.37068 11.0867L0.0812515 12.3997C-0.0306163 12.5115 -0.0276729 12.6941 0.0841949 12.803C0.140129 12.8589 0.210782 12.8854 0.284379 12.8854ZM0.284379 15.3995C0.357976 15.3995 0.431574 15.3701 0.487508 15.3141L1.77693 14.0011C1.8888 13.8893 1.88586 13.7068 1.77399 13.5978C1.66212 13.486 1.4796 13.4889 1.37067 13.6008L0.0812514 14.9138C-0.0306164 15.0256 -0.027673 15.2081 0.0841947 15.3171C0.140129 15.373 0.210782 15.3995 0.284379 15.3995ZM0.496339 17.7016C0.569937 17.7016 0.643534 17.6722 0.699467 17.6162L1.77693 16.5182C1.88585 16.4063 1.88585 16.2238 1.77104 16.1149C1.65918 16.0059 1.47665 16.0059 1.36773 16.1178L0.290267 17.2159C0.181343 17.3277 0.181343 17.5103 0.296155 17.6192C0.352089 17.6751 0.422742 17.7016 0.496339 17.7016Z" fill="#3EBED0"/>
<path d="M8.55037 2.81684C8.62102 2.81684 8.69462 2.79035 8.75055 2.73441C8.86242 2.62549 8.86536 2.44297 8.75349 2.3311L7.46702 1.01813C7.35515 0.906259 7.17557 0.903315 7.0637 1.01518C6.95183 1.12411 6.94889 1.30663 7.06076 1.4185L8.34724 2.73147C8.40317 2.7874 8.47677 2.81684 8.55037 2.81684ZM8.55037 5.33092C8.62102 5.33092 8.69462 5.30443 8.75055 5.24849C8.86242 5.13957 8.86536 4.95705 8.75349 4.84518L7.46702 3.53221C7.35515 3.42034 7.17557 3.4174 7.0637 3.52926C6.95183 3.63819 6.94889 3.82071 7.06076 3.93258L8.34724 5.24555C8.40317 5.30443 8.47677 5.33092 8.55037 5.33092ZM8.55037 7.84795C8.62396 7.84795 8.69462 7.82145 8.75055 7.76552C8.86242 7.65365 8.86536 7.47407 8.75349 7.36221L7.46702 6.05218C7.35515 5.94031 7.17557 5.93736 7.0637 6.04923C6.95183 6.1611 6.94889 6.34068 7.06076 6.45254L8.34724 7.76257C8.40317 7.81851 8.47677 7.84795 8.55037 7.84795ZM8.55037 10.365C8.62102 10.365 8.69462 10.3385 8.75055 10.2825C8.86242 10.1736 8.86536 9.9911 8.75349 9.87923L7.46701 8.56626C7.35515 8.45439 7.17557 8.45144 7.0637 8.56331C6.95183 8.67224 6.94889 8.85476 7.06076 8.96662L8.34724 10.2796C8.40317 10.3355 8.47677 10.365 8.55037 10.365ZM8.55037 12.8791C8.62396 12.8791 8.69462 12.8526 8.75055 12.7966C8.86242 12.6848 8.86536 12.5052 8.75349 12.3933L7.46701 11.0833C7.35515 10.9714 7.17557 10.9685 7.0637 11.0803C6.95183 11.1922 6.94889 11.3718 7.06076 11.4836L8.34724 12.7937C8.40317 12.8496 8.47677 12.8791 8.55037 12.8791ZM8.55037 15.3931C8.62396 15.3931 8.69462 15.3666 8.75055 15.3107C8.86242 15.1988 8.86536 15.0193 8.75349 14.9074L7.46701 13.5974C7.35515 13.4855 7.17557 13.4825 7.0637 13.5944C6.95183 13.7063 6.94889 13.8859 7.06076 13.9977L8.34724 15.3078C8.40317 15.3666 8.47677 15.3931 8.55037 15.3931ZM8.34135 17.6982C8.412 17.6982 8.4856 17.6717 8.54153 17.6158C8.6534 17.5068 8.65635 17.3243 8.54448 17.2125L7.46701 16.1144C7.35515 16.0025 7.17557 15.9996 7.0637 16.1114C6.95183 16.2204 6.94889 16.4029 7.06076 16.5148L8.13822 17.6128C8.19415 17.6688 8.26775 17.6982 8.34135 17.6982Z" fill="#3EBED0"/>
<path d="M2.31817 18.8409L6.51615 18.8409C7.5053 18.8409 8.38552 18.2138 8.70935 17.2806C8.74468 17.1805 8.77412 17.0687 8.79472 16.9597C8.82122 16.8214 8.83594 16.6712 8.83594 16.5211L8.83594 2.32273C8.83594 2.27563 8.83594 2.22852 8.83299 2.18142C8.82416 2.0254 8.79767 1.86937 8.75645 1.7104C8.75645 1.70451 8.75351 1.70157 8.75351 1.69568C8.69463 1.48666 8.60631 1.28648 8.4915 1.10101C8.06169 0.412144 7.32572 -6.60136e-08 6.51615 -1.01401e-07L2.32111 -2.84772e-07C1.28486 -3.30068e-07 0.366371 0.697701 0.0867016 1.69274C0.0425432 1.84876 0.0131036 2.01362 0.00427192 2.17553C0.00132803 2.22264 0.00132853 2.26974 0.00132852 2.31978L0.0013279 16.5182C0.0013279 16.6683 0.0160478 16.8184 0.0454867 16.9597C0.0660939 17.0657 0.092588 17.1746 0.130859 17.2806C0.448798 18.2138 1.32902 18.8409 2.31817 18.8409ZM8.19711 1.83993C8.19711 1.84287 8.20006 1.84582 8.20006 1.85171C8.23244 1.97241 8.25305 2.09605 8.26188 2.21675C8.26482 2.25207 8.26482 2.2874 8.26482 2.32567L8.26482 16.524C8.26482 16.6389 8.25305 16.7507 8.23244 16.8567C8.21772 16.9421 8.19711 17.0186 8.16767 17.0922C7.92333 17.7988 7.25801 18.2727 6.51321 18.2727L2.31817 18.2727C1.57336 18.2727 0.908045 17.7988 0.666646 17.0952C0.637207 17.0157 0.616601 16.9391 0.601881 16.8596C0.581274 16.7478 0.569498 16.6359 0.569498 16.524L0.569499 2.32273C0.569499 2.2874 0.569499 2.24913 0.572442 2.2138C0.581274 2.09016 0.601882 1.96946 0.634265 1.84876C0.846225 1.09513 1.53804 0.571114 2.31817 0.571114L6.51615 0.571114C7.12554 0.571114 7.68193 0.880223 8.00576 1.40129C8.08819 1.53671 8.15296 1.6839 8.19711 1.83993Z" fill="#3EBED0"/>
<line y1="-0.5" x2="75" y2="-0.5" transform="matrix(-8.74228e-08 1 1 8.74228e-08 32 72)" stroke="white"/>
<path d="M8.83594 71.8319L53.8902 71.8319" stroke="white" strokeLinecap="square"/>
<path d="M8.83594 70.1899L53.8902 70.1899" stroke="white" strokeLinecap="square"/>
<path d="M56.5035 80.8409C56.6625 80.8409 56.7891 80.7143 56.7891 80.5553L56.7891 62.2856C56.7891 62.1266 56.6625 62 56.5035 62C56.3445 62 56.2179 62.1266 56.2179 62.2856L56.2179 80.5553C56.2179 80.7114 56.3445 80.8409 56.5035 80.8409Z" fill="#56E4EE"/>
<path d="M58.0816 80.8409C58.2406 80.8409 58.3672 80.7143 58.3672 80.5553L58.3672 62.2856C58.3672 62.1266 58.2377 62 58.0816 62C57.9227 62 57.7961 62.1266 57.7961 62.2856L57.7961 80.5553C57.7961 80.7114 57.9227 80.8409 58.0816 80.8409Z" fill="#3EBED0"/>
<path d="M59.9098 80.8409C60.0687 80.8409 60.1953 80.7143 60.1953 80.5553L60.1953 62.2856C60.1953 62.1266 60.0687 62 59.9098 62C59.7508 62 59.6242 62.1266 59.6242 62.2856L59.6242 80.5553C59.6242 80.7114 59.7537 80.8409 59.9098 80.8409Z" fill="#56E4EE"/>
<path d="M59.3454 63.9385L60.3316 63.9385C60.4906 63.9385 60.6172 63.812 60.6172 63.653C60.6172 63.494 60.4906 63.3674 60.3316 63.3674L59.3454 63.3674C59.1865 63.3674 59.0599 63.494 59.0599 63.653C59.0599 63.812 59.1865 63.9385 59.3454 63.9385ZM56.0041 63.9385L56.9874 63.9385C57.1463 63.9385 57.2729 63.812 57.2729 63.653C57.2729 63.494 57.1463 63.3674 56.9874 63.3674L56.0041 63.3674C55.8451 63.3674 55.7186 63.494 55.7186 63.653C55.7186 63.812 55.8451 63.9385 56.0041 63.9385ZM59.3454 65.8815L60.3316 65.8815C60.4906 65.8815 60.6172 65.7549 60.6172 65.596C60.6172 65.437 60.4906 65.3104 60.3316 65.3104L59.3454 65.3104C59.1865 65.3104 59.0599 65.437 59.0599 65.596C59.0599 65.752 59.1865 65.8815 59.3454 65.8815ZM56.0041 65.8815L56.9874 65.8815C57.1463 65.8815 57.2729 65.7549 57.2729 65.596C57.2729 65.437 57.1463 65.3104 56.9874 65.3104L56.0041 65.3104C55.8451 65.3104 55.7186 65.437 55.7186 65.596C55.7186 65.752 55.8451 65.8815 56.0041 65.8815ZM59.3454 67.8215L60.3316 67.8215C60.4906 67.8215 60.6172 67.6949 60.6172 67.536C60.6172 67.377 60.4906 67.2504 60.3316 67.2504L59.3454 67.2504C59.1865 67.2504 59.0599 67.377 59.0599 67.536C59.0599 67.6949 59.1865 67.8215 59.3454 67.8215ZM56.0041 67.8215L56.9874 67.8215C57.1463 67.8215 57.2729 67.6949 57.2729 67.536C57.2729 67.377 57.1463 67.2504 56.9874 67.2504L56.0041 67.2504C55.8451 67.2504 55.7186 67.377 55.7186 67.536C55.7186 67.6949 55.8451 67.8215 56.0041 67.8215ZM59.3454 69.7616L60.3316 69.7616C60.4906 69.7616 60.6172 69.635 60.6172 69.476C60.6172 69.317 60.4906 69.1904 60.3316 69.1904L59.3454 69.1904C59.1865 69.1904 59.0599 69.317 59.0599 69.476C59.0599 69.635 59.1865 69.7616 59.3454 69.7616ZM56.0041 69.7616L56.9874 69.7616C57.1463 69.7616 57.2729 69.635 57.2729 69.476C57.2729 69.317 57.1463 69.1904 56.9874 69.1904L56.0041 69.1904C55.8451 69.1904 55.7186 69.317 55.7186 69.476C55.7186 69.635 55.8451 69.7616 56.0041 69.7616ZM59.3454 71.7016L60.3316 71.7016C60.4906 71.7016 60.6172 71.575 60.6172 71.416C60.6172 71.2571 60.4906 71.1305 60.3316 71.1305L59.3454 71.1305C59.1865 71.1305 59.0599 71.2571 59.0599 71.416C59.0599 71.572 59.1865 71.7016 59.3454 71.7016ZM56.0041 71.7016L56.9874 71.7016C57.1463 71.7016 57.2729 71.575 57.2729 71.416C57.2729 71.2571 57.1463 71.1305 56.9874 71.1305L56.0041 71.1305C55.8451 71.1305 55.7186 71.2571 55.7186 71.416C55.7186 71.572 55.8451 71.7016 56.0041 71.7016ZM59.3454 73.6416L60.3316 73.6416C60.4906 73.6416 60.6172 73.515 60.6172 73.356C60.6172 73.1971 60.4906 73.0705 60.3316 73.0705L59.3454 73.0705C59.1865 73.0705 59.0599 73.1971 59.0599 73.356C59.0599 73.515 59.1865 73.6416 59.3454 73.6416ZM56.0041 73.6416L56.9874 73.6416C57.1463 73.6416 57.2729 73.515 57.2729 73.356C57.2729 73.1971 57.1463 73.0705 56.9874 73.0705L56.0041 73.0705C55.8451 73.0705 55.7186 73.1971 55.7186 73.356C55.7186 73.515 55.8451 73.6416 56.0041 73.6416ZM59.3454 75.5846L60.3316 75.5846C60.4906 75.5846 60.6172 75.458 60.6172 75.299C60.6172 75.14 60.4906 75.0135 60.3316 75.0135L59.3454 75.0135C59.1865 75.0135 59.0599 75.14 59.0599 75.299C59.0599 75.458 59.1865 75.5846 59.3454 75.5846ZM56.0041 75.5846L56.9874 75.5846C57.1463 75.5846 57.2729 75.458 57.2729 75.299C57.2729 75.14 57.1463 75.0135 56.9874 75.0135L56.0041 75.0135C55.8451 75.0135 55.7186 75.14 55.7186 75.299C55.7186 75.458 55.8451 75.5846 56.0041 75.5846ZM59.3454 77.5216L60.3316 77.5216C60.4906 77.5216 60.6172 77.3951 60.6172 77.2361C60.6172 77.0771 60.4906 76.9505 60.3316 76.9505L59.3454 76.9505C59.1865 76.9505 59.0599 77.0771 59.0599 77.2361C59.0599 77.3951 59.1865 77.5216 59.3454 77.5216ZM56.0041 77.5216L56.9874 77.5216C57.1463 77.5216 57.2729 77.3951 57.2729 77.2361C57.2729 77.0771 57.1463 76.9505 56.9874 76.9505L56.0041 76.9505C55.8451 76.9505 55.7186 77.0771 55.7186 77.2361C55.7186 77.3951 55.8451 77.5216 56.0041 77.5216ZM59.3454 79.4617L60.3316 79.4617C60.4906 79.4617 60.6172 79.3351 60.6172 79.1761C60.6172 79.0171 60.4906 78.8906 60.3316 78.8906L59.3454 78.8906C59.1865 78.8906 59.0599 79.0171 59.0599 79.1761C59.0599 79.3351 59.1865 79.4617 59.3454 79.4617ZM56.0041 79.4617L56.9874 79.4617C57.1463 79.4617 57.2729 79.3351 57.2729 79.1761C57.2729 79.0171 57.1463 78.8906 56.9874 78.8906L56.0041 78.8906C55.8451 78.8906 55.7186 79.0171 55.7186 79.1761C55.7186 79.3351 55.8451 79.4617 56.0041 79.4617Z" fill="#56E4EE"/>
<path d="M53.9484 64.8232C54.022 64.8232 54.0956 64.7938 54.1516 64.7378L55.441 63.4219C55.5529 63.31 55.5499 63.1275 55.4381 63.0186C55.3262 62.9067 55.1437 62.9097 55.0347 63.0215L53.7453 64.3375C53.6334 64.4493 53.6364 64.6319 53.7483 64.7408C53.8042 64.7967 53.8748 64.8232 53.9484 64.8232ZM53.9484 67.3373C54.022 67.3373 54.0956 67.3078 54.1516 67.2519L55.441 65.936C55.5529 65.8241 55.5499 65.6416 55.4381 65.5327C55.3262 65.4238 55.1437 65.4238 55.0347 65.5356L53.7453 66.8515C53.6334 66.9634 53.6364 67.1459 53.7483 67.2549C53.8042 67.3108 53.8748 67.3373 53.9484 67.3373ZM53.9484 69.8543C54.022 69.8543 54.0956 69.8249 54.1516 69.7689L55.441 68.456C55.5529 68.3441 55.5499 68.1616 55.4381 68.0526C55.3262 67.9408 55.1437 67.9437 55.0347 68.0556L53.7453 69.3686C53.6334 69.4804 53.6364 69.663 53.7483 69.7719C53.8042 69.8249 53.8748 69.8543 53.9484 69.8543ZM53.9484 72.3713C54.022 72.3713 54.0956 72.3419 54.1516 72.286L55.441 70.97C55.5529 70.8582 55.5499 70.6757 55.4381 70.5667C55.3262 70.4549 55.1437 70.4578 55.0347 70.5697L53.7453 71.8856C53.6334 71.9975 53.6364 72.18 53.7483 72.2889C53.8042 72.3448 53.8748 72.3713 53.9484 72.3713ZM53.9484 74.8854C54.022 74.8854 54.0956 74.856 54.1516 74.8L55.441 73.4871C55.5529 73.3752 55.5499 73.1927 55.4381 73.0838C55.3262 72.9719 55.1437 72.9748 55.0347 73.0867L53.7453 74.3997C53.6334 74.5115 53.6364 74.6941 53.7483 74.803C53.8042 74.8589 53.8748 74.8854 53.9484 74.8854ZM53.9484 77.3995C54.022 77.3995 54.0956 77.3701 54.1516 77.3141L55.441 76.0011C55.5529 75.8893 55.5499 75.7068 55.438 75.5978C55.3262 75.486 55.1437 75.4889 55.0347 75.6008L53.7453 76.9138C53.6334 77.0256 53.6364 77.2081 53.7483 77.3171C53.8042 77.373 53.8748 77.3995 53.9484 77.3995ZM54.1604 79.7016C54.234 79.7016 54.3076 79.6722 54.3635 79.6162L55.441 78.5182C55.5499 78.4063 55.5499 78.2238 55.4351 78.1149C55.3232 78.0059 55.1407 78.0059 55.0318 78.1178L53.9543 79.2159C53.8454 79.3277 53.8454 79.5103 53.9602 79.6192C54.0162 79.6751 54.0868 79.7016 54.1604 79.7016Z" fill="#3EBED0"/>
<path d="M62.2144 64.8168C62.2851 64.8168 62.3587 64.7903 62.4146 64.7344C62.5265 64.6255 62.5294 64.443 62.4176 64.3311L61.1311 63.0181C61.0192 62.9063 60.8396 62.9033 60.7278 63.0152C60.6159 63.1241 60.613 63.3066 60.7248 63.4185L62.0113 64.7315C62.0672 64.7874 62.1408 64.8168 62.2144 64.8168ZM62.2144 67.3309C62.2851 67.3309 62.3587 67.3044 62.4146 67.2485C62.5265 67.1396 62.5294 66.957 62.4176 66.8452L61.1311 65.5322C61.0192 65.4203 60.8396 65.4174 60.7278 65.5293C60.6159 65.6382 60.613 65.8207 60.7248 65.9326L62.0113 67.2456C62.0672 67.3044 62.1408 67.3309 62.2144 67.3309ZM62.2144 69.8479C62.288 69.8479 62.3587 69.8215 62.4146 69.7655C62.5265 69.6537 62.5294 69.4741 62.4176 69.3622L61.1311 68.0522C61.0192 67.9403 60.8396 67.9374 60.7278 68.0492C60.6159 68.1611 60.613 68.3407 60.7248 68.4525L62.0113 69.7626C62.0672 69.8185 62.1408 69.8479 62.2144 69.8479ZM62.2144 72.365C62.2851 72.365 62.3587 72.3385 62.4146 72.2825C62.5265 72.1736 62.5294 71.9911 62.4176 71.8792L61.1311 70.5663C61.0192 70.4544 60.8396 70.4514 60.7278 70.5633C60.6159 70.6722 60.613 70.8548 60.7248 70.9666L62.0113 72.2796C62.0672 72.3355 62.1408 72.365 62.2144 72.365ZM62.2144 74.8791C62.288 74.8791 62.3587 74.8526 62.4146 74.7966C62.5265 74.6848 62.5294 74.5052 62.4176 74.3933L61.1311 73.0833C61.0192 72.9714 60.8396 72.9685 60.7278 73.0803C60.6159 73.1922 60.613 73.3718 60.7248 73.4836L62.0113 74.7937C62.0672 74.8496 62.1408 74.8791 62.2144 74.8791ZM62.2144 77.3931C62.288 77.3931 62.3587 77.3666 62.4146 77.3107C62.5265 77.1988 62.5294 77.0193 62.4176 76.9074L61.1311 75.5974C61.0192 75.4855 60.8396 75.4825 60.7278 75.5944C60.6159 75.7063 60.613 75.8859 60.7248 75.9977L62.0113 77.3078C62.0672 77.3666 62.1408 77.3931 62.2144 77.3931ZM62.0054 79.6982C62.0761 79.6982 62.1497 79.6717 62.2056 79.6158C62.3175 79.5068 62.3204 79.3243 62.2085 79.2125L61.1311 78.1144C61.0192 78.0025 60.8396 77.9996 60.7278 78.1114C60.6159 78.2204 60.613 78.4029 60.7248 78.5148L61.8023 79.6128C61.8582 79.6688 61.9318 79.6982 62.0054 79.6982Z" fill="#3EBED0"/>
<path d="M55.9822 80.8409L60.1802 80.8409C61.1694 80.8409 62.0496 80.2138 62.3734 79.2806C62.4087 79.1805 62.4382 79.0687 62.4588 78.9597C62.4853 78.8214 62.5 78.6712 62.5 78.5211L62.5 64.3227C62.5 64.2756 62.5 64.2285 62.4971 64.1814C62.4882 64.0254 62.4617 63.8694 62.4205 63.7104C62.4205 63.7045 62.4176 63.7016 62.4176 63.6957C62.3587 63.4867 62.2704 63.2865 62.1556 63.101C61.7258 62.4121 60.9898 62 60.1802 62L55.9852 62C54.9489 62 54.0304 62.6977 53.7508 63.6927C53.7066 63.8488 53.6772 64.0136 53.6683 64.1755C53.6654 64.2226 53.6654 64.2697 53.6654 64.3198L53.6654 78.5182C53.6654 78.6683 53.6801 78.8184 53.7095 78.9597C53.7302 79.0657 53.7567 79.1746 53.7949 79.2806C54.1129 80.2138 54.9931 80.8409 55.9822 80.8409ZM61.8612 63.8399C61.8612 63.8429 61.8641 63.8458 61.8641 63.8517C61.8965 63.9724 61.9171 64.096 61.9259 64.2167C61.9289 64.2521 61.9289 64.2874 61.9289 64.3257L61.9289 78.524C61.9289 78.6389 61.9171 78.7507 61.8965 78.8567C61.8818 78.9421 61.8612 79.0186 61.8317 79.0922C61.5874 79.7988 60.9221 80.2727 60.1773 80.2727L55.9822 80.2727C55.2374 80.2727 54.5721 79.7988 54.3307 79.0952C54.3013 79.0157 54.2807 78.9391 54.2659 78.8596C54.2453 78.7478 54.2336 78.6359 54.2336 78.524L54.2336 64.3227C54.2336 64.2874 54.2336 64.2491 54.2365 64.2138C54.2453 64.0902 54.2659 63.9695 54.2983 63.8488C54.5103 63.0951 55.2021 62.5711 55.9822 62.5711L60.1802 62.5711C60.7896 62.5711 61.346 62.8802 61.6698 63.4013C61.7523 63.5367 61.817 63.6839 61.8612 63.8399Z" fill="#3EBED0"/>
<path d="M2.83944 80.8409C2.99841 80.8409 3.125 80.7143 3.125 80.5553L3.125 62.2856C3.125 62.1266 2.99841 62 2.83944 62C2.68047 62 2.55388 62.1266 2.55388 62.2856L2.55388 80.5553C2.55388 80.7114 2.68047 80.8409 2.83944 80.8409Z" fill="#56E4EE"/>
<path d="M4.41757 80.8409C4.57654 80.8409 4.70312 80.7143 4.70312 80.5553L4.70312 62.2856C4.70312 62.1266 4.57359 62 4.41757 62C4.2586 62 4.13201 62.1266 4.13201 62.2856L4.13201 80.5553C4.13201 80.7114 4.2586 80.8409 4.41757 80.8409Z" fill="#3EBED0"/>
<path d="M6.24569 80.8409C6.40466 80.8409 6.53125 80.7143 6.53125 80.5553L6.53125 62.2856C6.53125 62.1266 6.40466 62 6.24569 62C6.08672 62 5.96014 62.1266 5.96014 62.2856L5.96013 80.5553C5.96013 80.7114 6.08967 80.8409 6.24569 80.8409Z" fill="#56E4EE"/>
<path d="M5.68137 63.9385L6.66757 63.9385C6.82654 63.9385 6.95312 63.812 6.95312 63.653C6.95312 63.494 6.82654 63.3674 6.66757 63.3674L5.68137 63.3674C5.5224 63.3674 5.39581 63.494 5.39581 63.653C5.39581 63.812 5.5224 63.9385 5.68137 63.9385ZM2.34005 63.9385L3.32331 63.9385C3.48228 63.9385 3.60887 63.812 3.60887 63.653C3.60887 63.494 3.48228 63.3674 3.32331 63.3674L2.34005 63.3674C2.18108 63.3674 2.05449 63.494 2.05449 63.653C2.05449 63.812 2.18108 63.9385 2.34005 63.9385ZM5.68137 65.8815L6.66757 65.8815C6.82654 65.8815 6.95312 65.7549 6.95312 65.596C6.95312 65.437 6.82654 65.3104 6.66757 65.3104L5.68137 65.3104C5.5224 65.3104 5.39581 65.437 5.39581 65.596C5.39581 65.752 5.5224 65.8815 5.68137 65.8815ZM2.34005 65.8815L3.32331 65.8815C3.48228 65.8815 3.60887 65.7549 3.60887 65.596C3.60887 65.437 3.48228 65.3104 3.32331 65.3104L2.34005 65.3104C2.18108 65.3104 2.05449 65.437 2.05449 65.596C2.05449 65.752 2.18108 65.8815 2.34005 65.8815ZM5.68137 67.8215L6.66757 67.8215C6.82654 67.8215 6.95312 67.6949 6.95312 67.536C6.95312 67.377 6.82654 67.2504 6.66757 67.2504L5.68137 67.2504C5.5224 67.2504 5.39581 67.377 5.39581 67.536C5.39581 67.6949 5.5224 67.8215 5.68137 67.8215ZM2.34005 67.8215L3.32331 67.8215C3.48228 67.8215 3.60887 67.6949 3.60887 67.536C3.60887 67.377 3.48228 67.2504 3.32331 67.2504L2.34005 67.2504C2.18108 67.2504 2.05449 67.377 2.05449 67.536C2.05449 67.6949 2.18108 67.8215 2.34005 67.8215ZM5.68136 69.7616L6.66757 69.7616C6.82654 69.7616 6.95312 69.635 6.95312 69.476C6.95312 69.317 6.82654 69.1904 6.66757 69.1904L5.68136 69.1904C5.52239 69.1904 5.39581 69.317 5.39581 69.476C5.39581 69.635 5.52239 69.7616 5.68136 69.7616ZM2.34005 69.7616L3.32331 69.7616C3.48228 69.7616 3.60887 69.635 3.60887 69.476C3.60887 69.317 3.48228 69.1904 3.32331 69.1904L2.34005 69.1904C2.18108 69.1904 2.05449 69.317 2.05449 69.476C2.05449 69.635 2.18108 69.7616 2.34005 69.7616ZM5.68136 71.7016L6.66757 71.7016C6.82654 71.7016 6.95312 71.575 6.95312 71.416C6.95312 71.2571 6.82654 71.1305 6.66757 71.1305L5.68136 71.1305C5.52239 71.1305 5.39581 71.2571 5.39581 71.416C5.39581 71.572 5.52239 71.7016 5.68136 71.7016ZM2.34005 71.7016L3.32331 71.7016C3.48228 71.7016 3.60887 71.575 3.60887 71.416C3.60887 71.2571 3.48228 71.1305 3.32331 71.1305L2.34005 71.1305C2.18108 71.1305 2.05449 71.2571 2.05449 71.416C2.05449 71.572 2.18108 71.7016 2.34005 71.7016ZM5.68136 73.6416L6.66757 73.6416C6.82654 73.6416 6.95312 73.515 6.95312 73.356C6.95312 73.1971 6.82654 73.0705 6.66757 73.0705L5.68136 73.0705C5.52239 73.0705 5.39581 73.1971 5.39581 73.356C5.39581 73.515 5.52239 73.6416 5.68136 73.6416ZM2.34005 73.6416L3.32331 73.6416C3.48228 73.6416 3.60887 73.515 3.60887 73.356C3.60887 73.1971 3.48228 73.0705 3.32331 73.0705L2.34005 73.0705C2.18108 73.0705 2.05449 73.1971 2.05449 73.356C2.05449 73.515 2.18108 73.6416 2.34005 73.6416ZM5.68136 75.5846L6.66757 75.5846C6.82654 75.5846 6.95312 75.458 6.95312 75.299C6.95312 75.14 6.82654 75.0135 6.66757 75.0135L5.68136 75.0135C5.52239 75.0135 5.39581 75.14 5.39581 75.299C5.39581 75.458 5.52239 75.5846 5.68136 75.5846ZM2.34005 75.5846L3.32331 75.5846C3.48228 75.5846 3.60887 75.458 3.60887 75.299C3.60887 75.14 3.48228 75.0135 3.32331 75.0135L2.34005 75.0135C2.18108 75.0135 2.05449 75.14 2.05449 75.299C2.05449 75.458 2.18108 75.5846 2.34005 75.5846ZM5.68136 77.5216L6.66757 77.5216C6.82654 77.5216 6.95312 77.3951 6.95312 77.2361C6.95312 77.0771 6.82654 76.9505 6.66757 76.9505L5.68136 76.9505C5.52239 76.9505 5.39581 77.0771 5.39581 77.2361C5.39581 77.3951 5.52239 77.5216 5.68136 77.5216ZM2.34005 77.5216L3.32331 77.5216C3.48228 77.5216 3.60887 77.3951 3.60887 77.2361C3.60887 77.0771 3.48228 76.9505 3.32331 76.9505L2.34005 76.9505C2.18108 76.9505 2.05449 77.0771 2.05449 77.2361C2.05449 77.3951 2.18108 77.5216 2.34005 77.5216ZM5.68136 79.4617L6.66757 79.4617C6.82654 79.4617 6.95312 79.3351 6.95312 79.1761C6.95312 79.0171 6.82654 78.8906 6.66757 78.8906L5.68136 78.8906C5.52239 78.8906 5.39581 79.0171 5.39581 79.1761C5.39581 79.3351 5.52239 79.4617 5.68136 79.4617ZM2.34005 79.4617L3.32331 79.4617C3.48228 79.4617 3.60887 79.3351 3.60887 79.1761C3.60887 79.0171 3.48228 78.8906 3.32331 78.8906L2.34005 78.8906C2.18108 78.8906 2.05449 79.0171 2.05449 79.1761C2.05449 79.3351 2.18108 79.4617 2.34005 79.4617Z" fill="#56E4EE"/>
<path d="M0.28438 64.8232C0.357977 64.8232 0.431575 64.7938 0.487509 64.7378L1.77693 63.4219C1.8888 63.31 1.88586 63.1275 1.77399 63.0186C1.66212 62.9067 1.4796 62.9097 1.37068 63.0215L0.0812519 64.3375C-0.0306159 64.4493 -0.0276725 64.6319 0.0841953 64.7408C0.140129 64.7967 0.210783 64.8232 0.28438 64.8232ZM0.28438 67.3373C0.357977 67.3373 0.431575 67.3078 0.487509 67.2519L1.77693 65.936C1.8888 65.8241 1.88586 65.6416 1.77399 65.5327C1.66212 65.4238 1.4796 65.4238 1.37068 65.5356L0.0812518 66.8515C-0.030616 66.9634 -0.0276726 67.1459 0.0841952 67.2549C0.140129 67.3108 0.210782 67.3373 0.28438 67.3373ZM0.28438 69.8543C0.357977 69.8543 0.431575 69.8249 0.487509 69.7689L1.77693 68.456C1.8888 68.3441 1.88586 68.1616 1.77399 68.0526C1.66212 67.9408 1.4796 67.9437 1.37068 68.0556L0.0812517 69.3686C-0.0306161 69.4804 -0.0276727 69.663 0.0841951 69.7719C0.140129 69.8249 0.210782 69.8543 0.28438 69.8543ZM0.284379 72.3713C0.357977 72.3713 0.431575 72.3419 0.487509 72.286L1.77693 70.97C1.8888 70.8582 1.88586 70.6757 1.77399 70.5667C1.66212 70.4549 1.4796 70.4578 1.37068 70.5697L0.0812516 71.8856C-0.0306162 71.9975 -0.0276728 72.18 0.084195 72.2889C0.140129 72.3448 0.210782 72.3713 0.284379 72.3713ZM0.284379 74.8854C0.357977 74.8854 0.431575 74.856 0.487508 74.8L1.77693 73.4871C1.8888 73.3752 1.88586 73.1927 1.77399 73.0838C1.66212 72.9719 1.4796 72.9748 1.37068 73.0867L0.0812515 74.3997C-0.0306163 74.5115 -0.0276729 74.6941 0.0841949 74.803C0.140129 74.8589 0.210782 74.8854 0.284379 74.8854ZM0.284379 77.3995C0.357976 77.3995 0.431574 77.3701 0.487508 77.3141L1.77693 76.0011C1.8888 75.8893 1.88586 75.7068 1.77399 75.5978C1.66212 75.486 1.4796 75.4889 1.37067 75.6008L0.0812514 76.9138C-0.0306164 77.0256 -0.027673 77.2081 0.0841947 77.3171C0.140129 77.373 0.210782 77.3995 0.284379 77.3995ZM0.496339 79.7016C0.569937 79.7016 0.643534 79.6722 0.699467 79.6162L1.77693 78.5182C1.88585 78.4063 1.88585 78.2238 1.77104 78.1149C1.65918 78.0059 1.47665 78.0059 1.36773 78.1178L0.290267 79.2159C0.181343 79.3277 0.181343 79.5103 0.296155 79.6192C0.352089 79.6751 0.422742 79.7016 0.496339 79.7016Z" fill="#3EBED0"/>
<path d="M8.55037 64.8168C8.62102 64.8168 8.69462 64.7903 8.75055 64.7344C8.86242 64.6255 8.86536 64.443 8.75349 64.3311L7.46702 63.0181C7.35515 62.9063 7.17557 62.9033 7.0637 63.0152C6.95183 63.1241 6.94889 63.3066 7.06076 63.4185L8.34724 64.7315C8.40317 64.7874 8.47677 64.8168 8.55037 64.8168ZM8.55037 67.3309C8.62102 67.3309 8.69462 67.3044 8.75055 67.2485C8.86242 67.1396 8.86536 66.957 8.75349 66.8452L7.46702 65.5322C7.35515 65.4203 7.17557 65.4174 7.0637 65.5293C6.95183 65.6382 6.94889 65.8207 7.06076 65.9326L8.34724 67.2456C8.40317 67.3044 8.47677 67.3309 8.55037 67.3309ZM8.55037 69.8479C8.62396 69.8479 8.69462 69.8215 8.75055 69.7655C8.86242 69.6537 8.86536 69.4741 8.75349 69.3622L7.46702 68.0522C7.35515 67.9403 7.17557 67.9374 7.0637 68.0492C6.95183 68.1611 6.94889 68.3407 7.06076 68.4525L8.34724 69.7626C8.40317 69.8185 8.47677 69.8479 8.55037 69.8479ZM8.55037 72.365C8.62102 72.365 8.69462 72.3385 8.75055 72.2825C8.86242 72.1736 8.86536 71.9911 8.75349 71.8792L7.46701 70.5663C7.35515 70.4544 7.17557 70.4514 7.0637 70.5633C6.95183 70.6722 6.94889 70.8548 7.06076 70.9666L8.34724 72.2796C8.40317 72.3355 8.47677 72.365 8.55037 72.365ZM8.55037 74.8791C8.62396 74.8791 8.69462 74.8526 8.75055 74.7966C8.86242 74.6848 8.86536 74.5052 8.75349 74.3933L7.46701 73.0833C7.35515 72.9714 7.17557 72.9685 7.0637 73.0803C6.95183 73.1922 6.94889 73.3718 7.06076 73.4836L8.34724 74.7937C8.40317 74.8496 8.47677 74.8791 8.55037 74.8791ZM8.55037 77.3931C8.62396 77.3931 8.69462 77.3666 8.75055 77.3107C8.86242 77.1988 8.86536 77.0193 8.75349 76.9074L7.46701 75.5974C7.35515 75.4855 7.17557 75.4825 7.0637 75.5944C6.95183 75.7063 6.94889 75.8859 7.06076 75.9977L8.34724 77.3078C8.40317 77.3666 8.47677 77.3931 8.55037 77.3931ZM8.34135 79.6982C8.412 79.6982 8.4856 79.6717 8.54153 79.6158C8.6534 79.5068 8.65635 79.3243 8.54448 79.2125L7.46701 78.1144C7.35515 78.0025 7.17557 77.9996 7.0637 78.1114C6.95183 78.2204 6.94889 78.4029 7.06076 78.5148L8.13822 79.6128C8.19415 79.6688 8.26775 79.6982 8.34135 79.6982Z" fill="#3EBED0"/>
<path d="M2.31817 80.8409L6.51615 80.8409C7.5053 80.8409 8.38552 80.2138 8.70935 79.2806C8.74468 79.1805 8.77412 79.0687 8.79472 78.9597C8.82122 78.8214 8.83594 78.6712 8.83594 78.5211L8.83594 64.3227C8.83594 64.2756 8.83594 64.2285 8.83299 64.1814C8.82416 64.0254 8.79767 63.8694 8.75645 63.7104C8.75645 63.7045 8.75351 63.7016 8.75351 63.6957C8.69463 63.4867 8.60631 63.2865 8.4915 63.101C8.06169 62.4121 7.32572 62 6.51615 62L2.32111 62C1.28486 62 0.366371 62.6977 0.0867016 63.6927C0.0425432 63.8488 0.0131036 64.0136 0.00427192 64.1755C0.00132803 64.2226 0.00132853 64.2697 0.00132852 64.3198L0.0013279 78.5182C0.0013279 78.6683 0.0160478 78.8184 0.0454867 78.9597C0.0660939 79.0657 0.092588 79.1746 0.130859 79.2806C0.448798 80.2138 1.32902 80.8409 2.31817 80.8409ZM8.19711 63.8399C8.19711 63.8429 8.20006 63.8458 8.20006 63.8517C8.23244 63.9724 8.25305 64.096 8.26188 64.2167C8.26482 64.2521 8.26482 64.2874 8.26482 64.3257L8.26482 78.524C8.26482 78.6389 8.25305 78.7507 8.23244 78.8567C8.21772 78.9421 8.19711 79.0186 8.16767 79.0922C7.92333 79.7988 7.25801 80.2727 6.51321 80.2727L2.31817 80.2727C1.57336 80.2727 0.908045 79.7988 0.666646 79.0952C0.637207 79.0157 0.616601 78.9391 0.601881 78.8596C0.581274 78.7478 0.569498 78.6359 0.569498 78.524L0.569499 64.3227C0.569499 64.2874 0.569499 64.2491 0.572442 64.2138C0.581274 64.0902 0.601882 63.9695 0.634265 63.8488C0.846225 63.0951 1.53804 62.5711 2.31817 62.5711L6.51615 62.5711C7.12554 62.5711 7.68193 62.8802 8.00576 63.4013C8.08819 63.5367 8.15296 63.6839 8.19711 63.8399Z" fill="#3EBED0"/>
<path d="M20 148.844L43 148.844" stroke="white" strokeLinecap="square"/>
<path d="M20 146.844L43 146.844" stroke="white" strokeLinecap="square"/>
<path d="M56.5035 157.841C56.6625 157.841 56.7891 157.714 56.7891 157.555L56.7891 139.286C56.7891 139.127 56.6625 139 56.5035 139C56.3445 139 56.2179 139.127 56.2179 139.286L56.2179 157.555C56.2179 157.711 56.3445 157.841 56.5035 157.841Z" fill="#56E4EE"/>
<path d="M58.0816 157.841C58.2406 157.841 58.3672 157.714 58.3672 157.555L58.3672 139.286C58.3672 139.127 58.2377 139 58.0816 139C57.9227 139 57.7961 139.127 57.7961 139.286L57.7961 157.555C57.7961 157.711 57.9227 157.841 58.0816 157.841Z" fill="#3EBED0"/>
<path d="M59.9098 157.841C60.0687 157.841 60.1953 157.714 60.1953 157.555L60.1953 139.286C60.1953 139.127 60.0687 139 59.9098 139C59.7508 139 59.6242 139.127 59.6242 139.286L59.6242 157.555C59.6242 157.711 59.7537 157.841 59.9098 157.841Z" fill="#56E4EE"/>
<path d="M59.3454 140.943L60.3316 140.943C60.4906 140.943 60.6172 140.817 60.6172 140.658C60.6172 140.499 60.4906 140.372 60.3316 140.372L59.3454 140.372C59.1865 140.372 59.0599 140.499 59.0599 140.658C59.0599 140.817 59.1865 140.943 59.3454 140.943ZM56.0041 140.943L56.9874 140.943C57.1463 140.943 57.2729 140.817 57.2729 140.658C57.2729 140.499 57.1463 140.372 56.9874 140.372L56.0041 140.372C55.8451 140.372 55.7186 140.499 55.7186 140.658C55.7186 140.817 55.8451 140.943 56.0041 140.943ZM59.3454 142.886L60.3316 142.886C60.4906 142.886 60.6172 142.76 60.6172 142.601C60.6172 142.442 60.4906 142.315 60.3316 142.315L59.3454 142.315C59.1865 142.315 59.0599 142.442 59.0599 142.601C59.0599 142.757 59.1865 142.886 59.3454 142.886ZM56.0041 142.886L56.9874 142.886C57.1463 142.886 57.2729 142.76 57.2729 142.601C57.2729 142.442 57.1463 142.315 56.9874 142.315L56.0041 142.315C55.8451 142.315 55.7186 142.442 55.7186 142.601C55.7186 142.757 55.8451 142.886 56.0041 142.886ZM59.3454 144.826L60.3316 144.826C60.4906 144.826 60.6172 144.7 60.6172 144.541C60.6172 144.382 60.4906 144.255 60.3316 144.255L59.3454 144.255C59.1865 144.255 59.0599 144.382 59.0599 144.541C59.0599 144.7 59.1865 144.826 59.3454 144.826ZM56.0041 144.826L56.9874 144.826C57.1463 144.826 57.2729 144.7 57.2729 144.541C57.2729 144.382 57.1463 144.255 56.9874 144.255L56.0041 144.255C55.8451 144.255 55.7186 144.382 55.7186 144.541C55.7186 144.7 55.8451 144.826 56.0041 144.826ZM59.3454 146.766L60.3316 146.766C60.4906 146.766 60.6172 146.64 60.6172 146.481C60.6172 146.322 60.4906 146.195 60.3316 146.195L59.3454 146.195C59.1865 146.195 59.0599 146.322 59.0599 146.481C59.0599 146.64 59.1865 146.766 59.3454 146.766ZM56.0041 146.766L56.9874 146.766C57.1463 146.766 57.2729 146.64 57.2729 146.481C57.2729 146.322 57.1463 146.195 56.9874 146.195L56.0041 146.195C55.8451 146.195 55.7186 146.322 55.7186 146.481C55.7186 146.64 55.8451 146.766 56.0041 146.766ZM59.3454 148.706L60.3316 148.706C60.4906 148.706 60.6172 148.58 60.6172 148.421C60.6172 148.262 60.4906 148.135 60.3316 148.135L59.3454 148.135C59.1865 148.135 59.0599 148.262 59.0599 148.421C59.0599 148.577 59.1865 148.706 59.3454 148.706ZM56.0041 148.706L56.9874 148.706C57.1463 148.706 57.2729 148.58 57.2729 148.421C57.2729 148.262 57.1463 148.135 56.9874 148.135L56.0041 148.135C55.8451 148.135 55.7186 148.262 55.7186 148.421C55.7186 148.577 55.8451 148.706 56.0041 148.706ZM59.3454 150.646L60.3316 150.646C60.4906 150.646 60.6172 150.52 60.6172 150.361C60.6172 150.202 60.4906 150.075 60.3316 150.075L59.3454 150.075C59.1865 150.075 59.0599 150.202 59.0599 150.361C59.0599 150.52 59.1865 150.646 59.3454 150.646ZM56.0041 150.646L56.9874 150.646C57.1463 150.646 57.2729 150.52 57.2729 150.361C57.2729 150.202 57.1463 150.075 56.9874 150.075L56.0041 150.075C55.8451 150.075 55.7186 150.202 55.7186 150.361C55.7186 150.52 55.8451 150.646 56.0041 150.646ZM59.3454 152.589L60.3316 152.589C60.4906 152.589 60.6172 152.463 60.6172 152.304C60.6172 152.145 60.4906 152.018 60.3316 152.018L59.3454 152.018C59.1865 152.018 59.0599 152.145 59.0599 152.304C59.0599 152.463 59.1865 152.589 59.3454 152.589ZM56.0041 152.589L56.9874 152.589C57.1463 152.589 57.2729 152.463 57.2729 152.304C57.2729 152.145 57.1463 152.018 56.9874 152.018L56.0041 152.018C55.8451 152.018 55.7186 152.145 55.7186 152.304C55.7186 152.463 55.8451 152.589 56.0041 152.589ZM59.3454 154.527L60.3316 154.527C60.4906 154.527 60.6172 154.4 60.6172 154.241C60.6172 154.082 60.4906 153.955 60.3316 153.955L59.3454 153.955C59.1865 153.955 59.0599 154.082 59.0599 154.241C59.0599 154.4 59.1865 154.527 59.3454 154.527ZM56.0041 154.527L56.9874 154.527C57.1463 154.527 57.2729 154.4 57.2729 154.241C57.2729 154.082 57.1463 153.955 56.9874 153.955L56.0041 153.955C55.8451 153.955 55.7186 154.082 55.7186 154.241C55.7186 154.4 55.8451 154.527 56.0041 154.527ZM59.3454 156.467L60.3316 156.467C60.4906 156.467 60.6172 156.34 60.6172 156.181C60.6172 156.022 60.4906 155.895 60.3316 155.895L59.3454 155.895C59.1865 155.895 59.0599 156.022 59.0599 156.181C59.0599 156.34 59.1865 156.467 59.3454 156.467ZM56.0041 156.467L56.9874 156.467C57.1463 156.467 57.2729 156.34 57.2729 156.181C57.2729 156.022 57.1463 155.895 56.9874 155.895L56.0041 155.895C55.8451 155.895 55.7186 156.022 55.7186 156.181C55.7186 156.34 55.8451 156.467 56.0041 156.467Z" fill="#56E4EE"/>
<path d="M53.9484 141.823C54.022 141.823 54.0956 141.794 54.1516 141.738L55.441 140.422C55.5529 140.31 55.5499 140.128 55.4381 140.019C55.3262 139.907 55.1437 139.91 55.0347 140.022L53.7453 141.337C53.6334 141.449 53.6364 141.632 53.7483 141.741C53.8042 141.797 53.8748 141.823 53.9484 141.823ZM53.9484 144.337C54.022 144.337 54.0956 144.308 54.1516 144.252L55.441 142.936C55.5529 142.824 55.5499 142.642 55.4381 142.533C55.3262 142.424 55.1437 142.424 55.0347 142.536L53.7453 143.852C53.6334 143.963 53.6364 144.146 53.7483 144.255C53.8042 144.311 53.8748 144.337 53.9484 144.337ZM53.9484 146.854C54.022 146.854 54.0956 146.825 54.1516 146.769L55.441 145.456C55.5529 145.344 55.5499 145.162 55.4381 145.053C55.3262 144.941 55.1437 144.944 55.0347 145.056L53.7453 146.369C53.6334 146.48 53.6364 146.663 53.7483 146.772C53.8042 146.825 53.8748 146.854 53.9484 146.854ZM53.9484 149.371C54.022 149.371 54.0956 149.342 54.1516 149.286L55.441 147.97C55.5529 147.858 55.5499 147.676 55.4381 147.567C55.3262 147.455 55.1437 147.458 55.0347 147.57L53.7453 148.886C53.6334 148.997 53.6364 149.18 53.7483 149.289C53.8042 149.345 53.8748 149.371 53.9484 149.371ZM53.9484 151.885C54.022 151.885 54.0956 151.856 54.1516 151.8L55.441 150.487C55.5529 150.375 55.5499 150.193 55.4381 150.084C55.3262 149.972 55.1437 149.975 55.0347 150.087L53.7453 151.4C53.6334 151.512 53.6364 151.694 53.7483 151.803C53.8042 151.859 53.8748 151.885 53.9484 151.885ZM53.9484 154.399C54.022 154.399 54.0956 154.37 54.1516 154.314L55.441 153.001C55.5529 152.889 55.5499 152.707 55.438 152.598C55.3262 152.486 55.1437 152.489 55.0347 152.601L53.7453 153.914C53.6334 154.026 53.6364 154.208 53.7483 154.317C53.8042 154.373 53.8748 154.399 53.9484 154.399ZM54.1604 156.702C54.234 156.702 54.3076 156.672 54.3635 156.616L55.441 155.518C55.5499 155.406 55.5499 155.224 55.4351 155.115C55.3232 155.006 55.1407 155.006 55.0318 155.118L53.9543 156.216C53.8454 156.328 53.8454 156.51 53.9602 156.619C54.0162 156.675 54.0868 156.702 54.1604 156.702Z" fill="#3EBED0"/>
<path d="M62.2144 141.821C62.2851 141.821 62.3587 141.794 62.4146 141.738C62.5265 141.629 62.5294 141.447 62.4176 141.335L61.1311 140.022C61.0192 139.91 60.8396 139.907 60.7278 140.019C60.6159 140.128 60.613 140.31 60.7248 140.422L62.0113 141.735C62.0672 141.791 62.1408 141.821 62.2144 141.821ZM62.2144 144.335C62.2851 144.335 62.3587 144.308 62.4146 144.252C62.5265 144.143 62.5294 143.961 62.4176 143.849L61.1311 142.536C61.0192 142.424 60.8396 142.421 60.7278 142.533C60.6159 142.642 60.613 142.824 60.7248 142.936L62.0113 144.249C62.0672 144.308 62.1408 144.335 62.2144 144.335ZM62.2144 146.852C62.288 146.852 62.3587 146.825 62.4146 146.769C62.5265 146.657 62.5294 146.478 62.4176 146.366L61.1311 145.056C61.0192 144.944 60.8396 144.941 60.7278 145.053C60.6159 145.165 60.613 145.344 60.7248 145.456L62.0113 146.766C62.0672 146.822 62.1408 146.852 62.2144 146.852ZM62.2144 149.369C62.2851 149.369 62.3587 149.342 62.4146 149.286C62.5265 149.177 62.5294 148.995 62.4176 148.883L61.1311 147.57C61.0192 147.458 60.8396 147.455 60.7278 147.567C60.6159 147.676 60.613 147.859 60.7248 147.97L62.0113 149.283C62.0672 149.339 62.1408 149.369 62.2144 149.369ZM62.2144 151.883C62.288 151.883 62.3587 151.856 62.4146 151.8C62.5265 151.689 62.5294 151.509 62.4176 151.397L61.1311 150.087C61.0192 149.975 60.8396 149.972 60.7278 150.084C60.6159 150.196 60.613 150.376 60.7248 150.487L62.0113 151.797C62.0672 151.853 62.1408 151.883 62.2144 151.883ZM62.2144 154.397C62.288 154.397 62.3587 154.37 62.4146 154.314C62.5265 154.203 62.5294 154.023 62.4176 153.911L61.1311 152.601C61.0192 152.489 60.8396 152.486 60.7278 152.598C60.6159 152.71 60.613 152.89 60.7248 153.002L62.0113 154.312C62.0672 154.37 62.1408 154.397 62.2144 154.397ZM62.0054 156.702C62.0761 156.702 62.1497 156.675 62.2056 156.62C62.3175 156.511 62.3204 156.328 62.2085 156.216L61.1311 155.118C61.0192 155.006 60.8396 155.003 60.7278 155.115C60.6159 155.224 60.613 155.407 60.7248 155.519L61.8023 156.617C61.8582 156.673 61.9318 156.702 62.0054 156.702Z" fill="#3EBED0"/>
<path d="M55.9822 157.843L60.1802 157.843C61.1694 157.843 62.0496 157.216 62.3734 156.282C62.4087 156.182 62.4382 156.07 62.4588 155.961C62.4853 155.823 62.5 155.673 62.5 155.523L62.5 141.324C62.5 141.277 62.5 141.23 62.4971 141.183C62.4882 141.027 62.4617 140.871 62.4205 140.712C62.4205 140.706 62.4176 140.703 62.4176 140.697C62.3587 140.488 62.2704 140.288 62.1556 140.103C61.7258 139.414 60.9898 139.002 60.1802 139.002L55.9852 139.002C54.9489 139.002 54.0304 139.699 53.7508 140.694C53.7066 140.85 53.6772 141.015 53.6683 141.177C53.6654 141.224 53.6654 141.271 53.6654 141.321L53.6654 155.52C53.6654 155.67 53.6801 155.82 53.7095 155.961C53.7302 156.067 53.7567 156.176 53.7949 156.282C54.1129 157.216 54.9931 157.843 55.9822 157.843ZM61.8612 140.842C61.8612 140.845 61.8641 140.848 61.8641 140.853C61.8965 140.974 61.9171 141.098 61.9259 141.218C61.9289 141.254 61.9289 141.289 61.9289 141.327L61.9289 155.526C61.9289 155.641 61.9171 155.752 61.8965 155.858C61.8818 155.944 61.8612 156.02 61.8317 156.094C61.5874 156.8 60.9221 157.274 60.1773 157.274L55.9822 157.274C55.2374 157.274 54.5721 156.8 54.3307 156.097C54.3013 156.017 54.2807 155.941 54.2659 155.861C54.2453 155.749 54.2336 155.638 54.2336 155.526L54.2336 141.324C54.2336 141.289 54.2336 141.251 54.2365 141.216C54.2453 141.092 54.2659 140.971 54.2983 140.85C54.5103 140.097 55.2021 139.573 55.9822 139.573L60.1802 139.573C60.7896 139.573 61.346 139.882 61.6698 140.403C61.7523 140.538 61.817 140.686 61.8612 140.842Z" fill="#3EBED0"/>
<path d="M2.83944 157.841C2.99841 157.841 3.125 157.714 3.125 157.555L3.125 139.286C3.125 139.127 2.99841 139 2.83944 139C2.68047 139 2.55388 139.127 2.55388 139.286L2.55388 157.555C2.55388 157.711 2.68047 157.841 2.83944 157.841Z" fill="#56E4EE"/>
<path d="M4.41757 157.841C4.57654 157.841 4.70312 157.714 4.70312 157.555L4.70312 139.286C4.70312 139.127 4.57359 139 4.41757 139C4.2586 139 4.13201 139.127 4.13201 139.286L4.13201 157.555C4.13201 157.711 4.2586 157.841 4.41757 157.841Z" fill="#3EBED0"/>
<path d="M6.24569 157.841C6.40466 157.841 6.53125 157.714 6.53125 157.555L6.53125 139.286C6.53125 139.127 6.40466 139 6.24569 139C6.08672 139 5.96014 139.127 5.96014 139.286L5.96013 157.555C5.96013 157.711 6.08967 157.841 6.24569 157.841Z" fill="#56E4EE"/>
<path d="M5.68137 140.943L6.66757 140.943C6.82654 140.943 6.95312 140.817 6.95312 140.658C6.95312 140.499 6.82654 140.372 6.66757 140.372L5.68137 140.372C5.5224 140.372 5.39581 140.499 5.39581 140.658C5.39581 140.817 5.5224 140.943 5.68137 140.943ZM2.34005 140.943L3.32331 140.943C3.48228 140.943 3.60887 140.817 3.60887 140.658C3.60887 140.499 3.48228 140.372 3.32331 140.372L2.34005 140.372C2.18108 140.372 2.05449 140.499 2.05449 140.658C2.05449 140.817 2.18108 140.943 2.34005 140.943ZM5.68137 142.886L6.66757 142.886C6.82654 142.886 6.95312 142.76 6.95312 142.601C6.95312 142.442 6.82654 142.315 6.66757 142.315L5.68137 142.315C5.5224 142.315 5.39581 142.442 5.39581 142.601C5.39581 142.757 5.5224 142.886 5.68137 142.886ZM2.34005 142.886L3.32331 142.886C3.48228 142.886 3.60887 142.76 3.60887 142.601C3.60887 142.442 3.48228 142.315 3.32331 142.315L2.34005 142.315C2.18108 142.315 2.05449 142.442 2.05449 142.601C2.05449 142.757 2.18108 142.886 2.34005 142.886ZM5.68137 144.826L6.66757 144.826C6.82654 144.826 6.95312 144.7 6.95312 144.541C6.95312 144.382 6.82654 144.255 6.66757 144.255L5.68137 144.255C5.5224 144.255 5.39581 144.382 5.39581 144.541C5.39581 144.7 5.5224 144.826 5.68137 144.826ZM2.34005 144.826L3.32331 144.826C3.48228 144.826 3.60887 144.7 3.60887 144.541C3.60887 144.382 3.48228 144.255 3.32331 144.255L2.34005 144.255C2.18108 144.255 2.05449 144.382 2.05449 144.541C2.05449 144.7 2.18108 144.826 2.34005 144.826ZM5.68136 146.766L6.66757 146.766C6.82654 146.766 6.95312 146.64 6.95312 146.481C6.95312 146.322 6.82654 146.195 6.66757 146.195L5.68136 146.195C5.52239 146.195 5.39581 146.322 5.39581 146.481C5.39581 146.64 5.52239 146.766 5.68136 146.766ZM2.34005 146.766L3.32331 146.766C3.48228 146.766 3.60887 146.64 3.60887 146.481C3.60887 146.322 3.48228 146.195 3.32331 146.195L2.34005 146.195C2.18108 146.195 2.05449 146.322 2.05449 146.481C2.05449 146.64 2.18108 146.766 2.34005 146.766ZM5.68136 148.706L6.66757 148.706C6.82654 148.706 6.95312 148.58 6.95312 148.421C6.95312 148.262 6.82654 148.135 6.66757 148.135L5.68136 148.135C5.52239 148.135 5.39581 148.262 5.39581 148.421C5.39581 148.577 5.52239 148.706 5.68136 148.706ZM2.34005 148.706L3.32331 148.706C3.48228 148.706 3.60887 148.58 3.60887 148.421C3.60887 148.262 3.48228 148.135 3.32331 148.135L2.34005 148.135C2.18108 148.135 2.05449 148.262 2.05449 148.421C2.05449 148.577 2.18108 148.706 2.34005 148.706ZM5.68136 150.646L6.66757 150.646C6.82654 150.646 6.95312 150.52 6.95312 150.361C6.95312 150.202 6.82654 150.075 6.66757 150.075L5.68136 150.075C5.52239 150.075 5.39581 150.202 5.39581 150.361C5.39581 150.52 5.52239 150.646 5.68136 150.646ZM2.34005 150.646L3.32331 150.646C3.48228 150.646 3.60887 150.52 3.60887 150.361C3.60887 150.202 3.48228 150.075 3.32331 150.075L2.34005 150.075C2.18108 150.075 2.05449 150.202 2.05449 150.361C2.05449 150.52 2.18108 150.646 2.34005 150.646ZM5.68136 152.589L6.66757 152.589C6.82654 152.589 6.95312 152.463 6.95312 152.304C6.95312 152.145 6.82654 152.018 6.66757 152.018L5.68136 152.018C5.52239 152.018 5.39581 152.145 5.39581 152.304C5.39581 152.463 5.52239 152.589 5.68136 152.589ZM2.34005 152.589L3.32331 152.589C3.48228 152.589 3.60887 152.463 3.60887 152.304C3.60887 152.145 3.48228 152.018 3.32331 152.018L2.34005 152.018C2.18108 152.018 2.05449 152.145 2.05449 152.304C2.05449 152.463 2.18108 152.589 2.34005 152.589ZM5.68136 154.527L6.66757 154.527C6.82654 154.527 6.95312 154.4 6.95312 154.241C6.95312 154.082 6.82654 153.955 6.66757 153.955L5.68136 153.955C5.52239 153.955 5.39581 154.082 5.39581 154.241C5.39581 154.4 5.52239 154.527 5.68136 154.527ZM2.34005 154.527L3.32331 154.527C3.48228 154.527 3.60887 154.4 3.60887 154.241C3.60887 154.082 3.48228 153.955 3.32331 153.955L2.34005 153.955C2.18108 153.955 2.05449 154.082 2.05449 154.241C2.05449 154.4 2.18108 154.527 2.34005 154.527ZM5.68136 156.467L6.66757 156.467C6.82654 156.467 6.95312 156.34 6.95312 156.181C6.95312 156.022 6.82654 155.895 6.66757 155.895L5.68136 155.895C5.52239 155.895 5.39581 156.022 5.39581 156.181C5.39581 156.34 5.52239 156.467 5.68136 156.467ZM2.34005 156.467L3.32331 156.467C3.48228 156.467 3.60887 156.34 3.60887 156.181C3.60887 156.022 3.48228 155.895 3.32331 155.895L2.34005 155.895C2.18108 155.895 2.05449 156.022 2.05449 156.181C2.05449 156.34 2.18108 156.467 2.34005 156.467Z" fill="#56E4EE"/>
<path d="M0.28438 141.823C0.357977 141.823 0.431575 141.794 0.487509 141.738L1.77693 140.422C1.8888 140.31 1.88586 140.128 1.77399 140.019C1.66212 139.907 1.4796 139.91 1.37068 140.022L0.0812519 141.337C-0.0306159 141.449 -0.0276725 141.632 0.0841953 141.741C0.140129 141.797 0.210783 141.823 0.28438 141.823ZM0.28438 144.337C0.357977 144.337 0.431575 144.308 0.487509 144.252L1.77693 142.936C1.8888 142.824 1.88586 142.642 1.77399 142.533C1.66212 142.424 1.4796 142.424 1.37068 142.536L0.0812518 143.852C-0.030616 143.963 -0.0276726 144.146 0.0841952 144.255C0.140129 144.311 0.210782 144.337 0.28438 144.337ZM0.28438 146.854C0.357977 146.854 0.431575 146.825 0.487509 146.769L1.77693 145.456C1.8888 145.344 1.88586 145.162 1.77399 145.053C1.66212 144.941 1.4796 144.944 1.37068 145.056L0.0812517 146.369C-0.0306161 146.48 -0.0276727 146.663 0.0841951 146.772C0.140129 146.825 0.210782 146.854 0.28438 146.854ZM0.284379 149.371C0.357977 149.371 0.431575 149.342 0.487509 149.286L1.77693 147.97C1.8888 147.858 1.88586 147.676 1.77399 147.567C1.66212 147.455 1.4796 147.458 1.37068 147.57L0.0812516 148.886C-0.0306162 148.997 -0.0276728 149.18 0.084195 149.289C0.140129 149.345 0.210782 149.371 0.284379 149.371ZM0.284379 151.885C0.357977 151.885 0.431575 151.856 0.487508 151.8L1.77693 150.487C1.8888 150.375 1.88586 150.193 1.77399 150.084C1.66212 149.972 1.4796 149.975 1.37068 150.087L0.0812515 151.4C-0.0306163 151.512 -0.0276729 151.694 0.0841949 151.803C0.140129 151.859 0.210782 151.885 0.284379 151.885ZM0.284379 154.399C0.357976 154.399 0.431574 154.37 0.487508 154.314L1.77693 153.001C1.8888 152.889 1.88586 152.707 1.77399 152.598C1.66212 152.486 1.4796 152.489 1.37067 152.601L0.0812514 153.914C-0.0306164 154.026 -0.027673 154.208 0.0841947 154.317C0.140129 154.373 0.210782 154.399 0.284379 154.399ZM0.496339 156.702C0.569937 156.702 0.643534 156.672 0.699467 156.616L1.77693 155.518C1.88585 155.406 1.88585 155.224 1.77104 155.115C1.65918 155.006 1.47665 155.006 1.36773 155.118L0.290267 156.216C0.181343 156.328 0.181343 156.51 0.296155 156.619C0.352089 156.675 0.422742 156.702 0.496339 156.702Z" fill="#3EBED0"/>
<path d="M8.55037 141.821C8.62102 141.821 8.69462 141.794 8.75055 141.738C8.86242 141.629 8.86536 141.447 8.75349 141.335L7.46702 140.022C7.35515 139.91 7.17557 139.907 7.0637 140.019C6.95183 140.128 6.94889 140.31 7.06076 140.422L8.34724 141.735C8.40317 141.791 8.47677 141.821 8.55037 141.821ZM8.55037 144.335C8.62102 144.335 8.69462 144.308 8.75055 144.252C8.86242 144.143 8.86536 143.961 8.75349 143.849L7.46702 142.536C7.35515 142.424 7.17557 142.421 7.0637 142.533C6.95183 142.642 6.94889 142.824 7.06076 142.936L8.34724 144.249C8.40317 144.308 8.47677 144.335 8.55037 144.335ZM8.55037 146.852C8.62396 146.852 8.69462 146.825 8.75055 146.769C8.86242 146.657 8.86536 146.478 8.75349 146.366L7.46702 145.056C7.35515 144.944 7.17557 144.941 7.0637 145.053C6.95183 145.165 6.94889 145.344 7.06076 145.456L8.34724 146.766C8.40317 146.822 8.47677 146.852 8.55037 146.852ZM8.55037 149.369C8.62102 149.369 8.69462 149.342 8.75055 149.286C8.86242 149.177 8.86536 148.995 8.75349 148.883L7.46701 147.57C7.35515 147.458 7.17557 147.455 7.0637 147.567C6.95183 147.676 6.94889 147.859 7.06076 147.97L8.34724 149.283C8.40317 149.339 8.47677 149.369 8.55037 149.369ZM8.55037 151.883C8.62396 151.883 8.69462 151.856 8.75055 151.8C8.86242 151.689 8.86536 151.509 8.75349 151.397L7.46701 150.087C7.35515 149.975 7.17557 149.972 7.0637 150.084C6.95183 150.196 6.94889 150.376 7.06076 150.487L8.34724 151.797C8.40317 151.853 8.47677 151.883 8.55037 151.883ZM8.55037 154.397C8.62396 154.397 8.69462 154.37 8.75055 154.314C8.86242 154.203 8.86536 154.023 8.75349 153.911L7.46701 152.601C7.35515 152.489 7.17557 152.486 7.0637 152.598C6.95183 152.71 6.94889 152.89 7.06076 153.002L8.34724 154.312C8.40317 154.37 8.47677 154.397 8.55037 154.397ZM8.34135 156.702C8.412 156.702 8.4856 156.675 8.54153 156.62C8.6534 156.511 8.65635 156.328 8.54448 156.216L7.46701 155.118C7.35515 155.006 7.17557 155.003 7.0637 155.115C6.95183 155.224 6.94889 155.407 7.06076 155.519L8.13822 156.617C8.19415 156.673 8.26775 156.702 8.34135 156.702Z" fill="#3EBED0"/>
<path d="M2.31817 157.843L6.51615 157.843C7.5053 157.843 8.38552 157.216 8.70935 156.282C8.74468 156.182 8.77412 156.07 8.79472 155.961C8.82122 155.823 8.83594 155.673 8.83594 155.523L8.83594 141.324C8.83594 141.277 8.83594 141.23 8.83299 141.183C8.82416 141.027 8.79767 140.871 8.75645 140.712C8.75645 140.706 8.75351 140.703 8.75351 140.697C8.69463 140.488 8.60631 140.288 8.4915 140.103C8.06169 139.414 7.32572 139.002 6.51615 139.002L2.32111 139.002C1.28486 139.002 0.366371 139.699 0.0867016 140.694C0.0425432 140.85 0.0131036 141.015 0.00427192 141.177C0.00132803 141.224 0.00132853 141.271 0.00132852 141.321L0.0013279 155.52C0.0013279 155.67 0.0160478 155.82 0.0454867 155.961C0.0660939 156.067 0.092588 156.176 0.130859 156.282C0.448798 157.216 1.32902 157.843 2.31817 157.843ZM8.19711 140.842C8.19711 140.845 8.20006 140.848 8.20006 140.853C8.23244 140.974 8.25305 141.098 8.26188 141.218C8.26482 141.254 8.26482 141.289 8.26482 141.327L8.26482 155.526C8.26482 155.641 8.25305 155.752 8.23244 155.858C8.21772 155.944 8.19711 156.02 8.16767 156.094C7.92333 156.8 7.25801 157.274 6.51321 157.274L2.31817 157.274C1.57336 157.274 0.908045 156.8 0.666646 156.097C0.637207 156.017 0.616601 155.941 0.601881 155.861C0.581274 155.749 0.569498 155.638 0.569498 155.526L0.569499 141.324C0.569499 141.289 0.569499 141.251 0.572442 141.216C0.581274 141.092 0.601882 140.971 0.634265 140.85C0.846225 140.097 1.53804 139.573 2.31817 139.573L6.51615 139.573C7.12554 139.573 7.68193 139.882 8.00576 140.403C8.08819 140.538 8.15296 140.686 8.19711 140.842Z" fill="#3EBED0"/>
<path d="M13.8394 157.841C13.9984 157.841 14.125 157.714 14.125 157.555L14.125 139.286C14.125 139.127 13.9984 139 13.8394 139C13.6805 139 13.5539 139.127 13.5539 139.286L13.5539 157.555C13.5539 157.711 13.6805 157.841 13.8394 157.841Z" fill="#56E4EE"/>
<path d="M15.4176 157.841C15.5765 157.841 15.7031 157.714 15.7031 157.555L15.7031 139.286C15.7031 139.127 15.5736 139 15.4176 139C15.2586 139 15.132 139.127 15.132 139.286L15.132 157.555C15.132 157.711 15.2586 157.841 15.4176 157.841Z" fill="#3EBED0"/>
<path d="M17.2457 157.841C17.4047 157.841 17.5312 157.714 17.5312 157.555L17.5312 139.286C17.5312 139.127 17.4047 139 17.2457 139C17.0867 139 16.9601 139.127 16.9601 139.286L16.9601 157.555C16.9601 157.711 17.0897 157.841 17.2457 157.841Z" fill="#56E4EE"/>
<path d="M16.6814 140.943L17.6676 140.943C17.8265 140.943 17.9531 140.817 17.9531 140.658C17.9531 140.499 17.8265 140.372 17.6676 140.372L16.6814 140.372C16.5224 140.372 16.3958 140.499 16.3958 140.658C16.3958 140.817 16.5224 140.943 16.6814 140.943ZM13.3401 140.943L14.3233 140.943C14.4823 140.943 14.6089 140.817 14.6089 140.658C14.6089 140.499 14.4823 140.372 14.3233 140.372L13.3401 140.372C13.1811 140.372 13.0545 140.499 13.0545 140.658C13.0545 140.817 13.1811 140.943 13.3401 140.943ZM16.6814 142.886L17.6676 142.886C17.8265 142.886 17.9531 142.76 17.9531 142.601C17.9531 142.442 17.8265 142.315 17.6676 142.315L16.6814 142.315C16.5224 142.315 16.3958 142.442 16.3958 142.601C16.3958 142.757 16.5224 142.886 16.6814 142.886ZM13.3401 142.886L14.3233 142.886C14.4823 142.886 14.6089 142.76 14.6089 142.601C14.6089 142.442 14.4823 142.315 14.3233 142.315L13.3401 142.315C13.1811 142.315 13.0545 142.442 13.0545 142.601C13.0545 142.757 13.1811 142.886 13.3401 142.886ZM16.6814 144.826L17.6676 144.826C17.8265 144.826 17.9531 144.7 17.9531 144.541C17.9531 144.382 17.8265 144.255 17.6676 144.255L16.6814 144.255C16.5224 144.255 16.3958 144.382 16.3958 144.541C16.3958 144.7 16.5224 144.826 16.6814 144.826ZM13.3401 144.826L14.3233 144.826C14.4823 144.826 14.6089 144.7 14.6089 144.541C14.6089 144.382 14.4823 144.255 14.3233 144.255L13.3401 144.255C13.1811 144.255 13.0545 144.382 13.0545 144.541C13.0545 144.7 13.1811 144.826 13.3401 144.826ZM16.6814 146.766L17.6676 146.766C17.8265 146.766 17.9531 146.64 17.9531 146.481C17.9531 146.322 17.8265 146.195 17.6676 146.195L16.6814 146.195C16.5224 146.195 16.3958 146.322 16.3958 146.481C16.3958 146.64 16.5224 146.766 16.6814 146.766ZM13.3401 146.766L14.3233 146.766C14.4823 146.766 14.6089 146.64 14.6089 146.481C14.6089 146.322 14.4823 146.195 14.3233 146.195L13.3401 146.195C13.1811 146.195 13.0545 146.322 13.0545 146.481C13.0545 146.64 13.1811 146.766 13.3401 146.766ZM16.6814 148.706L17.6676 148.706C17.8265 148.706 17.9531 148.58 17.9531 148.421C17.9531 148.262 17.8265 148.135 17.6676 148.135L16.6814 148.135C16.5224 148.135 16.3958 148.262 16.3958 148.421C16.3958 148.577 16.5224 148.706 16.6814 148.706ZM13.3401 148.706L14.3233 148.706C14.4823 148.706 14.6089 148.58 14.6089 148.421C14.6089 148.262 14.4823 148.135 14.3233 148.135L13.3401 148.135C13.1811 148.135 13.0545 148.262 13.0545 148.421C13.0545 148.577 13.1811 148.706 13.3401 148.706ZM16.6814 150.646L17.6676 150.646C17.8265 150.646 17.9531 150.52 17.9531 150.361C17.9531 150.202 17.8265 150.075 17.6676 150.075L16.6814 150.075C16.5224 150.075 16.3958 150.202 16.3958 150.361C16.3958 150.52 16.5224 150.646 16.6814 150.646ZM13.3401 150.646L14.3233 150.646C14.4823 150.646 14.6089 150.52 14.6089 150.361C14.6089 150.202 14.4823 150.075 14.3233 150.075L13.3401 150.075C13.1811 150.075 13.0545 150.202 13.0545 150.361C13.0545 150.52 13.1811 150.646 13.3401 150.646ZM16.6814 152.589L17.6676 152.589C17.8265 152.589 17.9531 152.463 17.9531 152.304C17.9531 152.145 17.8265 152.018 17.6676 152.018L16.6814 152.018C16.5224 152.018 16.3958 152.145 16.3958 152.304C16.3958 152.463 16.5224 152.589 16.6814 152.589ZM13.3401 152.589L14.3233 152.589C14.4823 152.589 14.6089 152.463 14.6089 152.304C14.6089 152.145 14.4823 152.018 14.3233 152.018L13.3401 152.018C13.1811 152.018 13.0545 152.145 13.0545 152.304C13.0545 152.463 13.1811 152.589 13.3401 152.589ZM16.6814 154.527L17.6676 154.527C17.8265 154.527 17.9531 154.4 17.9531 154.241C17.9531 154.082 17.8265 153.955 17.6676 153.955L16.6814 153.955C16.5224 153.955 16.3958 154.082 16.3958 154.241C16.3958 154.4 16.5224 154.527 16.6814 154.527ZM13.3401 154.527L14.3233 154.527C14.4823 154.527 14.6089 154.4 14.6089 154.241C14.6089 154.082 14.4823 153.955 14.3233 153.955L13.3401 153.955C13.1811 153.955 13.0545 154.082 13.0545 154.241C13.0545 154.4 13.1811 154.527 13.3401 154.527ZM16.6814 156.467L17.6676 156.467C17.8265 156.467 17.9531 156.34 17.9531 156.181C17.9531 156.022 17.8265 155.895 17.6676 155.895L16.6814 155.895C16.5224 155.895 16.3958 156.022 16.3958 156.181C16.3958 156.34 16.5224 156.467 16.6814 156.467ZM13.3401 156.467L14.3233 156.467C14.4823 156.467 14.6089 156.34 14.6089 156.181C14.6089 156.022 14.4823 155.895 14.3233 155.895L13.3401 155.895C13.1811 155.895 13.0545 156.022 13.0545 156.181C13.0545 156.34 13.1811 156.467 13.3401 156.467Z" fill="#56E4EE"/>
<path d="M11.2844 141.823C11.358 141.823 11.4316 141.794 11.4875 141.738L12.7769 140.422C12.8888 140.31 12.8859 140.128 12.774 140.019C12.6621 139.907 12.4796 139.91 12.3707 140.022L11.0813 141.337C10.9694 141.449 10.9723 141.632 11.0842 141.741C11.1401 141.797 11.2108 141.823 11.2844 141.823ZM11.2844 144.337C11.358 144.337 11.4316 144.308 11.4875 144.252L12.7769 142.936C12.8888 142.824 12.8859 142.642 12.774 142.533C12.6621 142.424 12.4796 142.424 12.3707 142.536L11.0813 143.852C10.9694 143.963 10.9723 144.146 11.0842 144.255C11.1401 144.311 11.2108 144.337 11.2844 144.337ZM11.2844 146.854C11.358 146.854 11.4316 146.825 11.4875 146.769L12.7769 145.456C12.8888 145.344 12.8859 145.162 12.774 145.053C12.6621 144.941 12.4796 144.944 12.3707 145.056L11.0813 146.369C10.9694 146.48 10.9723 146.663 11.0842 146.772C11.1401 146.825 11.2108 146.854 11.2844 146.854ZM11.2844 149.371C11.358 149.371 11.4316 149.342 11.4875 149.286L12.7769 147.97C12.8888 147.858 12.8859 147.676 12.774 147.567C12.6621 147.455 12.4796 147.458 12.3707 147.57L11.0813 148.886C10.9694 148.997 10.9723 149.18 11.0842 149.289C11.1401 149.345 11.2108 149.371 11.2844 149.371ZM11.2844 151.885C11.358 151.885 11.4316 151.856 11.4875 151.8L12.7769 150.487C12.8888 150.375 12.8859 150.193 12.774 150.084C12.6621 149.972 12.4796 149.975 12.3707 150.087L11.0813 151.4C10.9694 151.512 10.9723 151.694 11.0842 151.803C11.1401 151.859 11.2108 151.885 11.2844 151.885ZM11.2844 154.399C11.358 154.399 11.4316 154.37 11.4875 154.314L12.7769 153.001C12.8888 152.889 12.8859 152.707 12.774 152.598C12.6621 152.486 12.4796 152.489 12.3707 152.601L11.0813 153.914C10.9694 154.026 10.9723 154.208 11.0842 154.317C11.1401 154.373 11.2108 154.399 11.2844 154.399ZM11.4963 156.702C11.5699 156.702 11.6435 156.672 11.6995 156.616L12.7769 155.518C12.8859 155.406 12.8859 155.224 12.771 155.115C12.6592 155.006 12.4767 155.006 12.3677 155.118L11.2903 156.216C11.1813 156.328 11.1813 156.51 11.2962 156.619C11.3521 156.675 11.4227 156.702 11.4963 156.702Z" fill="#3EBED0"/>
<path d="M19.5504 141.821C19.621 141.821 19.6946 141.794 19.7506 141.738C19.8624 141.629 19.8654 141.447 19.7535 141.335L18.467 140.022C18.3551 139.91 18.1756 139.907 18.0637 140.019C17.9518 140.128 17.9489 140.31 18.0608 140.422L19.3472 141.735C19.4032 141.791 19.4768 141.821 19.5504 141.821ZM19.5504 144.335C19.621 144.335 19.6946 144.308 19.7505 144.252C19.8624 144.143 19.8654 143.961 19.7535 143.849L18.467 142.536C18.3551 142.424 18.1756 142.421 18.0637 142.533C17.9518 142.642 17.9489 142.824 18.0608 142.936L19.3472 144.249C19.4032 144.308 19.4768 144.335 19.5504 144.335ZM19.5504 146.852C19.624 146.852 19.6946 146.825 19.7505 146.769C19.8624 146.657 19.8654 146.478 19.7535 146.366L18.467 145.056C18.3551 144.944 18.1756 144.941 18.0637 145.053C17.9518 145.165 17.9489 145.344 18.0608 145.456L19.3472 146.766C19.4032 146.822 19.4768 146.852 19.5504 146.852ZM19.5504 149.369C19.621 149.369 19.6946 149.342 19.7505 149.286C19.8624 149.177 19.8654 148.995 19.7535 148.883L18.467 147.57C18.3551 147.458 18.1756 147.455 18.0637 147.567C17.9518 147.676 17.9489 147.859 18.0608 147.97L19.3472 149.283C19.4032 149.339 19.4768 149.369 19.5504 149.369ZM19.5504 151.883C19.624 151.883 19.6946 151.856 19.7505 151.8C19.8624 151.689 19.8654 151.509 19.7535 151.397L18.467 150.087C18.3551 149.975 18.1756 149.972 18.0637 150.084C17.9518 150.196 17.9489 150.376 18.0608 150.487L19.3472 151.797C19.4032 151.853 19.4768 151.883 19.5504 151.883ZM19.5504 154.397C19.624 154.397 19.6946 154.37 19.7505 154.314C19.8624 154.203 19.8654 154.023 19.7535 153.911L18.467 152.601C18.3551 152.489 18.1756 152.486 18.0637 152.598C17.9518 152.71 17.9489 152.89 18.0608 153.002L19.3472 154.312C19.4032 154.37 19.4768 154.397 19.5504 154.397ZM19.3413 156.702C19.412 156.702 19.4856 156.675 19.5415 156.62C19.6534 156.511 19.6563 156.328 19.5445 156.216L18.467 155.118C18.3551 155.006 18.1756 155.003 18.0637 155.115C17.9518 155.224 17.9489 155.407 18.0608 155.519L19.1382 156.617C19.1942 156.673 19.2678 156.702 19.3413 156.702Z" fill="#3EBED0"/>
<path d="M13.3182 157.843L17.5162 157.843C18.5053 157.843 19.3855 157.216 19.7093 156.282C19.7447 156.182 19.7741 156.07 19.7947 155.961C19.8212 155.823 19.8359 155.673 19.8359 155.523L19.8359 141.324C19.8359 141.277 19.8359 141.23 19.833 141.183C19.8242 141.027 19.7977 140.871 19.7565 140.712C19.7565 140.706 19.7535 140.703 19.7535 140.697C19.6946 140.488 19.6063 140.288 19.4915 140.103C19.0617 139.414 18.3257 139.002 17.5162 139.002L13.3211 139.002C12.2849 139.002 11.3664 139.699 11.0867 140.694C11.0425 140.85 11.0131 141.015 11.0043 141.177C11.0013 141.224 11.0013 141.271 11.0013 141.321L11.0013 155.52C11.0013 155.67 11.016 155.82 11.0455 155.961C11.0661 156.067 11.0926 156.176 11.1309 156.282C11.4488 157.216 12.329 157.843 13.3182 157.843ZM19.1971 140.842C19.1971 140.845 19.2001 140.848 19.2001 140.853C19.2324 140.974 19.253 141.098 19.2619 141.218C19.2648 141.254 19.2648 141.289 19.2648 141.327L19.2648 155.526C19.2648 155.641 19.253 155.752 19.2324 155.858C19.2177 155.944 19.1971 156.02 19.1677 156.094C18.9233 156.8 18.258 157.274 17.5132 157.274L13.3182 157.274C12.5734 157.274 11.908 156.8 11.6666 156.097C11.6372 156.017 11.6166 155.941 11.6019 155.861C11.5813 155.749 11.5695 155.638 11.5695 155.526L11.5695 141.324C11.5695 141.289 11.5695 141.251 11.5724 141.216C11.5813 141.092 11.6019 140.971 11.6343 140.85C11.8462 140.097 12.538 139.573 13.3182 139.573L17.5162 139.573C18.1255 139.573 18.6819 139.882 19.0058 140.403C19.0882 140.538 19.153 140.686 19.1971 140.842Z" fill="#3EBED0"/>
<path d="M45.8394 157.841C45.9984 157.841 46.125 157.714 46.125 157.555L46.125 139.286C46.125 139.127 45.9984 139 45.8394 139C45.6805 139 45.5539 139.127 45.5539 139.286L45.5539 157.555C45.5539 157.711 45.6805 157.841 45.8394 157.841Z" fill="#56E4EE"/>
<path d="M47.4176 157.841C47.5765 157.841 47.7031 157.714 47.7031 157.555L47.7031 139.286C47.7031 139.127 47.5736 139 47.4176 139C47.2586 139 47.132 139.127 47.132 139.286L47.132 157.555C47.132 157.711 47.2586 157.841 47.4176 157.841Z" fill="#3EBED0"/>
<path d="M49.2457 157.841C49.4047 157.841 49.5312 157.714 49.5312 157.555L49.5312 139.286C49.5312 139.127 49.4047 139 49.2457 139C49.0867 139 48.9601 139.127 48.9601 139.286L48.9601 157.555C48.9601 157.711 49.0897 157.841 49.2457 157.841Z" fill="#56E4EE"/>
<path d="M48.6814 140.943L49.6676 140.943C49.8265 140.943 49.9531 140.817 49.9531 140.658C49.9531 140.499 49.8265 140.372 49.6676 140.372L48.6814 140.372C48.5224 140.372 48.3958 140.499 48.3958 140.658C48.3958 140.817 48.5224 140.943 48.6814 140.943ZM45.3401 140.943L46.3233 140.943C46.4823 140.943 46.6089 140.817 46.6089 140.658C46.6089 140.499 46.4823 140.372 46.3233 140.372L45.3401 140.372C45.1811 140.372 45.0545 140.499 45.0545 140.658C45.0545 140.817 45.1811 140.943 45.3401 140.943ZM48.6814 142.886L49.6676 142.886C49.8265 142.886 49.9531 142.76 49.9531 142.601C49.9531 142.442 49.8265 142.315 49.6676 142.315L48.6814 142.315C48.5224 142.315 48.3958 142.442 48.3958 142.601C48.3958 142.757 48.5224 142.886 48.6814 142.886ZM45.3401 142.886L46.3233 142.886C46.4823 142.886 46.6089 142.76 46.6089 142.601C46.6089 142.442 46.4823 142.315 46.3233 142.315L45.3401 142.315C45.1811 142.315 45.0545 142.442 45.0545 142.601C45.0545 142.757 45.1811 142.886 45.3401 142.886ZM48.6814 144.826L49.6676 144.826C49.8265 144.826 49.9531 144.7 49.9531 144.541C49.9531 144.382 49.8265 144.255 49.6676 144.255L48.6814 144.255C48.5224 144.255 48.3958 144.382 48.3958 144.541C48.3958 144.7 48.5224 144.826 48.6814 144.826ZM45.3401 144.826L46.3233 144.826C46.4823 144.826 46.6089 144.7 46.6089 144.541C46.6089 144.382 46.4823 144.255 46.3233 144.255L45.3401 144.255C45.1811 144.255 45.0545 144.382 45.0545 144.541C45.0545 144.7 45.1811 144.826 45.3401 144.826ZM48.6814 146.766L49.6676 146.766C49.8265 146.766 49.9531 146.64 49.9531 146.481C49.9531 146.322 49.8265 146.195 49.6676 146.195L48.6814 146.195C48.5224 146.195 48.3958 146.322 48.3958 146.481C48.3958 146.64 48.5224 146.766 48.6814 146.766ZM45.3401 146.766L46.3233 146.766C46.4823 146.766 46.6089 146.64 46.6089 146.481C46.6089 146.322 46.4823 146.195 46.3233 146.195L45.3401 146.195C45.1811 146.195 45.0545 146.322 45.0545 146.481C45.0545 146.64 45.1811 146.766 45.3401 146.766ZM48.6814 148.706L49.6676 148.706C49.8265 148.706 49.9531 148.58 49.9531 148.421C49.9531 148.262 49.8265 148.135 49.6676 148.135L48.6814 148.135C48.5224 148.135 48.3958 148.262 48.3958 148.421C48.3958 148.577 48.5224 148.706 48.6814 148.706ZM45.3401 148.706L46.3233 148.706C46.4823 148.706 46.6089 148.58 46.6089 148.421C46.6089 148.262 46.4823 148.135 46.3233 148.135L45.3401 148.135C45.1811 148.135 45.0545 148.262 45.0545 148.421C45.0545 148.577 45.1811 148.706 45.3401 148.706ZM48.6814 150.646L49.6676 150.646C49.8265 150.646 49.9531 150.52 49.9531 150.361C49.9531 150.202 49.8265 150.075 49.6676 150.075L48.6814 150.075C48.5224 150.075 48.3958 150.202 48.3958 150.361C48.3958 150.52 48.5224 150.646 48.6814 150.646ZM45.3401 150.646L46.3233 150.646C46.4823 150.646 46.6089 150.52 46.6089 150.361C46.6089 150.202 46.4823 150.075 46.3233 150.075L45.3401 150.075C45.1811 150.075 45.0545 150.202 45.0545 150.361C45.0545 150.52 45.1811 150.646 45.3401 150.646ZM48.6814 152.589L49.6676 152.589C49.8265 152.589 49.9531 152.463 49.9531 152.304C49.9531 152.145 49.8265 152.018 49.6676 152.018L48.6814 152.018C48.5224 152.018 48.3958 152.145 48.3958 152.304C48.3958 152.463 48.5224 152.589 48.6814 152.589ZM45.3401 152.589L46.3233 152.589C46.4823 152.589 46.6089 152.463 46.6089 152.304C46.6089 152.145 46.4823 152.018 46.3233 152.018L45.3401 152.018C45.1811 152.018 45.0545 152.145 45.0545 152.304C45.0545 152.463 45.1811 152.589 45.3401 152.589ZM48.6814 154.527L49.6676 154.527C49.8265 154.527 49.9531 154.4 49.9531 154.241C49.9531 154.082 49.8265 153.955 49.6676 153.955L48.6814 153.955C48.5224 153.955 48.3958 154.082 48.3958 154.241C48.3958 154.4 48.5224 154.527 48.6814 154.527ZM45.3401 154.527L46.3233 154.527C46.4823 154.527 46.6089 154.4 46.6089 154.241C46.6089 154.082 46.4823 153.955 46.3233 153.955L45.3401 153.955C45.1811 153.955 45.0545 154.082 45.0545 154.241C45.0545 154.4 45.1811 154.527 45.3401 154.527ZM48.6814 156.467L49.6676 156.467C49.8265 156.467 49.9531 156.34 49.9531 156.181C49.9531 156.022 49.8265 155.895 49.6676 155.895L48.6814 155.895C48.5224 155.895 48.3958 156.022 48.3958 156.181C48.3958 156.34 48.5224 156.467 48.6814 156.467ZM45.3401 156.467L46.3233 156.467C46.4823 156.467 46.6089 156.34 46.6089 156.181C46.6089 156.022 46.4823 155.895 46.3233 155.895L45.3401 155.895C45.1811 155.895 45.0545 156.022 45.0545 156.181C45.0545 156.34 45.1811 156.467 45.3401 156.467Z" fill="#56E4EE"/>
<path d="M43.2844 141.823C43.358 141.823 43.4316 141.794 43.4875 141.738L44.7769 140.422C44.8888 140.31 44.8859 140.128 44.774 140.019C44.6621 139.907 44.4796 139.91 44.3707 140.022L43.0813 141.337C42.9694 141.449 42.9723 141.632 43.0842 141.741C43.1401 141.797 43.2108 141.823 43.2844 141.823ZM43.2844 144.337C43.358 144.337 43.4316 144.308 43.4875 144.252L44.7769 142.936C44.8888 142.824 44.8859 142.642 44.774 142.533C44.6621 142.424 44.4796 142.424 44.3707 142.536L43.0813 143.852C42.9694 143.963 42.9723 144.146 43.0842 144.255C43.1401 144.311 43.2108 144.337 43.2844 144.337ZM43.2844 146.854C43.358 146.854 43.4316 146.825 43.4875 146.769L44.7769 145.456C44.8888 145.344 44.8859 145.162 44.774 145.053C44.6621 144.941 44.4796 144.944 44.3707 145.056L43.0813 146.369C42.9694 146.48 42.9723 146.663 43.0842 146.772C43.1401 146.825 43.2108 146.854 43.2844 146.854ZM43.2844 149.371C43.358 149.371 43.4316 149.342 43.4875 149.286L44.7769 147.97C44.8888 147.858 44.8859 147.676 44.774 147.567C44.6621 147.455 44.4796 147.458 44.3707 147.57L43.0813 148.886C42.9694 148.997 42.9723 149.18 43.0842 149.289C43.1401 149.345 43.2108 149.371 43.2844 149.371ZM43.2844 151.885C43.358 151.885 43.4316 151.856 43.4875 151.8L44.7769 150.487C44.8888 150.375 44.8859 150.193 44.774 150.084C44.6621 149.972 44.4796 149.975 44.3707 150.087L43.0813 151.4C42.9694 151.512 42.9723 151.694 43.0842 151.803C43.1401 151.859 43.2108 151.885 43.2844 151.885ZM43.2844 154.399C43.358 154.399 43.4316 154.37 43.4875 154.314L44.7769 153.001C44.8888 152.889 44.8859 152.707 44.774 152.598C44.6621 152.486 44.4796 152.489 44.3707 152.601L43.0813 153.914C42.9694 154.026 42.9723 154.208 43.0842 154.317C43.1401 154.373 43.2108 154.399 43.2844 154.399ZM43.4963 156.702C43.5699 156.702 43.6435 156.672 43.6995 156.616L44.7769 155.518C44.8859 155.406 44.8859 155.224 44.771 155.115C44.6592 155.006 44.4767 155.006 44.3677 155.118L43.2903 156.216C43.1813 156.328 43.1813 156.51 43.2962 156.619C43.3521 156.675 43.4227 156.702 43.4963 156.702Z" fill="#3EBED0"/>
<path d="M51.5504 141.821C51.621 141.821 51.6946 141.794 51.7506 141.738C51.8624 141.629 51.8654 141.447 51.7535 141.335L50.467 140.022C50.3551 139.91 50.1756 139.907 50.0637 140.019C49.9518 140.128 49.9489 140.31 50.0608 140.422L51.3472 141.735C51.4032 141.791 51.4768 141.821 51.5504 141.821ZM51.5504 144.335C51.621 144.335 51.6946 144.308 51.7505 144.252C51.8624 144.143 51.8654 143.961 51.7535 143.849L50.467 142.536C50.3551 142.424 50.1756 142.421 50.0637 142.533C49.9518 142.642 49.9489 142.824 50.0608 142.936L51.3472 144.249C51.4032 144.308 51.4768 144.335 51.5504 144.335ZM51.5504 146.852C51.624 146.852 51.6946 146.825 51.7505 146.769C51.8624 146.657 51.8654 146.478 51.7535 146.366L50.467 145.056C50.3551 144.944 50.1756 144.941 50.0637 145.053C49.9518 145.165 49.9489 145.344 50.0608 145.456L51.3472 146.766C51.4032 146.822 51.4768 146.852 51.5504 146.852ZM51.5504 149.369C51.621 149.369 51.6946 149.342 51.7505 149.286C51.8624 149.177 51.8654 148.995 51.7535 148.883L50.467 147.57C50.3551 147.458 50.1756 147.455 50.0637 147.567C49.9518 147.676 49.9489 147.859 50.0608 147.97L51.3472 149.283C51.4032 149.339 51.4768 149.369 51.5504 149.369ZM51.5504 151.883C51.624 151.883 51.6946 151.856 51.7505 151.8C51.8624 151.689 51.8654 151.509 51.7535 151.397L50.467 150.087C50.3551 149.975 50.1756 149.972 50.0637 150.084C49.9518 150.196 49.9489 150.376 50.0608 150.487L51.3472 151.797C51.4032 151.853 51.4768 151.883 51.5504 151.883ZM51.5504 154.397C51.624 154.397 51.6946 154.37 51.7505 154.314C51.8624 154.203 51.8654 154.023 51.7535 153.911L50.467 152.601C50.3551 152.489 50.1756 152.486 50.0637 152.598C49.9518 152.71 49.9489 152.89 50.0608 153.002L51.3472 154.312C51.4032 154.37 51.4768 154.397 51.5504 154.397ZM51.3413 156.702C51.412 156.702 51.4856 156.675 51.5415 156.62C51.6534 156.511 51.6563 156.328 51.5445 156.216L50.467 155.118C50.3551 155.006 50.1756 155.003 50.0637 155.115C49.9518 155.224 49.9489 155.407 50.0608 155.519L51.1382 156.617C51.1942 156.673 51.2678 156.702 51.3413 156.702Z" fill="#3EBED0"/>
<path d="M45.3182 157.843L49.5162 157.843C50.5053 157.843 51.3855 157.216 51.7093 156.282C51.7447 156.182 51.7741 156.07 51.7947 155.961C51.8212 155.823 51.8359 155.673 51.8359 155.523L51.8359 141.324C51.8359 141.277 51.8359 141.23 51.833 141.183C51.8242 141.027 51.7977 140.871 51.7565 140.712C51.7565 140.706 51.7535 140.703 51.7535 140.697C51.6946 140.488 51.6063 140.288 51.4915 140.103C51.0617 139.414 50.3257 139.002 49.5162 139.002L45.3211 139.002C44.2849 139.002 43.3664 139.699 43.0867 140.694C43.0425 140.85 43.0131 141.015 43.0043 141.177C43.0013 141.224 43.0013 141.271 43.0013 141.321L43.0013 155.52C43.0013 155.67 43.016 155.82 43.0455 155.961C43.0661 156.067 43.0926 156.176 43.1309 156.282C43.4488 157.216 44.329 157.843 45.3182 157.843ZM51.1971 140.842C51.1971 140.845 51.2001 140.848 51.2001 140.853C51.2324 140.974 51.253 141.098 51.2619 141.218C51.2648 141.254 51.2648 141.289 51.2648 141.327L51.2648 155.526C51.2648 155.641 51.253 155.752 51.2324 155.858C51.2177 155.944 51.1971 156.02 51.1677 156.094C50.9233 156.8 50.258 157.274 49.5132 157.274L45.3182 157.274C44.5734 157.274 43.908 156.8 43.6666 156.097C43.6372 156.017 43.6166 155.941 43.6019 155.861C43.5813 155.749 43.5695 155.638 43.5695 155.526L43.5695 141.324C43.5695 141.289 43.5695 141.251 43.5724 141.216C43.5813 141.092 43.6019 140.971 43.6343 140.85C43.8462 140.097 44.538 139.573 45.3182 139.573L49.5162 139.573C50.1255 139.573 50.6819 139.882 51.0058 140.403C51.0882 140.538 51.153 140.686 51.1971 140.842Z" fill="#3EBED0"/>
</svg>
