<svg width="63" height="128" viewBox="0 0 63 128" fill="none" xmlns="http://www.w3.org/2000/svg">
<line y1="-0.5" x2="30" y2="-0.5" transform="matrix(0 1 1 0 32 10)" stroke="white"/>
<line y1="-0.5" x2="75" y2="-0.5" transform="matrix(0 1 1 0 32 42)" stroke="white"/>
<path d="M8.83594 41.8359L53.8902 41.8359" stroke="white" strokeLinecap="square"/>
<path d="M8.83594 40.1953L53.8902 40.1953" stroke="white" strokeLinecap="square"/>
<path d="M56.5035 50.8409C56.6625 50.8409 56.7891 50.7143 56.7891 50.5553L56.7891 32.2856C56.7891 32.1266 56.6625 32 56.5035 32C56.3445 32 56.2179 32.1266 56.2179 32.2856L56.2179 50.5553C56.2179 50.7114 56.3445 50.8409 56.5035 50.8409Z" fill="#56E4EE"/>
<path d="M58.0816 50.8409C58.2406 50.8409 58.3672 50.7143 58.3672 50.5553L58.3672 32.2856C58.3672 32.1266 58.2377 32 58.0816 32C57.9227 32 57.7961 32.1266 57.7961 32.2856L57.7961 50.5553C57.7961 50.7114 57.9227 50.8409 58.0816 50.8409Z" fill="#3EBED0"/>
<path d="M59.9098 50.8409C60.0687 50.8409 60.1953 50.7143 60.1953 50.5553L60.1953 32.2856C60.1953 32.1266 60.0687 32 59.9098 32C59.7508 32 59.6242 32.1266 59.6242 32.2856L59.6242 50.5553C59.6242 50.7114 59.7537 50.8409 59.9098 50.8409Z" fill="#56E4EE"/>
<path d="M59.3454 33.9434L60.3316 33.9434C60.4906 33.9434 60.6172 33.8168 60.6172 33.6579C60.6172 33.4989 60.4906 33.3723 60.3316 33.3723L59.3454 33.3723C59.1865 33.3723 59.0599 33.4989 59.0599 33.6579C59.0599 33.8168 59.1865 33.9434 59.3454 33.9434ZM56.0041 33.9434L56.9874 33.9434C57.1463 33.9434 57.2729 33.8168 57.2729 33.6579C57.2729 33.4989 57.1463 33.3723 56.9874 33.3723L56.0041 33.3723C55.8451 33.3723 55.7186 33.4989 55.7186 33.6579C55.7186 33.8168 55.8451 33.9434 56.0041 33.9434ZM59.3454 35.8864L60.3316 35.8864C60.4906 35.8864 60.6172 35.7598 60.6172 35.6008C60.6172 35.4419 60.4906 35.3153 60.3316 35.3153L59.3454 35.3153C59.1865 35.3153 59.0599 35.4419 59.0599 35.6008C59.0599 35.7569 59.1865 35.8864 59.3454 35.8864ZM56.0041 35.8864L56.9874 35.8864C57.1463 35.8864 57.2729 35.7598 57.2729 35.6008C57.2729 35.4419 57.1463 35.3153 56.9874 35.3153L56.0041 35.3153C55.8451 35.3153 55.7186 35.4419 55.7186 35.6008C55.7186 35.7569 55.8451 35.8864 56.0041 35.8864ZM59.3454 37.8264L60.3316 37.8264C60.4906 37.8264 60.6172 37.6998 60.6172 37.5409C60.6172 37.3819 60.4906 37.2553 60.3316 37.2553L59.3454 37.2553C59.1865 37.2553 59.0599 37.3819 59.0599 37.5409C59.0599 37.6998 59.1865 37.8264 59.3454 37.8264ZM56.0041 37.8264L56.9874 37.8264C57.1463 37.8264 57.2729 37.6998 57.2729 37.5409C57.2729 37.3819 57.1463 37.2553 56.9874 37.2553L56.0041 37.2553C55.8451 37.2553 55.7186 37.3819 55.7186 37.5409C55.7186 37.6998 55.8451 37.8264 56.0041 37.8264ZM59.3454 39.7664L60.3316 39.7664C60.4906 39.7664 60.6172 39.6399 60.6172 39.4809C60.6172 39.3219 60.4906 39.1953 60.3316 39.1953L59.3454 39.1953C59.1865 39.1953 59.0599 39.3219 59.0599 39.4809C59.0599 39.6399 59.1865 39.7664 59.3454 39.7664ZM56.0041 39.7664L56.9874 39.7664C57.1463 39.7664 57.2729 39.6399 57.2729 39.4809C57.2729 39.3219 57.1463 39.1953 56.9874 39.1953L56.0041 39.1953C55.8451 39.1953 55.7186 39.3219 55.7186 39.4809C55.7186 39.6399 55.8451 39.7664 56.0041 39.7664ZM59.3454 41.7065L60.3316 41.7065C60.4906 41.7065 60.6172 41.5799 60.6172 41.4209C60.6172 41.2619 60.4906 41.1353 60.3316 41.1353L59.3454 41.1353C59.1865 41.1353 59.0599 41.2619 59.0599 41.4209C59.0599 41.5769 59.1865 41.7065 59.3454 41.7065ZM56.0041 41.7065L56.9874 41.7065C57.1463 41.7065 57.2729 41.5799 57.2729 41.4209C57.2729 41.2619 57.1463 41.1353 56.9874 41.1353L56.0041 41.1353C55.8451 41.1353 55.7186 41.2619 55.7186 41.4209C55.7186 41.5769 55.8451 41.7065 56.0041 41.7065ZM59.3454 43.6465L60.3316 43.6465C60.4906 43.6465 60.6172 43.5199 60.6172 43.3609C60.6172 43.202 60.4906 43.0754 60.3316 43.0754L59.3454 43.0754C59.1865 43.0754 59.0599 43.202 59.0599 43.3609C59.0599 43.5199 59.1865 43.6465 59.3454 43.6465ZM56.0041 43.6465L56.9874 43.6465C57.1463 43.6465 57.2729 43.5199 57.2729 43.3609C57.2729 43.202 57.1463 43.0754 56.9874 43.0754L56.0041 43.0754C55.8451 43.0754 55.7186 43.202 55.7186 43.3609C55.7186 43.5199 55.8451 43.6465 56.0041 43.6465ZM59.3454 45.5895L60.3316 45.5895C60.4906 45.5895 60.6172 45.4629 60.6172 45.3039C60.6172 45.1449 60.4906 45.0183 60.3316 45.0183L59.3454 45.0183C59.1865 45.0183 59.0599 45.1449 59.0599 45.3039C59.0599 45.4629 59.1865 45.5895 59.3454 45.5895ZM56.0041 45.5895L56.9874 45.5895C57.1463 45.5895 57.2729 45.4629 57.2729 45.3039C57.2729 45.1449 57.1463 45.0183 56.9874 45.0183L56.0041 45.0183C55.8451 45.0183 55.7186 45.1449 55.7186 45.3039C55.7186 45.4629 55.8451 45.5895 56.0041 45.5895ZM59.3454 47.5265L60.3316 47.5265C60.4906 47.5265 60.6172 47.3999 60.6172 47.241C60.6172 47.082 60.4906 46.9554 60.3316 46.9554L59.3454 46.9554C59.1865 46.9554 59.0599 47.082 59.0599 47.241C59.0599 47.3999 59.1865 47.5265 59.3454 47.5265ZM56.0041 47.5265L56.9874 47.5265C57.1463 47.5265 57.2729 47.3999 57.2729 47.241C57.2729 47.082 57.1463 46.9554 56.9874 46.9554L56.0041 46.9554C55.8451 46.9554 55.7186 47.082 55.7186 47.241C55.7186 47.3999 55.8451 47.5265 56.0041 47.5265ZM59.3454 49.4666L60.3316 49.4666C60.4906 49.4666 60.6172 49.34 60.6172 49.181C60.6172 49.022 60.4906 48.8954 60.3316 48.8954L59.3454 48.8954C59.1865 48.8954 59.0599 49.022 59.0599 49.181C59.0599 49.34 59.1865 49.4666 59.3454 49.4666ZM56.0041 49.4666L56.9874 49.4666C57.1463 49.4666 57.2729 49.34 57.2729 49.181C57.2729 49.022 57.1463 48.8954 56.9874 48.8954L56.0041 48.8954C55.8451 48.8954 55.7186 49.022 55.7186 49.181C55.7186 49.34 55.8451 49.4666 56.0041 49.4666Z" fill="#56E4EE"/>
<path d="M53.9484 34.8232C54.022 34.8232 54.0956 34.7938 54.1516 34.7378L55.441 33.4219C55.5529 33.31 55.5499 33.1275 55.4381 33.0186C55.3262 32.9067 55.1437 32.9097 55.0347 33.0215L53.7453 34.3375C53.6334 34.4493 53.6364 34.6319 53.7483 34.7408C53.8042 34.7967 53.8748 34.8232 53.9484 34.8232ZM53.9484 37.3373C54.022 37.3373 54.0956 37.3078 54.1516 37.2519L55.441 35.936C55.5529 35.8241 55.5499 35.6416 55.4381 35.5327C55.3262 35.4238 55.1437 35.4238 55.0347 35.5356L53.7453 36.8515C53.6334 36.9634 53.6364 37.1459 53.7483 37.2549C53.8042 37.3108 53.8748 37.3373 53.9484 37.3373ZM53.9484 39.8543C54.022 39.8543 54.0956 39.8249 54.1516 39.7689L55.441 38.456C55.5529 38.3441 55.5499 38.1616 55.4381 38.0526C55.3262 37.9408 55.1437 37.9437 55.0347 38.0556L53.7453 39.3686C53.6334 39.4804 53.6364 39.663 53.7483 39.7719C53.8042 39.8249 53.8748 39.8543 53.9484 39.8543ZM53.9484 42.3713C54.022 42.3713 54.0956 42.3419 54.1516 42.286L55.441 40.97C55.5529 40.8582 55.5499 40.6757 55.4381 40.5667C55.3262 40.4549 55.1437 40.4578 55.0347 40.5697L53.7453 41.8856C53.6334 41.9975 53.6364 42.18 53.7483 42.2889C53.8042 42.3448 53.8748 42.3713 53.9484 42.3713ZM53.9484 44.8854C54.022 44.8854 54.0956 44.856 54.1516 44.8L55.441 43.4871C55.5529 43.3752 55.5499 43.1927 55.4381 43.0838C55.3262 42.9719 55.1437 42.9748 55.0347 43.0867L53.7453 44.3997C53.6334 44.5115 53.6364 44.6941 53.7483 44.803C53.8042 44.8589 53.8748 44.8854 53.9484 44.8854ZM53.9484 47.3995C54.022 47.3995 54.0956 47.3701 54.1516 47.3141L55.441 46.0011C55.5529 45.8893 55.5499 45.7068 55.438 45.5978C55.3262 45.486 55.1437 45.4889 55.0347 45.6008L53.7453 46.9138C53.6334 47.0256 53.6364 47.2081 53.7483 47.3171C53.8042 47.373 53.8748 47.3995 53.9484 47.3995ZM54.1604 49.7016C54.234 49.7016 54.3076 49.6722 54.3635 49.6162L55.441 48.5182C55.5499 48.4063 55.5499 48.2238 55.4351 48.1149C55.3232 48.0059 55.1407 48.0059 55.0318 48.1178L53.9543 49.2159C53.8454 49.3277 53.8454 49.5103 53.9602 49.6192C54.0162 49.6751 54.0868 49.7016 54.1604 49.7016Z" fill="#3EBED0"/>
<path d="M62.2144 34.8206C62.2851 34.8206 62.3587 34.7941 62.4146 34.7382C62.5265 34.6293 62.5294 34.4468 62.4176 34.3349L61.1311 33.0219C61.0192 32.91 60.8396 32.9071 60.7278 33.019C60.6159 33.1279 60.613 33.3104 60.7248 33.4223L62.0113 34.7353C62.0672 34.7912 62.1408 34.8206 62.2144 34.8206ZM62.2144 37.3347C62.2851 37.3347 62.3587 37.3082 62.4146 37.2523C62.5265 37.1434 62.5294 36.9608 62.4176 36.849L61.1311 35.536C61.0192 35.4241 60.8396 35.4212 60.7278 35.533C60.6159 35.642 60.613 35.8245 60.7248 35.9364L62.0113 37.2493C62.0672 37.3082 62.1408 37.3347 62.2144 37.3347ZM62.2144 39.8517C62.288 39.8517 62.3587 39.8252 62.4146 39.7693C62.5265 39.6574 62.5294 39.4779 62.4176 39.366L61.1311 38.056C61.0192 37.9441 60.8396 37.9411 60.7278 38.053C60.6159 38.1649 60.613 38.3445 60.7248 38.4563L62.0113 39.7664C62.0672 39.8223 62.1408 39.8517 62.2144 39.8517ZM62.2144 42.3688C62.2851 42.3688 62.3587 42.3423 62.4146 42.2863C62.5265 42.1774 62.5294 41.9949 62.4176 41.883L61.1311 40.57C61.0192 40.4582 60.8396 40.4552 60.7278 40.5671C60.6159 40.676 60.613 40.8585 60.7248 40.9704L62.0113 42.2834C62.0672 42.3393 62.1408 42.3688 62.2144 42.3688ZM62.2144 44.8828C62.288 44.8828 62.3587 44.8563 62.4146 44.8004C62.5265 44.6885 62.5294 44.509 62.4176 44.3971L61.1311 43.0871C61.0192 42.9752 60.8396 42.9723 60.7278 43.0841C60.6159 43.196 60.613 43.3756 60.7248 43.4874L62.0113 44.7975C62.0672 44.8534 62.1408 44.8828 62.2144 44.8828ZM62.2144 47.3969C62.288 47.3969 62.3587 47.3704 62.4146 47.3145C62.5265 47.2026 62.5294 47.023 62.4176 46.9112L61.1311 45.6011C61.0192 45.4893 60.8396 45.4863 60.7278 45.5982C60.6159 45.7101 60.613 45.8896 60.7248 46.0015L62.0113 47.3115C62.0672 47.3704 62.1408 47.3969 62.2144 47.3969ZM62.0054 49.702C62.0761 49.702 62.1497 49.6755 62.2056 49.6196C62.3175 49.5106 62.3204 49.3281 62.2085 49.2162L61.1311 48.1182C61.0192 48.0063 60.8396 48.0034 60.7278 48.1152C60.6159 48.2242 60.613 48.4067 60.7248 48.5185L61.8023 49.6166C61.8582 49.6725 61.9318 49.702 62.0054 49.702Z" fill="#3EBED0"/>
<path d="M55.9822 50.8426L60.1802 50.8426C61.1694 50.8426 62.0496 50.2155 62.3734 49.2823C62.4087 49.1822 62.4382 49.0704 62.4588 48.9615C62.4853 48.8231 62.5 48.6729 62.5 48.5228L62.5 34.3244C62.5 34.2773 62.5 34.2302 62.4971 34.1831C62.4882 34.0271 62.4617 33.8711 62.4205 33.7121C62.4205 33.7062 62.4176 33.7033 62.4176 33.6974C62.3587 33.4884 62.2704 33.2882 62.1556 33.1027C61.7258 32.4139 60.9898 32.0017 60.1802 32.0017L55.9852 32.0017C54.9489 32.0017 54.0304 32.6994 53.7508 33.6944C53.7066 33.8505 53.6772 34.0153 53.6683 34.1772C53.6654 34.2243 53.6654 34.2714 53.6654 34.3215L53.6654 48.5199C53.6654 48.67 53.6801 48.8201 53.7095 48.9615C53.7302 49.0674 53.7567 49.1764 53.7949 49.2823C54.1129 50.2155 54.9931 50.8426 55.9822 50.8426ZM61.8612 33.8416C61.8612 33.8446 61.8641 33.8475 61.8641 33.8534C61.8965 33.9741 61.9171 34.0978 61.9259 34.2185C61.9289 34.2538 61.9289 34.2891 61.9289 34.3274L61.9289 48.5258C61.9289 48.6406 61.9171 48.7524 61.8965 48.8584C61.8818 48.9438 61.8612 49.0203 61.8317 49.0939C61.5874 49.8005 60.9221 50.2744 60.1773 50.2744L55.9822 50.2744C55.2374 50.2744 54.5721 49.8005 54.3307 49.0969C54.3013 49.0174 54.2807 48.9408 54.2659 48.8614C54.2453 48.7495 54.2336 48.6376 54.2336 48.5258L54.2336 34.3244C54.2336 34.2891 54.2336 34.2508 54.2365 34.2155C54.2453 34.0919 54.2659 33.9712 54.2983 33.8505C54.5103 33.0968 55.2021 32.5728 55.9822 32.5728L60.1802 32.5728C60.7896 32.5728 61.346 32.8819 61.6698 33.403C61.7523 33.5384 61.817 33.6856 61.8612 33.8416Z" fill="#3EBED0"/>
<path d="M2.83944 50.8409C2.99841 50.8409 3.125 50.7143 3.125 50.5553L3.125 32.2856C3.125 32.1266 2.99841 32 2.83944 32C2.68047 32 2.55388 32.1266 2.55388 32.2856L2.55388 50.5553C2.55388 50.7114 2.68047 50.8409 2.83944 50.8409Z" fill="#56E4EE"/>
<path d="M4.41757 50.8409C4.57654 50.8409 4.70312 50.7143 4.70312 50.5553L4.70312 32.2856C4.70312 32.1266 4.57359 32 4.41757 32C4.2586 32 4.13201 32.1266 4.13201 32.2856L4.13201 50.5553C4.13201 50.7114 4.2586 50.8409 4.41757 50.8409Z" fill="#3EBED0"/>
<path d="M6.24569 50.8409C6.40466 50.8409 6.53125 50.7143 6.53125 50.5553L6.53125 32.2856C6.53125 32.1266 6.40466 32 6.24569 32C6.08672 32 5.96014 32.1266 5.96014 32.2856L5.96013 50.5553C5.96013 50.7114 6.08967 50.8409 6.24569 50.8409Z" fill="#56E4EE"/>
<path d="M5.68137 33.9434L6.66757 33.9434C6.82654 33.9434 6.95312 33.8168 6.95312 33.6579C6.95312 33.4989 6.82654 33.3723 6.66757 33.3723L5.68137 33.3723C5.5224 33.3723 5.39581 33.4989 5.39581 33.6579C5.39581 33.8168 5.5224 33.9434 5.68137 33.9434ZM2.34005 33.9434L3.32331 33.9434C3.48228 33.9434 3.60887 33.8168 3.60887 33.6579C3.60887 33.4989 3.48228 33.3723 3.32331 33.3723L2.34005 33.3723C2.18108 33.3723 2.05449 33.4989 2.05449 33.6579C2.05449 33.8168 2.18108 33.9434 2.34005 33.9434ZM5.68137 35.8864L6.66757 35.8864C6.82654 35.8864 6.95312 35.7598 6.95312 35.6008C6.95312 35.4419 6.82654 35.3153 6.66757 35.3153L5.68137 35.3153C5.5224 35.3153 5.39581 35.4419 5.39581 35.6008C5.39581 35.7569 5.5224 35.8864 5.68137 35.8864ZM2.34005 35.8864L3.32331 35.8864C3.48228 35.8864 3.60887 35.7598 3.60887 35.6008C3.60887 35.4419 3.48228 35.3153 3.32331 35.3153L2.34005 35.3153C2.18108 35.3153 2.05449 35.4419 2.05449 35.6008C2.05449 35.7569 2.18108 35.8864 2.34005 35.8864ZM5.68137 37.8264L6.66757 37.8264C6.82654 37.8264 6.95312 37.6998 6.95312 37.5409C6.95312 37.3819 6.82654 37.2553 6.66757 37.2553L5.68137 37.2553C5.5224 37.2553 5.39581 37.3819 5.39581 37.5409C5.39581 37.6998 5.5224 37.8264 5.68137 37.8264ZM2.34005 37.8264L3.32331 37.8264C3.48228 37.8264 3.60887 37.6998 3.60887 37.5409C3.60887 37.3819 3.48228 37.2553 3.32331 37.2553L2.34005 37.2553C2.18108 37.2553 2.05449 37.3819 2.05449 37.5409C2.05449 37.6998 2.18108 37.8264 2.34005 37.8264ZM5.68136 39.7664L6.66757 39.7664C6.82654 39.7664 6.95312 39.6399 6.95312 39.4809C6.95312 39.3219 6.82654 39.1953 6.66757 39.1953L5.68136 39.1953C5.52239 39.1953 5.39581 39.3219 5.39581 39.4809C5.39581 39.6399 5.52239 39.7664 5.68136 39.7664ZM2.34005 39.7664L3.32331 39.7664C3.48228 39.7664 3.60887 39.6399 3.60887 39.4809C3.60887 39.3219 3.48228 39.1953 3.32331 39.1953L2.34005 39.1953C2.18108 39.1953 2.05449 39.3219 2.05449 39.4809C2.05449 39.6399 2.18108 39.7664 2.34005 39.7664ZM5.68136 41.7065L6.66757 41.7065C6.82654 41.7065 6.95312 41.5799 6.95312 41.4209C6.95312 41.2619 6.82654 41.1353 6.66757 41.1353L5.68136 41.1353C5.52239 41.1353 5.39581 41.2619 5.39581 41.4209C5.39581 41.5769 5.52239 41.7065 5.68136 41.7065ZM2.34005 41.7065L3.32331 41.7065C3.48228 41.7065 3.60887 41.5799 3.60887 41.4209C3.60887 41.2619 3.48228 41.1353 3.32331 41.1353L2.34005 41.1353C2.18108 41.1353 2.05449 41.2619 2.05449 41.4209C2.05449 41.5769 2.18108 41.7065 2.34005 41.7065ZM5.68136 43.6465L6.66757 43.6465C6.82654 43.6465 6.95312 43.5199 6.95312 43.3609C6.95312 43.202 6.82654 43.0754 6.66757 43.0754L5.68136 43.0754C5.52239 43.0754 5.39581 43.202 5.39581 43.3609C5.39581 43.5199 5.52239 43.6465 5.68136 43.6465ZM2.34005 43.6465L3.32331 43.6465C3.48228 43.6465 3.60887 43.5199 3.60887 43.3609C3.60887 43.202 3.48228 43.0754 3.32331 43.0754L2.34005 43.0754C2.18108 43.0754 2.05449 43.202 2.05449 43.3609C2.05449 43.5199 2.18108 43.6465 2.34005 43.6465ZM5.68136 45.5895L6.66757 45.5895C6.82654 45.5895 6.95312 45.4629 6.95312 45.3039C6.95312 45.1449 6.82654 45.0183 6.66757 45.0183L5.68136 45.0183C5.52239 45.0183 5.39581 45.1449 5.39581 45.3039C5.39581 45.4629 5.52239 45.5895 5.68136 45.5895ZM2.34005 45.5895L3.32331 45.5895C3.48228 45.5895 3.60887 45.4629 3.60887 45.3039C3.60887 45.1449 3.48228 45.0183 3.32331 45.0183L2.34005 45.0183C2.18108 45.0183 2.05449 45.1449 2.05449 45.3039C2.05449 45.4629 2.18108 45.5895 2.34005 45.5895ZM5.68136 47.5265L6.66757 47.5265C6.82654 47.5265 6.95312 47.3999 6.95312 47.241C6.95312 47.082 6.82654 46.9554 6.66757 46.9554L5.68136 46.9554C5.52239 46.9554 5.39581 47.082 5.39581 47.241C5.39581 47.3999 5.52239 47.5265 5.68136 47.5265ZM2.34005 47.5265L3.32331 47.5265C3.48228 47.5265 3.60887 47.3999 3.60887 47.241C3.60887 47.082 3.48228 46.9554 3.32331 46.9554L2.34005 46.9554C2.18108 46.9554 2.05449 47.082 2.05449 47.241C2.05449 47.3999 2.18108 47.5265 2.34005 47.5265ZM5.68136 49.4666L6.66757 49.4666C6.82654 49.4666 6.95312 49.34 6.95312 49.181C6.95312 49.022 6.82654 48.8954 6.66757 48.8954L5.68136 48.8954C5.52239 48.8954 5.39581 49.022 5.39581 49.181C5.39581 49.34 5.52239 49.4666 5.68136 49.4666ZM2.34005 49.4666L3.32331 49.4666C3.48228 49.4666 3.60887 49.34 3.60887 49.181C3.60887 49.022 3.48228 48.8954 3.32331 48.8954L2.34005 48.8954C2.18108 48.8954 2.05449 49.022 2.05449 49.181C2.05449 49.34 2.18108 49.4666 2.34005 49.4666Z" fill="#56E4EE"/>
<path d="M0.28438 34.8232C0.357977 34.8232 0.431575 34.7938 0.487509 34.7378L1.77693 33.4219C1.8888 33.31 1.88586 33.1275 1.77399 33.0186C1.66212 32.9067 1.4796 32.9097 1.37068 33.0215L0.0812519 34.3375C-0.0306159 34.4493 -0.0276725 34.6319 0.0841953 34.7408C0.140129 34.7967 0.210783 34.8232 0.28438 34.8232ZM0.28438 37.3373C0.357977 37.3373 0.431575 37.3078 0.487509 37.2519L1.77693 35.936C1.8888 35.8241 1.88586 35.6416 1.77399 35.5327C1.66212 35.4238 1.4796 35.4238 1.37068 35.5356L0.0812518 36.8515C-0.030616 36.9634 -0.0276726 37.1459 0.0841952 37.2549C0.140129 37.3108 0.210782 37.3373 0.28438 37.3373ZM0.28438 39.8543C0.357977 39.8543 0.431575 39.8249 0.487509 39.7689L1.77693 38.456C1.8888 38.3441 1.88586 38.1616 1.77399 38.0526C1.66212 37.9408 1.4796 37.9437 1.37068 38.0556L0.0812517 39.3686C-0.0306161 39.4804 -0.0276727 39.663 0.0841951 39.7719C0.140129 39.8249 0.210782 39.8543 0.28438 39.8543ZM0.284379 42.3713C0.357977 42.3713 0.431575 42.3419 0.487509 42.286L1.77693 40.97C1.8888 40.8582 1.88586 40.6757 1.77399 40.5667C1.66212 40.4549 1.4796 40.4578 1.37068 40.5697L0.0812516 41.8856C-0.0306162 41.9975 -0.0276728 42.18 0.084195 42.2889C0.140129 42.3448 0.210782 42.3713 0.284379 42.3713ZM0.284379 44.8854C0.357977 44.8854 0.431575 44.856 0.487508 44.8L1.77693 43.4871C1.8888 43.3752 1.88586 43.1927 1.77399 43.0838C1.66212 42.9719 1.4796 42.9748 1.37068 43.0867L0.0812515 44.3997C-0.0306163 44.5115 -0.0276729 44.6941 0.0841949 44.803C0.140129 44.8589 0.210782 44.8854 0.284379 44.8854ZM0.284379 47.3995C0.357976 47.3995 0.431574 47.3701 0.487508 47.3141L1.77693 46.0011C1.8888 45.8893 1.88586 45.7068 1.77399 45.5978C1.66212 45.486 1.4796 45.4889 1.37067 45.6008L0.0812514 46.9138C-0.0306164 47.0256 -0.027673 47.2081 0.0841947 47.3171C0.140129 47.373 0.210782 47.3995 0.284379 47.3995ZM0.496339 49.7016C0.569937 49.7016 0.643534 49.6722 0.699467 49.6162L1.77693 48.5182C1.88585 48.4063 1.88585 48.2238 1.77104 48.1149C1.65918 48.0059 1.47665 48.0059 1.36773 48.1178L0.290267 49.2159C0.181343 49.3277 0.181343 49.5103 0.296155 49.6192C0.352089 49.6751 0.422742 49.7016 0.496339 49.7016Z" fill="#3EBED0"/>
<path d="M8.55037 34.8206C8.62102 34.8206 8.69462 34.7941 8.75055 34.7382C8.86242 34.6293 8.86536 34.4468 8.75349 34.3349L7.46702 33.0219C7.35515 32.91 7.17557 32.9071 7.0637 33.019C6.95183 33.1279 6.94889 33.3104 7.06076 33.4223L8.34724 34.7353C8.40317 34.7912 8.47677 34.8206 8.55037 34.8206ZM8.55037 37.3347C8.62102 37.3347 8.69462 37.3082 8.75055 37.2523C8.86242 37.1434 8.86536 36.9608 8.75349 36.849L7.46702 35.536C7.35515 35.4241 7.17557 35.4212 7.0637 35.533C6.95183 35.642 6.94889 35.8245 7.06076 35.9364L8.34724 37.2493C8.40317 37.3082 8.47677 37.3347 8.55037 37.3347ZM8.55037 39.8517C8.62396 39.8517 8.69462 39.8252 8.75055 39.7693C8.86242 39.6574 8.86536 39.4779 8.75349 39.366L7.46702 38.056C7.35515 37.9441 7.17557 37.9411 7.0637 38.053C6.95183 38.1649 6.94889 38.3445 7.06076 38.4563L8.34724 39.7664C8.40317 39.8223 8.47677 39.8517 8.55037 39.8517ZM8.55037 42.3688C8.62102 42.3688 8.69462 42.3423 8.75055 42.2863C8.86242 42.1774 8.86536 41.9949 8.75349 41.883L7.46701 40.57C7.35515 40.4582 7.17557 40.4552 7.0637 40.5671C6.95183 40.676 6.94889 40.8585 7.06076 40.9704L8.34724 42.2834C8.40317 42.3393 8.47677 42.3688 8.55037 42.3688ZM8.55037 44.8828C8.62396 44.8828 8.69462 44.8563 8.75055 44.8004C8.86242 44.6885 8.86536 44.509 8.75349 44.3971L7.46701 43.0871C7.35515 42.9752 7.17557 42.9723 7.0637 43.0841C6.95183 43.196 6.94889 43.3756 7.06076 43.4874L8.34724 44.7975C8.40317 44.8534 8.47677 44.8828 8.55037 44.8828ZM8.55037 47.3969C8.62396 47.3969 8.69462 47.3704 8.75055 47.3145C8.86242 47.2026 8.86536 47.023 8.75349 46.9112L7.46701 45.6011C7.35515 45.4893 7.17557 45.4863 7.0637 45.5982C6.95183 45.7101 6.94889 45.8896 7.06076 46.0015L8.34724 47.3115C8.40317 47.3704 8.47677 47.3969 8.55037 47.3969ZM8.34135 49.702C8.412 49.702 8.4856 49.6755 8.54153 49.6196C8.6534 49.5106 8.65635 49.3281 8.54448 49.2162L7.46701 48.1182C7.35515 48.0063 7.17557 48.0034 7.0637 48.1152C6.95183 48.2242 6.94889 48.4067 7.06076 48.5185L8.13822 49.6166C8.19415 49.6725 8.26775 49.702 8.34135 49.702Z" fill="#3EBED0"/>
<path d="M2.31817 50.8426L6.51615 50.8426C7.5053 50.8426 8.38552 50.2155 8.70935 49.2823C8.74468 49.1822 8.77412 49.0704 8.79472 48.9615C8.82122 48.8231 8.83594 48.6729 8.83594 48.5228L8.83594 34.3244C8.83594 34.2773 8.83594 34.2302 8.83299 34.1831C8.82416 34.0271 8.79767 33.8711 8.75645 33.7121C8.75645 33.7062 8.75351 33.7033 8.75351 33.6974C8.69463 33.4884 8.60631 33.2882 8.4915 33.1027C8.06169 32.4139 7.32572 32.0017 6.51615 32.0017L2.32111 32.0017C1.28486 32.0017 0.366371 32.6994 0.0867016 33.6944C0.0425432 33.8505 0.0131036 34.0153 0.00427192 34.1772C0.00132803 34.2243 0.00132853 34.2714 0.00132852 34.3215L0.0013279 48.5199C0.0013279 48.67 0.0160478 48.8201 0.0454867 48.9615C0.0660939 49.0674 0.092588 49.1764 0.130859 49.2823C0.448798 50.2155 1.32902 50.8426 2.31817 50.8426ZM8.19711 33.8416C8.19711 33.8446 8.20006 33.8475 8.20006 33.8534C8.23244 33.9741 8.25305 34.0978 8.26188 34.2185C8.26482 34.2538 8.26482 34.2891 8.26482 34.3274L8.26482 48.5258C8.26482 48.6406 8.25305 48.7524 8.23244 48.8584C8.21772 48.9438 8.19711 49.0203 8.16767 49.0939C7.92333 49.8005 7.25801 50.2744 6.51321 50.2744L2.31817 50.2744C1.57336 50.2744 0.908045 49.8005 0.666646 49.0969C0.637207 49.0174 0.616601 48.9408 0.601881 48.8614C0.581274 48.7495 0.569498 48.6376 0.569498 48.5258L0.569499 34.3244C0.569499 34.2891 0.569499 34.2508 0.572442 34.2155C0.581274 34.0919 0.601882 33.9712 0.634265 33.8505C0.846225 33.0968 1.53804 32.5728 2.31817 32.5728L6.51615 32.5728C7.12554 32.5728 7.68193 32.8819 8.00576 33.403C8.08819 33.5384 8.15296 33.6856 8.19711 33.8416Z" fill="#3EBED0"/>
<path d="M8.83594 9.83191L53.8902 9.83191" stroke="white" strokeLinecap="square"/>
<path d="M8.83594 8.18994L53.8902 8.18994" stroke="white" strokeLinecap="square"/>
<path d="M56.5035 18.8409C56.6625 18.8409 56.7891 18.7143 56.7891 18.5553L56.7891 0.285557C56.7891 0.126587 56.6625 -5.53332e-09 56.5035 -1.24821e-08C56.3445 -1.94309e-08 56.2179 0.126587 56.2179 0.285557L56.2179 18.5553C56.2179 18.7114 56.3445 18.8409 56.5035 18.8409Z" fill="#56E4EE"/>
<path d="M58.0816 18.8409C58.2406 18.8409 58.3672 18.7143 58.3672 18.5553L58.3672 0.285557C58.3672 0.126587 58.2377 -5.66198e-09 58.0816 -1.24821e-08C57.9227 -1.94309e-08 57.7961 0.126587 57.7961 0.285557L57.7961 18.5553C57.7961 18.7114 57.9227 18.8409 58.0816 18.8409Z" fill="#3EBED0"/>
<path d="M59.9098 18.8409C60.0687 18.8409 60.1953 18.7143 60.1953 18.5553L60.1953 0.285557C60.1953 0.126587 60.0687 -5.53332e-09 59.9098 -1.24821e-08C59.7508 -1.94309e-08 59.6242 0.126587 59.6242 0.285557L59.6242 18.5553C59.6242 18.7114 59.7537 18.8409 59.9098 18.8409Z" fill="#56E4EE"/>
<path d="M59.3454 1.93855L60.3316 1.93855C60.4906 1.93855 60.6172 1.81196 60.6172 1.65299C60.6172 1.49402 60.4906 1.36743 60.3316 1.36743L59.3454 1.36743C59.1865 1.36743 59.0599 1.49402 59.0599 1.65299C59.0599 1.81196 59.1865 1.93855 59.3454 1.93855ZM56.0041 1.93855L56.9874 1.93855C57.1463 1.93855 57.2729 1.81196 57.2729 1.65299C57.2729 1.49402 57.1463 1.36743 56.9874 1.36743L56.0041 1.36743C55.8451 1.36743 55.7186 1.49402 55.7186 1.65299C55.7186 1.81196 55.8451 1.93855 56.0041 1.93855ZM59.3454 3.88151L60.3316 3.88151C60.4906 3.88151 60.6172 3.75493 60.6172 3.59596C60.6172 3.43699 60.4906 3.3104 60.3316 3.3104L59.3454 3.3104C59.1865 3.3104 59.0599 3.43699 59.0599 3.59596C59.0599 3.75198 59.1865 3.88151 59.3454 3.88151ZM56.0041 3.88151L56.9874 3.88151C57.1463 3.88151 57.2729 3.75493 57.2729 3.59596C57.2729 3.43699 57.1463 3.3104 56.9874 3.3104L56.0041 3.3104C55.8451 3.3104 55.7186 3.43699 55.7186 3.59596C55.7186 3.75198 55.8451 3.88151 56.0041 3.88151ZM59.3454 5.82154L60.3316 5.82154C60.4906 5.82154 60.6172 5.69495 60.6172 5.53598C60.6172 5.37701 60.4906 5.25042 60.3316 5.25042L59.3454 5.25042C59.1865 5.25042 59.0599 5.37701 59.0599 5.53598C59.0599 5.69495 59.1865 5.82154 59.3454 5.82154ZM56.0041 5.82154L56.9874 5.82154C57.1463 5.82154 57.2729 5.69495 57.2729 5.53598C57.2729 5.37701 57.1463 5.25042 56.9874 5.25042L56.0041 5.25042C55.8451 5.25042 55.7186 5.37701 55.7186 5.53598C55.7186 5.69495 55.8451 5.82154 56.0041 5.82154ZM59.3454 7.76156L60.3316 7.76156C60.4906 7.76156 60.6172 7.63497 60.6172 7.476C60.6172 7.31703 60.4906 7.19044 60.3316 7.19044L59.3454 7.19044C59.1865 7.19044 59.0599 7.31703 59.0599 7.476C59.0599 7.63497 59.1865 7.76156 59.3454 7.76156ZM56.0041 7.76156L56.9874 7.76156C57.1463 7.76156 57.2729 7.63497 57.2729 7.476C57.2729 7.31703 57.1463 7.19044 56.9874 7.19044L56.0041 7.19044C55.8451 7.19044 55.7186 7.31703 55.7186 7.476C55.7186 7.63497 55.8451 7.76156 56.0041 7.76156ZM59.3454 9.70158L60.3316 9.70158C60.4906 9.70158 60.6172 9.57499 60.6172 9.41602C60.6172 9.25705 60.4906 9.13047 60.3316 9.13047L59.3454 9.13047C59.1865 9.13047 59.0599 9.25705 59.0599 9.41602C59.0599 9.57205 59.1865 9.70158 59.3454 9.70158ZM56.0041 9.70158L56.9874 9.70158C57.1463 9.70158 57.2729 9.57499 57.2729 9.41602C57.2729 9.25705 57.1463 9.13047 56.9874 9.13047L56.0041 9.13047C55.8451 9.13047 55.7186 9.25705 55.7186 9.41602C55.7186 9.57205 55.8451 9.70158 56.0041 9.70158ZM59.3454 11.6416L60.3316 11.6416C60.4906 11.6416 60.6172 11.515 60.6172 11.356C60.6172 11.1971 60.4906 11.0705 60.3316 11.0705L59.3454 11.0705C59.1865 11.0705 59.0599 11.1971 59.0599 11.356C59.0599 11.515 59.1865 11.6416 59.3454 11.6416ZM56.0041 11.6416L56.9874 11.6416C57.1463 11.6416 57.2729 11.515 57.2729 11.356C57.2729 11.1971 57.1463 11.0705 56.9874 11.0705L56.0041 11.0705C55.8451 11.0705 55.7186 11.1971 55.7186 11.356C55.7186 11.515 55.8451 11.6416 56.0041 11.6416ZM59.3454 13.5846L60.3316 13.5846C60.4906 13.5846 60.6172 13.458 60.6172 13.299C60.6172 13.14 60.4906 13.0135 60.3316 13.0135L59.3454 13.0135C59.1865 13.0135 59.0599 13.14 59.0599 13.299C59.0599 13.458 59.1865 13.5846 59.3454 13.5846ZM56.0041 13.5846L56.9874 13.5846C57.1463 13.5846 57.2729 13.458 57.2729 13.299C57.2729 13.14 57.1463 13.0135 56.9874 13.0135L56.0041 13.0135C55.8451 13.0135 55.7186 13.14 55.7186 13.299C55.7186 13.458 55.8451 13.5846 56.0041 13.5846ZM59.3454 15.5216L60.3316 15.5216C60.4906 15.5216 60.6172 15.3951 60.6172 15.2361C60.6172 15.0771 60.4906 14.9505 60.3316 14.9505L59.3454 14.9505C59.1865 14.9505 59.0599 15.0771 59.0599 15.2361C59.0599 15.3951 59.1865 15.5216 59.3454 15.5216ZM56.0041 15.5216L56.9874 15.5216C57.1463 15.5216 57.2729 15.3951 57.2729 15.2361C57.2729 15.0771 57.1463 14.9505 56.9874 14.9505L56.0041 14.9505C55.8451 14.9505 55.7186 15.0771 55.7186 15.2361C55.7186 15.3951 55.8451 15.5216 56.0041 15.5216ZM59.3454 17.4617L60.3316 17.4617C60.4906 17.4617 60.6172 17.3351 60.6172 17.1761C60.6172 17.0171 60.4906 16.8906 60.3316 16.8906L59.3454 16.8906C59.1865 16.8906 59.0599 17.0171 59.0599 17.1761C59.0599 17.3351 59.1865 17.4617 59.3454 17.4617ZM56.0041 17.4617L56.9874 17.4617C57.1463 17.4617 57.2729 17.3351 57.2729 17.1761C57.2729 17.0171 57.1463 16.8906 56.9874 16.8906L56.0041 16.8906C55.8451 16.8906 55.7186 17.0171 55.7186 17.1761C55.7186 17.3351 55.8451 17.4617 56.0041 17.4617Z" fill="#56E4EE"/>
<path d="M53.9484 2.8232C54.022 2.8232 54.0956 2.79377 54.1516 2.73783L55.441 1.42191C55.5529 1.31005 55.5499 1.12752 55.4381 1.0186C55.3262 0.906733 55.1437 0.909677 55.0347 1.02154L53.7453 2.33746C53.6334 2.44933 53.6364 2.63185 53.7483 2.74078C53.8042 2.79671 53.8748 2.8232 53.9484 2.8232ZM53.9484 5.33728C54.022 5.33728 54.0956 5.30785 54.1516 5.25191L55.441 3.93599C55.5529 3.82413 55.5499 3.64161 55.4381 3.53268C55.3262 3.42376 55.1437 3.42376 55.0347 3.53563L53.7453 4.85154C53.6334 4.96341 53.6364 5.14593 53.7483 5.25486C53.8042 5.31079 53.8748 5.33728 53.9484 5.33728ZM53.9484 7.85431C54.022 7.85431 54.0956 7.82487 54.1516 7.76894L55.441 6.45596C55.5529 6.34409 55.5499 6.16157 55.4381 6.05265C55.3262 5.94078 55.1437 5.94373 55.0347 6.05559L53.7453 7.36857C53.6334 7.48044 53.6364 7.66296 53.7483 7.77188C53.8042 7.82487 53.8748 7.85431 53.9484 7.85431ZM53.9484 10.3713C54.022 10.3713 54.0956 10.3419 54.1516 10.286L55.441 8.97004C55.5529 8.85817 55.5499 8.67565 55.4381 8.56673C55.3262 8.45486 55.1437 8.45781 55.0347 8.56967L53.7453 9.88559C53.6334 9.99746 53.6364 10.18 53.7483 10.2889C53.8042 10.3448 53.8748 10.3713 53.9484 10.3713ZM53.9484 12.8854C54.022 12.8854 54.0956 12.856 54.1516 12.8L55.441 11.4871C55.5529 11.3752 55.5499 11.1927 55.4381 11.0838C55.3262 10.9719 55.1437 10.9748 55.0347 11.0867L53.7453 12.3997C53.6334 12.5115 53.6364 12.6941 53.7483 12.803C53.8042 12.8589 53.8748 12.8854 53.9484 12.8854ZM53.9484 15.3995C54.022 15.3995 54.0956 15.3701 54.1516 15.3141L55.441 14.0011C55.5529 13.8893 55.5499 13.7068 55.438 13.5978C55.3262 13.486 55.1437 13.4889 55.0347 13.6008L53.7453 14.9138C53.6334 15.0256 53.6364 15.2081 53.7483 15.3171C53.8042 15.373 53.8748 15.3995 53.9484 15.3995ZM54.1604 17.7016C54.234 17.7016 54.3076 17.6722 54.3635 17.6162L55.441 16.5182C55.5499 16.4063 55.5499 16.2238 55.4351 16.1149C55.3232 16.0059 55.1407 16.0059 55.0318 16.1178L53.9543 17.2159C53.8454 17.3277 53.8454 17.5103 53.9602 17.6192C54.0162 17.6751 54.0868 17.7016 54.1604 17.7016Z" fill="#3EBED0"/>
<path d="M62.2144 2.81684C62.2851 2.81684 62.3587 2.79035 62.4146 2.73441C62.5265 2.62549 62.5294 2.44297 62.4176 2.3311L61.1311 1.01813C61.0192 0.906259 60.8396 0.903315 60.7278 1.01518C60.6159 1.12411 60.613 1.30663 60.7248 1.4185L62.0113 2.73147C62.0672 2.7874 62.1408 2.81684 62.2144 2.81684ZM62.2144 5.33092C62.2851 5.33092 62.3587 5.30443 62.4146 5.24849C62.5265 5.13957 62.5294 4.95705 62.4176 4.84518L61.1311 3.53221C61.0192 3.42034 60.8396 3.4174 60.7278 3.52926C60.6159 3.63819 60.613 3.82071 60.7248 3.93258L62.0113 5.24555C62.0672 5.30443 62.1408 5.33092 62.2144 5.33092ZM62.2144 7.84795C62.288 7.84795 62.3587 7.82145 62.4146 7.76552C62.5265 7.65365 62.5294 7.47407 62.4176 7.36221L61.1311 6.05218C61.0192 5.94031 60.8396 5.93736 60.7278 6.04923C60.6159 6.1611 60.613 6.34068 60.7248 6.45254L62.0113 7.76257C62.0672 7.81851 62.1408 7.84795 62.2144 7.84795ZM62.2144 10.365C62.2851 10.365 62.3587 10.3385 62.4146 10.2825C62.5265 10.1736 62.5294 9.9911 62.4176 9.87923L61.1311 8.56626C61.0192 8.45439 60.8396 8.45144 60.7278 8.56331C60.6159 8.67224 60.613 8.85476 60.7248 8.96662L62.0113 10.2796C62.0672 10.3355 62.1408 10.365 62.2144 10.365ZM62.2144 12.8791C62.288 12.8791 62.3587 12.8526 62.4146 12.7966C62.5265 12.6848 62.5294 12.5052 62.4176 12.3933L61.1311 11.0833C61.0192 10.9714 60.8396 10.9685 60.7278 11.0803C60.6159 11.1922 60.613 11.3718 60.7248 11.4836L62.0113 12.7937C62.0672 12.8496 62.1408 12.8791 62.2144 12.8791ZM62.2144 15.3931C62.288 15.3931 62.3587 15.3666 62.4146 15.3107C62.5265 15.1988 62.5294 15.0193 62.4176 14.9074L61.1311 13.5974C61.0192 13.4855 60.8396 13.4825 60.7278 13.5944C60.6159 13.7063 60.613 13.8859 60.7248 13.9977L62.0113 15.3078C62.0672 15.3666 62.1408 15.3931 62.2144 15.3931ZM62.0054 17.6982C62.0761 17.6982 62.1497 17.6717 62.2056 17.6158C62.3175 17.5068 62.3204 17.3243 62.2085 17.2125L61.1311 16.1144C61.0192 16.0025 60.8396 15.9996 60.7278 16.1114C60.6159 16.2204 60.613 16.4029 60.7248 16.5148L61.8023 17.6128C61.8582 17.6688 61.9318 17.6982 62.0054 17.6982Z" fill="#3EBED0"/>
<path d="M55.9822 18.8409L60.1802 18.8409C61.1694 18.8409 62.0496 18.2138 62.3734 17.2806C62.4087 17.1805 62.4382 17.0687 62.4588 16.9597C62.4853 16.8214 62.5 16.6712 62.5 16.5211L62.5 2.32273C62.5 2.27563 62.5 2.22852 62.4971 2.18142C62.4882 2.0254 62.4617 1.86937 62.4205 1.7104C62.4205 1.70451 62.4176 1.70157 62.4176 1.69568C62.3587 1.48666 62.2704 1.28648 62.1556 1.10101C61.7258 0.412144 60.9898 -6.60136e-08 60.1802 -1.01401e-07L55.9852 -2.84772e-07C54.9489 -3.30068e-07 54.0304 0.697701 53.7508 1.69274C53.7066 1.84876 53.6772 2.01362 53.6683 2.17553C53.6654 2.22264 53.6654 2.26974 53.6654 2.31978L53.6654 16.5182C53.6654 16.6683 53.6801 16.8184 53.7095 16.9597C53.7302 17.0657 53.7567 17.1746 53.7949 17.2806C54.1129 18.2138 54.9931 18.8409 55.9822 18.8409ZM61.8612 1.83993C61.8612 1.84287 61.8641 1.84582 61.8641 1.85171C61.8965 1.97241 61.9171 2.09605 61.9259 2.21675C61.9289 2.25207 61.9289 2.2874 61.9289 2.32567L61.9289 16.524C61.9289 16.6389 61.9171 16.7507 61.8965 16.8567C61.8818 16.9421 61.8612 17.0186 61.8317 17.0922C61.5874 17.7988 60.9221 18.2727 60.1773 18.2727L55.9822 18.2727C55.2374 18.2727 54.5721 17.7988 54.3307 17.0952C54.3013 17.0157 54.2807 16.9391 54.2659 16.8596C54.2453 16.7478 54.2336 16.6359 54.2336 16.524L54.2336 2.32273C54.2336 2.2874 54.2336 2.24913 54.2365 2.2138C54.2453 2.09016 54.2659 1.96946 54.2983 1.84876C54.5103 1.09513 55.2021 0.571114 55.9822 0.571114L60.1802 0.571114C60.7896 0.571114 61.346 0.880223 61.6698 1.40129C61.7523 1.53671 61.817 1.6839 61.8612 1.83993Z" fill="#3EBED0"/>
<path d="M2.83944 18.8409C2.99841 18.8409 3.125 18.7143 3.125 18.5553L3.125 0.285557C3.125 0.126587 2.99841 -5.53332e-09 2.83944 -1.24821e-08C2.68047 -1.94309e-08 2.55388 0.126587 2.55388 0.285557L2.55388 18.5553C2.55388 18.7114 2.68047 18.8409 2.83944 18.8409Z" fill="#56E4EE"/>
<path d="M4.41757 18.8409C4.57654 18.8409 4.70312 18.7143 4.70312 18.5553L4.70312 0.285557C4.70312 0.126587 4.57359 -5.66198e-09 4.41757 -1.24821e-08C4.2586 -1.94309e-08 4.13201 0.126587 4.13201 0.285557L4.13201 18.5553C4.13201 18.7114 4.2586 18.8409 4.41757 18.8409Z" fill="#3EBED0"/>
<path d="M6.24569 18.8409C6.40466 18.8409 6.53125 18.7143 6.53125 18.5553L6.53125 0.285557C6.53125 0.126587 6.40466 -5.53332e-09 6.24569 -1.24821e-08C6.08672 -1.94309e-08 5.96014 0.126587 5.96014 0.285557L5.96013 18.5553C5.96013 18.7114 6.08967 18.8409 6.24569 18.8409Z" fill="#56E4EE"/>
<path d="M5.68137 1.93855L6.66757 1.93855C6.82654 1.93855 6.95312 1.81196 6.95312 1.65299C6.95312 1.49402 6.82654 1.36743 6.66757 1.36743L5.68137 1.36743C5.5224 1.36743 5.39581 1.49402 5.39581 1.65299C5.39581 1.81196 5.5224 1.93855 5.68137 1.93855ZM2.34005 1.93855L3.32331 1.93855C3.48228 1.93855 3.60887 1.81196 3.60887 1.65299C3.60887 1.49402 3.48228 1.36743 3.32331 1.36743L2.34005 1.36743C2.18108 1.36743 2.05449 1.49402 2.05449 1.65299C2.05449 1.81196 2.18108 1.93855 2.34005 1.93855ZM5.68137 3.88151L6.66757 3.88151C6.82654 3.88151 6.95312 3.75493 6.95312 3.59596C6.95312 3.43699 6.82654 3.3104 6.66757 3.3104L5.68137 3.3104C5.5224 3.3104 5.39581 3.43699 5.39581 3.59596C5.39581 3.75198 5.5224 3.88151 5.68137 3.88151ZM2.34005 3.88151L3.32331 3.88151C3.48228 3.88151 3.60887 3.75493 3.60887 3.59596C3.60887 3.43699 3.48228 3.3104 3.32331 3.3104L2.34005 3.3104C2.18108 3.3104 2.05449 3.43699 2.05449 3.59596C2.05449 3.75198 2.18108 3.88151 2.34005 3.88151ZM5.68137 5.82154L6.66757 5.82154C6.82654 5.82154 6.95312 5.69495 6.95312 5.53598C6.95312 5.37701 6.82654 5.25042 6.66757 5.25042L5.68137 5.25042C5.5224 5.25042 5.39581 5.37701 5.39581 5.53598C5.39581 5.69495 5.5224 5.82154 5.68137 5.82154ZM2.34005 5.82154L3.32331 5.82154C3.48228 5.82154 3.60887 5.69495 3.60887 5.53598C3.60887 5.37701 3.48228 5.25042 3.32331 5.25042L2.34005 5.25042C2.18108 5.25042 2.05449 5.37701 2.05449 5.53598C2.05449 5.69495 2.18108 5.82154 2.34005 5.82154ZM5.68136 7.76156L6.66757 7.76156C6.82654 7.76156 6.95312 7.63497 6.95312 7.476C6.95312 7.31703 6.82654 7.19044 6.66757 7.19044L5.68136 7.19044C5.52239 7.19044 5.39581 7.31703 5.39581 7.476C5.39581 7.63497 5.52239 7.76156 5.68136 7.76156ZM2.34005 7.76156L3.32331 7.76156C3.48228 7.76156 3.60887 7.63497 3.60887 7.476C3.60887 7.31703 3.48228 7.19044 3.32331 7.19044L2.34005 7.19044C2.18108 7.19044 2.05449 7.31703 2.05449 7.476C2.05449 7.63497 2.18108 7.76156 2.34005 7.76156ZM5.68136 9.70158L6.66757 9.70158C6.82654 9.70158 6.95312 9.57499 6.95312 9.41602C6.95312 9.25705 6.82654 9.13047 6.66757 9.13047L5.68136 9.13047C5.52239 9.13047 5.39581 9.25705 5.39581 9.41602C5.39581 9.57205 5.52239 9.70158 5.68136 9.70158ZM2.34005 9.70158L3.32331 9.70158C3.48228 9.70158 3.60887 9.57499 3.60887 9.41602C3.60887 9.25705 3.48228 9.13047 3.32331 9.13047L2.34005 9.13047C2.18108 9.13047 2.05449 9.25705 2.05449 9.41602C2.05449 9.57205 2.18108 9.70158 2.34005 9.70158ZM5.68136 11.6416L6.66757 11.6416C6.82654 11.6416 6.95312 11.515 6.95312 11.356C6.95312 11.1971 6.82654 11.0705 6.66757 11.0705L5.68136 11.0705C5.52239 11.0705 5.39581 11.1971 5.39581 11.356C5.39581 11.515 5.52239 11.6416 5.68136 11.6416ZM2.34005 11.6416L3.32331 11.6416C3.48228 11.6416 3.60887 11.515 3.60887 11.356C3.60887 11.1971 3.48228 11.0705 3.32331 11.0705L2.34005 11.0705C2.18108 11.0705 2.05449 11.1971 2.05449 11.356C2.05449 11.515 2.18108 11.6416 2.34005 11.6416ZM5.68136 13.5846L6.66757 13.5846C6.82654 13.5846 6.95312 13.458 6.95312 13.299C6.95312 13.14 6.82654 13.0135 6.66757 13.0135L5.68136 13.0135C5.52239 13.0135 5.39581 13.14 5.39581 13.299C5.39581 13.458 5.52239 13.5846 5.68136 13.5846ZM2.34005 13.5846L3.32331 13.5846C3.48228 13.5846 3.60887 13.458 3.60887 13.299C3.60887 13.14 3.48228 13.0135 3.32331 13.0135L2.34005 13.0135C2.18108 13.0135 2.05449 13.14 2.05449 13.299C2.05449 13.458 2.18108 13.5846 2.34005 13.5846ZM5.68136 15.5216L6.66757 15.5216C6.82654 15.5216 6.95312 15.3951 6.95312 15.2361C6.95312 15.0771 6.82654 14.9505 6.66757 14.9505L5.68136 14.9505C5.52239 14.9505 5.39581 15.0771 5.39581 15.2361C5.39581 15.3951 5.52239 15.5216 5.68136 15.5216ZM2.34005 15.5216L3.32331 15.5216C3.48228 15.5216 3.60887 15.3951 3.60887 15.2361C3.60887 15.0771 3.48228 14.9505 3.32331 14.9505L2.34005 14.9505C2.18108 14.9505 2.05449 15.0771 2.05449 15.2361C2.05449 15.3951 2.18108 15.5216 2.34005 15.5216ZM5.68136 17.4617L6.66757 17.4617C6.82654 17.4617 6.95312 17.3351 6.95312 17.1761C6.95312 17.0171 6.82654 16.8906 6.66757 16.8906L5.68136 16.8906C5.52239 16.8906 5.39581 17.0171 5.39581 17.1761C5.39581 17.3351 5.52239 17.4617 5.68136 17.4617ZM2.34005 17.4617L3.32331 17.4617C3.48228 17.4617 3.60887 17.3351 3.60887 17.1761C3.60887 17.0171 3.48228 16.8906 3.32331 16.8906L2.34005 16.8906C2.18108 16.8906 2.05449 17.0171 2.05449 17.1761C2.05449 17.3351 2.18108 17.4617 2.34005 17.4617Z" fill="#56E4EE"/>
<path d="M0.28438 2.8232C0.357977 2.8232 0.431575 2.79377 0.487509 2.73783L1.77693 1.42191C1.8888 1.31005 1.88586 1.12752 1.77399 1.0186C1.66212 0.906733 1.4796 0.909677 1.37068 1.02154L0.0812519 2.33746C-0.0306159 2.44933 -0.0276725 2.63185 0.0841953 2.74078C0.140129 2.79671 0.210783 2.8232 0.28438 2.8232ZM0.28438 5.33728C0.357977 5.33728 0.431575 5.30785 0.487509 5.25191L1.77693 3.93599C1.8888 3.82413 1.88586 3.64161 1.77399 3.53268C1.66212 3.42376 1.4796 3.42376 1.37068 3.53563L0.0812518 4.85154C-0.030616 4.96341 -0.0276726 5.14593 0.0841952 5.25486C0.140129 5.31079 0.210782 5.33728 0.28438 5.33728ZM0.28438 7.85431C0.357977 7.85431 0.431575 7.82487 0.487509 7.76894L1.77693 6.45596C1.8888 6.34409 1.88586 6.16157 1.77399 6.05265C1.66212 5.94078 1.4796 5.94373 1.37068 6.05559L0.0812517 7.36857C-0.0306161 7.48044 -0.0276727 7.66296 0.0841951 7.77188C0.140129 7.82487 0.210782 7.85431 0.28438 7.85431ZM0.284379 10.3713C0.357977 10.3713 0.431575 10.3419 0.487509 10.286L1.77693 8.97004C1.8888 8.85817 1.88586 8.67565 1.77399 8.56673C1.66212 8.45486 1.4796 8.45781 1.37068 8.56967L0.0812516 9.88559C-0.0306162 9.99746 -0.0276728 10.18 0.084195 10.2889C0.140129 10.3448 0.210782 10.3713 0.284379 10.3713ZM0.284379 12.8854C0.357977 12.8854 0.431575 12.856 0.487508 12.8L1.77693 11.4871C1.8888 11.3752 1.88586 11.1927 1.77399 11.0838C1.66212 10.9719 1.4796 10.9748 1.37068 11.0867L0.0812515 12.3997C-0.0306163 12.5115 -0.0276729 12.6941 0.0841949 12.803C0.140129 12.8589 0.210782 12.8854 0.284379 12.8854ZM0.284379 15.3995C0.357976 15.3995 0.431574 15.3701 0.487508 15.3141L1.77693 14.0011C1.8888 13.8893 1.88586 13.7068 1.77399 13.5978C1.66212 13.486 1.4796 13.4889 1.37067 13.6008L0.0812514 14.9138C-0.0306164 15.0256 -0.027673 15.2081 0.0841947 15.3171C0.140129 15.373 0.210782 15.3995 0.284379 15.3995ZM0.496339 17.7016C0.569937 17.7016 0.643534 17.6722 0.699467 17.6162L1.77693 16.5182C1.88585 16.4063 1.88585 16.2238 1.77104 16.1149C1.65918 16.0059 1.47665 16.0059 1.36773 16.1178L0.290267 17.2159C0.181343 17.3277 0.181343 17.5103 0.296155 17.6192C0.352089 17.6751 0.422742 17.7016 0.496339 17.7016Z" fill="#3EBED0"/>
<path d="M8.55037 2.81684C8.62102 2.81684 8.69462 2.79035 8.75055 2.73441C8.86242 2.62549 8.86536 2.44297 8.75349 2.3311L7.46702 1.01813C7.35515 0.906259 7.17557 0.903315 7.0637 1.01518C6.95183 1.12411 6.94889 1.30663 7.06076 1.4185L8.34724 2.73147C8.40317 2.7874 8.47677 2.81684 8.55037 2.81684ZM8.55037 5.33092C8.62102 5.33092 8.69462 5.30443 8.75055 5.24849C8.86242 5.13957 8.86536 4.95705 8.75349 4.84518L7.46702 3.53221C7.35515 3.42034 7.17557 3.4174 7.0637 3.52926C6.95183 3.63819 6.94889 3.82071 7.06076 3.93258L8.34724 5.24555C8.40317 5.30443 8.47677 5.33092 8.55037 5.33092ZM8.55037 7.84795C8.62396 7.84795 8.69462 7.82145 8.75055 7.76552C8.86242 7.65365 8.86536 7.47407 8.75349 7.36221L7.46702 6.05218C7.35515 5.94031 7.17557 5.93736 7.0637 6.04923C6.95183 6.1611 6.94889 6.34068 7.06076 6.45254L8.34724 7.76257C8.40317 7.81851 8.47677 7.84795 8.55037 7.84795ZM8.55037 10.365C8.62102 10.365 8.69462 10.3385 8.75055 10.2825C8.86242 10.1736 8.86536 9.9911 8.75349 9.87923L7.46701 8.56626C7.35515 8.45439 7.17557 8.45144 7.0637 8.56331C6.95183 8.67224 6.94889 8.85476 7.06076 8.96662L8.34724 10.2796C8.40317 10.3355 8.47677 10.365 8.55037 10.365ZM8.55037 12.8791C8.62396 12.8791 8.69462 12.8526 8.75055 12.7966C8.86242 12.6848 8.86536 12.5052 8.75349 12.3933L7.46701 11.0833C7.35515 10.9714 7.17557 10.9685 7.0637 11.0803C6.95183 11.1922 6.94889 11.3718 7.06076 11.4836L8.34724 12.7937C8.40317 12.8496 8.47677 12.8791 8.55037 12.8791ZM8.55037 15.3931C8.62396 15.3931 8.69462 15.3666 8.75055 15.3107C8.86242 15.1988 8.86536 15.0193 8.75349 14.9074L7.46701 13.5974C7.35515 13.4855 7.17557 13.4825 7.0637 13.5944C6.95183 13.7063 6.94889 13.8859 7.06076 13.9977L8.34724 15.3078C8.40317 15.3666 8.47677 15.3931 8.55037 15.3931ZM8.34135 17.6982C8.412 17.6982 8.4856 17.6717 8.54153 17.6158C8.6534 17.5068 8.65635 17.3243 8.54448 17.2125L7.46701 16.1144C7.35515 16.0025 7.17557 15.9996 7.0637 16.1114C6.95183 16.2204 6.94889 16.4029 7.06076 16.5148L8.13822 17.6128C8.19415 17.6688 8.26775 17.6982 8.34135 17.6982Z" fill="#3EBED0"/>
<path d="M2.31817 18.8409L6.51615 18.8409C7.5053 18.8409 8.38552 18.2138 8.70935 17.2806C8.74468 17.1805 8.77412 17.0687 8.79472 16.9597C8.82122 16.8214 8.83594 16.6712 8.83594 16.5211L8.83594 2.32273C8.83594 2.27563 8.83594 2.22852 8.83299 2.18142C8.82416 2.0254 8.79767 1.86937 8.75645 1.7104C8.75645 1.70451 8.75351 1.70157 8.75351 1.69568C8.69463 1.48666 8.60631 1.28648 8.4915 1.10101C8.06169 0.412144 7.32572 -6.60136e-08 6.51615 -1.01401e-07L2.32111 -2.84772e-07C1.28486 -3.30068e-07 0.366371 0.697701 0.0867016 1.69274C0.0425432 1.84876 0.0131036 2.01362 0.00427192 2.17553C0.00132803 2.22264 0.00132853 2.26974 0.00132852 2.31978L0.0013279 16.5182C0.0013279 16.6683 0.0160478 16.8184 0.0454867 16.9597C0.0660939 17.0657 0.092588 17.1746 0.130859 17.2806C0.448798 18.2138 1.32902 18.8409 2.31817 18.8409ZM8.19711 1.83993C8.19711 1.84287 8.20006 1.84582 8.20006 1.85171C8.23244 1.97241 8.25305 2.09605 8.26188 2.21675C8.26482 2.25207 8.26482 2.2874 8.26482 2.32567L8.26482 16.524C8.26482 16.6389 8.25305 16.7507 8.23244 16.8567C8.21772 16.9421 8.19711 17.0186 8.16767 17.0922C7.92333 17.7988 7.25801 18.2727 6.51321 18.2727L2.31817 18.2727C1.57336 18.2727 0.908045 17.7988 0.666646 17.0952C0.637207 17.0157 0.616601 16.9391 0.601881 16.8596C0.581274 16.7478 0.569498 16.6359 0.569498 16.524L0.569499 2.32273C0.569499 2.2874 0.569499 2.24913 0.572442 2.2138C0.581274 2.09016 0.601882 1.96946 0.634265 1.84876C0.846225 1.09513 1.53804 0.571114 2.31817 0.571114L6.51615 0.571114C7.12554 0.571114 7.68193 0.880223 8.00576 1.40129C8.08819 1.53671 8.15296 1.6839 8.19711 1.83993Z" fill="#3EBED0"/>
<path d="M20 118.844L43 118.844" stroke="white" strokeLinecap="square"/>
<path d="M20 116.844L43 116.844" stroke="white" strokeLinecap="square"/>
<path d="M56.5035 127.841C56.6625 127.841 56.7891 127.714 56.7891 127.555L56.7891 109.286C56.7891 109.127 56.6625 109 56.5035 109C56.3445 109 56.2179 109.127 56.2179 109.286L56.2179 127.555C56.2179 127.711 56.3445 127.841 56.5035 127.841Z" fill="#56E4EE"/>
<path d="M58.0816 127.841C58.2406 127.841 58.3672 127.714 58.3672 127.555L58.3672 109.286C58.3672 109.127 58.2377 109 58.0816 109C57.9227 109 57.7961 109.127 57.7961 109.286L57.7961 127.555C57.7961 127.711 57.9227 127.841 58.0816 127.841Z" fill="#3EBED0"/>
<path d="M59.9098 127.841C60.0687 127.841 60.1953 127.714 60.1953 127.555L60.1953 109.286C60.1953 109.127 60.0687 109 59.9098 109C59.7508 109 59.6242 109.127 59.6242 109.286L59.6242 127.555C59.6242 127.711 59.7537 127.841 59.9098 127.841Z" fill="#56E4EE"/>
<path d="M59.3454 110.943L60.3316 110.943C60.4906 110.943 60.6172 110.817 60.6172 110.658C60.6172 110.499 60.4906 110.372 60.3316 110.372L59.3454 110.372C59.1865 110.372 59.0599 110.499 59.0599 110.658C59.0599 110.817 59.1865 110.943 59.3454 110.943ZM56.0041 110.943L56.9874 110.943C57.1463 110.943 57.2729 110.817 57.2729 110.658C57.2729 110.499 57.1463 110.372 56.9874 110.372L56.0041 110.372C55.8451 110.372 55.7186 110.499 55.7186 110.658C55.7186 110.817 55.8451 110.943 56.0041 110.943ZM59.3454 112.886L60.3316 112.886C60.4906 112.886 60.6172 112.76 60.6172 112.601C60.6172 112.442 60.4906 112.315 60.3316 112.315L59.3454 112.315C59.1865 112.315 59.0599 112.442 59.0599 112.601C59.0599 112.757 59.1865 112.886 59.3454 112.886ZM56.0041 112.886L56.9874 112.886C57.1463 112.886 57.2729 112.76 57.2729 112.601C57.2729 112.442 57.1463 112.315 56.9874 112.315L56.0041 112.315C55.8451 112.315 55.7186 112.442 55.7186 112.601C55.7186 112.757 55.8451 112.886 56.0041 112.886ZM59.3454 114.826L60.3316 114.826C60.4906 114.826 60.6172 114.7 60.6172 114.541C60.6172 114.382 60.4906 114.255 60.3316 114.255L59.3454 114.255C59.1865 114.255 59.0599 114.382 59.0599 114.541C59.0599 114.7 59.1865 114.826 59.3454 114.826ZM56.0041 114.826L56.9874 114.826C57.1463 114.826 57.2729 114.7 57.2729 114.541C57.2729 114.382 57.1463 114.255 56.9874 114.255L56.0041 114.255C55.8451 114.255 55.7186 114.382 55.7186 114.541C55.7186 114.7 55.8451 114.826 56.0041 114.826ZM59.3454 116.766L60.3316 116.766C60.4906 116.766 60.6172 116.64 60.6172 116.481C60.6172 116.322 60.4906 116.195 60.3316 116.195L59.3454 116.195C59.1865 116.195 59.0599 116.322 59.0599 116.481C59.0599 116.64 59.1865 116.766 59.3454 116.766ZM56.0041 116.766L56.9874 116.766C57.1463 116.766 57.2729 116.64 57.2729 116.481C57.2729 116.322 57.1463 116.195 56.9874 116.195L56.0041 116.195C55.8451 116.195 55.7186 116.322 55.7186 116.481C55.7186 116.64 55.8451 116.766 56.0041 116.766ZM59.3454 118.706L60.3316 118.706C60.4906 118.706 60.6172 118.58 60.6172 118.421C60.6172 118.262 60.4906 118.135 60.3316 118.135L59.3454 118.135C59.1865 118.135 59.0599 118.262 59.0599 118.421C59.0599 118.577 59.1865 118.706 59.3454 118.706ZM56.0041 118.706L56.9874 118.706C57.1463 118.706 57.2729 118.58 57.2729 118.421C57.2729 118.262 57.1463 118.135 56.9874 118.135L56.0041 118.135C55.8451 118.135 55.7186 118.262 55.7186 118.421C55.7186 118.577 55.8451 118.706 56.0041 118.706ZM59.3454 120.646L60.3316 120.646C60.4906 120.646 60.6172 120.52 60.6172 120.361C60.6172 120.202 60.4906 120.075 60.3316 120.075L59.3454 120.075C59.1865 120.075 59.0599 120.202 59.0599 120.361C59.0599 120.52 59.1865 120.646 59.3454 120.646ZM56.0041 120.646L56.9874 120.646C57.1463 120.646 57.2729 120.52 57.2729 120.361C57.2729 120.202 57.1463 120.075 56.9874 120.075L56.0041 120.075C55.8451 120.075 55.7186 120.202 55.7186 120.361C55.7186 120.52 55.8451 120.646 56.0041 120.646ZM59.3454 122.589L60.3316 122.589C60.4906 122.589 60.6172 122.463 60.6172 122.304C60.6172 122.145 60.4906 122.018 60.3316 122.018L59.3454 122.018C59.1865 122.018 59.0599 122.145 59.0599 122.304C59.0599 122.463 59.1865 122.589 59.3454 122.589ZM56.0041 122.589L56.9874 122.589C57.1463 122.589 57.2729 122.463 57.2729 122.304C57.2729 122.145 57.1463 122.018 56.9874 122.018L56.0041 122.018C55.8451 122.018 55.7186 122.145 55.7186 122.304C55.7186 122.463 55.8451 122.589 56.0041 122.589ZM59.3454 124.527L60.3316 124.527C60.4906 124.527 60.6172 124.4 60.6172 124.241C60.6172 124.082 60.4906 123.955 60.3316 123.955L59.3454 123.955C59.1865 123.955 59.0599 124.082 59.0599 124.241C59.0599 124.4 59.1865 124.527 59.3454 124.527ZM56.0041 124.527L56.9874 124.527C57.1463 124.527 57.2729 124.4 57.2729 124.241C57.2729 124.082 57.1463 123.955 56.9874 123.955L56.0041 123.955C55.8451 123.955 55.7186 124.082 55.7186 124.241C55.7186 124.4 55.8451 124.527 56.0041 124.527ZM59.3454 126.467L60.3316 126.467C60.4906 126.467 60.6172 126.34 60.6172 126.181C60.6172 126.022 60.4906 125.895 60.3316 125.895L59.3454 125.895C59.1865 125.895 59.0599 126.022 59.0599 126.181C59.0599 126.34 59.1865 126.467 59.3454 126.467ZM56.0041 126.467L56.9874 126.467C57.1463 126.467 57.2729 126.34 57.2729 126.181C57.2729 126.022 57.1463 125.895 56.9874 125.895L56.0041 125.895C55.8451 125.895 55.7186 126.022 55.7186 126.181C55.7186 126.34 55.8451 126.467 56.0041 126.467Z" fill="#56E4EE"/>
<path d="M53.9484 111.823C54.022 111.823 54.0956 111.794 54.1516 111.738L55.441 110.422C55.5529 110.31 55.5499 110.128 55.4381 110.019C55.3262 109.907 55.1437 109.91 55.0347 110.022L53.7453 111.337C53.6334 111.449 53.6364 111.632 53.7483 111.741C53.8042 111.797 53.8748 111.823 53.9484 111.823ZM53.9484 114.337C54.022 114.337 54.0956 114.308 54.1516 114.252L55.441 112.936C55.5529 112.824 55.5499 112.642 55.4381 112.533C55.3262 112.424 55.1437 112.424 55.0347 112.536L53.7453 113.852C53.6334 113.963 53.6364 114.146 53.7483 114.255C53.8042 114.311 53.8748 114.337 53.9484 114.337ZM53.9484 116.854C54.022 116.854 54.0956 116.825 54.1516 116.769L55.441 115.456C55.5529 115.344 55.5499 115.162 55.4381 115.053C55.3262 114.941 55.1437 114.944 55.0347 115.056L53.7453 116.369C53.6334 116.48 53.6364 116.663 53.7483 116.772C53.8042 116.825 53.8748 116.854 53.9484 116.854ZM53.9484 119.371C54.022 119.371 54.0956 119.342 54.1516 119.286L55.441 117.97C55.5529 117.858 55.5499 117.676 55.4381 117.567C55.3262 117.455 55.1437 117.458 55.0347 117.57L53.7453 118.886C53.6334 118.997 53.6364 119.18 53.7483 119.289C53.8042 119.345 53.8748 119.371 53.9484 119.371ZM53.9484 121.885C54.022 121.885 54.0956 121.856 54.1516 121.8L55.441 120.487C55.5529 120.375 55.5499 120.193 55.4381 120.084C55.3262 119.972 55.1437 119.975 55.0347 120.087L53.7453 121.4C53.6334 121.512 53.6364 121.694 53.7483 121.803C53.8042 121.859 53.8748 121.885 53.9484 121.885ZM53.9484 124.399C54.022 124.399 54.0956 124.37 54.1516 124.314L55.441 123.001C55.5529 122.889 55.5499 122.707 55.438 122.598C55.3262 122.486 55.1437 122.489 55.0347 122.601L53.7453 123.914C53.6334 124.026 53.6364 124.208 53.7483 124.317C53.8042 124.373 53.8748 124.399 53.9484 124.399ZM54.1604 126.702C54.234 126.702 54.3076 126.672 54.3635 126.616L55.441 125.518C55.5499 125.406 55.5499 125.224 55.4351 125.115C55.3232 125.006 55.1407 125.006 55.0318 125.118L53.9543 126.216C53.8454 126.328 53.8454 126.51 53.9602 126.619C54.0162 126.675 54.0868 126.702 54.1604 126.702Z" fill="#3EBED0"/>
<path d="M62.2144 111.821C62.2851 111.821 62.3587 111.794 62.4146 111.738C62.5265 111.629 62.5294 111.447 62.4176 111.335L61.1311 110.022C61.0192 109.91 60.8396 109.907 60.7278 110.019C60.6159 110.128 60.613 110.31 60.7248 110.422L62.0113 111.735C62.0672 111.791 62.1408 111.821 62.2144 111.821ZM62.2144 114.335C62.2851 114.335 62.3587 114.308 62.4146 114.252C62.5265 114.143 62.5294 113.961 62.4176 113.849L61.1311 112.536C61.0192 112.424 60.8396 112.421 60.7278 112.533C60.6159 112.642 60.613 112.824 60.7248 112.936L62.0113 114.249C62.0672 114.308 62.1408 114.335 62.2144 114.335ZM62.2144 116.852C62.288 116.852 62.3587 116.825 62.4146 116.769C62.5265 116.657 62.5294 116.478 62.4176 116.366L61.1311 115.056C61.0192 114.944 60.8396 114.941 60.7278 115.053C60.6159 115.165 60.613 115.344 60.7248 115.456L62.0113 116.766C62.0672 116.822 62.1408 116.852 62.2144 116.852ZM62.2144 119.369C62.2851 119.369 62.3587 119.342 62.4146 119.286C62.5265 119.177 62.5294 118.995 62.4176 118.883L61.1311 117.57C61.0192 117.458 60.8396 117.455 60.7278 117.567C60.6159 117.676 60.613 117.859 60.7248 117.97L62.0113 119.283C62.0672 119.339 62.1408 119.369 62.2144 119.369ZM62.2144 121.883C62.288 121.883 62.3587 121.856 62.4146 121.8C62.5265 121.689 62.5294 121.509 62.4176 121.397L61.1311 120.087C61.0192 119.975 60.8396 119.972 60.7278 120.084C60.6159 120.196 60.613 120.376 60.7248 120.487L62.0113 121.797C62.0672 121.853 62.1408 121.883 62.2144 121.883ZM62.2144 124.397C62.288 124.397 62.3587 124.37 62.4146 124.314C62.5265 124.203 62.5294 124.023 62.4176 123.911L61.1311 122.601C61.0192 122.489 60.8396 122.486 60.7278 122.598C60.6159 122.71 60.613 122.89 60.7248 123.002L62.0113 124.312C62.0672 124.37 62.1408 124.397 62.2144 124.397ZM62.0054 126.702C62.0761 126.702 62.1497 126.675 62.2056 126.62C62.3175 126.511 62.3204 126.328 62.2085 126.216L61.1311 125.118C61.0192 125.006 60.8396 125.003 60.7278 125.115C60.6159 125.224 60.613 125.407 60.7248 125.519L61.8023 126.617C61.8582 126.673 61.9318 126.702 62.0054 126.702Z" fill="#3EBED0"/>
<path d="M55.9822 127.843L60.1802 127.843C61.1694 127.843 62.0496 127.216 62.3734 126.282C62.4087 126.182 62.4382 126.07 62.4588 125.961C62.4853 125.823 62.5 125.673 62.5 125.523L62.5 111.324C62.5 111.277 62.5 111.23 62.4971 111.183C62.4882 111.027 62.4617 110.871 62.4205 110.712C62.4205 110.706 62.4176 110.703 62.4176 110.697C62.3587 110.488 62.2704 110.288 62.1556 110.103C61.7258 109.414 60.9898 109.002 60.1802 109.002L55.9852 109.002C54.9489 109.002 54.0304 109.699 53.7508 110.694C53.7066 110.85 53.6772 111.015 53.6683 111.177C53.6654 111.224 53.6654 111.271 53.6654 111.321L53.6654 125.52C53.6654 125.67 53.6801 125.82 53.7095 125.961C53.7302 126.067 53.7567 126.176 53.7949 126.282C54.1129 127.216 54.9931 127.843 55.9822 127.843ZM61.8612 110.842C61.8612 110.845 61.8641 110.848 61.8641 110.853C61.8965 110.974 61.9171 111.098 61.9259 111.218C61.9289 111.254 61.9289 111.289 61.9289 111.327L61.9289 125.526C61.9289 125.641 61.9171 125.752 61.8965 125.858C61.8818 125.944 61.8612 126.02 61.8317 126.094C61.5874 126.8 60.9221 127.274 60.1773 127.274L55.9822 127.274C55.2374 127.274 54.5721 126.8 54.3307 126.097C54.3013 126.017 54.2807 125.941 54.2659 125.861C54.2453 125.749 54.2336 125.638 54.2336 125.526L54.2336 111.324C54.2336 111.289 54.2336 111.251 54.2365 111.216C54.2453 111.092 54.2659 110.971 54.2983 110.85C54.5103 110.097 55.2021 109.573 55.9822 109.573L60.1802 109.573C60.7896 109.573 61.346 109.882 61.6698 110.403C61.7523 110.538 61.817 110.686 61.8612 110.842Z" fill="#3EBED0"/>
<path d="M2.83944 127.841C2.99841 127.841 3.125 127.714 3.125 127.555L3.125 109.286C3.125 109.127 2.99841 109 2.83944 109C2.68047 109 2.55388 109.127 2.55388 109.286L2.55388 127.555C2.55388 127.711 2.68047 127.841 2.83944 127.841Z" fill="#56E4EE"/>
<path d="M4.41757 127.841C4.57654 127.841 4.70312 127.714 4.70312 127.555L4.70312 109.286C4.70312 109.127 4.57359 109 4.41757 109C4.2586 109 4.13201 109.127 4.13201 109.286L4.13201 127.555C4.13201 127.711 4.2586 127.841 4.41757 127.841Z" fill="#3EBED0"/>
<path d="M6.24569 127.841C6.40466 127.841 6.53125 127.714 6.53125 127.555L6.53125 109.286C6.53125 109.127 6.40466 109 6.24569 109C6.08672 109 5.96014 109.127 5.96014 109.286L5.96013 127.555C5.96013 127.711 6.08967 127.841 6.24569 127.841Z" fill="#56E4EE"/>
<path d="M5.68137 110.943L6.66757 110.943C6.82654 110.943 6.95312 110.817 6.95312 110.658C6.95312 110.499 6.82654 110.372 6.66757 110.372L5.68137 110.372C5.5224 110.372 5.39581 110.499 5.39581 110.658C5.39581 110.817 5.5224 110.943 5.68137 110.943ZM2.34005 110.943L3.32331 110.943C3.48228 110.943 3.60887 110.817 3.60887 110.658C3.60887 110.499 3.48228 110.372 3.32331 110.372L2.34005 110.372C2.18108 110.372 2.05449 110.499 2.05449 110.658C2.05449 110.817 2.18108 110.943 2.34005 110.943ZM5.68137 112.886L6.66757 112.886C6.82654 112.886 6.95312 112.76 6.95312 112.601C6.95312 112.442 6.82654 112.315 6.66757 112.315L5.68137 112.315C5.5224 112.315 5.39581 112.442 5.39581 112.601C5.39581 112.757 5.5224 112.886 5.68137 112.886ZM2.34005 112.886L3.32331 112.886C3.48228 112.886 3.60887 112.76 3.60887 112.601C3.60887 112.442 3.48228 112.315 3.32331 112.315L2.34005 112.315C2.18108 112.315 2.05449 112.442 2.05449 112.601C2.05449 112.757 2.18108 112.886 2.34005 112.886ZM5.68137 114.826L6.66757 114.826C6.82654 114.826 6.95312 114.7 6.95312 114.541C6.95312 114.382 6.82654 114.255 6.66757 114.255L5.68137 114.255C5.5224 114.255 5.39581 114.382 5.39581 114.541C5.39581 114.7 5.5224 114.826 5.68137 114.826ZM2.34005 114.826L3.32331 114.826C3.48228 114.826 3.60887 114.7 3.60887 114.541C3.60887 114.382 3.48228 114.255 3.32331 114.255L2.34005 114.255C2.18108 114.255 2.05449 114.382 2.05449 114.541C2.05449 114.7 2.18108 114.826 2.34005 114.826ZM5.68136 116.766L6.66757 116.766C6.82654 116.766 6.95312 116.64 6.95312 116.481C6.95312 116.322 6.82654 116.195 6.66757 116.195L5.68136 116.195C5.52239 116.195 5.39581 116.322 5.39581 116.481C5.39581 116.64 5.52239 116.766 5.68136 116.766ZM2.34005 116.766L3.32331 116.766C3.48228 116.766 3.60887 116.64 3.60887 116.481C3.60887 116.322 3.48228 116.195 3.32331 116.195L2.34005 116.195C2.18108 116.195 2.05449 116.322 2.05449 116.481C2.05449 116.64 2.18108 116.766 2.34005 116.766ZM5.68136 118.706L6.66757 118.706C6.82654 118.706 6.95312 118.58 6.95312 118.421C6.95312 118.262 6.82654 118.135 6.66757 118.135L5.68136 118.135C5.52239 118.135 5.39581 118.262 5.39581 118.421C5.39581 118.577 5.52239 118.706 5.68136 118.706ZM2.34005 118.706L3.32331 118.706C3.48228 118.706 3.60887 118.58 3.60887 118.421C3.60887 118.262 3.48228 118.135 3.32331 118.135L2.34005 118.135C2.18108 118.135 2.05449 118.262 2.05449 118.421C2.05449 118.577 2.18108 118.706 2.34005 118.706ZM5.68136 120.646L6.66757 120.646C6.82654 120.646 6.95312 120.52 6.95312 120.361C6.95312 120.202 6.82654 120.075 6.66757 120.075L5.68136 120.075C5.52239 120.075 5.39581 120.202 5.39581 120.361C5.39581 120.52 5.52239 120.646 5.68136 120.646ZM2.34005 120.646L3.32331 120.646C3.48228 120.646 3.60887 120.52 3.60887 120.361C3.60887 120.202 3.48228 120.075 3.32331 120.075L2.34005 120.075C2.18108 120.075 2.05449 120.202 2.05449 120.361C2.05449 120.52 2.18108 120.646 2.34005 120.646ZM5.68136 122.589L6.66757 122.589C6.82654 122.589 6.95312 122.463 6.95312 122.304C6.95312 122.145 6.82654 122.018 6.66757 122.018L5.68136 122.018C5.52239 122.018 5.39581 122.145 5.39581 122.304C5.39581 122.463 5.52239 122.589 5.68136 122.589ZM2.34005 122.589L3.32331 122.589C3.48228 122.589 3.60887 122.463 3.60887 122.304C3.60887 122.145 3.48228 122.018 3.32331 122.018L2.34005 122.018C2.18108 122.018 2.05449 122.145 2.05449 122.304C2.05449 122.463 2.18108 122.589 2.34005 122.589ZM5.68136 124.527L6.66757 124.527C6.82654 124.527 6.95312 124.4 6.95312 124.241C6.95312 124.082 6.82654 123.955 6.66757 123.955L5.68136 123.955C5.52239 123.955 5.39581 124.082 5.39581 124.241C5.39581 124.4 5.52239 124.527 5.68136 124.527ZM2.34005 124.527L3.32331 124.527C3.48228 124.527 3.60887 124.4 3.60887 124.241C3.60887 124.082 3.48228 123.955 3.32331 123.955L2.34005 123.955C2.18108 123.955 2.05449 124.082 2.05449 124.241C2.05449 124.4 2.18108 124.527 2.34005 124.527ZM5.68136 126.467L6.66757 126.467C6.82654 126.467 6.95312 126.34 6.95312 126.181C6.95312 126.022 6.82654 125.895 6.66757 125.895L5.68136 125.895C5.52239 125.895 5.39581 126.022 5.39581 126.181C5.39581 126.34 5.52239 126.467 5.68136 126.467ZM2.34005 126.467L3.32331 126.467C3.48228 126.467 3.60887 126.34 3.60887 126.181C3.60887 126.022 3.48228 125.895 3.32331 125.895L2.34005 125.895C2.18108 125.895 2.05449 126.022 2.05449 126.181C2.05449 126.34 2.18108 126.467 2.34005 126.467Z" fill="#56E4EE"/>
<path d="M0.28438 111.823C0.357977 111.823 0.431575 111.794 0.487509 111.738L1.77693 110.422C1.8888 110.31 1.88586 110.128 1.77399 110.019C1.66212 109.907 1.4796 109.91 1.37068 110.022L0.0812519 111.337C-0.0306159 111.449 -0.0276725 111.632 0.0841953 111.741C0.140129 111.797 0.210783 111.823 0.28438 111.823ZM0.28438 114.337C0.357977 114.337 0.431575 114.308 0.487509 114.252L1.77693 112.936C1.8888 112.824 1.88586 112.642 1.77399 112.533C1.66212 112.424 1.4796 112.424 1.37068 112.536L0.0812518 113.852C-0.030616 113.963 -0.0276726 114.146 0.0841952 114.255C0.140129 114.311 0.210782 114.337 0.28438 114.337ZM0.28438 116.854C0.357977 116.854 0.431575 116.825 0.487509 116.769L1.77693 115.456C1.8888 115.344 1.88586 115.162 1.77399 115.053C1.66212 114.941 1.4796 114.944 1.37068 115.056L0.0812517 116.369C-0.0306161 116.48 -0.0276727 116.663 0.0841951 116.772C0.140129 116.825 0.210782 116.854 0.28438 116.854ZM0.284379 119.371C0.357977 119.371 0.431575 119.342 0.487509 119.286L1.77693 117.97C1.8888 117.858 1.88586 117.676 1.77399 117.567C1.66212 117.455 1.4796 117.458 1.37068 117.57L0.0812516 118.886C-0.0306162 118.997 -0.0276728 119.18 0.084195 119.289C0.140129 119.345 0.210782 119.371 0.284379 119.371ZM0.284379 121.885C0.357977 121.885 0.431575 121.856 0.487508 121.8L1.77693 120.487C1.8888 120.375 1.88586 120.193 1.77399 120.084C1.66212 119.972 1.4796 119.975 1.37068 120.087L0.0812515 121.4C-0.0306163 121.512 -0.0276729 121.694 0.0841949 121.803C0.140129 121.859 0.210782 121.885 0.284379 121.885ZM0.284379 124.399C0.357976 124.399 0.431574 124.37 0.487508 124.314L1.77693 123.001C1.8888 122.889 1.88586 122.707 1.77399 122.598C1.66212 122.486 1.4796 122.489 1.37067 122.601L0.0812514 123.914C-0.0306164 124.026 -0.027673 124.208 0.0841947 124.317C0.140129 124.373 0.210782 124.399 0.284379 124.399ZM0.496339 126.702C0.569937 126.702 0.643534 126.672 0.699467 126.616L1.77693 125.518C1.88585 125.406 1.88585 125.224 1.77104 125.115C1.65918 125.006 1.47665 125.006 1.36773 125.118L0.290267 126.216C0.181343 126.328 0.181343 126.51 0.296155 126.619C0.352089 126.675 0.422742 126.702 0.496339 126.702Z" fill="#3EBED0"/>
<path d="M8.55037 111.821C8.62102 111.821 8.69462 111.794 8.75055 111.738C8.86242 111.629 8.86536 111.447 8.75349 111.335L7.46702 110.022C7.35515 109.91 7.17557 109.907 7.0637 110.019C6.95183 110.128 6.94889 110.31 7.06076 110.422L8.34724 111.735C8.40317 111.791 8.47677 111.821 8.55037 111.821ZM8.55037 114.335C8.62102 114.335 8.69462 114.308 8.75055 114.252C8.86242 114.143 8.86536 113.961 8.75349 113.849L7.46702 112.536C7.35515 112.424 7.17557 112.421 7.0637 112.533C6.95183 112.642 6.94889 112.824 7.06076 112.936L8.34724 114.249C8.40317 114.308 8.47677 114.335 8.55037 114.335ZM8.55037 116.852C8.62396 116.852 8.69462 116.825 8.75055 116.769C8.86242 116.657 8.86536 116.478 8.75349 116.366L7.46702 115.056C7.35515 114.944 7.17557 114.941 7.0637 115.053C6.95183 115.165 6.94889 115.344 7.06076 115.456L8.34724 116.766C8.40317 116.822 8.47677 116.852 8.55037 116.852ZM8.55037 119.369C8.62102 119.369 8.69462 119.342 8.75055 119.286C8.86242 119.177 8.86536 118.995 8.75349 118.883L7.46701 117.57C7.35515 117.458 7.17557 117.455 7.0637 117.567C6.95183 117.676 6.94889 117.859 7.06076 117.97L8.34724 119.283C8.40317 119.339 8.47677 119.369 8.55037 119.369ZM8.55037 121.883C8.62396 121.883 8.69462 121.856 8.75055 121.8C8.86242 121.689 8.86536 121.509 8.75349 121.397L7.46701 120.087C7.35515 119.975 7.17557 119.972 7.0637 120.084C6.95183 120.196 6.94889 120.376 7.06076 120.487L8.34724 121.797C8.40317 121.853 8.47677 121.883 8.55037 121.883ZM8.55037 124.397C8.62396 124.397 8.69462 124.37 8.75055 124.314C8.86242 124.203 8.86536 124.023 8.75349 123.911L7.46701 122.601C7.35515 122.489 7.17557 122.486 7.0637 122.598C6.95183 122.71 6.94889 122.89 7.06076 123.002L8.34724 124.312C8.40317 124.37 8.47677 124.397 8.55037 124.397ZM8.34135 126.702C8.412 126.702 8.4856 126.675 8.54153 126.62C8.6534 126.511 8.65635 126.328 8.54448 126.216L7.46701 125.118C7.35515 125.006 7.17557 125.003 7.0637 125.115C6.95183 125.224 6.94889 125.407 7.06076 125.519L8.13822 126.617C8.19415 126.673 8.26775 126.702 8.34135 126.702Z" fill="#3EBED0"/>
<path d="M2.31817 127.843L6.51615 127.843C7.5053 127.843 8.38552 127.216 8.70935 126.282C8.74468 126.182 8.77412 126.07 8.79472 125.961C8.82122 125.823 8.83594 125.673 8.83594 125.523L8.83594 111.324C8.83594 111.277 8.83594 111.23 8.83299 111.183C8.82416 111.027 8.79767 110.871 8.75645 110.712C8.75645 110.706 8.75351 110.703 8.75351 110.697C8.69463 110.488 8.60631 110.288 8.4915 110.103C8.06169 109.414 7.32572 109.002 6.51615 109.002L2.32111 109.002C1.28486 109.002 0.366371 109.699 0.0867016 110.694C0.0425432 110.85 0.0131036 111.015 0.00427192 111.177C0.00132803 111.224 0.00132853 111.271 0.00132852 111.321L0.0013279 125.52C0.0013279 125.67 0.0160478 125.82 0.0454867 125.961C0.0660939 126.067 0.092588 126.176 0.130859 126.282C0.448798 127.216 1.32902 127.843 2.31817 127.843ZM8.19711 110.842C8.19711 110.845 8.20006 110.848 8.20006 110.853C8.23244 110.974 8.25305 111.098 8.26188 111.218C8.26482 111.254 8.26482 111.289 8.26482 111.327L8.26482 125.526C8.26482 125.641 8.25305 125.752 8.23244 125.858C8.21772 125.944 8.19711 126.02 8.16767 126.094C7.92333 126.8 7.25801 127.274 6.51321 127.274L2.31817 127.274C1.57336 127.274 0.908045 126.8 0.666646 126.097C0.637207 126.017 0.616601 125.941 0.601881 125.861C0.581274 125.749 0.569498 125.638 0.569498 125.526L0.569499 111.324C0.569499 111.289 0.569499 111.251 0.572442 111.216C0.581274 111.092 0.601882 110.971 0.634265 110.85C0.846225 110.097 1.53804 109.573 2.31817 109.573L6.51615 109.573C7.12554 109.573 7.68193 109.882 8.00576 110.403C8.08819 110.538 8.15296 110.686 8.19711 110.842Z" fill="#3EBED0"/>
<path d="M13.8394 127.841C13.9984 127.841 14.125 127.714 14.125 127.555L14.125 109.286C14.125 109.127 13.9984 109 13.8394 109C13.6805 109 13.5539 109.127 13.5539 109.286L13.5539 127.555C13.5539 127.711 13.6805 127.841 13.8394 127.841Z" fill="#56E4EE"/>
<path d="M15.4176 127.841C15.5765 127.841 15.7031 127.714 15.7031 127.555L15.7031 109.286C15.7031 109.127 15.5736 109 15.4176 109C15.2586 109 15.132 109.127 15.132 109.286L15.132 127.555C15.132 127.711 15.2586 127.841 15.4176 127.841Z" fill="#3EBED0"/>
<path d="M17.2457 127.841C17.4047 127.841 17.5312 127.714 17.5312 127.555L17.5312 109.286C17.5312 109.127 17.4047 109 17.2457 109C17.0867 109 16.9601 109.127 16.9601 109.286L16.9601 127.555C16.9601 127.711 17.0897 127.841 17.2457 127.841Z" fill="#56E4EE"/>
<path d="M16.6814 110.943L17.6676 110.943C17.8265 110.943 17.9531 110.817 17.9531 110.658C17.9531 110.499 17.8265 110.372 17.6676 110.372L16.6814 110.372C16.5224 110.372 16.3958 110.499 16.3958 110.658C16.3958 110.817 16.5224 110.943 16.6814 110.943ZM13.3401 110.943L14.3233 110.943C14.4823 110.943 14.6089 110.817 14.6089 110.658C14.6089 110.499 14.4823 110.372 14.3233 110.372L13.3401 110.372C13.1811 110.372 13.0545 110.499 13.0545 110.658C13.0545 110.817 13.1811 110.943 13.3401 110.943ZM16.6814 112.886L17.6676 112.886C17.8265 112.886 17.9531 112.76 17.9531 112.601C17.9531 112.442 17.8265 112.315 17.6676 112.315L16.6814 112.315C16.5224 112.315 16.3958 112.442 16.3958 112.601C16.3958 112.757 16.5224 112.886 16.6814 112.886ZM13.3401 112.886L14.3233 112.886C14.4823 112.886 14.6089 112.76 14.6089 112.601C14.6089 112.442 14.4823 112.315 14.3233 112.315L13.3401 112.315C13.1811 112.315 13.0545 112.442 13.0545 112.601C13.0545 112.757 13.1811 112.886 13.3401 112.886ZM16.6814 114.826L17.6676 114.826C17.8265 114.826 17.9531 114.7 17.9531 114.541C17.9531 114.382 17.8265 114.255 17.6676 114.255L16.6814 114.255C16.5224 114.255 16.3958 114.382 16.3958 114.541C16.3958 114.7 16.5224 114.826 16.6814 114.826ZM13.3401 114.826L14.3233 114.826C14.4823 114.826 14.6089 114.7 14.6089 114.541C14.6089 114.382 14.4823 114.255 14.3233 114.255L13.3401 114.255C13.1811 114.255 13.0545 114.382 13.0545 114.541C13.0545 114.7 13.1811 114.826 13.3401 114.826ZM16.6814 116.766L17.6676 116.766C17.8265 116.766 17.9531 116.64 17.9531 116.481C17.9531 116.322 17.8265 116.195 17.6676 116.195L16.6814 116.195C16.5224 116.195 16.3958 116.322 16.3958 116.481C16.3958 116.64 16.5224 116.766 16.6814 116.766ZM13.3401 116.766L14.3233 116.766C14.4823 116.766 14.6089 116.64 14.6089 116.481C14.6089 116.322 14.4823 116.195 14.3233 116.195L13.3401 116.195C13.1811 116.195 13.0545 116.322 13.0545 116.481C13.0545 116.64 13.1811 116.766 13.3401 116.766ZM16.6814 118.706L17.6676 118.706C17.8265 118.706 17.9531 118.58 17.9531 118.421C17.9531 118.262 17.8265 118.135 17.6676 118.135L16.6814 118.135C16.5224 118.135 16.3958 118.262 16.3958 118.421C16.3958 118.577 16.5224 118.706 16.6814 118.706ZM13.3401 118.706L14.3233 118.706C14.4823 118.706 14.6089 118.58 14.6089 118.421C14.6089 118.262 14.4823 118.135 14.3233 118.135L13.3401 118.135C13.1811 118.135 13.0545 118.262 13.0545 118.421C13.0545 118.577 13.1811 118.706 13.3401 118.706ZM16.6814 120.646L17.6676 120.646C17.8265 120.646 17.9531 120.52 17.9531 120.361C17.9531 120.202 17.8265 120.075 17.6676 120.075L16.6814 120.075C16.5224 120.075 16.3958 120.202 16.3958 120.361C16.3958 120.52 16.5224 120.646 16.6814 120.646ZM13.3401 120.646L14.3233 120.646C14.4823 120.646 14.6089 120.52 14.6089 120.361C14.6089 120.202 14.4823 120.075 14.3233 120.075L13.3401 120.075C13.1811 120.075 13.0545 120.202 13.0545 120.361C13.0545 120.52 13.1811 120.646 13.3401 120.646ZM16.6814 122.589L17.6676 122.589C17.8265 122.589 17.9531 122.463 17.9531 122.304C17.9531 122.145 17.8265 122.018 17.6676 122.018L16.6814 122.018C16.5224 122.018 16.3958 122.145 16.3958 122.304C16.3958 122.463 16.5224 122.589 16.6814 122.589ZM13.3401 122.589L14.3233 122.589C14.4823 122.589 14.6089 122.463 14.6089 122.304C14.6089 122.145 14.4823 122.018 14.3233 122.018L13.3401 122.018C13.1811 122.018 13.0545 122.145 13.0545 122.304C13.0545 122.463 13.1811 122.589 13.3401 122.589ZM16.6814 124.527L17.6676 124.527C17.8265 124.527 17.9531 124.4 17.9531 124.241C17.9531 124.082 17.8265 123.955 17.6676 123.955L16.6814 123.955C16.5224 123.955 16.3958 124.082 16.3958 124.241C16.3958 124.4 16.5224 124.527 16.6814 124.527ZM13.3401 124.527L14.3233 124.527C14.4823 124.527 14.6089 124.4 14.6089 124.241C14.6089 124.082 14.4823 123.955 14.3233 123.955L13.3401 123.955C13.1811 123.955 13.0545 124.082 13.0545 124.241C13.0545 124.4 13.1811 124.527 13.3401 124.527ZM16.6814 126.467L17.6676 126.467C17.8265 126.467 17.9531 126.34 17.9531 126.181C17.9531 126.022 17.8265 125.895 17.6676 125.895L16.6814 125.895C16.5224 125.895 16.3958 126.022 16.3958 126.181C16.3958 126.34 16.5224 126.467 16.6814 126.467ZM13.3401 126.467L14.3233 126.467C14.4823 126.467 14.6089 126.34 14.6089 126.181C14.6089 126.022 14.4823 125.895 14.3233 125.895L13.3401 125.895C13.1811 125.895 13.0545 126.022 13.0545 126.181C13.0545 126.34 13.1811 126.467 13.3401 126.467Z" fill="#56E4EE"/>
<path d="M11.2844 111.823C11.358 111.823 11.4316 111.794 11.4875 111.738L12.7769 110.422C12.8888 110.31 12.8859 110.128 12.774 110.019C12.6621 109.907 12.4796 109.91 12.3707 110.022L11.0813 111.337C10.9694 111.449 10.9723 111.632 11.0842 111.741C11.1401 111.797 11.2108 111.823 11.2844 111.823ZM11.2844 114.337C11.358 114.337 11.4316 114.308 11.4875 114.252L12.7769 112.936C12.8888 112.824 12.8859 112.642 12.774 112.533C12.6621 112.424 12.4796 112.424 12.3707 112.536L11.0813 113.852C10.9694 113.963 10.9723 114.146 11.0842 114.255C11.1401 114.311 11.2108 114.337 11.2844 114.337ZM11.2844 116.854C11.358 116.854 11.4316 116.825 11.4875 116.769L12.7769 115.456C12.8888 115.344 12.8859 115.162 12.774 115.053C12.6621 114.941 12.4796 114.944 12.3707 115.056L11.0813 116.369C10.9694 116.48 10.9723 116.663 11.0842 116.772C11.1401 116.825 11.2108 116.854 11.2844 116.854ZM11.2844 119.371C11.358 119.371 11.4316 119.342 11.4875 119.286L12.7769 117.97C12.8888 117.858 12.8859 117.676 12.774 117.567C12.6621 117.455 12.4796 117.458 12.3707 117.57L11.0813 118.886C10.9694 118.997 10.9723 119.18 11.0842 119.289C11.1401 119.345 11.2108 119.371 11.2844 119.371ZM11.2844 121.885C11.358 121.885 11.4316 121.856 11.4875 121.8L12.7769 120.487C12.8888 120.375 12.8859 120.193 12.774 120.084C12.6621 119.972 12.4796 119.975 12.3707 120.087L11.0813 121.4C10.9694 121.512 10.9723 121.694 11.0842 121.803C11.1401 121.859 11.2108 121.885 11.2844 121.885ZM11.2844 124.399C11.358 124.399 11.4316 124.37 11.4875 124.314L12.7769 123.001C12.8888 122.889 12.8859 122.707 12.774 122.598C12.6621 122.486 12.4796 122.489 12.3707 122.601L11.0813 123.914C10.9694 124.026 10.9723 124.208 11.0842 124.317C11.1401 124.373 11.2108 124.399 11.2844 124.399ZM11.4963 126.702C11.5699 126.702 11.6435 126.672 11.6995 126.616L12.7769 125.518C12.8859 125.406 12.8859 125.224 12.771 125.115C12.6592 125.006 12.4767 125.006 12.3677 125.118L11.2903 126.216C11.1813 126.328 11.1813 126.51 11.2962 126.619C11.3521 126.675 11.4227 126.702 11.4963 126.702Z" fill="#3EBED0"/>
<path d="M19.5504 111.821C19.621 111.821 19.6946 111.794 19.7506 111.738C19.8624 111.629 19.8654 111.447 19.7535 111.335L18.467 110.022C18.3551 109.91 18.1756 109.907 18.0637 110.019C17.9518 110.128 17.9489 110.31 18.0608 110.422L19.3472 111.735C19.4032 111.791 19.4768 111.821 19.5504 111.821ZM19.5504 114.335C19.621 114.335 19.6946 114.308 19.7505 114.252C19.8624 114.143 19.8654 113.961 19.7535 113.849L18.467 112.536C18.3551 112.424 18.1756 112.421 18.0637 112.533C17.9518 112.642 17.9489 112.824 18.0608 112.936L19.3472 114.249C19.4032 114.308 19.4768 114.335 19.5504 114.335ZM19.5504 116.852C19.624 116.852 19.6946 116.825 19.7505 116.769C19.8624 116.657 19.8654 116.478 19.7535 116.366L18.467 115.056C18.3551 114.944 18.1756 114.941 18.0637 115.053C17.9518 115.165 17.9489 115.344 18.0608 115.456L19.3472 116.766C19.4032 116.822 19.4768 116.852 19.5504 116.852ZM19.5504 119.369C19.621 119.369 19.6946 119.342 19.7505 119.286C19.8624 119.177 19.8654 118.995 19.7535 118.883L18.467 117.57C18.3551 117.458 18.1756 117.455 18.0637 117.567C17.9518 117.676 17.9489 117.859 18.0608 117.97L19.3472 119.283C19.4032 119.339 19.4768 119.369 19.5504 119.369ZM19.5504 121.883C19.624 121.883 19.6946 121.856 19.7505 121.8C19.8624 121.689 19.8654 121.509 19.7535 121.397L18.467 120.087C18.3551 119.975 18.1756 119.972 18.0637 120.084C17.9518 120.196 17.9489 120.376 18.0608 120.487L19.3472 121.797C19.4032 121.853 19.4768 121.883 19.5504 121.883ZM19.5504 124.397C19.624 124.397 19.6946 124.37 19.7505 124.314C19.8624 124.203 19.8654 124.023 19.7535 123.911L18.467 122.601C18.3551 122.489 18.1756 122.486 18.0637 122.598C17.9518 122.71 17.9489 122.89 18.0608 123.002L19.3472 124.312C19.4032 124.37 19.4768 124.397 19.5504 124.397ZM19.3413 126.702C19.412 126.702 19.4856 126.675 19.5415 126.62C19.6534 126.511 19.6563 126.328 19.5445 126.216L18.467 125.118C18.3551 125.006 18.1756 125.003 18.0637 125.115C17.9518 125.224 17.9489 125.407 18.0608 125.519L19.1382 126.617C19.1942 126.673 19.2678 126.702 19.3413 126.702Z" fill="#3EBED0"/>
<path d="M13.3182 127.843L17.5162 127.843C18.5053 127.843 19.3855 127.216 19.7093 126.282C19.7447 126.182 19.7741 126.07 19.7947 125.961C19.8212 125.823 19.8359 125.673 19.8359 125.523L19.8359 111.324C19.8359 111.277 19.8359 111.23 19.833 111.183C19.8242 111.027 19.7977 110.871 19.7565 110.712C19.7565 110.706 19.7535 110.703 19.7535 110.697C19.6946 110.488 19.6063 110.288 19.4915 110.103C19.0617 109.414 18.3257 109.002 17.5162 109.002L13.3211 109.002C12.2849 109.002 11.3664 109.699 11.0867 110.694C11.0425 110.85 11.0131 111.015 11.0043 111.177C11.0013 111.224 11.0013 111.271 11.0013 111.321L11.0013 125.52C11.0013 125.67 11.016 125.82 11.0455 125.961C11.0661 126.067 11.0926 126.176 11.1309 126.282C11.4488 127.216 12.329 127.843 13.3182 127.843ZM19.1971 110.842C19.1971 110.845 19.2001 110.848 19.2001 110.853C19.2324 110.974 19.253 111.098 19.2619 111.218C19.2648 111.254 19.2648 111.289 19.2648 111.327L19.2648 125.526C19.2648 125.641 19.253 125.752 19.2324 125.858C19.2177 125.944 19.1971 126.02 19.1677 126.094C18.9233 126.8 18.258 127.274 17.5132 127.274L13.3182 127.274C12.5734 127.274 11.908 126.8 11.6666 126.097C11.6372 126.017 11.6166 125.941 11.6019 125.861C11.5813 125.749 11.5695 125.638 11.5695 125.526L11.5695 111.324C11.5695 111.289 11.5695 111.251 11.5724 111.216C11.5813 111.092 11.6019 110.971 11.6343 110.85C11.8462 110.097 12.538 109.573 13.3182 109.573L17.5162 109.573C18.1255 109.573 18.6819 109.882 19.0058 110.403C19.0882 110.538 19.153 110.686 19.1971 110.842Z" fill="#3EBED0"/>
<path d="M45.8394 127.841C45.9984 127.841 46.125 127.714 46.125 127.555L46.125 109.286C46.125 109.127 45.9984 109 45.8394 109C45.6805 109 45.5539 109.127 45.5539 109.286L45.5539 127.555C45.5539 127.711 45.6805 127.841 45.8394 127.841Z" fill="#56E4EE"/>
<path d="M47.4176 127.841C47.5765 127.841 47.7031 127.714 47.7031 127.555L47.7031 109.286C47.7031 109.127 47.5736 109 47.4176 109C47.2586 109 47.132 109.127 47.132 109.286L47.132 127.555C47.132 127.711 47.2586 127.841 47.4176 127.841Z" fill="#3EBED0"/>
<path d="M49.2457 127.841C49.4047 127.841 49.5312 127.714 49.5312 127.555L49.5312 109.286C49.5312 109.127 49.4047 109 49.2457 109C49.0867 109 48.9601 109.127 48.9601 109.286L48.9601 127.555C48.9601 127.711 49.0897 127.841 49.2457 127.841Z" fill="#56E4EE"/>
<path d="M48.6814 110.943L49.6676 110.943C49.8265 110.943 49.9531 110.817 49.9531 110.658C49.9531 110.499 49.8265 110.372 49.6676 110.372L48.6814 110.372C48.5224 110.372 48.3958 110.499 48.3958 110.658C48.3958 110.817 48.5224 110.943 48.6814 110.943ZM45.3401 110.943L46.3233 110.943C46.4823 110.943 46.6089 110.817 46.6089 110.658C46.6089 110.499 46.4823 110.372 46.3233 110.372L45.3401 110.372C45.1811 110.372 45.0545 110.499 45.0545 110.658C45.0545 110.817 45.1811 110.943 45.3401 110.943ZM48.6814 112.886L49.6676 112.886C49.8265 112.886 49.9531 112.76 49.9531 112.601C49.9531 112.442 49.8265 112.315 49.6676 112.315L48.6814 112.315C48.5224 112.315 48.3958 112.442 48.3958 112.601C48.3958 112.757 48.5224 112.886 48.6814 112.886ZM45.3401 112.886L46.3233 112.886C46.4823 112.886 46.6089 112.76 46.6089 112.601C46.6089 112.442 46.4823 112.315 46.3233 112.315L45.3401 112.315C45.1811 112.315 45.0545 112.442 45.0545 112.601C45.0545 112.757 45.1811 112.886 45.3401 112.886ZM48.6814 114.826L49.6676 114.826C49.8265 114.826 49.9531 114.7 49.9531 114.541C49.9531 114.382 49.8265 114.255 49.6676 114.255L48.6814 114.255C48.5224 114.255 48.3958 114.382 48.3958 114.541C48.3958 114.7 48.5224 114.826 48.6814 114.826ZM45.3401 114.826L46.3233 114.826C46.4823 114.826 46.6089 114.7 46.6089 114.541C46.6089 114.382 46.4823 114.255 46.3233 114.255L45.3401 114.255C45.1811 114.255 45.0545 114.382 45.0545 114.541C45.0545 114.7 45.1811 114.826 45.3401 114.826ZM48.6814 116.766L49.6676 116.766C49.8265 116.766 49.9531 116.64 49.9531 116.481C49.9531 116.322 49.8265 116.195 49.6676 116.195L48.6814 116.195C48.5224 116.195 48.3958 116.322 48.3958 116.481C48.3958 116.64 48.5224 116.766 48.6814 116.766ZM45.3401 116.766L46.3233 116.766C46.4823 116.766 46.6089 116.64 46.6089 116.481C46.6089 116.322 46.4823 116.195 46.3233 116.195L45.3401 116.195C45.1811 116.195 45.0545 116.322 45.0545 116.481C45.0545 116.64 45.1811 116.766 45.3401 116.766ZM48.6814 118.706L49.6676 118.706C49.8265 118.706 49.9531 118.58 49.9531 118.421C49.9531 118.262 49.8265 118.135 49.6676 118.135L48.6814 118.135C48.5224 118.135 48.3958 118.262 48.3958 118.421C48.3958 118.577 48.5224 118.706 48.6814 118.706ZM45.3401 118.706L46.3233 118.706C46.4823 118.706 46.6089 118.58 46.6089 118.421C46.6089 118.262 46.4823 118.135 46.3233 118.135L45.3401 118.135C45.1811 118.135 45.0545 118.262 45.0545 118.421C45.0545 118.577 45.1811 118.706 45.3401 118.706ZM48.6814 120.646L49.6676 120.646C49.8265 120.646 49.9531 120.52 49.9531 120.361C49.9531 120.202 49.8265 120.075 49.6676 120.075L48.6814 120.075C48.5224 120.075 48.3958 120.202 48.3958 120.361C48.3958 120.52 48.5224 120.646 48.6814 120.646ZM45.3401 120.646L46.3233 120.646C46.4823 120.646 46.6089 120.52 46.6089 120.361C46.6089 120.202 46.4823 120.075 46.3233 120.075L45.3401 120.075C45.1811 120.075 45.0545 120.202 45.0545 120.361C45.0545 120.52 45.1811 120.646 45.3401 120.646ZM48.6814 122.589L49.6676 122.589C49.8265 122.589 49.9531 122.463 49.9531 122.304C49.9531 122.145 49.8265 122.018 49.6676 122.018L48.6814 122.018C48.5224 122.018 48.3958 122.145 48.3958 122.304C48.3958 122.463 48.5224 122.589 48.6814 122.589ZM45.3401 122.589L46.3233 122.589C46.4823 122.589 46.6089 122.463 46.6089 122.304C46.6089 122.145 46.4823 122.018 46.3233 122.018L45.3401 122.018C45.1811 122.018 45.0545 122.145 45.0545 122.304C45.0545 122.463 45.1811 122.589 45.3401 122.589ZM48.6814 124.527L49.6676 124.527C49.8265 124.527 49.9531 124.4 49.9531 124.241C49.9531 124.082 49.8265 123.955 49.6676 123.955L48.6814 123.955C48.5224 123.955 48.3958 124.082 48.3958 124.241C48.3958 124.4 48.5224 124.527 48.6814 124.527ZM45.3401 124.527L46.3233 124.527C46.4823 124.527 46.6089 124.4 46.6089 124.241C46.6089 124.082 46.4823 123.955 46.3233 123.955L45.3401 123.955C45.1811 123.955 45.0545 124.082 45.0545 124.241C45.0545 124.4 45.1811 124.527 45.3401 124.527ZM48.6814 126.467L49.6676 126.467C49.8265 126.467 49.9531 126.34 49.9531 126.181C49.9531 126.022 49.8265 125.895 49.6676 125.895L48.6814 125.895C48.5224 125.895 48.3958 126.022 48.3958 126.181C48.3958 126.34 48.5224 126.467 48.6814 126.467ZM45.3401 126.467L46.3233 126.467C46.4823 126.467 46.6089 126.34 46.6089 126.181C46.6089 126.022 46.4823 125.895 46.3233 125.895L45.3401 125.895C45.1811 125.895 45.0545 126.022 45.0545 126.181C45.0545 126.34 45.1811 126.467 45.3401 126.467Z" fill="#56E4EE"/>
<path d="M43.2844 111.823C43.358 111.823 43.4316 111.794 43.4875 111.738L44.7769 110.422C44.8888 110.31 44.8859 110.128 44.774 110.019C44.6621 109.907 44.4796 109.91 44.3707 110.022L43.0813 111.337C42.9694 111.449 42.9723 111.632 43.0842 111.741C43.1401 111.797 43.2108 111.823 43.2844 111.823ZM43.2844 114.337C43.358 114.337 43.4316 114.308 43.4875 114.252L44.7769 112.936C44.8888 112.824 44.8859 112.642 44.774 112.533C44.6621 112.424 44.4796 112.424 44.3707 112.536L43.0813 113.852C42.9694 113.963 42.9723 114.146 43.0842 114.255C43.1401 114.311 43.2108 114.337 43.2844 114.337ZM43.2844 116.854C43.358 116.854 43.4316 116.825 43.4875 116.769L44.7769 115.456C44.8888 115.344 44.8859 115.162 44.774 115.053C44.6621 114.941 44.4796 114.944 44.3707 115.056L43.0813 116.369C42.9694 116.48 42.9723 116.663 43.0842 116.772C43.1401 116.825 43.2108 116.854 43.2844 116.854ZM43.2844 119.371C43.358 119.371 43.4316 119.342 43.4875 119.286L44.7769 117.97C44.8888 117.858 44.8859 117.676 44.774 117.567C44.6621 117.455 44.4796 117.458 44.3707 117.57L43.0813 118.886C42.9694 118.997 42.9723 119.18 43.0842 119.289C43.1401 119.345 43.2108 119.371 43.2844 119.371ZM43.2844 121.885C43.358 121.885 43.4316 121.856 43.4875 121.8L44.7769 120.487C44.8888 120.375 44.8859 120.193 44.774 120.084C44.6621 119.972 44.4796 119.975 44.3707 120.087L43.0813 121.4C42.9694 121.512 42.9723 121.694 43.0842 121.803C43.1401 121.859 43.2108 121.885 43.2844 121.885ZM43.2844 124.399C43.358 124.399 43.4316 124.37 43.4875 124.314L44.7769 123.001C44.8888 122.889 44.8859 122.707 44.774 122.598C44.6621 122.486 44.4796 122.489 44.3707 122.601L43.0813 123.914C42.9694 124.026 42.9723 124.208 43.0842 124.317C43.1401 124.373 43.2108 124.399 43.2844 124.399ZM43.4963 126.702C43.5699 126.702 43.6435 126.672 43.6995 126.616L44.7769 125.518C44.8859 125.406 44.8859 125.224 44.771 125.115C44.6592 125.006 44.4767 125.006 44.3677 125.118L43.2903 126.216C43.1813 126.328 43.1813 126.51 43.2962 126.619C43.3521 126.675 43.4227 126.702 43.4963 126.702Z" fill="#3EBED0"/>
<path d="M51.5504 111.821C51.621 111.821 51.6946 111.794 51.7506 111.738C51.8624 111.629 51.8654 111.447 51.7535 111.335L50.467 110.022C50.3551 109.91 50.1756 109.907 50.0637 110.019C49.9518 110.128 49.9489 110.31 50.0608 110.422L51.3472 111.735C51.4032 111.791 51.4768 111.821 51.5504 111.821ZM51.5504 114.335C51.621 114.335 51.6946 114.308 51.7505 114.252C51.8624 114.143 51.8654 113.961 51.7535 113.849L50.467 112.536C50.3551 112.424 50.1756 112.421 50.0637 112.533C49.9518 112.642 49.9489 112.824 50.0608 112.936L51.3472 114.249C51.4032 114.308 51.4768 114.335 51.5504 114.335ZM51.5504 116.852C51.624 116.852 51.6946 116.825 51.7505 116.769C51.8624 116.657 51.8654 116.478 51.7535 116.366L50.467 115.056C50.3551 114.944 50.1756 114.941 50.0637 115.053C49.9518 115.165 49.9489 115.344 50.0608 115.456L51.3472 116.766C51.4032 116.822 51.4768 116.852 51.5504 116.852ZM51.5504 119.369C51.621 119.369 51.6946 119.342 51.7505 119.286C51.8624 119.177 51.8654 118.995 51.7535 118.883L50.467 117.57C50.3551 117.458 50.1756 117.455 50.0637 117.567C49.9518 117.676 49.9489 117.859 50.0608 117.97L51.3472 119.283C51.4032 119.339 51.4768 119.369 51.5504 119.369ZM51.5504 121.883C51.624 121.883 51.6946 121.856 51.7505 121.8C51.8624 121.689 51.8654 121.509 51.7535 121.397L50.467 120.087C50.3551 119.975 50.1756 119.972 50.0637 120.084C49.9518 120.196 49.9489 120.376 50.0608 120.487L51.3472 121.797C51.4032 121.853 51.4768 121.883 51.5504 121.883ZM51.5504 124.397C51.624 124.397 51.6946 124.37 51.7505 124.314C51.8624 124.203 51.8654 124.023 51.7535 123.911L50.467 122.601C50.3551 122.489 50.1756 122.486 50.0637 122.598C49.9518 122.71 49.9489 122.89 50.0608 123.002L51.3472 124.312C51.4032 124.37 51.4768 124.397 51.5504 124.397ZM51.3413 126.702C51.412 126.702 51.4856 126.675 51.5415 126.62C51.6534 126.511 51.6563 126.328 51.5445 126.216L50.467 125.118C50.3551 125.006 50.1756 125.003 50.0637 125.115C49.9518 125.224 49.9489 125.407 50.0608 125.519L51.1382 126.617C51.1942 126.673 51.2678 126.702 51.3413 126.702Z" fill="#3EBED0"/>
<path d="M45.3182 127.843L49.5162 127.843C50.5053 127.843 51.3855 127.216 51.7093 126.282C51.7447 126.182 51.7741 126.07 51.7947 125.961C51.8212 125.823 51.8359 125.673 51.8359 125.523L51.8359 111.324C51.8359 111.277 51.8359 111.23 51.833 111.183C51.8242 111.027 51.7977 110.871 51.7565 110.712C51.7565 110.706 51.7535 110.703 51.7535 110.697C51.6946 110.488 51.6063 110.288 51.4915 110.103C51.0617 109.414 50.3257 109.002 49.5162 109.002L45.3211 109.002C44.2849 109.002 43.3664 109.699 43.0867 110.694C43.0425 110.85 43.0131 111.015 43.0043 111.177C43.0013 111.224 43.0013 111.271 43.0013 111.321L43.0013 125.52C43.0013 125.67 43.016 125.82 43.0455 125.961C43.0661 126.067 43.0926 126.176 43.1309 126.282C43.4488 127.216 44.329 127.843 45.3182 127.843ZM51.1971 110.842C51.1971 110.845 51.2001 110.848 51.2001 110.853C51.2324 110.974 51.253 111.098 51.2619 111.218C51.2648 111.254 51.2648 111.289 51.2648 111.327L51.2648 125.526C51.2648 125.641 51.253 125.752 51.2324 125.858C51.2177 125.944 51.1971 126.02 51.1677 126.094C50.9233 126.8 50.258 127.274 49.5132 127.274L45.3182 127.274C44.5734 127.274 43.908 126.8 43.6666 126.097C43.6372 126.017 43.6166 125.941 43.6019 125.861C43.5813 125.749 43.5695 125.638 43.5695 125.526L43.5695 111.324C43.5695 111.289 43.5695 111.251 43.5724 111.216C43.5813 111.092 43.6019 110.971 43.6343 110.85C43.8462 110.097 44.538 109.573 45.3182 109.573L49.5162 109.573C50.1255 109.573 50.6819 109.882 51.0058 110.403C51.0882 110.538 51.153 110.686 51.1971 110.842Z" fill="#3EBED0"/>
</svg>
