<svg width="43" height="46" viewBox="0 0 43 46" fill="none" xmlns="http://www.w3.org/2000/svg">
<g filter="url(#filter0_d_1675_2939)">
<path d="M29.1651 5.29507C31.2263 7.36023 32.4051 10.1477 32.4523 13.0681C32.4996 15.9885 31.4116 18.8128 29.4184 20.9438L29.1651 21.2063L23.8724 26.5088C23.2009 27.1814 22.2993 27.573 21.3504 27.6043C20.4014 27.6356 19.4761 27.3043 18.7618 26.6776L18.5822 26.5088L13.2882 21.2051C11.1828 19.0953 10 16.2338 10 13.2501C10 10.2664 11.1828 7.40487 13.2882 5.29507C15.3936 3.18527 18.2492 2 21.2267 2C24.2042 2 27.0597 3.18527 29.1651 5.29507ZM21.2267 9.50007C20.7352 9.50007 20.2486 9.59707 19.7946 9.78552C19.3406 9.97398 18.928 10.2502 18.5805 10.5984C18.233 10.9466 17.9574 11.36 17.7693 11.815C17.5813 12.27 17.4845 12.7576 17.4845 13.2501C17.4845 13.7425 17.5813 14.2302 17.7693 14.6851C17.9574 15.1401 18.233 15.5535 18.5805 15.9017C18.928 16.2499 19.3406 16.5262 19.7946 16.7146C20.2486 16.9031 20.7352 17.0001 21.2267 17.0001C22.2192 17.0001 23.171 16.605 23.8728 15.9017C24.5746 15.1985 24.9689 14.2446 24.9689 13.2501C24.9689 12.2555 24.5746 11.3017 23.8728 10.5984C23.171 9.89516 22.2192 9.50007 21.2267 9.50007Z" fill="#FCD116"/>
</g>
<defs>
<filter id="filter0_d_1675_2939" x="0" y="0" width="42.4536" height="45.6063" filterUnits="userSpaceOnUse" color-interpolation-filters="sRGB">
<feFlood flood-opacity="0" result="BackgroundImageFix"/>
<feColorMatrix in="SourceAlpha" type="matrix" values="0 0 0 0 0 0 0 0 0 0 0 0 0 0 0 0 0 0 127 0" result="hardAlpha"/>
<feOffset dy="8"/>
<feGaussianBlur stdDeviation="5"/>
<feComposite in2="hardAlpha" operator="out"/>
<feColorMatrix type="matrix" values="0 0 0 0 0 0 0 0 0 0 0 0 0 0 0 0 0 0 0.25 0"/>
<feBlend mode="normal" in2="BackgroundImageFix" result="effect1_dropShadow_1675_2939"/>
<feBlend mode="normal" in="SourceGraphic" in2="effect1_dropShadow_1675_2939" result="shape"/>
</filter>
</defs>
</svg>
