<svg width="81" height="63" viewBox="0 0 81 63" fill="none" xmlns="http://www.w3.org/2000/svg">
<line x1="9.82812" y1="31.2749" x2="69.8281" y2="31.2749" stroke="white"/>
<path d="M71.8359 8.83838L71.8359 53.8927" stroke="white" strokeLinecap="square"/>
<path d="M70.1953 8.83838L70.1953 53.8927" stroke="white" strokeLinecap="square"/>
<path d="M80.8409 56.5016C80.8409 56.6605 80.7143 56.7871 80.5553 56.7871L62.2856 56.7871C62.1266 56.7871 62 56.6605 62 56.5016C62 56.3426 62.1266 56.216 62.2856 56.216L80.5553 56.216C80.7114 56.216 80.8409 56.3426 80.8409 56.5016Z" fill="#56E4EE"/>
<path d="M80.8409 58.0787C80.8409 58.2377 80.7143 58.3643 80.5553 58.3643L62.2856 58.3643C62.1266 58.3643 62 58.2347 62 58.0787C62 57.9197 62.1266 57.7931 62.2856 57.7931L80.5553 57.7931C80.7114 57.7931 80.8409 57.9197 80.8409 58.0787Z" fill="#3EBED0"/>
<path d="M80.8409 59.9105C80.8409 60.0695 80.7143 60.196 80.5553 60.196L62.2856 60.196C62.1266 60.196 62 60.0695 62 59.9105C62 59.7515 62.1266 59.6249 62.2856 59.6249L80.5553 59.6249C80.7114 59.6249 80.8409 59.7545 80.8409 59.9105Z" fill="#56E4EE"/>
<path d="M63.9422 59.342L63.9422 60.3282C63.9422 60.4872 63.8156 60.6138 63.6567 60.6138C63.4977 60.6138 63.3711 60.4872 63.3711 60.3282L63.3711 59.342C63.3711 59.183 63.4977 59.0565 63.6567 59.0565C63.8156 59.0565 63.9422 59.183 63.9422 59.342ZM63.9422 56.0007L63.9422 56.984C63.9422 57.1429 63.8156 57.2695 63.6567 57.2695C63.4977 57.2695 63.3711 57.1429 63.3711 56.984L63.3711 56.0007C63.3711 55.8417 63.4977 55.7151 63.6567 55.7151C63.8156 55.7151 63.9422 55.8417 63.9422 56.0007ZM65.8852 59.342L65.8852 60.3282C65.8852 60.4872 65.7586 60.6138 65.5996 60.6138C65.4406 60.6138 65.3141 60.4872 65.3141 60.3282L65.3141 59.342C65.3141 59.183 65.4406 59.0565 65.5996 59.0565C65.7556 59.0565 65.8852 59.183 65.8852 59.342ZM65.8852 56.0007L65.8852 56.984C65.8852 57.1429 65.7586 57.2695 65.5996 57.2695C65.4406 57.2695 65.3141 57.1429 65.3141 56.984L65.3141 56.0007C65.3141 55.8417 65.4406 55.7151 65.5996 55.7151C65.7556 55.7151 65.8852 55.8417 65.8852 56.0007ZM67.8252 59.342L67.8252 60.3282C67.8252 60.4872 67.6986 60.6138 67.5396 60.6138C67.3807 60.6138 67.2541 60.4872 67.2541 60.3282L67.2541 59.342C67.2541 59.183 67.3807 59.0565 67.5396 59.0565C67.6986 59.0565 67.8252 59.183 67.8252 59.342ZM67.8252 56.0007L67.8252 56.984C67.8252 57.1429 67.6986 57.2695 67.5396 57.2695C67.3807 57.2695 67.2541 57.1429 67.2541 56.984L67.2541 56.0007C67.2541 55.8417 67.3807 55.7151 67.5396 55.7151C67.6986 55.7151 67.8252 55.8417 67.8252 56.0007ZM69.7652 59.342L69.7652 60.3282C69.7652 60.4872 69.6386 60.6138 69.4797 60.6138C69.3207 60.6138 69.1941 60.4872 69.1941 60.3282L69.1941 59.342C69.1941 59.183 69.3207 59.0565 69.4797 59.0565C69.6386 59.0565 69.7652 59.183 69.7652 59.342ZM69.7652 56.0007L69.7652 56.984C69.7652 57.1429 69.6386 57.2695 69.4797 57.2695C69.3207 57.2695 69.1941 57.1429 69.1941 56.984L69.1941 56.0007C69.1941 55.8417 69.3207 55.7151 69.4797 55.7151C69.6386 55.7151 69.7652 55.8417 69.7652 56.0007ZM71.7052 59.342L71.7052 60.3282C71.7052 60.4872 71.5787 60.6138 71.4197 60.6138C71.2607 60.6138 71.1341 60.4872 71.1341 60.3282L71.1341 59.342C71.1341 59.183 71.2607 59.0565 71.4197 59.0565C71.5757 59.0565 71.7052 59.183 71.7052 59.342ZM71.7052 56.0007L71.7052 56.984C71.7052 57.1429 71.5787 57.2695 71.4197 57.2695C71.2607 57.2695 71.1341 57.1429 71.1341 56.984L71.1341 56.0007C71.1341 55.8417 71.2607 55.7151 71.4197 55.7151C71.5757 55.7151 71.7052 55.8417 71.7052 56.0007ZM73.6453 59.342L73.6453 60.3282C73.6453 60.4872 73.5187 60.6138 73.3597 60.6138C73.2007 60.6138 73.0742 60.4872 73.0742 60.3282L73.0742 59.342C73.0742 59.183 73.2007 59.0565 73.3597 59.0565C73.5187 59.0565 73.6453 59.183 73.6453 59.342ZM73.6453 56.0007L73.6453 56.984C73.6453 57.1429 73.5187 57.2695 73.3597 57.2695C73.2007 57.2695 73.0742 57.1429 73.0742 56.984L73.0742 56.0007C73.0742 55.8417 73.2007 55.7151 73.3597 55.7151C73.5187 55.7151 73.6453 55.8417 73.6453 56.0007ZM75.5882 59.342L75.5882 60.3282C75.5882 60.4872 75.4616 60.6138 75.3027 60.6138C75.1437 60.6138 75.0171 60.4872 75.0171 60.3282L75.0171 59.342C75.0171 59.183 75.1437 59.0565 75.3027 59.0565C75.4616 59.0565 75.5882 59.183 75.5882 59.342ZM75.5882 56.0007L75.5882 56.984C75.5882 57.1429 75.4616 57.2695 75.3027 57.2695C75.1437 57.2695 75.0171 57.1429 75.0171 56.984L75.0171 56.0007C75.0171 55.8417 75.1437 55.7151 75.3027 55.7151C75.4616 55.7151 75.5882 55.8417 75.5882 56.0007ZM77.5253 59.342L77.5253 60.3282C77.5253 60.4872 77.3987 60.6138 77.2398 60.6138C77.0808 60.6138 76.9542 60.4872 76.9542 60.3282L76.9542 59.342C76.9542 59.183 77.0808 59.0565 77.2398 59.0565C77.3987 59.0565 77.5253 59.183 77.5253 59.342ZM77.5253 56.0007L77.5253 56.984C77.5253 57.1429 77.3987 57.2695 77.2398 57.2695C77.0808 57.2695 76.9542 57.1429 76.9542 56.984L76.9542 56.0007C76.9542 55.8417 77.0808 55.7151 77.2398 55.7151C77.3987 55.7151 77.5253 55.8417 77.5253 56.0007ZM79.4653 59.342L79.4653 60.3282C79.4653 60.4872 79.3387 60.6138 79.1798 60.6138C79.0208 60.6138 78.8942 60.4872 78.8942 60.3282L78.8942 59.342C78.8942 59.183 79.0208 59.0565 79.1798 59.0565C79.3387 59.0565 79.4653 59.183 79.4653 59.342ZM79.4653 56.0007L79.4653 56.984C79.4653 57.1429 79.3387 57.2695 79.1798 57.2695C79.0208 57.2695 78.8942 57.1429 78.8942 56.984L78.8942 56.0007C78.8942 55.8417 79.0208 55.7151 79.1798 55.7151C79.3387 55.7151 79.4653 55.8417 79.4653 56.0007Z" fill="#56E4EE"/>
<path d="M64.8245 53.9477C64.8245 54.0213 64.7951 54.0949 64.7392 54.1508L63.4233 55.4403C63.3114 55.5521 63.1289 55.5492 63.0199 55.4373C62.9081 55.3255 62.911 55.1429 63.0229 55.034L64.3388 53.7446C64.4507 53.6327 64.6332 53.6357 64.7421 53.7475C64.7981 53.8035 64.8245 53.8741 64.8245 53.9477ZM67.3386 53.9477C67.3386 54.0213 67.3092 54.0949 67.2533 54.1508L65.9373 55.4403C65.8255 55.5521 65.6429 55.5492 65.534 55.4373C65.4251 55.3255 65.4251 55.1429 65.537 55.034L66.8529 53.7446C66.9648 53.6327 67.1473 53.6357 67.2562 53.7475C67.3121 53.8035 67.3386 53.8741 67.3386 53.9477ZM69.8557 53.9477C69.8557 54.0213 69.8262 54.0949 69.7703 54.1508L68.4573 55.4403C68.3454 55.5521 68.1629 55.5492 68.054 55.4373C67.9421 55.3255 67.9451 55.1429 68.0569 55.034L69.3699 53.7446C69.4818 53.6327 69.6643 53.6357 69.7732 53.7475C69.8262 53.8035 69.8557 53.8741 69.8557 53.9477ZM72.3727 53.9477C72.3727 54.0213 72.3432 54.0949 72.2873 54.1508L70.9714 55.4403C70.8595 55.5521 70.677 55.5492 70.5681 55.4373C70.4562 55.3254 70.4591 55.1429 70.571 55.034L71.8869 53.7446C71.9988 53.6327 72.1813 53.6357 72.2902 53.7475C72.3462 53.8035 72.3727 53.8741 72.3727 53.9477ZM74.8868 53.9477C74.8868 54.0213 74.8573 54.0949 74.8014 54.1508L73.4884 55.4403C73.3765 55.5521 73.194 55.5492 73.0851 55.4373C72.9732 55.3254 72.9762 55.1429 73.088 55.034L74.401 53.7446C74.5129 53.6327 74.6954 53.6357 74.8043 53.7475C74.8603 53.8035 74.8868 53.8741 74.8868 53.9477ZM77.4008 53.9477C77.4008 54.0213 77.3714 54.0949 77.3155 54.1508L76.0025 55.4403C75.8906 55.5521 75.7081 55.5492 75.5992 55.4373C75.4873 55.3254 75.4903 55.1429 75.6021 55.034L76.9151 53.7446C77.027 53.6327 77.2095 53.6357 77.3184 53.7475C77.3743 53.8035 77.4008 53.8741 77.4008 53.9477ZM79.703 54.1597C79.703 54.2333 79.6735 54.3069 79.6176 54.3628L78.5195 55.4403C78.4076 55.5492 78.2251 55.5492 78.1162 55.4344C78.0073 55.3225 78.0073 55.14 78.1191 55.0311L79.2172 53.9536C79.3291 53.8447 79.5116 53.8447 79.6205 53.9595C79.6765 54.0154 79.703 54.0861 79.703 54.1597Z" fill="#3EBED0"/>
<path d="M64.8216 62.2142C64.8216 62.2848 64.7951 62.3584 64.7392 62.4144C64.6303 62.5262 64.4477 62.5292 64.3359 62.4173L63.0229 61.1308C62.911 61.019 62.9081 60.8394 63.0199 60.7275C63.1289 60.6157 63.3114 60.6127 63.4233 60.7246L64.7362 62.0111C64.7922 62.067 64.8216 62.1406 64.8216 62.2142ZM67.3357 62.2142C67.3357 62.2848 67.3092 62.3584 67.2533 62.4144C67.1443 62.5262 66.9618 62.5292 66.8499 62.4173L65.537 61.1308C65.4251 61.019 65.4222 60.8394 65.534 60.7275C65.6429 60.6157 65.8255 60.6127 65.9373 60.7246L67.2503 62.0111C67.3092 62.067 67.3357 62.1406 67.3357 62.2142ZM69.8527 62.2142C69.8527 62.2878 69.8262 62.3584 69.7703 62.4144C69.6584 62.5262 69.4788 62.5292 69.367 62.4173L68.0569 61.1308C67.9451 61.019 67.9421 60.8394 68.054 60.7275C68.1659 60.6157 68.3454 60.6127 68.4573 60.7246L69.7673 62.0111C69.8233 62.067 69.8527 62.1406 69.8527 62.2142ZM72.3697 62.2142C72.3697 62.2848 72.3432 62.3584 72.2873 62.4144C72.1784 62.5262 71.9959 62.5292 71.884 62.4173L70.571 61.1308C70.4591 61.019 70.4562 60.8394 70.5681 60.7275C70.677 60.6157 70.8595 60.6127 70.9714 60.7246L72.2844 62.0111C72.3403 62.067 72.3697 62.1406 72.3697 62.2142ZM74.8838 62.2142C74.8838 62.2878 74.8573 62.3584 74.8014 62.4144C74.6895 62.5262 74.5099 62.5292 74.3981 62.4173L73.088 61.1308C72.9762 61.019 72.9732 60.8394 73.0851 60.7275C73.197 60.6157 73.3765 60.6127 73.4884 60.7246L74.7984 62.0111C74.8544 62.067 74.8838 62.1406 74.8838 62.2142ZM77.3979 62.2142C77.3979 62.2878 77.3714 62.3584 77.3155 62.4144C77.2036 62.5262 77.024 62.5292 76.9122 62.4173L75.6021 61.1308C75.4903 61.019 75.4873 60.8394 75.5992 60.7275C75.711 60.6157 75.8906 60.6127 76.0025 60.7246L77.3125 62.0111C77.3714 62.067 77.3979 62.1406 77.3979 62.2142ZM79.703 62.0052C79.703 62.0758 79.6765 62.1494 79.6205 62.2054C79.5116 62.3172 79.3291 62.3202 79.2172 62.2083L78.1191 61.1308C78.0073 61.019 78.0043 60.8394 78.1162 60.7275C78.2251 60.6157 78.4076 60.6127 78.5195 60.7246L79.6176 61.802C79.6735 61.858 79.703 61.9316 79.703 62.0052Z" fill="#3EBED0"/>
<path d="M80.8409 55.982L80.8409 60.18C80.8409 61.1691 80.2138 62.0493 79.2806 62.3732C79.1805 62.4085 79.0687 62.4379 78.9597 62.4585C78.8214 62.485 78.6712 62.4998 78.5211 62.4998L64.3227 62.4998C64.2756 62.4998 64.2285 62.4998 64.1814 62.4968C64.0254 62.488 63.8694 62.4615 63.7104 62.4203C63.7045 62.4203 63.7016 62.4173 63.6957 62.4173C63.4867 62.3584 63.2865 62.2701 63.101 62.1553C62.4121 61.7255 62 60.9895 62 60.18L62 55.9849C62 54.9487 62.6977 54.0302 63.6927 53.7505C63.8488 53.7064 64.0136 53.6769 64.1755 53.6681C64.2226 53.6651 64.2697 53.6651 64.3198 53.6651L78.5182 53.6651C78.6683 53.6651 78.8184 53.6799 78.9597 53.7093C79.0657 53.7299 79.1746 53.7564 79.2806 53.7947C80.2138 54.1126 80.8409 54.9928 80.8409 55.982ZM63.8399 61.8609C63.8429 61.8609 63.8458 61.8639 63.8517 61.8639C63.9724 61.8963 64.096 61.9169 64.2167 61.9257C64.2521 61.9286 64.2874 61.9286 64.3257 61.9286L78.524 61.9286C78.6389 61.9286 78.7507 61.9169 78.8567 61.8963C78.9421 61.8815 79.0186 61.8609 79.0922 61.8315C79.7988 61.5871 80.2727 60.9218 80.2727 60.177L80.2727 55.982C80.2727 55.2372 79.7988 54.5719 79.0952 54.3305C79.0157 54.301 78.9391 54.2804 78.8596 54.2657C78.7478 54.2451 78.6359 54.2333 78.524 54.2333L64.3227 54.2333C64.2874 54.2333 64.2491 54.2333 64.2138 54.2363C64.0902 54.2451 63.9695 54.2657 63.8488 54.2981C63.0951 54.51 62.5711 55.2019 62.5711 55.982L62.5711 60.18C62.5711 60.7894 62.8802 61.3458 63.4013 61.6696C63.5367 61.752 63.6839 61.8168 63.8399 61.8609Z" fill="#3EBED0"/>
<path d="M80.8409 2.83822C80.8409 2.99719 80.7143 3.12378 80.5553 3.12378L62.2856 3.12378C62.1266 3.12378 62 2.99719 62 2.83822C62 2.67925 62.1266 2.55266 62.2856 2.55266L80.5553 2.55266C80.7114 2.55266 80.8409 2.67925 80.8409 2.83822Z" fill="#56E4EE"/>
<path d="M80.8409 4.41659C80.8409 4.57556 80.7143 4.70215 80.5553 4.70215L62.2856 4.70215C62.1266 4.70215 62 4.57262 62 4.41659C62 4.25762 62.1266 4.13103 62.2856 4.13103L80.5553 4.13103C80.7114 4.13103 80.8409 4.25762 80.8409 4.41659Z" fill="#3EBED0"/>
<path d="M80.8409 6.24838C80.8409 6.40735 80.7143 6.53393 80.5553 6.53393L62.2856 6.53394C62.1266 6.53394 62 6.40735 62 6.24838C62 6.08941 62.1266 5.96282 62.2856 5.96282L80.5553 5.96282C80.7114 5.96282 80.8409 6.09235 80.8409 6.24838Z" fill="#56E4EE"/>
<path d="M63.9422 5.6799L63.9422 6.6661C63.9422 6.82507 63.8156 6.95166 63.6567 6.95166C63.4977 6.95166 63.3711 6.82507 63.3711 6.6661L63.3711 5.6799C63.3711 5.52093 63.4977 5.39434 63.6567 5.39434C63.8156 5.39434 63.9422 5.52093 63.9422 5.6799ZM63.9422 2.33859L63.9422 3.32184C63.9422 3.48081 63.8156 3.6074 63.6567 3.6074C63.4977 3.6074 63.3711 3.48081 63.3711 3.32184L63.3711 2.33859C63.3711 2.17962 63.4977 2.05303 63.6567 2.05303C63.8156 2.05303 63.9422 2.17962 63.9422 2.33859ZM65.8852 5.6799L65.8852 6.6661C65.8852 6.82507 65.7586 6.95166 65.5996 6.95166C65.4406 6.95166 65.3141 6.82507 65.3141 6.6661L65.3141 5.6799C65.3141 5.52093 65.4406 5.39434 65.5996 5.39434C65.7556 5.39434 65.8852 5.52093 65.8852 5.6799ZM65.8852 2.33859L65.8852 3.32184C65.8852 3.48081 65.7586 3.6074 65.5996 3.6074C65.4406 3.6074 65.3141 3.48081 65.3141 3.32184L65.3141 2.33859C65.3141 2.17962 65.4406 2.05303 65.5996 2.05303C65.7556 2.05303 65.8852 2.17962 65.8852 2.33859ZM67.8252 5.6799L67.8252 6.6661C67.8252 6.82507 67.6986 6.95166 67.5396 6.95166C67.3807 6.95166 67.2541 6.82507 67.2541 6.6661L67.2541 5.6799C67.2541 5.52093 67.3807 5.39434 67.5396 5.39434C67.6986 5.39434 67.8252 5.52093 67.8252 5.6799ZM67.8252 2.33859L67.8252 3.32184C67.8252 3.48081 67.6986 3.6074 67.5396 3.6074C67.3807 3.6074 67.2541 3.48081 67.2541 3.32184L67.2541 2.33859C67.2541 2.17962 67.3807 2.05303 67.5396 2.05303C67.6986 2.05303 67.8252 2.17962 67.8252 2.33859ZM69.7652 5.6799L69.7652 6.6661C69.7652 6.82507 69.6386 6.95166 69.4797 6.95166C69.3207 6.95166 69.1941 6.82507 69.1941 6.6661L69.1941 5.6799C69.1941 5.52093 69.3207 5.39434 69.4797 5.39434C69.6386 5.39434 69.7652 5.52093 69.7652 5.6799ZM69.7652 2.33859L69.7652 3.32184C69.7652 3.48081 69.6386 3.6074 69.4797 3.6074C69.3207 3.6074 69.1941 3.48081 69.1941 3.32184L69.1941 2.33859C69.1941 2.17962 69.3207 2.05303 69.4797 2.05303C69.6386 2.05303 69.7652 2.17962 69.7652 2.33859ZM71.7052 5.6799L71.7052 6.6661C71.7052 6.82507 71.5787 6.95166 71.4197 6.95166C71.2607 6.95166 71.1341 6.82507 71.1341 6.6661L71.1341 5.6799C71.1341 5.52093 71.2607 5.39434 71.4197 5.39434C71.5757 5.39434 71.7052 5.52093 71.7052 5.6799ZM71.7052 2.33859L71.7052 3.32184C71.7052 3.48081 71.5787 3.6074 71.4197 3.6074C71.2607 3.6074 71.1341 3.48081 71.1341 3.32184L71.1341 2.33859C71.1341 2.17962 71.2607 2.05303 71.4197 2.05303C71.5757 2.05303 71.7052 2.17962 71.7052 2.33859ZM73.6453 5.6799L73.6453 6.6661C73.6453 6.82507 73.5187 6.95166 73.3597 6.95166C73.2007 6.95166 73.0742 6.82507 73.0742 6.6661L73.0742 5.6799C73.0742 5.52093 73.2007 5.39434 73.3597 5.39434C73.5187 5.39434 73.6453 5.52093 73.6453 5.6799ZM73.6453 2.33859L73.6453 3.32184C73.6453 3.48081 73.5187 3.6074 73.3597 3.6074C73.2007 3.6074 73.0742 3.48081 73.0742 3.32184L73.0742 2.33859C73.0742 2.17962 73.2007 2.05303 73.3597 2.05303C73.5187 2.05303 73.6453 2.17962 73.6453 2.33859ZM75.5882 5.6799L75.5882 6.6661C75.5882 6.82507 75.4616 6.95166 75.3027 6.95166C75.1437 6.95166 75.0171 6.82507 75.0171 6.6661L75.0171 5.6799C75.0171 5.52093 75.1437 5.39434 75.3027 5.39434C75.4616 5.39434 75.5882 5.52093 75.5882 5.6799ZM75.5882 2.33859L75.5882 3.32184C75.5882 3.48081 75.4616 3.6074 75.3027 3.6074C75.1437 3.6074 75.0171 3.48081 75.0171 3.32184L75.0171 2.33859C75.0171 2.17962 75.1437 2.05303 75.3027 2.05303C75.4616 2.05303 75.5882 2.17962 75.5882 2.33859ZM77.5253 5.6799L77.5253 6.6661C77.5253 6.82507 77.3987 6.95166 77.2398 6.95166C77.0808 6.95166 76.9542 6.82507 76.9542 6.6661L76.9542 5.6799C76.9542 5.52093 77.0808 5.39434 77.2398 5.39434C77.3987 5.39434 77.5253 5.52093 77.5253 5.6799ZM77.5253 2.33859L77.5253 3.32184C77.5253 3.48081 77.3987 3.6074 77.2398 3.6074C77.0808 3.6074 76.9542 3.48081 76.9542 3.32184L76.9542 2.33859C76.9542 2.17962 77.0808 2.05303 77.2398 2.05303C77.3987 2.05303 77.5253 2.17962 77.5253 2.33859ZM79.4653 5.6799L79.4653 6.6661C79.4653 6.82507 79.3387 6.95166 79.1798 6.95166C79.0208 6.95166 78.8942 6.82507 78.8942 6.6661L78.8942 5.6799C78.8942 5.52093 79.0208 5.39434 79.1798 5.39434C79.3387 5.39434 79.4653 5.52093 79.4653 5.6799ZM79.4653 2.33859L79.4653 3.32184C79.4653 3.48081 79.3387 3.6074 79.1798 3.6074C79.0208 3.6074 78.8942 3.48081 78.8942 3.32184L78.8942 2.33859C78.8942 2.17962 79.0208 2.05303 79.1798 2.05303C79.3387 2.05303 79.4653 2.17962 79.4653 2.33859Z" fill="#56E4EE"/>
<path d="M64.8245 0.285601C64.8245 0.359198 64.7951 0.432796 64.7392 0.48873L63.4233 1.77815C63.3114 1.89002 63.1289 1.88708 63.0199 1.77521C62.9081 1.66334 62.911 1.48082 63.0229 1.3719L64.3388 0.0824726C64.4507 -0.0293952 64.6332 -0.0264518 64.7421 0.085416C64.7981 0.14135 64.8245 0.212003 64.8245 0.285601ZM67.3386 0.2856C67.3386 0.359198 67.3092 0.432796 67.2533 0.488729L65.9373 1.77815C65.8255 1.89002 65.6429 1.88708 65.534 1.77521C65.4251 1.66334 65.4251 1.48082 65.537 1.3719L66.8529 0.0824725C66.9648 -0.0293953 67.1473 -0.0264519 67.2562 0.0854159C67.3121 0.14135 67.3386 0.212003 67.3386 0.2856ZM69.8557 0.2856C69.8557 0.359198 69.8262 0.432795 69.7703 0.488729L68.4573 1.77815C68.3454 1.89002 68.1629 1.88708 68.054 1.77521C67.9421 1.66334 67.9451 1.48082 68.0569 1.3719L69.3699 0.0824724C69.4818 -0.0293954 69.6643 -0.026452 69.7732 0.0854158C69.8262 0.14135 69.8557 0.212003 69.8557 0.2856ZM72.3727 0.2856C72.3727 0.359197 72.3432 0.432795 72.2873 0.488729L70.9714 1.77815C70.8595 1.89002 70.677 1.88708 70.5681 1.77521C70.4562 1.66334 70.4591 1.48082 70.571 1.3719L71.8869 0.0824723C71.9988 -0.0293955 72.1813 -0.0264521 72.2902 0.0854157C72.3462 0.14135 72.3727 0.212003 72.3727 0.2856ZM74.8868 0.2856C74.8868 0.359197 74.8573 0.432795 74.8014 0.488729L73.4884 1.77815C73.3765 1.89002 73.194 1.88708 73.0851 1.77521C72.9732 1.66334 72.9762 1.48082 73.088 1.3719L74.401 0.0824722C74.5129 -0.0293956 74.6954 -0.0264522 74.8043 0.0854156C74.8603 0.141349 74.8868 0.212003 74.8868 0.2856ZM77.4008 0.2856C77.4008 0.359197 77.3714 0.432795 77.3155 0.488729L76.0025 1.77815C75.8906 1.89002 75.7081 1.88708 75.5992 1.77521C75.4873 1.66334 75.4903 1.48082 75.6021 1.3719L76.9151 0.0824721C77.027 -0.0293957 77.2095 -0.0264523 77.3184 0.0854154C77.3743 0.141349 77.4008 0.212003 77.4008 0.2856ZM79.703 0.49756C79.703 0.571157 79.6735 0.644754 79.6176 0.700688L78.5195 1.77815C78.4076 1.88708 78.2251 1.88708 78.1162 1.77226C78.0073 1.6604 78.0073 1.47787 78.1191 1.36895L79.2172 0.291488C79.3291 0.182564 79.5116 0.182564 79.6205 0.297376C79.6765 0.35331 79.703 0.423963 79.703 0.49756Z" fill="#3EBED0"/>
<path d="M64.8216 8.5511C64.8216 8.62175 64.7951 8.69535 64.7392 8.75128C64.6303 8.86315 64.4477 8.86609 64.3359 8.75423L63.0229 7.46775C62.911 7.35588 62.9081 7.1763 63.0199 7.06443C63.1289 6.95257 63.3114 6.94962 63.4233 7.06149L64.7362 8.34797C64.7922 8.4039 64.8216 8.4775 64.8216 8.5511ZM67.3357 8.5511C67.3357 8.62175 67.3092 8.69535 67.2533 8.75128C67.1443 8.86315 66.9618 8.86609 66.8499 8.75423L65.537 7.46775C65.4251 7.35588 65.4222 7.1763 65.534 7.06443C65.6429 6.95257 65.8255 6.94962 65.9373 7.06149L67.2503 8.34797C67.3092 8.4039 67.3357 8.4775 67.3357 8.5511ZM69.8527 8.5511C69.8527 8.6247 69.8262 8.69535 69.7703 8.75128C69.6584 8.86315 69.4788 8.86609 69.367 8.75423L68.0569 7.46775C67.9451 7.35588 67.9421 7.1763 68.054 7.06443C68.1659 6.95257 68.3454 6.94962 68.4573 7.06149L69.7673 8.34797C69.8233 8.4039 69.8527 8.4775 69.8527 8.5511ZM72.3697 8.5511C72.3697 8.62175 72.3432 8.69535 72.2873 8.75128C72.1784 8.86315 71.9959 8.86609 71.884 8.75423L70.571 7.46775C70.4591 7.35588 70.4562 7.1763 70.5681 7.06443C70.677 6.95257 70.8595 6.94962 70.9714 7.06149L72.2844 8.34797C72.3403 8.4039 72.3697 8.4775 72.3697 8.5511ZM74.8838 8.5511C74.8838 8.6247 74.8573 8.69535 74.8014 8.75128C74.6895 8.86315 74.5099 8.86609 74.3981 8.75423L73.088 7.46775C72.9762 7.35588 72.9732 7.1763 73.0851 7.06443C73.197 6.95257 73.3765 6.94962 73.4884 7.06149L74.7984 8.34797C74.8544 8.4039 74.8838 8.4775 74.8838 8.5511ZM77.3979 8.5511C77.3979 8.6247 77.3714 8.69535 77.3155 8.75128C77.2036 8.86315 77.024 8.86609 76.9122 8.75423L75.6021 7.46775C75.4903 7.35588 75.4873 7.1763 75.5992 7.06443C75.711 6.95257 75.8906 6.94962 76.0025 7.06149L77.3125 8.34797C77.3714 8.4039 77.3979 8.4775 77.3979 8.5511ZM79.703 8.34208C79.703 8.41273 79.6765 8.48633 79.6205 8.54227C79.5116 8.65413 79.3291 8.65708 79.2172 8.54521L78.1191 7.46775C78.0073 7.35588 78.0043 7.1763 78.1162 7.06443C78.2251 6.95257 78.4076 6.94962 78.5195 7.06149L79.6176 8.13895C79.6735 8.19489 79.703 8.26848 79.703 8.34208Z" fill="#3EBED0"/>
<path d="M80.8409 2.3189L80.8409 6.51688C80.8409 7.50603 80.2138 8.38625 79.2806 8.71008C79.1805 8.74541 79.0687 8.77485 78.9597 8.79545C78.8214 8.82195 78.6712 8.83667 78.5211 8.83667L64.3227 8.83667C64.2756 8.83667 64.2285 8.83667 64.1814 8.83373C64.0254 8.82489 63.8694 8.7984 63.7104 8.75718C63.7045 8.75718 63.7016 8.75424 63.6957 8.75424C63.4867 8.69536 63.2865 8.60705 63.101 8.49223C62.4121 8.06243 62 7.32645 62 6.51689L62 2.32185C62 1.2856 62.6977 0.367103 63.6927 0.087434C63.8488 0.0432757 64.0136 0.013836 64.1755 0.00500435C64.2226 0.00206046 64.2697 0.00206095 64.3198 0.00206094L78.5182 0.00206032C78.6683 0.00206032 78.8184 0.0167802 78.9597 0.0462191C79.0657 0.0668263 79.1746 0.0933204 79.2806 0.131591C80.2138 0.449531 80.8409 1.32975 80.8409 2.3189ZM63.8399 8.19785C63.8429 8.19785 63.8458 8.20079 63.8517 8.20079C63.9724 8.23317 64.096 8.25378 64.2167 8.26261C64.2521 8.26556 64.2874 8.26556 64.3257 8.26556L78.524 8.26555C78.6389 8.26555 78.7507 8.25378 78.8567 8.23317C78.9421 8.21845 79.0186 8.19785 79.0922 8.16841C79.7988 7.92406 80.2727 7.25875 80.2727 6.51394L80.2727 2.3189C80.2727 1.5741 79.7988 0.908777 79.0952 0.667379C79.0157 0.63794 78.9391 0.617333 78.8596 0.602614C78.7478 0.582007 78.6359 0.570231 78.524 0.570231L64.3227 0.570231C64.2874 0.570231 64.2491 0.570231 64.2138 0.573175C64.0902 0.582007 63.9695 0.602615 63.8488 0.634997C63.0951 0.846957 62.5711 1.53877 62.5711 2.3189L62.5711 6.51689C62.5711 7.12627 62.8802 7.68267 63.4013 8.00649C63.5367 8.08892 63.6839 8.15369 63.8399 8.19785Z" fill="#3EBED0"/>
<path d="M9.83203 8.83838L9.83203 53.8927" stroke="white" strokeLinecap="square"/>
<path d="M8.19141 8.83838L8.19141 53.8927" stroke="white" strokeLinecap="square"/>
<path d="M18.8409 56.5016C18.8409 56.6605 18.7143 56.7871 18.5553 56.7871L0.285557 56.7871C0.126587 56.7871 -5.53332e-09 56.6605 -1.24821e-08 56.5016C-1.94309e-08 56.3426 0.126587 56.216 0.285557 56.216L18.5553 56.216C18.7114 56.216 18.8409 56.3426 18.8409 56.5016Z" fill="#56E4EE"/>
<path d="M18.8409 58.0787C18.8409 58.2377 18.7143 58.3643 18.5553 58.3643L0.285557 58.3643C0.126587 58.3643 -5.66198e-09 58.2347 -1.24821e-08 58.0787C-1.94309e-08 57.9197 0.126587 57.7931 0.285557 57.7931L18.5553 57.7931C18.7114 57.7931 18.8409 57.9197 18.8409 58.0787Z" fill="#3EBED0"/>
<path d="M18.8409 59.9105C18.8409 60.0695 18.7143 60.196 18.5553 60.196L0.285557 60.196C0.126587 60.196 -5.53332e-09 60.0695 -1.24821e-08 59.9105C-1.94309e-08 59.7515 0.126587 59.6249 0.285557 59.6249L18.5553 59.6249C18.7114 59.6249 18.8409 59.7545 18.8409 59.9105Z" fill="#56E4EE"/>
<path d="M1.9383 59.342L1.9383 60.3282C1.9383 60.4872 1.81171 60.6138 1.65274 60.6138C1.49377 60.6138 1.36719 60.4872 1.36719 60.3282L1.36719 59.342C1.36719 59.183 1.49377 59.0565 1.65274 59.0565C1.81171 59.0565 1.9383 59.183 1.9383 59.342ZM1.9383 56.0007L1.9383 56.984C1.9383 57.1429 1.81171 57.2695 1.65274 57.2695C1.49377 57.2695 1.36719 57.1429 1.36719 56.984L1.36719 56.0007C1.36719 55.8417 1.49377 55.7151 1.65274 55.7151C1.81171 55.7151 1.9383 55.8417 1.9383 56.0007ZM3.88127 59.342L3.88127 60.3282C3.88127 60.4872 3.75468 60.6138 3.59571 60.6138C3.43674 60.6138 3.31015 60.4872 3.31015 60.3282L3.31015 59.342C3.31015 59.183 3.43674 59.0565 3.59571 59.0565C3.75174 59.0565 3.88127 59.183 3.88127 59.342ZM3.88127 56.0007L3.88127 56.984C3.88127 57.1429 3.75468 57.2695 3.59571 57.2695C3.43674 57.2695 3.31015 57.1429 3.31015 56.984L3.31015 56.0007C3.31015 55.8417 3.43674 55.7151 3.59571 55.7151C3.75174 55.7151 3.88127 55.8417 3.88127 56.0007ZM5.82129 59.342L5.82129 60.3282C5.82129 60.4872 5.6947 60.6138 5.53573 60.6138C5.37676 60.6138 5.25018 60.4872 5.25018 60.3282L5.25018 59.342C5.25018 59.183 5.37676 59.0565 5.53573 59.0565C5.6947 59.0565 5.82129 59.183 5.82129 59.342ZM5.82129 56.0007L5.82129 56.984C5.82129 57.1429 5.6947 57.2695 5.53573 57.2695C5.37676 57.2695 5.25018 57.1429 5.25018 56.984L5.25018 56.0007C5.25018 55.8417 5.37676 55.7151 5.53573 55.7151C5.6947 55.7151 5.82129 55.8417 5.82129 56.0007ZM7.76131 59.342L7.76131 60.3282C7.76131 60.4872 7.63473 60.6138 7.47576 60.6138C7.31679 60.6138 7.1902 60.4872 7.1902 60.3282L7.1902 59.342C7.1902 59.183 7.31679 59.0565 7.47576 59.0565C7.63473 59.0565 7.76131 59.183 7.76131 59.342ZM7.76131 56.0007L7.76131 56.984C7.76131 57.1429 7.63473 57.2695 7.47576 57.2695C7.31679 57.2695 7.1902 57.1429 7.1902 56.984L7.1902 56.0007C7.1902 55.8417 7.31679 55.7151 7.47576 55.7151C7.63473 55.7151 7.76131 55.8417 7.76131 56.0007ZM9.70134 59.342L9.70134 60.3282C9.70134 60.4872 9.57475 60.6138 9.41578 60.6138C9.25681 60.6138 9.13022 60.4872 9.13022 60.3282L9.13022 59.342C9.13022 59.183 9.25681 59.0565 9.41578 59.0565C9.57181 59.0565 9.70134 59.183 9.70134 59.342ZM9.70134 56.0007L9.70134 56.984C9.70134 57.1429 9.57475 57.2695 9.41578 57.2695C9.25681 57.2695 9.13022 57.1429 9.13022 56.984L9.13022 56.0007C9.13022 55.8417 9.25681 55.7151 9.41578 55.7151C9.5718 55.7151 9.70134 55.8417 9.70134 56.0007ZM11.6414 59.342L11.6414 60.3282C11.6414 60.4872 11.5148 60.6138 11.3558 60.6138C11.1968 60.6138 11.0702 60.4872 11.0702 60.3282L11.0702 59.342C11.0702 59.183 11.1968 59.0565 11.3558 59.0565C11.5148 59.0565 11.6414 59.183 11.6414 59.342ZM11.6414 56.0007L11.6414 56.984C11.6414 57.1429 11.5148 57.2695 11.3558 57.2695C11.1968 57.2695 11.0702 57.1429 11.0702 56.984L11.0702 56.0007C11.0702 55.8417 11.1968 55.7151 11.3558 55.7151C11.5148 55.7151 11.6414 55.8417 11.6414 56.0007ZM13.5843 59.342L13.5843 60.3282C13.5843 60.4872 13.4577 60.6138 13.2988 60.6138C13.1398 60.6138 13.0132 60.4872 13.0132 60.3282L13.0132 59.342C13.0132 59.183 13.1398 59.0565 13.2988 59.0565C13.4577 59.0565 13.5843 59.183 13.5843 59.342ZM13.5843 56.0007L13.5843 56.984C13.5843 57.1429 13.4577 57.2695 13.2988 57.2695C13.1398 57.2695 13.0132 57.1429 13.0132 56.984L13.0132 56.0007C13.0132 55.8417 13.1398 55.7151 13.2988 55.7151C13.4577 55.7151 13.5843 55.8417 13.5843 56.0007ZM15.5214 59.342L15.5214 60.3282C15.5214 60.4872 15.3948 60.6138 15.2358 60.6138C15.0769 60.6138 14.9503 60.4872 14.9503 60.3282L14.9503 59.342C14.9503 59.183 15.0769 59.0565 15.2358 59.0565C15.3948 59.0565 15.5214 59.183 15.5214 59.342ZM15.5214 56.0007L15.5214 56.984C15.5214 57.1429 15.3948 57.2695 15.2358 57.2695C15.0769 57.2695 14.9503 57.1429 14.9503 56.984L14.9503 56.0007C14.9503 55.8417 15.0769 55.7151 15.2358 55.7151C15.3948 55.7151 15.5214 55.8417 15.5214 56.0007ZM17.4614 59.342L17.4614 60.3282C17.4614 60.4872 17.3348 60.6138 17.1759 60.6138C17.0169 60.6138 16.8903 60.4872 16.8903 60.3282L16.8903 59.342C16.8903 59.183 17.0169 59.0565 17.1759 59.0565C17.3348 59.0565 17.4614 59.183 17.4614 59.342ZM17.4614 56.0007L17.4614 56.984C17.4614 57.1429 17.3348 57.2695 17.1759 57.2695C17.0169 57.2695 16.8903 57.1429 16.8903 56.984L16.8903 56.0007C16.8903 55.8417 17.0169 55.7151 17.1759 55.7151C17.3348 55.7151 17.4614 55.8417 17.4614 56.0007Z" fill="#56E4EE"/>
<path d="M2.82455 53.9477C2.82455 54.0213 2.79511 54.0949 2.73917 54.1508L1.42326 55.4403C1.31139 55.5521 1.12887 55.5492 1.01994 55.4373C0.908076 55.3255 0.91102 55.1429 1.02289 55.034L2.33881 53.7446C2.45067 53.6327 2.63319 53.6357 2.74212 53.7475C2.79805 53.8035 2.82455 53.8741 2.82455 53.9477ZM5.33863 53.9477C5.33863 54.0213 5.30919 54.0949 5.25325 54.1508L3.93734 55.4403C3.82547 55.5521 3.64295 55.5492 3.53402 55.4373C3.4251 55.3255 3.4251 55.1429 3.53697 55.034L4.85289 53.7446C4.96475 53.6327 5.14727 53.6357 5.2562 53.7475C5.31213 53.8035 5.33863 53.8741 5.33863 53.9477ZM7.85565 53.9477C7.85565 54.0213 7.82621 54.0949 7.77028 54.1508L6.45731 55.4403C6.34544 55.5521 6.16292 55.5492 6.05399 55.4373C5.94212 55.3255 5.94507 55.1429 6.05694 55.034L7.36991 53.7446C7.48178 53.6327 7.6643 53.6357 7.77322 53.7475C7.82621 53.8035 7.85565 53.8741 7.85565 53.9477ZM10.3727 53.9477C10.3727 54.0213 10.3432 54.0949 10.2873 54.1508L8.97139 55.4403C8.85952 55.5521 8.677 55.5492 8.56807 55.4373C8.45621 55.3254 8.45915 55.1429 8.57102 55.034L9.88694 53.7446C9.9988 53.6327 10.1813 53.6357 10.2902 53.7475C10.3462 53.8035 10.3727 53.8741 10.3727 53.9477ZM12.8868 53.9477C12.8868 54.0213 12.8573 54.0949 12.8014 54.1508L11.4884 55.4403C11.3765 55.5521 11.194 55.5492 11.0851 55.4373C10.9732 55.3254 10.9762 55.1429 11.088 55.034L12.401 53.7446C12.5129 53.6327 12.6954 53.6357 12.8043 53.7475C12.8603 53.8035 12.8868 53.8741 12.8868 53.9477ZM15.4008 53.9477C15.4008 54.0213 15.3714 54.0949 15.3155 54.1508L14.0025 55.4403C13.8906 55.5521 13.7081 55.5492 13.5992 55.4373C13.4873 55.3254 13.4903 55.1429 13.6021 55.034L14.9151 53.7446C15.027 53.6327 15.2095 53.6357 15.3184 53.7475C15.3743 53.8035 15.4008 53.8741 15.4008 53.9477ZM17.703 54.1597C17.703 54.2333 17.6735 54.3069 17.6176 54.3628L16.5195 55.4403C16.4076 55.5492 16.2251 55.5492 16.1162 55.4344C16.0073 55.3225 16.0073 55.14 16.1191 55.0311L17.2172 53.9536C17.3291 53.8447 17.5116 53.8447 17.6205 53.9595C17.6765 54.0154 17.703 54.0861 17.703 54.1597Z" fill="#3EBED0"/>
<path d="M2.8177 62.2142C2.8177 62.2848 2.7912 62.3584 2.73527 62.4144C2.62634 62.5262 2.44382 62.5292 2.33196 62.4173L1.01898 61.1308C0.907113 61.019 0.904169 60.8394 1.01604 60.7275C1.12496 60.6157 1.30748 60.6127 1.41935 60.7246L2.73232 62.0111C2.78826 62.067 2.8177 62.1406 2.8177 62.2142ZM5.33178 62.2142C5.33178 62.2848 5.30528 62.3584 5.24935 62.4144C5.14042 62.5262 4.9579 62.5292 4.84604 62.4173L3.53306 61.1308C3.42119 61.019 3.41825 60.8394 3.53012 60.7275C3.63904 60.6157 3.82156 60.6127 3.93343 60.7246L5.2464 62.0111C5.30528 62.067 5.33178 62.1406 5.33178 62.2142ZM7.8488 62.2142C7.8488 62.2878 7.82231 62.3584 7.76637 62.4144C7.65451 62.5262 7.47493 62.5292 7.36306 62.4173L6.05303 61.1308C5.94116 61.019 5.93822 60.8394 6.05009 60.7275C6.16195 60.6157 6.34153 60.6127 6.4534 60.7246L7.76343 62.0111C7.81936 62.067 7.8488 62.1406 7.8488 62.2142ZM10.3658 62.2142C10.3658 62.2848 10.3393 62.3584 10.2834 62.4144C10.1745 62.5262 9.99195 62.5292 9.88008 62.4173L8.56711 61.1308C8.45524 61.019 8.4523 60.8394 8.56417 60.7275C8.67309 60.6157 8.85561 60.6127 8.96748 60.7246L10.2805 62.0111C10.3364 62.067 10.3658 62.1406 10.3658 62.2142ZM12.8799 62.2142C12.8799 62.2878 12.8534 62.3584 12.7975 62.4144C12.6856 62.5262 12.506 62.5292 12.3942 62.4173L11.0841 61.1308C10.9723 61.019 10.9693 60.8394 11.0812 60.7275C11.1931 60.6157 11.3726 60.6127 11.4845 60.7246L12.7945 62.0111C12.8505 62.067 12.8799 62.1406 12.8799 62.2142ZM15.394 62.2142C15.394 62.2878 15.3675 62.3584 15.3116 62.4144C15.1997 62.5262 15.0201 62.5292 14.9082 62.4173L13.5982 61.1308C13.4863 61.019 13.4834 60.8394 13.5953 60.7275C13.7071 60.6157 13.8867 60.6127 13.9986 60.7246L15.3086 62.0111C15.3675 62.067 15.394 62.1406 15.394 62.2142ZM17.6991 62.0052C17.6991 62.0758 17.6726 62.1494 17.6166 62.2054C17.5077 62.3172 17.3252 62.3202 17.2133 62.2083L16.1152 61.1308C16.0034 61.019 16.0004 60.8394 16.1123 60.7275C16.2212 60.6157 16.4037 60.6127 16.5156 60.7246L17.6137 61.802C17.6696 61.858 17.6991 61.9316 17.6991 62.0052Z" fill="#3EBED0"/>
<path d="M18.8409 55.9817L18.8409 60.1797C18.8409 61.1689 18.2138 62.0491 17.2806 62.3729C17.1805 62.4083 17.0687 62.4377 16.9597 62.4583C16.8214 62.4848 16.6712 62.4995 16.5211 62.4995L2.32273 62.4995C2.27563 62.4995 2.22852 62.4995 2.18142 62.4966C2.0254 62.4877 1.86937 62.4612 1.7104 62.42C1.70451 62.42 1.70157 62.4171 1.69568 62.4171C1.48666 62.3582 1.28648 62.2699 1.10101 62.1551C0.412144 61.7253 -6.60136e-08 60.9893 -1.01401e-07 60.1797L-2.84772e-07 55.9847C-3.30068e-07 54.9484 0.697701 54.0299 1.69274 53.7503C1.84876 53.7061 2.01362 53.6767 2.17553 53.6678C2.22264 53.6649 2.26974 53.6649 2.31978 53.6649L16.5182 53.6649C16.6683 53.6649 16.8184 53.6796 16.9597 53.7091C17.0657 53.7297 17.1746 53.7562 17.2806 53.7944C18.2138 54.1124 18.8409 54.9926 18.8409 55.9817ZM1.83993 61.8607C1.84287 61.8607 1.84582 61.8636 1.85171 61.8636C1.97241 61.896 2.09605 61.9166 2.21675 61.9255C2.25207 61.9284 2.2874 61.9284 2.32567 61.9284L16.524 61.9284C16.6389 61.9284 16.7507 61.9166 16.8567 61.896C16.9421 61.8813 17.0186 61.8607 17.0922 61.8312C17.7988 61.5869 18.2727 60.9216 18.2727 60.1768L18.2727 55.9817C18.2727 55.2369 17.7988 54.5716 17.0952 54.3302C17.0157 54.3008 16.9391 54.2802 16.8596 54.2655C16.7478 54.2448 16.6359 54.2331 16.524 54.2331L2.32273 54.2331C2.2874 54.2331 2.24913 54.2331 2.2138 54.236C2.09016 54.2448 1.96946 54.2655 1.84876 54.2978C1.09513 54.5098 0.571114 55.2016 0.571114 55.9817L0.571114 60.1797C0.571114 60.7891 0.880223 61.3455 1.40129 61.6693C1.53671 61.7518 1.6839 61.8165 1.83993 61.8607Z" fill="#3EBED0"/>
<path d="M18.8409 2.83847C18.8409 2.99744 18.7143 3.12402 18.5553 3.12402L0.285557 3.12402C0.126587 3.12402 -5.53332e-09 2.99744 -1.24821e-08 2.83847C-1.94309e-08 2.6795 0.126587 2.55291 0.285557 2.55291L18.5553 2.55291C18.7114 2.55291 18.8409 2.6795 18.8409 2.83847Z" fill="#56E4EE"/>
<path d="M18.8409 4.41683C18.8409 4.5758 18.7143 4.70239 18.5553 4.70239L0.285557 4.70239C0.126587 4.70239 -5.66198e-09 4.57286 -1.24821e-08 4.41684C-1.94309e-08 4.25787 0.126587 4.13128 0.285557 4.13128L18.5553 4.13128C18.7114 4.13128 18.8409 4.25786 18.8409 4.41683Z" fill="#3EBED0"/>
<path d="M18.8409 6.24862C18.8409 6.40759 18.7143 6.53418 18.5553 6.53418L0.285557 6.53418C0.126587 6.53418 -5.53332e-09 6.40759 -1.24821e-08 6.24862C-1.94309e-08 6.08965 0.126587 5.96307 0.285557 5.96307L18.5553 5.96306C18.7114 5.96306 18.8409 6.0926 18.8409 6.24862Z" fill="#56E4EE"/>
<path d="M1.9383 5.67892L1.9383 6.66513C1.9383 6.8241 1.81171 6.95068 1.65274 6.95068C1.49377 6.95068 1.36719 6.8241 1.36719 6.66513L1.36719 5.67892C1.36719 5.51995 1.49377 5.39337 1.65274 5.39337C1.81171 5.39337 1.9383 5.51995 1.9383 5.67892ZM1.9383 2.33761L1.9383 3.32087C1.9383 3.47984 1.81171 3.60643 1.65274 3.60643C1.49377 3.60643 1.36719 3.47984 1.36719 3.32087L1.36719 2.33761C1.36719 2.17864 1.49377 2.05205 1.65274 2.05205C1.81171 2.05205 1.9383 2.17864 1.9383 2.33761ZM3.88127 5.67892L3.88127 6.66513C3.88127 6.8241 3.75468 6.95068 3.59571 6.95068C3.43674 6.95068 3.31015 6.8241 3.31015 6.66513L3.31015 5.67892C3.31015 5.51995 3.43674 5.39337 3.59571 5.39337C3.75174 5.39337 3.88127 5.51995 3.88127 5.67892ZM3.88127 2.33761L3.88127 3.32087C3.88127 3.47984 3.75468 3.60643 3.59571 3.60643C3.43674 3.60643 3.31015 3.47984 3.31015 3.32087L3.31015 2.33761C3.31015 2.17864 3.43674 2.05205 3.59571 2.05205C3.75174 2.05205 3.88127 2.17864 3.88127 2.33761ZM5.82129 5.67892L5.82129 6.66513C5.82129 6.8241 5.6947 6.95068 5.53573 6.95068C5.37676 6.95068 5.25018 6.8241 5.25018 6.66513L5.25018 5.67892C5.25018 5.51995 5.37676 5.39337 5.53573 5.39337C5.6947 5.39337 5.82129 5.51995 5.82129 5.67892ZM5.82129 2.33761L5.82129 3.32087C5.82129 3.47984 5.6947 3.60643 5.53573 3.60643C5.37676 3.60643 5.25018 3.47984 5.25018 3.32087L5.25018 2.33761C5.25018 2.17864 5.37676 2.05205 5.53573 2.05205C5.6947 2.05205 5.82129 2.17864 5.82129 2.33761ZM7.76131 5.67892L7.76131 6.66513C7.76131 6.8241 7.63473 6.95068 7.47576 6.95068C7.31679 6.95068 7.1902 6.8241 7.1902 6.66513L7.1902 5.67892C7.1902 5.51995 7.31679 5.39337 7.47576 5.39337C7.63473 5.39337 7.76131 5.51995 7.76131 5.67892ZM7.76131 2.33761L7.76131 3.32087C7.76131 3.47984 7.63473 3.60643 7.47576 3.60643C7.31679 3.60643 7.1902 3.47984 7.1902 3.32087L7.1902 2.33761C7.1902 2.17864 7.31679 2.05205 7.47576 2.05205C7.63473 2.05205 7.76131 2.17864 7.76131 2.33761ZM9.70134 5.67892L9.70134 6.66513C9.70134 6.8241 9.57475 6.95068 9.41578 6.95068C9.25681 6.95068 9.13022 6.8241 9.13022 6.66513L9.13022 5.67892C9.13022 5.51995 9.25681 5.39337 9.41578 5.39337C9.57181 5.39337 9.70134 5.51995 9.70134 5.67892ZM9.70134 2.33761L9.70134 3.32087C9.70134 3.47984 9.57475 3.60643 9.41578 3.60643C9.25681 3.60643 9.13022 3.47984 9.13022 3.32087L9.13022 2.33761C9.13022 2.17864 9.25681 2.05205 9.41578 2.05205C9.5718 2.05205 9.70134 2.17864 9.70134 2.33761ZM11.6414 5.67892L11.6414 6.66513C11.6414 6.8241 11.5148 6.95068 11.3558 6.95068C11.1968 6.95068 11.0702 6.8241 11.0702 6.66513L11.0702 5.67892C11.0702 5.51995 11.1968 5.39337 11.3558 5.39337C11.5148 5.39337 11.6414 5.51995 11.6414 5.67892ZM11.6414 2.33761L11.6414 3.32087C11.6414 3.47984 11.5148 3.60643 11.3558 3.60643C11.1968 3.60643 11.0702 3.47984 11.0702 3.32087L11.0702 2.33761C11.0702 2.17864 11.1968 2.05205 11.3558 2.05205C11.5148 2.05205 11.6414 2.17864 11.6414 2.33761ZM13.5843 5.67892L13.5843 6.66513C13.5843 6.8241 13.4577 6.95068 13.2988 6.95068C13.1398 6.95068 13.0132 6.8241 13.0132 6.66513L13.0132 5.67892C13.0132 5.51995 13.1398 5.39337 13.2988 5.39337C13.4577 5.39337 13.5843 5.51995 13.5843 5.67892ZM13.5843 2.33761L13.5843 3.32087C13.5843 3.47984 13.4577 3.60643 13.2988 3.60643C13.1398 3.60643 13.0132 3.47984 13.0132 3.32087L13.0132 2.33761C13.0132 2.17864 13.1398 2.05205 13.2988 2.05205C13.4577 2.05205 13.5843 2.17864 13.5843 2.33761ZM15.5214 5.67892L15.5214 6.66513C15.5214 6.8241 15.3948 6.95068 15.2358 6.95068C15.0769 6.95068 14.9503 6.8241 14.9503 6.66513L14.9503 5.67892C14.9503 5.51995 15.0769 5.39337 15.2358 5.39337C15.3948 5.39337 15.5214 5.51995 15.5214 5.67892ZM15.5214 2.33761L15.5214 3.32087C15.5214 3.47984 15.3948 3.60643 15.2358 3.60643C15.0769 3.60643 14.9503 3.47984 14.9503 3.32087L14.9503 2.33761C14.9503 2.17864 15.0769 2.05205 15.2358 2.05205C15.3948 2.05205 15.5214 2.17864 15.5214 2.33761ZM17.4614 5.67892L17.4614 6.66513C17.4614 6.8241 17.3348 6.95068 17.1759 6.95068C17.0169 6.95068 16.8903 6.8241 16.8903 6.66513L16.8903 5.67892C16.8903 5.51995 17.0169 5.39337 17.1759 5.39337C17.3348 5.39337 17.4614 5.51995 17.4614 5.67892ZM17.4614 2.33761L17.4614 3.32087C17.4614 3.47984 17.3348 3.60643 17.1759 3.60643C17.0169 3.60643 16.8903 3.47984 16.8903 3.32087L16.8903 2.33761C16.8903 2.17864 17.0169 2.05205 17.1759 2.05205C17.3348 2.05205 17.4614 2.17864 17.4614 2.33761Z" fill="#56E4EE"/>
<path d="M2.82455 0.285845C2.82455 0.359442 2.79511 0.43304 2.73917 0.488974L1.42326 1.7784C1.31139 1.89026 1.12887 1.88732 1.01994 1.77545C0.908076 1.66359 0.91102 1.48106 1.02289 1.37214L2.33881 0.0827168C2.45067 -0.029151 2.63319 -0.0262076 2.74212 0.0856601C2.79805 0.141594 2.82455 0.212247 2.82455 0.285845ZM5.33863 0.285845C5.33863 0.359442 5.30919 0.43304 5.25325 0.488974L3.93734 1.7784C3.82547 1.89026 3.64295 1.88732 3.53402 1.77545C3.4251 1.66358 3.4251 1.48106 3.53697 1.37214L4.85289 0.0827166C4.96475 -0.0291511 5.14727 -0.0262077 5.2562 0.08566C5.31213 0.141594 5.33863 0.212247 5.33863 0.285845ZM7.85565 0.285844C7.85565 0.359442 7.82621 0.43304 7.77028 0.488973L6.45731 1.7784C6.34544 1.89026 6.16292 1.88732 6.05399 1.77545C5.94212 1.66358 5.94507 1.48106 6.05694 1.37214L7.36991 0.0827165C7.48178 -0.0291512 7.6643 -0.0262078 7.77322 0.0856599C7.82621 0.141594 7.85565 0.212247 7.85565 0.285844ZM10.3727 0.285844C10.3727 0.359442 10.3432 0.433039 10.2873 0.488973L8.97139 1.7784C8.85952 1.89026 8.677 1.88732 8.56807 1.77545C8.45621 1.66358 8.45915 1.48106 8.57102 1.37214L9.88694 0.0827164C9.9988 -0.0291513 10.1813 -0.026208 10.2902 0.0856598C10.3462 0.141594 10.3727 0.212247 10.3727 0.285844ZM12.8868 0.285844C12.8868 0.359441 12.8573 0.433039 12.8014 0.488973L11.4884 1.7784C11.3765 1.89026 11.194 1.88732 11.0851 1.77545C10.9732 1.66358 10.9762 1.48106 11.088 1.37214L12.401 0.0827163C12.5129 -0.0291515 12.6954 -0.0262081 12.8043 0.0856597C12.8603 0.141594 12.8868 0.212247 12.8868 0.285844ZM15.4008 0.285844C15.4008 0.359441 15.3714 0.433039 15.3155 0.488973L14.0025 1.7784C13.8906 1.89026 13.7081 1.88732 13.5992 1.77545C13.4873 1.66358 13.4903 1.48106 13.6021 1.37214L14.9151 0.0827162C15.027 -0.0291516 15.2095 -0.0262082 15.3184 0.0856596C15.3743 0.141593 15.4008 0.212247 15.4008 0.285844ZM17.703 0.497804C17.703 0.571402 17.6735 0.644998 17.6176 0.700932L16.5195 1.7784C16.4076 1.88732 16.2251 1.88732 16.1162 1.77251C16.0073 1.66064 16.0073 1.47812 16.1191 1.3692L17.2172 0.291732C17.3291 0.182808 17.5116 0.182808 17.6205 0.29762C17.6765 0.353554 17.703 0.424207 17.703 0.497804Z" fill="#3EBED0"/>
<path d="M2.8177 8.55134C2.8177 8.622 2.7912 8.69559 2.73527 8.75153C2.62634 8.86339 2.44382 8.86634 2.33196 8.75447L1.01898 7.46799C0.907113 7.35612 0.904169 7.17655 1.01604 7.06468C1.12496 6.95281 1.30748 6.94987 1.41935 7.06173L2.73232 8.34821C2.78826 8.40415 2.8177 8.47775 2.8177 8.55134ZM5.33178 8.55134C5.33178 8.622 5.30528 8.69559 5.24935 8.75153C5.14042 8.86339 4.9579 8.86634 4.84604 8.75447L3.53306 7.46799C3.42119 7.35612 3.41825 7.17655 3.53012 7.06468C3.63904 6.95281 3.82156 6.94987 3.93343 7.06173L5.2464 8.34821C5.30528 8.40415 5.33178 8.47775 5.33178 8.55134ZM7.8488 8.55134C7.8488 8.62494 7.82231 8.69559 7.76637 8.75153C7.65451 8.86339 7.47493 8.86634 7.36306 8.75447L6.05303 7.46799C5.94116 7.35612 5.93822 7.17655 6.05009 7.06468C6.16195 6.95281 6.34153 6.94987 6.4534 7.06173L7.76343 8.34821C7.81936 8.40415 7.8488 8.47775 7.8488 8.55134ZM10.3658 8.55134C10.3658 8.622 10.3393 8.69559 10.2834 8.75153C10.1745 8.86339 9.99195 8.86634 9.88008 8.75447L8.56711 7.46799C8.45524 7.35612 8.4523 7.17655 8.56417 7.06468C8.67309 6.95281 8.85561 6.94987 8.96748 7.06173L10.2805 8.34821C10.3364 8.40415 10.3658 8.47775 10.3658 8.55134ZM12.8799 8.55134C12.8799 8.62494 12.8534 8.69559 12.7975 8.75153C12.6856 8.86339 12.506 8.86634 12.3942 8.75447L11.0841 7.46799C10.9723 7.35612 10.9693 7.17655 11.0812 7.06468C11.1931 6.95281 11.3726 6.94987 11.4845 7.06173L12.7945 8.34821C12.8505 8.40415 12.8799 8.47775 12.8799 8.55134ZM15.394 8.55134C15.394 8.62494 15.3675 8.69559 15.3116 8.75153C15.1997 8.86339 15.0201 8.86634 14.9082 8.75447L13.5982 7.46799C13.4863 7.35612 13.4834 7.17655 13.5953 7.06468C13.7071 6.95281 13.8867 6.94987 13.9986 7.06173L15.3086 8.34821C15.3675 8.40415 15.394 8.47774 15.394 8.55134ZM17.6991 8.34233C17.6991 8.41298 17.6726 8.48658 17.6166 8.54251C17.5077 8.65438 17.3252 8.65732 17.2133 8.54545L16.1152 7.46799C16.0034 7.35612 16.0004 7.17655 16.1123 7.06468C16.2212 6.95281 16.4037 6.94987 16.5156 7.06173L17.6137 8.1392C17.6696 8.19513 17.6991 8.26873 17.6991 8.34233Z" fill="#3EBED0"/>
<path d="M18.8409 2.31914L18.8409 6.51713C18.8409 7.50628 18.2138 8.3865 17.2806 8.71033C17.1805 8.74565 17.0687 8.77509 16.9597 8.7957C16.8214 8.82219 16.6712 8.83691 16.5211 8.83691L2.32273 8.83691C2.27563 8.83691 2.22852 8.83691 2.18142 8.83397C2.0254 8.82514 1.86937 8.79864 1.7104 8.75743C1.70451 8.75743 1.70157 8.75448 1.69568 8.75448C1.48666 8.69561 1.28648 8.60729 1.10101 8.49248C0.412144 8.06267 -6.60136e-08 7.3267 -1.01401e-07 6.51713L-2.84772e-07 2.32209C-3.30068e-07 1.28584 0.697701 0.367348 1.69274 0.0876781C1.84876 0.0435198 2.01362 0.0140802 2.17553 0.00524849C2.22264 0.0023046 2.26974 0.00230509 2.31978 0.00230509L16.5182 0.00230446C16.6683 0.00230446 16.8184 0.0170243 16.9597 0.0464632C17.0657 0.0670704 17.1746 0.0935646 17.2806 0.131835C18.2138 0.449775 18.8409 1.33 18.8409 2.31914ZM1.83993 8.19809C1.84287 8.19809 1.84582 8.20103 1.85171 8.20103C1.97241 8.23342 2.09605 8.25402 2.21675 8.26286C2.25207 8.2658 2.2874 8.2658 2.32567 8.2658L16.524 8.2658C16.6389 8.2658 16.7507 8.25402 16.8567 8.23342C16.9421 8.2187 17.0186 8.19809 17.0922 8.16865C17.7988 7.92431 18.2727 7.25899 18.2727 6.51419L18.2727 2.31914C18.2727 1.57434 17.7988 0.909022 17.0952 0.667623C17.0157 0.638184 16.9391 0.617577 16.8596 0.602858C16.7478 0.582251 16.6359 0.570475 16.524 0.570475L2.32273 0.570476C2.2874 0.570476 2.24913 0.570475 2.2138 0.573419C2.09016 0.582251 1.96946 0.602859 1.84876 0.635242C1.09513 0.847202 0.571114 1.53901 0.571114 2.31914L0.571114 6.51713C0.571114 7.12651 0.880223 7.68291 1.40129 8.00674C1.53671 8.08917 1.6839 8.15393 1.83993 8.19809Z" fill="#3EBED0"/>
</svg>
