<svg width="81" height="63" viewBox="0 0 81 63" fill="none" xmlns="http://www.w3.org/2000/svg">
<line x1="9.82812" y1="31.2756" x2="69.8281" y2="31.2756" stroke="white"/>
<path d="M71.8438 20.0007L71.8438 43.0007" stroke="white" strokeLinecap="square"/>
<path d="M69.8438 20.0007L69.8438 43.0007" stroke="white" strokeLinecap="square"/>
<path d="M80.8409 56.5025C80.8409 56.6615 80.7143 56.7881 80.5553 56.7881L62.2856 56.7881C62.1266 56.7881 62 56.6615 62 56.5025C62 56.3436 62.1266 56.217 62.2856 56.217L80.5553 56.217C80.7114 56.217 80.8409 56.3436 80.8409 56.5025Z" fill="#56E4EE"/>
<path d="M80.8409 58.0797C80.8409 58.2386 80.7143 58.3652 80.5553 58.3652L62.2856 58.3652C62.1266 58.3652 62 58.2357 62 58.0797C62 57.9207 62.1266 57.7941 62.2856 57.7941L80.5553 57.7941C80.7114 57.7941 80.8409 57.9207 80.8409 58.0797Z" fill="#3EBED0"/>
<path d="M80.8409 59.9115C80.8409 60.0704 80.7143 60.197 80.5553 60.197L62.2856 60.197C62.1266 60.197 62 60.0704 62 59.9115C62 59.7525 62.1266 59.6259 62.2856 59.6259L80.5553 59.6259C80.7114 59.6259 80.8409 59.7554 80.8409 59.9115Z" fill="#56E4EE"/>
<path d="M63.9422 59.343L63.9422 60.3292C63.9422 60.4882 63.8156 60.6147 63.6567 60.6147C63.4977 60.6147 63.3711 60.4882 63.3711 60.3292L63.3711 59.343C63.3711 59.184 63.4977 59.0574 63.6567 59.0574C63.8156 59.0574 63.9422 59.184 63.9422 59.343ZM63.9422 56.0017L63.9422 56.9849C63.9422 57.1439 63.8156 57.2705 63.6567 57.2705C63.4977 57.2705 63.3711 57.1439 63.3711 56.9849L63.3711 56.0017C63.3711 55.8427 63.4977 55.7161 63.6567 55.7161C63.8156 55.7161 63.9422 55.8427 63.9422 56.0017ZM65.8852 59.343L65.8852 60.3292C65.8852 60.4882 65.7586 60.6147 65.5996 60.6147C65.4406 60.6147 65.3141 60.4882 65.3141 60.3292L65.3141 59.343C65.3141 59.184 65.4406 59.0574 65.5996 59.0574C65.7556 59.0574 65.8852 59.184 65.8852 59.343ZM65.8852 56.0017L65.8852 56.9849C65.8852 57.1439 65.7586 57.2705 65.5996 57.2705C65.4406 57.2705 65.3141 57.1439 65.3141 56.9849L65.3141 56.0017C65.3141 55.8427 65.4406 55.7161 65.5996 55.7161C65.7556 55.7161 65.8852 55.8427 65.8852 56.0017ZM67.8252 59.343L67.8252 60.3292C67.8252 60.4882 67.6986 60.6147 67.5396 60.6147C67.3807 60.6147 67.2541 60.4882 67.2541 60.3292L67.2541 59.343C67.2541 59.184 67.3807 59.0574 67.5396 59.0574C67.6986 59.0574 67.8252 59.184 67.8252 59.343ZM67.8252 56.0017L67.8252 56.9849C67.8252 57.1439 67.6986 57.2705 67.5396 57.2705C67.3807 57.2705 67.2541 57.1439 67.2541 56.9849L67.2541 56.0017C67.2541 55.8427 67.3807 55.7161 67.5396 55.7161C67.6986 55.7161 67.8252 55.8427 67.8252 56.0017ZM69.7652 59.343L69.7652 60.3292C69.7652 60.4882 69.6386 60.6147 69.4797 60.6147C69.3207 60.6147 69.1941 60.4882 69.1941 60.3292L69.1941 59.343C69.1941 59.184 69.3207 59.0574 69.4797 59.0574C69.6386 59.0574 69.7652 59.184 69.7652 59.343ZM69.7652 56.0017L69.7652 56.9849C69.7652 57.1439 69.6386 57.2705 69.4797 57.2705C69.3207 57.2705 69.1941 57.1439 69.1941 56.9849L69.1941 56.0017C69.1941 55.8427 69.3207 55.7161 69.4797 55.7161C69.6386 55.7161 69.7652 55.8427 69.7652 56.0017ZM71.7052 59.343L71.7052 60.3292C71.7052 60.4882 71.5787 60.6147 71.4197 60.6147C71.2607 60.6147 71.1341 60.4882 71.1341 60.3292L71.1341 59.343C71.1341 59.184 71.2607 59.0574 71.4197 59.0574C71.5757 59.0574 71.7052 59.184 71.7052 59.343ZM71.7052 56.0017L71.7052 56.9849C71.7052 57.1439 71.5787 57.2705 71.4197 57.2705C71.2607 57.2705 71.1341 57.1439 71.1341 56.9849L71.1341 56.0017C71.1341 55.8427 71.2607 55.7161 71.4197 55.7161C71.5757 55.7161 71.7052 55.8427 71.7052 56.0017ZM73.6453 59.343L73.6453 60.3292C73.6453 60.4882 73.5187 60.6147 73.3597 60.6147C73.2007 60.6147 73.0742 60.4882 73.0742 60.3292L73.0742 59.343C73.0742 59.184 73.2007 59.0574 73.3597 59.0574C73.5187 59.0574 73.6453 59.184 73.6453 59.343ZM73.6453 56.0017L73.6453 56.9849C73.6453 57.1439 73.5187 57.2705 73.3597 57.2705C73.2007 57.2705 73.0742 57.1439 73.0742 56.9849L73.0742 56.0017C73.0742 55.8427 73.2007 55.7161 73.3597 55.7161C73.5187 55.7161 73.6453 55.8427 73.6453 56.0017ZM75.5882 59.343L75.5882 60.3292C75.5882 60.4882 75.4616 60.6147 75.3027 60.6147C75.1437 60.6147 75.0171 60.4882 75.0171 60.3292L75.0171 59.343C75.0171 59.184 75.1437 59.0574 75.3027 59.0574C75.4616 59.0574 75.5882 59.184 75.5882 59.343ZM75.5882 56.0017L75.5882 56.9849C75.5882 57.1439 75.4616 57.2705 75.3027 57.2705C75.1437 57.2705 75.0171 57.1439 75.0171 56.9849L75.0171 56.0017C75.0171 55.8427 75.1437 55.7161 75.3027 55.7161C75.4616 55.7161 75.5882 55.8427 75.5882 56.0017ZM77.5253 59.343L77.5253 60.3292C77.5253 60.4882 77.3987 60.6147 77.2398 60.6147C77.0808 60.6147 76.9542 60.4882 76.9542 60.3292L76.9542 59.343C76.9542 59.184 77.0808 59.0574 77.2398 59.0574C77.3987 59.0574 77.5253 59.184 77.5253 59.343ZM77.5253 56.0017L77.5253 56.9849C77.5253 57.1439 77.3987 57.2705 77.2398 57.2705C77.0808 57.2705 76.9542 57.1439 76.9542 56.9849L76.9542 56.0017C76.9542 55.8427 77.0808 55.7161 77.2398 55.7161C77.3987 55.7161 77.5253 55.8427 77.5253 56.0017ZM79.4653 59.343L79.4653 60.3292C79.4653 60.4882 79.3387 60.6147 79.1798 60.6147C79.0208 60.6147 78.8942 60.4882 78.8942 60.3292L78.8942 59.343C78.8942 59.184 79.0208 59.0574 79.1798 59.0574C79.3387 59.0574 79.4653 59.184 79.4653 59.343ZM79.4653 56.0017L79.4653 56.9849C79.4653 57.1439 79.3387 57.2705 79.1798 57.2705C79.0208 57.2705 78.8942 57.1439 78.8942 56.9849L78.8942 56.0017C78.8942 55.8427 79.0208 55.7161 79.1798 55.7161C79.3387 55.7161 79.4653 55.8427 79.4653 56.0017Z" fill="#56E4EE"/>
<path d="M64.8245 53.9487C64.8245 54.0223 64.7951 54.0959 64.7392 54.1518L63.4233 55.4412C63.3114 55.5531 63.1289 55.5502 63.0199 55.4383C62.9081 55.3264 62.911 55.1439 63.0229 55.035L64.3388 53.7456C64.4507 53.6337 64.6332 53.6366 64.7421 53.7485C64.7981 53.8044 64.8245 53.8751 64.8245 53.9487ZM67.3386 53.9487C67.3386 54.0223 67.3092 54.0959 67.2533 54.1518L65.9373 55.4412C65.8255 55.5531 65.6429 55.5502 65.534 55.4383C65.4251 55.3264 65.4251 55.1439 65.537 55.035L66.8529 53.7456C66.9648 53.6337 67.1473 53.6366 67.2562 53.7485C67.3121 53.8044 67.3386 53.8751 67.3386 53.9487ZM69.8557 53.9487C69.8557 54.0223 69.8262 54.0959 69.7703 54.1518L68.4573 55.4412C68.3454 55.5531 68.1629 55.5502 68.054 55.4383C67.9421 55.3264 67.9451 55.1439 68.0569 55.035L69.3699 53.7456C69.4818 53.6337 69.6643 53.6366 69.7732 53.7485C69.8262 53.8044 69.8557 53.8751 69.8557 53.9487ZM72.3727 53.9487C72.3727 54.0223 72.3432 54.0959 72.2873 54.1518L70.9714 55.4412C70.8595 55.5531 70.677 55.5502 70.5681 55.4383C70.4562 55.3264 70.4591 55.1439 70.571 55.035L71.8869 53.7456C71.9988 53.6337 72.1813 53.6366 72.2902 53.7485C72.3462 53.8044 72.3727 53.8751 72.3727 53.9487ZM74.8868 53.9487C74.8868 54.0223 74.8573 54.0959 74.8014 54.1518L73.4884 55.4412C73.3765 55.5531 73.194 55.5502 73.0851 55.4383C72.9732 55.3264 72.9762 55.1439 73.088 55.035L74.401 53.7456C74.5129 53.6337 74.6954 53.6366 74.8043 53.7485C74.8603 53.8044 74.8868 53.8751 74.8868 53.9487ZM77.4008 53.9487C77.4008 54.0223 77.3714 54.0959 77.3155 54.1518L76.0025 55.4412C75.8906 55.5531 75.7081 55.5502 75.5992 55.4383C75.4873 55.3264 75.4903 55.1439 75.6021 55.035L76.9151 53.7456C77.027 53.6337 77.2095 53.6366 77.3184 53.7485C77.3743 53.8044 77.4008 53.8751 77.4008 53.9487ZM79.703 54.1606C79.703 54.2342 79.6735 54.3078 79.6176 54.3638L78.5195 55.4412C78.4076 55.5502 78.2251 55.5502 78.1162 55.4353C78.0073 55.3235 78.0073 55.141 78.1191 55.032L79.2172 53.9546C79.3291 53.8456 79.5116 53.8456 79.6205 53.9605C79.6765 54.0164 79.703 54.087 79.703 54.1606Z" fill="#3EBED0"/>
<path d="M64.8216 62.2152C64.8216 62.2858 64.7951 62.3594 64.7392 62.4153C64.6303 62.5272 64.4477 62.5302 64.3359 62.4183L63.0229 61.1318C62.911 61.0199 62.9081 60.8404 63.0199 60.7285C63.1289 60.6166 63.3114 60.6137 63.4233 60.7256L64.7362 62.012C64.7922 62.068 64.8216 62.1416 64.8216 62.2152ZM67.3357 62.2152C67.3357 62.2858 67.3092 62.3594 67.2533 62.4153C67.1443 62.5272 66.9618 62.5302 66.8499 62.4183L65.537 61.1318C65.4251 61.0199 65.4222 60.8404 65.534 60.7285C65.6429 60.6166 65.8255 60.6137 65.9373 60.7256L67.2503 62.012C67.3092 62.068 67.3357 62.1416 67.3357 62.2152ZM69.8527 62.2152C69.8527 62.2888 69.8262 62.3594 69.7703 62.4153C69.6584 62.5272 69.4788 62.5302 69.367 62.4183L68.0569 61.1318C67.9451 61.0199 67.9421 60.8404 68.054 60.7285C68.1659 60.6166 68.3454 60.6137 68.4573 60.7256L69.7673 62.012C69.8233 62.068 69.8527 62.1416 69.8527 62.2152ZM72.3697 62.2152C72.3697 62.2858 72.3432 62.3594 72.2873 62.4153C72.1784 62.5272 71.9959 62.5302 71.884 62.4183L70.571 61.1318C70.4591 61.0199 70.4562 60.8404 70.5681 60.7285C70.677 60.6166 70.8595 60.6137 70.9714 60.7256L72.2844 62.012C72.3403 62.068 72.3697 62.1416 72.3697 62.2152ZM74.8838 62.2152C74.8838 62.2888 74.8573 62.3594 74.8014 62.4153C74.6895 62.5272 74.5099 62.5302 74.3981 62.4183L73.088 61.1318C72.9762 61.0199 72.9732 60.8404 73.0851 60.7285C73.197 60.6166 73.3765 60.6137 73.4884 60.7256L74.7984 62.012C74.8544 62.068 74.8838 62.1416 74.8838 62.2152ZM77.3979 62.2152C77.3979 62.2888 77.3714 62.3594 77.3155 62.4153C77.2036 62.5272 77.024 62.5302 76.9122 62.4183L75.6021 61.1318C75.4903 61.0199 75.4873 60.8404 75.5992 60.7285C75.711 60.6166 75.8906 60.6137 76.0025 60.7256L77.3125 62.012C77.3714 62.068 77.3979 62.1416 77.3979 62.2152ZM79.703 62.0061C79.703 62.0768 79.6765 62.1504 79.6205 62.2063C79.5116 62.3182 79.3291 62.3211 79.2172 62.2093L78.1191 61.1318C78.0073 61.0199 78.0043 60.8404 78.1162 60.7285C78.2251 60.6166 78.4076 60.6137 78.5195 60.7256L79.6176 61.803C79.6735 61.8589 79.703 61.9325 79.703 62.0061Z" fill="#3EBED0"/>
<path d="M80.8409 55.983L80.8409 60.1809C80.8409 61.1701 80.2138 62.0503 79.2806 62.3741C79.1805 62.4095 79.0687 62.4389 78.9597 62.4595C78.8214 62.486 78.6712 62.5007 78.5211 62.5007L64.3227 62.5007C64.2756 62.5007 64.2285 62.5007 64.1814 62.4978C64.0254 62.489 63.8694 62.4625 63.7104 62.4212C63.7045 62.4212 63.7016 62.4183 63.6957 62.4183C63.4867 62.3594 63.2865 62.2711 63.101 62.1563C62.4121 61.7265 62 60.9905 62 60.1809L62 55.9859C62 54.9497 62.6977 54.0312 63.6927 53.7515C63.8488 53.7073 64.0136 53.6779 64.1755 53.6691C64.2226 53.6661 64.2697 53.6661 64.3198 53.6661L78.5182 53.6661C78.6683 53.6661 78.8184 53.6808 78.9597 53.7103C79.0657 53.7309 79.1746 53.7574 79.2806 53.7957C80.2138 54.1136 80.8409 54.9938 80.8409 55.983ZM63.8399 61.8619C63.8429 61.8619 63.8458 61.8649 63.8517 61.8649C63.9724 61.8972 64.096 61.9178 64.2167 61.9267C64.2521 61.9296 64.2874 61.9296 64.3257 61.9296L78.524 61.9296C78.6389 61.9296 78.7507 61.9178 78.8567 61.8972C78.9421 61.8825 79.0186 61.8619 79.0922 61.8325C79.7988 61.5881 80.2727 60.9228 80.2727 60.178L80.2727 55.983C80.2727 55.2382 79.7988 54.5728 79.0952 54.3314C79.0157 54.302 78.9391 54.2814 78.8596 54.2667C78.7478 54.2461 78.6359 54.2343 78.524 54.2343L64.3227 54.2343C64.2874 54.2343 64.2491 54.2343 64.2138 54.2372C64.0902 54.2461 63.9695 54.2667 63.8488 54.2991C63.0951 54.511 62.5711 55.2028 62.5711 55.983L62.5711 60.1809C62.5711 60.7903 62.8802 61.3467 63.4013 61.6706C63.5367 61.753 63.6839 61.8178 63.8399 61.8619Z" fill="#3EBED0"/>
<path d="M80.8409 2.83822C80.8409 2.99719 80.7143 3.12378 80.5553 3.12378L62.2856 3.12378C62.1266 3.12378 62 2.99719 62 2.83822C62 2.67925 62.1266 2.55266 62.2856 2.55266L80.5553 2.55266C80.7114 2.55266 80.8409 2.67925 80.8409 2.83822Z" fill="#56E4EE"/>
<path d="M80.8409 4.41659C80.8409 4.57556 80.7143 4.70215 80.5553 4.70215L62.2856 4.70215C62.1266 4.70215 62 4.57262 62 4.41659C62 4.25762 62.1266 4.13103 62.2856 4.13103L80.5553 4.13103C80.7114 4.13103 80.8409 4.25762 80.8409 4.41659Z" fill="#3EBED0"/>
<path d="M80.8409 6.24838C80.8409 6.40735 80.7143 6.53393 80.5553 6.53393L62.2856 6.53394C62.1266 6.53394 62 6.40735 62 6.24838C62 6.08941 62.1266 5.96282 62.2856 5.96282L80.5553 5.96282C80.7114 5.96282 80.8409 6.09235 80.8409 6.24838Z" fill="#56E4EE"/>
<path d="M63.9422 5.6799L63.9422 6.6661C63.9422 6.82507 63.8156 6.95166 63.6567 6.95166C63.4977 6.95166 63.3711 6.82507 63.3711 6.6661L63.3711 5.6799C63.3711 5.52093 63.4977 5.39434 63.6567 5.39434C63.8156 5.39434 63.9422 5.52093 63.9422 5.6799ZM63.9422 2.33859L63.9422 3.32184C63.9422 3.48081 63.8156 3.6074 63.6567 3.6074C63.4977 3.6074 63.3711 3.48081 63.3711 3.32184L63.3711 2.33859C63.3711 2.17962 63.4977 2.05303 63.6567 2.05303C63.8156 2.05303 63.9422 2.17962 63.9422 2.33859ZM65.8852 5.6799L65.8852 6.6661C65.8852 6.82507 65.7586 6.95166 65.5996 6.95166C65.4406 6.95166 65.3141 6.82507 65.3141 6.6661L65.3141 5.6799C65.3141 5.52093 65.4406 5.39434 65.5996 5.39434C65.7556 5.39434 65.8852 5.52093 65.8852 5.6799ZM65.8852 2.33859L65.8852 3.32184C65.8852 3.48081 65.7586 3.6074 65.5996 3.6074C65.4406 3.6074 65.3141 3.48081 65.3141 3.32184L65.3141 2.33859C65.3141 2.17962 65.4406 2.05303 65.5996 2.05303C65.7556 2.05303 65.8852 2.17962 65.8852 2.33859ZM67.8252 5.6799L67.8252 6.6661C67.8252 6.82507 67.6986 6.95166 67.5396 6.95166C67.3807 6.95166 67.2541 6.82507 67.2541 6.6661L67.2541 5.6799C67.2541 5.52093 67.3807 5.39434 67.5396 5.39434C67.6986 5.39434 67.8252 5.52093 67.8252 5.6799ZM67.8252 2.33859L67.8252 3.32184C67.8252 3.48081 67.6986 3.6074 67.5396 3.6074C67.3807 3.6074 67.2541 3.48081 67.2541 3.32184L67.2541 2.33859C67.2541 2.17962 67.3807 2.05303 67.5396 2.05303C67.6986 2.05303 67.8252 2.17962 67.8252 2.33859ZM69.7652 5.6799L69.7652 6.6661C69.7652 6.82507 69.6386 6.95166 69.4797 6.95166C69.3207 6.95166 69.1941 6.82507 69.1941 6.6661L69.1941 5.6799C69.1941 5.52093 69.3207 5.39434 69.4797 5.39434C69.6386 5.39434 69.7652 5.52093 69.7652 5.6799ZM69.7652 2.33859L69.7652 3.32184C69.7652 3.48081 69.6386 3.6074 69.4797 3.6074C69.3207 3.6074 69.1941 3.48081 69.1941 3.32184L69.1941 2.33859C69.1941 2.17962 69.3207 2.05303 69.4797 2.05303C69.6386 2.05303 69.7652 2.17962 69.7652 2.33859ZM71.7052 5.6799L71.7052 6.6661C71.7052 6.82507 71.5787 6.95166 71.4197 6.95166C71.2607 6.95166 71.1341 6.82507 71.1341 6.6661L71.1341 5.6799C71.1341 5.52093 71.2607 5.39434 71.4197 5.39434C71.5757 5.39434 71.7052 5.52093 71.7052 5.6799ZM71.7052 2.33859L71.7052 3.32184C71.7052 3.48081 71.5787 3.6074 71.4197 3.6074C71.2607 3.6074 71.1341 3.48081 71.1341 3.32184L71.1341 2.33859C71.1341 2.17962 71.2607 2.05303 71.4197 2.05303C71.5757 2.05303 71.7052 2.17962 71.7052 2.33859ZM73.6453 5.6799L73.6453 6.6661C73.6453 6.82507 73.5187 6.95166 73.3597 6.95166C73.2007 6.95166 73.0742 6.82507 73.0742 6.6661L73.0742 5.6799C73.0742 5.52093 73.2007 5.39434 73.3597 5.39434C73.5187 5.39434 73.6453 5.52093 73.6453 5.6799ZM73.6453 2.33859L73.6453 3.32184C73.6453 3.48081 73.5187 3.6074 73.3597 3.6074C73.2007 3.6074 73.0742 3.48081 73.0742 3.32184L73.0742 2.33859C73.0742 2.17962 73.2007 2.05303 73.3597 2.05303C73.5187 2.05303 73.6453 2.17962 73.6453 2.33859ZM75.5882 5.6799L75.5882 6.6661C75.5882 6.82507 75.4616 6.95166 75.3027 6.95166C75.1437 6.95166 75.0171 6.82507 75.0171 6.6661L75.0171 5.6799C75.0171 5.52093 75.1437 5.39434 75.3027 5.39434C75.4616 5.39434 75.5882 5.52093 75.5882 5.6799ZM75.5882 2.33859L75.5882 3.32184C75.5882 3.48081 75.4616 3.6074 75.3027 3.6074C75.1437 3.6074 75.0171 3.48081 75.0171 3.32184L75.0171 2.33859C75.0171 2.17962 75.1437 2.05303 75.3027 2.05303C75.4616 2.05303 75.5882 2.17962 75.5882 2.33859ZM77.5253 5.6799L77.5253 6.6661C77.5253 6.82507 77.3987 6.95166 77.2398 6.95166C77.0808 6.95166 76.9542 6.82507 76.9542 6.6661L76.9542 5.6799C76.9542 5.52093 77.0808 5.39434 77.2398 5.39434C77.3987 5.39434 77.5253 5.52093 77.5253 5.6799ZM77.5253 2.33859L77.5253 3.32184C77.5253 3.48081 77.3987 3.6074 77.2398 3.6074C77.0808 3.6074 76.9542 3.48081 76.9542 3.32184L76.9542 2.33859C76.9542 2.17962 77.0808 2.05303 77.2398 2.05303C77.3987 2.05303 77.5253 2.17962 77.5253 2.33859ZM79.4653 5.6799L79.4653 6.6661C79.4653 6.82507 79.3387 6.95166 79.1798 6.95166C79.0208 6.95166 78.8942 6.82507 78.8942 6.6661L78.8942 5.6799C78.8942 5.52093 79.0208 5.39434 79.1798 5.39434C79.3387 5.39434 79.4653 5.52093 79.4653 5.6799ZM79.4653 2.33859L79.4653 3.32184C79.4653 3.48081 79.3387 3.6074 79.1798 3.6074C79.0208 3.6074 78.8942 3.48081 78.8942 3.32184L78.8942 2.33859C78.8942 2.17962 79.0208 2.05303 79.1798 2.05303C79.3387 2.05303 79.4653 2.17962 79.4653 2.33859Z" fill="#56E4EE"/>
<path d="M64.8245 0.285601C64.8245 0.359198 64.7951 0.432796 64.7392 0.48873L63.4233 1.77815C63.3114 1.89002 63.1289 1.88708 63.0199 1.77521C62.9081 1.66334 62.911 1.48082 63.0229 1.3719L64.3388 0.0824726C64.4507 -0.0293952 64.6332 -0.0264518 64.7421 0.085416C64.7981 0.14135 64.8245 0.212003 64.8245 0.285601ZM67.3386 0.2856C67.3386 0.359198 67.3092 0.432796 67.2533 0.488729L65.9373 1.77815C65.8255 1.89002 65.6429 1.88708 65.534 1.77521C65.4251 1.66334 65.4251 1.48082 65.537 1.3719L66.8529 0.0824725C66.9648 -0.0293953 67.1473 -0.0264519 67.2562 0.0854159C67.3121 0.14135 67.3386 0.212003 67.3386 0.2856ZM69.8557 0.2856C69.8557 0.359198 69.8262 0.432795 69.7703 0.488729L68.4573 1.77815C68.3454 1.89002 68.1629 1.88708 68.054 1.77521C67.9421 1.66334 67.9451 1.48082 68.0569 1.3719L69.3699 0.0824724C69.4818 -0.0293954 69.6643 -0.026452 69.7732 0.0854158C69.8262 0.14135 69.8557 0.212003 69.8557 0.2856ZM72.3727 0.2856C72.3727 0.359197 72.3432 0.432795 72.2873 0.488729L70.9714 1.77815C70.8595 1.89002 70.677 1.88708 70.5681 1.77521C70.4562 1.66334 70.4591 1.48082 70.571 1.3719L71.8869 0.0824723C71.9988 -0.0293955 72.1813 -0.0264521 72.2902 0.0854157C72.3462 0.14135 72.3727 0.212003 72.3727 0.2856ZM74.8868 0.2856C74.8868 0.359197 74.8573 0.432795 74.8014 0.488729L73.4884 1.77815C73.3765 1.89002 73.194 1.88708 73.0851 1.77521C72.9732 1.66334 72.9762 1.48082 73.088 1.3719L74.401 0.0824722C74.5129 -0.0293956 74.6954 -0.0264522 74.8043 0.0854156C74.8603 0.141349 74.8868 0.212003 74.8868 0.2856ZM77.4008 0.2856C77.4008 0.359197 77.3714 0.432795 77.3155 0.488729L76.0025 1.77815C75.8906 1.89002 75.7081 1.88708 75.5992 1.77521C75.4873 1.66334 75.4903 1.48082 75.6021 1.3719L76.9151 0.0824721C77.027 -0.0293957 77.2095 -0.0264523 77.3184 0.0854154C77.3743 0.141349 77.4008 0.212003 77.4008 0.2856ZM79.703 0.49756C79.703 0.571157 79.6735 0.644754 79.6176 0.700688L78.5195 1.77815C78.4076 1.88708 78.2251 1.88708 78.1162 1.77226C78.0073 1.6604 78.0073 1.47787 78.1191 1.36895L79.2172 0.291488C79.3291 0.182564 79.5116 0.182564 79.6205 0.297376C79.6765 0.35331 79.703 0.423963 79.703 0.49756Z" fill="#3EBED0"/>
<path d="M64.8216 8.5511C64.8216 8.62175 64.7951 8.69535 64.7392 8.75128C64.6303 8.86315 64.4477 8.86609 64.3359 8.75423L63.0229 7.46775C62.911 7.35588 62.9081 7.1763 63.0199 7.06443C63.1289 6.95257 63.3114 6.94962 63.4233 7.06149L64.7362 8.34797C64.7922 8.4039 64.8216 8.4775 64.8216 8.5511ZM67.3357 8.5511C67.3357 8.62175 67.3092 8.69535 67.2533 8.75128C67.1443 8.86315 66.9618 8.86609 66.8499 8.75423L65.537 7.46775C65.4251 7.35588 65.4222 7.1763 65.534 7.06443C65.6429 6.95257 65.8255 6.94962 65.9373 7.06149L67.2503 8.34797C67.3092 8.4039 67.3357 8.4775 67.3357 8.5511ZM69.8527 8.5511C69.8527 8.6247 69.8262 8.69535 69.7703 8.75128C69.6584 8.86315 69.4788 8.86609 69.367 8.75423L68.0569 7.46775C67.9451 7.35588 67.9421 7.1763 68.054 7.06443C68.1659 6.95257 68.3454 6.94962 68.4573 7.06149L69.7673 8.34797C69.8233 8.4039 69.8527 8.4775 69.8527 8.5511ZM72.3697 8.5511C72.3697 8.62175 72.3432 8.69535 72.2873 8.75128C72.1784 8.86315 71.9959 8.86609 71.884 8.75423L70.571 7.46775C70.4591 7.35588 70.4562 7.1763 70.5681 7.06443C70.677 6.95257 70.8595 6.94962 70.9714 7.06149L72.2844 8.34797C72.3403 8.4039 72.3697 8.4775 72.3697 8.5511ZM74.8838 8.5511C74.8838 8.6247 74.8573 8.69535 74.8014 8.75128C74.6895 8.86315 74.5099 8.86609 74.3981 8.75423L73.088 7.46775C72.9762 7.35588 72.9732 7.1763 73.0851 7.06443C73.197 6.95257 73.3765 6.94962 73.4884 7.06149L74.7984 8.34797C74.8544 8.4039 74.8838 8.4775 74.8838 8.5511ZM77.3979 8.5511C77.3979 8.6247 77.3714 8.69535 77.3155 8.75128C77.2036 8.86315 77.024 8.86609 76.9122 8.75423L75.6021 7.46775C75.4903 7.35588 75.4873 7.1763 75.5992 7.06443C75.711 6.95257 75.8906 6.94962 76.0025 7.06149L77.3125 8.34797C77.3714 8.4039 77.3979 8.4775 77.3979 8.5511ZM79.703 8.34208C79.703 8.41273 79.6765 8.48633 79.6205 8.54227C79.5116 8.65413 79.3291 8.65708 79.2172 8.54521L78.1191 7.46775C78.0073 7.35588 78.0043 7.1763 78.1162 7.06443C78.2251 6.95257 78.4076 6.94962 78.5195 7.06149L79.6176 8.13895C79.6735 8.19489 79.703 8.26848 79.703 8.34208Z" fill="#3EBED0"/>
<path d="M80.8409 2.3189L80.8409 6.51688C80.8409 7.50603 80.2138 8.38625 79.2806 8.71008C79.1805 8.74541 79.0687 8.77485 78.9597 8.79545C78.8214 8.82195 78.6712 8.83667 78.5211 8.83667L64.3227 8.83667C64.2756 8.83667 64.2285 8.83667 64.1814 8.83373C64.0254 8.82489 63.8694 8.7984 63.7104 8.75718C63.7045 8.75718 63.7016 8.75424 63.6957 8.75424C63.4867 8.69536 63.2865 8.60705 63.101 8.49223C62.4121 8.06243 62 7.32645 62 6.51689L62 2.32185C62 1.2856 62.6977 0.367103 63.6927 0.087434C63.8488 0.0432757 64.0136 0.013836 64.1755 0.00500435C64.2226 0.00206046 64.2697 0.00206095 64.3198 0.00206094L78.5182 0.00206032C78.6683 0.00206032 78.8184 0.0167802 78.9597 0.0462191C79.0657 0.0668263 79.1746 0.0933204 79.2806 0.131591C80.2138 0.449531 80.8409 1.32975 80.8409 2.3189ZM63.8399 8.19785C63.8429 8.19785 63.8458 8.20079 63.8517 8.20079C63.9724 8.23317 64.096 8.25378 64.2167 8.26261C64.2521 8.26556 64.2874 8.26556 64.3257 8.26556L78.524 8.26555C78.6389 8.26555 78.7507 8.25378 78.8567 8.23317C78.9421 8.21845 79.0186 8.19785 79.0922 8.16841C79.7988 7.92406 80.2727 7.25875 80.2727 6.51394L80.2727 2.3189C80.2727 1.5741 79.7988 0.908777 79.0952 0.667379C79.0157 0.63794 78.9391 0.617333 78.8596 0.602614C78.7478 0.582007 78.6359 0.570231 78.524 0.570231L64.3227 0.570231C64.2874 0.570231 64.2491 0.570231 64.2138 0.573175C64.0902 0.582007 63.9695 0.602615 63.8488 0.634997C63.0951 0.846957 62.5711 1.53877 62.5711 2.3189L62.5711 6.51689C62.5711 7.12627 62.8802 7.68267 63.4013 8.00649C63.5367 8.08892 63.6839 8.15369 63.8399 8.19785Z" fill="#3EBED0"/>
<path d="M80.8409 13.8382C80.8409 13.9972 80.7143 14.1238 80.5553 14.1238L62.2856 14.1238C62.1266 14.1238 62 13.9972 62 13.8382C62 13.6793 62.1266 13.5527 62.2856 13.5527L80.5553 13.5527C80.7114 13.5527 80.8409 13.6793 80.8409 13.8382Z" fill="#56E4EE"/>
<path d="M80.8409 15.4166C80.8409 15.5756 80.7143 15.7021 80.5553 15.7021L62.2856 15.7021C62.1266 15.7021 62 15.5726 62 15.4166C62 15.2576 62.1266 15.131 62.2856 15.131L80.5553 15.131C80.7114 15.131 80.8409 15.2576 80.8409 15.4166Z" fill="#3EBED0"/>
<path d="M80.8409 17.2484C80.8409 17.4073 80.7143 17.5339 80.5553 17.5339L62.2856 17.5339C62.1266 17.5339 62 17.4073 62 17.2484C62 17.0894 62.1266 16.9628 62.2856 16.9628L80.5553 16.9628C80.7114 16.9628 80.8409 17.0924 80.8409 17.2484Z" fill="#56E4EE"/>
<path d="M63.9422 16.6799L63.9422 17.6661C63.9422 17.8251 63.8156 17.9517 63.6567 17.9517C63.4977 17.9517 63.3711 17.8251 63.3711 17.6661L63.3711 16.6799C63.3711 16.5209 63.4977 16.3943 63.6567 16.3943C63.8156 16.3943 63.9422 16.5209 63.9422 16.6799ZM63.9422 13.3386L63.9422 14.3218C63.9422 14.4808 63.8156 14.6074 63.6567 14.6074C63.4977 14.6074 63.3711 14.4808 63.3711 14.3218L63.3711 13.3386C63.3711 13.1796 63.4977 13.053 63.6567 13.053C63.8156 13.053 63.9422 13.1796 63.9422 13.3386ZM65.8852 16.6799L65.8852 17.6661C65.8852 17.8251 65.7586 17.9517 65.5996 17.9517C65.4406 17.9517 65.3141 17.8251 65.3141 17.6661L65.3141 16.6799C65.3141 16.5209 65.4406 16.3943 65.5996 16.3943C65.7556 16.3943 65.8852 16.5209 65.8852 16.6799ZM65.8852 13.3386L65.8852 14.3218C65.8852 14.4808 65.7586 14.6074 65.5996 14.6074C65.4406 14.6074 65.3141 14.4808 65.3141 14.3218L65.3141 13.3386C65.3141 13.1796 65.4406 13.053 65.5996 13.053C65.7556 13.053 65.8852 13.1796 65.8852 13.3386ZM67.8252 16.6799L67.8252 17.6661C67.8252 17.8251 67.6986 17.9517 67.5396 17.9517C67.3807 17.9517 67.2541 17.8251 67.2541 17.6661L67.2541 16.6799C67.2541 16.5209 67.3807 16.3943 67.5396 16.3943C67.6986 16.3943 67.8252 16.5209 67.8252 16.6799ZM67.8252 13.3386L67.8252 14.3218C67.8252 14.4808 67.6986 14.6074 67.5396 14.6074C67.3807 14.6074 67.2541 14.4808 67.2541 14.3218L67.2541 13.3386C67.2541 13.1796 67.3807 13.053 67.5396 13.053C67.6986 13.053 67.8252 13.1796 67.8252 13.3386ZM69.7652 16.6799L69.7652 17.6661C69.7652 17.8251 69.6386 17.9517 69.4797 17.9517C69.3207 17.9517 69.1941 17.8251 69.1941 17.6661L69.1941 16.6799C69.1941 16.5209 69.3207 16.3943 69.4797 16.3943C69.6386 16.3943 69.7652 16.5209 69.7652 16.6799ZM69.7652 13.3386L69.7652 14.3218C69.7652 14.4808 69.6386 14.6074 69.4797 14.6074C69.3207 14.6074 69.1941 14.4808 69.1941 14.3218L69.1941 13.3386C69.1941 13.1796 69.3207 13.053 69.4797 13.053C69.6386 13.053 69.7652 13.1796 69.7652 13.3386ZM71.7052 16.6799L71.7052 17.6661C71.7052 17.8251 71.5787 17.9517 71.4197 17.9517C71.2607 17.9517 71.1341 17.8251 71.1341 17.6661L71.1341 16.6799C71.1341 16.5209 71.2607 16.3943 71.4197 16.3943C71.5757 16.3943 71.7052 16.5209 71.7052 16.6799ZM71.7052 13.3386L71.7052 14.3218C71.7052 14.4808 71.5787 14.6074 71.4197 14.6074C71.2607 14.6074 71.1341 14.4808 71.1341 14.3218L71.1341 13.3386C71.1341 13.1796 71.2607 13.053 71.4197 13.053C71.5757 13.053 71.7052 13.1796 71.7052 13.3386ZM73.6453 16.6799L73.6453 17.6661C73.6453 17.8251 73.5187 17.9517 73.3597 17.9517C73.2007 17.9517 73.0742 17.8251 73.0742 17.6661L73.0742 16.6799C73.0742 16.5209 73.2007 16.3943 73.3597 16.3943C73.5187 16.3943 73.6453 16.5209 73.6453 16.6799ZM73.6453 13.3386L73.6453 14.3218C73.6453 14.4808 73.5187 14.6074 73.3597 14.6074C73.2007 14.6074 73.0742 14.4808 73.0742 14.3218L73.0742 13.3386C73.0742 13.1796 73.2007 13.053 73.3597 13.053C73.5187 13.053 73.6453 13.1796 73.6453 13.3386ZM75.5882 16.6799L75.5882 17.6661C75.5882 17.8251 75.4616 17.9517 75.3027 17.9517C75.1437 17.9517 75.0171 17.8251 75.0171 17.6661L75.0171 16.6799C75.0171 16.5209 75.1437 16.3943 75.3027 16.3943C75.4616 16.3943 75.5882 16.5209 75.5882 16.6799ZM75.5882 13.3386L75.5882 14.3218C75.5882 14.4808 75.4616 14.6074 75.3027 14.6074C75.1437 14.6074 75.0171 14.4808 75.0171 14.3218L75.0171 13.3386C75.0171 13.1796 75.1437 13.053 75.3027 13.053C75.4616 13.053 75.5882 13.1796 75.5882 13.3386ZM77.5253 16.6799L77.5253 17.6661C77.5253 17.8251 77.3987 17.9517 77.2398 17.9517C77.0808 17.9517 76.9542 17.8251 76.9542 17.6661L76.9542 16.6799C76.9542 16.5209 77.0808 16.3943 77.2398 16.3943C77.3987 16.3943 77.5253 16.5209 77.5253 16.6799ZM77.5253 13.3386L77.5253 14.3218C77.5253 14.4808 77.3987 14.6074 77.2398 14.6074C77.0808 14.6074 76.9542 14.4808 76.9542 14.3218L76.9542 13.3386C76.9542 13.1796 77.0808 13.053 77.2398 13.053C77.3987 13.053 77.5253 13.1796 77.5253 13.3386ZM79.4653 16.6799L79.4653 17.6661C79.4653 17.8251 79.3387 17.9517 79.1798 17.9517C79.0208 17.9517 78.8942 17.8251 78.8942 17.6661L78.8942 16.6799C78.8942 16.5209 79.0208 16.3943 79.1798 16.3943C79.3387 16.3943 79.4653 16.5209 79.4653 16.6799ZM79.4653 13.3386L79.4653 14.3218C79.4653 14.4808 79.3387 14.6074 79.1798 14.6074C79.0208 14.6074 78.8942 14.4808 78.8942 14.3218L78.8942 13.3386C78.8942 13.1796 79.0208 13.053 79.1798 13.053C79.3387 13.053 79.4653 13.1796 79.4653 13.3386Z" fill="#56E4EE"/>
<path d="M64.8245 11.2856C64.8245 11.3592 64.7951 11.4328 64.7392 11.4887L63.4233 12.7782C63.3114 12.89 63.1289 12.8871 63.0199 12.7752C62.9081 12.6633 62.911 12.4808 63.0229 12.3719L64.3388 11.0825C64.4507 10.9706 64.6332 10.9735 64.7421 11.0854C64.7981 11.1413 64.8245 11.212 64.8245 11.2856ZM67.3386 11.2856C67.3386 11.3592 67.3092 11.4328 67.2533 11.4887L65.9373 12.7782C65.8255 12.89 65.6429 12.8871 65.534 12.7752C65.4251 12.6633 65.4251 12.4808 65.537 12.3719L66.8529 11.0825C66.9648 10.9706 67.1473 10.9735 67.2562 11.0854C67.3121 11.1413 67.3386 11.212 67.3386 11.2856ZM69.8557 11.2856C69.8557 11.3592 69.8262 11.4328 69.7703 11.4887L68.4573 12.7782C68.3454 12.89 68.1629 12.8871 68.054 12.7752C67.9421 12.6633 67.9451 12.4808 68.0569 12.3719L69.3699 11.0825C69.4818 10.9706 69.6643 10.9735 69.7732 11.0854C69.8262 11.1413 69.8557 11.212 69.8557 11.2856ZM72.3727 11.2856C72.3727 11.3592 72.3432 11.4328 72.2873 11.4887L70.9714 12.7782C70.8595 12.89 70.677 12.8871 70.5681 12.7752C70.4562 12.6633 70.4591 12.4808 70.571 12.3719L71.8869 11.0825C71.9988 10.9706 72.1813 10.9735 72.2902 11.0854C72.3462 11.1413 72.3727 11.212 72.3727 11.2856ZM74.8868 11.2856C74.8868 11.3592 74.8573 11.4328 74.8014 11.4887L73.4884 12.7782C73.3765 12.89 73.194 12.8871 73.0851 12.7752C72.9732 12.6633 72.9762 12.4808 73.088 12.3719L74.401 11.0825C74.5129 10.9706 74.6954 10.9735 74.8043 11.0854C74.8603 11.1413 74.8868 11.212 74.8868 11.2856ZM77.4008 11.2856C77.4008 11.3592 77.3714 11.4328 77.3155 11.4887L76.0025 12.7782C75.8906 12.89 75.7081 12.8871 75.5992 12.7752C75.4873 12.6633 75.4903 12.4808 75.6021 12.3719L76.9151 11.0825C77.027 10.9706 77.2095 10.9735 77.3184 11.0854C77.3743 11.1413 77.4008 11.212 77.4008 11.2856ZM79.703 11.4976C79.703 11.5712 79.6735 11.6448 79.6176 11.7007L78.5195 12.7782C78.4076 12.8871 78.2251 12.8871 78.1162 12.7723C78.0073 12.6604 78.0073 12.4779 78.1191 12.369L79.2172 11.2915C79.3291 11.1826 79.5116 11.1826 79.6205 11.2974C79.6765 11.3533 79.703 11.424 79.703 11.4976Z" fill="#3EBED0"/>
<path d="M64.8216 19.5511C64.8216 19.6218 64.7951 19.6953 64.7392 19.7513C64.6303 19.8632 64.4477 19.8661 64.3359 19.7542L63.0229 18.4677C62.911 18.3559 62.9081 18.1763 63.0199 18.0644C63.1289 17.9526 63.3114 17.9496 63.4233 18.0615L64.7362 19.348C64.7922 19.4039 64.8216 19.4775 64.8216 19.5511ZM67.3357 19.5511C67.3357 19.6218 67.3092 19.6953 67.2533 19.7513C67.1443 19.8632 66.9618 19.8661 66.8499 19.7542L65.537 18.4677C65.4251 18.3559 65.4222 18.1763 65.534 18.0644C65.6429 17.9526 65.8255 17.9496 65.9373 18.0615L67.2503 19.348C67.3092 19.4039 67.3357 19.4775 67.3357 19.5511ZM69.8527 19.5511C69.8527 19.6247 69.8262 19.6953 69.7703 19.7513C69.6584 19.8632 69.4788 19.8661 69.367 19.7542L68.0569 18.4677C67.9451 18.3559 67.9421 18.1763 68.054 18.0644C68.1659 17.9526 68.3454 17.9496 68.4573 18.0615L69.7673 19.348C69.8233 19.4039 69.8527 19.4775 69.8527 19.5511ZM72.3697 19.5511C72.3697 19.6218 72.3432 19.6953 72.2873 19.7513C72.1784 19.8631 71.9959 19.8661 71.884 19.7542L70.571 18.4677C70.4591 18.3559 70.4562 18.1763 70.5681 18.0644C70.677 17.9526 70.8595 17.9496 70.9714 18.0615L72.2844 19.348C72.3403 19.4039 72.3697 19.4775 72.3697 19.5511ZM74.8838 19.5511C74.8838 19.6247 74.8573 19.6953 74.8014 19.7513C74.6895 19.8631 74.5099 19.8661 74.3981 19.7542L73.088 18.4677C72.9762 18.3559 72.9732 18.1763 73.0851 18.0644C73.197 17.9526 73.3765 17.9496 73.4884 18.0615L74.7984 19.348C74.8544 19.4039 74.8838 19.4775 74.8838 19.5511ZM77.3979 19.5511C77.3979 19.6247 77.3714 19.6953 77.3155 19.7513C77.2036 19.8631 77.024 19.8661 76.9122 19.7542L75.6021 18.4677C75.4903 18.3559 75.4873 18.1763 75.5992 18.0644C75.711 17.9526 75.8906 17.9496 76.0025 18.0615L77.3125 19.348C77.3714 19.4039 77.3979 19.4775 77.3979 19.5511ZM79.703 19.3421C79.703 19.4127 79.6765 19.4863 79.6205 19.5423C79.5116 19.6541 79.3291 19.6571 79.2172 19.5452L78.1191 18.4677C78.0073 18.3559 78.0043 18.1763 78.1162 18.0644C78.2251 17.9526 78.4076 17.9496 78.5195 18.0615L79.6176 19.139C79.6735 19.1949 79.703 19.2685 79.703 19.3421Z" fill="#3EBED0"/>
<path d="M80.8409 13.3189L80.8409 17.5169C80.8409 18.506 80.2138 19.3863 79.2806 19.7101C79.1805 19.7454 79.0687 19.7748 78.9597 19.7955C78.8214 19.8219 78.6712 19.8367 78.5211 19.8367L64.3227 19.8367C64.2756 19.8367 64.2285 19.8367 64.1814 19.8337C64.0254 19.8249 63.8694 19.7984 63.7104 19.7572C63.7045 19.7572 63.7016 19.7542 63.6957 19.7542C63.4867 19.6954 63.2865 19.607 63.101 19.4922C62.4121 19.0624 62 18.3265 62 17.5169L62 13.3218C62 12.2856 62.6977 11.3671 63.6927 11.0874C63.8488 11.0433 64.0136 11.0138 64.1755 11.005C64.2226 11.0021 64.2697 11.0021 64.3198 11.0021L78.5182 11.0021C78.6683 11.0021 78.8184 11.0168 78.9597 11.0462C79.0657 11.0668 79.1746 11.0933 79.2806 11.1316C80.2138 11.4495 80.8409 12.3298 80.8409 13.3189ZM63.8399 19.1978C63.8429 19.1978 63.8458 19.2008 63.8517 19.2008C63.9724 19.2332 64.096 19.2538 64.2167 19.2626C64.2521 19.2656 64.2874 19.2656 64.3257 19.2656L78.524 19.2656C78.6389 19.2656 78.7507 19.2538 78.8567 19.2332C78.9421 19.2185 79.0186 19.1978 79.0922 19.1684C79.7988 18.9241 80.2727 18.2587 80.2727 17.5139L80.2727 13.3189C80.2727 12.5741 79.7988 11.9088 79.0952 11.6674C79.0157 11.6379 78.9391 11.6173 78.8596 11.6026C78.7478 11.582 78.6359 11.5702 78.524 11.5702L64.3227 11.5702C64.2874 11.5702 64.2491 11.5702 64.2138 11.5732C64.0902 11.582 63.9695 11.6026 63.8488 11.635C63.0951 11.847 62.5711 12.5388 62.5711 13.3189L62.5711 17.5169C62.5711 18.1263 62.8802 18.6827 63.4013 19.0065C63.5367 19.0889 63.6839 19.1537 63.8399 19.1978Z" fill="#3EBED0"/>
<path d="M80.8409 45.8382C80.8409 45.9972 80.7143 46.1238 80.5553 46.1238L62.2856 46.1238C62.1266 46.1238 62 45.9972 62 45.8382C62 45.6793 62.1266 45.5527 62.2856 45.5527L80.5553 45.5527C80.7114 45.5527 80.8409 45.6793 80.8409 45.8382Z" fill="#56E4EE"/>
<path d="M80.8409 47.4166C80.8409 47.5756 80.7143 47.7021 80.5553 47.7021L62.2856 47.7021C62.1266 47.7021 62 47.5726 62 47.4166C62 47.2576 62.1266 47.131 62.2856 47.131L80.5553 47.131C80.7114 47.131 80.8409 47.2576 80.8409 47.4166Z" fill="#3EBED0"/>
<path d="M80.8409 49.2484C80.8409 49.4073 80.7143 49.5339 80.5553 49.5339L62.2856 49.5339C62.1266 49.5339 62 49.4073 62 49.2484C62 49.0894 62.1266 48.9628 62.2856 48.9628L80.5553 48.9628C80.7114 48.9628 80.8409 49.0924 80.8409 49.2484Z" fill="#56E4EE"/>
<path d="M63.9422 48.6799L63.9422 49.6661C63.9422 49.8251 63.8156 49.9517 63.6567 49.9517C63.4977 49.9517 63.3711 49.8251 63.3711 49.6661L63.3711 48.6799C63.3711 48.5209 63.4977 48.3943 63.6567 48.3943C63.8156 48.3943 63.9422 48.5209 63.9422 48.6799ZM63.9422 45.3386L63.9422 46.3218C63.9422 46.4808 63.8156 46.6074 63.6567 46.6074C63.4977 46.6074 63.3711 46.4808 63.3711 46.3218L63.3711 45.3386C63.3711 45.1796 63.4977 45.053 63.6567 45.053C63.8156 45.053 63.9422 45.1796 63.9422 45.3386ZM65.8852 48.6799L65.8852 49.6661C65.8852 49.8251 65.7586 49.9517 65.5996 49.9517C65.4406 49.9517 65.3141 49.8251 65.3141 49.6661L65.3141 48.6799C65.3141 48.5209 65.4406 48.3943 65.5996 48.3943C65.7556 48.3943 65.8852 48.5209 65.8852 48.6799ZM65.8852 45.3386L65.8852 46.3218C65.8852 46.4808 65.7586 46.6074 65.5996 46.6074C65.4406 46.6074 65.3141 46.4808 65.3141 46.3218L65.3141 45.3386C65.3141 45.1796 65.4406 45.053 65.5996 45.053C65.7556 45.053 65.8852 45.1796 65.8852 45.3386ZM67.8252 48.6799L67.8252 49.6661C67.8252 49.8251 67.6986 49.9517 67.5396 49.9517C67.3807 49.9517 67.2541 49.8251 67.2541 49.6661L67.2541 48.6799C67.2541 48.5209 67.3807 48.3943 67.5396 48.3943C67.6986 48.3943 67.8252 48.5209 67.8252 48.6799ZM67.8252 45.3386L67.8252 46.3218C67.8252 46.4808 67.6986 46.6074 67.5396 46.6074C67.3807 46.6074 67.2541 46.4808 67.2541 46.3218L67.2541 45.3386C67.2541 45.1796 67.3807 45.053 67.5396 45.053C67.6986 45.053 67.8252 45.1796 67.8252 45.3386ZM69.7652 48.6799L69.7652 49.6661C69.7652 49.8251 69.6386 49.9517 69.4797 49.9517C69.3207 49.9517 69.1941 49.8251 69.1941 49.6661L69.1941 48.6799C69.1941 48.5209 69.3207 48.3943 69.4797 48.3943C69.6386 48.3943 69.7652 48.5209 69.7652 48.6799ZM69.7652 45.3386L69.7652 46.3218C69.7652 46.4808 69.6386 46.6074 69.4797 46.6074C69.3207 46.6074 69.1941 46.4808 69.1941 46.3218L69.1941 45.3386C69.1941 45.1796 69.3207 45.053 69.4797 45.053C69.6386 45.053 69.7652 45.1796 69.7652 45.3386ZM71.7052 48.6799L71.7052 49.6661C71.7052 49.8251 71.5787 49.9517 71.4197 49.9517C71.2607 49.9517 71.1341 49.8251 71.1341 49.6661L71.1341 48.6799C71.1341 48.5209 71.2607 48.3943 71.4197 48.3943C71.5757 48.3943 71.7052 48.5209 71.7052 48.6799ZM71.7052 45.3386L71.7052 46.3218C71.7052 46.4808 71.5787 46.6074 71.4197 46.6074C71.2607 46.6074 71.1341 46.4808 71.1341 46.3218L71.1341 45.3386C71.1341 45.1796 71.2607 45.053 71.4197 45.053C71.5757 45.053 71.7052 45.1796 71.7052 45.3386ZM73.6453 48.6799L73.6453 49.6661C73.6453 49.8251 73.5187 49.9517 73.3597 49.9517C73.2007 49.9517 73.0742 49.8251 73.0742 49.6661L73.0742 48.6799C73.0742 48.5209 73.2007 48.3943 73.3597 48.3943C73.5187 48.3943 73.6453 48.5209 73.6453 48.6799ZM73.6453 45.3386L73.6453 46.3218C73.6453 46.4808 73.5187 46.6074 73.3597 46.6074C73.2007 46.6074 73.0742 46.4808 73.0742 46.3218L73.0742 45.3386C73.0742 45.1796 73.2007 45.053 73.3597 45.053C73.5187 45.053 73.6453 45.1796 73.6453 45.3386ZM75.5882 48.6799L75.5882 49.6661C75.5882 49.8251 75.4616 49.9517 75.3027 49.9517C75.1437 49.9517 75.0171 49.8251 75.0171 49.6661L75.0171 48.6799C75.0171 48.5209 75.1437 48.3943 75.3027 48.3943C75.4616 48.3943 75.5882 48.5209 75.5882 48.6799ZM75.5882 45.3386L75.5882 46.3218C75.5882 46.4808 75.4616 46.6074 75.3027 46.6074C75.1437 46.6074 75.0171 46.4808 75.0171 46.3218L75.0171 45.3386C75.0171 45.1796 75.1437 45.053 75.3027 45.053C75.4616 45.053 75.5882 45.1796 75.5882 45.3386ZM77.5253 48.6799L77.5253 49.6661C77.5253 49.8251 77.3987 49.9517 77.2398 49.9517C77.0808 49.9517 76.9542 49.8251 76.9542 49.6661L76.9542 48.6799C76.9542 48.5209 77.0808 48.3943 77.2398 48.3943C77.3987 48.3943 77.5253 48.5209 77.5253 48.6799ZM77.5253 45.3386L77.5253 46.3218C77.5253 46.4808 77.3987 46.6074 77.2398 46.6074C77.0808 46.6074 76.9542 46.4808 76.9542 46.3218L76.9542 45.3386C76.9542 45.1796 77.0808 45.053 77.2398 45.053C77.3987 45.053 77.5253 45.1796 77.5253 45.3386ZM79.4653 48.6799L79.4653 49.6661C79.4653 49.8251 79.3387 49.9517 79.1798 49.9517C79.0208 49.9517 78.8942 49.8251 78.8942 49.6661L78.8942 48.6799C78.8942 48.5209 79.0208 48.3943 79.1798 48.3943C79.3387 48.3943 79.4653 48.5209 79.4653 48.6799ZM79.4653 45.3386L79.4653 46.3218C79.4653 46.4808 79.3387 46.6074 79.1798 46.6074C79.0208 46.6074 78.8942 46.4808 78.8942 46.3218L78.8942 45.3386C78.8942 45.1796 79.0208 45.053 79.1798 45.053C79.3387 45.053 79.4653 45.1796 79.4653 45.3386Z" fill="#56E4EE"/>
<path d="M64.8245 43.2856C64.8245 43.3592 64.7951 43.4328 64.7392 43.4887L63.4233 44.7782C63.3114 44.89 63.1289 44.8871 63.0199 44.7752C62.9081 44.6633 62.911 44.4808 63.0229 44.3719L64.3388 43.0825C64.4507 42.9706 64.6332 42.9735 64.7421 43.0854C64.7981 43.1413 64.8245 43.212 64.8245 43.2856ZM67.3386 43.2856C67.3386 43.3592 67.3092 43.4328 67.2533 43.4887L65.9373 44.7782C65.8255 44.89 65.6429 44.8871 65.534 44.7752C65.4251 44.6633 65.4251 44.4808 65.537 44.3719L66.8529 43.0825C66.9648 42.9706 67.1473 42.9735 67.2562 43.0854C67.3121 43.1413 67.3386 43.212 67.3386 43.2856ZM69.8557 43.2856C69.8557 43.3592 69.8262 43.4328 69.7703 43.4887L68.4573 44.7782C68.3454 44.89 68.1629 44.8871 68.054 44.7752C67.9421 44.6633 67.9451 44.4808 68.0569 44.3719L69.3699 43.0825C69.4818 42.9706 69.6643 42.9735 69.7732 43.0854C69.8262 43.1413 69.8557 43.212 69.8557 43.2856ZM72.3727 43.2856C72.3727 43.3592 72.3432 43.4328 72.2873 43.4887L70.9714 44.7782C70.8595 44.89 70.677 44.8871 70.5681 44.7752C70.4562 44.6633 70.4591 44.4808 70.571 44.3719L71.8869 43.0825C71.9988 42.9706 72.1813 42.9735 72.2902 43.0854C72.3462 43.1413 72.3727 43.212 72.3727 43.2856ZM74.8868 43.2856C74.8868 43.3592 74.8573 43.4328 74.8014 43.4887L73.4884 44.7782C73.3765 44.89 73.194 44.8871 73.0851 44.7752C72.9732 44.6633 72.9762 44.4808 73.088 44.3719L74.401 43.0825C74.5129 42.9706 74.6954 42.9735 74.8043 43.0854C74.8603 43.1413 74.8868 43.212 74.8868 43.2856ZM77.4008 43.2856C77.4008 43.3592 77.3714 43.4328 77.3155 43.4887L76.0025 44.7782C75.8906 44.89 75.7081 44.8871 75.5992 44.7752C75.4873 44.6633 75.4903 44.4808 75.6021 44.3719L76.9151 43.0825C77.027 42.9706 77.2095 42.9735 77.3184 43.0854C77.3743 43.1413 77.4008 43.212 77.4008 43.2856ZM79.703 43.4976C79.703 43.5712 79.6735 43.6448 79.6176 43.7007L78.5195 44.7782C78.4076 44.8871 78.2251 44.8871 78.1162 44.7723C78.0073 44.6604 78.0073 44.4779 78.1191 44.369L79.2172 43.2915C79.3291 43.1826 79.5116 43.1826 79.6205 43.2974C79.6765 43.3533 79.703 43.424 79.703 43.4976Z" fill="#3EBED0"/>
<path d="M64.8216 51.5511C64.8216 51.6218 64.7951 51.6953 64.7392 51.7513C64.6303 51.8632 64.4477 51.8661 64.3359 51.7542L63.0229 50.4677C62.911 50.3559 62.9081 50.1763 63.0199 50.0644C63.1289 49.9526 63.3114 49.9496 63.4233 50.0615L64.7362 51.348C64.7922 51.4039 64.8216 51.4775 64.8216 51.5511ZM67.3357 51.5511C67.3357 51.6218 67.3092 51.6953 67.2533 51.7513C67.1443 51.8632 66.9618 51.8661 66.8499 51.7542L65.537 50.4677C65.4251 50.3559 65.4222 50.1763 65.534 50.0644C65.6429 49.9526 65.8255 49.9496 65.9373 50.0615L67.2503 51.348C67.3092 51.4039 67.3357 51.4775 67.3357 51.5511ZM69.8527 51.5511C69.8527 51.6247 69.8262 51.6953 69.7703 51.7513C69.6584 51.8632 69.4788 51.8661 69.367 51.7542L68.0569 50.4677C67.9451 50.3559 67.9421 50.1763 68.054 50.0644C68.1659 49.9526 68.3454 49.9496 68.4573 50.0615L69.7673 51.348C69.8233 51.4039 69.8527 51.4775 69.8527 51.5511ZM72.3697 51.5511C72.3697 51.6218 72.3432 51.6953 72.2873 51.7513C72.1784 51.8631 71.9959 51.8661 71.884 51.7542L70.571 50.4677C70.4591 50.3559 70.4562 50.1763 70.5681 50.0644C70.677 49.9526 70.8595 49.9496 70.9714 50.0615L72.2844 51.348C72.3403 51.4039 72.3697 51.4775 72.3697 51.5511ZM74.8838 51.5511C74.8838 51.6247 74.8573 51.6953 74.8014 51.7513C74.6895 51.8631 74.5099 51.8661 74.3981 51.7542L73.088 50.4677C72.9762 50.3559 72.9732 50.1763 73.0851 50.0644C73.197 49.9526 73.3765 49.9496 73.4884 50.0615L74.7984 51.348C74.8544 51.4039 74.8838 51.4775 74.8838 51.5511ZM77.3979 51.5511C77.3979 51.6247 77.3714 51.6953 77.3155 51.7513C77.2036 51.8631 77.024 51.8661 76.9122 51.7542L75.6021 50.4677C75.4903 50.3559 75.4873 50.1763 75.5992 50.0644C75.711 49.9526 75.8906 49.9496 76.0025 50.0615L77.3125 51.348C77.3714 51.4039 77.3979 51.4775 77.3979 51.5511ZM79.703 51.3421C79.703 51.4127 79.6765 51.4863 79.6205 51.5423C79.5116 51.6541 79.3291 51.6571 79.2172 51.5452L78.1191 50.4677C78.0073 50.3559 78.0043 50.1763 78.1162 50.0644C78.2251 49.9526 78.4076 49.9496 78.5195 50.0615L79.6176 51.139C79.6735 51.1949 79.703 51.2685 79.703 51.3421Z" fill="#3EBED0"/>
<path d="M80.8409 45.3189L80.8409 49.5169C80.8409 50.506 80.2138 51.3863 79.2806 51.7101C79.1805 51.7454 79.0687 51.7748 78.9597 51.7955C78.8214 51.8219 78.6712 51.8367 78.5211 51.8367L64.3227 51.8367C64.2756 51.8367 64.2285 51.8367 64.1814 51.8337C64.0254 51.8249 63.8694 51.7984 63.7104 51.7572C63.7045 51.7572 63.7016 51.7542 63.6957 51.7542C63.4867 51.6954 63.2865 51.607 63.101 51.4922C62.4121 51.0624 62 50.3265 62 49.5169L62 45.3218C62 44.2856 62.6977 43.3671 63.6927 43.0874C63.8488 43.0433 64.0136 43.0138 64.1755 43.005C64.2226 43.0021 64.2697 43.0021 64.3198 43.0021L78.5182 43.0021C78.6683 43.0021 78.8184 43.0168 78.9597 43.0462C79.0657 43.0668 79.1746 43.0933 79.2806 43.1316C80.2138 43.4495 80.8409 44.3298 80.8409 45.3189ZM63.8399 51.1978C63.8429 51.1978 63.8458 51.2008 63.8517 51.2008C63.9724 51.2332 64.096 51.2538 64.2167 51.2626C64.2521 51.2656 64.2874 51.2656 64.3257 51.2656L78.524 51.2656C78.6389 51.2656 78.7507 51.2538 78.8567 51.2332C78.9421 51.2185 79.0186 51.1978 79.0922 51.1684C79.7988 50.9241 80.2727 50.2587 80.2727 49.5139L80.2727 45.3189C80.2727 44.5741 79.7988 43.9088 79.0952 43.6674C79.0157 43.6379 78.9391 43.6173 78.8596 43.6026C78.7478 43.582 78.6359 43.5702 78.524 43.5702L64.3227 43.5702C64.2874 43.5702 64.2491 43.5702 64.2138 43.5732C64.0902 43.582 63.9695 43.6026 63.8488 43.635C63.0951 43.847 62.5711 44.5388 62.5711 45.3189L62.5711 49.5169C62.5711 50.1263 62.8802 50.6827 63.4013 51.0065C63.5367 51.0889 63.6839 51.1537 63.8399 51.1978Z" fill="#3EBED0"/>
<path d="M9.83203 8.83911L9.83203 53.8934" stroke="white" strokeLinecap="square"/>
<path d="M8.19141 8.83911L8.19141 53.8934" stroke="white" strokeLinecap="square"/>
<path d="M18.8409 56.5023C18.8409 56.6613 18.7143 56.7878 18.5553 56.7878L0.285557 56.7878C0.126587 56.7878 -5.53332e-09 56.6613 -1.24821e-08 56.5023C-1.94309e-08 56.3433 0.126587 56.2167 0.285557 56.2167L18.5553 56.2167C18.7114 56.2167 18.8409 56.3433 18.8409 56.5023Z" fill="#56E4EE"/>
<path d="M18.8409 58.0794C18.8409 58.2384 18.7143 58.365 18.5553 58.365L0.285557 58.365C0.126587 58.365 -5.66198e-09 58.2355 -1.24821e-08 58.0794C-1.94309e-08 57.9205 0.126587 57.7939 0.285557 57.7939L18.5553 57.7939C18.7114 57.7939 18.8409 57.9205 18.8409 58.0794Z" fill="#3EBED0"/>
<path d="M18.8409 59.9112C18.8409 60.0702 18.7143 60.1968 18.5553 60.1968L0.285557 60.1968C0.126587 60.1968 -5.53332e-09 60.0702 -1.24821e-08 59.9112C-1.94309e-08 59.7522 0.126587 59.6257 0.285557 59.6257L18.5553 59.6257C18.7114 59.6257 18.8409 59.7552 18.8409 59.9112Z" fill="#56E4EE"/>
<path d="M1.9383 59.3427L1.9383 60.3289C1.9383 60.4879 1.81171 60.6145 1.65274 60.6145C1.49377 60.6145 1.36719 60.4879 1.36719 60.3289L1.36719 59.3427C1.36719 59.1838 1.49377 59.0572 1.65274 59.0572C1.81171 59.0572 1.9383 59.1838 1.9383 59.3427ZM1.9383 56.0014L1.9383 56.9847C1.9383 57.1437 1.81171 57.2702 1.65274 57.2702C1.49377 57.2702 1.36719 57.1437 1.36719 56.9847L1.36719 56.0014C1.36719 55.8425 1.49377 55.7159 1.65274 55.7159C1.81171 55.7159 1.9383 55.8425 1.9383 56.0014ZM3.88127 59.3427L3.88127 60.3289C3.88127 60.4879 3.75468 60.6145 3.59571 60.6145C3.43674 60.6145 3.31015 60.4879 3.31015 60.3289L3.31015 59.3427C3.31015 59.1838 3.43674 59.0572 3.59571 59.0572C3.75174 59.0572 3.88127 59.1838 3.88127 59.3427ZM3.88127 56.0014L3.88127 56.9847C3.88127 57.1437 3.75468 57.2702 3.59571 57.2702C3.43674 57.2702 3.31015 57.1437 3.31015 56.9847L3.31015 56.0014C3.31015 55.8425 3.43674 55.7159 3.59571 55.7159C3.75174 55.7159 3.88127 55.8425 3.88127 56.0014ZM5.82129 59.3427L5.82129 60.3289C5.82129 60.4879 5.6947 60.6145 5.53573 60.6145C5.37676 60.6145 5.25018 60.4879 5.25018 60.3289L5.25018 59.3427C5.25018 59.1838 5.37676 59.0572 5.53573 59.0572C5.6947 59.0572 5.82129 59.1838 5.82129 59.3427ZM5.82129 56.0014L5.82129 56.9847C5.82129 57.1437 5.6947 57.2702 5.53573 57.2702C5.37676 57.2702 5.25018 57.1437 5.25018 56.9847L5.25018 56.0014C5.25018 55.8425 5.37676 55.7159 5.53573 55.7159C5.6947 55.7159 5.82129 55.8425 5.82129 56.0014ZM7.76131 59.3427L7.76131 60.3289C7.76131 60.4879 7.63473 60.6145 7.47576 60.6145C7.31679 60.6145 7.1902 60.4879 7.1902 60.3289L7.1902 59.3427C7.1902 59.1838 7.31679 59.0572 7.47576 59.0572C7.63473 59.0572 7.76131 59.1838 7.76131 59.3427ZM7.76131 56.0014L7.76131 56.9847C7.76131 57.1437 7.63473 57.2702 7.47576 57.2702C7.31679 57.2702 7.1902 57.1437 7.1902 56.9847L7.1902 56.0014C7.1902 55.8425 7.31679 55.7159 7.47576 55.7159C7.63473 55.7159 7.76131 55.8425 7.76131 56.0014ZM9.70134 59.3427L9.70134 60.3289C9.70134 60.4879 9.57475 60.6145 9.41578 60.6145C9.25681 60.6145 9.13022 60.4879 9.13022 60.3289L9.13022 59.3427C9.13022 59.1838 9.25681 59.0572 9.41578 59.0572C9.57181 59.0572 9.70134 59.1838 9.70134 59.3427ZM9.70134 56.0014L9.70134 56.9847C9.70134 57.1437 9.57475 57.2702 9.41578 57.2702C9.25681 57.2702 9.13022 57.1437 9.13022 56.9847L9.13022 56.0014C9.13022 55.8425 9.25681 55.7159 9.41578 55.7159C9.5718 55.7159 9.70134 55.8425 9.70134 56.0014ZM11.6414 59.3427L11.6414 60.3289C11.6414 60.4879 11.5148 60.6145 11.3558 60.6145C11.1968 60.6145 11.0702 60.4879 11.0702 60.3289L11.0702 59.3427C11.0702 59.1838 11.1968 59.0572 11.3558 59.0572C11.5148 59.0572 11.6414 59.1838 11.6414 59.3427ZM11.6414 56.0014L11.6414 56.9847C11.6414 57.1437 11.5148 57.2702 11.3558 57.2702C11.1968 57.2702 11.0702 57.1437 11.0702 56.9847L11.0702 56.0014C11.0702 55.8425 11.1968 55.7159 11.3558 55.7159C11.5148 55.7159 11.6414 55.8425 11.6414 56.0014ZM13.5843 59.3427L13.5843 60.3289C13.5843 60.4879 13.4577 60.6145 13.2988 60.6145C13.1398 60.6145 13.0132 60.4879 13.0132 60.3289L13.0132 59.3427C13.0132 59.1838 13.1398 59.0572 13.2988 59.0572C13.4577 59.0572 13.5843 59.1838 13.5843 59.3427ZM13.5843 56.0014L13.5843 56.9847C13.5843 57.1437 13.4577 57.2702 13.2988 57.2702C13.1398 57.2702 13.0132 57.1437 13.0132 56.9847L13.0132 56.0014C13.0132 55.8425 13.1398 55.7159 13.2988 55.7159C13.4577 55.7159 13.5843 55.8425 13.5843 56.0014ZM15.5214 59.3427L15.5214 60.3289C15.5214 60.4879 15.3948 60.6145 15.2358 60.6145C15.0769 60.6145 14.9503 60.4879 14.9503 60.3289L14.9503 59.3427C14.9503 59.1838 15.0769 59.0572 15.2358 59.0572C15.3948 59.0572 15.5214 59.1838 15.5214 59.3427ZM15.5214 56.0014L15.5214 56.9847C15.5214 57.1437 15.3948 57.2702 15.2358 57.2702C15.0769 57.2702 14.9503 57.1437 14.9503 56.9847L14.9503 56.0014C14.9503 55.8425 15.0769 55.7159 15.2358 55.7159C15.3948 55.7159 15.5214 55.8425 15.5214 56.0014ZM17.4614 59.3427L17.4614 60.3289C17.4614 60.4879 17.3348 60.6145 17.1759 60.6145C17.0169 60.6145 16.8903 60.4879 16.8903 60.3289L16.8903 59.3427C16.8903 59.1838 17.0169 59.0572 17.1759 59.0572C17.3348 59.0572 17.4614 59.1838 17.4614 59.3427ZM17.4614 56.0014L17.4614 56.9847C17.4614 57.1437 17.3348 57.2702 17.1759 57.2702C17.0169 57.2702 16.8903 57.1437 16.8903 56.9847L16.8903 56.0014C16.8903 55.8425 17.0169 55.7159 17.1759 55.7159C17.3348 55.7159 17.4614 55.8425 17.4614 56.0014Z" fill="#56E4EE"/>
<path d="M2.82455 53.9484C2.82455 54.022 2.79511 54.0956 2.73917 54.1516L1.42326 55.441C1.31139 55.5529 1.12887 55.5499 1.01994 55.4381C0.908076 55.3262 0.91102 55.1437 1.02289 55.0347L2.33881 53.7453C2.45067 53.6334 2.63319 53.6364 2.74212 53.7483C2.79805 53.8042 2.82455 53.8748 2.82455 53.9484ZM5.33863 53.9484C5.33863 54.022 5.30919 54.0956 5.25325 54.1516L3.93734 55.441C3.82547 55.5529 3.64295 55.5499 3.53402 55.4381C3.4251 55.3262 3.4251 55.1437 3.53697 55.0347L4.85289 53.7453C4.96475 53.6334 5.14727 53.6364 5.2562 53.7483C5.31213 53.8042 5.33863 53.8748 5.33863 53.9484ZM7.85565 53.9484C7.85565 54.022 7.82621 54.0956 7.77028 54.1516L6.45731 55.441C6.34544 55.5529 6.16292 55.5499 6.05399 55.4381C5.94212 55.3262 5.94507 55.1437 6.05694 55.0347L7.36991 53.7453C7.48178 53.6334 7.6643 53.6364 7.77322 53.7483C7.82621 53.8042 7.85565 53.8748 7.85565 53.9484ZM10.3727 53.9484C10.3727 54.022 10.3432 54.0956 10.2873 54.1516L8.97139 55.441C8.85952 55.5529 8.677 55.5499 8.56807 55.4381C8.45621 55.3262 8.45915 55.1437 8.57102 55.0347L9.88694 53.7453C9.9988 53.6334 10.1813 53.6364 10.2902 53.7483C10.3462 53.8042 10.3727 53.8748 10.3727 53.9484ZM12.8868 53.9484C12.8868 54.022 12.8573 54.0956 12.8014 54.1516L11.4884 55.441C11.3765 55.5529 11.194 55.5499 11.0851 55.4381C10.9732 55.3262 10.9762 55.1437 11.088 55.0347L12.401 53.7453C12.5129 53.6334 12.6954 53.6364 12.8043 53.7483C12.8603 53.8042 12.8868 53.8748 12.8868 53.9484ZM15.4008 53.9484C15.4008 54.022 15.3714 54.0956 15.3155 54.1516L14.0025 55.441C13.8906 55.5529 13.7081 55.5499 13.5992 55.438C13.4873 55.3262 13.4903 55.1437 13.6021 55.0347L14.9151 53.7453C15.027 53.6334 15.2095 53.6364 15.3184 53.7483C15.3743 53.8042 15.4008 53.8748 15.4008 53.9484ZM17.703 54.1604C17.703 54.234 17.6735 54.3076 17.6176 54.3635L16.5195 55.441C16.4076 55.5499 16.2251 55.5499 16.1162 55.4351C16.0073 55.3232 16.0073 55.1407 16.1191 55.0318L17.2172 53.9543C17.3291 53.8454 17.5116 53.8454 17.6205 53.9602C17.6765 54.0162 17.703 54.0868 17.703 54.1604Z" fill="#3EBED0"/>
<path d="M2.8177 62.2149C2.8177 62.2856 2.7912 62.3592 2.73527 62.4151C2.62634 62.527 2.44382 62.5299 2.33196 62.418L1.01898 61.1316C0.907113 61.0197 0.904169 60.8401 1.01604 60.7283C1.12496 60.6164 1.30748 60.6134 1.41935 60.7253L2.73232 62.0118C2.78826 62.0677 2.8177 62.1413 2.8177 62.2149ZM5.33178 62.2149C5.33178 62.2856 5.30528 62.3592 5.24935 62.4151C5.14042 62.527 4.9579 62.5299 4.84604 62.418L3.53306 61.1316C3.42119 61.0197 3.41825 60.8401 3.53012 60.7283C3.63904 60.6164 3.82156 60.6134 3.93343 60.7253L5.2464 62.0118C5.30528 62.0677 5.33178 62.1413 5.33178 62.2149ZM7.8488 62.2149C7.8488 62.2885 7.82231 62.3592 7.76637 62.4151C7.65451 62.527 7.47493 62.5299 7.36306 62.418L6.05303 61.1316C5.94116 61.0197 5.93822 60.8401 6.05009 60.7283C6.16195 60.6164 6.34153 60.6134 6.4534 60.7253L7.76343 62.0118C7.81936 62.0677 7.8488 62.1413 7.8488 62.2149ZM10.3658 62.2149C10.3658 62.2856 10.3393 62.3592 10.2834 62.4151C10.1745 62.527 9.99195 62.5299 9.88008 62.418L8.56711 61.1316C8.45524 61.0197 8.4523 60.8401 8.56417 60.7283C8.67309 60.6164 8.85561 60.6134 8.96748 60.7253L10.2805 62.0118C10.3364 62.0677 10.3658 62.1413 10.3658 62.2149ZM12.8799 62.2149C12.8799 62.2885 12.8534 62.3592 12.7975 62.4151C12.6856 62.527 12.506 62.5299 12.3942 62.418L11.0841 61.1316C10.9723 61.0197 10.9693 60.8401 11.0812 60.7283C11.1931 60.6164 11.3726 60.6134 11.4845 60.7253L12.7945 62.0118C12.8505 62.0677 12.8799 62.1413 12.8799 62.2149ZM15.394 62.2149C15.394 62.2885 15.3675 62.3592 15.3116 62.4151C15.1997 62.527 15.0201 62.5299 14.9082 62.418L13.5982 61.1316C13.4863 61.0197 13.4834 60.8401 13.5953 60.7283C13.7071 60.6164 13.8867 60.6134 13.9986 60.7253L15.3086 62.0118C15.3675 62.0677 15.394 62.1413 15.394 62.2149ZM17.6991 62.0059C17.6991 62.0766 17.6726 62.1502 17.6166 62.2061C17.5077 62.318 17.3252 62.3209 17.2133 62.209L16.1152 61.1316C16.0034 61.0197 16.0004 60.8401 16.1123 60.7283C16.2212 60.6164 16.4037 60.6134 16.5156 60.7253L17.6137 61.8028C17.6696 61.8587 17.6991 61.9323 17.6991 62.0059Z" fill="#3EBED0"/>
<path d="M18.8409 55.9825L18.8409 60.1805C18.8409 61.1696 18.2138 62.0498 17.2806 62.3737C17.1805 62.409 17.0687 62.4384 16.9597 62.459C16.8214 62.4855 16.6712 62.5002 16.5211 62.5002L2.32273 62.5002C2.27563 62.5002 2.22852 62.5002 2.18142 62.4973C2.0254 62.4885 1.86937 62.462 1.7104 62.4208C1.70451 62.4208 1.70157 62.4178 1.69568 62.4178C1.48666 62.3589 1.28648 62.2706 1.10101 62.1558C0.412144 61.726 -6.60136e-08 60.99 -1.01401e-07 60.1805L-2.84772e-07 55.9854C-3.30068e-07 54.9492 0.697701 54.0307 1.69274 53.751C1.84876 53.7068 2.01362 53.6774 2.17553 53.6686C2.22264 53.6656 2.26974 53.6656 2.31978 53.6656L16.5182 53.6656C16.6683 53.6656 16.8184 53.6804 16.9597 53.7098C17.0657 53.7304 17.1746 53.7569 17.2806 53.7952C18.2138 54.1131 18.8409 54.9933 18.8409 55.9825ZM1.83993 61.8614C1.84287 61.8614 1.84582 61.8644 1.85171 61.8644C1.97241 61.8967 2.09605 61.9174 2.21675 61.9262C2.25207 61.9291 2.2874 61.9291 2.32567 61.9291L16.524 61.9291C16.6389 61.9291 16.7507 61.9174 16.8567 61.8967C16.9421 61.882 17.0186 61.8614 17.0922 61.832C17.7988 61.5876 18.2727 60.9223 18.2727 60.1775L18.2727 55.9825C18.2727 55.2377 17.7988 54.5724 17.0952 54.331C17.0157 54.3015 16.9391 54.2809 16.8596 54.2662C16.7478 54.2456 16.6359 54.2338 16.524 54.2338L2.32273 54.2338C2.2874 54.2338 2.24913 54.2338 2.2138 54.2367C2.09016 54.2456 1.96946 54.2662 1.84876 54.2986C1.09513 54.5105 0.571114 55.2023 0.571114 55.9825L0.571114 60.1805C0.571114 60.7898 0.880223 61.3462 1.40129 61.6701C1.53671 61.7525 1.6839 61.8173 1.83993 61.8614Z" fill="#3EBED0"/>
<path d="M18.8409 2.8392C18.8409 2.99817 18.7143 3.12476 18.5553 3.12476L0.285557 3.12476C0.126587 3.12476 -5.53332e-09 2.99817 -1.24821e-08 2.8392C-1.94309e-08 2.68023 0.126587 2.55364 0.285557 2.55364L18.5553 2.55364C18.7114 2.55364 18.8409 2.68023 18.8409 2.8392Z" fill="#56E4EE"/>
<path d="M18.8409 4.41757C18.8409 4.57654 18.7143 4.70312 18.5553 4.70312L0.285557 4.70312C0.126587 4.70312 -5.66198e-09 4.57359 -1.24821e-08 4.41757C-1.94309e-08 4.2586 0.126587 4.13201 0.285557 4.13201L18.5553 4.13201C18.7114 4.13201 18.8409 4.2586 18.8409 4.41757Z" fill="#3EBED0"/>
<path d="M18.8409 6.24935C18.8409 6.40832 18.7143 6.53491 18.5553 6.53491L0.285557 6.53491C0.126587 6.53491 -5.53332e-09 6.40832 -1.24821e-08 6.24935C-1.94309e-08 6.09038 0.126587 5.9638 0.285557 5.9638L18.5553 5.9638C18.7114 5.9638 18.8409 6.09333 18.8409 6.24935Z" fill="#56E4EE"/>
<path d="M1.9383 5.67966L1.9383 6.66586C1.9383 6.82483 1.81171 6.95142 1.65274 6.95142C1.49377 6.95142 1.36719 6.82483 1.36719 6.66586L1.36719 5.67966C1.36719 5.52069 1.49377 5.3941 1.65274 5.3941C1.81171 5.3941 1.9383 5.52069 1.9383 5.67966ZM1.9383 2.33834L1.9383 3.3216C1.9383 3.48057 1.81171 3.60716 1.65274 3.60716C1.49377 3.60716 1.36719 3.48057 1.36719 3.3216L1.36719 2.33834C1.36719 2.17937 1.49377 2.05279 1.65274 2.05279C1.81171 2.05279 1.9383 2.17937 1.9383 2.33834ZM3.88127 5.67966L3.88127 6.66586C3.88127 6.82483 3.75468 6.95142 3.59571 6.95142C3.43674 6.95142 3.31015 6.82483 3.31015 6.66586L3.31015 5.67966C3.31015 5.52069 3.43674 5.3941 3.59571 5.3941C3.75174 5.3941 3.88127 5.52069 3.88127 5.67966ZM3.88127 2.33834L3.88127 3.3216C3.88127 3.48057 3.75468 3.60716 3.59571 3.60716C3.43674 3.60716 3.31015 3.48057 3.31015 3.3216L3.31015 2.33834C3.31015 2.17937 3.43674 2.05279 3.59571 2.05279C3.75174 2.05279 3.88127 2.17937 3.88127 2.33834ZM5.82129 5.67966L5.82129 6.66586C5.82129 6.82483 5.6947 6.95142 5.53573 6.95142C5.37676 6.95142 5.25018 6.82483 5.25018 6.66586L5.25018 5.67966C5.25018 5.52069 5.37676 5.3941 5.53573 5.3941C5.6947 5.3941 5.82129 5.52069 5.82129 5.67966ZM5.82129 2.33834L5.82129 3.3216C5.82129 3.48057 5.6947 3.60716 5.53573 3.60716C5.37676 3.60716 5.25018 3.48057 5.25018 3.3216L5.25018 2.33834C5.25018 2.17937 5.37676 2.05279 5.53573 2.05279C5.6947 2.05279 5.82129 2.17937 5.82129 2.33834ZM7.76131 5.67966L7.76131 6.66586C7.76131 6.82483 7.63473 6.95142 7.47576 6.95142C7.31679 6.95142 7.1902 6.82483 7.1902 6.66586L7.1902 5.67966C7.1902 5.52069 7.31679 5.3941 7.47576 5.3941C7.63473 5.3941 7.76131 5.52069 7.76131 5.67966ZM7.76131 2.33834L7.76131 3.3216C7.76131 3.48057 7.63473 3.60716 7.47576 3.60716C7.31679 3.60716 7.1902 3.48057 7.1902 3.3216L7.1902 2.33834C7.1902 2.17937 7.31679 2.05279 7.47576 2.05279C7.63473 2.05279 7.76131 2.17937 7.76131 2.33834ZM9.70134 5.67966L9.70134 6.66586C9.70134 6.82483 9.57475 6.95142 9.41578 6.95142C9.25681 6.95142 9.13022 6.82483 9.13022 6.66586L9.13022 5.67966C9.13022 5.52069 9.25681 5.3941 9.41578 5.3941C9.57181 5.3941 9.70134 5.52069 9.70134 5.67966ZM9.70134 2.33834L9.70134 3.3216C9.70134 3.48057 9.57475 3.60716 9.41578 3.60716C9.25681 3.60716 9.13022 3.48057 9.13022 3.3216L9.13022 2.33834C9.13022 2.17937 9.25681 2.05279 9.41578 2.05279C9.5718 2.05279 9.70134 2.17937 9.70134 2.33834ZM11.6414 5.67966L11.6414 6.66586C11.6414 6.82483 11.5148 6.95142 11.3558 6.95142C11.1968 6.95142 11.0702 6.82483 11.0702 6.66586L11.0702 5.67966C11.0702 5.52069 11.1968 5.3941 11.3558 5.3941C11.5148 5.3941 11.6414 5.52069 11.6414 5.67966ZM11.6414 2.33834L11.6414 3.3216C11.6414 3.48057 11.5148 3.60716 11.3558 3.60716C11.1968 3.60716 11.0702 3.48057 11.0702 3.3216L11.0702 2.33834C11.0702 2.17937 11.1968 2.05279 11.3558 2.05279C11.5148 2.05279 11.6414 2.17937 11.6414 2.33834ZM13.5843 5.67966L13.5843 6.66586C13.5843 6.82483 13.4577 6.95142 13.2988 6.95142C13.1398 6.95142 13.0132 6.82483 13.0132 6.66586L13.0132 5.67966C13.0132 5.52069 13.1398 5.3941 13.2988 5.3941C13.4577 5.3941 13.5843 5.52069 13.5843 5.67966ZM13.5843 2.33834L13.5843 3.3216C13.5843 3.48057 13.4577 3.60716 13.2988 3.60716C13.1398 3.60716 13.0132 3.48057 13.0132 3.3216L13.0132 2.33834C13.0132 2.17937 13.1398 2.05279 13.2988 2.05279C13.4577 2.05279 13.5843 2.17937 13.5843 2.33834ZM15.5214 5.67966L15.5214 6.66586C15.5214 6.82483 15.3948 6.95142 15.2358 6.95142C15.0769 6.95142 14.9503 6.82483 14.9503 6.66586L14.9503 5.67966C14.9503 5.52069 15.0769 5.3941 15.2358 5.3941C15.3948 5.3941 15.5214 5.52069 15.5214 5.67966ZM15.5214 2.33834L15.5214 3.3216C15.5214 3.48057 15.3948 3.60716 15.2358 3.60716C15.0769 3.60716 14.9503 3.48057 14.9503 3.3216L14.9503 2.33834C14.9503 2.17937 15.0769 2.05278 15.2358 2.05278C15.3948 2.05278 15.5214 2.17937 15.5214 2.33834ZM17.4614 5.67966L17.4614 6.66586C17.4614 6.82483 17.3348 6.95142 17.1759 6.95142C17.0169 6.95142 16.8903 6.82483 16.8903 6.66586L16.8903 5.67966C16.8903 5.52069 17.0169 5.3941 17.1759 5.3941C17.3348 5.3941 17.4614 5.52069 17.4614 5.67966ZM17.4614 2.33834L17.4614 3.3216C17.4614 3.48057 17.3348 3.60716 17.1759 3.60716C17.0169 3.60716 16.8903 3.48057 16.8903 3.3216L16.8903 2.33834C16.8903 2.17937 17.0169 2.05278 17.1759 2.05278C17.3348 2.05278 17.4614 2.17937 17.4614 2.33834Z" fill="#56E4EE"/>
<path d="M2.82455 0.286577C2.82455 0.360174 2.79511 0.433772 2.73917 0.489706L1.42326 1.77913C1.31139 1.891 1.12887 1.88805 1.01994 1.77619C0.908076 1.66432 0.91102 1.4818 1.02289 1.37287L2.33881 0.0834492C2.45067 -0.0284186 2.63319 -0.0254752 2.74212 0.0863926C2.79805 0.142326 2.82455 0.21298 2.82455 0.286577ZM5.33863 0.286577C5.33863 0.360174 5.30919 0.433772 5.25325 0.489706L3.93734 1.77913C3.82547 1.891 3.64295 1.88805 3.53402 1.77619C3.4251 1.66432 3.4251 1.4818 3.53697 1.37287L4.85289 0.0834491C4.96475 -0.0284187 5.14727 -0.0254753 5.2562 0.0863924C5.31213 0.142326 5.33863 0.21298 5.33863 0.286577ZM7.85565 0.286577C7.85565 0.360174 7.82621 0.433772 7.77028 0.489706L6.45731 1.77913C6.34544 1.891 6.16292 1.88805 6.05399 1.77619C5.94212 1.66432 5.94507 1.4818 6.05694 1.37287L7.36991 0.083449C7.48178 -0.0284188 7.6643 -0.0254754 7.77322 0.0863923C7.82621 0.142326 7.85565 0.21298 7.85565 0.286577ZM10.3727 0.286577C10.3727 0.360174 10.3432 0.433772 10.2873 0.489706L8.97139 1.77913C8.85952 1.891 8.677 1.88805 8.56807 1.77618C8.45621 1.66432 8.45915 1.4818 8.57102 1.37287L9.88694 0.0834489C9.9988 -0.0284189 10.1813 -0.0254755 10.2902 0.0863922C10.3462 0.142326 10.3727 0.21298 10.3727 0.286577ZM12.8868 0.286577C12.8868 0.360174 12.8573 0.433772 12.8014 0.489706L11.4884 1.77913C11.3765 1.891 11.194 1.88805 11.0851 1.77618C10.9732 1.66432 10.9762 1.4818 11.088 1.37287L12.401 0.0834487C12.5129 -0.028419 12.6954 -0.0254756 12.8043 0.0863921C12.8603 0.142326 12.8868 0.212979 12.8868 0.286577ZM15.4008 0.286577C15.4008 0.360174 15.3714 0.433772 15.3155 0.489706L14.0025 1.77913C13.8906 1.891 13.7081 1.88805 13.5992 1.77618C13.4873 1.66432 13.4903 1.4818 13.6021 1.37287L14.9151 0.0834486C15.027 -0.0284191 15.2095 -0.0254758 15.3184 0.086392C15.3743 0.142326 15.4008 0.212979 15.4008 0.286577ZM17.703 0.498537C17.703 0.572134 17.6735 0.645731 17.6176 0.701665L16.5195 1.77913C16.4076 1.88805 16.2251 1.88805 16.1162 1.77324C16.0073 1.66137 16.0073 1.47885 16.1191 1.36993L17.2172 0.292464C17.3291 0.18354 17.5116 0.183541 17.6205 0.298352C17.6765 0.354286 17.703 0.42494 17.703 0.498537Z" fill="#3EBED0"/>
<path d="M2.8177 8.55208C2.8177 8.62273 2.7912 8.69633 2.73527 8.75226C2.62634 8.86413 2.44382 8.86707 2.33196 8.7552L1.01898 7.46872C0.907113 7.35686 0.904169 7.17728 1.01604 7.06541C1.12496 6.95354 1.30748 6.9506 1.41935 7.06247L2.73232 8.34895C2.78826 8.40488 2.8177 8.47848 2.8177 8.55208ZM5.33178 8.55208C5.33178 8.62273 5.30528 8.69633 5.24935 8.75226C5.14042 8.86413 4.9579 8.86707 4.84604 8.7552L3.53306 7.46872C3.42119 7.35686 3.41825 7.17728 3.53012 7.06541C3.63904 6.95354 3.82156 6.9506 3.93343 7.06247L5.2464 8.34895C5.30528 8.40488 5.33178 8.47848 5.33178 8.55208ZM7.8488 8.55207C7.8488 8.62567 7.82231 8.69632 7.76637 8.75226C7.65451 8.86413 7.47493 8.86707 7.36306 8.7552L6.05303 7.46872C5.94116 7.35686 5.93822 7.17728 6.05009 7.06541C6.16195 6.95354 6.34153 6.9506 6.4534 7.06247L7.76343 8.34895C7.81936 8.40488 7.8488 8.47848 7.8488 8.55207ZM10.3658 8.55207C10.3658 8.62273 10.3393 8.69632 10.2834 8.75226C10.1745 8.86413 9.99195 8.86707 9.88008 8.7552L8.56711 7.46872C8.45524 7.35686 8.4523 7.17728 8.56417 7.06541C8.67309 6.95354 8.85561 6.9506 8.96748 7.06247L10.2805 8.34895C10.3364 8.40488 10.3658 8.47848 10.3658 8.55207ZM12.8799 8.55207C12.8799 8.62567 12.8534 8.69632 12.7975 8.75226C12.6856 8.86413 12.506 8.86707 12.3942 8.7552L11.0841 7.46872C10.9723 7.35686 10.9693 7.17728 11.0812 7.06541C11.1931 6.95354 11.3726 6.9506 11.4845 7.06247L12.7945 8.34895C12.8505 8.40488 12.8799 8.47848 12.8799 8.55207ZM15.394 8.55207C15.394 8.62567 15.3675 8.69632 15.3116 8.75226C15.1997 8.86413 15.0201 8.86707 14.9082 8.7552L13.5982 7.46872C13.4863 7.35686 13.4834 7.17728 13.5953 7.06541C13.7071 6.95354 13.8867 6.9506 13.9986 7.06247L15.3086 8.34895C15.3675 8.40488 15.394 8.47848 15.394 8.55207ZM17.6991 8.34306C17.6991 8.41371 17.6726 8.48731 17.6166 8.54324C17.5077 8.65511 17.3252 8.65805 17.2133 8.54619L16.1152 7.46872C16.0034 7.35686 16.0004 7.17728 16.1123 7.06541C16.2212 6.95354 16.4037 6.9506 16.5156 7.06247L17.6137 8.13993C17.6696 8.19586 17.6991 8.26946 17.6991 8.34306Z" fill="#3EBED0"/>
<path d="M18.8409 2.31988L18.8409 6.51786C18.8409 7.50701 18.2138 8.38723 17.2806 8.71106C17.1805 8.74639 17.0687 8.77582 16.9597 8.79643C16.8214 8.82293 16.6712 8.83765 16.5211 8.83765L2.32273 8.83765C2.27563 8.83765 2.22852 8.83765 2.18142 8.8347C2.0254 8.82587 1.86937 8.79938 1.7104 8.75816C1.70451 8.75816 1.70157 8.75522 1.69568 8.75522C1.48666 8.69634 1.28648 8.60802 1.10101 8.49321C0.412144 8.0634 -6.60136e-08 7.32743 -1.01401e-07 6.51786L-2.84772e-07 2.32282C-3.30068e-07 1.28657 0.697701 0.36808 1.69274 0.0884106C1.84876 0.0442522 2.01362 0.0148126 2.17553 0.00598091C2.22264 0.00303702 2.26974 0.00303751 2.31978 0.00303751L16.5182 0.00303689C16.6683 0.00303688 16.8184 0.0177568 16.9597 0.0471956C17.0657 0.0678029 17.1746 0.094297 17.2806 0.132568C18.2138 0.450507 18.8409 1.33073 18.8409 2.31988ZM1.83993 8.19882C1.84287 8.19882 1.84582 8.20177 1.85171 8.20177C1.97241 8.23415 2.09605 8.25476 2.21675 8.26359C2.25207 8.26653 2.2874 8.26653 2.32567 8.26653L16.524 8.26653C16.6389 8.26653 16.7507 8.25476 16.8567 8.23415C16.9421 8.21943 17.0186 8.19882 17.0922 8.16938C17.7988 7.92504 18.2727 7.25972 18.2727 6.51492L18.2727 2.31988C18.2727 1.57507 17.7988 0.909754 17.0952 0.668355C17.0157 0.638916 16.9391 0.61831 16.8596 0.60359C16.7478 0.582983 16.6359 0.571207 16.524 0.571207L2.32273 0.571208C2.2874 0.571208 2.24913 0.571208 2.2138 0.574151C2.09016 0.582983 1.96946 0.603591 1.84876 0.635974C1.09513 0.847934 0.571114 1.53975 0.571114 2.31988L0.571114 6.51786C0.571114 7.12725 0.880223 7.68364 1.40129 8.00747C1.53671 8.0899 1.6839 8.15466 1.83993 8.19882Z" fill="#3EBED0"/>
</svg>
