<svg width="143" height="63" viewBox="0 0 143 63" fill="none" xmlns="http://www.w3.org/2000/svg">
<line x1="10" y1="31.5" x2="85" y2="31.5" stroke="white"/>
<line x1="87" y1="31.5" x2="132" y2="31.5" stroke="white"/>
<path d="M86.8359 8.83862L86.8359 53.8929" stroke="white" strokeLinecap="square"/>
<path d="M85.1953 8.83862L85.1953 53.8929" stroke="white" strokeLinecap="square"/>
<path d="M95.8409 56.5025C95.8409 56.6615 95.7143 56.7881 95.5553 56.7881L77.2856 56.7881C77.1266 56.7881 77 56.6615 77 56.5025C77 56.3436 77.1266 56.217 77.2856 56.217L95.5553 56.217C95.7114 56.217 95.8409 56.3436 95.8409 56.5025Z" fill="#56E4EE"/>
<path d="M95.8409 58.0797C95.8409 58.2386 95.7143 58.3652 95.5553 58.3652L77.2856 58.3652C77.1266 58.3652 77 58.2357 77 58.0797C77 57.9207 77.1266 57.7941 77.2856 57.7941L95.5553 57.7941C95.7114 57.7941 95.8409 57.9207 95.8409 58.0797Z" fill="#3EBED0"/>
<path d="M95.8409 59.9115C95.8409 60.0704 95.7143 60.197 95.5553 60.197L77.2856 60.197C77.1266 60.197 77 60.0704 77 59.9115C77 59.7525 77.1266 59.6259 77.2856 59.6259L95.5553 59.6259C95.7114 59.6259 95.8409 59.7554 95.8409 59.9115Z" fill="#56E4EE"/>
<path d="M78.9422 59.343L78.9422 60.3292C78.9422 60.4882 78.8156 60.6147 78.6567 60.6147C78.4977 60.6147 78.3711 60.4882 78.3711 60.3292L78.3711 59.343C78.3711 59.184 78.4977 59.0574 78.6567 59.0574C78.8156 59.0574 78.9422 59.184 78.9422 59.343ZM78.9422 56.0017L78.9422 56.9849C78.9422 57.1439 78.8156 57.2705 78.6567 57.2705C78.4977 57.2705 78.3711 57.1439 78.3711 56.9849L78.3711 56.0017C78.3711 55.8427 78.4977 55.7161 78.6567 55.7161C78.8156 55.7161 78.9422 55.8427 78.9422 56.0017ZM80.8852 59.343L80.8852 60.3292C80.8852 60.4882 80.7586 60.6147 80.5996 60.6147C80.4406 60.6147 80.3141 60.4882 80.3141 60.3292L80.3141 59.343C80.3141 59.184 80.4406 59.0574 80.5996 59.0574C80.7556 59.0574 80.8852 59.184 80.8852 59.343ZM80.8852 56.0017L80.8852 56.9849C80.8852 57.1439 80.7586 57.2705 80.5996 57.2705C80.4406 57.2705 80.3141 57.1439 80.3141 56.9849L80.3141 56.0017C80.3141 55.8427 80.4406 55.7161 80.5996 55.7161C80.7556 55.7161 80.8852 55.8427 80.8852 56.0017ZM82.8252 59.343L82.8252 60.3292C82.8252 60.4882 82.6986 60.6147 82.5396 60.6147C82.3807 60.6147 82.2541 60.4882 82.2541 60.3292L82.2541 59.343C82.2541 59.184 82.3807 59.0574 82.5396 59.0574C82.6986 59.0574 82.8252 59.184 82.8252 59.343ZM82.8252 56.0017L82.8252 56.9849C82.8252 57.1439 82.6986 57.2705 82.5396 57.2705C82.3807 57.2705 82.2541 57.1439 82.2541 56.9849L82.2541 56.0017C82.2541 55.8427 82.3807 55.7161 82.5396 55.7161C82.6986 55.7161 82.8252 55.8427 82.8252 56.0017ZM84.7652 59.343L84.7652 60.3292C84.7652 60.4882 84.6386 60.6147 84.4797 60.6147C84.3207 60.6147 84.1941 60.4882 84.1941 60.3292L84.1941 59.343C84.1941 59.184 84.3207 59.0574 84.4797 59.0574C84.6386 59.0574 84.7652 59.184 84.7652 59.343ZM84.7652 56.0017L84.7652 56.9849C84.7652 57.1439 84.6386 57.2705 84.4797 57.2705C84.3207 57.2705 84.1941 57.1439 84.1941 56.9849L84.1941 56.0017C84.1941 55.8427 84.3207 55.7161 84.4797 55.7161C84.6386 55.7161 84.7652 55.8427 84.7652 56.0017ZM86.7052 59.343L86.7052 60.3292C86.7052 60.4882 86.5787 60.6147 86.4197 60.6147C86.2607 60.6147 86.1341 60.4882 86.1341 60.3292L86.1341 59.343C86.1341 59.184 86.2607 59.0574 86.4197 59.0574C86.5757 59.0574 86.7052 59.184 86.7052 59.343ZM86.7052 56.0017L86.7052 56.9849C86.7052 57.1439 86.5787 57.2705 86.4197 57.2705C86.2607 57.2705 86.1341 57.1439 86.1341 56.9849L86.1341 56.0017C86.1341 55.8427 86.2607 55.7161 86.4197 55.7161C86.5757 55.7161 86.7052 55.8427 86.7052 56.0017ZM88.6453 59.343L88.6453 60.3292C88.6453 60.4882 88.5187 60.6147 88.3597 60.6147C88.2007 60.6147 88.0742 60.4882 88.0742 60.3292L88.0742 59.343C88.0742 59.184 88.2007 59.0574 88.3597 59.0574C88.5187 59.0574 88.6453 59.184 88.6453 59.343ZM88.6453 56.0017L88.6453 56.9849C88.6453 57.1439 88.5187 57.2705 88.3597 57.2705C88.2007 57.2705 88.0742 57.1439 88.0742 56.9849L88.0742 56.0017C88.0742 55.8427 88.2007 55.7161 88.3597 55.7161C88.5187 55.7161 88.6453 55.8427 88.6453 56.0017ZM90.5882 59.343L90.5882 60.3292C90.5882 60.4882 90.4616 60.6147 90.3027 60.6147C90.1437 60.6147 90.0171 60.4882 90.0171 60.3292L90.0171 59.343C90.0171 59.184 90.1437 59.0574 90.3027 59.0574C90.4616 59.0574 90.5882 59.184 90.5882 59.343ZM90.5882 56.0017L90.5882 56.9849C90.5882 57.1439 90.4616 57.2705 90.3027 57.2705C90.1437 57.2705 90.0171 57.1439 90.0171 56.9849L90.0171 56.0017C90.0171 55.8427 90.1437 55.7161 90.3027 55.7161C90.4616 55.7161 90.5882 55.8427 90.5882 56.0017ZM92.5253 59.343L92.5253 60.3292C92.5253 60.4882 92.3987 60.6147 92.2398 60.6147C92.0808 60.6147 91.9542 60.4882 91.9542 60.3292L91.9542 59.343C91.9542 59.184 92.0808 59.0574 92.2398 59.0574C92.3987 59.0574 92.5253 59.184 92.5253 59.343ZM92.5253 56.0017L92.5253 56.9849C92.5253 57.1439 92.3987 57.2705 92.2398 57.2705C92.0808 57.2705 91.9542 57.1439 91.9542 56.9849L91.9542 56.0017C91.9542 55.8427 92.0808 55.7161 92.2398 55.7161C92.3987 55.7161 92.5253 55.8427 92.5253 56.0017ZM94.4653 59.343L94.4653 60.3292C94.4653 60.4882 94.3387 60.6147 94.1798 60.6147C94.0208 60.6147 93.8942 60.4882 93.8942 60.3292L93.8942 59.343C93.8942 59.184 94.0208 59.0574 94.1798 59.0574C94.3387 59.0574 94.4653 59.184 94.4653 59.343ZM94.4653 56.0017L94.4653 56.9849C94.4653 57.1439 94.3387 57.2705 94.1798 57.2705C94.0208 57.2705 93.8942 57.1439 93.8942 56.9849L93.8942 56.0017C93.8942 55.8427 94.0208 55.7161 94.1798 55.7161C94.3387 55.7161 94.4653 55.8427 94.4653 56.0017Z" fill="#56E4EE"/>
<path d="M79.8245 53.9487C79.8245 54.0223 79.7951 54.0959 79.7392 54.1518L78.4233 55.4412C78.3114 55.5531 78.1289 55.5502 78.0199 55.4383C77.9081 55.3264 77.911 55.1439 78.0229 55.035L79.3388 53.7456C79.4507 53.6337 79.6332 53.6366 79.7421 53.7485C79.7981 53.8044 79.8245 53.8751 79.8245 53.9487ZM82.3386 53.9487C82.3386 54.0223 82.3092 54.0959 82.2533 54.1518L80.9373 55.4412C80.8255 55.5531 80.6429 55.5502 80.534 55.4383C80.4251 55.3264 80.4251 55.1439 80.537 55.035L81.8529 53.7456C81.9648 53.6337 82.1473 53.6366 82.2562 53.7485C82.3121 53.8044 82.3386 53.8751 82.3386 53.9487ZM84.8557 53.9487C84.8557 54.0223 84.8262 54.0959 84.7703 54.1518L83.4573 55.4412C83.3454 55.5531 83.1629 55.5502 83.054 55.4383C82.9421 55.3264 82.9451 55.1439 83.0569 55.035L84.3699 53.7456C84.4818 53.6337 84.6643 53.6366 84.7732 53.7485C84.8262 53.8044 84.8557 53.8751 84.8557 53.9487ZM87.3727 53.9487C87.3727 54.0223 87.3432 54.0959 87.2873 54.1518L85.9714 55.4412C85.8595 55.5531 85.677 55.5502 85.5681 55.4383C85.4562 55.3264 85.4591 55.1439 85.571 55.035L86.8869 53.7456C86.9988 53.6337 87.1813 53.6366 87.2902 53.7485C87.3462 53.8044 87.3727 53.8751 87.3727 53.9487ZM89.8868 53.9487C89.8868 54.0223 89.8573 54.0959 89.8014 54.1518L88.4884 55.4412C88.3765 55.5531 88.194 55.5502 88.0851 55.4383C87.9732 55.3264 87.9762 55.1439 88.088 55.035L89.401 53.7456C89.5129 53.6337 89.6954 53.6366 89.8043 53.7485C89.8603 53.8044 89.8868 53.8751 89.8868 53.9487ZM92.4008 53.9487C92.4008 54.0223 92.3714 54.0959 92.3155 54.1518L91.0025 55.4412C90.8906 55.5531 90.7081 55.5502 90.5992 55.4383C90.4873 55.3264 90.4903 55.1439 90.6021 55.035L91.9151 53.7456C92.027 53.6337 92.2095 53.6366 92.3184 53.7485C92.3743 53.8044 92.4008 53.8751 92.4008 53.9487ZM94.703 54.1606C94.703 54.2342 94.6735 54.3078 94.6176 54.3638L93.5195 55.4412C93.4076 55.5502 93.2251 55.5502 93.1162 55.4353C93.0073 55.3235 93.0073 55.141 93.1191 55.032L94.2172 53.9546C94.3291 53.8456 94.5116 53.8456 94.6205 53.9605C94.6765 54.0164 94.703 54.087 94.703 54.1606Z" fill="#3EBED0"/>
<path d="M79.8216 62.2152C79.8216 62.2858 79.7951 62.3594 79.7392 62.4153C79.6303 62.5272 79.4477 62.5302 79.3359 62.4183L78.0229 61.1318C77.911 61.0199 77.9081 60.8404 78.0199 60.7285C78.1289 60.6166 78.3114 60.6137 78.4233 60.7256L79.7362 62.012C79.7922 62.068 79.8216 62.1416 79.8216 62.2152ZM82.3357 62.2152C82.3357 62.2858 82.3092 62.3594 82.2533 62.4153C82.1443 62.5272 81.9618 62.5302 81.8499 62.4183L80.537 61.1318C80.4251 61.0199 80.4222 60.8404 80.534 60.7285C80.6429 60.6166 80.8255 60.6137 80.9373 60.7256L82.2503 62.012C82.3092 62.068 82.3357 62.1416 82.3357 62.2152ZM84.8527 62.2152C84.8527 62.2888 84.8262 62.3594 84.7703 62.4153C84.6584 62.5272 84.4788 62.5302 84.367 62.4183L83.0569 61.1318C82.9451 61.0199 82.9421 60.8404 83.054 60.7285C83.1659 60.6166 83.3454 60.6137 83.4573 60.7256L84.7673 62.012C84.8233 62.068 84.8527 62.1416 84.8527 62.2152ZM87.3697 62.2152C87.3697 62.2858 87.3432 62.3594 87.2873 62.4153C87.1784 62.5272 86.9959 62.5302 86.884 62.4183L85.571 61.1318C85.4591 61.0199 85.4562 60.8404 85.5681 60.7285C85.677 60.6166 85.8595 60.6137 85.9714 60.7256L87.2844 62.012C87.3403 62.068 87.3697 62.1416 87.3697 62.2152ZM89.8838 62.2152C89.8838 62.2888 89.8573 62.3594 89.8014 62.4153C89.6895 62.5272 89.5099 62.5302 89.3981 62.4183L88.088 61.1318C87.9762 61.0199 87.9732 60.8404 88.0851 60.7285C88.197 60.6166 88.3765 60.6137 88.4884 60.7256L89.7984 62.012C89.8544 62.068 89.8838 62.1416 89.8838 62.2152ZM92.3979 62.2152C92.3979 62.2888 92.3714 62.3594 92.3155 62.4153C92.2036 62.5272 92.024 62.5302 91.9122 62.4183L90.6021 61.1318C90.4903 61.0199 90.4873 60.8404 90.5992 60.7285C90.711 60.6166 90.8906 60.6137 91.0025 60.7256L92.3125 62.012C92.3714 62.068 92.3979 62.1416 92.3979 62.2152ZM94.703 62.0061C94.703 62.0768 94.6765 62.1504 94.6205 62.2063C94.5116 62.3182 94.3291 62.3211 94.2172 62.2093L93.1191 61.1318C93.0073 61.0199 93.0043 60.8404 93.1162 60.7285C93.2251 60.6166 93.4076 60.6137 93.5195 60.7256L94.6176 61.803C94.6735 61.8589 94.703 61.9325 94.703 62.0061Z" fill="#3EBED0"/>
<path d="M95.8409 55.983L95.8409 60.1809C95.8409 61.1701 95.2138 62.0503 94.2806 62.3741C94.1805 62.4095 94.0687 62.4389 93.9597 62.4595C93.8214 62.486 93.6712 62.5007 93.5211 62.5007L79.3227 62.5007C79.2756 62.5007 79.2285 62.5007 79.1814 62.4978C79.0254 62.489 78.8694 62.4625 78.7104 62.4212C78.7045 62.4212 78.7016 62.4183 78.6957 62.4183C78.4867 62.3594 78.2865 62.2711 78.101 62.1563C77.4121 61.7265 77 60.9905 77 60.1809L77 55.9859C77 54.9497 77.6977 54.0312 78.6927 53.7515C78.8488 53.7073 79.0136 53.6779 79.1755 53.6691C79.2226 53.6661 79.2697 53.6661 79.3198 53.6661L93.5182 53.6661C93.6683 53.6661 93.8184 53.6808 93.9597 53.7103C94.0657 53.7309 94.1746 53.7574 94.2806 53.7957C95.2138 54.1136 95.8409 54.9938 95.8409 55.983ZM78.8399 61.8619C78.8429 61.8619 78.8458 61.8649 78.8517 61.8649C78.9724 61.8972 79.096 61.9178 79.2167 61.9267C79.2521 61.9296 79.2874 61.9296 79.3257 61.9296L93.524 61.9296C93.6389 61.9296 93.7507 61.9178 93.8567 61.8972C93.9421 61.8825 94.0186 61.8619 94.0922 61.8325C94.7988 61.5881 95.2727 60.9228 95.2727 60.178L95.2727 55.983C95.2727 55.2382 94.7988 54.5728 94.0952 54.3314C94.0157 54.302 93.9391 54.2814 93.8596 54.2667C93.7478 54.2461 93.6359 54.2343 93.524 54.2343L79.3227 54.2343C79.2874 54.2343 79.2491 54.2343 79.2138 54.2372C79.0902 54.2461 78.9695 54.2667 78.8488 54.2991C78.0951 54.511 77.5711 55.2028 77.5711 55.983L77.5711 60.1809C77.5711 60.7903 77.8802 61.3467 78.4013 61.6706C78.5367 61.753 78.6839 61.8178 78.8399 61.8619Z" fill="#3EBED0"/>
<path d="M95.8409 2.83822C95.8409 2.99719 95.7143 3.12378 95.5553 3.12378L77.2856 3.12378C77.1266 3.12378 77 2.99719 77 2.83822C77 2.67925 77.1266 2.55266 77.2856 2.55266L95.5553 2.55266C95.7114 2.55266 95.8409 2.67925 95.8409 2.83822Z" fill="#56E4EE"/>
<path d="M95.8409 4.41659C95.8409 4.57556 95.7143 4.70215 95.5553 4.70215L77.2856 4.70215C77.1266 4.70215 77 4.57262 77 4.41659C77 4.25762 77.1266 4.13103 77.2856 4.13103L95.5553 4.13103C95.7114 4.13103 95.8409 4.25762 95.8409 4.41659Z" fill="#3EBED0"/>
<path d="M95.8409 6.24838C95.8409 6.40735 95.7143 6.53393 95.5553 6.53393L77.2856 6.53394C77.1266 6.53394 77 6.40735 77 6.24838C77 6.08941 77.1266 5.96282 77.2856 5.96282L95.5553 5.96282C95.7114 5.96282 95.8409 6.09235 95.8409 6.24838Z" fill="#56E4EE"/>
<path d="M78.9422 5.6799L78.9422 6.6661C78.9422 6.82507 78.8156 6.95166 78.6567 6.95166C78.4977 6.95166 78.3711 6.82507 78.3711 6.6661L78.3711 5.6799C78.3711 5.52093 78.4977 5.39434 78.6567 5.39434C78.8156 5.39434 78.9422 5.52093 78.9422 5.6799ZM78.9422 2.33859L78.9422 3.32184C78.9422 3.48081 78.8156 3.6074 78.6567 3.6074C78.4977 3.6074 78.3711 3.48081 78.3711 3.32184L78.3711 2.33859C78.3711 2.17962 78.4977 2.05303 78.6567 2.05303C78.8156 2.05303 78.9422 2.17962 78.9422 2.33859ZM80.8852 5.6799L80.8852 6.6661C80.8852 6.82507 80.7586 6.95166 80.5996 6.95166C80.4406 6.95166 80.3141 6.82507 80.3141 6.6661L80.3141 5.6799C80.3141 5.52093 80.4406 5.39434 80.5996 5.39434C80.7556 5.39434 80.8852 5.52093 80.8852 5.6799ZM80.8852 2.33859L80.8852 3.32184C80.8852 3.48081 80.7586 3.6074 80.5996 3.6074C80.4406 3.6074 80.3141 3.48081 80.3141 3.32184L80.3141 2.33859C80.3141 2.17962 80.4406 2.05303 80.5996 2.05303C80.7556 2.05303 80.8852 2.17962 80.8852 2.33859ZM82.8252 5.6799L82.8252 6.6661C82.8252 6.82507 82.6986 6.95166 82.5396 6.95166C82.3807 6.95166 82.2541 6.82507 82.2541 6.6661L82.2541 5.6799C82.2541 5.52093 82.3807 5.39434 82.5396 5.39434C82.6986 5.39434 82.8252 5.52093 82.8252 5.6799ZM82.8252 2.33859L82.8252 3.32184C82.8252 3.48081 82.6986 3.6074 82.5396 3.6074C82.3807 3.6074 82.2541 3.48081 82.2541 3.32184L82.2541 2.33859C82.2541 2.17962 82.3807 2.05303 82.5396 2.05303C82.6986 2.05303 82.8252 2.17962 82.8252 2.33859ZM84.7652 5.6799L84.7652 6.6661C84.7652 6.82507 84.6386 6.95166 84.4797 6.95166C84.3207 6.95166 84.1941 6.82507 84.1941 6.6661L84.1941 5.6799C84.1941 5.52093 84.3207 5.39434 84.4797 5.39434C84.6386 5.39434 84.7652 5.52093 84.7652 5.6799ZM84.7652 2.33859L84.7652 3.32184C84.7652 3.48081 84.6386 3.6074 84.4797 3.6074C84.3207 3.6074 84.1941 3.48081 84.1941 3.32184L84.1941 2.33859C84.1941 2.17962 84.3207 2.05303 84.4797 2.05303C84.6386 2.05303 84.7652 2.17962 84.7652 2.33859ZM86.7052 5.6799L86.7052 6.6661C86.7052 6.82507 86.5787 6.95166 86.4197 6.95166C86.2607 6.95166 86.1341 6.82507 86.1341 6.6661L86.1341 5.6799C86.1341 5.52093 86.2607 5.39434 86.4197 5.39434C86.5757 5.39434 86.7052 5.52093 86.7052 5.6799ZM86.7052 2.33859L86.7052 3.32184C86.7052 3.48081 86.5787 3.6074 86.4197 3.6074C86.2607 3.6074 86.1341 3.48081 86.1341 3.32184L86.1341 2.33859C86.1341 2.17962 86.2607 2.05303 86.4197 2.05303C86.5757 2.05303 86.7052 2.17962 86.7052 2.33859ZM88.6453 5.6799L88.6453 6.6661C88.6453 6.82507 88.5187 6.95166 88.3597 6.95166C88.2007 6.95166 88.0742 6.82507 88.0742 6.6661L88.0742 5.6799C88.0742 5.52093 88.2007 5.39434 88.3597 5.39434C88.5187 5.39434 88.6453 5.52093 88.6453 5.6799ZM88.6453 2.33859L88.6453 3.32184C88.6453 3.48081 88.5187 3.6074 88.3597 3.6074C88.2007 3.6074 88.0742 3.48081 88.0742 3.32184L88.0742 2.33859C88.0742 2.17962 88.2007 2.05303 88.3597 2.05303C88.5187 2.05303 88.6453 2.17962 88.6453 2.33859ZM90.5882 5.6799L90.5882 6.6661C90.5882 6.82507 90.4616 6.95166 90.3027 6.95166C90.1437 6.95166 90.0171 6.82507 90.0171 6.6661L90.0171 5.6799C90.0171 5.52093 90.1437 5.39434 90.3027 5.39434C90.4616 5.39434 90.5882 5.52093 90.5882 5.6799ZM90.5882 2.33859L90.5882 3.32184C90.5882 3.48081 90.4616 3.6074 90.3027 3.6074C90.1437 3.6074 90.0171 3.48081 90.0171 3.32184L90.0171 2.33859C90.0171 2.17962 90.1437 2.05303 90.3027 2.05303C90.4616 2.05303 90.5882 2.17962 90.5882 2.33859ZM92.5253 5.6799L92.5253 6.6661C92.5253 6.82507 92.3987 6.95166 92.2398 6.95166C92.0808 6.95166 91.9542 6.82507 91.9542 6.6661L91.9542 5.6799C91.9542 5.52093 92.0808 5.39434 92.2398 5.39434C92.3987 5.39434 92.5253 5.52093 92.5253 5.6799ZM92.5253 2.33859L92.5253 3.32184C92.5253 3.48081 92.3987 3.6074 92.2398 3.6074C92.0808 3.6074 91.9542 3.48081 91.9542 3.32184L91.9542 2.33859C91.9542 2.17962 92.0808 2.05303 92.2398 2.05303C92.3987 2.05303 92.5253 2.17962 92.5253 2.33859ZM94.4653 5.6799L94.4653 6.6661C94.4653 6.82507 94.3387 6.95166 94.1798 6.95166C94.0208 6.95166 93.8942 6.82507 93.8942 6.6661L93.8942 5.6799C93.8942 5.52093 94.0208 5.39434 94.1798 5.39434C94.3387 5.39434 94.4653 5.52093 94.4653 5.6799ZM94.4653 2.33859L94.4653 3.32184C94.4653 3.48081 94.3387 3.6074 94.1798 3.6074C94.0208 3.6074 93.8942 3.48081 93.8942 3.32184L93.8942 2.33859C93.8942 2.17962 94.0208 2.05303 94.1798 2.05303C94.3387 2.05303 94.4653 2.17962 94.4653 2.33859Z" fill="#56E4EE"/>
<path d="M79.8245 0.285601C79.8245 0.359198 79.7951 0.432796 79.7392 0.48873L78.4233 1.77815C78.3114 1.89002 78.1289 1.88708 78.0199 1.77521C77.9081 1.66334 77.911 1.48082 78.0229 1.3719L79.3388 0.0824726C79.4507 -0.0293952 79.6332 -0.0264518 79.7421 0.085416C79.7981 0.14135 79.8245 0.212003 79.8245 0.285601ZM82.3386 0.2856C82.3386 0.359198 82.3092 0.432796 82.2533 0.488729L80.9373 1.77815C80.8255 1.89002 80.6429 1.88708 80.534 1.77521C80.4251 1.66334 80.4251 1.48082 80.537 1.3719L81.8529 0.0824725C81.9648 -0.0293953 82.1473 -0.0264519 82.2562 0.0854159C82.3121 0.14135 82.3386 0.212003 82.3386 0.2856ZM84.8557 0.2856C84.8557 0.359198 84.8262 0.432795 84.7703 0.488729L83.4573 1.77815C83.3454 1.89002 83.1629 1.88708 83.054 1.77521C82.9421 1.66334 82.9451 1.48082 83.0569 1.3719L84.3699 0.0824724C84.4818 -0.0293954 84.6643 -0.026452 84.7732 0.0854158C84.8262 0.14135 84.8557 0.212003 84.8557 0.2856ZM87.3727 0.2856C87.3727 0.359197 87.3432 0.432795 87.2873 0.488729L85.9714 1.77815C85.8595 1.89002 85.677 1.88708 85.5681 1.77521C85.4562 1.66334 85.4591 1.48082 85.571 1.3719L86.8869 0.0824723C86.9988 -0.0293955 87.1813 -0.0264521 87.2902 0.0854157C87.3462 0.14135 87.3727 0.212003 87.3727 0.2856ZM89.8868 0.2856C89.8868 0.359197 89.8573 0.432795 89.8014 0.488729L88.4884 1.77815C88.3765 1.89002 88.194 1.88708 88.0851 1.77521C87.9732 1.66334 87.9762 1.48082 88.088 1.3719L89.401 0.0824722C89.5129 -0.0293956 89.6954 -0.0264522 89.8043 0.0854156C89.8603 0.141349 89.8868 0.212003 89.8868 0.2856ZM92.4008 0.2856C92.4008 0.359197 92.3714 0.432795 92.3155 0.488729L91.0025 1.77815C90.8906 1.89002 90.7081 1.88708 90.5992 1.77521C90.4873 1.66334 90.4903 1.48082 90.6021 1.3719L91.9151 0.0824721C92.027 -0.0293957 92.2095 -0.0264523 92.3184 0.0854154C92.3743 0.141349 92.4008 0.212003 92.4008 0.2856ZM94.703 0.49756C94.703 0.571157 94.6735 0.644754 94.6176 0.700688L93.5195 1.77815C93.4076 1.88708 93.2251 1.88708 93.1162 1.77226C93.0073 1.6604 93.0073 1.47787 93.1191 1.36895L94.2172 0.291488C94.3291 0.182564 94.5116 0.182564 94.6205 0.297376C94.6765 0.35331 94.703 0.423963 94.703 0.49756Z" fill="#3EBED0"/>
<path d="M79.8216 8.5511C79.8216 8.62175 79.7951 8.69535 79.7392 8.75128C79.6303 8.86315 79.4477 8.86609 79.3359 8.75423L78.0229 7.46775C77.911 7.35588 77.9081 7.1763 78.0199 7.06443C78.1289 6.95257 78.3114 6.94962 78.4233 7.06149L79.7362 8.34797C79.7922 8.4039 79.8216 8.4775 79.8216 8.5511ZM82.3357 8.5511C82.3357 8.62175 82.3092 8.69535 82.2533 8.75128C82.1443 8.86315 81.9618 8.86609 81.8499 8.75423L80.537 7.46775C80.4251 7.35588 80.4222 7.1763 80.534 7.06443C80.6429 6.95257 80.8255 6.94962 80.9373 7.06149L82.2503 8.34797C82.3092 8.4039 82.3357 8.4775 82.3357 8.5511ZM84.8527 8.5511C84.8527 8.6247 84.8262 8.69535 84.7703 8.75128C84.6584 8.86315 84.4788 8.86609 84.367 8.75423L83.0569 7.46775C82.9451 7.35588 82.9421 7.1763 83.054 7.06443C83.1659 6.95257 83.3454 6.94962 83.4573 7.06149L84.7673 8.34797C84.8233 8.4039 84.8527 8.4775 84.8527 8.5511ZM87.3697 8.5511C87.3697 8.62175 87.3432 8.69535 87.2873 8.75128C87.1784 8.86315 86.9959 8.86609 86.884 8.75423L85.571 7.46775C85.4591 7.35588 85.4562 7.1763 85.5681 7.06443C85.677 6.95257 85.8595 6.94962 85.9714 7.06149L87.2844 8.34797C87.3403 8.4039 87.3697 8.4775 87.3697 8.5511ZM89.8838 8.5511C89.8838 8.6247 89.8573 8.69535 89.8014 8.75128C89.6895 8.86315 89.5099 8.86609 89.3981 8.75423L88.088 7.46775C87.9762 7.35588 87.9732 7.1763 88.0851 7.06443C88.197 6.95257 88.3765 6.94962 88.4884 7.06149L89.7984 8.34797C89.8544 8.4039 89.8838 8.4775 89.8838 8.5511ZM92.3979 8.5511C92.3979 8.6247 92.3714 8.69535 92.3155 8.75128C92.2036 8.86315 92.024 8.86609 91.9122 8.75423L90.6021 7.46775C90.4903 7.35588 90.4873 7.1763 90.5992 7.06443C90.711 6.95257 90.8906 6.94962 91.0025 7.06149L92.3125 8.34797C92.3714 8.4039 92.3979 8.4775 92.3979 8.5511ZM94.703 8.34208C94.703 8.41273 94.6765 8.48633 94.6205 8.54227C94.5116 8.65413 94.3291 8.65708 94.2172 8.54521L93.1191 7.46775C93.0073 7.35588 93.0043 7.1763 93.1162 7.06443C93.2251 6.95257 93.4076 6.94962 93.5195 7.06149L94.6176 8.13895C94.6735 8.19489 94.703 8.26848 94.703 8.34208Z" fill="#3EBED0"/>
<path d="M95.8409 2.3189L95.8409 6.51688C95.8409 7.50603 95.2138 8.38625 94.2806 8.71008C94.1805 8.74541 94.0687 8.77485 93.9597 8.79545C93.8214 8.82195 93.6712 8.83667 93.5211 8.83667L79.3227 8.83667C79.2756 8.83667 79.2285 8.83667 79.1814 8.83373C79.0254 8.82489 78.8694 8.7984 78.7104 8.75718C78.7045 8.75718 78.7016 8.75424 78.6957 8.75424C78.4867 8.69536 78.2865 8.60705 78.101 8.49223C77.4121 8.06243 77 7.32645 77 6.51689L77 2.32185C77 1.2856 77.6977 0.367103 78.6927 0.087434C78.8488 0.0432757 79.0136 0.013836 79.1755 0.00500435C79.2226 0.00206046 79.2697 0.00206095 79.3198 0.00206094L93.5182 0.00206032C93.6683 0.00206032 93.8184 0.0167802 93.9597 0.0462191C94.0657 0.0668263 94.1746 0.0933204 94.2806 0.131591C95.2138 0.449531 95.8409 1.32975 95.8409 2.3189ZM78.8399 8.19785C78.8429 8.19785 78.8458 8.20079 78.8517 8.20079C78.9724 8.23317 79.096 8.25378 79.2167 8.26261C79.2521 8.26556 79.2874 8.26556 79.3257 8.26556L93.524 8.26555C93.6389 8.26555 93.7507 8.25378 93.8567 8.23317C93.9421 8.21845 94.0186 8.19785 94.0922 8.16841C94.7988 7.92406 95.2727 7.25875 95.2727 6.51394L95.2727 2.3189C95.2727 1.5741 94.7988 0.908777 94.0952 0.667379C94.0157 0.63794 93.9391 0.617333 93.8596 0.602614C93.7478 0.582007 93.6359 0.570231 93.524 0.570231L79.3227 0.570231C79.2874 0.570231 79.2491 0.570231 79.2138 0.573175C79.0902 0.582007 78.9695 0.602615 78.8488 0.634997C78.0951 0.846957 77.5711 1.53877 77.5711 2.3189L77.5711 6.51689C77.5711 7.12627 77.8802 7.68267 78.4013 8.00649C78.5367 8.08892 78.6839 8.15369 78.8399 8.19785Z" fill="#3EBED0"/>
<path d="M133.836 8.83862L133.836 53.8929" stroke="white" strokeLinecap="square"/>
<path d="M132.195 8.83862L132.195 53.8929" stroke="white" strokeLinecap="square"/>
<path d="M142.841 56.5025C142.841 56.6615 142.714 56.7881 142.555 56.7881L124.286 56.7881C124.127 56.7881 124 56.6615 124 56.5025C124 56.3436 124.127 56.217 124.286 56.217L142.555 56.217C142.711 56.217 142.841 56.3436 142.841 56.5025Z" fill="#56E4EE"/>
<path d="M142.841 58.0797C142.841 58.2386 142.714 58.3652 142.555 58.3652L124.286 58.3652C124.127 58.3652 124 58.2357 124 58.0797C124 57.9207 124.127 57.7941 124.286 57.7941L142.555 57.7941C142.711 57.7941 142.841 57.9207 142.841 58.0797Z" fill="#3EBED0"/>
<path d="M142.841 59.9115C142.841 60.0704 142.714 60.197 142.555 60.197L124.286 60.197C124.127 60.197 124 60.0704 124 59.9115C124 59.7525 124.127 59.6259 124.286 59.6259L142.555 59.6259C142.711 59.6259 142.841 59.7554 142.841 59.9115Z" fill="#56E4EE"/>
<path d="M125.942 59.343L125.942 60.3292C125.942 60.4882 125.816 60.6147 125.657 60.6147C125.498 60.6147 125.371 60.4882 125.371 60.3292L125.371 59.343C125.371 59.184 125.498 59.0574 125.657 59.0574C125.816 59.0574 125.942 59.184 125.942 59.343ZM125.942 56.0017L125.942 56.9849C125.942 57.1439 125.816 57.2705 125.657 57.2705C125.498 57.2705 125.371 57.1439 125.371 56.9849L125.371 56.0017C125.371 55.8427 125.498 55.7161 125.657 55.7161C125.816 55.7161 125.942 55.8427 125.942 56.0017ZM127.885 59.343L127.885 60.3292C127.885 60.4882 127.759 60.6147 127.6 60.6147C127.441 60.6147 127.314 60.4882 127.314 60.3292L127.314 59.343C127.314 59.184 127.441 59.0574 127.6 59.0574C127.756 59.0574 127.885 59.184 127.885 59.343ZM127.885 56.0017L127.885 56.9849C127.885 57.1439 127.759 57.2705 127.6 57.2705C127.441 57.2705 127.314 57.1439 127.314 56.9849L127.314 56.0017C127.314 55.8427 127.441 55.7161 127.6 55.7161C127.756 55.7161 127.885 55.8427 127.885 56.0017ZM129.825 59.343L129.825 60.3292C129.825 60.4882 129.699 60.6147 129.54 60.6147C129.381 60.6147 129.254 60.4882 129.254 60.3292L129.254 59.343C129.254 59.184 129.381 59.0574 129.54 59.0574C129.699 59.0574 129.825 59.184 129.825 59.343ZM129.825 56.0017L129.825 56.9849C129.825 57.1439 129.699 57.2705 129.54 57.2705C129.381 57.2705 129.254 57.1439 129.254 56.9849L129.254 56.0017C129.254 55.8427 129.381 55.7161 129.54 55.7161C129.699 55.7161 129.825 55.8427 129.825 56.0017ZM131.765 59.343L131.765 60.3292C131.765 60.4882 131.639 60.6147 131.48 60.6147C131.321 60.6147 131.194 60.4882 131.194 60.3292L131.194 59.343C131.194 59.184 131.321 59.0574 131.48 59.0574C131.639 59.0574 131.765 59.184 131.765 59.343ZM131.765 56.0017L131.765 56.9849C131.765 57.1439 131.639 57.2705 131.48 57.2705C131.321 57.2705 131.194 57.1439 131.194 56.9849L131.194 56.0017C131.194 55.8427 131.321 55.7161 131.48 55.7161C131.639 55.7161 131.765 55.8427 131.765 56.0017ZM133.705 59.343L133.705 60.3292C133.705 60.4882 133.579 60.6147 133.42 60.6147C133.261 60.6147 133.134 60.4882 133.134 60.3292L133.134 59.343C133.134 59.184 133.261 59.0574 133.42 59.0574C133.576 59.0574 133.705 59.184 133.705 59.343ZM133.705 56.0017L133.705 56.9849C133.705 57.1439 133.579 57.2705 133.42 57.2705C133.261 57.2705 133.134 57.1439 133.134 56.9849L133.134 56.0017C133.134 55.8427 133.261 55.7161 133.42 55.7161C133.576 55.7161 133.705 55.8427 133.705 56.0017ZM135.645 59.343L135.645 60.3292C135.645 60.4882 135.519 60.6147 135.36 60.6147C135.201 60.6147 135.074 60.4882 135.074 60.3292L135.074 59.343C135.074 59.184 135.201 59.0574 135.36 59.0574C135.519 59.0574 135.645 59.184 135.645 59.343ZM135.645 56.0017L135.645 56.9849C135.645 57.1439 135.519 57.2705 135.36 57.2705C135.201 57.2705 135.074 57.1439 135.074 56.9849L135.074 56.0017C135.074 55.8427 135.201 55.7161 135.36 55.7161C135.519 55.7161 135.645 55.8427 135.645 56.0017ZM137.588 59.343L137.588 60.3292C137.588 60.4882 137.462 60.6147 137.303 60.6147C137.144 60.6147 137.017 60.4882 137.017 60.3292L137.017 59.343C137.017 59.184 137.144 59.0574 137.303 59.0574C137.462 59.0574 137.588 59.184 137.588 59.343ZM137.588 56.0017L137.588 56.9849C137.588 57.1439 137.462 57.2705 137.303 57.2705C137.144 57.2705 137.017 57.1439 137.017 56.9849L137.017 56.0017C137.017 55.8427 137.144 55.7161 137.303 55.7161C137.462 55.7161 137.588 55.8427 137.588 56.0017ZM139.525 59.343L139.525 60.3292C139.525 60.4882 139.399 60.6147 139.24 60.6147C139.081 60.6147 138.954 60.4882 138.954 60.3292L138.954 59.343C138.954 59.184 139.081 59.0574 139.24 59.0574C139.399 59.0574 139.525 59.184 139.525 59.343ZM139.525 56.0017L139.525 56.9849C139.525 57.1439 139.399 57.2705 139.24 57.2705C139.081 57.2705 138.954 57.1439 138.954 56.9849L138.954 56.0017C138.954 55.8427 139.081 55.7161 139.24 55.7161C139.399 55.7161 139.525 55.8427 139.525 56.0017ZM141.465 59.343L141.465 60.3292C141.465 60.4882 141.339 60.6147 141.18 60.6147C141.021 60.6147 140.894 60.4882 140.894 60.3292L140.894 59.343C140.894 59.184 141.021 59.0574 141.18 59.0574C141.339 59.0574 141.465 59.184 141.465 59.343ZM141.465 56.0017L141.465 56.9849C141.465 57.1439 141.339 57.2705 141.18 57.2705C141.021 57.2705 140.894 57.1439 140.894 56.9849L140.894 56.0017C140.894 55.8427 141.021 55.7161 141.18 55.7161C141.339 55.7161 141.465 55.8427 141.465 56.0017Z" fill="#56E4EE"/>
<path d="M126.825 53.9487C126.825 54.0223 126.795 54.0959 126.739 54.1518L125.423 55.4412C125.311 55.5531 125.129 55.5502 125.02 55.4383C124.908 55.3264 124.911 55.1439 125.023 55.035L126.339 53.7456C126.451 53.6337 126.633 53.6366 126.742 53.7485C126.798 53.8044 126.825 53.8751 126.825 53.9487ZM129.339 53.9487C129.339 54.0223 129.309 54.0959 129.253 54.1518L127.937 55.4412C127.825 55.5531 127.643 55.5502 127.534 55.4383C127.425 55.3264 127.425 55.1439 127.537 55.035L128.853 53.7456C128.965 53.6337 129.147 53.6366 129.256 53.7485C129.312 53.8044 129.339 53.8751 129.339 53.9487ZM131.856 53.9487C131.856 54.0223 131.826 54.0959 131.77 54.1518L130.457 55.4412C130.345 55.5531 130.163 55.5502 130.054 55.4383C129.942 55.3264 129.945 55.1439 130.057 55.035L131.37 53.7456C131.482 53.6337 131.664 53.6366 131.773 53.7485C131.826 53.8044 131.856 53.8751 131.856 53.9487ZM134.373 53.9487C134.373 54.0223 134.343 54.0959 134.287 54.1518L132.971 55.4412C132.86 55.5531 132.677 55.5502 132.568 55.4383C132.456 55.3264 132.459 55.1439 132.571 55.035L133.887 53.7456C133.999 53.6337 134.181 53.6366 134.29 53.7485C134.346 53.8044 134.373 53.8751 134.373 53.9487ZM136.887 53.9487C136.887 54.0223 136.857 54.0959 136.801 54.1518L135.488 55.4412C135.377 55.5531 135.194 55.5502 135.085 55.4383C134.973 55.3264 134.976 55.1439 135.088 55.035L136.401 53.7456C136.513 53.6337 136.695 53.6366 136.804 53.7485C136.86 53.8044 136.887 53.8751 136.887 53.9487ZM139.401 53.9487C139.401 54.0223 139.371 54.0959 139.315 54.1518L138.002 55.4412C137.891 55.5531 137.708 55.5502 137.599 55.4383C137.487 55.3264 137.49 55.1439 137.602 55.035L138.915 53.7456C139.027 53.6337 139.209 53.6366 139.318 53.7485C139.374 53.8044 139.401 53.8751 139.401 53.9487ZM141.703 54.1606C141.703 54.2342 141.674 54.3078 141.618 54.3638L140.52 55.4412C140.408 55.5502 140.225 55.5502 140.116 55.4353C140.007 55.3235 140.007 55.141 140.119 55.032L141.217 53.9546C141.329 53.8456 141.512 53.8456 141.621 53.9605C141.676 54.0164 141.703 54.087 141.703 54.1606Z" fill="#3EBED0"/>
<path d="M126.822 62.2152C126.822 62.2858 126.795 62.3594 126.739 62.4153C126.63 62.5272 126.448 62.5302 126.336 62.4183L125.023 61.1318C124.911 61.0199 124.908 60.8404 125.02 60.7285C125.129 60.6166 125.311 60.6137 125.423 60.7256L126.736 62.012C126.792 62.068 126.822 62.1416 126.822 62.2152ZM129.336 62.2152C129.336 62.2858 129.309 62.3594 129.253 62.4153C129.144 62.5272 128.962 62.5302 128.85 62.4183L127.537 61.1318C127.425 61.0199 127.422 60.8404 127.534 60.7285C127.643 60.6166 127.825 60.6137 127.937 60.7256L129.25 62.012C129.309 62.068 129.336 62.1416 129.336 62.2152ZM131.853 62.2152C131.853 62.2888 131.826 62.3594 131.77 62.4153C131.658 62.5272 131.479 62.5302 131.367 62.4183L130.057 61.1318C129.945 61.0199 129.942 60.8404 130.054 60.7285C130.166 60.6166 130.345 60.6137 130.457 60.7256L131.767 62.012C131.823 62.068 131.853 62.1416 131.853 62.2152ZM134.37 62.2152C134.37 62.2858 134.343 62.3594 134.287 62.4153C134.178 62.5272 133.996 62.5302 133.884 62.4183L132.571 61.1318C132.459 61.0199 132.456 60.8404 132.568 60.7285C132.677 60.6166 132.86 60.6137 132.971 60.7256L134.284 62.012C134.34 62.068 134.37 62.1416 134.37 62.2152ZM136.884 62.2152C136.884 62.2888 136.857 62.3594 136.801 62.4153C136.69 62.5272 136.51 62.5302 136.398 62.4183L135.088 61.1318C134.976 61.0199 134.973 60.8404 135.085 60.7285C135.197 60.6166 135.377 60.6137 135.488 60.7256L136.798 62.012C136.854 62.068 136.884 62.1416 136.884 62.2152ZM139.398 62.2152C139.398 62.2888 139.371 62.3594 139.315 62.4153C139.204 62.5272 139.024 62.5302 138.912 62.4183L137.602 61.1318C137.49 61.0199 137.487 60.8404 137.599 60.7285C137.711 60.6166 137.891 60.6137 138.002 60.7256L139.313 62.012C139.371 62.068 139.398 62.1416 139.398 62.2152ZM141.703 62.0061C141.703 62.0768 141.676 62.1504 141.621 62.2063C141.512 62.3182 141.329 62.3211 141.217 62.2093L140.119 61.1318C140.007 61.0199 140.004 60.8404 140.116 60.7285C140.225 60.6166 140.408 60.6137 140.52 60.7256L141.618 61.803C141.674 61.8589 141.703 61.9325 141.703 62.0061Z" fill="#3EBED0"/>
<path d="M142.841 55.983L142.841 60.1809C142.841 61.1701 142.214 62.0503 141.281 62.3741C141.181 62.4095 141.069 62.4389 140.96 62.4595C140.821 62.486 140.671 62.5007 140.521 62.5007L126.323 62.5007C126.276 62.5007 126.229 62.5007 126.181 62.4978C126.025 62.489 125.869 62.4625 125.71 62.4212C125.705 62.4212 125.702 62.4183 125.696 62.4183C125.487 62.3594 125.286 62.2711 125.101 62.1563C124.412 61.7265 124 60.9905 124 60.1809L124 55.9859C124 54.9497 124.698 54.0312 125.693 53.7515C125.849 53.7073 126.014 53.6779 126.176 53.6691C126.223 53.6661 126.27 53.6661 126.32 53.6661L140.518 53.6661C140.668 53.6661 140.818 53.6808 140.96 53.7103C141.066 53.7309 141.175 53.7574 141.281 53.7957C142.214 54.1136 142.841 54.9938 142.841 55.983ZM125.84 61.8619C125.843 61.8619 125.846 61.8649 125.852 61.8649C125.972 61.8972 126.096 61.9178 126.217 61.9267C126.252 61.9296 126.287 61.9296 126.326 61.9296L140.524 61.9296C140.639 61.9296 140.751 61.9178 140.857 61.8972C140.942 61.8825 141.019 61.8619 141.092 61.8325C141.799 61.5881 142.273 60.9228 142.273 60.178L142.273 55.983C142.273 55.2382 141.799 54.5728 141.095 54.3314C141.016 54.302 140.939 54.2814 140.86 54.2667C140.748 54.2461 140.636 54.2343 140.524 54.2343L126.323 54.2343C126.287 54.2343 126.249 54.2343 126.214 54.2372C126.09 54.2461 125.969 54.2667 125.849 54.2991C125.095 54.511 124.571 55.2028 124.571 55.983L124.571 60.1809C124.571 60.7903 124.88 61.3467 125.401 61.6706C125.537 61.753 125.684 61.8178 125.84 61.8619Z" fill="#3EBED0"/>
<path d="M142.841 2.83822C142.841 2.99719 142.714 3.12378 142.555 3.12378L124.286 3.12378C124.127 3.12378 124 2.99719 124 2.83822C124 2.67925 124.127 2.55266 124.286 2.55266L142.555 2.55266C142.711 2.55266 142.841 2.67925 142.841 2.83822Z" fill="#56E4EE"/>
<path d="M142.841 4.41659C142.841 4.57556 142.714 4.70215 142.555 4.70215L124.286 4.70215C124.127 4.70215 124 4.57262 124 4.41659C124 4.25762 124.127 4.13103 124.286 4.13103L142.555 4.13103C142.711 4.13103 142.841 4.25762 142.841 4.41659Z" fill="#3EBED0"/>
<path d="M142.841 6.24838C142.841 6.40735 142.714 6.53393 142.555 6.53393L124.286 6.53394C124.127 6.53394 124 6.40735 124 6.24838C124 6.08941 124.127 5.96282 124.286 5.96282L142.555 5.96282C142.711 5.96282 142.841 6.09235 142.841 6.24838Z" fill="#56E4EE"/>
<path d="M125.942 5.6799L125.942 6.6661C125.942 6.82507 125.816 6.95166 125.657 6.95166C125.498 6.95166 125.371 6.82507 125.371 6.6661L125.371 5.6799C125.371 5.52093 125.498 5.39434 125.657 5.39434C125.816 5.39434 125.942 5.52093 125.942 5.6799ZM125.942 2.33859L125.942 3.32184C125.942 3.48081 125.816 3.6074 125.657 3.6074C125.498 3.6074 125.371 3.48081 125.371 3.32184L125.371 2.33859C125.371 2.17962 125.498 2.05303 125.657 2.05303C125.816 2.05303 125.942 2.17962 125.942 2.33859ZM127.885 5.6799L127.885 6.6661C127.885 6.82507 127.759 6.95166 127.6 6.95166C127.441 6.95166 127.314 6.82507 127.314 6.6661L127.314 5.6799C127.314 5.52093 127.441 5.39434 127.6 5.39434C127.756 5.39434 127.885 5.52093 127.885 5.6799ZM127.885 2.33859L127.885 3.32184C127.885 3.48081 127.759 3.6074 127.6 3.6074C127.441 3.6074 127.314 3.48081 127.314 3.32184L127.314 2.33859C127.314 2.17962 127.441 2.05303 127.6 2.05303C127.756 2.05303 127.885 2.17962 127.885 2.33859ZM129.825 5.6799L129.825 6.6661C129.825 6.82507 129.699 6.95166 129.54 6.95166C129.381 6.95166 129.254 6.82507 129.254 6.6661L129.254 5.6799C129.254 5.52093 129.381 5.39434 129.54 5.39434C129.699 5.39434 129.825 5.52093 129.825 5.6799ZM129.825 2.33859L129.825 3.32184C129.825 3.48081 129.699 3.6074 129.54 3.6074C129.381 3.6074 129.254 3.48081 129.254 3.32184L129.254 2.33859C129.254 2.17962 129.381 2.05303 129.54 2.05303C129.699 2.05303 129.825 2.17962 129.825 2.33859ZM131.765 5.6799L131.765 6.6661C131.765 6.82507 131.639 6.95166 131.48 6.95166C131.321 6.95166 131.194 6.82507 131.194 6.6661L131.194 5.6799C131.194 5.52093 131.321 5.39434 131.48 5.39434C131.639 5.39434 131.765 5.52093 131.765 5.6799ZM131.765 2.33859L131.765 3.32184C131.765 3.48081 131.639 3.6074 131.48 3.6074C131.321 3.6074 131.194 3.48081 131.194 3.32184L131.194 2.33859C131.194 2.17962 131.321 2.05303 131.48 2.05303C131.639 2.05303 131.765 2.17962 131.765 2.33859ZM133.705 5.6799L133.705 6.6661C133.705 6.82507 133.579 6.95166 133.42 6.95166C133.261 6.95166 133.134 6.82507 133.134 6.6661L133.134 5.6799C133.134 5.52093 133.261 5.39434 133.42 5.39434C133.576 5.39434 133.705 5.52093 133.705 5.6799ZM133.705 2.33859L133.705 3.32184C133.705 3.48081 133.579 3.6074 133.42 3.6074C133.261 3.6074 133.134 3.48081 133.134 3.32184L133.134 2.33859C133.134 2.17962 133.261 2.05303 133.42 2.05303C133.576 2.05303 133.705 2.17962 133.705 2.33859ZM135.645 5.6799L135.645 6.6661C135.645 6.82507 135.519 6.95166 135.36 6.95166C135.201 6.95166 135.074 6.82507 135.074 6.6661L135.074 5.6799C135.074 5.52093 135.201 5.39434 135.36 5.39434C135.519 5.39434 135.645 5.52093 135.645 5.6799ZM135.645 2.33859L135.645 3.32184C135.645 3.48081 135.519 3.6074 135.36 3.6074C135.201 3.6074 135.074 3.48081 135.074 3.32184L135.074 2.33859C135.074 2.17962 135.201 2.05303 135.36 2.05303C135.519 2.05303 135.645 2.17962 135.645 2.33859ZM137.588 5.6799L137.588 6.6661C137.588 6.82507 137.462 6.95166 137.303 6.95166C137.144 6.95166 137.017 6.82507 137.017 6.6661L137.017 5.6799C137.017 5.52093 137.144 5.39434 137.303 5.39434C137.462 5.39434 137.588 5.52093 137.588 5.6799ZM137.588 2.33859L137.588 3.32184C137.588 3.48081 137.462 3.6074 137.303 3.6074C137.144 3.6074 137.017 3.48081 137.017 3.32184L137.017 2.33859C137.017 2.17962 137.144 2.05303 137.303 2.05303C137.462 2.05303 137.588 2.17962 137.588 2.33859ZM139.525 5.6799L139.525 6.6661C139.525 6.82507 139.399 6.95166 139.24 6.95166C139.081 6.95166 138.954 6.82507 138.954 6.6661L138.954 5.6799C138.954 5.52093 139.081 5.39434 139.24 5.39434C139.399 5.39434 139.525 5.52093 139.525 5.6799ZM139.525 2.33859L139.525 3.32184C139.525 3.48081 139.399 3.6074 139.24 3.6074C139.081 3.6074 138.954 3.48081 138.954 3.32184L138.954 2.33859C138.954 2.17962 139.081 2.05303 139.24 2.05303C139.399 2.05303 139.525 2.17962 139.525 2.33859ZM141.465 5.6799L141.465 6.6661C141.465 6.82507 141.339 6.95166 141.18 6.95166C141.021 6.95166 140.894 6.82507 140.894 6.6661L140.894 5.6799C140.894 5.52093 141.021 5.39434 141.18 5.39434C141.339 5.39434 141.465 5.52093 141.465 5.6799ZM141.465 2.33859L141.465 3.32184C141.465 3.48081 141.339 3.6074 141.18 3.6074C141.021 3.6074 140.894 3.48081 140.894 3.32184L140.894 2.33859C140.894 2.17962 141.021 2.05303 141.18 2.05303C141.339 2.05303 141.465 2.17962 141.465 2.33859Z" fill="#56E4EE"/>
<path d="M126.825 0.285601C126.825 0.359198 126.795 0.432796 126.739 0.48873L125.423 1.77815C125.311 1.89002 125.129 1.88708 125.02 1.77521C124.908 1.66334 124.911 1.48082 125.023 1.3719L126.339 0.0824726C126.451 -0.0293952 126.633 -0.0264518 126.742 0.085416C126.798 0.14135 126.825 0.212003 126.825 0.285601ZM129.339 0.2856C129.339 0.359198 129.309 0.432796 129.253 0.488729L127.937 1.77815C127.825 1.89002 127.643 1.88708 127.534 1.77521C127.425 1.66334 127.425 1.48082 127.537 1.3719L128.853 0.0824725C128.965 -0.0293953 129.147 -0.0264519 129.256 0.0854159C129.312 0.14135 129.339 0.212003 129.339 0.2856ZM131.856 0.2856C131.856 0.359198 131.826 0.432795 131.77 0.488729L130.457 1.77815C130.345 1.89002 130.163 1.88708 130.054 1.77521C129.942 1.66334 129.945 1.48082 130.057 1.3719L131.37 0.0824724C131.482 -0.0293954 131.664 -0.026452 131.773 0.0854158C131.826 0.14135 131.856 0.212003 131.856 0.2856ZM134.373 0.2856C134.373 0.359197 134.343 0.432795 134.287 0.488729L132.971 1.77815C132.86 1.89002 132.677 1.88708 132.568 1.77521C132.456 1.66334 132.459 1.48082 132.571 1.3719L133.887 0.0824723C133.999 -0.0293955 134.181 -0.0264521 134.29 0.0854157C134.346 0.14135 134.373 0.212003 134.373 0.2856ZM136.887 0.2856C136.887 0.359197 136.857 0.432795 136.801 0.488729L135.488 1.77815C135.377 1.89002 135.194 1.88708 135.085 1.77521C134.973 1.66334 134.976 1.48082 135.088 1.3719L136.401 0.0824722C136.513 -0.0293956 136.695 -0.0264522 136.804 0.0854156C136.86 0.141349 136.887 0.212003 136.887 0.2856ZM139.401 0.2856C139.401 0.359197 139.371 0.432795 139.315 0.488729L138.002 1.77815C137.891 1.89002 137.708 1.88708 137.599 1.77521C137.487 1.66334 137.49 1.48082 137.602 1.3719L138.915 0.0824721C139.027 -0.0293957 139.209 -0.0264523 139.318 0.0854154C139.374 0.141349 139.401 0.212003 139.401 0.2856ZM141.703 0.49756C141.703 0.571157 141.674 0.644754 141.618 0.700688L140.52 1.77815C140.408 1.88708 140.225 1.88708 140.116 1.77226C140.007 1.6604 140.007 1.47787 140.119 1.36895L141.217 0.291488C141.329 0.182564 141.512 0.182564 141.621 0.297376C141.676 0.35331 141.703 0.423963 141.703 0.49756Z" fill="#3EBED0"/>
<path d="M126.822 8.5511C126.822 8.62175 126.795 8.69535 126.739 8.75128C126.63 8.86315 126.448 8.86609 126.336 8.75423L125.023 7.46775C124.911 7.35588 124.908 7.1763 125.02 7.06443C125.129 6.95257 125.311 6.94962 125.423 7.06149L126.736 8.34797C126.792 8.4039 126.822 8.4775 126.822 8.5511ZM129.336 8.5511C129.336 8.62175 129.309 8.69535 129.253 8.75128C129.144 8.86315 128.962 8.86609 128.85 8.75423L127.537 7.46775C127.425 7.35588 127.422 7.1763 127.534 7.06443C127.643 6.95257 127.825 6.94962 127.937 7.06149L129.25 8.34797C129.309 8.4039 129.336 8.4775 129.336 8.5511ZM131.853 8.5511C131.853 8.6247 131.826 8.69535 131.77 8.75128C131.658 8.86315 131.479 8.86609 131.367 8.75423L130.057 7.46775C129.945 7.35588 129.942 7.1763 130.054 7.06443C130.166 6.95257 130.345 6.94962 130.457 7.06149L131.767 8.34797C131.823 8.4039 131.853 8.4775 131.853 8.5511ZM134.37 8.5511C134.37 8.62175 134.343 8.69535 134.287 8.75128C134.178 8.86315 133.996 8.86609 133.884 8.75423L132.571 7.46775C132.459 7.35588 132.456 7.1763 132.568 7.06443C132.677 6.95257 132.86 6.94962 132.971 7.06149L134.284 8.34797C134.34 8.4039 134.37 8.4775 134.37 8.5511ZM136.884 8.5511C136.884 8.6247 136.857 8.69535 136.801 8.75128C136.69 8.86315 136.51 8.86609 136.398 8.75423L135.088 7.46775C134.976 7.35588 134.973 7.1763 135.085 7.06443C135.197 6.95257 135.377 6.94962 135.488 7.06149L136.798 8.34797C136.854 8.4039 136.884 8.4775 136.884 8.5511ZM139.398 8.5511C139.398 8.6247 139.371 8.69535 139.315 8.75128C139.204 8.86315 139.024 8.86609 138.912 8.75423L137.602 7.46775C137.49 7.35588 137.487 7.1763 137.599 7.06443C137.711 6.95257 137.891 6.94962 138.002 7.06149L139.313 8.34797C139.371 8.4039 139.398 8.4775 139.398 8.5511ZM141.703 8.34208C141.703 8.41273 141.676 8.48633 141.621 8.54227C141.512 8.65413 141.329 8.65708 141.217 8.54521L140.119 7.46775C140.007 7.35588 140.004 7.1763 140.116 7.06443C140.225 6.95257 140.408 6.94962 140.52 7.06149L141.618 8.13895C141.674 8.19489 141.703 8.26848 141.703 8.34208Z" fill="#3EBED0"/>
<path d="M142.841 2.3189L142.841 6.51688C142.841 7.50603 142.214 8.38625 141.281 8.71008C141.181 8.74541 141.069 8.77485 140.96 8.79545C140.821 8.82195 140.671 8.83667 140.521 8.83667L126.323 8.83667C126.276 8.83667 126.229 8.83667 126.181 8.83373C126.025 8.82489 125.869 8.7984 125.71 8.75718C125.705 8.75718 125.702 8.75424 125.696 8.75424C125.487 8.69536 125.286 8.60705 125.101 8.49223C124.412 8.06243 124 7.32645 124 6.51689L124 2.32185C124 1.2856 124.698 0.367103 125.693 0.087434C125.849 0.0432757 126.014 0.013836 126.176 0.00500435C126.223 0.00206046 126.27 0.00206095 126.32 0.00206094L140.518 0.00206032C140.668 0.00206032 140.818 0.0167802 140.96 0.0462191C141.066 0.0668263 141.175 0.0933204 141.281 0.131591C142.214 0.449531 142.841 1.32975 142.841 2.3189ZM125.84 8.19785C125.843 8.19785 125.846 8.20079 125.852 8.20079C125.972 8.23317 126.096 8.25378 126.217 8.26261C126.252 8.26556 126.287 8.26556 126.326 8.26556L140.524 8.26555C140.639 8.26555 140.751 8.25378 140.857 8.23317C140.942 8.21845 141.019 8.19785 141.092 8.16841C141.799 7.92406 142.273 7.25875 142.273 6.51394L142.273 2.3189C142.273 1.5741 141.799 0.908777 141.095 0.667379C141.016 0.63794 140.939 0.617333 140.86 0.602614C140.748 0.582007 140.636 0.570231 140.524 0.570231L126.323 0.570231C126.287 0.570231 126.249 0.570231 126.214 0.573175C126.09 0.582007 125.969 0.602615 125.849 0.634997C125.095 0.846957 124.571 1.53877 124.571 2.3189L124.571 6.51689C124.571 7.12627 124.88 7.68267 125.401 8.00649C125.537 8.08892 125.684 8.15369 125.84 8.19785Z" fill="#3EBED0"/>
<path d="M9.83203 8.83911L9.83203 53.8934" stroke="white" strokeLinecap="square"/>
<path d="M8.19141 8.83911L8.19141 53.8934" stroke="white" strokeLinecap="square"/>
<path d="M18.8409 56.5023C18.8409 56.6613 18.7143 56.7878 18.5553 56.7878L0.285557 56.7878C0.126587 56.7878 -5.53332e-09 56.6613 -1.24821e-08 56.5023C-1.94309e-08 56.3433 0.126587 56.2167 0.285557 56.2167L18.5553 56.2167C18.7114 56.2167 18.8409 56.3433 18.8409 56.5023Z" fill="#56E4EE"/>
<path d="M18.8409 58.0794C18.8409 58.2384 18.7143 58.365 18.5553 58.365L0.285557 58.365C0.126587 58.365 -5.66198e-09 58.2355 -1.24821e-08 58.0794C-1.94309e-08 57.9205 0.126587 57.7939 0.285557 57.7939L18.5553 57.7939C18.7114 57.7939 18.8409 57.9205 18.8409 58.0794Z" fill="#3EBED0"/>
<path d="M18.8409 59.9112C18.8409 60.0702 18.7143 60.1968 18.5553 60.1968L0.285557 60.1968C0.126587 60.1968 -5.53332e-09 60.0702 -1.24821e-08 59.9112C-1.94309e-08 59.7522 0.126587 59.6257 0.285557 59.6257L18.5553 59.6257C18.7114 59.6257 18.8409 59.7552 18.8409 59.9112Z" fill="#56E4EE"/>
<path d="M1.9383 59.3427L1.9383 60.3289C1.9383 60.4879 1.81171 60.6145 1.65274 60.6145C1.49377 60.6145 1.36719 60.4879 1.36719 60.3289L1.36719 59.3427C1.36719 59.1838 1.49377 59.0572 1.65274 59.0572C1.81171 59.0572 1.9383 59.1838 1.9383 59.3427ZM1.9383 56.0014L1.9383 56.9847C1.9383 57.1437 1.81171 57.2702 1.65274 57.2702C1.49377 57.2702 1.36719 57.1437 1.36719 56.9847L1.36719 56.0014C1.36719 55.8425 1.49377 55.7159 1.65274 55.7159C1.81171 55.7159 1.9383 55.8425 1.9383 56.0014ZM3.88127 59.3427L3.88127 60.3289C3.88127 60.4879 3.75468 60.6145 3.59571 60.6145C3.43674 60.6145 3.31015 60.4879 3.31015 60.3289L3.31015 59.3427C3.31015 59.1838 3.43674 59.0572 3.59571 59.0572C3.75174 59.0572 3.88127 59.1838 3.88127 59.3427ZM3.88127 56.0014L3.88127 56.9847C3.88127 57.1437 3.75468 57.2702 3.59571 57.2702C3.43674 57.2702 3.31015 57.1437 3.31015 56.9847L3.31015 56.0014C3.31015 55.8425 3.43674 55.7159 3.59571 55.7159C3.75174 55.7159 3.88127 55.8425 3.88127 56.0014ZM5.82129 59.3427L5.82129 60.3289C5.82129 60.4879 5.6947 60.6145 5.53573 60.6145C5.37676 60.6145 5.25018 60.4879 5.25018 60.3289L5.25018 59.3427C5.25018 59.1838 5.37676 59.0572 5.53573 59.0572C5.6947 59.0572 5.82129 59.1838 5.82129 59.3427ZM5.82129 56.0014L5.82129 56.9847C5.82129 57.1437 5.6947 57.2702 5.53573 57.2702C5.37676 57.2702 5.25018 57.1437 5.25018 56.9847L5.25018 56.0014C5.25018 55.8425 5.37676 55.7159 5.53573 55.7159C5.6947 55.7159 5.82129 55.8425 5.82129 56.0014ZM7.76131 59.3427L7.76131 60.3289C7.76131 60.4879 7.63473 60.6145 7.47576 60.6145C7.31679 60.6145 7.1902 60.4879 7.1902 60.3289L7.1902 59.3427C7.1902 59.1838 7.31679 59.0572 7.47576 59.0572C7.63473 59.0572 7.76131 59.1838 7.76131 59.3427ZM7.76131 56.0014L7.76131 56.9847C7.76131 57.1437 7.63473 57.2702 7.47576 57.2702C7.31679 57.2702 7.1902 57.1437 7.1902 56.9847L7.1902 56.0014C7.1902 55.8425 7.31679 55.7159 7.47576 55.7159C7.63473 55.7159 7.76131 55.8425 7.76131 56.0014ZM9.70134 59.3427L9.70134 60.3289C9.70134 60.4879 9.57475 60.6145 9.41578 60.6145C9.25681 60.6145 9.13022 60.4879 9.13022 60.3289L9.13022 59.3427C9.13022 59.1838 9.25681 59.0572 9.41578 59.0572C9.57181 59.0572 9.70134 59.1838 9.70134 59.3427ZM9.70134 56.0014L9.70134 56.9847C9.70134 57.1437 9.57475 57.2702 9.41578 57.2702C9.25681 57.2702 9.13022 57.1437 9.13022 56.9847L9.13022 56.0014C9.13022 55.8425 9.25681 55.7159 9.41578 55.7159C9.5718 55.7159 9.70134 55.8425 9.70134 56.0014ZM11.6414 59.3427L11.6414 60.3289C11.6414 60.4879 11.5148 60.6145 11.3558 60.6145C11.1968 60.6145 11.0702 60.4879 11.0702 60.3289L11.0702 59.3427C11.0702 59.1838 11.1968 59.0572 11.3558 59.0572C11.5148 59.0572 11.6414 59.1838 11.6414 59.3427ZM11.6414 56.0014L11.6414 56.9847C11.6414 57.1437 11.5148 57.2702 11.3558 57.2702C11.1968 57.2702 11.0702 57.1437 11.0702 56.9847L11.0702 56.0014C11.0702 55.8425 11.1968 55.7159 11.3558 55.7159C11.5148 55.7159 11.6414 55.8425 11.6414 56.0014ZM13.5843 59.3427L13.5843 60.3289C13.5843 60.4879 13.4577 60.6145 13.2988 60.6145C13.1398 60.6145 13.0132 60.4879 13.0132 60.3289L13.0132 59.3427C13.0132 59.1838 13.1398 59.0572 13.2988 59.0572C13.4577 59.0572 13.5843 59.1838 13.5843 59.3427ZM13.5843 56.0014L13.5843 56.9847C13.5843 57.1437 13.4577 57.2702 13.2988 57.2702C13.1398 57.2702 13.0132 57.1437 13.0132 56.9847L13.0132 56.0014C13.0132 55.8425 13.1398 55.7159 13.2988 55.7159C13.4577 55.7159 13.5843 55.8425 13.5843 56.0014ZM15.5214 59.3427L15.5214 60.3289C15.5214 60.4879 15.3948 60.6145 15.2358 60.6145C15.0769 60.6145 14.9503 60.4879 14.9503 60.3289L14.9503 59.3427C14.9503 59.1838 15.0769 59.0572 15.2358 59.0572C15.3948 59.0572 15.5214 59.1838 15.5214 59.3427ZM15.5214 56.0014L15.5214 56.9847C15.5214 57.1437 15.3948 57.2702 15.2358 57.2702C15.0769 57.2702 14.9503 57.1437 14.9503 56.9847L14.9503 56.0014C14.9503 55.8425 15.0769 55.7159 15.2358 55.7159C15.3948 55.7159 15.5214 55.8425 15.5214 56.0014ZM17.4614 59.3427L17.4614 60.3289C17.4614 60.4879 17.3348 60.6145 17.1759 60.6145C17.0169 60.6145 16.8903 60.4879 16.8903 60.3289L16.8903 59.3427C16.8903 59.1838 17.0169 59.0572 17.1759 59.0572C17.3348 59.0572 17.4614 59.1838 17.4614 59.3427ZM17.4614 56.0014L17.4614 56.9847C17.4614 57.1437 17.3348 57.2702 17.1759 57.2702C17.0169 57.2702 16.8903 57.1437 16.8903 56.9847L16.8903 56.0014C16.8903 55.8425 17.0169 55.7159 17.1759 55.7159C17.3348 55.7159 17.4614 55.8425 17.4614 56.0014Z" fill="#56E4EE"/>
<path d="M2.82455 53.9484C2.82455 54.022 2.79511 54.0956 2.73917 54.1516L1.42326 55.441C1.31139 55.5529 1.12887 55.5499 1.01994 55.4381C0.908076 55.3262 0.91102 55.1437 1.02289 55.0347L2.33881 53.7453C2.45067 53.6334 2.63319 53.6364 2.74212 53.7483C2.79805 53.8042 2.82455 53.8748 2.82455 53.9484ZM5.33863 53.9484C5.33863 54.022 5.30919 54.0956 5.25325 54.1516L3.93734 55.441C3.82547 55.5529 3.64295 55.5499 3.53402 55.4381C3.4251 55.3262 3.4251 55.1437 3.53697 55.0347L4.85289 53.7453C4.96475 53.6334 5.14727 53.6364 5.2562 53.7483C5.31213 53.8042 5.33863 53.8748 5.33863 53.9484ZM7.85565 53.9484C7.85565 54.022 7.82621 54.0956 7.77028 54.1516L6.45731 55.441C6.34544 55.5529 6.16292 55.5499 6.05399 55.4381C5.94212 55.3262 5.94507 55.1437 6.05694 55.0347L7.36991 53.7453C7.48178 53.6334 7.6643 53.6364 7.77322 53.7483C7.82621 53.8042 7.85565 53.8748 7.85565 53.9484ZM10.3727 53.9484C10.3727 54.022 10.3432 54.0956 10.2873 54.1516L8.97139 55.441C8.85952 55.5529 8.677 55.5499 8.56807 55.4381C8.45621 55.3262 8.45915 55.1437 8.57102 55.0347L9.88694 53.7453C9.9988 53.6334 10.1813 53.6364 10.2902 53.7483C10.3462 53.8042 10.3727 53.8748 10.3727 53.9484ZM12.8868 53.9484C12.8868 54.022 12.8573 54.0956 12.8014 54.1516L11.4884 55.441C11.3765 55.5529 11.194 55.5499 11.0851 55.4381C10.9732 55.3262 10.9762 55.1437 11.088 55.0347L12.401 53.7453C12.5129 53.6334 12.6954 53.6364 12.8043 53.7483C12.8603 53.8042 12.8868 53.8748 12.8868 53.9484ZM15.4008 53.9484C15.4008 54.022 15.3714 54.0956 15.3155 54.1516L14.0025 55.441C13.8906 55.5529 13.7081 55.5499 13.5992 55.438C13.4873 55.3262 13.4903 55.1437 13.6021 55.0347L14.9151 53.7453C15.027 53.6334 15.2095 53.6364 15.3184 53.7483C15.3743 53.8042 15.4008 53.8748 15.4008 53.9484ZM17.703 54.1604C17.703 54.234 17.6735 54.3076 17.6176 54.3635L16.5195 55.441C16.4076 55.5499 16.2251 55.5499 16.1162 55.4351C16.0073 55.3232 16.0073 55.1407 16.1191 55.0318L17.2172 53.9543C17.3291 53.8454 17.5116 53.8454 17.6205 53.9602C17.6765 54.0162 17.703 54.0868 17.703 54.1604Z" fill="#3EBED0"/>
<path d="M2.8177 62.2149C2.8177 62.2856 2.7912 62.3592 2.73527 62.4151C2.62634 62.527 2.44382 62.5299 2.33196 62.418L1.01898 61.1316C0.907113 61.0197 0.904169 60.8401 1.01604 60.7283C1.12496 60.6164 1.30748 60.6134 1.41935 60.7253L2.73232 62.0118C2.78826 62.0677 2.8177 62.1413 2.8177 62.2149ZM5.33178 62.2149C5.33178 62.2856 5.30528 62.3592 5.24935 62.4151C5.14042 62.527 4.9579 62.5299 4.84604 62.418L3.53306 61.1316C3.42119 61.0197 3.41825 60.8401 3.53012 60.7283C3.63904 60.6164 3.82156 60.6134 3.93343 60.7253L5.2464 62.0118C5.30528 62.0677 5.33178 62.1413 5.33178 62.2149ZM7.8488 62.2149C7.8488 62.2885 7.82231 62.3592 7.76637 62.4151C7.65451 62.527 7.47493 62.5299 7.36306 62.418L6.05303 61.1316C5.94116 61.0197 5.93822 60.8401 6.05009 60.7283C6.16195 60.6164 6.34153 60.6134 6.4534 60.7253L7.76343 62.0118C7.81936 62.0677 7.8488 62.1413 7.8488 62.2149ZM10.3658 62.2149C10.3658 62.2856 10.3393 62.3592 10.2834 62.4151C10.1745 62.527 9.99195 62.5299 9.88008 62.418L8.56711 61.1316C8.45524 61.0197 8.4523 60.8401 8.56417 60.7283C8.67309 60.6164 8.85561 60.6134 8.96748 60.7253L10.2805 62.0118C10.3364 62.0677 10.3658 62.1413 10.3658 62.2149ZM12.8799 62.2149C12.8799 62.2885 12.8534 62.3592 12.7975 62.4151C12.6856 62.527 12.506 62.5299 12.3942 62.418L11.0841 61.1316C10.9723 61.0197 10.9693 60.8401 11.0812 60.7283C11.1931 60.6164 11.3726 60.6134 11.4845 60.7253L12.7945 62.0118C12.8505 62.0677 12.8799 62.1413 12.8799 62.2149ZM15.394 62.2149C15.394 62.2885 15.3675 62.3592 15.3116 62.4151C15.1997 62.527 15.0201 62.5299 14.9082 62.418L13.5982 61.1316C13.4863 61.0197 13.4834 60.8401 13.5953 60.7283C13.7071 60.6164 13.8867 60.6134 13.9986 60.7253L15.3086 62.0118C15.3675 62.0677 15.394 62.1413 15.394 62.2149ZM17.6991 62.0059C17.6991 62.0766 17.6726 62.1502 17.6166 62.2061C17.5077 62.318 17.3252 62.3209 17.2133 62.209L16.1152 61.1316C16.0034 61.0197 16.0004 60.8401 16.1123 60.7283C16.2212 60.6164 16.4037 60.6134 16.5156 60.7253L17.6137 61.8028C17.6696 61.8587 17.6991 61.9323 17.6991 62.0059Z" fill="#3EBED0"/>
<path d="M18.8409 55.9825L18.8409 60.1805C18.8409 61.1696 18.2138 62.0498 17.2806 62.3737C17.1805 62.409 17.0687 62.4384 16.9597 62.459C16.8214 62.4855 16.6712 62.5002 16.5211 62.5002L2.32273 62.5002C2.27563 62.5002 2.22852 62.5002 2.18142 62.4973C2.0254 62.4885 1.86937 62.462 1.7104 62.4208C1.70451 62.4208 1.70157 62.4178 1.69568 62.4178C1.48666 62.3589 1.28648 62.2706 1.10101 62.1558C0.412144 61.726 -6.60136e-08 60.99 -1.01401e-07 60.1805L-2.84772e-07 55.9854C-3.30068e-07 54.9492 0.697701 54.0307 1.69274 53.751C1.84876 53.7068 2.01362 53.6774 2.17553 53.6686C2.22264 53.6656 2.26974 53.6656 2.31978 53.6656L16.5182 53.6656C16.6683 53.6656 16.8184 53.6804 16.9597 53.7098C17.0657 53.7304 17.1746 53.7569 17.2806 53.7952C18.2138 54.1131 18.8409 54.9933 18.8409 55.9825ZM1.83993 61.8614C1.84287 61.8614 1.84582 61.8644 1.85171 61.8644C1.97241 61.8967 2.09605 61.9174 2.21675 61.9262C2.25207 61.9291 2.2874 61.9291 2.32567 61.9291L16.524 61.9291C16.6389 61.9291 16.7507 61.9174 16.8567 61.8967C16.9421 61.882 17.0186 61.8614 17.0922 61.832C17.7988 61.5876 18.2727 60.9223 18.2727 60.1775L18.2727 55.9825C18.2727 55.2377 17.7988 54.5724 17.0952 54.331C17.0157 54.3015 16.9391 54.2809 16.8596 54.2662C16.7478 54.2456 16.6359 54.2338 16.524 54.2338L2.32273 54.2338C2.2874 54.2338 2.24913 54.2338 2.2138 54.2367C2.09016 54.2456 1.96946 54.2662 1.84876 54.2986C1.09513 54.5105 0.571114 55.2023 0.571114 55.9825L0.571114 60.1805C0.571114 60.7898 0.880223 61.3462 1.40129 61.6701C1.53671 61.7525 1.6839 61.8173 1.83993 61.8614Z" fill="#3EBED0"/>
<path d="M18.8409 2.8392C18.8409 2.99817 18.7143 3.12476 18.5553 3.12476L0.285557 3.12476C0.126587 3.12476 -5.53332e-09 2.99817 -1.24821e-08 2.8392C-1.94309e-08 2.68023 0.126587 2.55364 0.285557 2.55364L18.5553 2.55364C18.7114 2.55364 18.8409 2.68023 18.8409 2.8392Z" fill="#56E4EE"/>
<path d="M18.8409 4.41757C18.8409 4.57654 18.7143 4.70312 18.5553 4.70312L0.285557 4.70312C0.126587 4.70312 -5.66198e-09 4.57359 -1.24821e-08 4.41757C-1.94309e-08 4.2586 0.126587 4.13201 0.285557 4.13201L18.5553 4.13201C18.7114 4.13201 18.8409 4.2586 18.8409 4.41757Z" fill="#3EBED0"/>
<path d="M18.8409 6.24935C18.8409 6.40832 18.7143 6.53491 18.5553 6.53491L0.285557 6.53491C0.126587 6.53491 -5.53332e-09 6.40832 -1.24821e-08 6.24935C-1.94309e-08 6.09038 0.126587 5.9638 0.285557 5.9638L18.5553 5.9638C18.7114 5.9638 18.8409 6.09333 18.8409 6.24935Z" fill="#56E4EE"/>
<path d="M1.9383 5.67966L1.9383 6.66586C1.9383 6.82483 1.81171 6.95142 1.65274 6.95142C1.49377 6.95142 1.36719 6.82483 1.36719 6.66586L1.36719 5.67966C1.36719 5.52069 1.49377 5.3941 1.65274 5.3941C1.81171 5.3941 1.9383 5.52069 1.9383 5.67966ZM1.9383 2.33834L1.9383 3.3216C1.9383 3.48057 1.81171 3.60716 1.65274 3.60716C1.49377 3.60716 1.36719 3.48057 1.36719 3.3216L1.36719 2.33834C1.36719 2.17937 1.49377 2.05279 1.65274 2.05279C1.81171 2.05279 1.9383 2.17937 1.9383 2.33834ZM3.88127 5.67966L3.88127 6.66586C3.88127 6.82483 3.75468 6.95142 3.59571 6.95142C3.43674 6.95142 3.31015 6.82483 3.31015 6.66586L3.31015 5.67966C3.31015 5.52069 3.43674 5.3941 3.59571 5.3941C3.75174 5.3941 3.88127 5.52069 3.88127 5.67966ZM3.88127 2.33834L3.88127 3.3216C3.88127 3.48057 3.75468 3.60716 3.59571 3.60716C3.43674 3.60716 3.31015 3.48057 3.31015 3.3216L3.31015 2.33834C3.31015 2.17937 3.43674 2.05279 3.59571 2.05279C3.75174 2.05279 3.88127 2.17937 3.88127 2.33834ZM5.82129 5.67966L5.82129 6.66586C5.82129 6.82483 5.6947 6.95142 5.53573 6.95142C5.37676 6.95142 5.25018 6.82483 5.25018 6.66586L5.25018 5.67966C5.25018 5.52069 5.37676 5.3941 5.53573 5.3941C5.6947 5.3941 5.82129 5.52069 5.82129 5.67966ZM5.82129 2.33834L5.82129 3.3216C5.82129 3.48057 5.6947 3.60716 5.53573 3.60716C5.37676 3.60716 5.25018 3.48057 5.25018 3.3216L5.25018 2.33834C5.25018 2.17937 5.37676 2.05279 5.53573 2.05279C5.6947 2.05279 5.82129 2.17937 5.82129 2.33834ZM7.76131 5.67966L7.76131 6.66586C7.76131 6.82483 7.63473 6.95142 7.47576 6.95142C7.31679 6.95142 7.1902 6.82483 7.1902 6.66586L7.1902 5.67966C7.1902 5.52069 7.31679 5.3941 7.47576 5.3941C7.63473 5.3941 7.76131 5.52069 7.76131 5.67966ZM7.76131 2.33834L7.76131 3.3216C7.76131 3.48057 7.63473 3.60716 7.47576 3.60716C7.31679 3.60716 7.1902 3.48057 7.1902 3.3216L7.1902 2.33834C7.1902 2.17937 7.31679 2.05279 7.47576 2.05279C7.63473 2.05279 7.76131 2.17937 7.76131 2.33834ZM9.70134 5.67966L9.70134 6.66586C9.70134 6.82483 9.57475 6.95142 9.41578 6.95142C9.25681 6.95142 9.13022 6.82483 9.13022 6.66586L9.13022 5.67966C9.13022 5.52069 9.25681 5.3941 9.41578 5.3941C9.57181 5.3941 9.70134 5.52069 9.70134 5.67966ZM9.70134 2.33834L9.70134 3.3216C9.70134 3.48057 9.57475 3.60716 9.41578 3.60716C9.25681 3.60716 9.13022 3.48057 9.13022 3.3216L9.13022 2.33834C9.13022 2.17937 9.25681 2.05279 9.41578 2.05279C9.5718 2.05279 9.70134 2.17937 9.70134 2.33834ZM11.6414 5.67966L11.6414 6.66586C11.6414 6.82483 11.5148 6.95142 11.3558 6.95142C11.1968 6.95142 11.0702 6.82483 11.0702 6.66586L11.0702 5.67966C11.0702 5.52069 11.1968 5.3941 11.3558 5.3941C11.5148 5.3941 11.6414 5.52069 11.6414 5.67966ZM11.6414 2.33834L11.6414 3.3216C11.6414 3.48057 11.5148 3.60716 11.3558 3.60716C11.1968 3.60716 11.0702 3.48057 11.0702 3.3216L11.0702 2.33834C11.0702 2.17937 11.1968 2.05279 11.3558 2.05279C11.5148 2.05279 11.6414 2.17937 11.6414 2.33834ZM13.5843 5.67966L13.5843 6.66586C13.5843 6.82483 13.4577 6.95142 13.2988 6.95142C13.1398 6.95142 13.0132 6.82483 13.0132 6.66586L13.0132 5.67966C13.0132 5.52069 13.1398 5.3941 13.2988 5.3941C13.4577 5.3941 13.5843 5.52069 13.5843 5.67966ZM13.5843 2.33834L13.5843 3.3216C13.5843 3.48057 13.4577 3.60716 13.2988 3.60716C13.1398 3.60716 13.0132 3.48057 13.0132 3.3216L13.0132 2.33834C13.0132 2.17937 13.1398 2.05279 13.2988 2.05279C13.4577 2.05279 13.5843 2.17937 13.5843 2.33834ZM15.5214 5.67966L15.5214 6.66586C15.5214 6.82483 15.3948 6.95142 15.2358 6.95142C15.0769 6.95142 14.9503 6.82483 14.9503 6.66586L14.9503 5.67966C14.9503 5.52069 15.0769 5.3941 15.2358 5.3941C15.3948 5.3941 15.5214 5.52069 15.5214 5.67966ZM15.5214 2.33834L15.5214 3.3216C15.5214 3.48057 15.3948 3.60716 15.2358 3.60716C15.0769 3.60716 14.9503 3.48057 14.9503 3.3216L14.9503 2.33834C14.9503 2.17937 15.0769 2.05278 15.2358 2.05278C15.3948 2.05278 15.5214 2.17937 15.5214 2.33834ZM17.4614 5.67966L17.4614 6.66586C17.4614 6.82483 17.3348 6.95142 17.1759 6.95142C17.0169 6.95142 16.8903 6.82483 16.8903 6.66586L16.8903 5.67966C16.8903 5.52069 17.0169 5.3941 17.1759 5.3941C17.3348 5.3941 17.4614 5.52069 17.4614 5.67966ZM17.4614 2.33834L17.4614 3.3216C17.4614 3.48057 17.3348 3.60716 17.1759 3.60716C17.0169 3.60716 16.8903 3.48057 16.8903 3.3216L16.8903 2.33834C16.8903 2.17937 17.0169 2.05278 17.1759 2.05278C17.3348 2.05278 17.4614 2.17937 17.4614 2.33834Z" fill="#56E4EE"/>
<path d="M2.82455 0.286577C2.82455 0.360174 2.79511 0.433772 2.73917 0.489706L1.42326 1.77913C1.31139 1.891 1.12887 1.88805 1.01994 1.77619C0.908076 1.66432 0.91102 1.4818 1.02289 1.37287L2.33881 0.0834492C2.45067 -0.0284186 2.63319 -0.0254752 2.74212 0.0863926C2.79805 0.142326 2.82455 0.21298 2.82455 0.286577ZM5.33863 0.286577C5.33863 0.360174 5.30919 0.433772 5.25325 0.489706L3.93734 1.77913C3.82547 1.891 3.64295 1.88805 3.53402 1.77619C3.4251 1.66432 3.4251 1.4818 3.53697 1.37287L4.85289 0.0834491C4.96475 -0.0284187 5.14727 -0.0254753 5.2562 0.0863924C5.31213 0.142326 5.33863 0.21298 5.33863 0.286577ZM7.85565 0.286577C7.85565 0.360174 7.82621 0.433772 7.77028 0.489706L6.45731 1.77913C6.34544 1.891 6.16292 1.88805 6.05399 1.77619C5.94212 1.66432 5.94507 1.4818 6.05694 1.37287L7.36991 0.083449C7.48178 -0.0284188 7.6643 -0.0254754 7.77322 0.0863923C7.82621 0.142326 7.85565 0.21298 7.85565 0.286577ZM10.3727 0.286577C10.3727 0.360174 10.3432 0.433772 10.2873 0.489706L8.97139 1.77913C8.85952 1.891 8.677 1.88805 8.56807 1.77618C8.45621 1.66432 8.45915 1.4818 8.57102 1.37287L9.88694 0.0834489C9.9988 -0.0284189 10.1813 -0.0254755 10.2902 0.0863922C10.3462 0.142326 10.3727 0.21298 10.3727 0.286577ZM12.8868 0.286577C12.8868 0.360174 12.8573 0.433772 12.8014 0.489706L11.4884 1.77913C11.3765 1.891 11.194 1.88805 11.0851 1.77618C10.9732 1.66432 10.9762 1.4818 11.088 1.37287L12.401 0.0834487C12.5129 -0.028419 12.6954 -0.0254756 12.8043 0.0863921C12.8603 0.142326 12.8868 0.212979 12.8868 0.286577ZM15.4008 0.286577C15.4008 0.360174 15.3714 0.433772 15.3155 0.489706L14.0025 1.77913C13.8906 1.891 13.7081 1.88805 13.5992 1.77618C13.4873 1.66432 13.4903 1.4818 13.6021 1.37287L14.9151 0.0834486C15.027 -0.0284191 15.2095 -0.0254758 15.3184 0.086392C15.3743 0.142326 15.4008 0.212979 15.4008 0.286577ZM17.703 0.498537C17.703 0.572134 17.6735 0.645731 17.6176 0.701665L16.5195 1.77913C16.4076 1.88805 16.2251 1.88805 16.1162 1.77324C16.0073 1.66137 16.0073 1.47885 16.1191 1.36993L17.2172 0.292464C17.3291 0.18354 17.5116 0.183541 17.6205 0.298352C17.6765 0.354286 17.703 0.42494 17.703 0.498537Z" fill="#3EBED0"/>
<path d="M2.8177 8.55208C2.8177 8.62273 2.7912 8.69633 2.73527 8.75226C2.62634 8.86413 2.44382 8.86707 2.33196 8.7552L1.01898 7.46872C0.907113 7.35686 0.904169 7.17728 1.01604 7.06541C1.12496 6.95354 1.30748 6.9506 1.41935 7.06247L2.73232 8.34895C2.78826 8.40488 2.8177 8.47848 2.8177 8.55208ZM5.33178 8.55208C5.33178 8.62273 5.30528 8.69633 5.24935 8.75226C5.14042 8.86413 4.9579 8.86707 4.84604 8.7552L3.53306 7.46872C3.42119 7.35686 3.41825 7.17728 3.53012 7.06541C3.63904 6.95354 3.82156 6.9506 3.93343 7.06247L5.2464 8.34895C5.30528 8.40488 5.33178 8.47848 5.33178 8.55208ZM7.8488 8.55207C7.8488 8.62567 7.82231 8.69632 7.76637 8.75226C7.65451 8.86413 7.47493 8.86707 7.36306 8.7552L6.05303 7.46872C5.94116 7.35686 5.93822 7.17728 6.05009 7.06541C6.16195 6.95354 6.34153 6.9506 6.4534 7.06247L7.76343 8.34895C7.81936 8.40488 7.8488 8.47848 7.8488 8.55207ZM10.3658 8.55207C10.3658 8.62273 10.3393 8.69632 10.2834 8.75226C10.1745 8.86413 9.99195 8.86707 9.88008 8.7552L8.56711 7.46872C8.45524 7.35686 8.4523 7.17728 8.56417 7.06541C8.67309 6.95354 8.85561 6.9506 8.96748 7.06247L10.2805 8.34895C10.3364 8.40488 10.3658 8.47848 10.3658 8.55207ZM12.8799 8.55207C12.8799 8.62567 12.8534 8.69632 12.7975 8.75226C12.6856 8.86413 12.506 8.86707 12.3942 8.7552L11.0841 7.46872C10.9723 7.35686 10.9693 7.17728 11.0812 7.06541C11.1931 6.95354 11.3726 6.9506 11.4845 7.06247L12.7945 8.34895C12.8505 8.40488 12.8799 8.47848 12.8799 8.55207ZM15.394 8.55207C15.394 8.62567 15.3675 8.69632 15.3116 8.75226C15.1997 8.86413 15.0201 8.86707 14.9082 8.7552L13.5982 7.46872C13.4863 7.35686 13.4834 7.17728 13.5953 7.06541C13.7071 6.95354 13.8867 6.9506 13.9986 7.06247L15.3086 8.34895C15.3675 8.40488 15.394 8.47848 15.394 8.55207ZM17.6991 8.34306C17.6991 8.41371 17.6726 8.48731 17.6166 8.54324C17.5077 8.65511 17.3252 8.65805 17.2133 8.54619L16.1152 7.46872C16.0034 7.35686 16.0004 7.17728 16.1123 7.06541C16.2212 6.95354 16.4037 6.9506 16.5156 7.06247L17.6137 8.13993C17.6696 8.19586 17.6991 8.26946 17.6991 8.34306Z" fill="#3EBED0"/>
<path d="M18.8409 2.31988L18.8409 6.51786C18.8409 7.50701 18.2138 8.38723 17.2806 8.71106C17.1805 8.74639 17.0687 8.77582 16.9597 8.79643C16.8214 8.82293 16.6712 8.83765 16.5211 8.83765L2.32273 8.83765C2.27563 8.83765 2.22852 8.83765 2.18142 8.8347C2.0254 8.82587 1.86937 8.79938 1.7104 8.75816C1.70451 8.75816 1.70157 8.75522 1.69568 8.75522C1.48666 8.69634 1.28648 8.60802 1.10101 8.49321C0.412144 8.0634 -6.60136e-08 7.32743 -1.01401e-07 6.51786L-2.84772e-07 2.32282C-3.30068e-07 1.28657 0.697701 0.36808 1.69274 0.0884106C1.84876 0.0442522 2.01362 0.0148126 2.17553 0.00598091C2.22264 0.00303702 2.26974 0.00303751 2.31978 0.00303751L16.5182 0.00303689C16.6683 0.00303688 16.8184 0.0177568 16.9597 0.0471956C17.0657 0.0678029 17.1746 0.094297 17.2806 0.132568C18.2138 0.450507 18.8409 1.33073 18.8409 2.31988ZM1.83993 8.19882C1.84287 8.19882 1.84582 8.20177 1.85171 8.20177C1.97241 8.23415 2.09605 8.25476 2.21675 8.26359C2.25207 8.26653 2.2874 8.26653 2.32567 8.26653L16.524 8.26653C16.6389 8.26653 16.7507 8.25476 16.8567 8.23415C16.9421 8.21943 17.0186 8.19882 17.0922 8.16938C17.7988 7.92504 18.2727 7.25972 18.2727 6.51492L18.2727 2.31988C18.2727 1.57507 17.7988 0.909754 17.0952 0.668355C17.0157 0.638916 16.9391 0.61831 16.8596 0.60359C16.7478 0.582983 16.6359 0.571207 16.524 0.571207L2.32273 0.571208C2.2874 0.571208 2.24913 0.571208 2.2138 0.574151C2.09016 0.582983 1.96946 0.603591 1.84876 0.635974C1.09513 0.847934 0.571114 1.53975 0.571114 2.31988L0.571114 6.51786C0.571114 7.12725 0.880223 7.68364 1.40129 8.00747C1.53671 8.0899 1.6839 8.15466 1.83993 8.19882Z" fill="#3EBED0"/>
</svg>
