<svg width="158" height="63" viewBox="0 0 158 63" fill="none" xmlns="http://www.w3.org/2000/svg">
<line x1="10" y1="31.5" x2="70" y2="31.5" stroke="white"/>
<path d="M9.83203 8.83838L9.83203 53.8927" stroke="white" strokeLinecap="square"/>
<path d="M8.19141 8.83838L8.19141 53.8927" stroke="white" strokeLinecap="square"/>
<path d="M18.8409 56.5016C18.8409 56.6605 18.7143 56.7871 18.5553 56.7871L0.285557 56.7871C0.126587 56.7871 -5.53332e-09 56.6605 -1.24821e-08 56.5016C-1.94309e-08 56.3426 0.126587 56.216 0.285557 56.216L18.5553 56.216C18.7114 56.216 18.8409 56.3426 18.8409 56.5016Z" fill="#56E4EE"/>
<path d="M18.8409 58.0782C18.8409 58.2372 18.7143 58.3638 18.5553 58.3638L0.285557 58.3638C0.126587 58.3638 -5.66198e-09 58.2342 -1.24821e-08 58.0782C-1.94309e-08 57.9192 0.126587 57.7927 0.285557 57.7927L18.5553 57.7927C18.7114 57.7927 18.8409 57.9192 18.8409 58.0782Z" fill="#3EBED0"/>
<path d="M18.8409 59.9102C18.8409 60.0692 18.7143 60.1958 18.5553 60.1958L0.285557 60.1958C0.126587 60.1958 -5.53332e-09 60.0692 -1.24821e-08 59.9102C-1.94309e-08 59.7513 0.126587 59.6247 0.285557 59.6247L18.5553 59.6247C18.7114 59.6247 18.8409 59.7542 18.8409 59.9102Z" fill="#56E4EE"/>
<path d="M1.9383 59.342L1.9383 60.3282C1.9383 60.4872 1.81171 60.6138 1.65274 60.6138C1.49377 60.6138 1.36719 60.4872 1.36719 60.3282L1.36719 59.342C1.36719 59.183 1.49377 59.0565 1.65274 59.0565C1.81171 59.0565 1.9383 59.183 1.9383 59.342ZM1.9383 56.0007L1.9383 56.984C1.9383 57.1429 1.81171 57.2695 1.65274 57.2695C1.49377 57.2695 1.36719 57.1429 1.36719 56.984L1.36719 56.0007C1.36719 55.8417 1.49377 55.7151 1.65274 55.7151C1.81171 55.7151 1.9383 55.8417 1.9383 56.0007ZM3.88127 59.342L3.88127 60.3282C3.88127 60.4872 3.75468 60.6138 3.59571 60.6138C3.43674 60.6138 3.31015 60.4872 3.31015 60.3282L3.31015 59.342C3.31015 59.183 3.43674 59.0565 3.59571 59.0565C3.75174 59.0565 3.88127 59.183 3.88127 59.342ZM3.88127 56.0007L3.88127 56.984C3.88127 57.1429 3.75468 57.2695 3.59571 57.2695C3.43674 57.2695 3.31015 57.1429 3.31015 56.984L3.31015 56.0007C3.31015 55.8417 3.43674 55.7151 3.59571 55.7151C3.75174 55.7151 3.88127 55.8417 3.88127 56.0007ZM5.82129 59.342L5.82129 60.3282C5.82129 60.4872 5.6947 60.6138 5.53573 60.6138C5.37676 60.6138 5.25018 60.4872 5.25018 60.3282L5.25018 59.342C5.25018 59.183 5.37676 59.0565 5.53573 59.0565C5.6947 59.0565 5.82129 59.183 5.82129 59.342ZM5.82129 56.0007L5.82129 56.984C5.82129 57.1429 5.6947 57.2695 5.53573 57.2695C5.37676 57.2695 5.25018 57.1429 5.25018 56.984L5.25018 56.0007C5.25018 55.8417 5.37676 55.7151 5.53573 55.7151C5.6947 55.7151 5.82129 55.8417 5.82129 56.0007ZM7.76131 59.342L7.76131 60.3282C7.76131 60.4872 7.63473 60.6138 7.47576 60.6138C7.31679 60.6138 7.1902 60.4872 7.1902 60.3282L7.1902 59.342C7.1902 59.183 7.31679 59.0565 7.47576 59.0565C7.63473 59.0565 7.76131 59.183 7.76131 59.342ZM7.76131 56.0007L7.76131 56.984C7.76131 57.1429 7.63473 57.2695 7.47576 57.2695C7.31679 57.2695 7.1902 57.1429 7.1902 56.984L7.1902 56.0007C7.1902 55.8417 7.31679 55.7151 7.47576 55.7151C7.63473 55.7151 7.76131 55.8417 7.76131 56.0007ZM9.70134 59.342L9.70134 60.3282C9.70134 60.4872 9.57475 60.6138 9.41578 60.6138C9.25681 60.6138 9.13022 60.4872 9.13022 60.3282L9.13022 59.342C9.13022 59.183 9.25681 59.0565 9.41578 59.0565C9.57181 59.0565 9.70134 59.183 9.70134 59.342ZM9.70134 56.0007L9.70134 56.984C9.70134 57.1429 9.57475 57.2695 9.41578 57.2695C9.25681 57.2695 9.13022 57.1429 9.13022 56.984L9.13022 56.0007C9.13022 55.8417 9.25681 55.7151 9.41578 55.7151C9.5718 55.7151 9.70134 55.8417 9.70134 56.0007ZM11.6414 59.342L11.6414 60.3282C11.6414 60.4872 11.5148 60.6138 11.3558 60.6138C11.1968 60.6138 11.0702 60.4872 11.0702 60.3282L11.0702 59.342C11.0702 59.183 11.1968 59.0565 11.3558 59.0565C11.5148 59.0565 11.6414 59.183 11.6414 59.342ZM11.6414 56.0007L11.6414 56.984C11.6414 57.1429 11.5148 57.2695 11.3558 57.2695C11.1968 57.2695 11.0702 57.1429 11.0702 56.984L11.0702 56.0007C11.0702 55.8417 11.1968 55.7151 11.3558 55.7151C11.5148 55.7151 11.6414 55.8417 11.6414 56.0007ZM13.5843 59.342L13.5843 60.3282C13.5843 60.4872 13.4577 60.6138 13.2988 60.6138C13.1398 60.6138 13.0132 60.4872 13.0132 60.3282L13.0132 59.342C13.0132 59.183 13.1398 59.0565 13.2988 59.0565C13.4577 59.0565 13.5843 59.183 13.5843 59.342ZM13.5843 56.0007L13.5843 56.984C13.5843 57.1429 13.4577 57.2695 13.2988 57.2695C13.1398 57.2695 13.0132 57.1429 13.0132 56.984L13.0132 56.0007C13.0132 55.8417 13.1398 55.7151 13.2988 55.7151C13.4577 55.7151 13.5843 55.8417 13.5843 56.0007ZM15.5214 59.342L15.5214 60.3282C15.5214 60.4872 15.3948 60.6138 15.2358 60.6138C15.0769 60.6138 14.9503 60.4872 14.9503 60.3282L14.9503 59.342C14.9503 59.183 15.0769 59.0565 15.2358 59.0565C15.3948 59.0565 15.5214 59.183 15.5214 59.342ZM15.5214 56.0007L15.5214 56.984C15.5214 57.1429 15.3948 57.2695 15.2358 57.2695C15.0769 57.2695 14.9503 57.1429 14.9503 56.984L14.9503 56.0007C14.9503 55.8417 15.0769 55.7151 15.2358 55.7151C15.3948 55.7151 15.5214 55.8417 15.5214 56.0007ZM17.4614 59.342L17.4614 60.3282C17.4614 60.4872 17.3348 60.6138 17.1759 60.6138C17.0169 60.6138 16.8903 60.4872 16.8903 60.3282L16.8903 59.342C16.8903 59.183 17.0169 59.0565 17.1759 59.0565C17.3348 59.0565 17.4614 59.183 17.4614 59.342ZM17.4614 56.0007L17.4614 56.984C17.4614 57.1429 17.3348 57.2695 17.1759 57.2695C17.0169 57.2695 16.8903 57.1429 16.8903 56.984L16.8903 56.0007C16.8903 55.8417 17.0169 55.7151 17.1759 55.7151C17.3348 55.7151 17.4614 55.8417 17.4614 56.0007Z" fill="#56E4EE"/>
<path d="M2.82455 53.9475C2.82455 54.0211 2.79511 54.0947 2.73917 54.1506L1.42326 55.44C1.31139 55.5519 1.12887 55.5489 1.01994 55.4371C0.908076 55.3252 0.91102 55.1427 1.02289 55.0338L2.33881 53.7443C2.45067 53.6325 2.63319 53.6354 2.74212 53.7473C2.79805 53.8032 2.82455 53.8739 2.82455 53.9475ZM5.33863 53.9475C5.33863 54.0211 5.30919 54.0947 5.25325 54.1506L3.93734 55.44C3.82547 55.5519 3.64295 55.5489 3.53402 55.4371C3.4251 55.3252 3.4251 55.1427 3.53697 55.0338L4.85289 53.7443C4.96475 53.6325 5.14727 53.6354 5.2562 53.7473C5.31213 53.8032 5.33863 53.8739 5.33863 53.9475ZM7.85565 53.9475C7.85565 54.0211 7.82621 54.0947 7.77028 54.1506L6.45731 55.44C6.34544 55.5519 6.16292 55.5489 6.05399 55.4371C5.94212 55.3252 5.94507 55.1427 6.05694 55.0338L7.36991 53.7443C7.48178 53.6325 7.6643 53.6354 7.77322 53.7473C7.82621 53.8032 7.85565 53.8739 7.85565 53.9475ZM10.3727 53.9475C10.3727 54.0211 10.3432 54.0947 10.2873 54.1506L8.97139 55.44C8.85952 55.5519 8.677 55.5489 8.56807 55.4371C8.45621 55.3252 8.45915 55.1427 8.57102 55.0338L9.88694 53.7443C9.9988 53.6325 10.1813 53.6354 10.2902 53.7473C10.3462 53.8032 10.3727 53.8739 10.3727 53.9475ZM12.8868 53.9475C12.8868 54.0211 12.8573 54.0947 12.8014 54.1506L11.4884 55.44C11.3765 55.5519 11.194 55.5489 11.0851 55.4371C10.9732 55.3252 10.9762 55.1427 11.088 55.0338L12.401 53.7443C12.5129 53.6325 12.6954 53.6354 12.8043 53.7473C12.8603 53.8032 12.8868 53.8739 12.8868 53.9475ZM15.4008 53.9475C15.4008 54.0211 15.3714 54.0947 15.3155 54.1506L14.0025 55.44C13.8906 55.5519 13.7081 55.5489 13.5992 55.4371C13.4873 55.3252 13.4903 55.1427 13.6021 55.0338L14.9151 53.7443C15.027 53.6325 15.2095 53.6354 15.3184 53.7473C15.3743 53.8032 15.4008 53.8739 15.4008 53.9475ZM17.703 54.1594C17.703 54.233 17.6735 54.3066 17.6176 54.3626L16.5195 55.44C16.4076 55.5489 16.2251 55.5489 16.1162 55.4341C16.0073 55.3223 16.0073 55.1397 16.1191 55.0308L17.2172 53.9534C17.3291 53.8444 17.5116 53.8444 17.6205 53.9592C17.6765 54.0152 17.703 54.0858 17.703 54.1594Z" fill="#3EBED0"/>
<path d="M2.8177 62.2139C2.8177 62.2846 2.7912 62.3582 2.73527 62.4141C2.62634 62.526 2.44382 62.5289 2.33196 62.4171L1.01898 61.1306C0.907113 61.0187 0.904169 60.8391 1.01604 60.7273C1.12496 60.6154 1.30748 60.6125 1.41935 60.7243L2.73232 62.0108C2.78826 62.0667 2.8177 62.1403 2.8177 62.2139ZM5.33178 62.2139C5.33178 62.2846 5.30528 62.3582 5.24935 62.4141C5.14042 62.526 4.9579 62.5289 4.84604 62.4171L3.53306 61.1306C3.42119 61.0187 3.41825 60.8391 3.53012 60.7273C3.63904 60.6154 3.82156 60.6125 3.93343 60.7243L5.2464 62.0108C5.30528 62.0667 5.33178 62.1403 5.33178 62.2139ZM7.8488 62.2139C7.8488 62.2875 7.82231 62.3582 7.76637 62.4141C7.65451 62.526 7.47493 62.5289 7.36306 62.4171L6.05303 61.1306C5.94116 61.0187 5.93822 60.8391 6.05009 60.7273C6.16195 60.6154 6.34153 60.6125 6.4534 60.7243L7.76343 62.0108C7.81936 62.0667 7.8488 62.1403 7.8488 62.2139ZM10.3658 62.2139C10.3658 62.2846 10.3393 62.3582 10.2834 62.4141C10.1745 62.526 9.99195 62.5289 9.88008 62.4171L8.56711 61.1306C8.45524 61.0187 8.4523 60.8391 8.56417 60.7273C8.67309 60.6154 8.85561 60.6125 8.96748 60.7243L10.2805 62.0108C10.3364 62.0667 10.3658 62.1403 10.3658 62.2139ZM12.8799 62.2139C12.8799 62.2875 12.8534 62.3582 12.7975 62.4141C12.6856 62.526 12.506 62.5289 12.3942 62.4171L11.0841 61.1306C10.9723 61.0187 10.9693 60.8391 11.0812 60.7273C11.1931 60.6154 11.3726 60.6125 11.4845 60.7243L12.7945 62.0108C12.8505 62.0667 12.8799 62.1403 12.8799 62.2139ZM15.394 62.2139C15.394 62.2875 15.3675 62.3582 15.3116 62.4141C15.1997 62.526 15.0201 62.5289 14.9082 62.4171L13.5982 61.1306C13.4863 61.0187 13.4834 60.8391 13.5953 60.7273C13.7071 60.6154 13.8867 60.6125 13.9986 60.7243L15.3086 62.0108C15.3675 62.0667 15.394 62.1403 15.394 62.2139ZM17.6991 62.0049C17.6991 62.0756 17.6726 62.1492 17.6166 62.2051C17.5077 62.317 17.3252 62.3199 17.2133 62.2081L16.1152 61.1306C16.0034 61.0187 16.0004 60.8391 16.1123 60.7273C16.2212 60.6154 16.4037 60.6125 16.5156 60.7243L17.6137 61.8018C17.6696 61.8577 17.6991 61.9313 17.6991 62.0049Z" fill="#3EBED0"/>
<path d="M18.8409 55.9817L18.8409 60.1797C18.8409 61.1689 18.2138 62.0491 17.2806 62.3729C17.1805 62.4083 17.0687 62.4377 16.9597 62.4583C16.8214 62.4848 16.6712 62.4995 16.5211 62.4995L2.32273 62.4995C2.27563 62.4995 2.22852 62.4995 2.18142 62.4966C2.0254 62.4877 1.86937 62.4612 1.7104 62.42C1.70451 62.42 1.70157 62.4171 1.69568 62.4171C1.48666 62.3582 1.28648 62.2699 1.10101 62.1551C0.412144 61.7253 -6.60136e-08 60.9893 -1.01401e-07 60.1797L-2.84772e-07 55.9847C-3.30068e-07 54.9484 0.697701 54.0299 1.69274 53.7503C1.84876 53.7061 2.01362 53.6767 2.17553 53.6678C2.22264 53.6649 2.26974 53.6649 2.31978 53.6649L16.5182 53.6649C16.6683 53.6649 16.8184 53.6796 16.9597 53.7091C17.0657 53.7297 17.1746 53.7562 17.2806 53.7944C18.2138 54.1124 18.8409 54.9926 18.8409 55.9817ZM1.83993 61.8607C1.84287 61.8607 1.84582 61.8636 1.85171 61.8636C1.97241 61.896 2.09605 61.9166 2.21675 61.9255C2.25207 61.9284 2.2874 61.9284 2.32567 61.9284L16.524 61.9284C16.6389 61.9284 16.7507 61.9166 16.8567 61.896C16.9421 61.8813 17.0186 61.8607 17.0922 61.8312C17.7988 61.5869 18.2727 60.9216 18.2727 60.1768L18.2727 55.9817C18.2727 55.2369 17.7988 54.5716 17.0952 54.3302C17.0157 54.3008 16.9391 54.2802 16.8596 54.2655C16.7478 54.2448 16.6359 54.2331 16.524 54.2331L2.32273 54.2331C2.2874 54.2331 2.24913 54.2331 2.2138 54.236C2.09016 54.2448 1.96946 54.2655 1.84876 54.2978C1.09513 54.5098 0.571114 55.2016 0.571114 55.9817L0.571114 60.1797C0.571114 60.7891 0.880223 61.3455 1.40129 61.6693C1.53671 61.7518 1.6839 61.8165 1.83993 61.8607Z" fill="#3EBED0"/>
<path d="M18.8409 2.83798C18.8409 2.99695 18.7143 3.12353 18.5553 3.12353L0.285557 3.12354C0.126587 3.12354 -5.53332e-09 2.99695 -1.24821e-08 2.83798C-1.94309e-08 2.67901 0.126587 2.55242 0.285557 2.55242L18.5553 2.55242C18.7114 2.55242 18.8409 2.67901 18.8409 2.83798Z" fill="#56E4EE"/>
<path d="M18.8409 4.4161C18.8409 4.57507 18.7143 4.70166 18.5553 4.70166L0.285557 4.70166C0.126587 4.70166 -5.66198e-09 4.57213 -1.24821e-08 4.4161C-1.94309e-08 4.25713 0.126587 4.13055 0.285557 4.13055L18.5553 4.13054C18.7114 4.13054 18.8409 4.25713 18.8409 4.4161Z" fill="#3EBED0"/>
<path d="M18.8409 6.24813C18.8409 6.4071 18.7143 6.53369 18.5553 6.53369L0.285557 6.53369C0.126587 6.53369 -5.53332e-09 6.4071 -1.24821e-08 6.24813C-1.94309e-08 6.08916 0.126587 5.96258 0.285557 5.96258L18.5553 5.96258C18.7114 5.96258 18.8409 6.09211 18.8409 6.24813Z" fill="#56E4EE"/>
<path d="M1.9383 5.67844L1.9383 6.66464C1.9383 6.82361 1.81171 6.9502 1.65274 6.9502C1.49377 6.9502 1.36719 6.82361 1.36719 6.66464L1.36719 5.67844C1.36719 5.51947 1.49377 5.39288 1.65274 5.39288C1.81171 5.39288 1.9383 5.51947 1.9383 5.67844ZM1.9383 2.33712L1.9383 3.32038C1.9383 3.47935 1.81171 3.60594 1.65274 3.60594C1.49377 3.60594 1.36719 3.47935 1.36719 3.32038L1.36719 2.33712C1.36719 2.17815 1.49377 2.05156 1.65274 2.05156C1.81171 2.05156 1.9383 2.17815 1.9383 2.33712ZM3.88127 5.67844L3.88127 6.66464C3.88127 6.82361 3.75468 6.9502 3.59571 6.9502C3.43674 6.9502 3.31015 6.82361 3.31015 6.66464L3.31015 5.67844C3.31015 5.51947 3.43674 5.39288 3.59571 5.39288C3.75174 5.39288 3.88127 5.51947 3.88127 5.67844ZM3.88127 2.33712L3.88127 3.32038C3.88127 3.47935 3.75468 3.60594 3.59571 3.60594C3.43674 3.60594 3.31015 3.47935 3.31015 3.32038L3.31015 2.33712C3.31015 2.17815 3.43674 2.05156 3.59571 2.05156C3.75174 2.05156 3.88127 2.17815 3.88127 2.33712ZM5.82129 5.67844L5.82129 6.66464C5.82129 6.82361 5.6947 6.9502 5.53573 6.9502C5.37676 6.9502 5.25018 6.82361 5.25018 6.66464L5.25018 5.67844C5.25018 5.51947 5.37676 5.39288 5.53573 5.39288C5.6947 5.39288 5.82129 5.51947 5.82129 5.67844ZM5.82129 2.33712L5.82129 3.32038C5.82129 3.47935 5.6947 3.60594 5.53573 3.60594C5.37676 3.60594 5.25018 3.47935 5.25018 3.32038L5.25018 2.33712C5.25018 2.17815 5.37676 2.05156 5.53573 2.05156C5.6947 2.05156 5.82129 2.17815 5.82129 2.33712ZM7.76131 5.67844L7.76131 6.66464C7.76131 6.82361 7.63473 6.9502 7.47576 6.9502C7.31679 6.9502 7.1902 6.82361 7.1902 6.66464L7.1902 5.67844C7.1902 5.51947 7.31679 5.39288 7.47576 5.39288C7.63473 5.39288 7.76131 5.51947 7.76131 5.67844ZM7.76131 2.33712L7.76131 3.32038C7.76131 3.47935 7.63473 3.60594 7.47576 3.60594C7.31679 3.60594 7.1902 3.47935 7.1902 3.32038L7.1902 2.33712C7.1902 2.17815 7.31679 2.05156 7.47576 2.05156C7.63473 2.05156 7.76131 2.17815 7.76131 2.33712ZM9.70134 5.67844L9.70134 6.66464C9.70134 6.82361 9.57475 6.95019 9.41578 6.95019C9.25681 6.95019 9.13022 6.82361 9.13022 6.66464L9.13022 5.67844C9.13022 5.51947 9.25681 5.39288 9.41578 5.39288C9.57181 5.39288 9.70134 5.51947 9.70134 5.67844ZM9.70134 2.33712L9.70134 3.32038C9.70134 3.47935 9.57475 3.60594 9.41578 3.60594C9.25681 3.60594 9.13022 3.47935 9.13022 3.32038L9.13022 2.33712C9.13022 2.17815 9.25681 2.05156 9.41578 2.05156C9.5718 2.05156 9.70134 2.17815 9.70134 2.33712ZM11.6414 5.67844L11.6414 6.66464C11.6414 6.82361 11.5148 6.95019 11.3558 6.95019C11.1968 6.95019 11.0702 6.82361 11.0702 6.66464L11.0702 5.67844C11.0702 5.51947 11.1968 5.39288 11.3558 5.39288C11.5148 5.39288 11.6414 5.51947 11.6414 5.67844ZM11.6414 2.33712L11.6414 3.32038C11.6414 3.47935 11.5148 3.60594 11.3558 3.60594C11.1968 3.60594 11.0702 3.47935 11.0702 3.32038L11.0702 2.33712C11.0702 2.17815 11.1968 2.05156 11.3558 2.05156C11.5148 2.05156 11.6414 2.17815 11.6414 2.33712ZM13.5843 5.67843L13.5843 6.66464C13.5843 6.82361 13.4577 6.95019 13.2988 6.95019C13.1398 6.95019 13.0132 6.82361 13.0132 6.66464L13.0132 5.67844C13.0132 5.51947 13.1398 5.39288 13.2988 5.39288C13.4577 5.39288 13.5843 5.51947 13.5843 5.67843ZM13.5843 2.33712L13.5843 3.32038C13.5843 3.47935 13.4577 3.60594 13.2988 3.60594C13.1398 3.60594 13.0132 3.47935 13.0132 3.32038L13.0132 2.33712C13.0132 2.17815 13.1398 2.05156 13.2988 2.05156C13.4577 2.05156 13.5843 2.17815 13.5843 2.33712ZM15.5214 5.67843L15.5214 6.66464C15.5214 6.82361 15.3948 6.95019 15.2358 6.95019C15.0769 6.95019 14.9503 6.82361 14.9503 6.66464L14.9503 5.67843C14.9503 5.51946 15.0769 5.39288 15.2358 5.39288C15.3948 5.39288 15.5214 5.51946 15.5214 5.67843ZM15.5214 2.33712L15.5214 3.32038C15.5214 3.47935 15.3948 3.60594 15.2358 3.60594C15.0769 3.60594 14.9503 3.47935 14.9503 3.32038L14.9503 2.33712C14.9503 2.17815 15.0769 2.05156 15.2358 2.05156C15.3948 2.05156 15.5214 2.17815 15.5214 2.33712ZM17.4614 5.67843L17.4614 6.66464C17.4614 6.82361 17.3348 6.95019 17.1759 6.95019C17.0169 6.95019 16.8903 6.82361 16.8903 6.66464L16.8903 5.67843C16.8903 5.51946 17.0169 5.39288 17.1759 5.39288C17.3348 5.39288 17.4614 5.51946 17.4614 5.67843ZM17.4614 2.33712L17.4614 3.32038C17.4614 3.47935 17.3348 3.60594 17.1759 3.60594C17.0169 3.60594 16.8903 3.47935 16.8903 3.32038L16.8903 2.33712C16.8903 2.17815 17.0169 2.05156 17.1759 2.05156C17.3348 2.05156 17.4614 2.17815 17.4614 2.33712Z" fill="#56E4EE"/>
<path d="M2.82455 0.285356C2.82455 0.358954 2.79511 0.432552 2.73917 0.488485L1.42326 1.77791C1.31139 1.88978 1.12887 1.88683 1.01994 1.77496C0.908076 1.6631 0.91102 1.48058 1.02289 1.37165L2.33881 0.0822285C2.45067 -0.0296393 2.63319 -0.0266959 2.74212 0.0851719C2.79805 0.141106 2.82455 0.211759 2.82455 0.285356ZM5.33863 0.285356C5.33863 0.358953 5.30919 0.432551 5.25325 0.488485L3.93734 1.77791C3.82547 1.88978 3.64295 1.88683 3.53402 1.77496C3.4251 1.6631 3.4251 1.48058 3.53697 1.37165L4.85289 0.0822284C4.96475 -0.0296394 5.14727 -0.026696 5.2562 0.0851717C5.31213 0.141106 5.33863 0.211759 5.33863 0.285356ZM7.85565 0.285356C7.85565 0.358953 7.82621 0.432551 7.77028 0.488485L6.45731 1.77791C6.34544 1.88978 6.16292 1.88683 6.05399 1.77496C5.94212 1.6631 5.94507 1.48058 6.05694 1.37165L7.36991 0.0822283C7.48178 -0.0296395 7.6643 -0.0266961 7.77322 0.0851716C7.82621 0.141106 7.85565 0.211759 7.85565 0.285356ZM10.3727 0.285356C10.3727 0.358953 10.3432 0.432551 10.2873 0.488485L8.97139 1.77791C8.85952 1.88978 8.677 1.88683 8.56807 1.77496C8.45621 1.6631 8.45915 1.48058 8.57102 1.37165L9.88694 0.0822281C9.9988 -0.0296396 10.1813 -0.0266962 10.2902 0.0851715C10.3462 0.141105 10.3727 0.211759 10.3727 0.285356ZM12.8868 0.285356C12.8868 0.358953 12.8573 0.432551 12.8014 0.488485L11.4884 1.77791C11.3765 1.88978 11.194 1.88683 11.0851 1.77496C10.9732 1.6631 10.9762 1.48058 11.088 1.37165L12.401 0.082228C12.5129 -0.0296397 12.6954 -0.0266963 12.8043 0.0851714C12.8603 0.141105 12.8868 0.211759 12.8868 0.285356ZM15.4008 0.285356C15.4008 0.358953 15.3714 0.432551 15.3155 0.488485L14.0025 1.77791C13.8906 1.88978 13.7081 1.88683 13.5992 1.77496C13.4873 1.6631 13.4903 1.48058 13.6021 1.37165L14.9151 0.0822279C15.027 -0.0296398 15.2095 -0.0266965 15.3184 0.0851713C15.3743 0.141105 15.4008 0.211759 15.4008 0.285356ZM17.703 0.497316C17.703 0.570913 17.6735 0.64451 17.6176 0.700444L16.5195 1.77791C16.4076 1.88683 16.2251 1.88683 16.1162 1.77202C16.0073 1.66015 16.0073 1.47763 16.1191 1.36871L17.2172 0.291244C17.3291 0.18232 17.5116 0.18232 17.6205 0.297132C17.6765 0.353065 17.703 0.423719 17.703 0.497316Z" fill="#3EBED0"/>
<path d="M2.8177 8.55085C2.8177 8.62151 2.7912 8.6951 2.73527 8.75104C2.62634 8.86291 2.44382 8.86585 2.33196 8.75398L1.01898 7.4675C0.907113 7.35564 0.904169 7.17606 1.01604 7.06419C1.12496 6.95232 1.30748 6.94938 1.41935 7.06125L2.73232 8.34773C2.78826 8.40366 2.8177 8.47726 2.8177 8.55085ZM5.33178 8.55085C5.33178 8.62151 5.30528 8.6951 5.24935 8.75104C5.14042 8.86291 4.9579 8.86585 4.84604 8.75398L3.53306 7.4675C3.42119 7.35564 3.41825 7.17606 3.53012 7.06419C3.63904 6.95232 3.82156 6.94938 3.93343 7.06125L5.2464 8.34773C5.30528 8.40366 5.33178 8.47726 5.33178 8.55085ZM7.8488 8.55085C7.8488 8.62445 7.82231 8.6951 7.76637 8.75104C7.65451 8.86291 7.47493 8.86585 7.36306 8.75398L6.05303 7.4675C5.94116 7.35564 5.93822 7.17606 6.05009 7.06419C6.16195 6.95232 6.34153 6.94938 6.4534 7.06125L7.76343 8.34773C7.81936 8.40366 7.8488 8.47726 7.8488 8.55085ZM10.3658 8.55085C10.3658 8.62151 10.3393 8.6951 10.2834 8.75104C10.1745 8.86291 9.99195 8.86585 9.88008 8.75398L8.56711 7.4675C8.45524 7.35564 8.4523 7.17606 8.56417 7.06419C8.67309 6.95232 8.85561 6.94938 8.96748 7.06125L10.2805 8.34773C10.3364 8.40366 10.3658 8.47726 10.3658 8.55085ZM12.8799 8.55085C12.8799 8.62445 12.8534 8.6951 12.7975 8.75104C12.6856 8.86291 12.506 8.86585 12.3942 8.75398L11.0841 7.4675C10.9723 7.35564 10.9693 7.17606 11.0812 7.06419C11.1931 6.95232 11.3726 6.94938 11.4845 7.06125L12.7945 8.34773C12.8505 8.40366 12.8799 8.47726 12.8799 8.55085ZM15.394 8.55085C15.394 8.62445 15.3675 8.6951 15.3116 8.75104C15.1997 8.86291 15.0201 8.86585 14.9082 8.75398L13.5982 7.4675C13.4863 7.35564 13.4834 7.17606 13.5953 7.06419C13.7071 6.95232 13.8867 6.94938 13.9986 7.06125L15.3086 8.34773C15.3675 8.40366 15.394 8.47726 15.394 8.55085ZM17.6991 8.34184C17.6991 8.41249 17.6726 8.48609 17.6166 8.54202C17.5077 8.65389 17.3252 8.65683 17.2133 8.54497L16.1152 7.4675C16.0034 7.35564 16.0004 7.17606 16.1123 7.06419C16.2212 6.95232 16.4037 6.94938 16.5156 7.06125L17.6137 8.13871C17.6696 8.19464 17.6991 8.26824 17.6991 8.34184Z" fill="#3EBED0"/>
<path d="M18.8409 2.31866L18.8409 6.51664C18.8409 7.50579 18.2138 8.38601 17.2806 8.70984C17.1805 8.74516 17.0687 8.7746 16.9597 8.79521C16.8214 8.82171 16.6712 8.83643 16.5211 8.83643L2.32273 8.83643C2.27563 8.83643 2.22852 8.83643 2.18142 8.83348C2.0254 8.82465 1.86937 8.79816 1.7104 8.75694C1.70451 8.75694 1.70157 8.754 1.69568 8.754C1.48666 8.69512 1.28648 8.6068 1.10101 8.49199C0.412144 8.06218 -6.60136e-08 7.32621 -1.01401e-07 6.51664L-2.84772e-07 2.3216C-3.30068e-07 1.28535 0.697701 0.366859 1.69274 0.0871899C1.84876 0.0430315 2.01362 0.0135919 2.17553 0.0047602C2.22264 0.00181631 2.26974 0.00181681 2.31978 0.0018168L16.5182 0.00181618C16.6683 0.00181618 16.8184 0.0165361 16.9597 0.0459749C17.0657 0.0665822 17.1746 0.0930763 17.2806 0.131347C18.2138 0.449287 18.8409 1.32951 18.8409 2.31866ZM1.83993 8.1976C1.84287 8.1976 1.84582 8.20055 1.85171 8.20055C1.97241 8.23293 2.09605 8.25354 2.21675 8.26237C2.25207 8.26531 2.2874 8.26531 2.32567 8.26531L16.524 8.26531C16.6389 8.26531 16.7507 8.25353 16.8567 8.23293C16.9421 8.21821 17.0186 8.1976 17.0922 8.16816C17.7988 7.92382 18.2727 7.2585 18.2727 6.5137L18.2727 2.31866C18.2727 1.57385 17.7988 0.908533 17.0952 0.667134C17.0157 0.637696 16.9391 0.617089 16.8596 0.60237C16.7478 0.581762 16.6359 0.569987 16.524 0.569987L2.32273 0.569987C2.2874 0.569987 2.24913 0.569987 2.2138 0.572931C2.09016 0.581762 1.96946 0.60237 1.84876 0.634753C1.09513 0.846713 0.571114 1.53853 0.571114 2.31866L0.571114 6.51664C0.571114 7.12603 0.880223 7.68242 1.40129 8.00625C1.53671 8.08868 1.6839 8.15344 1.83993 8.1976Z" fill="#3EBED0"/>
<line x1="72" y1="31.5" x2="147" y2="31.5" stroke="white"/>
<path d="M71.832 8.83887L71.832 53.8932" stroke="white" strokeLinecap="square"/>
<path d="M70.1914 8.83887L70.1914 53.8932" stroke="white" strokeLinecap="square"/>
<path d="M80.8409 56.502C80.8409 56.661 80.7143 56.7876 80.5553 56.7876L62.2856 56.7876C62.1266 56.7876 62 56.661 62 56.502C62 56.3431 62.1266 56.2165 62.2856 56.2165L80.5553 56.2165C80.7114 56.2165 80.8409 56.3431 80.8409 56.502Z" fill="#56E4EE"/>
<path d="M80.8409 58.0787C80.8409 58.2377 80.7143 58.3643 80.5553 58.3643L62.2856 58.3643C62.1266 58.3643 62 58.2347 62 58.0787C62 57.9197 62.1266 57.7931 62.2856 57.7931L80.5553 57.7931C80.7114 57.7931 80.8409 57.9197 80.8409 58.0787Z" fill="#3EBED0"/>
<path d="M80.8409 59.9107C80.8409 60.0697 80.7143 60.1963 80.5553 60.1963L62.2856 60.1963C62.1266 60.1963 62 60.0697 62 59.9107C62 59.7518 62.1266 59.6252 62.2856 59.6252L80.5553 59.6252C80.7114 59.6252 80.8409 59.7547 80.8409 59.9107Z" fill="#56E4EE"/>
<path d="M63.9383 59.3425L63.9383 60.3287C63.9383 60.4877 63.8117 60.6143 63.6527 60.6143C63.4938 60.6143 63.3672 60.4877 63.3672 60.3287L63.3672 59.3425C63.3672 59.1835 63.4938 59.0569 63.6527 59.0569C63.8117 59.0569 63.9383 59.1835 63.9383 59.3425ZM63.9383 56.0012L63.9383 56.9844C63.9383 57.1434 63.8117 57.27 63.6527 57.27C63.4938 57.27 63.3672 57.1434 63.3672 56.9844L63.3672 56.0012C63.3672 55.8422 63.4938 55.7156 63.6527 55.7156C63.8117 55.7156 63.9383 55.8422 63.9383 56.0012ZM65.8813 59.3425L65.8813 60.3287C65.8813 60.4877 65.7547 60.6143 65.5957 60.6143C65.4367 60.6143 65.3102 60.4877 65.3102 60.3287L65.3102 59.3425C65.3102 59.1835 65.4367 59.0569 65.5957 59.0569C65.7517 59.0569 65.8813 59.1835 65.8813 59.3425ZM65.8813 56.0012L65.8813 56.9844C65.8813 57.1434 65.7547 57.27 65.5957 57.27C65.4367 57.27 65.3102 57.1434 65.3102 56.9844L65.3102 56.0012C65.3102 55.8422 65.4367 55.7156 65.5957 55.7156C65.7517 55.7156 65.8813 55.8422 65.8813 56.0012ZM67.8213 59.3425L67.8213 60.3287C67.8213 60.4877 67.6947 60.6143 67.5357 60.6143C67.3768 60.6143 67.2502 60.4877 67.2502 60.3287L67.2502 59.3425C67.2502 59.1835 67.3768 59.0569 67.5357 59.0569C67.6947 59.0569 67.8213 59.1835 67.8213 59.3425ZM67.8213 56.0012L67.8213 56.9844C67.8213 57.1434 67.6947 57.27 67.5357 57.27C67.3768 57.27 67.2502 57.1434 67.2502 56.9844L67.2502 56.0012C67.2502 55.8422 67.3768 55.7156 67.5357 55.7156C67.6947 55.7156 67.8213 55.8422 67.8213 56.0012ZM69.7613 59.3425L69.7613 60.3287C69.7613 60.4877 69.6347 60.6143 69.4758 60.6143C69.3168 60.6143 69.1902 60.4877 69.1902 60.3287L69.1902 59.3425C69.1902 59.1835 69.3168 59.0569 69.4758 59.0569C69.6347 59.0569 69.7613 59.1835 69.7613 59.3425ZM69.7613 56.0012L69.7613 56.9844C69.7613 57.1434 69.6347 57.27 69.4758 57.27C69.3168 57.27 69.1902 57.1434 69.1902 56.9844L69.1902 56.0012C69.1902 55.8422 69.3168 55.7156 69.4758 55.7156C69.6347 55.7156 69.7613 55.8422 69.7613 56.0012ZM71.7013 59.3425L71.7013 60.3287C71.7013 60.4877 71.5747 60.6143 71.4158 60.6143C71.2568 60.6143 71.1302 60.4877 71.1302 60.3287L71.1302 59.3425C71.1302 59.1835 71.2568 59.0569 71.4158 59.0569C71.5718 59.0569 71.7013 59.1835 71.7013 59.3425ZM71.7013 56.0012L71.7013 56.9844C71.7013 57.1434 71.5747 57.27 71.4158 57.27C71.2568 57.27 71.1302 57.1434 71.1302 56.9844L71.1302 56.0012C71.1302 55.8422 71.2568 55.7156 71.4158 55.7156C71.5718 55.7156 71.7013 55.8422 71.7013 56.0012ZM73.6414 59.3425L73.6414 60.3287C73.6414 60.4877 73.5148 60.6143 73.3558 60.6143C73.1968 60.6143 73.0702 60.4877 73.0702 60.3287L73.0702 59.3425C73.0702 59.1835 73.1968 59.0569 73.3558 59.0569C73.5148 59.0569 73.6414 59.1835 73.6414 59.3425ZM73.6414 56.0012L73.6414 56.9844C73.6414 57.1434 73.5148 57.27 73.3558 57.27C73.1968 57.27 73.0702 57.1434 73.0702 56.9844L73.0702 56.0012C73.0702 55.8422 73.1968 55.7156 73.3558 55.7156C73.5148 55.7156 73.6414 55.8422 73.6414 56.0012ZM75.5843 59.3425L75.5843 60.3287C75.5843 60.4877 75.4577 60.6143 75.2988 60.6143C75.1398 60.6143 75.0132 60.4877 75.0132 60.3287L75.0132 59.3425C75.0132 59.1835 75.1398 59.0569 75.2988 59.0569C75.4577 59.0569 75.5843 59.1835 75.5843 59.3425ZM75.5843 56.0012L75.5843 56.9844C75.5843 57.1434 75.4577 57.27 75.2988 57.27C75.1398 57.27 75.0132 57.1434 75.0132 56.9844L75.0132 56.0012C75.0132 55.8422 75.1398 55.7156 75.2988 55.7156C75.4577 55.7156 75.5843 55.8422 75.5843 56.0012ZM77.5214 59.3425L77.5214 60.3287C77.5214 60.4877 77.3948 60.6143 77.2358 60.6143C77.0769 60.6143 76.9503 60.4877 76.9503 60.3287L76.9503 59.3425C76.9503 59.1835 77.0769 59.0569 77.2358 59.0569C77.3948 59.0569 77.5214 59.1835 77.5214 59.3425ZM77.5214 56.0012L77.5214 56.9844C77.5214 57.1434 77.3948 57.27 77.2358 57.27C77.0769 57.27 76.9503 57.1434 76.9503 56.9844L76.9503 56.0012C76.9503 55.8422 77.0769 55.7156 77.2358 55.7156C77.3948 55.7156 77.5214 55.8422 77.5214 56.0012ZM79.4614 59.3425L79.4614 60.3287C79.4614 60.4877 79.3348 60.6143 79.1759 60.6143C79.0169 60.6143 78.8903 60.4877 78.8903 60.3287L78.8903 59.3425C78.8903 59.1835 79.0169 59.0569 79.1759 59.0569C79.3348 59.0569 79.4614 59.1835 79.4614 59.3425ZM79.4614 56.0012L79.4614 56.9844C79.4614 57.1434 79.3348 57.27 79.1759 57.27C79.0169 57.27 78.8903 57.1434 78.8903 56.9844L78.8903 56.0012C78.8903 55.8422 79.0169 55.7156 79.1759 55.7156C79.3348 55.7156 79.4614 55.8422 79.4614 56.0012Z" fill="#56E4EE"/>
<path d="M64.8245 53.948C64.8245 54.0216 64.7951 54.0951 64.7392 54.1511L63.4233 55.4405C63.3114 55.5524 63.1289 55.5494 63.0199 55.4376C62.9081 55.3257 62.911 55.1432 63.0229 55.0342L64.3388 53.7448C64.4507 53.633 64.6332 53.6359 64.7421 53.7478C64.7981 53.8037 64.8245 53.8744 64.8245 53.948ZM67.3386 53.948C67.3386 54.0216 67.3092 54.0951 67.2533 54.1511L65.9373 55.4405C65.8255 55.5524 65.6429 55.5494 65.534 55.4376C65.4251 55.3257 65.4251 55.1432 65.537 55.0342L66.8529 53.7448C66.9648 53.633 67.1473 53.6359 67.2562 53.7478C67.3121 53.8037 67.3386 53.8744 67.3386 53.948ZM69.8557 53.948C69.8557 54.0216 69.8262 54.0951 69.7703 54.1511L68.4573 55.4405C68.3454 55.5524 68.1629 55.5494 68.054 55.4376C67.9421 55.3257 67.9451 55.1432 68.0569 55.0342L69.3699 53.7448C69.4818 53.633 69.6643 53.6359 69.7732 53.7478C69.8262 53.8037 69.8557 53.8744 69.8557 53.948ZM72.3727 53.948C72.3727 54.0216 72.3432 54.0951 72.2873 54.1511L70.9714 55.4405C70.8595 55.5524 70.677 55.5494 70.5681 55.4376C70.4562 55.3257 70.4591 55.1432 70.571 55.0342L71.8869 53.7448C71.9988 53.633 72.1813 53.6359 72.2902 53.7478C72.3462 53.8037 72.3727 53.8744 72.3727 53.948ZM74.8868 53.948C74.8868 54.0216 74.8573 54.0951 74.8014 54.1511L73.4884 55.4405C73.3765 55.5524 73.194 55.5494 73.0851 55.4376C72.9732 55.3257 72.9762 55.1432 73.088 55.0342L74.401 53.7448C74.5129 53.633 74.6954 53.6359 74.8043 53.7478C74.8603 53.8037 74.8868 53.8744 74.8868 53.948ZM77.4008 53.948C77.4008 54.0216 77.3714 54.0951 77.3155 54.1511L76.0025 55.4405C75.8906 55.5524 75.7081 55.5494 75.5992 55.4376C75.4873 55.3257 75.4903 55.1432 75.6021 55.0342L76.9151 53.7448C77.027 53.633 77.2095 53.6359 77.3184 53.7478C77.3743 53.8037 77.4008 53.8744 77.4008 53.948ZM79.703 54.1599C79.703 54.2335 79.6735 54.3071 79.6176 54.363L78.5195 55.4405C78.4076 55.5494 78.2251 55.5494 78.1162 55.4346C78.0073 55.3227 78.0073 55.1402 78.1191 55.0313L79.2172 53.9538C79.3291 53.8449 79.5116 53.8449 79.6205 53.9597C79.6765 54.0157 79.703 54.0863 79.703 54.1599Z" fill="#3EBED0"/>
<path d="M64.8177 62.2144C64.8177 62.2851 64.7912 62.3587 64.7353 62.4146C64.6263 62.5265 64.4438 62.5294 64.332 62.4176L63.019 61.1311C62.9071 61.0192 62.9042 60.8396 63.016 60.7278C63.125 60.6159 63.3075 60.613 63.4193 60.7248L64.7323 62.0113C64.7883 62.0672 64.8177 62.1408 64.8177 62.2144ZM67.3318 62.2144C67.3318 62.2851 67.3053 62.3587 67.2493 62.4146C67.1404 62.5265 66.9579 62.5294 66.846 62.4176L65.5331 61.1311C65.4212 61.0192 65.4182 60.8396 65.5301 60.7278C65.639 60.6159 65.8216 60.613 65.9334 60.7248L67.2464 62.0113C67.3053 62.0672 67.3318 62.1408 67.3318 62.2144ZM69.8488 62.2144C69.8488 62.288 69.8223 62.3587 69.7664 62.4146C69.6545 62.5265 69.4749 62.5294 69.3631 62.4176L68.053 61.1311C67.9412 61.0192 67.9382 60.8396 68.0501 60.7278C68.162 60.6159 68.3415 60.613 68.4534 60.7248L69.7634 62.0113C69.8194 62.0672 69.8488 62.1408 69.8488 62.2144ZM72.3658 62.2144C72.3658 62.2851 72.3393 62.3587 72.2834 62.4146C72.1745 62.5265 71.992 62.5294 71.8801 62.4176L70.5671 61.1311C70.4552 61.0192 70.4523 60.8396 70.5642 60.7278C70.6731 60.6159 70.8556 60.613 70.9675 60.7248L72.2805 62.0113C72.3364 62.0672 72.3658 62.1408 72.3658 62.2144ZM74.8799 62.2144C74.8799 62.288 74.8534 62.3587 74.7975 62.4146C74.6856 62.5265 74.506 62.5294 74.3942 62.4176L73.0841 61.1311C72.9723 61.0192 72.9693 60.8396 73.0812 60.7278C73.1931 60.6159 73.3726 60.613 73.4845 60.7248L74.7945 62.0113C74.8505 62.0672 74.8799 62.1408 74.8799 62.2144ZM77.394 62.2144C77.394 62.288 77.3675 62.3587 77.3116 62.4146C77.1997 62.5265 77.0201 62.5294 76.9082 62.4176L75.5982 61.1311C75.4863 61.0192 75.4834 60.8396 75.5953 60.7278C75.7071 60.6159 75.8867 60.613 75.9986 60.7248L77.3086 62.0113C77.3675 62.0672 77.394 62.1408 77.394 62.2144ZM79.6991 62.0054C79.6991 62.0761 79.6726 62.1497 79.6166 62.2056C79.5077 62.3175 79.3252 62.3204 79.2133 62.2085L78.1152 61.1311C78.0034 61.0192 78.0004 60.8396 78.1123 60.7278C78.2212 60.6159 78.4037 60.613 78.5156 60.7248L79.6137 61.8023C79.6696 61.8582 79.6991 61.9318 79.6991 62.0054Z" fill="#3EBED0"/>
<path d="M80.8409 55.9822L80.8409 60.1802C80.8409 61.1694 80.2138 62.0496 79.2806 62.3734C79.1805 62.4087 79.0687 62.4382 78.9597 62.4588C78.8214 62.4853 78.6712 62.5 78.5211 62.5L64.3227 62.5C64.2756 62.5 64.2285 62.5 64.1814 62.4971C64.0254 62.4882 63.8694 62.4617 63.7104 62.4205C63.7045 62.4205 63.7016 62.4176 63.6957 62.4176C63.4867 62.3587 63.2865 62.2704 63.101 62.1556C62.4121 61.7258 62 60.9898 62 60.1802L62 55.9852C62 54.9489 62.6977 54.0304 63.6927 53.7508C63.8488 53.7066 64.0136 53.6772 64.1755 53.6683C64.2226 53.6654 64.2697 53.6654 64.3198 53.6654L78.5182 53.6654C78.6683 53.6654 78.8184 53.6801 78.9597 53.7095C79.0657 53.7302 79.1746 53.7567 79.2806 53.7949C80.2138 54.1129 80.8409 54.9931 80.8409 55.9822ZM63.8399 61.8612C63.8429 61.8612 63.8458 61.8641 63.8517 61.8641C63.9724 61.8965 64.096 61.9171 64.2167 61.9259C64.2521 61.9289 64.2874 61.9289 64.3257 61.9289L78.524 61.9289C78.6389 61.9289 78.7507 61.9171 78.8567 61.8965C78.9421 61.8818 79.0186 61.8612 79.0922 61.8317C79.7988 61.5874 80.2727 60.9221 80.2727 60.1773L80.2727 55.9822C80.2727 55.2374 79.7988 54.5721 79.0952 54.3307C79.0157 54.3013 78.9391 54.2807 78.8596 54.2659C78.7478 54.2453 78.6359 54.2336 78.524 54.2336L64.3227 54.2336C64.2874 54.2336 64.2491 54.2336 64.2138 54.2365C64.0902 54.2453 63.9695 54.2659 63.8488 54.2983C63.0951 54.5103 62.5711 55.2021 62.5711 55.9822L62.5711 60.1802C62.5711 60.7896 62.8802 61.346 63.4013 61.6698C63.5367 61.7523 63.6839 61.817 63.8399 61.8612Z" fill="#3EBED0"/>
<path d="M80.8409 2.83847C80.8409 2.99744 80.7143 3.12402 80.5553 3.12402L62.2856 3.12402C62.1266 3.12402 62 2.99744 62 2.83847C62 2.6795 62.1266 2.55291 62.2856 2.55291L80.5553 2.55291C80.7114 2.55291 80.8409 2.6795 80.8409 2.83847Z" fill="#56E4EE"/>
<path d="M80.8409 4.41659C80.8409 4.57556 80.7143 4.70215 80.5553 4.70215L62.2856 4.70215C62.1266 4.70215 62 4.57262 62 4.41659C62 4.25762 62.1266 4.13103 62.2856 4.13103L80.5553 4.13103C80.7114 4.13103 80.8409 4.25762 80.8409 4.41659Z" fill="#3EBED0"/>
<path d="M80.8409 6.24862C80.8409 6.40759 80.7143 6.53418 80.5553 6.53418L62.2856 6.53418C62.1266 6.53418 62 6.40759 62 6.24862C62 6.08965 62.1266 5.96307 62.2856 5.96307L80.5553 5.96306C80.7114 5.96306 80.8409 6.0926 80.8409 6.24862Z" fill="#56E4EE"/>
<path d="M63.9383 5.67892L63.9383 6.66513C63.9383 6.8241 63.8117 6.95068 63.6527 6.95068C63.4938 6.95068 63.3672 6.8241 63.3672 6.66513L63.3672 5.67892C63.3672 5.51995 63.4938 5.39337 63.6527 5.39337C63.8117 5.39337 63.9383 5.51995 63.9383 5.67892ZM63.9383 2.33761L63.9383 3.32087C63.9383 3.47984 63.8117 3.60643 63.6527 3.60643C63.4938 3.60643 63.3672 3.47984 63.3672 3.32087L63.3672 2.33761C63.3672 2.17864 63.4938 2.05205 63.6527 2.05205C63.8117 2.05205 63.9383 2.17864 63.9383 2.33761ZM65.8813 5.67892L65.8813 6.66513C65.8813 6.8241 65.7547 6.95068 65.5957 6.95068C65.4367 6.95068 65.3102 6.8241 65.3102 6.66513L65.3102 5.67892C65.3102 5.51995 65.4367 5.39337 65.5957 5.39337C65.7517 5.39337 65.8813 5.51995 65.8813 5.67892ZM65.8813 2.33761L65.8813 3.32087C65.8813 3.47984 65.7547 3.60643 65.5957 3.60643C65.4367 3.60643 65.3102 3.47984 65.3102 3.32087L65.3102 2.33761C65.3102 2.17864 65.4367 2.05205 65.5957 2.05205C65.7517 2.05205 65.8813 2.17864 65.8813 2.33761ZM67.8213 5.67892L67.8213 6.66513C67.8213 6.8241 67.6947 6.95068 67.5357 6.95068C67.3768 6.95068 67.2502 6.8241 67.2502 6.66513L67.2502 5.67892C67.2502 5.51995 67.3768 5.39337 67.5357 5.39337C67.6947 5.39337 67.8213 5.51995 67.8213 5.67892ZM67.8213 2.33761L67.8213 3.32087C67.8213 3.47984 67.6947 3.60643 67.5357 3.60643C67.3768 3.60643 67.2502 3.47984 67.2502 3.32087L67.2502 2.33761C67.2502 2.17864 67.3768 2.05205 67.5357 2.05205C67.6947 2.05205 67.8213 2.17864 67.8213 2.33761ZM69.7613 5.67892L69.7613 6.66513C69.7613 6.8241 69.6347 6.95068 69.4758 6.95068C69.3168 6.95068 69.1902 6.8241 69.1902 6.66513L69.1902 5.67892C69.1902 5.51995 69.3168 5.39337 69.4758 5.39337C69.6347 5.39337 69.7613 5.51995 69.7613 5.67892ZM69.7613 2.33761L69.7613 3.32087C69.7613 3.47984 69.6347 3.60643 69.4758 3.60643C69.3168 3.60643 69.1902 3.47984 69.1902 3.32087L69.1902 2.33761C69.1902 2.17864 69.3168 2.05205 69.4758 2.05205C69.6347 2.05205 69.7613 2.17864 69.7613 2.33761ZM71.7013 5.67892L71.7013 6.66513C71.7013 6.8241 71.5747 6.95068 71.4158 6.95068C71.2568 6.95068 71.1302 6.8241 71.1302 6.66513L71.1302 5.67892C71.1302 5.51995 71.2568 5.39337 71.4158 5.39337C71.5718 5.39337 71.7013 5.51995 71.7013 5.67892ZM71.7013 2.33761L71.7013 3.32087C71.7013 3.47984 71.5747 3.60643 71.4158 3.60643C71.2568 3.60643 71.1302 3.47984 71.1302 3.32087L71.1302 2.33761C71.1302 2.17864 71.2568 2.05205 71.4158 2.05205C71.5718 2.05205 71.7013 2.17864 71.7013 2.33761ZM73.6414 5.67892L73.6414 6.66513C73.6414 6.8241 73.5148 6.95068 73.3558 6.95068C73.1968 6.95068 73.0702 6.8241 73.0702 6.66513L73.0702 5.67892C73.0702 5.51995 73.1968 5.39337 73.3558 5.39337C73.5148 5.39337 73.6414 5.51995 73.6414 5.67892ZM73.6414 2.33761L73.6414 3.32087C73.6414 3.47984 73.5148 3.60643 73.3558 3.60643C73.1968 3.60643 73.0702 3.47984 73.0702 3.32087L73.0702 2.33761C73.0702 2.17864 73.1968 2.05205 73.3558 2.05205C73.5148 2.05205 73.6414 2.17864 73.6414 2.33761ZM75.5843 5.67892L75.5843 6.66513C75.5843 6.8241 75.4577 6.95068 75.2988 6.95068C75.1398 6.95068 75.0132 6.8241 75.0132 6.66513L75.0132 5.67892C75.0132 5.51995 75.1398 5.39337 75.2988 5.39337C75.4577 5.39337 75.5843 5.51995 75.5843 5.67892ZM75.5843 2.33761L75.5843 3.32087C75.5843 3.47984 75.4577 3.60643 75.2988 3.60643C75.1398 3.60643 75.0132 3.47984 75.0132 3.32087L75.0132 2.33761C75.0132 2.17864 75.1398 2.05205 75.2988 2.05205C75.4577 2.05205 75.5843 2.17864 75.5843 2.33761ZM77.5214 5.67892L77.5214 6.66513C77.5214 6.8241 77.3948 6.95068 77.2358 6.95068C77.0769 6.95068 76.9503 6.8241 76.9503 6.66513L76.9503 5.67892C76.9503 5.51995 77.0769 5.39337 77.2358 5.39337C77.3948 5.39337 77.5214 5.51995 77.5214 5.67892ZM77.5214 2.33761L77.5214 3.32087C77.5214 3.47984 77.3948 3.60643 77.2358 3.60643C77.0769 3.60643 76.9503 3.47984 76.9503 3.32087L76.9503 2.33761C76.9503 2.17864 77.0769 2.05205 77.2358 2.05205C77.3948 2.05205 77.5214 2.17864 77.5214 2.33761ZM79.4614 5.67892L79.4614 6.66513C79.4614 6.8241 79.3348 6.95068 79.1759 6.95068C79.0169 6.95068 78.8903 6.8241 78.8903 6.66513L78.8903 5.67892C78.8903 5.51995 79.0169 5.39337 79.1759 5.39337C79.3348 5.39337 79.4614 5.51995 79.4614 5.67892ZM79.4614 2.33761L79.4614 3.32087C79.4614 3.47984 79.3348 3.60643 79.1759 3.60643C79.0169 3.60643 78.8903 3.47984 78.8903 3.32087L78.8903 2.33761C78.8903 2.17864 79.0169 2.05205 79.1759 2.05205C79.3348 2.05205 79.4614 2.17864 79.4614 2.33761Z" fill="#56E4EE"/>
<path d="M64.8245 0.285845C64.8245 0.359442 64.7951 0.43304 64.7392 0.488974L63.4233 1.7784C63.3114 1.89026 63.1289 1.88732 63.0199 1.77545C62.9081 1.66359 62.911 1.48106 63.0229 1.37214L64.3388 0.0827168C64.4507 -0.029151 64.6332 -0.0262076 64.7421 0.0856601C64.7981 0.141594 64.8245 0.212247 64.8245 0.285845ZM67.3386 0.285845C67.3386 0.359442 67.3092 0.43304 67.2533 0.488974L65.9373 1.7784C65.8255 1.89026 65.6429 1.88732 65.534 1.77545C65.4251 1.66358 65.4251 1.48106 65.537 1.37214L66.8529 0.0827166C66.9648 -0.0291511 67.1473 -0.0262077 67.2562 0.08566C67.3121 0.141594 67.3386 0.212247 67.3386 0.285845ZM69.8557 0.285844C69.8557 0.359442 69.8262 0.43304 69.7703 0.488973L68.4573 1.7784C68.3454 1.89026 68.1629 1.88732 68.054 1.77545C67.9421 1.66358 67.9451 1.48106 68.0569 1.37214L69.3699 0.0827165C69.4818 -0.0291512 69.6643 -0.0262078 69.7732 0.0856599C69.8262 0.141594 69.8557 0.212247 69.8557 0.285844ZM72.3727 0.285844C72.3727 0.359442 72.3432 0.433039 72.2873 0.488973L70.9714 1.7784C70.8595 1.89026 70.677 1.88732 70.5681 1.77545C70.4562 1.66358 70.4591 1.48106 70.571 1.37214L71.8869 0.0827164C71.9988 -0.0291513 72.1813 -0.026208 72.2902 0.0856598C72.3462 0.141594 72.3727 0.212247 72.3727 0.285844ZM74.8868 0.285844C74.8868 0.359441 74.8573 0.433039 74.8014 0.488973L73.4884 1.7784C73.3765 1.89026 73.194 1.88732 73.0851 1.77545C72.9732 1.66358 72.9762 1.48106 73.088 1.37214L74.401 0.0827163C74.5129 -0.0291515 74.6954 -0.0262081 74.8043 0.0856597C74.8603 0.141594 74.8868 0.212247 74.8868 0.285844ZM77.4008 0.285844C77.4008 0.359441 77.3714 0.433039 77.3155 0.488973L76.0025 1.7784C75.8906 1.89026 75.7081 1.88732 75.5992 1.77545C75.4873 1.66358 75.4903 1.48106 75.6021 1.37214L76.9151 0.0827162C77.027 -0.0291516 77.2095 -0.0262082 77.3184 0.0856596C77.3743 0.141593 77.4008 0.212247 77.4008 0.285844ZM79.703 0.497804C79.703 0.571402 79.6735 0.644998 79.6176 0.700932L78.5195 1.7784C78.4076 1.88732 78.2251 1.88732 78.1162 1.77251C78.0073 1.66064 78.0073 1.47812 78.1191 1.3692L79.2172 0.291732C79.3291 0.182808 79.5116 0.182808 79.6205 0.29762C79.6765 0.353554 79.703 0.424207 79.703 0.497804Z" fill="#3EBED0"/>
<path d="M64.8177 8.55134C64.8177 8.622 64.7912 8.69559 64.7353 8.75153C64.6263 8.86339 64.4438 8.86634 64.332 8.75447L63.019 7.46799C62.9071 7.35612 62.9042 7.17655 63.016 7.06468C63.125 6.95281 63.3075 6.94987 63.4193 7.06173L64.7323 8.34821C64.7883 8.40415 64.8177 8.47775 64.8177 8.55134ZM67.3318 8.55134C67.3318 8.622 67.3053 8.69559 67.2493 8.75153C67.1404 8.86339 66.9579 8.86634 66.846 8.75447L65.5331 7.46799C65.4212 7.35612 65.4182 7.17655 65.5301 7.06468C65.639 6.95281 65.8216 6.94987 65.9334 7.06173L67.2464 8.34821C67.3053 8.40415 67.3318 8.47775 67.3318 8.55134ZM69.8488 8.55134C69.8488 8.62494 69.8223 8.69559 69.7664 8.75153C69.6545 8.86339 69.4749 8.86634 69.3631 8.75447L68.053 7.46799C67.9412 7.35612 67.9382 7.17655 68.0501 7.06468C68.162 6.95281 68.3415 6.94987 68.4534 7.06173L69.7634 8.34821C69.8194 8.40415 69.8488 8.47775 69.8488 8.55134ZM72.3658 8.55134C72.3658 8.622 72.3393 8.69559 72.2834 8.75153C72.1745 8.86339 71.992 8.86634 71.8801 8.75447L70.5671 7.46799C70.4552 7.35612 70.4523 7.17655 70.5642 7.06468C70.6731 6.95281 70.8556 6.94987 70.9675 7.06173L72.2805 8.34821C72.3364 8.40415 72.3658 8.47775 72.3658 8.55134ZM74.8799 8.55134C74.8799 8.62494 74.8534 8.69559 74.7975 8.75153C74.6856 8.86339 74.506 8.86634 74.3942 8.75447L73.0841 7.46799C72.9723 7.35612 72.9693 7.17655 73.0812 7.06468C73.1931 6.95281 73.3726 6.94987 73.4845 7.06173L74.7945 8.34821C74.8505 8.40415 74.8799 8.47775 74.8799 8.55134ZM77.394 8.55134C77.394 8.62494 77.3675 8.69559 77.3116 8.75153C77.1997 8.86339 77.0201 8.86634 76.9082 8.75447L75.5982 7.46799C75.4863 7.35612 75.4834 7.17655 75.5953 7.06468C75.7071 6.95281 75.8867 6.94987 75.9986 7.06173L77.3086 8.34821C77.3675 8.40415 77.394 8.47774 77.394 8.55134ZM79.6991 8.34233C79.6991 8.41298 79.6726 8.48658 79.6166 8.54251C79.5077 8.65438 79.3252 8.65732 79.2133 8.54545L78.1152 7.46799C78.0034 7.35612 78.0004 7.17655 78.1123 7.06468C78.2212 6.95281 78.4037 6.94987 78.5156 7.06173L79.6137 8.1392C79.6696 8.19513 79.6991 8.26873 79.6991 8.34233Z" fill="#3EBED0"/>
<path d="M80.8409 2.31914L80.8409 6.51713C80.8409 7.50628 80.2138 8.3865 79.2806 8.71033C79.1805 8.74565 79.0687 8.77509 78.9597 8.7957C78.8214 8.82219 78.6712 8.83691 78.5211 8.83691L64.3227 8.83691C64.2756 8.83691 64.2285 8.83691 64.1814 8.83397C64.0254 8.82514 63.8694 8.79864 63.7104 8.75743C63.7045 8.75743 63.7016 8.75448 63.6957 8.75448C63.4867 8.69561 63.2865 8.60729 63.101 8.49248C62.4121 8.06267 62 7.3267 62 6.51713L62 2.32209C62 1.28584 62.6977 0.367348 63.6927 0.0876781C63.8488 0.0435198 64.0136 0.0140802 64.1755 0.00524849C64.2226 0.0023046 64.2697 0.00230509 64.3198 0.00230509L78.5182 0.00230446C78.6683 0.00230446 78.8184 0.0170243 78.9597 0.0464632C79.0657 0.0670704 79.1746 0.0935646 79.2806 0.131835C80.2138 0.449775 80.8409 1.33 80.8409 2.31914ZM63.8399 8.19809C63.8429 8.19809 63.8458 8.20103 63.8517 8.20103C63.9724 8.23342 64.096 8.25402 64.2167 8.26286C64.2521 8.2658 64.2874 8.2658 64.3257 8.2658L78.524 8.2658C78.6389 8.2658 78.7507 8.25402 78.8567 8.23342C78.9421 8.2187 79.0186 8.19809 79.0922 8.16865C79.7988 7.92431 80.2727 7.25899 80.2727 6.51419L80.2727 2.31914C80.2727 1.57434 79.7988 0.909022 79.0952 0.667623C79.0157 0.638184 78.9391 0.617577 78.8596 0.602858C78.7478 0.582251 78.6359 0.570475 78.524 0.570475L64.3227 0.570476C64.2874 0.570476 64.2491 0.570475 64.2138 0.573419C64.0902 0.582251 63.9695 0.602859 63.8488 0.635242C63.0951 0.847202 62.5711 1.53901 62.5711 2.31914L62.5711 6.51713C62.5711 7.12651 62.8802 7.68291 63.4013 8.00674C63.5367 8.08917 63.6839 8.15393 63.8399 8.19809Z" fill="#3EBED0"/>
<path d="M148.844 20.001L148.844 43.001" stroke="white" strokeLinecap="square"/>
<path d="M146.844 20.001L146.844 43.001" stroke="white" strokeLinecap="square"/>
<path d="M157.841 56.503C157.841 56.662 157.714 56.7886 157.555 56.7886L139.286 56.7886C139.127 56.7886 139 56.662 139 56.503C139 56.344 139.127 56.2175 139.286 56.2175L157.555 56.2175C157.711 56.2175 157.841 56.344 157.841 56.503Z" fill="#56E4EE"/>
<path d="M157.841 58.0797C157.841 58.2386 157.714 58.3652 157.555 58.3652L139.286 58.3652C139.127 58.3652 139 58.2357 139 58.0797C139 57.9207 139.127 57.7941 139.286 57.7941L157.555 57.7941C157.711 57.7941 157.841 57.9207 157.841 58.0797Z" fill="#3EBED0"/>
<path d="M157.841 59.9117C157.841 60.0707 157.714 60.1973 157.555 60.1973L139.286 60.1973C139.127 60.1973 139 60.0707 139 59.9117C139 59.7527 139.127 59.6262 139.286 59.6262L157.555 59.6262C157.711 59.6262 157.841 59.7557 157.841 59.9117Z" fill="#56E4EE"/>
<path d="M140.942 59.3435L140.942 60.3297C140.942 60.4886 140.816 60.6152 140.657 60.6152C140.498 60.6152 140.371 60.4886 140.371 60.3297L140.371 59.3435C140.371 59.1845 140.498 59.0579 140.657 59.0579C140.816 59.0579 140.942 59.1845 140.942 59.3435ZM140.942 56.0022L140.942 56.9854C140.942 57.1444 140.816 57.271 140.657 57.271C140.498 57.271 140.371 57.1444 140.371 56.9854L140.371 56.0022C140.371 55.8432 140.498 55.7166 140.657 55.7166C140.816 55.7166 140.942 55.8432 140.942 56.0022ZM142.885 59.3435L142.885 60.3297C142.885 60.4886 142.759 60.6152 142.6 60.6152C142.441 60.6152 142.314 60.4886 142.314 60.3297L142.314 59.3435C142.314 59.1845 142.441 59.0579 142.6 59.0579C142.756 59.0579 142.885 59.1845 142.885 59.3435ZM142.885 56.0022L142.885 56.9854C142.885 57.1444 142.759 57.271 142.6 57.271C142.441 57.271 142.314 57.1444 142.314 56.9854L142.314 56.0022C142.314 55.8432 142.441 55.7166 142.6 55.7166C142.756 55.7166 142.885 55.8432 142.885 56.0022ZM144.825 59.3435L144.825 60.3297C144.825 60.4886 144.699 60.6152 144.54 60.6152C144.381 60.6152 144.254 60.4886 144.254 60.3297L144.254 59.3435C144.254 59.1845 144.381 59.0579 144.54 59.0579C144.699 59.0579 144.825 59.1845 144.825 59.3435ZM144.825 56.0022L144.825 56.9854C144.825 57.1444 144.699 57.271 144.54 57.271C144.381 57.271 144.254 57.1444 144.254 56.9854L144.254 56.0022C144.254 55.8432 144.381 55.7166 144.54 55.7166C144.699 55.7166 144.825 55.8432 144.825 56.0022ZM146.765 59.3435L146.765 60.3297C146.765 60.4886 146.639 60.6152 146.48 60.6152C146.321 60.6152 146.194 60.4886 146.194 60.3297L146.194 59.3435C146.194 59.1845 146.321 59.0579 146.48 59.0579C146.639 59.0579 146.765 59.1845 146.765 59.3435ZM146.765 56.0022L146.765 56.9854C146.765 57.1444 146.639 57.271 146.48 57.271C146.321 57.271 146.194 57.1444 146.194 56.9854L146.194 56.0022C146.194 55.8432 146.321 55.7166 146.48 55.7166C146.639 55.7166 146.765 55.8432 146.765 56.0022ZM148.705 59.3435L148.705 60.3297C148.705 60.4886 148.579 60.6152 148.42 60.6152C148.261 60.6152 148.134 60.4886 148.134 60.3297L148.134 59.3435C148.134 59.1845 148.261 59.0579 148.42 59.0579C148.576 59.0579 148.705 59.1845 148.705 59.3435ZM148.705 56.0022L148.705 56.9854C148.705 57.1444 148.579 57.271 148.42 57.271C148.261 57.271 148.134 57.1444 148.134 56.9854L148.134 56.0022C148.134 55.8432 148.261 55.7166 148.42 55.7166C148.576 55.7166 148.705 55.8432 148.705 56.0022ZM150.645 59.3435L150.645 60.3297C150.645 60.4886 150.519 60.6152 150.36 60.6152C150.201 60.6152 150.074 60.4886 150.074 60.3297L150.074 59.3435C150.074 59.1845 150.201 59.0579 150.36 59.0579C150.519 59.0579 150.645 59.1845 150.645 59.3435ZM150.645 56.0022L150.645 56.9854C150.645 57.1444 150.519 57.271 150.36 57.271C150.201 57.271 150.074 57.1444 150.074 56.9854L150.074 56.0022C150.074 55.8432 150.201 55.7166 150.36 55.7166C150.519 55.7166 150.645 55.8432 150.645 56.0022ZM152.588 59.3435L152.588 60.3297C152.588 60.4886 152.462 60.6152 152.303 60.6152C152.144 60.6152 152.017 60.4886 152.017 60.3297L152.017 59.3435C152.017 59.1845 152.144 59.0579 152.303 59.0579C152.462 59.0579 152.588 59.1845 152.588 59.3435ZM152.588 56.0022L152.588 56.9854C152.588 57.1444 152.462 57.271 152.303 57.271C152.144 57.271 152.017 57.1444 152.017 56.9854L152.017 56.0022C152.017 55.8432 152.144 55.7166 152.303 55.7166C152.462 55.7166 152.588 55.8432 152.588 56.0022ZM154.525 59.3435L154.525 60.3297C154.525 60.4886 154.399 60.6152 154.24 60.6152C154.081 60.6152 153.954 60.4886 153.954 60.3297L153.954 59.3435C153.954 59.1845 154.081 59.0579 154.24 59.0579C154.399 59.0579 154.525 59.1845 154.525 59.3435ZM154.525 56.0022L154.525 56.9854C154.525 57.1444 154.399 57.271 154.24 57.271C154.081 57.271 153.954 57.1444 153.954 56.9854L153.954 56.0022C153.954 55.8432 154.081 55.7166 154.24 55.7166C154.399 55.7166 154.525 55.8432 154.525 56.0022ZM156.465 59.3435L156.465 60.3297C156.465 60.4886 156.339 60.6152 156.18 60.6152C156.021 60.6152 155.894 60.4886 155.894 60.3297L155.894 59.3435C155.894 59.1845 156.021 59.0579 156.18 59.0579C156.339 59.0579 156.465 59.1845 156.465 59.3435ZM156.465 56.0022L156.465 56.9854C156.465 57.1444 156.339 57.271 156.18 57.271C156.021 57.271 155.894 57.1444 155.894 56.9854L155.894 56.0022C155.894 55.8432 156.021 55.7166 156.18 55.7166C156.339 55.7166 156.465 55.8432 156.465 56.0022Z" fill="#56E4EE"/>
<path d="M141.825 53.9489C141.825 54.0225 141.795 54.0961 141.739 54.1521L140.423 55.4415C140.311 55.5533 140.129 55.5504 140.02 55.4385C139.908 55.3267 139.911 55.1442 140.023 55.0352L141.339 53.7458C141.451 53.6339 141.633 53.6369 141.742 53.7487C141.798 53.8047 141.825 53.8753 141.825 53.9489ZM144.339 53.9489C144.339 54.0225 144.309 54.0961 144.253 54.1521L142.937 55.4415C142.825 55.5533 142.643 55.5504 142.534 55.4385C142.425 55.3267 142.425 55.1442 142.537 55.0352L143.853 53.7458C143.965 53.6339 144.147 53.6369 144.256 53.7487C144.312 53.8047 144.339 53.8753 144.339 53.9489ZM146.856 53.9489C146.856 54.0225 146.826 54.0961 146.77 54.1521L145.457 55.4415C145.345 55.5533 145.163 55.5504 145.054 55.4385C144.942 55.3267 144.945 55.1441 145.057 55.0352L146.37 53.7458C146.482 53.6339 146.664 53.6369 146.773 53.7487C146.826 53.8047 146.856 53.8753 146.856 53.9489ZM149.373 53.9489C149.373 54.0225 149.343 54.0961 149.287 54.1521L147.971 55.4415C147.86 55.5533 147.677 55.5504 147.568 55.4385C147.456 55.3267 147.459 55.1441 147.571 55.0352L148.887 53.7458C148.999 53.6339 149.181 53.6369 149.29 53.7487C149.346 53.8047 149.373 53.8753 149.373 53.9489ZM151.887 53.9489C151.887 54.0225 151.857 54.0961 151.801 54.1521L150.488 55.4415C150.377 55.5533 150.194 55.5504 150.085 55.4385C149.973 55.3267 149.976 55.1441 150.088 55.0352L151.401 53.7458C151.513 53.6339 151.695 53.6369 151.804 53.7487C151.86 53.8047 151.887 53.8753 151.887 53.9489ZM154.401 53.9489C154.401 54.0225 154.371 54.0961 154.315 54.1521L153.002 55.4415C152.891 55.5533 152.708 55.5504 152.599 55.4385C152.487 55.3267 152.49 55.1441 152.602 55.0352L153.915 53.7458C154.027 53.6339 154.209 53.6369 154.318 53.7487C154.374 53.8047 154.401 53.8753 154.401 53.9489ZM156.703 54.1609C156.703 54.2345 156.674 54.3081 156.618 54.364L155.52 55.4415C155.408 55.5504 155.225 55.5504 155.116 55.4356C155.007 55.3237 155.007 55.1412 155.119 55.0323L156.217 53.9548C156.329 53.8459 156.512 53.8459 156.621 53.9607C156.676 54.0166 156.703 54.0873 156.703 54.1609Z" fill="#3EBED0"/>
<path d="M141.822 62.2154C141.822 62.2861 141.795 62.3597 141.739 62.4156C141.63 62.5275 141.448 62.5304 141.336 62.4185L140.023 61.1321C139.911 61.0202 139.908 60.8406 140.02 60.7287C140.129 60.6169 140.311 60.6139 140.423 60.7258L141.736 62.0123C141.792 62.0682 141.822 62.1418 141.822 62.2154ZM144.336 62.2154C144.336 62.2861 144.309 62.3597 144.253 62.4156C144.144 62.5275 143.962 62.5304 143.85 62.4185L142.537 61.1321C142.425 61.0202 142.422 60.8406 142.534 60.7287C142.643 60.6169 142.825 60.6139 142.937 60.7258L144.25 62.0123C144.309 62.0682 144.336 62.1418 144.336 62.2154ZM146.853 62.2154C146.853 62.289 146.826 62.3597 146.77 62.4156C146.658 62.5275 146.479 62.5304 146.367 62.4185L145.057 61.1321C144.945 61.0202 144.942 60.8406 145.054 60.7287C145.166 60.6169 145.345 60.6139 145.457 60.7258L146.767 62.0123C146.823 62.0682 146.853 62.1418 146.853 62.2154ZM149.37 62.2154C149.37 62.2861 149.343 62.3597 149.287 62.4156C149.178 62.5275 148.996 62.5304 148.884 62.4185L147.571 61.1321C147.459 61.0202 147.456 60.8406 147.568 60.7287C147.677 60.6169 147.86 60.6139 147.971 60.7258L149.284 62.0123C149.34 62.0682 149.37 62.1418 149.37 62.2154ZM151.884 62.2154C151.884 62.289 151.857 62.3597 151.801 62.4156C151.69 62.5275 151.51 62.5304 151.398 62.4185L150.088 61.1321C149.976 61.0202 149.973 60.8406 150.085 60.7287C150.197 60.6169 150.377 60.6139 150.488 60.7258L151.798 62.0123C151.854 62.0682 151.884 62.1418 151.884 62.2154ZM154.398 62.2154C154.398 62.289 154.371 62.3597 154.315 62.4156C154.204 62.5275 154.024 62.5304 153.912 62.4185L152.602 61.1321C152.49 61.0202 152.487 60.8406 152.599 60.7287C152.711 60.6169 152.891 60.6139 153.002 60.7258L154.313 62.0123C154.371 62.0682 154.398 62.1418 154.398 62.2154ZM156.703 62.0064C156.703 62.077 156.676 62.1506 156.621 62.2066C156.512 62.3184 156.329 62.3214 156.217 62.2095L155.119 61.1321C155.007 61.0202 155.004 60.8406 155.116 60.7287C155.225 60.6169 155.408 60.6139 155.52 60.7258L156.618 61.8033C156.674 61.8592 156.703 61.9328 156.703 62.0064Z" fill="#3EBED0"/>
<path d="M157.841 55.9832L157.841 60.1812C157.841 61.1703 157.214 62.0506 156.281 62.3744C156.181 62.4097 156.069 62.4392 155.96 62.4598C155.821 62.4863 155.671 62.501 155.521 62.501L141.323 62.501C141.276 62.501 141.229 62.501 141.181 62.498C141.025 62.4892 140.869 62.4627 140.71 62.4215C140.705 62.4215 140.702 62.4185 140.696 62.4185C140.487 62.3597 140.286 62.2714 140.101 62.1565C139.412 61.7267 139 60.9908 139 60.1812L139 55.9862C139 54.9499 139.698 54.0314 140.693 53.7517C140.849 53.7076 141.014 53.6781 141.176 53.6693C141.223 53.6664 141.27 53.6664 141.32 53.6664L155.518 53.6664C155.668 53.6664 155.818 53.6811 155.96 53.7105C156.066 53.7311 156.175 53.7576 156.281 53.7959C157.214 54.1138 157.841 54.9941 157.841 55.9832ZM140.84 61.8622C140.843 61.8622 140.846 61.8651 140.852 61.8651C140.972 61.8975 141.096 61.9181 141.217 61.9269C141.252 61.9299 141.287 61.9299 141.326 61.9299L155.524 61.9299C155.639 61.9299 155.751 61.9181 155.857 61.8975C155.942 61.8828 156.019 61.8622 156.092 61.8327C156.799 61.5884 157.273 60.9231 157.273 60.1782L157.273 55.9832C157.273 55.2384 156.799 54.5731 156.095 54.3317C156.016 54.3022 155.939 54.2816 155.86 54.2669C155.748 54.2463 155.636 54.2345 155.524 54.2345L141.323 54.2345C141.287 54.2345 141.249 54.2345 141.214 54.2375C141.09 54.2463 140.969 54.2669 140.849 54.2993C140.095 54.5113 139.571 55.2031 139.571 55.9832L139.571 60.1812C139.571 60.7906 139.88 61.347 140.401 61.6708C140.537 61.7532 140.684 61.818 140.84 61.8622Z" fill="#3EBED0"/>
<path d="M157.841 2.83847C157.841 2.99744 157.714 3.12402 157.555 3.12402L139.286 3.12402C139.127 3.12402 139 2.99744 139 2.83847C139 2.6795 139.127 2.55291 139.286 2.55291L157.555 2.55291C157.711 2.55291 157.841 2.6795 157.841 2.83847Z" fill="#56E4EE"/>
<path d="M157.841 4.41659C157.841 4.57556 157.714 4.70215 157.555 4.70215L139.286 4.70215C139.127 4.70215 139 4.57262 139 4.41659C139 4.25762 139.127 4.13103 139.286 4.13103L157.555 4.13103C157.711 4.13103 157.841 4.25762 157.841 4.41659Z" fill="#3EBED0"/>
<path d="M157.841 6.24862C157.841 6.40759 157.714 6.53418 157.555 6.53418L139.286 6.53418C139.127 6.53418 139 6.40759 139 6.24862C139 6.08965 139.127 5.96307 139.286 5.96307L157.555 5.96306C157.711 5.96306 157.841 6.0926 157.841 6.24862Z" fill="#56E4EE"/>
<path d="M140.942 5.68039L140.942 6.66659C140.942 6.82556 140.816 6.95215 140.657 6.95215C140.498 6.95215 140.371 6.82556 140.371 6.66659L140.371 5.68039C140.371 5.52142 140.498 5.39483 140.657 5.39483C140.816 5.39483 140.942 5.52142 140.942 5.68039ZM140.942 2.33907L140.942 3.32233C140.942 3.4813 140.816 3.60789 140.657 3.60789C140.498 3.60789 140.371 3.4813 140.371 3.32233L140.371 2.33907C140.371 2.1801 140.498 2.05352 140.657 2.05352C140.816 2.05352 140.942 2.1801 140.942 2.33907ZM142.885 5.68039L142.885 6.66659C142.885 6.82556 142.759 6.95215 142.6 6.95215C142.441 6.95215 142.314 6.82556 142.314 6.66659L142.314 5.68039C142.314 5.52142 142.441 5.39483 142.6 5.39483C142.756 5.39483 142.885 5.52142 142.885 5.68039ZM142.885 2.33907L142.885 3.32233C142.885 3.4813 142.759 3.60789 142.6 3.60789C142.441 3.60789 142.314 3.4813 142.314 3.32233L142.314 2.33907C142.314 2.1801 142.441 2.05352 142.6 2.05352C142.756 2.05352 142.885 2.1801 142.885 2.33907ZM144.825 5.68039L144.825 6.66659C144.825 6.82556 144.699 6.95215 144.54 6.95215C144.381 6.95215 144.254 6.82556 144.254 6.66659L144.254 5.68039C144.254 5.52142 144.381 5.39483 144.54 5.39483C144.699 5.39483 144.825 5.52142 144.825 5.68039ZM144.825 2.33907L144.825 3.32233C144.825 3.4813 144.699 3.60789 144.54 3.60789C144.381 3.60789 144.254 3.4813 144.254 3.32233L144.254 2.33907C144.254 2.1801 144.381 2.05352 144.54 2.05352C144.699 2.05352 144.825 2.1801 144.825 2.33907ZM146.765 5.68039L146.765 6.66659C146.765 6.82556 146.639 6.95215 146.48 6.95215C146.321 6.95215 146.194 6.82556 146.194 6.66659L146.194 5.68039C146.194 5.52142 146.321 5.39483 146.48 5.39483C146.639 5.39483 146.765 5.52142 146.765 5.68039ZM146.765 2.33907L146.765 3.32233C146.765 3.4813 146.639 3.60789 146.48 3.60789C146.321 3.60789 146.194 3.4813 146.194 3.32233L146.194 2.33907C146.194 2.1801 146.321 2.05352 146.48 2.05352C146.639 2.05352 146.765 2.1801 146.765 2.33907ZM148.705 5.68039L148.705 6.66659C148.705 6.82556 148.579 6.95215 148.42 6.95215C148.261 6.95215 148.134 6.82556 148.134 6.66659L148.134 5.68039C148.134 5.52142 148.261 5.39483 148.42 5.39483C148.576 5.39483 148.705 5.52142 148.705 5.68039ZM148.705 2.33907L148.705 3.32233C148.705 3.4813 148.579 3.60789 148.42 3.60789C148.261 3.60789 148.134 3.4813 148.134 3.32233L148.134 2.33907C148.134 2.1801 148.261 2.05352 148.42 2.05352C148.576 2.05352 148.705 2.1801 148.705 2.33907ZM150.645 5.68039L150.645 6.66659C150.645 6.82556 150.519 6.95215 150.36 6.95215C150.201 6.95215 150.074 6.82556 150.074 6.66659L150.074 5.68039C150.074 5.52142 150.201 5.39483 150.36 5.39483C150.519 5.39483 150.645 5.52142 150.645 5.68039ZM150.645 2.33907L150.645 3.32233C150.645 3.4813 150.519 3.60789 150.36 3.60789C150.201 3.60789 150.074 3.4813 150.074 3.32233L150.074 2.33907C150.074 2.1801 150.201 2.05352 150.36 2.05352C150.519 2.05352 150.645 2.1801 150.645 2.33907ZM152.588 5.68039L152.588 6.66659C152.588 6.82556 152.462 6.95215 152.303 6.95215C152.144 6.95215 152.017 6.82556 152.017 6.66659L152.017 5.68039C152.017 5.52142 152.144 5.39483 152.303 5.39483C152.462 5.39483 152.588 5.52142 152.588 5.68039ZM152.588 2.33907L152.588 3.32233C152.588 3.4813 152.462 3.60789 152.303 3.60789C152.144 3.60789 152.017 3.4813 152.017 3.32233L152.017 2.33907C152.017 2.1801 152.144 2.05352 152.303 2.05352C152.462 2.05352 152.588 2.1801 152.588 2.33907ZM154.525 5.68039L154.525 6.66659C154.525 6.82556 154.399 6.95215 154.24 6.95215C154.081 6.95215 153.954 6.82556 153.954 6.66659L153.954 5.68039C153.954 5.52142 154.081 5.39483 154.24 5.39483C154.399 5.39483 154.525 5.52142 154.525 5.68039ZM154.525 2.33907L154.525 3.32233C154.525 3.4813 154.399 3.60789 154.24 3.60789C154.081 3.60789 153.954 3.4813 153.954 3.32233L153.954 2.33907C153.954 2.1801 154.081 2.05352 154.24 2.05352C154.399 2.05352 154.525 2.1801 154.525 2.33907ZM156.465 5.68039L156.465 6.66659C156.465 6.82556 156.339 6.95215 156.18 6.95215C156.021 6.95215 155.894 6.82556 155.894 6.66659L155.894 5.68039C155.894 5.52142 156.021 5.39483 156.18 5.39483C156.339 5.39483 156.465 5.52142 156.465 5.68039ZM156.465 2.33907L156.465 3.32233C156.465 3.4813 156.339 3.60789 156.18 3.60789C156.021 3.60789 155.894 3.4813 155.894 3.32233L155.894 2.33907C155.894 2.1801 156.021 2.05352 156.18 2.05352C156.339 2.05352 156.465 2.1801 156.465 2.33907Z" fill="#56E4EE"/>
<path d="M141.825 0.285845C141.825 0.359442 141.795 0.43304 141.739 0.488974L140.423 1.7784C140.311 1.89026 140.129 1.88732 140.02 1.77545C139.908 1.66359 139.911 1.48106 140.023 1.37214L141.339 0.0827168C141.451 -0.029151 141.633 -0.0262076 141.742 0.0856601C141.798 0.141594 141.825 0.212247 141.825 0.285845ZM144.339 0.285845C144.339 0.359442 144.309 0.43304 144.253 0.488974L142.937 1.7784C142.825 1.89026 142.643 1.88732 142.534 1.77545C142.425 1.66358 142.425 1.48106 142.537 1.37214L143.853 0.0827166C143.965 -0.0291511 144.147 -0.0262077 144.256 0.08566C144.312 0.141594 144.339 0.212247 144.339 0.285845ZM146.856 0.285844C146.856 0.359442 146.826 0.43304 146.77 0.488973L145.457 1.7784C145.345 1.89026 145.163 1.88732 145.054 1.77545C144.942 1.66358 144.945 1.48106 145.057 1.37214L146.37 0.0827165C146.482 -0.0291512 146.664 -0.0262078 146.773 0.0856599C146.826 0.141594 146.856 0.212247 146.856 0.285844ZM149.373 0.285844C149.373 0.359442 149.343 0.433039 149.287 0.488973L147.971 1.7784C147.86 1.89026 147.677 1.88732 147.568 1.77545C147.456 1.66358 147.459 1.48106 147.571 1.37214L148.887 0.0827164C148.999 -0.0291513 149.181 -0.026208 149.29 0.0856598C149.346 0.141594 149.373 0.212247 149.373 0.285844ZM151.887 0.285844C151.887 0.359441 151.857 0.433039 151.801 0.488973L150.488 1.7784C150.377 1.89026 150.194 1.88732 150.085 1.77545C149.973 1.66358 149.976 1.48106 150.088 1.37214L151.401 0.0827163C151.513 -0.0291515 151.695 -0.0262081 151.804 0.0856597C151.86 0.141594 151.887 0.212247 151.887 0.285844ZM154.401 0.285844C154.401 0.359441 154.371 0.433039 154.315 0.488973L153.002 1.7784C152.891 1.89026 152.708 1.88732 152.599 1.77545C152.487 1.66358 152.49 1.48106 152.602 1.37214L153.915 0.0827162C154.027 -0.0291516 154.209 -0.0262082 154.318 0.0856596C154.374 0.141593 154.401 0.212247 154.401 0.285844ZM156.703 0.497804C156.703 0.571402 156.674 0.644998 156.618 0.700932L155.52 1.7784C155.408 1.88732 155.225 1.88732 155.116 1.77251C155.007 1.66064 155.007 1.47812 155.119 1.3692L156.217 0.291732C156.329 0.182808 156.512 0.182808 156.621 0.29762C156.676 0.353554 156.703 0.424207 156.703 0.497804Z" fill="#3EBED0"/>
<path d="M141.822 8.55134C141.822 8.622 141.795 8.69559 141.739 8.75153C141.63 8.86339 141.448 8.86634 141.336 8.75447L140.023 7.46799C139.911 7.35612 139.908 7.17655 140.02 7.06468C140.129 6.95281 140.311 6.94987 140.423 7.06173L141.736 8.34821C141.792 8.40415 141.822 8.47775 141.822 8.55134ZM144.336 8.55134C144.336 8.622 144.309 8.69559 144.253 8.75153C144.144 8.86339 143.962 8.86634 143.85 8.75447L142.537 7.46799C142.425 7.35612 142.422 7.17655 142.534 7.06468C142.643 6.95281 142.825 6.94987 142.937 7.06173L144.25 8.34821C144.309 8.40415 144.336 8.47775 144.336 8.55134ZM146.853 8.55134C146.853 8.62494 146.826 8.69559 146.77 8.75153C146.658 8.86339 146.479 8.86634 146.367 8.75447L145.057 7.46799C144.945 7.35612 144.942 7.17655 145.054 7.06468C145.166 6.95281 145.345 6.94987 145.457 7.06173L146.767 8.34821C146.823 8.40415 146.853 8.47775 146.853 8.55134ZM149.37 8.55134C149.37 8.622 149.343 8.69559 149.287 8.75153C149.178 8.86339 148.996 8.86634 148.884 8.75447L147.571 7.46799C147.459 7.35612 147.456 7.17655 147.568 7.06468C147.677 6.95281 147.86 6.94987 147.971 7.06173L149.284 8.34821C149.34 8.40415 149.37 8.47775 149.37 8.55134ZM151.884 8.55134C151.884 8.62494 151.857 8.69559 151.801 8.75153C151.69 8.86339 151.51 8.86634 151.398 8.75447L150.088 7.46799C149.976 7.35612 149.973 7.17655 150.085 7.06468C150.197 6.95281 150.377 6.94987 150.488 7.06173L151.798 8.34821C151.854 8.40415 151.884 8.47775 151.884 8.55134ZM154.398 8.55134C154.398 8.62494 154.371 8.69559 154.315 8.75153C154.204 8.86339 154.024 8.86634 153.912 8.75447L152.602 7.46799C152.49 7.35612 152.487 7.17655 152.599 7.06468C152.711 6.95281 152.891 6.94987 153.002 7.06173L154.313 8.34821C154.371 8.40415 154.398 8.47774 154.398 8.55134ZM156.703 8.34233C156.703 8.41298 156.676 8.48658 156.621 8.54251C156.512 8.65438 156.329 8.65732 156.217 8.54545L155.119 7.46799C155.007 7.35612 155.004 7.17655 155.116 7.06468C155.225 6.95281 155.408 6.94987 155.52 7.06173L156.618 8.1392C156.674 8.19513 156.703 8.26873 156.703 8.34233Z" fill="#3EBED0"/>
<path d="M157.841 2.31914L157.841 6.51713C157.841 7.50628 157.214 8.3865 156.281 8.71033C156.181 8.74565 156.069 8.77509 155.96 8.7957C155.821 8.82219 155.671 8.83691 155.521 8.83691L141.323 8.83691C141.276 8.83691 141.229 8.83691 141.181 8.83397C141.025 8.82514 140.869 8.79864 140.71 8.75743C140.705 8.75743 140.702 8.75448 140.696 8.75448C140.487 8.69561 140.286 8.60729 140.101 8.49248C139.412 8.06267 139 7.3267 139 6.51713L139 2.32209C139 1.28584 139.698 0.367348 140.693 0.0876781C140.849 0.0435198 141.014 0.0140802 141.176 0.00524849C141.223 0.0023046 141.27 0.00230509 141.32 0.00230509L155.518 0.00230446C155.668 0.00230446 155.818 0.0170243 155.96 0.0464632C156.066 0.0670704 156.175 0.0935646 156.281 0.131835C157.214 0.449775 157.841 1.33 157.841 2.31914ZM140.84 8.19809C140.843 8.19809 140.846 8.20103 140.852 8.20103C140.972 8.23342 141.096 8.25402 141.217 8.26286C141.252 8.2658 141.287 8.2658 141.326 8.2658L155.524 8.2658C155.639 8.2658 155.751 8.25402 155.857 8.23342C155.942 8.2187 156.019 8.19809 156.092 8.16865C156.799 7.92431 157.273 7.25899 157.273 6.51419L157.273 2.31914C157.273 1.57434 156.799 0.909022 156.095 0.667623C156.016 0.638184 155.939 0.617577 155.86 0.602858C155.748 0.582251 155.636 0.570475 155.524 0.570475L141.323 0.570476C141.287 0.570476 141.249 0.570475 141.214 0.573419C141.09 0.582251 140.969 0.602859 140.849 0.635242C140.095 0.847202 139.571 1.53901 139.571 2.31914L139.571 6.51713C139.571 7.12651 139.88 7.68291 140.401 8.00674C140.537 8.08917 140.684 8.15393 140.84 8.19809Z" fill="#3EBED0"/>
<path d="M157.841 13.8385C157.841 13.9974 157.714 14.124 157.555 14.124L139.286 14.124C139.127 14.124 139 13.9974 139 13.8385C139 13.6795 139.127 13.5529 139.286 13.5529L157.555 13.5529C157.711 13.5529 157.841 13.6795 157.841 13.8385Z" fill="#56E4EE"/>
<path d="M157.841 15.4166C157.841 15.5756 157.714 15.7021 157.555 15.7021L139.286 15.7021C139.127 15.7021 139 15.5726 139 15.4166C139 15.2576 139.127 15.131 139.286 15.131L157.555 15.131C157.711 15.131 157.841 15.2576 157.841 15.4166Z" fill="#3EBED0"/>
<path d="M157.841 17.2486C157.841 17.4076 157.714 17.5342 157.555 17.5342L139.286 17.5342C139.127 17.5342 139 17.4076 139 17.2486C139 17.0897 139.127 16.9631 139.286 16.9631L157.555 16.9631C157.711 16.9631 157.841 17.0926 157.841 17.2486Z" fill="#56E4EE"/>
<path d="M140.942 16.6804L140.942 17.6666C140.942 17.8256 140.816 17.9521 140.657 17.9521C140.498 17.9521 140.371 17.8256 140.371 17.6666L140.371 16.6804C140.371 16.5214 140.498 16.3948 140.657 16.3948C140.816 16.3948 140.942 16.5214 140.942 16.6804ZM140.942 13.3391L140.942 14.3223C140.942 14.4813 140.816 14.6079 140.657 14.6079C140.498 14.6079 140.371 14.4813 140.371 14.3223L140.371 13.3391C140.371 13.1801 140.498 13.0535 140.657 13.0535C140.816 13.0535 140.942 13.1801 140.942 13.3391ZM142.885 16.6804L142.885 17.6666C142.885 17.8256 142.759 17.9521 142.6 17.9521C142.441 17.9521 142.314 17.8256 142.314 17.6666L142.314 16.6804C142.314 16.5214 142.441 16.3948 142.6 16.3948C142.756 16.3948 142.885 16.5214 142.885 16.6804ZM142.885 13.3391L142.885 14.3223C142.885 14.4813 142.759 14.6079 142.6 14.6079C142.441 14.6079 142.314 14.4813 142.314 14.3223L142.314 13.3391C142.314 13.1801 142.441 13.0535 142.6 13.0535C142.756 13.0535 142.885 13.1801 142.885 13.3391ZM144.825 16.6804L144.825 17.6666C144.825 17.8256 144.699 17.9521 144.54 17.9521C144.381 17.9521 144.254 17.8256 144.254 17.6666L144.254 16.6804C144.254 16.5214 144.381 16.3948 144.54 16.3948C144.699 16.3948 144.825 16.5214 144.825 16.6804ZM144.825 13.3391L144.825 14.3223C144.825 14.4813 144.699 14.6079 144.54 14.6079C144.381 14.6079 144.254 14.4813 144.254 14.3223L144.254 13.3391C144.254 13.1801 144.381 13.0535 144.54 13.0535C144.699 13.0535 144.825 13.1801 144.825 13.3391ZM146.765 16.6804L146.765 17.6666C146.765 17.8256 146.639 17.9521 146.48 17.9521C146.321 17.9521 146.194 17.8256 146.194 17.6666L146.194 16.6804C146.194 16.5214 146.321 16.3948 146.48 16.3948C146.639 16.3948 146.765 16.5214 146.765 16.6804ZM146.765 13.3391L146.765 14.3223C146.765 14.4813 146.639 14.6079 146.48 14.6079C146.321 14.6079 146.194 14.4813 146.194 14.3223L146.194 13.3391C146.194 13.1801 146.321 13.0535 146.48 13.0535C146.639 13.0535 146.765 13.1801 146.765 13.3391ZM148.705 16.6804L148.705 17.6666C148.705 17.8256 148.579 17.9521 148.42 17.9521C148.261 17.9521 148.134 17.8256 148.134 17.6666L148.134 16.6804C148.134 16.5214 148.261 16.3948 148.42 16.3948C148.576 16.3948 148.705 16.5214 148.705 16.6804ZM148.705 13.3391L148.705 14.3223C148.705 14.4813 148.579 14.6079 148.42 14.6079C148.261 14.6079 148.134 14.4813 148.134 14.3223L148.134 13.3391C148.134 13.1801 148.261 13.0535 148.42 13.0535C148.576 13.0535 148.705 13.1801 148.705 13.3391ZM150.645 16.6804L150.645 17.6666C150.645 17.8256 150.519 17.9521 150.36 17.9521C150.201 17.9521 150.074 17.8256 150.074 17.6666L150.074 16.6804C150.074 16.5214 150.201 16.3948 150.36 16.3948C150.519 16.3948 150.645 16.5214 150.645 16.6804ZM150.645 13.3391L150.645 14.3223C150.645 14.4813 150.519 14.6079 150.36 14.6079C150.201 14.6079 150.074 14.4813 150.074 14.3223L150.074 13.3391C150.074 13.1801 150.201 13.0535 150.36 13.0535C150.519 13.0535 150.645 13.1801 150.645 13.3391ZM152.588 16.6804L152.588 17.6666C152.588 17.8256 152.462 17.9521 152.303 17.9521C152.144 17.9521 152.017 17.8256 152.017 17.6666L152.017 16.6804C152.017 16.5214 152.144 16.3948 152.303 16.3948C152.462 16.3948 152.588 16.5214 152.588 16.6804ZM152.588 13.3391L152.588 14.3223C152.588 14.4813 152.462 14.6079 152.303 14.6079C152.144 14.6079 152.017 14.4813 152.017 14.3223L152.017 13.3391C152.017 13.1801 152.144 13.0535 152.303 13.0535C152.462 13.0535 152.588 13.1801 152.588 13.3391ZM154.525 16.6804L154.525 17.6666C154.525 17.8256 154.399 17.9521 154.24 17.9521C154.081 17.9521 153.954 17.8256 153.954 17.6666L153.954 16.6804C153.954 16.5214 154.081 16.3948 154.24 16.3948C154.399 16.3948 154.525 16.5214 154.525 16.6804ZM154.525 13.3391L154.525 14.3223C154.525 14.4813 154.399 14.6079 154.24 14.6079C154.081 14.6079 153.954 14.4813 153.954 14.3223L153.954 13.3391C153.954 13.1801 154.081 13.0535 154.24 13.0535C154.399 13.0535 154.525 13.1801 154.525 13.3391ZM156.465 16.6804L156.465 17.6666C156.465 17.8256 156.339 17.9521 156.18 17.9521C156.021 17.9521 155.894 17.8256 155.894 17.6666L155.894 16.6804C155.894 16.5214 156.021 16.3948 156.18 16.3948C156.339 16.3948 156.465 16.5214 156.465 16.6804ZM156.465 13.3391L156.465 14.3223C156.465 14.4813 156.339 14.6079 156.18 14.6079C156.021 14.6079 155.894 14.4813 155.894 14.3223L155.894 13.3391C155.894 13.1801 156.021 13.0535 156.18 13.0535C156.339 13.0535 156.465 13.1801 156.465 13.3391Z" fill="#56E4EE"/>
<path d="M141.825 11.2858C141.825 11.3594 141.795 11.433 141.739 11.489L140.423 12.7784C140.311 12.8903 140.129 12.8873 140.02 12.7755C139.908 12.6636 139.911 12.4811 140.023 12.3721L141.339 11.0827C141.451 10.9708 141.633 10.9738 141.742 11.0857C141.798 11.1416 141.825 11.2122 141.825 11.2858ZM144.339 11.2858C144.339 11.3594 144.309 11.433 144.253 11.489L142.937 12.7784C142.825 12.8903 142.643 12.8873 142.534 12.7755C142.425 12.6636 142.425 12.4811 142.537 12.3721L143.853 11.0827C143.965 10.9708 144.147 10.9738 144.256 11.0857C144.312 11.1416 144.339 11.2122 144.339 11.2858ZM146.856 11.2858C146.856 11.3594 146.826 11.433 146.77 11.489L145.457 12.7784C145.345 12.8903 145.163 12.8873 145.054 12.7755C144.942 12.6636 144.945 12.4811 145.057 12.3721L146.37 11.0827C146.482 10.9708 146.664 10.9738 146.773 11.0857C146.826 11.1416 146.856 11.2122 146.856 11.2858ZM149.373 11.2858C149.373 11.3594 149.343 11.433 149.287 11.489L147.971 12.7784C147.86 12.8903 147.677 12.8873 147.568 12.7755C147.456 12.6636 147.459 12.4811 147.571 12.3721L148.887 11.0827C148.999 10.9708 149.181 10.9738 149.29 11.0857C149.346 11.1416 149.373 11.2122 149.373 11.2858ZM151.887 11.2858C151.887 11.3594 151.857 11.433 151.801 11.489L150.488 12.7784C150.377 12.8903 150.194 12.8873 150.085 12.7755C149.973 12.6636 149.976 12.4811 150.088 12.3721L151.401 11.0827C151.513 10.9708 151.695 10.9738 151.804 11.0857C151.86 11.1416 151.887 11.2122 151.887 11.2858ZM154.401 11.2858C154.401 11.3594 154.371 11.433 154.315 11.489L153.002 12.7784C152.891 12.8903 152.708 12.8873 152.599 12.7755C152.487 12.6636 152.49 12.4811 152.602 12.3721L153.915 11.0827C154.027 10.9708 154.209 10.9738 154.318 11.0857C154.374 11.1416 154.401 11.2122 154.401 11.2858ZM156.703 11.4978C156.703 11.5714 156.674 11.645 156.618 11.7009L155.52 12.7784C155.408 12.8873 155.225 12.8873 155.116 12.7725C155.007 12.6606 155.007 12.4781 155.119 12.3692L156.217 11.2917C156.329 11.1828 156.512 11.1828 156.621 11.2976C156.676 11.3536 156.703 11.4242 156.703 11.4978Z" fill="#3EBED0"/>
<path d="M141.822 19.5513C141.822 19.622 141.795 19.6956 141.739 19.7515C141.63 19.8634 141.448 19.8663 141.336 19.7545L140.023 18.468C139.911 18.3561 139.908 18.1765 140.02 18.0647C140.129 17.9528 140.311 17.9499 140.423 18.0617L141.736 19.3482C141.792 19.4041 141.822 19.4777 141.822 19.5513ZM144.336 19.5513C144.336 19.622 144.309 19.6956 144.253 19.7515C144.144 19.8634 143.962 19.8663 143.85 19.7545L142.537 18.468C142.425 18.3561 142.422 18.1765 142.534 18.0647C142.643 17.9528 142.825 17.9499 142.937 18.0617L144.25 19.3482C144.309 19.4041 144.336 19.4777 144.336 19.5513ZM146.853 19.5513C146.853 19.6249 146.826 19.6956 146.77 19.7515C146.658 19.8634 146.479 19.8663 146.367 19.7545L145.057 18.468C144.945 18.3561 144.942 18.1765 145.054 18.0647C145.166 17.9528 145.345 17.9499 145.457 18.0617L146.767 19.3482C146.823 19.4041 146.853 19.4777 146.853 19.5513ZM149.37 19.5513C149.37 19.622 149.343 19.6956 149.287 19.7515C149.178 19.8634 148.996 19.8663 148.884 19.7545L147.571 18.468C147.459 18.3561 147.456 18.1765 147.568 18.0647C147.677 17.9528 147.86 17.9499 147.971 18.0617L149.284 19.3482C149.34 19.4041 149.37 19.4777 149.37 19.5513ZM151.884 19.5513C151.884 19.6249 151.857 19.6956 151.801 19.7515C151.69 19.8634 151.51 19.8663 151.398 19.7545L150.088 18.468C149.976 18.3561 149.973 18.1765 150.085 18.0647C150.197 17.9528 150.377 17.9499 150.488 18.0617L151.798 19.3482C151.854 19.4041 151.884 19.4777 151.884 19.5513ZM154.398 19.5513C154.398 19.6249 154.371 19.6956 154.315 19.7515C154.204 19.8634 154.024 19.8663 153.912 19.7545L152.602 18.468C152.49 18.3561 152.487 18.1765 152.599 18.0647C152.711 17.9528 152.891 17.9499 153.002 18.0617L154.313 19.3482C154.371 19.4041 154.398 19.4777 154.398 19.5513ZM156.703 19.3423C156.703 19.413 156.676 19.4866 156.621 19.5425C156.512 19.6544 156.329 19.6573 156.217 19.5455L155.119 18.468C155.007 18.3561 155.004 18.1765 155.116 18.0647C155.225 17.9528 155.408 17.9499 155.52 18.0617L156.618 19.1392C156.674 19.1951 156.703 19.2687 156.703 19.3423Z" fill="#3EBED0"/>
<path d="M157.841 13.3191L157.841 17.5171C157.841 18.5063 157.214 19.3865 156.281 19.7103C156.181 19.7457 156.069 19.7751 155.96 19.7957C155.821 19.8222 155.671 19.8369 155.521 19.8369L141.323 19.8369C141.276 19.8369 141.229 19.8369 141.181 19.834C141.025 19.8251 140.869 19.7986 140.71 19.7574C140.705 19.7574 140.702 19.7545 140.696 19.7545C140.487 19.6956 140.286 19.6073 140.101 19.4925C139.412 19.0627 139 18.3267 139 17.5171L139 13.3221C139 12.2858 139.698 11.3673 140.693 11.0877C140.849 11.0435 141.014 11.0141 141.176 11.0052C141.223 11.0023 141.27 11.0023 141.32 11.0023L155.518 11.0023C155.668 11.0023 155.818 11.017 155.96 11.0465C156.066 11.0671 156.175 11.0936 156.281 11.1318C157.214 11.4498 157.841 12.33 157.841 13.3191ZM140.84 19.1981C140.843 19.1981 140.846 19.201 140.852 19.201C140.972 19.2334 141.096 19.254 141.217 19.2629C141.252 19.2658 141.287 19.2658 141.326 19.2658L155.524 19.2658C155.639 19.2658 155.751 19.254 155.857 19.2334C155.942 19.2187 156.019 19.1981 156.092 19.1687C156.799 18.9243 157.273 18.259 157.273 17.5142L157.273 13.3191C157.273 12.5743 156.799 11.909 156.095 11.6676C156.016 11.6382 155.939 11.6176 155.86 11.6029C155.748 11.5823 155.636 11.5705 155.524 11.5705L141.323 11.5705C141.287 11.5705 141.249 11.5705 141.214 11.5734C141.09 11.5823 140.969 11.6029 140.849 11.6352C140.095 11.8472 139.571 12.539 139.571 13.3191L139.571 17.5171C139.571 18.1265 139.88 18.6829 140.401 19.0067C140.537 19.0892 140.684 19.1539 140.84 19.1981Z" fill="#3EBED0"/>
<path d="M157.841 45.8385C157.841 45.9974 157.714 46.124 157.555 46.124L139.286 46.124C139.127 46.124 139 45.9974 139 45.8385C139 45.6795 139.127 45.5529 139.286 45.5529L157.555 45.5529C157.711 45.5529 157.841 45.6795 157.841 45.8385Z" fill="#56E4EE"/>
<path d="M157.841 47.4166C157.841 47.5756 157.714 47.7021 157.555 47.7021L139.286 47.7021C139.127 47.7021 139 47.5726 139 47.4166C139 47.2576 139.127 47.131 139.286 47.131L157.555 47.131C157.711 47.131 157.841 47.2576 157.841 47.4166Z" fill="#3EBED0"/>
<path d="M157.841 49.2486C157.841 49.4076 157.714 49.5342 157.555 49.5342L139.286 49.5342C139.127 49.5342 139 49.4076 139 49.2486C139 49.0897 139.127 48.9631 139.286 48.9631L157.555 48.9631C157.711 48.9631 157.841 49.0926 157.841 49.2486Z" fill="#56E4EE"/>
<path d="M140.942 48.6804L140.942 49.6666C140.942 49.8256 140.816 49.9521 140.657 49.9521C140.498 49.9521 140.371 49.8256 140.371 49.6666L140.371 48.6804C140.371 48.5214 140.498 48.3948 140.657 48.3948C140.816 48.3948 140.942 48.5214 140.942 48.6804ZM140.942 45.3391L140.942 46.3223C140.942 46.4813 140.816 46.6079 140.657 46.6079C140.498 46.6079 140.371 46.4813 140.371 46.3223L140.371 45.3391C140.371 45.1801 140.498 45.0535 140.657 45.0535C140.816 45.0535 140.942 45.1801 140.942 45.3391ZM142.885 48.6804L142.885 49.6666C142.885 49.8256 142.759 49.9521 142.6 49.9521C142.441 49.9521 142.314 49.8256 142.314 49.6666L142.314 48.6804C142.314 48.5214 142.441 48.3948 142.6 48.3948C142.756 48.3948 142.885 48.5214 142.885 48.6804ZM142.885 45.3391L142.885 46.3223C142.885 46.4813 142.759 46.6079 142.6 46.6079C142.441 46.6079 142.314 46.4813 142.314 46.3223L142.314 45.3391C142.314 45.1801 142.441 45.0535 142.6 45.0535C142.756 45.0535 142.885 45.1801 142.885 45.3391ZM144.825 48.6804L144.825 49.6666C144.825 49.8256 144.699 49.9521 144.54 49.9521C144.381 49.9521 144.254 49.8256 144.254 49.6666L144.254 48.6804C144.254 48.5214 144.381 48.3948 144.54 48.3948C144.699 48.3948 144.825 48.5214 144.825 48.6804ZM144.825 45.3391L144.825 46.3223C144.825 46.4813 144.699 46.6079 144.54 46.6079C144.381 46.6079 144.254 46.4813 144.254 46.3223L144.254 45.3391C144.254 45.1801 144.381 45.0535 144.54 45.0535C144.699 45.0535 144.825 45.1801 144.825 45.3391ZM146.765 48.6804L146.765 49.6666C146.765 49.8256 146.639 49.9521 146.48 49.9521C146.321 49.9521 146.194 49.8256 146.194 49.6666L146.194 48.6804C146.194 48.5214 146.321 48.3948 146.48 48.3948C146.639 48.3948 146.765 48.5214 146.765 48.6804ZM146.765 45.3391L146.765 46.3223C146.765 46.4813 146.639 46.6079 146.48 46.6079C146.321 46.6079 146.194 46.4813 146.194 46.3223L146.194 45.3391C146.194 45.1801 146.321 45.0535 146.48 45.0535C146.639 45.0535 146.765 45.1801 146.765 45.3391ZM148.705 48.6804L148.705 49.6666C148.705 49.8256 148.579 49.9521 148.42 49.9521C148.261 49.9521 148.134 49.8256 148.134 49.6666L148.134 48.6804C148.134 48.5214 148.261 48.3948 148.42 48.3948C148.576 48.3948 148.705 48.5214 148.705 48.6804ZM148.705 45.3391L148.705 46.3223C148.705 46.4813 148.579 46.6079 148.42 46.6079C148.261 46.6079 148.134 46.4813 148.134 46.3223L148.134 45.3391C148.134 45.1801 148.261 45.0535 148.42 45.0535C148.576 45.0535 148.705 45.1801 148.705 45.3391ZM150.645 48.6804L150.645 49.6666C150.645 49.8256 150.519 49.9521 150.36 49.9521C150.201 49.9521 150.074 49.8256 150.074 49.6666L150.074 48.6804C150.074 48.5214 150.201 48.3948 150.36 48.3948C150.519 48.3948 150.645 48.5214 150.645 48.6804ZM150.645 45.3391L150.645 46.3223C150.645 46.4813 150.519 46.6079 150.36 46.6079C150.201 46.6079 150.074 46.4813 150.074 46.3223L150.074 45.3391C150.074 45.1801 150.201 45.0535 150.36 45.0535C150.519 45.0535 150.645 45.1801 150.645 45.3391ZM152.588 48.6804L152.588 49.6666C152.588 49.8256 152.462 49.9521 152.303 49.9521C152.144 49.9521 152.017 49.8256 152.017 49.6666L152.017 48.6804C152.017 48.5214 152.144 48.3948 152.303 48.3948C152.462 48.3948 152.588 48.5214 152.588 48.6804ZM152.588 45.3391L152.588 46.3223C152.588 46.4813 152.462 46.6079 152.303 46.6079C152.144 46.6079 152.017 46.4813 152.017 46.3223L152.017 45.3391C152.017 45.1801 152.144 45.0535 152.303 45.0535C152.462 45.0535 152.588 45.1801 152.588 45.3391ZM154.525 48.6804L154.525 49.6666C154.525 49.8256 154.399 49.9521 154.24 49.9521C154.081 49.9521 153.954 49.8256 153.954 49.6666L153.954 48.6804C153.954 48.5214 154.081 48.3948 154.24 48.3948C154.399 48.3948 154.525 48.5214 154.525 48.6804ZM154.525 45.3391L154.525 46.3223C154.525 46.4813 154.399 46.6079 154.24 46.6079C154.081 46.6079 153.954 46.4813 153.954 46.3223L153.954 45.3391C153.954 45.1801 154.081 45.0535 154.24 45.0535C154.399 45.0535 154.525 45.1801 154.525 45.3391ZM156.465 48.6804L156.465 49.6666C156.465 49.8256 156.339 49.9521 156.18 49.9521C156.021 49.9521 155.894 49.8256 155.894 49.6666L155.894 48.6804C155.894 48.5214 156.021 48.3948 156.18 48.3948C156.339 48.3948 156.465 48.5214 156.465 48.6804ZM156.465 45.3391L156.465 46.3223C156.465 46.4813 156.339 46.6079 156.18 46.6079C156.021 46.6079 155.894 46.4813 155.894 46.3223L155.894 45.3391C155.894 45.1801 156.021 45.0535 156.18 45.0535C156.339 45.0535 156.465 45.1801 156.465 45.3391Z" fill="#56E4EE"/>
<path d="M141.825 43.2858C141.825 43.3594 141.795 43.433 141.739 43.489L140.423 44.7784C140.311 44.8903 140.129 44.8873 140.02 44.7755C139.908 44.6636 139.911 44.4811 140.023 44.3721L141.339 43.0827C141.451 42.9708 141.633 42.9738 141.742 43.0857C141.798 43.1416 141.825 43.2122 141.825 43.2858ZM144.339 43.2858C144.339 43.3594 144.309 43.433 144.253 43.489L142.937 44.7784C142.825 44.8903 142.643 44.8873 142.534 44.7755C142.425 44.6636 142.425 44.4811 142.537 44.3721L143.853 43.0827C143.965 42.9708 144.147 42.9738 144.256 43.0857C144.312 43.1416 144.339 43.2122 144.339 43.2858ZM146.856 43.2858C146.856 43.3594 146.826 43.433 146.77 43.489L145.457 44.7784C145.345 44.8903 145.163 44.8873 145.054 44.7755C144.942 44.6636 144.945 44.4811 145.057 44.3721L146.37 43.0827C146.482 42.9708 146.664 42.9738 146.773 43.0857C146.826 43.1416 146.856 43.2122 146.856 43.2858ZM149.373 43.2858C149.373 43.3594 149.343 43.433 149.287 43.489L147.971 44.7784C147.86 44.8903 147.677 44.8873 147.568 44.7755C147.456 44.6636 147.459 44.4811 147.571 44.3721L148.887 43.0827C148.999 42.9708 149.181 42.9738 149.29 43.0857C149.346 43.1416 149.373 43.2122 149.373 43.2858ZM151.887 43.2858C151.887 43.3594 151.857 43.433 151.801 43.489L150.488 44.7784C150.377 44.8903 150.194 44.8873 150.085 44.7755C149.973 44.6636 149.976 44.4811 150.088 44.3721L151.401 43.0827C151.513 42.9708 151.695 42.9738 151.804 43.0857C151.86 43.1416 151.887 43.2122 151.887 43.2858ZM154.401 43.2858C154.401 43.3594 154.371 43.433 154.315 43.489L153.002 44.7784C152.891 44.8903 152.708 44.8873 152.599 44.7755C152.487 44.6636 152.49 44.4811 152.602 44.3721L153.915 43.0827C154.027 42.9708 154.209 42.9738 154.318 43.0857C154.374 43.1416 154.401 43.2122 154.401 43.2858ZM156.703 43.4978C156.703 43.5714 156.674 43.645 156.618 43.7009L155.52 44.7784C155.408 44.8873 155.225 44.8873 155.116 44.7725C155.007 44.6606 155.007 44.4781 155.119 44.3692L156.217 43.2917C156.329 43.1828 156.512 43.1828 156.621 43.2976C156.676 43.3536 156.703 43.4242 156.703 43.4978Z" fill="#3EBED0"/>
<path d="M141.822 51.5513C141.822 51.622 141.795 51.6956 141.739 51.7515C141.63 51.8634 141.448 51.8663 141.336 51.7545L140.023 50.468C139.911 50.3561 139.908 50.1765 140.02 50.0647C140.129 49.9528 140.311 49.9499 140.423 50.0617L141.736 51.3482C141.792 51.4041 141.822 51.4777 141.822 51.5513ZM144.336 51.5513C144.336 51.622 144.309 51.6956 144.253 51.7515C144.144 51.8634 143.962 51.8663 143.85 51.7545L142.537 50.468C142.425 50.3561 142.422 50.1765 142.534 50.0647C142.643 49.9528 142.825 49.9499 142.937 50.0617L144.25 51.3482C144.309 51.4041 144.336 51.4777 144.336 51.5513ZM146.853 51.5513C146.853 51.6249 146.826 51.6956 146.77 51.7515C146.658 51.8634 146.479 51.8663 146.367 51.7545L145.057 50.468C144.945 50.3561 144.942 50.1765 145.054 50.0647C145.166 49.9528 145.345 49.9499 145.457 50.0617L146.767 51.3482C146.823 51.4041 146.853 51.4777 146.853 51.5513ZM149.37 51.5513C149.37 51.622 149.343 51.6956 149.287 51.7515C149.178 51.8634 148.996 51.8663 148.884 51.7545L147.571 50.468C147.459 50.3561 147.456 50.1765 147.568 50.0647C147.677 49.9528 147.86 49.9499 147.971 50.0617L149.284 51.3482C149.34 51.4041 149.37 51.4777 149.37 51.5513ZM151.884 51.5513C151.884 51.6249 151.857 51.6956 151.801 51.7515C151.69 51.8634 151.51 51.8663 151.398 51.7545L150.088 50.468C149.976 50.3561 149.973 50.1765 150.085 50.0647C150.197 49.9528 150.377 49.9499 150.488 50.0617L151.798 51.3482C151.854 51.4041 151.884 51.4777 151.884 51.5513ZM154.398 51.5513C154.398 51.6249 154.371 51.6956 154.315 51.7515C154.204 51.8634 154.024 51.8663 153.912 51.7545L152.602 50.468C152.49 50.3561 152.487 50.1765 152.599 50.0647C152.711 49.9528 152.891 49.9499 153.002 50.0617L154.313 51.3482C154.371 51.4041 154.398 51.4777 154.398 51.5513ZM156.703 51.3423C156.703 51.413 156.676 51.4866 156.621 51.5425C156.512 51.6544 156.329 51.6573 156.217 51.5455L155.119 50.468C155.007 50.3561 155.004 50.1765 155.116 50.0647C155.225 49.9528 155.408 49.9499 155.52 50.0617L156.618 51.1392C156.674 51.1951 156.703 51.2687 156.703 51.3423Z" fill="#3EBED0"/>
<path d="M157.841 45.3191L157.841 49.5171C157.841 50.5063 157.214 51.3865 156.281 51.7103C156.181 51.7457 156.069 51.7751 155.96 51.7957C155.821 51.8222 155.671 51.8369 155.521 51.8369L141.323 51.8369C141.276 51.8369 141.229 51.8369 141.181 51.834C141.025 51.8251 140.869 51.7986 140.71 51.7574C140.705 51.7574 140.702 51.7545 140.696 51.7545C140.487 51.6956 140.286 51.6073 140.101 51.4925C139.412 51.0627 139 50.3267 139 49.5171L139 45.3221C139 44.2858 139.698 43.3673 140.693 43.0877C140.849 43.0435 141.014 43.0141 141.176 43.0052C141.223 43.0023 141.27 43.0023 141.32 43.0023L155.518 43.0023C155.668 43.0023 155.818 43.017 155.96 43.0465C156.066 43.0671 156.175 43.0936 156.281 43.1318C157.214 43.4498 157.841 44.33 157.841 45.3191ZM140.84 51.1981C140.843 51.1981 140.846 51.201 140.852 51.201C140.972 51.2334 141.096 51.254 141.217 51.2629C141.252 51.2658 141.287 51.2658 141.326 51.2658L155.524 51.2658C155.639 51.2658 155.751 51.254 155.857 51.2334C155.942 51.2187 156.019 51.1981 156.092 51.1687C156.799 50.9243 157.273 50.259 157.273 49.5142L157.273 45.3191C157.273 44.5743 156.799 43.909 156.095 43.6676C156.016 43.6382 155.939 43.6176 155.86 43.6029C155.748 43.5823 155.636 43.5705 155.524 43.5705L141.323 43.5705C141.287 43.5705 141.249 43.5705 141.214 43.5734C141.09 43.5823 140.969 43.6029 140.849 43.6352C140.095 43.8472 139.571 44.539 139.571 45.3191L139.571 49.5171C139.571 50.1265 139.88 50.6829 140.401 51.0067C140.537 51.0892 140.684 51.1539 140.84 51.1981Z" fill="#3EBED0"/>
</svg>
