<svg width="128" height="63" viewBox="0 0 128 63" fill="none" xmlns="http://www.w3.org/2000/svg">
<line x1="10" y1="31.5" x2="40" y2="31.5" stroke="white"/>
<line x1="42" y1="31.5" x2="117" y2="31.5" stroke="white"/>
<path d="M41.8359 8.83887L41.8359 53.8932" stroke="white" strokeLinecap="square"/>
<path d="M40.1953 8.83887L40.1953 53.8932" stroke="white" strokeLinecap="square"/>
<path d="M50.8409 56.503C50.8409 56.662 50.7143 56.7886 50.5553 56.7886L32.2856 56.7886C32.1266 56.7886 32 56.662 32 56.503C32 56.344 32.1266 56.2175 32.2856 56.2175L50.5553 56.2175C50.7114 56.2175 50.8409 56.344 50.8409 56.503Z" fill="#56E4EE"/>
<path d="M50.8409 58.0797C50.8409 58.2386 50.7143 58.3652 50.5553 58.3652L32.2856 58.3652C32.1266 58.3652 32 58.2357 32 58.0797C32 57.9207 32.1266 57.7941 32.2856 57.7941L50.5553 57.7941C50.7114 57.7941 50.8409 57.9207 50.8409 58.0797Z" fill="#3EBED0"/>
<path d="M50.8409 59.9117C50.8409 60.0707 50.7143 60.1973 50.5553 60.1973L32.2856 60.1973C32.1266 60.1973 32 60.0707 32 59.9117C32 59.7527 32.1266 59.6262 32.2856 59.6262L50.5553 59.6262C50.7114 59.6262 50.8409 59.7557 50.8409 59.9117Z" fill="#56E4EE"/>
<path d="M33.9422 59.3435L33.9422 60.3297C33.9422 60.4886 33.8156 60.6152 33.6567 60.6152C33.4977 60.6152 33.3711 60.4886 33.3711 60.3297L33.3711 59.3435C33.3711 59.1845 33.4977 59.0579 33.6567 59.0579C33.8156 59.0579 33.9422 59.1845 33.9422 59.3435ZM33.9422 56.0022L33.9422 56.9854C33.9422 57.1444 33.8156 57.271 33.6567 57.271C33.4977 57.271 33.3711 57.1444 33.3711 56.9854L33.3711 56.0022C33.3711 55.8432 33.4977 55.7166 33.6567 55.7166C33.8156 55.7166 33.9422 55.8432 33.9422 56.0022ZM35.8852 59.3435L35.8852 60.3297C35.8852 60.4886 35.7586 60.6152 35.5996 60.6152C35.4406 60.6152 35.3141 60.4886 35.3141 60.3297L35.3141 59.3435C35.3141 59.1845 35.4406 59.0579 35.5996 59.0579C35.7556 59.0579 35.8852 59.1845 35.8852 59.3435ZM35.8852 56.0022L35.8852 56.9854C35.8852 57.1444 35.7586 57.271 35.5996 57.271C35.4406 57.271 35.3141 57.1444 35.3141 56.9854L35.3141 56.0022C35.3141 55.8432 35.4406 55.7166 35.5996 55.7166C35.7556 55.7166 35.8852 55.8432 35.8852 56.0022ZM37.8252 59.3435L37.8252 60.3297C37.8252 60.4886 37.6986 60.6152 37.5396 60.6152C37.3807 60.6152 37.2541 60.4886 37.2541 60.3297L37.2541 59.3435C37.2541 59.1845 37.3807 59.0579 37.5396 59.0579C37.6986 59.0579 37.8252 59.1845 37.8252 59.3435ZM37.8252 56.0022L37.8252 56.9854C37.8252 57.1444 37.6986 57.271 37.5396 57.271C37.3807 57.271 37.2541 57.1444 37.2541 56.9854L37.2541 56.0022C37.2541 55.8432 37.3807 55.7166 37.5396 55.7166C37.6986 55.7166 37.8252 55.8432 37.8252 56.0022ZM39.7652 59.3435L39.7652 60.3297C39.7652 60.4886 39.6386 60.6152 39.4797 60.6152C39.3207 60.6152 39.1941 60.4886 39.1941 60.3297L39.1941 59.3435C39.1941 59.1845 39.3207 59.0579 39.4797 59.0579C39.6386 59.0579 39.7652 59.1845 39.7652 59.3435ZM39.7652 56.0022L39.7652 56.9854C39.7652 57.1444 39.6386 57.271 39.4797 57.271C39.3207 57.271 39.1941 57.1444 39.1941 56.9854L39.1941 56.0022C39.1941 55.8432 39.3207 55.7166 39.4797 55.7166C39.6386 55.7166 39.7652 55.8432 39.7652 56.0022ZM41.7052 59.3435L41.7052 60.3297C41.7052 60.4886 41.5787 60.6152 41.4197 60.6152C41.2607 60.6152 41.1341 60.4886 41.1341 60.3297L41.1341 59.3435C41.1341 59.1845 41.2607 59.0579 41.4197 59.0579C41.5757 59.0579 41.7052 59.1845 41.7052 59.3435ZM41.7052 56.0022L41.7052 56.9854C41.7052 57.1444 41.5787 57.271 41.4197 57.271C41.2607 57.271 41.1341 57.1444 41.1341 56.9854L41.1341 56.0022C41.1341 55.8432 41.2607 55.7166 41.4197 55.7166C41.5757 55.7166 41.7052 55.8432 41.7052 56.0022ZM43.6453 59.3435L43.6453 60.3297C43.6453 60.4886 43.5187 60.6152 43.3597 60.6152C43.2007 60.6152 43.0742 60.4886 43.0742 60.3297L43.0742 59.3435C43.0742 59.1845 43.2007 59.0579 43.3597 59.0579C43.5187 59.0579 43.6453 59.1845 43.6453 59.3435ZM43.6453 56.0022L43.6453 56.9854C43.6453 57.1444 43.5187 57.271 43.3597 57.271C43.2007 57.271 43.0742 57.1444 43.0742 56.9854L43.0742 56.0022C43.0742 55.8432 43.2007 55.7166 43.3597 55.7166C43.5187 55.7166 43.6453 55.8432 43.6453 56.0022ZM45.5882 59.3435L45.5882 60.3297C45.5882 60.4886 45.4616 60.6152 45.3027 60.6152C45.1437 60.6152 45.0171 60.4886 45.0171 60.3297L45.0171 59.3435C45.0171 59.1845 45.1437 59.0579 45.3027 59.0579C45.4616 59.0579 45.5882 59.1845 45.5882 59.3435ZM45.5882 56.0022L45.5882 56.9854C45.5882 57.1444 45.4616 57.271 45.3027 57.271C45.1437 57.271 45.0171 57.1444 45.0171 56.9854L45.0171 56.0022C45.0171 55.8432 45.1437 55.7166 45.3027 55.7166C45.4616 55.7166 45.5882 55.8432 45.5882 56.0022ZM47.5253 59.3435L47.5253 60.3297C47.5253 60.4886 47.3987 60.6152 47.2398 60.6152C47.0808 60.6152 46.9542 60.4886 46.9542 60.3297L46.9542 59.3435C46.9542 59.1845 47.0808 59.0579 47.2398 59.0579C47.3987 59.0579 47.5253 59.1845 47.5253 59.3435ZM47.5253 56.0022L47.5253 56.9854C47.5253 57.1444 47.3987 57.271 47.2398 57.271C47.0808 57.271 46.9542 57.1444 46.9542 56.9854L46.9542 56.0022C46.9542 55.8432 47.0808 55.7166 47.2398 55.7166C47.3987 55.7166 47.5253 55.8432 47.5253 56.0022ZM49.4653 59.3435L49.4653 60.3297C49.4653 60.4886 49.3387 60.6152 49.1798 60.6152C49.0208 60.6152 48.8942 60.4886 48.8942 60.3297L48.8942 59.3435C48.8942 59.1845 49.0208 59.0579 49.1798 59.0579C49.3387 59.0579 49.4653 59.1845 49.4653 59.3435ZM49.4653 56.0022L49.4653 56.9854C49.4653 57.1444 49.3387 57.271 49.1798 57.271C49.0208 57.271 48.8942 57.1444 48.8942 56.9854L48.8942 56.0022C48.8942 55.8432 49.0208 55.7166 49.1798 55.7166C49.3387 55.7166 49.4653 55.8432 49.4653 56.0022Z" fill="#56E4EE"/>
<path d="M34.8245 53.9489C34.8245 54.0225 34.7951 54.0961 34.7392 54.1521L33.4233 55.4415C33.3114 55.5533 33.1289 55.5504 33.0199 55.4385C32.9081 55.3267 32.911 55.1442 33.0229 55.0352L34.3388 53.7458C34.4507 53.6339 34.6332 53.6369 34.7421 53.7487C34.7981 53.8047 34.8245 53.8753 34.8245 53.9489ZM37.3386 53.9489C37.3386 54.0225 37.3092 54.0961 37.2533 54.1521L35.9373 55.4415C35.8255 55.5533 35.6429 55.5504 35.534 55.4385C35.4251 55.3267 35.4251 55.1442 35.537 55.0352L36.8529 53.7458C36.9648 53.6339 37.1473 53.6369 37.2562 53.7487C37.3121 53.8047 37.3386 53.8753 37.3386 53.9489ZM39.8557 53.9489C39.8557 54.0225 39.8262 54.0961 39.7703 54.1521L38.4573 55.4415C38.3454 55.5533 38.1629 55.5504 38.054 55.4385C37.9421 55.3267 37.9451 55.1441 38.0569 55.0352L39.3699 53.7458C39.4818 53.6339 39.6643 53.6369 39.7732 53.7487C39.8262 53.8047 39.8557 53.8753 39.8557 53.9489ZM42.3727 53.9489C42.3727 54.0225 42.3432 54.0961 42.2873 54.1521L40.9714 55.4415C40.8595 55.5533 40.677 55.5504 40.5681 55.4385C40.4562 55.3267 40.4591 55.1441 40.571 55.0352L41.8869 53.7458C41.9988 53.6339 42.1813 53.6369 42.2902 53.7487C42.3462 53.8047 42.3727 53.8753 42.3727 53.9489ZM44.8868 53.9489C44.8868 54.0225 44.8573 54.0961 44.8014 54.1521L43.4884 55.4415C43.3765 55.5533 43.194 55.5504 43.0851 55.4385C42.9732 55.3267 42.9762 55.1441 43.088 55.0352L44.401 53.7458C44.5129 53.6339 44.6954 53.6369 44.8043 53.7487C44.8603 53.8047 44.8868 53.8753 44.8868 53.9489ZM47.4008 53.9489C47.4008 54.0225 47.3714 54.0961 47.3155 54.1521L46.0025 55.4415C45.8906 55.5533 45.7081 55.5504 45.5992 55.4385C45.4873 55.3267 45.4903 55.1441 45.6021 55.0352L46.9151 53.7458C47.027 53.6339 47.2095 53.6369 47.3184 53.7487C47.3743 53.8047 47.4008 53.8753 47.4008 53.9489ZM49.703 54.1609C49.703 54.2345 49.6735 54.3081 49.6176 54.364L48.5195 55.4415C48.4076 55.5504 48.2251 55.5504 48.1162 55.4356C48.0073 55.3237 48.0073 55.1412 48.1191 55.0323L49.2172 53.9548C49.3291 53.8459 49.5116 53.8459 49.6205 53.9607C49.6765 54.0166 49.703 54.0873 49.703 54.1609Z" fill="#3EBED0"/>
<path d="M34.8216 62.2154C34.8216 62.2861 34.7951 62.3597 34.7392 62.4156C34.6303 62.5275 34.4477 62.5304 34.3359 62.4185L33.0229 61.1321C32.911 61.0202 32.9081 60.8406 33.0199 60.7287C33.1289 60.6169 33.3114 60.6139 33.4233 60.7258L34.7362 62.0123C34.7922 62.0682 34.8216 62.1418 34.8216 62.2154ZM37.3357 62.2154C37.3357 62.2861 37.3092 62.3597 37.2533 62.4156C37.1443 62.5275 36.9618 62.5304 36.8499 62.4185L35.537 61.1321C35.4251 61.0202 35.4222 60.8406 35.534 60.7287C35.6429 60.6169 35.8255 60.6139 35.9373 60.7258L37.2503 62.0123C37.3092 62.0682 37.3357 62.1418 37.3357 62.2154ZM39.8527 62.2154C39.8527 62.289 39.8262 62.3597 39.7703 62.4156C39.6584 62.5275 39.4788 62.5304 39.367 62.4185L38.0569 61.1321C37.9451 61.0202 37.9421 60.8406 38.054 60.7287C38.1659 60.6169 38.3454 60.6139 38.4573 60.7258L39.7673 62.0123C39.8233 62.0682 39.8527 62.1418 39.8527 62.2154ZM42.3697 62.2154C42.3697 62.2861 42.3432 62.3597 42.2873 62.4156C42.1784 62.5275 41.9959 62.5304 41.884 62.4185L40.571 61.1321C40.4591 61.0202 40.4562 60.8406 40.5681 60.7287C40.677 60.6169 40.8595 60.6139 40.9714 60.7258L42.2844 62.0123C42.3403 62.0682 42.3697 62.1418 42.3697 62.2154ZM44.8838 62.2154C44.8838 62.289 44.8573 62.3597 44.8014 62.4156C44.6895 62.5275 44.5099 62.5304 44.3981 62.4185L43.088 61.1321C42.9762 61.0202 42.9732 60.8406 43.0851 60.7287C43.197 60.6169 43.3765 60.6139 43.4884 60.7258L44.7984 62.0123C44.8544 62.0682 44.8838 62.1418 44.8838 62.2154ZM47.3979 62.2154C47.3979 62.289 47.3714 62.3597 47.3155 62.4156C47.2036 62.5275 47.024 62.5304 46.9122 62.4185L45.6021 61.1321C45.4903 61.0202 45.4873 60.8406 45.5992 60.7287C45.711 60.6169 45.8906 60.6139 46.0025 60.7258L47.3125 62.0123C47.3714 62.0682 47.3979 62.1418 47.3979 62.2154ZM49.703 62.0064C49.703 62.077 49.6765 62.1506 49.6205 62.2066C49.5116 62.3184 49.3291 62.3214 49.2172 62.2095L48.1191 61.1321C48.0073 61.0202 48.0043 60.8406 48.1162 60.7287C48.2251 60.6169 48.4076 60.6139 48.5195 60.7258L49.6176 61.8033C49.6735 61.8592 49.703 61.9328 49.703 62.0064Z" fill="#3EBED0"/>
<path d="M50.8409 55.9832L50.8409 60.1812C50.8409 61.1703 50.2138 62.0506 49.2806 62.3744C49.1805 62.4097 49.0687 62.4392 48.9597 62.4598C48.8214 62.4863 48.6712 62.501 48.5211 62.501L34.3227 62.501C34.2756 62.501 34.2285 62.501 34.1814 62.498C34.0254 62.4892 33.8694 62.4627 33.7104 62.4215C33.7045 62.4215 33.7016 62.4185 33.6957 62.4185C33.4867 62.3597 33.2865 62.2714 33.101 62.1565C32.4121 61.7267 32 60.9908 32 60.1812L32 55.9862C32 54.9499 32.6977 54.0314 33.6927 53.7517C33.8488 53.7076 34.0136 53.6781 34.1755 53.6693C34.2226 53.6664 34.2697 53.6664 34.3198 53.6664L48.5182 53.6664C48.6683 53.6664 48.8184 53.6811 48.9597 53.7105C49.0657 53.7311 49.1746 53.7576 49.2806 53.7959C50.2138 54.1138 50.8409 54.9941 50.8409 55.9832ZM33.8399 61.8622C33.8429 61.8622 33.8458 61.8651 33.8517 61.8651C33.9724 61.8975 34.096 61.9181 34.2167 61.9269C34.2521 61.9299 34.2874 61.9299 34.3257 61.9299L48.524 61.9299C48.6389 61.9299 48.7507 61.9181 48.8567 61.8975C48.9421 61.8828 49.0186 61.8622 49.0922 61.8327C49.7988 61.5884 50.2727 60.9231 50.2727 60.1782L50.2727 55.9832C50.2727 55.2384 49.7988 54.5731 49.0952 54.3317C49.0157 54.3022 48.9391 54.2816 48.8596 54.2669C48.7478 54.2463 48.6359 54.2345 48.524 54.2345L34.3227 54.2345C34.2874 54.2345 34.2491 54.2345 34.2138 54.2375C34.0902 54.2463 33.9695 54.2669 33.8488 54.2993C33.0951 54.5113 32.5711 55.2031 32.5711 55.9832L32.5711 60.1812C32.5711 60.7906 32.8802 61.347 33.4013 61.6708C33.5367 61.7532 33.6839 61.818 33.8399 61.8622Z" fill="#3EBED0"/>
<path d="M50.8409 2.83847C50.8409 2.99744 50.7143 3.12402 50.5553 3.12402L32.2856 3.12402C32.1266 3.12402 32 2.99744 32 2.83847C32 2.6795 32.1266 2.55291 32.2856 2.55291L50.5553 2.55291C50.7114 2.55291 50.8409 2.6795 50.8409 2.83847Z" fill="#56E4EE"/>
<path d="M50.8409 4.41659C50.8409 4.57556 50.7143 4.70215 50.5553 4.70215L32.2856 4.70215C32.1266 4.70215 32 4.57262 32 4.41659C32 4.25762 32.1266 4.13103 32.2856 4.13103L50.5553 4.13103C50.7114 4.13103 50.8409 4.25762 50.8409 4.41659Z" fill="#3EBED0"/>
<path d="M50.8409 6.24862C50.8409 6.40759 50.7143 6.53418 50.5553 6.53418L32.2856 6.53418C32.1266 6.53418 32 6.40759 32 6.24862C32 6.08965 32.1266 5.96307 32.2856 5.96307L50.5553 5.96306C50.7114 5.96306 50.8409 6.0926 50.8409 6.24862Z" fill="#56E4EE"/>
<path d="M33.9422 5.68039L33.9422 6.66659C33.9422 6.82556 33.8156 6.95215 33.6567 6.95215C33.4977 6.95215 33.3711 6.82556 33.3711 6.66659L33.3711 5.68039C33.3711 5.52142 33.4977 5.39483 33.6567 5.39483C33.8156 5.39483 33.9422 5.52142 33.9422 5.68039ZM33.9422 2.33907L33.9422 3.32233C33.9422 3.4813 33.8156 3.60789 33.6567 3.60789C33.4977 3.60789 33.3711 3.4813 33.3711 3.32233L33.3711 2.33907C33.3711 2.1801 33.4977 2.05352 33.6567 2.05352C33.8156 2.05352 33.9422 2.1801 33.9422 2.33907ZM35.8852 5.68039L35.8852 6.66659C35.8852 6.82556 35.7586 6.95215 35.5996 6.95215C35.4406 6.95215 35.3141 6.82556 35.3141 6.66659L35.3141 5.68039C35.3141 5.52142 35.4406 5.39483 35.5996 5.39483C35.7556 5.39483 35.8852 5.52142 35.8852 5.68039ZM35.8852 2.33907L35.8852 3.32233C35.8852 3.4813 35.7586 3.60789 35.5996 3.60789C35.4406 3.60789 35.3141 3.4813 35.3141 3.32233L35.3141 2.33907C35.3141 2.1801 35.4406 2.05352 35.5996 2.05352C35.7556 2.05352 35.8852 2.1801 35.8852 2.33907ZM37.8252 5.68039L37.8252 6.66659C37.8252 6.82556 37.6986 6.95215 37.5396 6.95215C37.3807 6.95215 37.2541 6.82556 37.2541 6.66659L37.2541 5.68039C37.2541 5.52142 37.3807 5.39483 37.5396 5.39483C37.6986 5.39483 37.8252 5.52142 37.8252 5.68039ZM37.8252 2.33907L37.8252 3.32233C37.8252 3.4813 37.6986 3.60789 37.5396 3.60789C37.3807 3.60789 37.2541 3.4813 37.2541 3.32233L37.2541 2.33907C37.2541 2.1801 37.3807 2.05352 37.5396 2.05352C37.6986 2.05352 37.8252 2.1801 37.8252 2.33907ZM39.7652 5.68039L39.7652 6.66659C39.7652 6.82556 39.6386 6.95215 39.4797 6.95215C39.3207 6.95215 39.1941 6.82556 39.1941 6.66659L39.1941 5.68039C39.1941 5.52142 39.3207 5.39483 39.4797 5.39483C39.6386 5.39483 39.7652 5.52142 39.7652 5.68039ZM39.7652 2.33907L39.7652 3.32233C39.7652 3.4813 39.6386 3.60789 39.4797 3.60789C39.3207 3.60789 39.1941 3.4813 39.1941 3.32233L39.1941 2.33907C39.1941 2.1801 39.3207 2.05352 39.4797 2.05352C39.6386 2.05352 39.7652 2.1801 39.7652 2.33907ZM41.7052 5.68039L41.7052 6.66659C41.7052 6.82556 41.5787 6.95215 41.4197 6.95215C41.2607 6.95215 41.1341 6.82556 41.1341 6.66659L41.1341 5.68039C41.1341 5.52142 41.2607 5.39483 41.4197 5.39483C41.5757 5.39483 41.7052 5.52142 41.7052 5.68039ZM41.7052 2.33907L41.7052 3.32233C41.7052 3.4813 41.5787 3.60789 41.4197 3.60789C41.2607 3.60789 41.1341 3.4813 41.1341 3.32233L41.1341 2.33907C41.1341 2.1801 41.2607 2.05352 41.4197 2.05352C41.5757 2.05352 41.7052 2.1801 41.7052 2.33907ZM43.6453 5.68039L43.6453 6.66659C43.6453 6.82556 43.5187 6.95215 43.3597 6.95215C43.2007 6.95215 43.0742 6.82556 43.0742 6.66659L43.0742 5.68039C43.0742 5.52142 43.2007 5.39483 43.3597 5.39483C43.5187 5.39483 43.6453 5.52142 43.6453 5.68039ZM43.6453 2.33907L43.6453 3.32233C43.6453 3.4813 43.5187 3.60789 43.3597 3.60789C43.2007 3.60789 43.0742 3.4813 43.0742 3.32233L43.0742 2.33907C43.0742 2.1801 43.2007 2.05352 43.3597 2.05352C43.5187 2.05352 43.6453 2.1801 43.6453 2.33907ZM45.5882 5.68039L45.5882 6.66659C45.5882 6.82556 45.4616 6.95215 45.3027 6.95215C45.1437 6.95215 45.0171 6.82556 45.0171 6.66659L45.0171 5.68039C45.0171 5.52142 45.1437 5.39483 45.3027 5.39483C45.4616 5.39483 45.5882 5.52142 45.5882 5.68039ZM45.5882 2.33907L45.5882 3.32233C45.5882 3.4813 45.4616 3.60789 45.3027 3.60789C45.1437 3.60789 45.0171 3.4813 45.0171 3.32233L45.0171 2.33907C45.0171 2.1801 45.1437 2.05352 45.3027 2.05352C45.4616 2.05352 45.5882 2.1801 45.5882 2.33907ZM47.5253 5.68039L47.5253 6.66659C47.5253 6.82556 47.3987 6.95215 47.2398 6.95215C47.0808 6.95215 46.9542 6.82556 46.9542 6.66659L46.9542 5.68039C46.9542 5.52142 47.0808 5.39483 47.2398 5.39483C47.3987 5.39483 47.5253 5.52142 47.5253 5.68039ZM47.5253 2.33907L47.5253 3.32233C47.5253 3.4813 47.3987 3.60789 47.2398 3.60789C47.0808 3.60789 46.9542 3.4813 46.9542 3.32233L46.9542 2.33907C46.9542 2.1801 47.0808 2.05352 47.2398 2.05352C47.3987 2.05352 47.5253 2.1801 47.5253 2.33907ZM49.4653 5.68039L49.4653 6.66659C49.4653 6.82556 49.3387 6.95215 49.1798 6.95215C49.0208 6.95215 48.8942 6.82556 48.8942 6.66659L48.8942 5.68039C48.8942 5.52142 49.0208 5.39483 49.1798 5.39483C49.3387 5.39483 49.4653 5.52142 49.4653 5.68039ZM49.4653 2.33907L49.4653 3.32233C49.4653 3.4813 49.3387 3.60789 49.1798 3.60789C49.0208 3.60789 48.8942 3.4813 48.8942 3.32233L48.8942 2.33907C48.8942 2.1801 49.0208 2.05352 49.1798 2.05352C49.3387 2.05352 49.4653 2.1801 49.4653 2.33907Z" fill="#56E4EE"/>
<path d="M34.8245 0.285845C34.8245 0.359442 34.7951 0.43304 34.7392 0.488974L33.4233 1.7784C33.3114 1.89026 33.1289 1.88732 33.0199 1.77545C32.9081 1.66359 32.911 1.48106 33.0229 1.37214L34.3388 0.0827168C34.4507 -0.029151 34.6332 -0.0262076 34.7421 0.0856601C34.7981 0.141594 34.8245 0.212247 34.8245 0.285845ZM37.3386 0.285845C37.3386 0.359442 37.3092 0.43304 37.2533 0.488974L35.9373 1.7784C35.8255 1.89026 35.6429 1.88732 35.534 1.77545C35.4251 1.66358 35.4251 1.48106 35.537 1.37214L36.8529 0.0827166C36.9648 -0.0291511 37.1473 -0.0262077 37.2562 0.08566C37.3121 0.141594 37.3386 0.212247 37.3386 0.285845ZM39.8557 0.285844C39.8557 0.359442 39.8262 0.43304 39.7703 0.488973L38.4573 1.7784C38.3454 1.89026 38.1629 1.88732 38.054 1.77545C37.9421 1.66358 37.9451 1.48106 38.0569 1.37214L39.3699 0.0827165C39.4818 -0.0291512 39.6643 -0.0262078 39.7732 0.0856599C39.8262 0.141594 39.8557 0.212247 39.8557 0.285844ZM42.3727 0.285844C42.3727 0.359442 42.3432 0.433039 42.2873 0.488973L40.9714 1.7784C40.8595 1.89026 40.677 1.88732 40.5681 1.77545C40.4562 1.66358 40.4591 1.48106 40.571 1.37214L41.8869 0.0827164C41.9988 -0.0291513 42.1813 -0.026208 42.2902 0.0856598C42.3462 0.141594 42.3727 0.212247 42.3727 0.285844ZM44.8868 0.285844C44.8868 0.359441 44.8573 0.433039 44.8014 0.488973L43.4884 1.7784C43.3765 1.89026 43.194 1.88732 43.0851 1.77545C42.9732 1.66358 42.9762 1.48106 43.088 1.37214L44.401 0.0827163C44.5129 -0.0291515 44.6954 -0.0262081 44.8043 0.0856597C44.8603 0.141594 44.8868 0.212247 44.8868 0.285844ZM47.4008 0.285844C47.4008 0.359441 47.3714 0.433039 47.3155 0.488973L46.0025 1.7784C45.8906 1.89026 45.7081 1.88732 45.5992 1.77545C45.4873 1.66358 45.4903 1.48106 45.6021 1.37214L46.9151 0.0827162C47.027 -0.0291516 47.2095 -0.0262082 47.3184 0.0856596C47.3743 0.141593 47.4008 0.212247 47.4008 0.285844ZM49.703 0.497804C49.703 0.571402 49.6735 0.644998 49.6176 0.700932L48.5195 1.7784C48.4076 1.88732 48.2251 1.88732 48.1162 1.77251C48.0073 1.66064 48.0073 1.47812 48.1191 1.3692L49.2172 0.291732C49.3291 0.182808 49.5116 0.182808 49.6205 0.29762C49.6765 0.353554 49.703 0.424207 49.703 0.497804Z" fill="#3EBED0"/>
<path d="M34.8216 8.55134C34.8216 8.622 34.7951 8.69559 34.7392 8.75153C34.6303 8.86339 34.4477 8.86634 34.3359 8.75447L33.0229 7.46799C32.911 7.35612 32.9081 7.17655 33.0199 7.06468C33.1289 6.95281 33.3114 6.94987 33.4233 7.06173L34.7362 8.34821C34.7922 8.40415 34.8216 8.47775 34.8216 8.55134ZM37.3357 8.55134C37.3357 8.622 37.3092 8.69559 37.2533 8.75153C37.1443 8.86339 36.9618 8.86634 36.8499 8.75447L35.537 7.46799C35.4251 7.35612 35.4222 7.17655 35.534 7.06468C35.6429 6.95281 35.8255 6.94987 35.9373 7.06173L37.2503 8.34821C37.3092 8.40415 37.3357 8.47775 37.3357 8.55134ZM39.8527 8.55134C39.8527 8.62494 39.8262 8.69559 39.7703 8.75153C39.6584 8.86339 39.4788 8.86634 39.367 8.75447L38.0569 7.46799C37.9451 7.35612 37.9421 7.17655 38.054 7.06468C38.1659 6.95281 38.3454 6.94987 38.4573 7.06173L39.7673 8.34821C39.8233 8.40415 39.8527 8.47775 39.8527 8.55134ZM42.3697 8.55134C42.3697 8.622 42.3432 8.69559 42.2873 8.75153C42.1784 8.86339 41.9959 8.86634 41.884 8.75447L40.571 7.46799C40.4591 7.35612 40.4562 7.17655 40.5681 7.06468C40.677 6.95281 40.8595 6.94987 40.9714 7.06173L42.2844 8.34821C42.3403 8.40415 42.3697 8.47775 42.3697 8.55134ZM44.8838 8.55134C44.8838 8.62494 44.8573 8.69559 44.8014 8.75153C44.6895 8.86339 44.5099 8.86634 44.3981 8.75447L43.088 7.46799C42.9762 7.35612 42.9732 7.17655 43.0851 7.06468C43.197 6.95281 43.3765 6.94987 43.4884 7.06173L44.7984 8.34821C44.8544 8.40415 44.8838 8.47775 44.8838 8.55134ZM47.3979 8.55134C47.3979 8.62494 47.3714 8.69559 47.3155 8.75153C47.2036 8.86339 47.024 8.86634 46.9122 8.75447L45.6021 7.46799C45.4903 7.35612 45.4873 7.17655 45.5992 7.06468C45.711 6.95281 45.8906 6.94987 46.0025 7.06173L47.3125 8.34821C47.3714 8.40415 47.3979 8.47774 47.3979 8.55134ZM49.703 8.34233C49.703 8.41298 49.6765 8.48658 49.6205 8.54251C49.5116 8.65438 49.3291 8.65732 49.2172 8.54545L48.1191 7.46799C48.0073 7.35612 48.0043 7.17655 48.1162 7.06468C48.2251 6.95281 48.4076 6.94987 48.5195 7.06173L49.6176 8.1392C49.6735 8.19513 49.703 8.26873 49.703 8.34233Z" fill="#3EBED0"/>
<path d="M50.8409 2.31914L50.8409 6.51713C50.8409 7.50628 50.2138 8.3865 49.2806 8.71033C49.1805 8.74565 49.0687 8.77509 48.9597 8.7957C48.8214 8.82219 48.6712 8.83691 48.5211 8.83691L34.3227 8.83691C34.2756 8.83691 34.2285 8.83691 34.1814 8.83397C34.0254 8.82514 33.8694 8.79864 33.7104 8.75743C33.7045 8.75743 33.7016 8.75448 33.6957 8.75448C33.4867 8.69561 33.2865 8.60729 33.101 8.49248C32.4121 8.06267 32 7.3267 32 6.51713L32 2.32209C32 1.28584 32.6977 0.367348 33.6927 0.0876781C33.8488 0.0435198 34.0136 0.0140802 34.1755 0.00524849C34.2226 0.0023046 34.2697 0.00230509 34.3198 0.00230509L48.5182 0.00230446C48.6683 0.00230446 48.8184 0.0170243 48.9597 0.0464632C49.0657 0.0670704 49.1746 0.0935646 49.2806 0.131835C50.2138 0.449775 50.8409 1.33 50.8409 2.31914ZM33.8399 8.19809C33.8429 8.19809 33.8458 8.20103 33.8517 8.20103C33.9724 8.23342 34.096 8.25402 34.2167 8.26286C34.2521 8.2658 34.2874 8.2658 34.3257 8.2658L48.524 8.2658C48.6389 8.2658 48.7507 8.25402 48.8567 8.23342C48.9421 8.2187 49.0186 8.19809 49.0922 8.16865C49.7988 7.92431 50.2727 7.25899 50.2727 6.51419L50.2727 2.31914C50.2727 1.57434 49.7988 0.909022 49.0952 0.667623C49.0157 0.638184 48.9391 0.617577 48.8596 0.602858C48.7478 0.582251 48.6359 0.570475 48.524 0.570475L34.3227 0.570476C34.2874 0.570476 34.2491 0.570475 34.2138 0.573419C34.0902 0.582251 33.9695 0.602859 33.8488 0.635242C33.0951 0.847202 32.5711 1.53901 32.5711 2.31914L32.5711 6.51713C32.5711 7.12651 32.8802 7.68291 33.4013 8.00674C33.5367 8.08917 33.6839 8.15393 33.8399 8.19809Z" fill="#3EBED0"/>
<path d="M9.83203 8.83936L9.83203 53.8936" stroke="white" strokeLinecap="square"/>
<path d="M8.19141 8.83936L8.19141 53.8936" stroke="white" strokeLinecap="square"/>
<path d="M18.8409 56.5025C18.8409 56.6615 18.7143 56.7881 18.5553 56.7881L0.285557 56.7881C0.126587 56.7881 -5.53332e-09 56.6615 -1.24821e-08 56.5025C-1.94309e-08 56.3436 0.126587 56.217 0.285557 56.217L18.5553 56.217C18.7114 56.217 18.8409 56.3436 18.8409 56.5025Z" fill="#56E4EE"/>
<path d="M18.8409 58.0792C18.8409 58.2382 18.7143 58.3647 18.5553 58.3647L0.285557 58.3647C0.126587 58.3647 -5.66198e-09 58.2352 -1.24821e-08 58.0792C-1.94309e-08 57.9202 0.126587 57.7936 0.285557 57.7936L18.5553 57.7936C18.7114 57.7936 18.8409 57.9202 18.8409 58.0792Z" fill="#3EBED0"/>
<path d="M18.8409 59.9112C18.8409 60.0702 18.7143 60.1968 18.5553 60.1968L0.285557 60.1968C0.126587 60.1968 -5.53332e-09 60.0702 -1.24821e-08 59.9112C-1.94309e-08 59.7522 0.126587 59.6257 0.285557 59.6257L18.5553 59.6257C18.7114 59.6257 18.8409 59.7552 18.8409 59.9112Z" fill="#56E4EE"/>
<path d="M1.9383 59.343L1.9383 60.3292C1.9383 60.4882 1.81171 60.6147 1.65274 60.6147C1.49377 60.6147 1.36719 60.4882 1.36719 60.3292L1.36719 59.343C1.36719 59.184 1.49377 59.0574 1.65274 59.0574C1.81171 59.0574 1.9383 59.184 1.9383 59.343ZM1.9383 56.0017L1.9383 56.9849C1.9383 57.1439 1.81171 57.2705 1.65274 57.2705C1.49377 57.2705 1.36719 57.1439 1.36719 56.9849L1.36719 56.0017C1.36719 55.8427 1.49377 55.7161 1.65274 55.7161C1.81171 55.7161 1.9383 55.8427 1.9383 56.0017ZM3.88127 59.343L3.88127 60.3292C3.88127 60.4882 3.75468 60.6147 3.59571 60.6147C3.43674 60.6147 3.31015 60.4882 3.31015 60.3292L3.31015 59.343C3.31015 59.184 3.43674 59.0574 3.59571 59.0574C3.75174 59.0574 3.88127 59.184 3.88127 59.343ZM3.88127 56.0017L3.88127 56.9849C3.88127 57.1439 3.75468 57.2705 3.59571 57.2705C3.43674 57.2705 3.31015 57.1439 3.31015 56.9849L3.31015 56.0017C3.31015 55.8427 3.43674 55.7161 3.59571 55.7161C3.75174 55.7161 3.88127 55.8427 3.88127 56.0017ZM5.82129 59.343L5.82129 60.3292C5.82129 60.4882 5.6947 60.6147 5.53573 60.6147C5.37676 60.6147 5.25018 60.4882 5.25018 60.3292L5.25018 59.343C5.25018 59.184 5.37676 59.0574 5.53573 59.0574C5.6947 59.0574 5.82129 59.184 5.82129 59.343ZM5.82129 56.0017L5.82129 56.9849C5.82129 57.1439 5.6947 57.2705 5.53573 57.2705C5.37676 57.2705 5.25018 57.1439 5.25018 56.9849L5.25018 56.0017C5.25018 55.8427 5.37676 55.7161 5.53573 55.7161C5.6947 55.7161 5.82129 55.8427 5.82129 56.0017ZM7.76131 59.343L7.76131 60.3292C7.76131 60.4882 7.63473 60.6147 7.47576 60.6147C7.31679 60.6147 7.1902 60.4882 7.1902 60.3292L7.1902 59.343C7.1902 59.184 7.31679 59.0574 7.47576 59.0574C7.63473 59.0574 7.76131 59.184 7.76131 59.343ZM7.76131 56.0017L7.76131 56.9849C7.76131 57.1439 7.63473 57.2705 7.47576 57.2705C7.31679 57.2705 7.1902 57.1439 7.1902 56.9849L7.1902 56.0017C7.1902 55.8427 7.31679 55.7161 7.47576 55.7161C7.63473 55.7161 7.76131 55.8427 7.76131 56.0017ZM9.70134 59.343L9.70134 60.3292C9.70134 60.4882 9.57475 60.6147 9.41578 60.6147C9.25681 60.6147 9.13022 60.4882 9.13022 60.3292L9.13022 59.343C9.13022 59.184 9.25681 59.0574 9.41578 59.0574C9.57181 59.0574 9.70134 59.184 9.70134 59.343ZM9.70134 56.0017L9.70134 56.9849C9.70134 57.1439 9.57475 57.2705 9.41578 57.2705C9.25681 57.2705 9.13022 57.1439 9.13022 56.9849L9.13022 56.0017C9.13022 55.8427 9.25681 55.7161 9.41578 55.7161C9.5718 55.7161 9.70134 55.8427 9.70134 56.0017ZM11.6414 59.343L11.6414 60.3292C11.6414 60.4882 11.5148 60.6147 11.3558 60.6147C11.1968 60.6147 11.0702 60.4882 11.0702 60.3292L11.0702 59.343C11.0702 59.184 11.1968 59.0574 11.3558 59.0574C11.5148 59.0574 11.6414 59.184 11.6414 59.343ZM11.6414 56.0017L11.6414 56.9849C11.6414 57.1439 11.5148 57.2705 11.3558 57.2705C11.1968 57.2705 11.0702 57.1439 11.0702 56.9849L11.0702 56.0017C11.0702 55.8427 11.1968 55.7161 11.3558 55.7161C11.5148 55.7161 11.6414 55.8427 11.6414 56.0017ZM13.5843 59.343L13.5843 60.3292C13.5843 60.4882 13.4577 60.6147 13.2988 60.6147C13.1398 60.6147 13.0132 60.4882 13.0132 60.3292L13.0132 59.343C13.0132 59.184 13.1398 59.0574 13.2988 59.0574C13.4577 59.0574 13.5843 59.184 13.5843 59.343ZM13.5843 56.0017L13.5843 56.9849C13.5843 57.1439 13.4577 57.2705 13.2988 57.2705C13.1398 57.2705 13.0132 57.1439 13.0132 56.9849L13.0132 56.0017C13.0132 55.8427 13.1398 55.7161 13.2988 55.7161C13.4577 55.7161 13.5843 55.8427 13.5843 56.0017ZM15.5214 59.343L15.5214 60.3292C15.5214 60.4882 15.3948 60.6147 15.2358 60.6147C15.0769 60.6147 14.9503 60.4882 14.9503 60.3292L14.9503 59.343C14.9503 59.184 15.0769 59.0574 15.2358 59.0574C15.3948 59.0574 15.5214 59.184 15.5214 59.343ZM15.5214 56.0017L15.5214 56.9849C15.5214 57.1439 15.3948 57.2705 15.2358 57.2705C15.0769 57.2705 14.9503 57.1439 14.9503 56.9849L14.9503 56.0017C14.9503 55.8427 15.0769 55.7161 15.2358 55.7161C15.3948 55.7161 15.5214 55.8427 15.5214 56.0017ZM17.4614 59.343L17.4614 60.3292C17.4614 60.4882 17.3348 60.6147 17.1759 60.6147C17.0169 60.6147 16.8903 60.4882 16.8903 60.3292L16.8903 59.343C16.8903 59.184 17.0169 59.0574 17.1759 59.0574C17.3348 59.0574 17.4614 59.184 17.4614 59.343ZM17.4614 56.0017L17.4614 56.9849C17.4614 57.1439 17.3348 57.2705 17.1759 57.2705C17.0169 57.2705 16.8903 57.1439 16.8903 56.9849L16.8903 56.0017C16.8903 55.8427 17.0169 55.7161 17.1759 55.7161C17.3348 55.7161 17.4614 55.8427 17.4614 56.0017Z" fill="#56E4EE"/>
<path d="M2.82455 53.9484C2.82455 54.022 2.79511 54.0956 2.73917 54.1516L1.42326 55.441C1.31139 55.5529 1.12887 55.5499 1.01994 55.4381C0.908076 55.3262 0.91102 55.1437 1.02289 55.0347L2.33881 53.7453C2.45067 53.6334 2.63319 53.6364 2.74212 53.7483C2.79805 53.8042 2.82455 53.8748 2.82455 53.9484ZM5.33863 53.9484C5.33863 54.022 5.30919 54.0956 5.25325 54.1516L3.93734 55.441C3.82547 55.5529 3.64295 55.5499 3.53402 55.4381C3.4251 55.3262 3.4251 55.1437 3.53697 55.0347L4.85289 53.7453C4.96475 53.6334 5.14727 53.6364 5.2562 53.7483C5.31213 53.8042 5.33863 53.8748 5.33863 53.9484ZM7.85565 53.9484C7.85565 54.022 7.82621 54.0956 7.77028 54.1516L6.45731 55.441C6.34544 55.5529 6.16292 55.5499 6.05399 55.4381C5.94212 55.3262 5.94507 55.1437 6.05694 55.0347L7.36991 53.7453C7.48178 53.6334 7.6643 53.6364 7.77322 53.7483C7.82621 53.8042 7.85565 53.8748 7.85565 53.9484ZM10.3727 53.9484C10.3727 54.022 10.3432 54.0956 10.2873 54.1516L8.97139 55.441C8.85952 55.5529 8.677 55.5499 8.56807 55.4381C8.45621 55.3262 8.45915 55.1437 8.57102 55.0347L9.88694 53.7453C9.9988 53.6334 10.1813 53.6364 10.2902 53.7483C10.3462 53.8042 10.3727 53.8748 10.3727 53.9484ZM12.8868 53.9484C12.8868 54.022 12.8573 54.0956 12.8014 54.1516L11.4884 55.441C11.3765 55.5529 11.194 55.5499 11.0851 55.4381C10.9732 55.3262 10.9762 55.1437 11.088 55.0347L12.401 53.7453C12.5129 53.6334 12.6954 53.6364 12.8043 53.7483C12.8603 53.8042 12.8868 53.8748 12.8868 53.9484ZM15.4008 53.9484C15.4008 54.022 15.3714 54.0956 15.3155 54.1516L14.0025 55.441C13.8906 55.5529 13.7081 55.5499 13.5992 55.438C13.4873 55.3262 13.4903 55.1437 13.6021 55.0347L14.9151 53.7453C15.027 53.6334 15.2095 53.6364 15.3184 53.7483C15.3743 53.8042 15.4008 53.8748 15.4008 53.9484ZM17.703 54.1604C17.703 54.234 17.6735 54.3076 17.6176 54.3635L16.5195 55.441C16.4076 55.5499 16.2251 55.5499 16.1162 55.4351C16.0073 55.3232 16.0073 55.1407 16.1191 55.0318L17.2172 53.9543C17.3291 53.8454 17.5116 53.8454 17.6205 53.9602C17.6765 54.0162 17.703 54.0868 17.703 54.1604Z" fill="#3EBED0"/>
<path d="M2.8177 62.2149C2.8177 62.2856 2.7912 62.3592 2.73527 62.4151C2.62634 62.527 2.44382 62.5299 2.33196 62.418L1.01898 61.1316C0.907113 61.0197 0.904169 60.8401 1.01604 60.7283C1.12496 60.6164 1.30748 60.6134 1.41935 60.7253L2.73232 62.0118C2.78826 62.0677 2.8177 62.1413 2.8177 62.2149ZM5.33178 62.2149C5.33178 62.2856 5.30528 62.3592 5.24935 62.4151C5.14042 62.527 4.9579 62.5299 4.84604 62.418L3.53306 61.1316C3.42119 61.0197 3.41825 60.8401 3.53012 60.7283C3.63904 60.6164 3.82156 60.6134 3.93343 60.7253L5.2464 62.0118C5.30528 62.0677 5.33178 62.1413 5.33178 62.2149ZM7.8488 62.2149C7.8488 62.2885 7.82231 62.3592 7.76637 62.4151C7.65451 62.527 7.47493 62.5299 7.36306 62.418L6.05303 61.1316C5.94116 61.0197 5.93822 60.8401 6.05009 60.7283C6.16195 60.6164 6.34153 60.6134 6.4534 60.7253L7.76343 62.0118C7.81936 62.0677 7.8488 62.1413 7.8488 62.2149ZM10.3658 62.2149C10.3658 62.2856 10.3393 62.3592 10.2834 62.4151C10.1745 62.527 9.99195 62.5299 9.88008 62.418L8.56711 61.1316C8.45524 61.0197 8.4523 60.8401 8.56417 60.7283C8.67309 60.6164 8.85561 60.6134 8.96748 60.7253L10.2805 62.0118C10.3364 62.0677 10.3658 62.1413 10.3658 62.2149ZM12.8799 62.2149C12.8799 62.2885 12.8534 62.3592 12.7975 62.4151C12.6856 62.527 12.506 62.5299 12.3942 62.418L11.0841 61.1316C10.9723 61.0197 10.9693 60.8401 11.0812 60.7283C11.1931 60.6164 11.3726 60.6134 11.4845 60.7253L12.7945 62.0118C12.8505 62.0677 12.8799 62.1413 12.8799 62.2149ZM15.394 62.2149C15.394 62.2885 15.3675 62.3592 15.3116 62.4151C15.1997 62.527 15.0201 62.5299 14.9082 62.418L13.5982 61.1316C13.4863 61.0197 13.4834 60.8401 13.5953 60.7283C13.7071 60.6164 13.8867 60.6134 13.9986 60.7253L15.3086 62.0118C15.3675 62.0677 15.394 62.1413 15.394 62.2149ZM17.6991 62.0059C17.6991 62.0766 17.6726 62.1502 17.6166 62.2061C17.5077 62.318 17.3252 62.3209 17.2133 62.209L16.1152 61.1316C16.0034 61.0197 16.0004 60.8401 16.1123 60.7283C16.2212 60.6164 16.4037 60.6134 16.5156 60.7253L17.6137 61.8028C17.6696 61.8587 17.6991 61.9323 17.6991 62.0059Z" fill="#3EBED0"/>
<path d="M18.8409 55.9827L18.8409 60.1807C18.8409 61.1698 18.2138 62.0501 17.2806 62.3739C17.1805 62.4092 17.0687 62.4387 16.9597 62.4593C16.8214 62.4858 16.6712 62.5005 16.5211 62.5005L2.32273 62.5005C2.27563 62.5005 2.22852 62.5005 2.18142 62.4975C2.0254 62.4887 1.86937 62.4622 1.7104 62.421C1.70451 62.421 1.70157 62.4181 1.69568 62.4181C1.48666 62.3592 1.28648 62.2709 1.10101 62.1561C0.412144 61.7262 -6.60136e-08 60.9903 -1.01401e-07 60.1807L-2.84772e-07 55.9857C-3.30068e-07 54.9494 0.697701 54.0309 1.69274 53.7513C1.84876 53.7071 2.01362 53.6777 2.17553 53.6688C2.22264 53.6659 2.26974 53.6659 2.31978 53.6659L16.5182 53.6659C16.6683 53.6659 16.8184 53.6806 16.9597 53.71C17.0657 53.7306 17.1746 53.7571 17.2806 53.7954C18.2138 54.1133 18.8409 54.9936 18.8409 55.9827ZM1.83993 61.8617C1.84287 61.8617 1.84582 61.8646 1.85171 61.8646C1.97241 61.897 2.09605 61.9176 2.21675 61.9264C2.25207 61.9294 2.2874 61.9294 2.32567 61.9294L16.524 61.9294C16.6389 61.9294 16.7507 61.9176 16.8567 61.897C16.9421 61.8823 17.0186 61.8617 17.0922 61.8322C17.7988 61.5879 18.2727 60.9226 18.2727 60.1778L18.2727 55.9827C18.2727 55.2379 17.7988 54.5726 17.0952 54.3312C17.0157 54.3018 16.9391 54.2812 16.8596 54.2664C16.7478 54.2458 16.6359 54.234 16.524 54.234L2.32273 54.234C2.2874 54.234 2.24913 54.234 2.2138 54.237C2.09016 54.2458 1.96946 54.2664 1.84876 54.2988C1.09513 54.5108 0.571114 55.2026 0.571114 55.9827L0.571114 60.1807C0.571114 60.7901 0.880223 61.3465 1.40129 61.6703C1.53671 61.7527 1.6839 61.8175 1.83993 61.8617Z" fill="#3EBED0"/>
<path d="M18.8409 2.83895C18.8409 2.99792 18.7143 3.12451 18.5553 3.12451L0.285557 3.12451C0.126587 3.12451 -5.53332e-09 2.99792 -1.24821e-08 2.83895C-1.94309e-08 2.67998 0.126587 2.5534 0.285557 2.5534L18.5553 2.5534C18.7114 2.5534 18.8409 2.67998 18.8409 2.83895Z" fill="#56E4EE"/>
<path d="M18.8409 4.41708C18.8409 4.57605 18.7143 4.70264 18.5553 4.70264L0.285557 4.70264C0.126587 4.70264 -5.66198e-09 4.57311 -1.24821e-08 4.41708C-1.94309e-08 4.25811 0.126587 4.13152 0.285557 4.13152L18.5553 4.13152C18.7114 4.13152 18.8409 4.25811 18.8409 4.41708Z" fill="#3EBED0"/>
<path d="M18.8409 6.24911C18.8409 6.40808 18.7143 6.53467 18.5553 6.53467L0.285557 6.53467C0.126587 6.53467 -5.53332e-09 6.40808 -1.24821e-08 6.24911C-1.94309e-08 6.09014 0.126587 5.96355 0.285557 5.96355L18.5553 5.96355C18.7114 5.96355 18.8409 6.09308 18.8409 6.24911Z" fill="#56E4EE"/>
<path d="M1.9383 5.67941L1.9383 6.66561C1.9383 6.82458 1.81171 6.95117 1.65274 6.95117C1.49377 6.95117 1.36719 6.82458 1.36719 6.66561L1.36719 5.67941C1.36719 5.52044 1.49377 5.39385 1.65274 5.39385C1.81171 5.39385 1.9383 5.52044 1.9383 5.67941ZM1.9383 2.3381L1.9383 3.32136C1.9383 3.48033 1.81171 3.60691 1.65274 3.60691C1.49377 3.60691 1.36719 3.48033 1.36719 3.32136L1.36719 2.3381C1.36719 2.17913 1.49377 2.05254 1.65274 2.05254C1.81171 2.05254 1.9383 2.17913 1.9383 2.3381ZM3.88127 5.67941L3.88127 6.66561C3.88127 6.82458 3.75468 6.95117 3.59571 6.95117C3.43674 6.95117 3.31015 6.82458 3.31015 6.66561L3.31015 5.67941C3.31015 5.52044 3.43674 5.39385 3.59571 5.39385C3.75174 5.39385 3.88127 5.52044 3.88127 5.67941ZM3.88127 2.3381L3.88127 3.32136C3.88127 3.48033 3.75468 3.60691 3.59571 3.60691C3.43674 3.60691 3.31015 3.48033 3.31015 3.32136L3.31015 2.3381C3.31015 2.17913 3.43674 2.05254 3.59571 2.05254C3.75174 2.05254 3.88127 2.17913 3.88127 2.3381ZM5.82129 5.67941L5.82129 6.66561C5.82129 6.82458 5.6947 6.95117 5.53573 6.95117C5.37676 6.95117 5.25018 6.82458 5.25018 6.66561L5.25018 5.67941C5.25018 5.52044 5.37676 5.39385 5.53573 5.39385C5.6947 5.39385 5.82129 5.52044 5.82129 5.67941ZM5.82129 2.3381L5.82129 3.32136C5.82129 3.48033 5.6947 3.60691 5.53573 3.60691C5.37676 3.60691 5.25018 3.48033 5.25018 3.32136L5.25018 2.3381C5.25018 2.17913 5.37676 2.05254 5.53573 2.05254C5.6947 2.05254 5.82129 2.17913 5.82129 2.3381ZM7.76131 5.67941L7.76131 6.66561C7.76131 6.82458 7.63473 6.95117 7.47576 6.95117C7.31679 6.95117 7.1902 6.82458 7.1902 6.66561L7.1902 5.67941C7.1902 5.52044 7.31679 5.39385 7.47576 5.39385C7.63473 5.39385 7.76131 5.52044 7.76131 5.67941ZM7.76131 2.3381L7.76131 3.32136C7.76131 3.48033 7.63473 3.60691 7.47576 3.60691C7.31679 3.60691 7.1902 3.48033 7.1902 3.32136L7.1902 2.3381C7.1902 2.17913 7.31679 2.05254 7.47576 2.05254C7.63473 2.05254 7.76131 2.17913 7.76131 2.3381ZM9.70134 5.67941L9.70134 6.66561C9.70134 6.82458 9.57475 6.95117 9.41578 6.95117C9.25681 6.95117 9.13022 6.82458 9.13022 6.66561L9.13022 5.67941C9.13022 5.52044 9.25681 5.39385 9.41578 5.39385C9.57181 5.39385 9.70134 5.52044 9.70134 5.67941ZM9.70134 2.3381L9.70134 3.32136C9.70134 3.48033 9.57475 3.60691 9.41578 3.60691C9.25681 3.60691 9.13022 3.48033 9.13022 3.32136L9.13022 2.3381C9.13022 2.17913 9.25681 2.05254 9.41578 2.05254C9.5718 2.05254 9.70134 2.17913 9.70134 2.3381ZM11.6414 5.67941L11.6414 6.66561C11.6414 6.82458 11.5148 6.95117 11.3558 6.95117C11.1968 6.95117 11.0702 6.82458 11.0702 6.66561L11.0702 5.67941C11.0702 5.52044 11.1968 5.39385 11.3558 5.39385C11.5148 5.39385 11.6414 5.52044 11.6414 5.67941ZM11.6414 2.3381L11.6414 3.32136C11.6414 3.48033 11.5148 3.60691 11.3558 3.60691C11.1968 3.60691 11.0702 3.48033 11.0702 3.32136L11.0702 2.3381C11.0702 2.17913 11.1968 2.05254 11.3558 2.05254C11.5148 2.05254 11.6414 2.17913 11.6414 2.3381ZM13.5843 5.67941L13.5843 6.66561C13.5843 6.82458 13.4577 6.95117 13.2988 6.95117C13.1398 6.95117 13.0132 6.82458 13.0132 6.66561L13.0132 5.67941C13.0132 5.52044 13.1398 5.39385 13.2988 5.39385C13.4577 5.39385 13.5843 5.52044 13.5843 5.67941ZM13.5843 2.3381L13.5843 3.32136C13.5843 3.48033 13.4577 3.60691 13.2988 3.60691C13.1398 3.60691 13.0132 3.48033 13.0132 3.32136L13.0132 2.3381C13.0132 2.17913 13.1398 2.05254 13.2988 2.05254C13.4577 2.05254 13.5843 2.17913 13.5843 2.3381ZM15.5214 5.67941L15.5214 6.66561C15.5214 6.82458 15.3948 6.95117 15.2358 6.95117C15.0769 6.95117 14.9503 6.82458 14.9503 6.66561L14.9503 5.67941C14.9503 5.52044 15.0769 5.39385 15.2358 5.39385C15.3948 5.39385 15.5214 5.52044 15.5214 5.67941ZM15.5214 2.3381L15.5214 3.32136C15.5214 3.48033 15.3948 3.60691 15.2358 3.60691C15.0769 3.60691 14.9503 3.48033 14.9503 3.32136L14.9503 2.3381C14.9503 2.17913 15.0769 2.05254 15.2358 2.05254C15.3948 2.05254 15.5214 2.17913 15.5214 2.3381ZM17.4614 5.67941L17.4614 6.66561C17.4614 6.82458 17.3348 6.95117 17.1759 6.95117C17.0169 6.95117 16.8903 6.82458 16.8903 6.66561L16.8903 5.67941C16.8903 5.52044 17.0169 5.39385 17.1759 5.39385C17.3348 5.39385 17.4614 5.52044 17.4614 5.67941ZM17.4614 2.3381L17.4614 3.32136C17.4614 3.48033 17.3348 3.60691 17.1759 3.60691C17.0169 3.60691 16.8903 3.48033 16.8903 3.32136L16.8903 2.3381C16.8903 2.17913 17.0169 2.05254 17.1759 2.05254C17.3348 2.05254 17.4614 2.17913 17.4614 2.3381Z" fill="#56E4EE"/>
<path d="M2.82455 0.286333C2.82455 0.35993 2.79511 0.433528 2.73917 0.489462L1.42326 1.77888C1.31139 1.89075 1.12887 1.88781 1.01994 1.77594C0.908076 1.66407 0.91102 1.48155 1.02289 1.37263L2.33881 0.083205C2.45067 -0.0286627 2.63319 -0.0257193 2.74212 0.0861484C2.79805 0.142082 2.82455 0.212736 2.82455 0.286333ZM5.33863 0.286333C5.33863 0.35993 5.30919 0.433528 5.25325 0.489462L3.93734 1.77888C3.82547 1.89075 3.64295 1.88781 3.53402 1.77594C3.4251 1.66407 3.4251 1.48155 3.53697 1.37263L4.85289 0.0832049C4.96475 -0.0286628 5.14727 -0.0257195 5.2562 0.0861483C5.31213 0.142082 5.33863 0.212736 5.33863 0.286333ZM7.85565 0.286333C7.85565 0.35993 7.82621 0.433528 7.77028 0.489462L6.45731 1.77888C6.34544 1.89075 6.16292 1.88781 6.05399 1.77594C5.94212 1.66407 5.94507 1.48155 6.05694 1.37263L7.36991 0.0832048C7.48178 -0.028663 7.6643 -0.0257196 7.77322 0.0861482C7.82621 0.142082 7.85565 0.212735 7.85565 0.286333ZM10.3727 0.286333C10.3727 0.35993 10.3432 0.433528 10.2873 0.489462L8.97139 1.77888C8.85952 1.89075 8.677 1.88781 8.56807 1.77594C8.45621 1.66407 8.45915 1.48155 8.57102 1.37263L9.88694 0.0832047C9.9988 -0.0286631 10.1813 -0.0257197 10.2902 0.0861481C10.3462 0.142082 10.3727 0.212735 10.3727 0.286333ZM12.8868 0.286332C12.8868 0.35993 12.8573 0.433528 12.8014 0.489462L11.4884 1.77888C11.3765 1.89075 11.194 1.88781 11.0851 1.77594C10.9732 1.66407 10.9762 1.48155 11.088 1.37263L12.401 0.0832046C12.5129 -0.0286632 12.6954 -0.0257198 12.8043 0.086148C12.8603 0.142082 12.8868 0.212735 12.8868 0.286332ZM15.4008 0.286332C15.4008 0.35993 15.3714 0.433528 15.3155 0.489461L14.0025 1.77888C13.8906 1.89075 13.7081 1.88781 13.5992 1.77594C13.4873 1.66407 13.4903 1.48155 13.6021 1.37263L14.9151 0.0832045C15.027 -0.0286633 15.2095 -0.0257199 15.3184 0.0861479C15.3743 0.142082 15.4008 0.212735 15.4008 0.286332ZM17.703 0.498293C17.703 0.57189 17.6735 0.645487 17.6176 0.701421L16.5195 1.77888C16.4076 1.88781 16.2251 1.88781 16.1162 1.773C16.0073 1.66113 16.0073 1.47861 16.1191 1.36968L17.2172 0.29222C17.3291 0.183296 17.5116 0.183296 17.6205 0.298108C17.6765 0.354042 17.703 0.424695 17.703 0.498293Z" fill="#3EBED0"/>
<path d="M2.8177 8.55183C2.8177 8.62248 2.7912 8.69608 2.73527 8.75201C2.62634 8.86388 2.44382 8.86683 2.33196 8.75496L1.01898 7.46848C0.907113 7.35661 0.904169 7.17703 1.01604 7.06517C1.12496 6.9533 1.30748 6.95036 1.41935 7.06222L2.73232 8.3487C2.78826 8.40464 2.8177 8.47823 2.8177 8.55183ZM5.33178 8.55183C5.33178 8.62248 5.30528 8.69608 5.24935 8.75201C5.14042 8.86388 4.9579 8.86683 4.84604 8.75496L3.53306 7.46848C3.42119 7.35661 3.41825 7.17703 3.53012 7.06517C3.63904 6.9533 3.82156 6.95036 3.93343 7.06222L5.2464 8.3487C5.30528 8.40464 5.33178 8.47823 5.33178 8.55183ZM7.8488 8.55183C7.8488 8.62543 7.82231 8.69608 7.76637 8.75201C7.65451 8.86388 7.47493 8.86683 7.36306 8.75496L6.05303 7.46848C5.94116 7.35661 5.93822 7.17703 6.05009 7.06517C6.16195 6.9533 6.34153 6.95036 6.4534 7.06222L7.76343 8.3487C7.81936 8.40464 7.8488 8.47823 7.8488 8.55183ZM10.3658 8.55183C10.3658 8.62248 10.3393 8.69608 10.2834 8.75201C10.1745 8.86388 9.99195 8.86683 9.88008 8.75496L8.56711 7.46848C8.45524 7.35661 8.4523 7.17703 8.56417 7.06517C8.67309 6.9533 8.85561 6.95036 8.96748 7.06222L10.2805 8.3487C10.3364 8.40464 10.3658 8.47823 10.3658 8.55183ZM12.8799 8.55183C12.8799 8.62543 12.8534 8.69608 12.7975 8.75201C12.6856 8.86388 12.506 8.86683 12.3942 8.75496L11.0841 7.46848C10.9723 7.35661 10.9693 7.17703 11.0812 7.06517C11.1931 6.9533 11.3726 6.95035 11.4845 7.06222L12.7945 8.3487C12.8505 8.40464 12.8799 8.47823 12.8799 8.55183ZM15.394 8.55183C15.394 8.62543 15.3675 8.69608 15.3116 8.75201C15.1997 8.86388 15.0201 8.86683 14.9082 8.75496L13.5982 7.46848C13.4863 7.35661 13.4834 7.17703 13.5953 7.06517C13.7071 6.9533 13.8867 6.95035 13.9986 7.06222L15.3086 8.3487C15.3675 8.40464 15.394 8.47823 15.394 8.55183ZM17.6991 8.34281C17.6991 8.41347 17.6726 8.48706 17.6166 8.543C17.5077 8.65487 17.3252 8.65781 17.2133 8.54594L16.1152 7.46848C16.0034 7.35661 16.0004 7.17703 16.1123 7.06517C16.2212 6.9533 16.4037 6.95035 16.5156 7.06222L17.6137 8.13969C17.6696 8.19562 17.6991 8.26922 17.6991 8.34281Z" fill="#3EBED0"/>
<path d="M18.8409 2.31963L18.8409 6.51762C18.8409 7.50676 18.2138 8.38699 17.2806 8.71081C17.1805 8.74614 17.0687 8.77558 16.9597 8.79619C16.8214 8.82268 16.6712 8.8374 16.5211 8.8374L2.32273 8.8374C2.27563 8.8374 2.22852 8.8374 2.18142 8.83446C2.0254 8.82563 1.86937 8.79913 1.7104 8.75792C1.70451 8.75792 1.70157 8.75497 1.69568 8.75497C1.48666 8.6961 1.28648 8.60778 1.10101 8.49297C0.412144 8.06316 -6.60136e-08 7.32719 -1.01401e-07 6.51762L-2.84772e-07 2.32258C-3.30068e-07 1.28633 0.697701 0.367836 1.69274 0.0881664C1.84876 0.0440081 2.01362 0.0145684 2.17553 0.00573677C2.22264 0.00279288 2.26974 0.00279337 2.31978 0.00279337L16.5182 0.00279275C16.6683 0.00279274 16.8184 0.0175126 16.9597 0.0469515C17.0657 0.0675587 17.1746 0.0940529 17.2806 0.132323C18.2138 0.450263 18.8409 1.33049 18.8409 2.31963ZM1.83993 8.19858C1.84287 8.19858 1.84582 8.20152 1.85171 8.20152C1.97241 8.23391 2.09605 8.25451 2.21675 8.26334C2.25207 8.26629 2.2874 8.26629 2.32567 8.26629L16.524 8.26629C16.6389 8.26629 16.7507 8.25451 16.8567 8.2339C16.9421 8.21918 17.0186 8.19858 17.0922 8.16914C17.7988 7.9248 18.2727 7.25948 18.2727 6.51467L18.2727 2.31963C18.2727 1.57483 17.7988 0.90951 17.0952 0.668111C17.0157 0.638672 16.9391 0.618066 16.8596 0.603346C16.7478 0.582739 16.6359 0.570963 16.524 0.570963L2.32273 0.570964C2.2874 0.570964 2.24913 0.570963 2.2138 0.573907C2.09016 0.582739 1.96946 0.603347 1.84876 0.63573C1.09513 0.84769 0.571114 1.5395 0.571114 2.31963L0.571114 6.51762C0.571114 7.127 0.880223 7.6834 1.40129 8.00723C1.53671 8.08965 1.6839 8.15442 1.83993 8.19858Z" fill="#3EBED0"/>
<path d="M118.844 20.001L118.844 43.001" stroke="white" strokeLinecap="square"/>
<path d="M116.844 20.001L116.844 43.001" stroke="white" strokeLinecap="square"/>
<path d="M127.841 56.503C127.841 56.662 127.714 56.7886 127.555 56.7886L109.286 56.7886C109.127 56.7886 109 56.662 109 56.503C109 56.344 109.127 56.2175 109.286 56.2175L127.555 56.2175C127.711 56.2175 127.841 56.344 127.841 56.503Z" fill="#56E4EE"/>
<path d="M127.841 58.0797C127.841 58.2386 127.714 58.3652 127.555 58.3652L109.286 58.3652C109.127 58.3652 109 58.2357 109 58.0797C109 57.9207 109.127 57.7941 109.286 57.7941L127.555 57.7941C127.711 57.7941 127.841 57.9207 127.841 58.0797Z" fill="#3EBED0"/>
<path d="M127.841 59.9117C127.841 60.0707 127.714 60.1973 127.555 60.1973L109.286 60.1973C109.127 60.1973 109 60.0707 109 59.9117C109 59.7527 109.127 59.6262 109.286 59.6262L127.555 59.6262C127.711 59.6262 127.841 59.7557 127.841 59.9117Z" fill="#56E4EE"/>
<path d="M110.942 59.3435L110.942 60.3297C110.942 60.4886 110.816 60.6152 110.657 60.6152C110.498 60.6152 110.371 60.4886 110.371 60.3297L110.371 59.3435C110.371 59.1845 110.498 59.0579 110.657 59.0579C110.816 59.0579 110.942 59.1845 110.942 59.3435ZM110.942 56.0022L110.942 56.9854C110.942 57.1444 110.816 57.271 110.657 57.271C110.498 57.271 110.371 57.1444 110.371 56.9854L110.371 56.0022C110.371 55.8432 110.498 55.7166 110.657 55.7166C110.816 55.7166 110.942 55.8432 110.942 56.0022ZM112.885 59.3435L112.885 60.3297C112.885 60.4886 112.759 60.6152 112.6 60.6152C112.441 60.6152 112.314 60.4886 112.314 60.3297L112.314 59.3435C112.314 59.1845 112.441 59.0579 112.6 59.0579C112.756 59.0579 112.885 59.1845 112.885 59.3435ZM112.885 56.0022L112.885 56.9854C112.885 57.1444 112.759 57.271 112.6 57.271C112.441 57.271 112.314 57.1444 112.314 56.9854L112.314 56.0022C112.314 55.8432 112.441 55.7166 112.6 55.7166C112.756 55.7166 112.885 55.8432 112.885 56.0022ZM114.825 59.3435L114.825 60.3297C114.825 60.4886 114.699 60.6152 114.54 60.6152C114.381 60.6152 114.254 60.4886 114.254 60.3297L114.254 59.3435C114.254 59.1845 114.381 59.0579 114.54 59.0579C114.699 59.0579 114.825 59.1845 114.825 59.3435ZM114.825 56.0022L114.825 56.9854C114.825 57.1444 114.699 57.271 114.54 57.271C114.381 57.271 114.254 57.1444 114.254 56.9854L114.254 56.0022C114.254 55.8432 114.381 55.7166 114.54 55.7166C114.699 55.7166 114.825 55.8432 114.825 56.0022ZM116.765 59.3435L116.765 60.3297C116.765 60.4886 116.639 60.6152 116.48 60.6152C116.321 60.6152 116.194 60.4886 116.194 60.3297L116.194 59.3435C116.194 59.1845 116.321 59.0579 116.48 59.0579C116.639 59.0579 116.765 59.1845 116.765 59.3435ZM116.765 56.0022L116.765 56.9854C116.765 57.1444 116.639 57.271 116.48 57.271C116.321 57.271 116.194 57.1444 116.194 56.9854L116.194 56.0022C116.194 55.8432 116.321 55.7166 116.48 55.7166C116.639 55.7166 116.765 55.8432 116.765 56.0022ZM118.705 59.3435L118.705 60.3297C118.705 60.4886 118.579 60.6152 118.42 60.6152C118.261 60.6152 118.134 60.4886 118.134 60.3297L118.134 59.3435C118.134 59.1845 118.261 59.0579 118.42 59.0579C118.576 59.0579 118.705 59.1845 118.705 59.3435ZM118.705 56.0022L118.705 56.9854C118.705 57.1444 118.579 57.271 118.42 57.271C118.261 57.271 118.134 57.1444 118.134 56.9854L118.134 56.0022C118.134 55.8432 118.261 55.7166 118.42 55.7166C118.576 55.7166 118.705 55.8432 118.705 56.0022ZM120.645 59.3435L120.645 60.3297C120.645 60.4886 120.519 60.6152 120.36 60.6152C120.201 60.6152 120.074 60.4886 120.074 60.3297L120.074 59.3435C120.074 59.1845 120.201 59.0579 120.36 59.0579C120.519 59.0579 120.645 59.1845 120.645 59.3435ZM120.645 56.0022L120.645 56.9854C120.645 57.1444 120.519 57.271 120.36 57.271C120.201 57.271 120.074 57.1444 120.074 56.9854L120.074 56.0022C120.074 55.8432 120.201 55.7166 120.36 55.7166C120.519 55.7166 120.645 55.8432 120.645 56.0022ZM122.588 59.3435L122.588 60.3297C122.588 60.4886 122.462 60.6152 122.303 60.6152C122.144 60.6152 122.017 60.4886 122.017 60.3297L122.017 59.3435C122.017 59.1845 122.144 59.0579 122.303 59.0579C122.462 59.0579 122.588 59.1845 122.588 59.3435ZM122.588 56.0022L122.588 56.9854C122.588 57.1444 122.462 57.271 122.303 57.271C122.144 57.271 122.017 57.1444 122.017 56.9854L122.017 56.0022C122.017 55.8432 122.144 55.7166 122.303 55.7166C122.462 55.7166 122.588 55.8432 122.588 56.0022ZM124.525 59.3435L124.525 60.3297C124.525 60.4886 124.399 60.6152 124.24 60.6152C124.081 60.6152 123.954 60.4886 123.954 60.3297L123.954 59.3435C123.954 59.1845 124.081 59.0579 124.24 59.0579C124.399 59.0579 124.525 59.1845 124.525 59.3435ZM124.525 56.0022L124.525 56.9854C124.525 57.1444 124.399 57.271 124.24 57.271C124.081 57.271 123.954 57.1444 123.954 56.9854L123.954 56.0022C123.954 55.8432 124.081 55.7166 124.24 55.7166C124.399 55.7166 124.525 55.8432 124.525 56.0022ZM126.465 59.3435L126.465 60.3297C126.465 60.4886 126.339 60.6152 126.18 60.6152C126.021 60.6152 125.894 60.4886 125.894 60.3297L125.894 59.3435C125.894 59.1845 126.021 59.0579 126.18 59.0579C126.339 59.0579 126.465 59.1845 126.465 59.3435ZM126.465 56.0022L126.465 56.9854C126.465 57.1444 126.339 57.271 126.18 57.271C126.021 57.271 125.894 57.1444 125.894 56.9854L125.894 56.0022C125.894 55.8432 126.021 55.7166 126.18 55.7166C126.339 55.7166 126.465 55.8432 126.465 56.0022Z" fill="#56E4EE"/>
<path d="M111.825 53.9489C111.825 54.0225 111.795 54.0961 111.739 54.1521L110.423 55.4415C110.311 55.5533 110.129 55.5504 110.02 55.4385C109.908 55.3267 109.911 55.1442 110.023 55.0352L111.339 53.7458C111.451 53.6339 111.633 53.6369 111.742 53.7487C111.798 53.8047 111.825 53.8753 111.825 53.9489ZM114.339 53.9489C114.339 54.0225 114.309 54.0961 114.253 54.1521L112.937 55.4415C112.825 55.5533 112.643 55.5504 112.534 55.4385C112.425 55.3267 112.425 55.1442 112.537 55.0352L113.853 53.7458C113.965 53.6339 114.147 53.6369 114.256 53.7487C114.312 53.8047 114.339 53.8753 114.339 53.9489ZM116.856 53.9489C116.856 54.0225 116.826 54.0961 116.77 54.1521L115.457 55.4415C115.345 55.5533 115.163 55.5504 115.054 55.4385C114.942 55.3267 114.945 55.1441 115.057 55.0352L116.37 53.7458C116.482 53.6339 116.664 53.6369 116.773 53.7487C116.826 53.8047 116.856 53.8753 116.856 53.9489ZM119.373 53.9489C119.373 54.0225 119.343 54.0961 119.287 54.1521L117.971 55.4415C117.86 55.5533 117.677 55.5504 117.568 55.4385C117.456 55.3267 117.459 55.1441 117.571 55.0352L118.887 53.7458C118.999 53.6339 119.181 53.6369 119.29 53.7487C119.346 53.8047 119.373 53.8753 119.373 53.9489ZM121.887 53.9489C121.887 54.0225 121.857 54.0961 121.801 54.1521L120.488 55.4415C120.377 55.5533 120.194 55.5504 120.085 55.4385C119.973 55.3267 119.976 55.1441 120.088 55.0352L121.401 53.7458C121.513 53.6339 121.695 53.6369 121.804 53.7487C121.86 53.8047 121.887 53.8753 121.887 53.9489ZM124.401 53.9489C124.401 54.0225 124.371 54.0961 124.315 54.1521L123.002 55.4415C122.891 55.5533 122.708 55.5504 122.599 55.4385C122.487 55.3267 122.49 55.1441 122.602 55.0352L123.915 53.7458C124.027 53.6339 124.209 53.6369 124.318 53.7487C124.374 53.8047 124.401 53.8753 124.401 53.9489ZM126.703 54.1609C126.703 54.2345 126.674 54.3081 126.618 54.364L125.52 55.4415C125.408 55.5504 125.225 55.5504 125.116 55.4356C125.007 55.3237 125.007 55.1412 125.119 55.0323L126.217 53.9548C126.329 53.8459 126.512 53.8459 126.621 53.9607C126.676 54.0166 126.703 54.0873 126.703 54.1609Z" fill="#3EBED0"/>
<path d="M111.822 62.2154C111.822 62.2861 111.795 62.3597 111.739 62.4156C111.63 62.5275 111.448 62.5304 111.336 62.4185L110.023 61.1321C109.911 61.0202 109.908 60.8406 110.02 60.7287C110.129 60.6169 110.311 60.6139 110.423 60.7258L111.736 62.0123C111.792 62.0682 111.822 62.1418 111.822 62.2154ZM114.336 62.2154C114.336 62.2861 114.309 62.3597 114.253 62.4156C114.144 62.5275 113.962 62.5304 113.85 62.4185L112.537 61.1321C112.425 61.0202 112.422 60.8406 112.534 60.7287C112.643 60.6169 112.825 60.6139 112.937 60.7258L114.25 62.0123C114.309 62.0682 114.336 62.1418 114.336 62.2154ZM116.853 62.2154C116.853 62.289 116.826 62.3597 116.77 62.4156C116.658 62.5275 116.479 62.5304 116.367 62.4185L115.057 61.1321C114.945 61.0202 114.942 60.8406 115.054 60.7287C115.166 60.6169 115.345 60.6139 115.457 60.7258L116.767 62.0123C116.823 62.0682 116.853 62.1418 116.853 62.2154ZM119.37 62.2154C119.37 62.2861 119.343 62.3597 119.287 62.4156C119.178 62.5275 118.996 62.5304 118.884 62.4185L117.571 61.1321C117.459 61.0202 117.456 60.8406 117.568 60.7287C117.677 60.6169 117.86 60.6139 117.971 60.7258L119.284 62.0123C119.34 62.0682 119.37 62.1418 119.37 62.2154ZM121.884 62.2154C121.884 62.289 121.857 62.3597 121.801 62.4156C121.69 62.5275 121.51 62.5304 121.398 62.4185L120.088 61.1321C119.976 61.0202 119.973 60.8406 120.085 60.7287C120.197 60.6169 120.377 60.6139 120.488 60.7258L121.798 62.0123C121.854 62.0682 121.884 62.1418 121.884 62.2154ZM124.398 62.2154C124.398 62.289 124.371 62.3597 124.315 62.4156C124.204 62.5275 124.024 62.5304 123.912 62.4185L122.602 61.1321C122.49 61.0202 122.487 60.8406 122.599 60.7287C122.711 60.6169 122.891 60.6139 123.002 60.7258L124.313 62.0123C124.371 62.0682 124.398 62.1418 124.398 62.2154ZM126.703 62.0064C126.703 62.077 126.676 62.1506 126.621 62.2066C126.512 62.3184 126.329 62.3214 126.217 62.2095L125.119 61.1321C125.007 61.0202 125.004 60.8406 125.116 60.7287C125.225 60.6169 125.408 60.6139 125.52 60.7258L126.618 61.8033C126.674 61.8592 126.703 61.9328 126.703 62.0064Z" fill="#3EBED0"/>
<path d="M127.841 55.9832L127.841 60.1812C127.841 61.1703 127.214 62.0506 126.281 62.3744C126.181 62.4097 126.069 62.4392 125.96 62.4598C125.821 62.4863 125.671 62.501 125.521 62.501L111.323 62.501C111.276 62.501 111.229 62.501 111.181 62.498C111.025 62.4892 110.869 62.4627 110.71 62.4215C110.705 62.4215 110.702 62.4185 110.696 62.4185C110.487 62.3597 110.286 62.2714 110.101 62.1565C109.412 61.7267 109 60.9908 109 60.1812L109 55.9862C109 54.9499 109.698 54.0314 110.693 53.7517C110.849 53.7076 111.014 53.6781 111.176 53.6693C111.223 53.6664 111.27 53.6664 111.32 53.6664L125.518 53.6664C125.668 53.6664 125.818 53.6811 125.96 53.7105C126.066 53.7311 126.175 53.7576 126.281 53.7959C127.214 54.1138 127.841 54.9941 127.841 55.9832ZM110.84 61.8622C110.843 61.8622 110.846 61.8651 110.852 61.8651C110.972 61.8975 111.096 61.9181 111.217 61.9269C111.252 61.9299 111.287 61.9299 111.326 61.9299L125.524 61.9299C125.639 61.9299 125.751 61.9181 125.857 61.8975C125.942 61.8828 126.019 61.8622 126.092 61.8327C126.799 61.5884 127.273 60.9231 127.273 60.1782L127.273 55.9832C127.273 55.2384 126.799 54.5731 126.095 54.3317C126.016 54.3022 125.939 54.2816 125.86 54.2669C125.748 54.2463 125.636 54.2345 125.524 54.2345L111.323 54.2345C111.287 54.2345 111.249 54.2345 111.214 54.2375C111.09 54.2463 110.969 54.2669 110.849 54.2993C110.095 54.5113 109.571 55.2031 109.571 55.9832L109.571 60.1812C109.571 60.7906 109.88 61.347 110.401 61.6708C110.537 61.7532 110.684 61.818 110.84 61.8622Z" fill="#3EBED0"/>
<path d="M127.841 2.83847C127.841 2.99744 127.714 3.12402 127.555 3.12402L109.286 3.12402C109.127 3.12402 109 2.99744 109 2.83847C109 2.6795 109.127 2.55291 109.286 2.55291L127.555 2.55291C127.711 2.55291 127.841 2.6795 127.841 2.83847Z" fill="#56E4EE"/>
<path d="M127.841 4.41659C127.841 4.57556 127.714 4.70215 127.555 4.70215L109.286 4.70215C109.127 4.70215 109 4.57262 109 4.41659C109 4.25762 109.127 4.13103 109.286 4.13103L127.555 4.13103C127.711 4.13103 127.841 4.25762 127.841 4.41659Z" fill="#3EBED0"/>
<path d="M127.841 6.24862C127.841 6.40759 127.714 6.53418 127.555 6.53418L109.286 6.53418C109.127 6.53418 109 6.40759 109 6.24862C109 6.08965 109.127 5.96307 109.286 5.96307L127.555 5.96306C127.711 5.96306 127.841 6.0926 127.841 6.24862Z" fill="#56E4EE"/>
<path d="M110.942 5.68039L110.942 6.66659C110.942 6.82556 110.816 6.95215 110.657 6.95215C110.498 6.95215 110.371 6.82556 110.371 6.66659L110.371 5.68039C110.371 5.52142 110.498 5.39483 110.657 5.39483C110.816 5.39483 110.942 5.52142 110.942 5.68039ZM110.942 2.33907L110.942 3.32233C110.942 3.4813 110.816 3.60789 110.657 3.60789C110.498 3.60789 110.371 3.4813 110.371 3.32233L110.371 2.33907C110.371 2.1801 110.498 2.05352 110.657 2.05352C110.816 2.05352 110.942 2.1801 110.942 2.33907ZM112.885 5.68039L112.885 6.66659C112.885 6.82556 112.759 6.95215 112.6 6.95215C112.441 6.95215 112.314 6.82556 112.314 6.66659L112.314 5.68039C112.314 5.52142 112.441 5.39483 112.6 5.39483C112.756 5.39483 112.885 5.52142 112.885 5.68039ZM112.885 2.33907L112.885 3.32233C112.885 3.4813 112.759 3.60789 112.6 3.60789C112.441 3.60789 112.314 3.4813 112.314 3.32233L112.314 2.33907C112.314 2.1801 112.441 2.05352 112.6 2.05352C112.756 2.05352 112.885 2.1801 112.885 2.33907ZM114.825 5.68039L114.825 6.66659C114.825 6.82556 114.699 6.95215 114.54 6.95215C114.381 6.95215 114.254 6.82556 114.254 6.66659L114.254 5.68039C114.254 5.52142 114.381 5.39483 114.54 5.39483C114.699 5.39483 114.825 5.52142 114.825 5.68039ZM114.825 2.33907L114.825 3.32233C114.825 3.4813 114.699 3.60789 114.54 3.60789C114.381 3.60789 114.254 3.4813 114.254 3.32233L114.254 2.33907C114.254 2.1801 114.381 2.05352 114.54 2.05352C114.699 2.05352 114.825 2.1801 114.825 2.33907ZM116.765 5.68039L116.765 6.66659C116.765 6.82556 116.639 6.95215 116.48 6.95215C116.321 6.95215 116.194 6.82556 116.194 6.66659L116.194 5.68039C116.194 5.52142 116.321 5.39483 116.48 5.39483C116.639 5.39483 116.765 5.52142 116.765 5.68039ZM116.765 2.33907L116.765 3.32233C116.765 3.4813 116.639 3.60789 116.48 3.60789C116.321 3.60789 116.194 3.4813 116.194 3.32233L116.194 2.33907C116.194 2.1801 116.321 2.05352 116.48 2.05352C116.639 2.05352 116.765 2.1801 116.765 2.33907ZM118.705 5.68039L118.705 6.66659C118.705 6.82556 118.579 6.95215 118.42 6.95215C118.261 6.95215 118.134 6.82556 118.134 6.66659L118.134 5.68039C118.134 5.52142 118.261 5.39483 118.42 5.39483C118.576 5.39483 118.705 5.52142 118.705 5.68039ZM118.705 2.33907L118.705 3.32233C118.705 3.4813 118.579 3.60789 118.42 3.60789C118.261 3.60789 118.134 3.4813 118.134 3.32233L118.134 2.33907C118.134 2.1801 118.261 2.05352 118.42 2.05352C118.576 2.05352 118.705 2.1801 118.705 2.33907ZM120.645 5.68039L120.645 6.66659C120.645 6.82556 120.519 6.95215 120.36 6.95215C120.201 6.95215 120.074 6.82556 120.074 6.66659L120.074 5.68039C120.074 5.52142 120.201 5.39483 120.36 5.39483C120.519 5.39483 120.645 5.52142 120.645 5.68039ZM120.645 2.33907L120.645 3.32233C120.645 3.4813 120.519 3.60789 120.36 3.60789C120.201 3.60789 120.074 3.4813 120.074 3.32233L120.074 2.33907C120.074 2.1801 120.201 2.05352 120.36 2.05352C120.519 2.05352 120.645 2.1801 120.645 2.33907ZM122.588 5.68039L122.588 6.66659C122.588 6.82556 122.462 6.95215 122.303 6.95215C122.144 6.95215 122.017 6.82556 122.017 6.66659L122.017 5.68039C122.017 5.52142 122.144 5.39483 122.303 5.39483C122.462 5.39483 122.588 5.52142 122.588 5.68039ZM122.588 2.33907L122.588 3.32233C122.588 3.4813 122.462 3.60789 122.303 3.60789C122.144 3.60789 122.017 3.4813 122.017 3.32233L122.017 2.33907C122.017 2.1801 122.144 2.05352 122.303 2.05352C122.462 2.05352 122.588 2.1801 122.588 2.33907ZM124.525 5.68039L124.525 6.66659C124.525 6.82556 124.399 6.95215 124.24 6.95215C124.081 6.95215 123.954 6.82556 123.954 6.66659L123.954 5.68039C123.954 5.52142 124.081 5.39483 124.24 5.39483C124.399 5.39483 124.525 5.52142 124.525 5.68039ZM124.525 2.33907L124.525 3.32233C124.525 3.4813 124.399 3.60789 124.24 3.60789C124.081 3.60789 123.954 3.4813 123.954 3.32233L123.954 2.33907C123.954 2.1801 124.081 2.05352 124.24 2.05352C124.399 2.05352 124.525 2.1801 124.525 2.33907ZM126.465 5.68039L126.465 6.66659C126.465 6.82556 126.339 6.95215 126.18 6.95215C126.021 6.95215 125.894 6.82556 125.894 6.66659L125.894 5.68039C125.894 5.52142 126.021 5.39483 126.18 5.39483C126.339 5.39483 126.465 5.52142 126.465 5.68039ZM126.465 2.33907L126.465 3.32233C126.465 3.4813 126.339 3.60789 126.18 3.60789C126.021 3.60789 125.894 3.4813 125.894 3.32233L125.894 2.33907C125.894 2.1801 126.021 2.05352 126.18 2.05352C126.339 2.05352 126.465 2.1801 126.465 2.33907Z" fill="#56E4EE"/>
<path d="M111.825 0.285845C111.825 0.359442 111.795 0.43304 111.739 0.488974L110.423 1.7784C110.311 1.89026 110.129 1.88732 110.02 1.77545C109.908 1.66359 109.911 1.48106 110.023 1.37214L111.339 0.0827168C111.451 -0.029151 111.633 -0.0262076 111.742 0.0856601C111.798 0.141594 111.825 0.212247 111.825 0.285845ZM114.339 0.285845C114.339 0.359442 114.309 0.43304 114.253 0.488974L112.937 1.7784C112.825 1.89026 112.643 1.88732 112.534 1.77545C112.425 1.66358 112.425 1.48106 112.537 1.37214L113.853 0.0827166C113.965 -0.0291511 114.147 -0.0262077 114.256 0.08566C114.312 0.141594 114.339 0.212247 114.339 0.285845ZM116.856 0.285844C116.856 0.359442 116.826 0.43304 116.77 0.488973L115.457 1.7784C115.345 1.89026 115.163 1.88732 115.054 1.77545C114.942 1.66358 114.945 1.48106 115.057 1.37214L116.37 0.0827165C116.482 -0.0291512 116.664 -0.0262078 116.773 0.0856599C116.826 0.141594 116.856 0.212247 116.856 0.285844ZM119.373 0.285844C119.373 0.359442 119.343 0.433039 119.287 0.488973L117.971 1.7784C117.86 1.89026 117.677 1.88732 117.568 1.77545C117.456 1.66358 117.459 1.48106 117.571 1.37214L118.887 0.0827164C118.999 -0.0291513 119.181 -0.026208 119.29 0.0856598C119.346 0.141594 119.373 0.212247 119.373 0.285844ZM121.887 0.285844C121.887 0.359441 121.857 0.433039 121.801 0.488973L120.488 1.7784C120.377 1.89026 120.194 1.88732 120.085 1.77545C119.973 1.66358 119.976 1.48106 120.088 1.37214L121.401 0.0827163C121.513 -0.0291515 121.695 -0.0262081 121.804 0.0856597C121.86 0.141594 121.887 0.212247 121.887 0.285844ZM124.401 0.285844C124.401 0.359441 124.371 0.433039 124.315 0.488973L123.002 1.7784C122.891 1.89026 122.708 1.88732 122.599 1.77545C122.487 1.66358 122.49 1.48106 122.602 1.37214L123.915 0.0827162C124.027 -0.0291516 124.209 -0.0262082 124.318 0.0856596C124.374 0.141593 124.401 0.212247 124.401 0.285844ZM126.703 0.497804C126.703 0.571402 126.674 0.644998 126.618 0.700932L125.52 1.7784C125.408 1.88732 125.225 1.88732 125.116 1.77251C125.007 1.66064 125.007 1.47812 125.119 1.3692L126.217 0.291732C126.329 0.182808 126.512 0.182808 126.621 0.29762C126.676 0.353554 126.703 0.424207 126.703 0.497804Z" fill="#3EBED0"/>
<path d="M111.822 8.55134C111.822 8.622 111.795 8.69559 111.739 8.75153C111.63 8.86339 111.448 8.86634 111.336 8.75447L110.023 7.46799C109.911 7.35612 109.908 7.17655 110.02 7.06468C110.129 6.95281 110.311 6.94987 110.423 7.06173L111.736 8.34821C111.792 8.40415 111.822 8.47775 111.822 8.55134ZM114.336 8.55134C114.336 8.622 114.309 8.69559 114.253 8.75153C114.144 8.86339 113.962 8.86634 113.85 8.75447L112.537 7.46799C112.425 7.35612 112.422 7.17655 112.534 7.06468C112.643 6.95281 112.825 6.94987 112.937 7.06173L114.25 8.34821C114.309 8.40415 114.336 8.47775 114.336 8.55134ZM116.853 8.55134C116.853 8.62494 116.826 8.69559 116.77 8.75153C116.658 8.86339 116.479 8.86634 116.367 8.75447L115.057 7.46799C114.945 7.35612 114.942 7.17655 115.054 7.06468C115.166 6.95281 115.345 6.94987 115.457 7.06173L116.767 8.34821C116.823 8.40415 116.853 8.47775 116.853 8.55134ZM119.37 8.55134C119.37 8.622 119.343 8.69559 119.287 8.75153C119.178 8.86339 118.996 8.86634 118.884 8.75447L117.571 7.46799C117.459 7.35612 117.456 7.17655 117.568 7.06468C117.677 6.95281 117.86 6.94987 117.971 7.06173L119.284 8.34821C119.34 8.40415 119.37 8.47775 119.37 8.55134ZM121.884 8.55134C121.884 8.62494 121.857 8.69559 121.801 8.75153C121.69 8.86339 121.51 8.86634 121.398 8.75447L120.088 7.46799C119.976 7.35612 119.973 7.17655 120.085 7.06468C120.197 6.95281 120.377 6.94987 120.488 7.06173L121.798 8.34821C121.854 8.40415 121.884 8.47775 121.884 8.55134ZM124.398 8.55134C124.398 8.62494 124.371 8.69559 124.315 8.75153C124.204 8.86339 124.024 8.86634 123.912 8.75447L122.602 7.46799C122.49 7.35612 122.487 7.17655 122.599 7.06468C122.711 6.95281 122.891 6.94987 123.002 7.06173L124.313 8.34821C124.371 8.40415 124.398 8.47774 124.398 8.55134ZM126.703 8.34233C126.703 8.41298 126.676 8.48658 126.621 8.54251C126.512 8.65438 126.329 8.65732 126.217 8.54545L125.119 7.46799C125.007 7.35612 125.004 7.17655 125.116 7.06468C125.225 6.95281 125.408 6.94987 125.52 7.06173L126.618 8.1392C126.674 8.19513 126.703 8.26873 126.703 8.34233Z" fill="#3EBED0"/>
<path d="M127.841 2.31914L127.841 6.51713C127.841 7.50628 127.214 8.3865 126.281 8.71033C126.181 8.74565 126.069 8.77509 125.96 8.7957C125.821 8.82219 125.671 8.83691 125.521 8.83691L111.323 8.83691C111.276 8.83691 111.229 8.83691 111.181 8.83397C111.025 8.82514 110.869 8.79864 110.71 8.75743C110.705 8.75743 110.702 8.75448 110.696 8.75448C110.487 8.69561 110.286 8.60729 110.101 8.49248C109.412 8.06267 109 7.3267 109 6.51713L109 2.32209C109 1.28584 109.698 0.367348 110.693 0.0876781C110.849 0.0435198 111.014 0.0140802 111.176 0.00524849C111.223 0.0023046 111.27 0.00230509 111.32 0.00230509L125.518 0.00230446C125.668 0.00230446 125.818 0.0170243 125.96 0.0464632C126.066 0.0670704 126.175 0.0935646 126.281 0.131835C127.214 0.449775 127.841 1.33 127.841 2.31914ZM110.84 8.19809C110.843 8.19809 110.846 8.20103 110.852 8.20103C110.972 8.23342 111.096 8.25402 111.217 8.26286C111.252 8.2658 111.287 8.2658 111.326 8.2658L125.524 8.2658C125.639 8.2658 125.751 8.25402 125.857 8.23342C125.942 8.2187 126.019 8.19809 126.092 8.16865C126.799 7.92431 127.273 7.25899 127.273 6.51419L127.273 2.31914C127.273 1.57434 126.799 0.909022 126.095 0.667623C126.016 0.638184 125.939 0.617577 125.86 0.602858C125.748 0.582251 125.636 0.570475 125.524 0.570475L111.323 0.570476C111.287 0.570476 111.249 0.570475 111.214 0.573419C111.09 0.582251 110.969 0.602859 110.849 0.635242C110.095 0.847202 109.571 1.53901 109.571 2.31914L109.571 6.51713C109.571 7.12651 109.88 7.68291 110.401 8.00674C110.537 8.08917 110.684 8.15393 110.84 8.19809Z" fill="#3EBED0"/>
<path d="M127.841 13.8385C127.841 13.9974 127.714 14.124 127.555 14.124L109.286 14.124C109.127 14.124 109 13.9974 109 13.8385C109 13.6795 109.127 13.5529 109.286 13.5529L127.555 13.5529C127.711 13.5529 127.841 13.6795 127.841 13.8385Z" fill="#56E4EE"/>
<path d="M127.841 15.4166C127.841 15.5756 127.714 15.7021 127.555 15.7021L109.286 15.7021C109.127 15.7021 109 15.5726 109 15.4166C109 15.2576 109.127 15.131 109.286 15.131L127.555 15.131C127.711 15.131 127.841 15.2576 127.841 15.4166Z" fill="#3EBED0"/>
<path d="M127.841 17.2486C127.841 17.4076 127.714 17.5342 127.555 17.5342L109.286 17.5342C109.127 17.5342 109 17.4076 109 17.2486C109 17.0897 109.127 16.9631 109.286 16.9631L127.555 16.9631C127.711 16.9631 127.841 17.0926 127.841 17.2486Z" fill="#56E4EE"/>
<path d="M110.942 16.6804L110.942 17.6666C110.942 17.8256 110.816 17.9521 110.657 17.9521C110.498 17.9521 110.371 17.8256 110.371 17.6666L110.371 16.6804C110.371 16.5214 110.498 16.3948 110.657 16.3948C110.816 16.3948 110.942 16.5214 110.942 16.6804ZM110.942 13.3391L110.942 14.3223C110.942 14.4813 110.816 14.6079 110.657 14.6079C110.498 14.6079 110.371 14.4813 110.371 14.3223L110.371 13.3391C110.371 13.1801 110.498 13.0535 110.657 13.0535C110.816 13.0535 110.942 13.1801 110.942 13.3391ZM112.885 16.6804L112.885 17.6666C112.885 17.8256 112.759 17.9521 112.6 17.9521C112.441 17.9521 112.314 17.8256 112.314 17.6666L112.314 16.6804C112.314 16.5214 112.441 16.3948 112.6 16.3948C112.756 16.3948 112.885 16.5214 112.885 16.6804ZM112.885 13.3391L112.885 14.3223C112.885 14.4813 112.759 14.6079 112.6 14.6079C112.441 14.6079 112.314 14.4813 112.314 14.3223L112.314 13.3391C112.314 13.1801 112.441 13.0535 112.6 13.0535C112.756 13.0535 112.885 13.1801 112.885 13.3391ZM114.825 16.6804L114.825 17.6666C114.825 17.8256 114.699 17.9521 114.54 17.9521C114.381 17.9521 114.254 17.8256 114.254 17.6666L114.254 16.6804C114.254 16.5214 114.381 16.3948 114.54 16.3948C114.699 16.3948 114.825 16.5214 114.825 16.6804ZM114.825 13.3391L114.825 14.3223C114.825 14.4813 114.699 14.6079 114.54 14.6079C114.381 14.6079 114.254 14.4813 114.254 14.3223L114.254 13.3391C114.254 13.1801 114.381 13.0535 114.54 13.0535C114.699 13.0535 114.825 13.1801 114.825 13.3391ZM116.765 16.6804L116.765 17.6666C116.765 17.8256 116.639 17.9521 116.48 17.9521C116.321 17.9521 116.194 17.8256 116.194 17.6666L116.194 16.6804C116.194 16.5214 116.321 16.3948 116.48 16.3948C116.639 16.3948 116.765 16.5214 116.765 16.6804ZM116.765 13.3391L116.765 14.3223C116.765 14.4813 116.639 14.6079 116.48 14.6079C116.321 14.6079 116.194 14.4813 116.194 14.3223L116.194 13.3391C116.194 13.1801 116.321 13.0535 116.48 13.0535C116.639 13.0535 116.765 13.1801 116.765 13.3391ZM118.705 16.6804L118.705 17.6666C118.705 17.8256 118.579 17.9521 118.42 17.9521C118.261 17.9521 118.134 17.8256 118.134 17.6666L118.134 16.6804C118.134 16.5214 118.261 16.3948 118.42 16.3948C118.576 16.3948 118.705 16.5214 118.705 16.6804ZM118.705 13.3391L118.705 14.3223C118.705 14.4813 118.579 14.6079 118.42 14.6079C118.261 14.6079 118.134 14.4813 118.134 14.3223L118.134 13.3391C118.134 13.1801 118.261 13.0535 118.42 13.0535C118.576 13.0535 118.705 13.1801 118.705 13.3391ZM120.645 16.6804L120.645 17.6666C120.645 17.8256 120.519 17.9521 120.36 17.9521C120.201 17.9521 120.074 17.8256 120.074 17.6666L120.074 16.6804C120.074 16.5214 120.201 16.3948 120.36 16.3948C120.519 16.3948 120.645 16.5214 120.645 16.6804ZM120.645 13.3391L120.645 14.3223C120.645 14.4813 120.519 14.6079 120.36 14.6079C120.201 14.6079 120.074 14.4813 120.074 14.3223L120.074 13.3391C120.074 13.1801 120.201 13.0535 120.36 13.0535C120.519 13.0535 120.645 13.1801 120.645 13.3391ZM122.588 16.6804L122.588 17.6666C122.588 17.8256 122.462 17.9521 122.303 17.9521C122.144 17.9521 122.017 17.8256 122.017 17.6666L122.017 16.6804C122.017 16.5214 122.144 16.3948 122.303 16.3948C122.462 16.3948 122.588 16.5214 122.588 16.6804ZM122.588 13.3391L122.588 14.3223C122.588 14.4813 122.462 14.6079 122.303 14.6079C122.144 14.6079 122.017 14.4813 122.017 14.3223L122.017 13.3391C122.017 13.1801 122.144 13.0535 122.303 13.0535C122.462 13.0535 122.588 13.1801 122.588 13.3391ZM124.525 16.6804L124.525 17.6666C124.525 17.8256 124.399 17.9521 124.24 17.9521C124.081 17.9521 123.954 17.8256 123.954 17.6666L123.954 16.6804C123.954 16.5214 124.081 16.3948 124.24 16.3948C124.399 16.3948 124.525 16.5214 124.525 16.6804ZM124.525 13.3391L124.525 14.3223C124.525 14.4813 124.399 14.6079 124.24 14.6079C124.081 14.6079 123.954 14.4813 123.954 14.3223L123.954 13.3391C123.954 13.1801 124.081 13.0535 124.24 13.0535C124.399 13.0535 124.525 13.1801 124.525 13.3391ZM126.465 16.6804L126.465 17.6666C126.465 17.8256 126.339 17.9521 126.18 17.9521C126.021 17.9521 125.894 17.8256 125.894 17.6666L125.894 16.6804C125.894 16.5214 126.021 16.3948 126.18 16.3948C126.339 16.3948 126.465 16.5214 126.465 16.6804ZM126.465 13.3391L126.465 14.3223C126.465 14.4813 126.339 14.6079 126.18 14.6079C126.021 14.6079 125.894 14.4813 125.894 14.3223L125.894 13.3391C125.894 13.1801 126.021 13.0535 126.18 13.0535C126.339 13.0535 126.465 13.1801 126.465 13.3391Z" fill="#56E4EE"/>
<path d="M111.825 11.2858C111.825 11.3594 111.795 11.433 111.739 11.489L110.423 12.7784C110.311 12.8903 110.129 12.8873 110.02 12.7755C109.908 12.6636 109.911 12.4811 110.023 12.3721L111.339 11.0827C111.451 10.9708 111.633 10.9738 111.742 11.0857C111.798 11.1416 111.825 11.2122 111.825 11.2858ZM114.339 11.2858C114.339 11.3594 114.309 11.433 114.253 11.489L112.937 12.7784C112.825 12.8903 112.643 12.8873 112.534 12.7755C112.425 12.6636 112.425 12.4811 112.537 12.3721L113.853 11.0827C113.965 10.9708 114.147 10.9738 114.256 11.0857C114.312 11.1416 114.339 11.2122 114.339 11.2858ZM116.856 11.2858C116.856 11.3594 116.826 11.433 116.77 11.489L115.457 12.7784C115.345 12.8903 115.163 12.8873 115.054 12.7755C114.942 12.6636 114.945 12.4811 115.057 12.3721L116.37 11.0827C116.482 10.9708 116.664 10.9738 116.773 11.0857C116.826 11.1416 116.856 11.2122 116.856 11.2858ZM119.373 11.2858C119.373 11.3594 119.343 11.433 119.287 11.489L117.971 12.7784C117.86 12.8903 117.677 12.8873 117.568 12.7755C117.456 12.6636 117.459 12.4811 117.571 12.3721L118.887 11.0827C118.999 10.9708 119.181 10.9738 119.29 11.0857C119.346 11.1416 119.373 11.2122 119.373 11.2858ZM121.887 11.2858C121.887 11.3594 121.857 11.433 121.801 11.489L120.488 12.7784C120.377 12.8903 120.194 12.8873 120.085 12.7755C119.973 12.6636 119.976 12.4811 120.088 12.3721L121.401 11.0827C121.513 10.9708 121.695 10.9738 121.804 11.0857C121.86 11.1416 121.887 11.2122 121.887 11.2858ZM124.401 11.2858C124.401 11.3594 124.371 11.433 124.315 11.489L123.002 12.7784C122.891 12.8903 122.708 12.8873 122.599 12.7755C122.487 12.6636 122.49 12.4811 122.602 12.3721L123.915 11.0827C124.027 10.9708 124.209 10.9738 124.318 11.0857C124.374 11.1416 124.401 11.2122 124.401 11.2858ZM126.703 11.4978C126.703 11.5714 126.674 11.645 126.618 11.7009L125.52 12.7784C125.408 12.8873 125.225 12.8873 125.116 12.7725C125.007 12.6606 125.007 12.4781 125.119 12.3692L126.217 11.2917C126.329 11.1828 126.512 11.1828 126.621 11.2976C126.676 11.3536 126.703 11.4242 126.703 11.4978Z" fill="#3EBED0"/>
<path d="M111.822 19.5513C111.822 19.622 111.795 19.6956 111.739 19.7515C111.63 19.8634 111.448 19.8663 111.336 19.7545L110.023 18.468C109.911 18.3561 109.908 18.1765 110.02 18.0647C110.129 17.9528 110.311 17.9499 110.423 18.0617L111.736 19.3482C111.792 19.4041 111.822 19.4777 111.822 19.5513ZM114.336 19.5513C114.336 19.622 114.309 19.6956 114.253 19.7515C114.144 19.8634 113.962 19.8663 113.85 19.7545L112.537 18.468C112.425 18.3561 112.422 18.1765 112.534 18.0647C112.643 17.9528 112.825 17.9499 112.937 18.0617L114.25 19.3482C114.309 19.4041 114.336 19.4777 114.336 19.5513ZM116.853 19.5513C116.853 19.6249 116.826 19.6956 116.77 19.7515C116.658 19.8634 116.479 19.8663 116.367 19.7545L115.057 18.468C114.945 18.3561 114.942 18.1765 115.054 18.0647C115.166 17.9528 115.345 17.9499 115.457 18.0617L116.767 19.3482C116.823 19.4041 116.853 19.4777 116.853 19.5513ZM119.37 19.5513C119.37 19.622 119.343 19.6956 119.287 19.7515C119.178 19.8634 118.996 19.8663 118.884 19.7545L117.571 18.468C117.459 18.3561 117.456 18.1765 117.568 18.0647C117.677 17.9528 117.86 17.9499 117.971 18.0617L119.284 19.3482C119.34 19.4041 119.37 19.4777 119.37 19.5513ZM121.884 19.5513C121.884 19.6249 121.857 19.6956 121.801 19.7515C121.69 19.8634 121.51 19.8663 121.398 19.7545L120.088 18.468C119.976 18.3561 119.973 18.1765 120.085 18.0647C120.197 17.9528 120.377 17.9499 120.488 18.0617L121.798 19.3482C121.854 19.4041 121.884 19.4777 121.884 19.5513ZM124.398 19.5513C124.398 19.6249 124.371 19.6956 124.315 19.7515C124.204 19.8634 124.024 19.8663 123.912 19.7545L122.602 18.468C122.49 18.3561 122.487 18.1765 122.599 18.0647C122.711 17.9528 122.891 17.9499 123.002 18.0617L124.313 19.3482C124.371 19.4041 124.398 19.4777 124.398 19.5513ZM126.703 19.3423C126.703 19.413 126.676 19.4866 126.621 19.5425C126.512 19.6544 126.329 19.6573 126.217 19.5455L125.119 18.468C125.007 18.3561 125.004 18.1765 125.116 18.0647C125.225 17.9528 125.408 17.9499 125.52 18.0617L126.618 19.1392C126.674 19.1951 126.703 19.2687 126.703 19.3423Z" fill="#3EBED0"/>
<path d="M127.841 13.3191L127.841 17.5171C127.841 18.5063 127.214 19.3865 126.281 19.7103C126.181 19.7457 126.069 19.7751 125.96 19.7957C125.821 19.8222 125.671 19.8369 125.521 19.8369L111.323 19.8369C111.276 19.8369 111.229 19.8369 111.181 19.834C111.025 19.8251 110.869 19.7986 110.71 19.7574C110.705 19.7574 110.702 19.7545 110.696 19.7545C110.487 19.6956 110.286 19.6073 110.101 19.4925C109.412 19.0627 109 18.3267 109 17.5171L109 13.3221C109 12.2858 109.698 11.3673 110.693 11.0877C110.849 11.0435 111.014 11.0141 111.176 11.0052C111.223 11.0023 111.27 11.0023 111.32 11.0023L125.518 11.0023C125.668 11.0023 125.818 11.017 125.96 11.0465C126.066 11.0671 126.175 11.0936 126.281 11.1318C127.214 11.4498 127.841 12.33 127.841 13.3191ZM110.84 19.1981C110.843 19.1981 110.846 19.201 110.852 19.201C110.972 19.2334 111.096 19.254 111.217 19.2629C111.252 19.2658 111.287 19.2658 111.326 19.2658L125.524 19.2658C125.639 19.2658 125.751 19.254 125.857 19.2334C125.942 19.2187 126.019 19.1981 126.092 19.1687C126.799 18.9243 127.273 18.259 127.273 17.5142L127.273 13.3191C127.273 12.5743 126.799 11.909 126.095 11.6676C126.016 11.6382 125.939 11.6176 125.86 11.6029C125.748 11.5823 125.636 11.5705 125.524 11.5705L111.323 11.5705C111.287 11.5705 111.249 11.5705 111.214 11.5734C111.09 11.5823 110.969 11.6029 110.849 11.6352C110.095 11.8472 109.571 12.539 109.571 13.3191L109.571 17.5171C109.571 18.1265 109.88 18.6829 110.401 19.0067C110.537 19.0892 110.684 19.1539 110.84 19.1981Z" fill="#3EBED0"/>
<path d="M127.841 45.8385C127.841 45.9974 127.714 46.124 127.555 46.124L109.286 46.124C109.127 46.124 109 45.9974 109 45.8385C109 45.6795 109.127 45.5529 109.286 45.5529L127.555 45.5529C127.711 45.5529 127.841 45.6795 127.841 45.8385Z" fill="#56E4EE"/>
<path d="M127.841 47.4166C127.841 47.5756 127.714 47.7021 127.555 47.7021L109.286 47.7021C109.127 47.7021 109 47.5726 109 47.4166C109 47.2576 109.127 47.131 109.286 47.131L127.555 47.131C127.711 47.131 127.841 47.2576 127.841 47.4166Z" fill="#3EBED0"/>
<path d="M127.841 49.2486C127.841 49.4076 127.714 49.5342 127.555 49.5342L109.286 49.5342C109.127 49.5342 109 49.4076 109 49.2486C109 49.0897 109.127 48.9631 109.286 48.9631L127.555 48.9631C127.711 48.9631 127.841 49.0926 127.841 49.2486Z" fill="#56E4EE"/>
<path d="M110.942 48.6804L110.942 49.6666C110.942 49.8256 110.816 49.9521 110.657 49.9521C110.498 49.9521 110.371 49.8256 110.371 49.6666L110.371 48.6804C110.371 48.5214 110.498 48.3948 110.657 48.3948C110.816 48.3948 110.942 48.5214 110.942 48.6804ZM110.942 45.3391L110.942 46.3223C110.942 46.4813 110.816 46.6079 110.657 46.6079C110.498 46.6079 110.371 46.4813 110.371 46.3223L110.371 45.3391C110.371 45.1801 110.498 45.0535 110.657 45.0535C110.816 45.0535 110.942 45.1801 110.942 45.3391ZM112.885 48.6804L112.885 49.6666C112.885 49.8256 112.759 49.9521 112.6 49.9521C112.441 49.9521 112.314 49.8256 112.314 49.6666L112.314 48.6804C112.314 48.5214 112.441 48.3948 112.6 48.3948C112.756 48.3948 112.885 48.5214 112.885 48.6804ZM112.885 45.3391L112.885 46.3223C112.885 46.4813 112.759 46.6079 112.6 46.6079C112.441 46.6079 112.314 46.4813 112.314 46.3223L112.314 45.3391C112.314 45.1801 112.441 45.0535 112.6 45.0535C112.756 45.0535 112.885 45.1801 112.885 45.3391ZM114.825 48.6804L114.825 49.6666C114.825 49.8256 114.699 49.9521 114.54 49.9521C114.381 49.9521 114.254 49.8256 114.254 49.6666L114.254 48.6804C114.254 48.5214 114.381 48.3948 114.54 48.3948C114.699 48.3948 114.825 48.5214 114.825 48.6804ZM114.825 45.3391L114.825 46.3223C114.825 46.4813 114.699 46.6079 114.54 46.6079C114.381 46.6079 114.254 46.4813 114.254 46.3223L114.254 45.3391C114.254 45.1801 114.381 45.0535 114.54 45.0535C114.699 45.0535 114.825 45.1801 114.825 45.3391ZM116.765 48.6804L116.765 49.6666C116.765 49.8256 116.639 49.9521 116.48 49.9521C116.321 49.9521 116.194 49.8256 116.194 49.6666L116.194 48.6804C116.194 48.5214 116.321 48.3948 116.48 48.3948C116.639 48.3948 116.765 48.5214 116.765 48.6804ZM116.765 45.3391L116.765 46.3223C116.765 46.4813 116.639 46.6079 116.48 46.6079C116.321 46.6079 116.194 46.4813 116.194 46.3223L116.194 45.3391C116.194 45.1801 116.321 45.0535 116.48 45.0535C116.639 45.0535 116.765 45.1801 116.765 45.3391ZM118.705 48.6804L118.705 49.6666C118.705 49.8256 118.579 49.9521 118.42 49.9521C118.261 49.9521 118.134 49.8256 118.134 49.6666L118.134 48.6804C118.134 48.5214 118.261 48.3948 118.42 48.3948C118.576 48.3948 118.705 48.5214 118.705 48.6804ZM118.705 45.3391L118.705 46.3223C118.705 46.4813 118.579 46.6079 118.42 46.6079C118.261 46.6079 118.134 46.4813 118.134 46.3223L118.134 45.3391C118.134 45.1801 118.261 45.0535 118.42 45.0535C118.576 45.0535 118.705 45.1801 118.705 45.3391ZM120.645 48.6804L120.645 49.6666C120.645 49.8256 120.519 49.9521 120.36 49.9521C120.201 49.9521 120.074 49.8256 120.074 49.6666L120.074 48.6804C120.074 48.5214 120.201 48.3948 120.36 48.3948C120.519 48.3948 120.645 48.5214 120.645 48.6804ZM120.645 45.3391L120.645 46.3223C120.645 46.4813 120.519 46.6079 120.36 46.6079C120.201 46.6079 120.074 46.4813 120.074 46.3223L120.074 45.3391C120.074 45.1801 120.201 45.0535 120.36 45.0535C120.519 45.0535 120.645 45.1801 120.645 45.3391ZM122.588 48.6804L122.588 49.6666C122.588 49.8256 122.462 49.9521 122.303 49.9521C122.144 49.9521 122.017 49.8256 122.017 49.6666L122.017 48.6804C122.017 48.5214 122.144 48.3948 122.303 48.3948C122.462 48.3948 122.588 48.5214 122.588 48.6804ZM122.588 45.3391L122.588 46.3223C122.588 46.4813 122.462 46.6079 122.303 46.6079C122.144 46.6079 122.017 46.4813 122.017 46.3223L122.017 45.3391C122.017 45.1801 122.144 45.0535 122.303 45.0535C122.462 45.0535 122.588 45.1801 122.588 45.3391ZM124.525 48.6804L124.525 49.6666C124.525 49.8256 124.399 49.9521 124.24 49.9521C124.081 49.9521 123.954 49.8256 123.954 49.6666L123.954 48.6804C123.954 48.5214 124.081 48.3948 124.24 48.3948C124.399 48.3948 124.525 48.5214 124.525 48.6804ZM124.525 45.3391L124.525 46.3223C124.525 46.4813 124.399 46.6079 124.24 46.6079C124.081 46.6079 123.954 46.4813 123.954 46.3223L123.954 45.3391C123.954 45.1801 124.081 45.0535 124.24 45.0535C124.399 45.0535 124.525 45.1801 124.525 45.3391ZM126.465 48.6804L126.465 49.6666C126.465 49.8256 126.339 49.9521 126.18 49.9521C126.021 49.9521 125.894 49.8256 125.894 49.6666L125.894 48.6804C125.894 48.5214 126.021 48.3948 126.18 48.3948C126.339 48.3948 126.465 48.5214 126.465 48.6804ZM126.465 45.3391L126.465 46.3223C126.465 46.4813 126.339 46.6079 126.18 46.6079C126.021 46.6079 125.894 46.4813 125.894 46.3223L125.894 45.3391C125.894 45.1801 126.021 45.0535 126.18 45.0535C126.339 45.0535 126.465 45.1801 126.465 45.3391Z" fill="#56E4EE"/>
<path d="M111.825 43.2858C111.825 43.3594 111.795 43.433 111.739 43.489L110.423 44.7784C110.311 44.8903 110.129 44.8873 110.02 44.7755C109.908 44.6636 109.911 44.4811 110.023 44.3721L111.339 43.0827C111.451 42.9708 111.633 42.9738 111.742 43.0857C111.798 43.1416 111.825 43.2122 111.825 43.2858ZM114.339 43.2858C114.339 43.3594 114.309 43.433 114.253 43.489L112.937 44.7784C112.825 44.8903 112.643 44.8873 112.534 44.7755C112.425 44.6636 112.425 44.4811 112.537 44.3721L113.853 43.0827C113.965 42.9708 114.147 42.9738 114.256 43.0857C114.312 43.1416 114.339 43.2122 114.339 43.2858ZM116.856 43.2858C116.856 43.3594 116.826 43.433 116.77 43.489L115.457 44.7784C115.345 44.8903 115.163 44.8873 115.054 44.7755C114.942 44.6636 114.945 44.4811 115.057 44.3721L116.37 43.0827C116.482 42.9708 116.664 42.9738 116.773 43.0857C116.826 43.1416 116.856 43.2122 116.856 43.2858ZM119.373 43.2858C119.373 43.3594 119.343 43.433 119.287 43.489L117.971 44.7784C117.86 44.8903 117.677 44.8873 117.568 44.7755C117.456 44.6636 117.459 44.4811 117.571 44.3721L118.887 43.0827C118.999 42.9708 119.181 42.9738 119.29 43.0857C119.346 43.1416 119.373 43.2122 119.373 43.2858ZM121.887 43.2858C121.887 43.3594 121.857 43.433 121.801 43.489L120.488 44.7784C120.377 44.8903 120.194 44.8873 120.085 44.7755C119.973 44.6636 119.976 44.4811 120.088 44.3721L121.401 43.0827C121.513 42.9708 121.695 42.9738 121.804 43.0857C121.86 43.1416 121.887 43.2122 121.887 43.2858ZM124.401 43.2858C124.401 43.3594 124.371 43.433 124.315 43.489L123.002 44.7784C122.891 44.8903 122.708 44.8873 122.599 44.7755C122.487 44.6636 122.49 44.4811 122.602 44.3721L123.915 43.0827C124.027 42.9708 124.209 42.9738 124.318 43.0857C124.374 43.1416 124.401 43.2122 124.401 43.2858ZM126.703 43.4978C126.703 43.5714 126.674 43.645 126.618 43.7009L125.52 44.7784C125.408 44.8873 125.225 44.8873 125.116 44.7725C125.007 44.6606 125.007 44.4781 125.119 44.3692L126.217 43.2917C126.329 43.1828 126.512 43.1828 126.621 43.2976C126.676 43.3536 126.703 43.4242 126.703 43.4978Z" fill="#3EBED0"/>
<path d="M111.822 51.5513C111.822 51.622 111.795 51.6956 111.739 51.7515C111.63 51.8634 111.448 51.8663 111.336 51.7545L110.023 50.468C109.911 50.3561 109.908 50.1765 110.02 50.0647C110.129 49.9528 110.311 49.9499 110.423 50.0617L111.736 51.3482C111.792 51.4041 111.822 51.4777 111.822 51.5513ZM114.336 51.5513C114.336 51.622 114.309 51.6956 114.253 51.7515C114.144 51.8634 113.962 51.8663 113.85 51.7545L112.537 50.468C112.425 50.3561 112.422 50.1765 112.534 50.0647C112.643 49.9528 112.825 49.9499 112.937 50.0617L114.25 51.3482C114.309 51.4041 114.336 51.4777 114.336 51.5513ZM116.853 51.5513C116.853 51.6249 116.826 51.6956 116.77 51.7515C116.658 51.8634 116.479 51.8663 116.367 51.7545L115.057 50.468C114.945 50.3561 114.942 50.1765 115.054 50.0647C115.166 49.9528 115.345 49.9499 115.457 50.0617L116.767 51.3482C116.823 51.4041 116.853 51.4777 116.853 51.5513ZM119.37 51.5513C119.37 51.622 119.343 51.6956 119.287 51.7515C119.178 51.8634 118.996 51.8663 118.884 51.7545L117.571 50.468C117.459 50.3561 117.456 50.1765 117.568 50.0647C117.677 49.9528 117.86 49.9499 117.971 50.0617L119.284 51.3482C119.34 51.4041 119.37 51.4777 119.37 51.5513ZM121.884 51.5513C121.884 51.6249 121.857 51.6956 121.801 51.7515C121.69 51.8634 121.51 51.8663 121.398 51.7545L120.088 50.468C119.976 50.3561 119.973 50.1765 120.085 50.0647C120.197 49.9528 120.377 49.9499 120.488 50.0617L121.798 51.3482C121.854 51.4041 121.884 51.4777 121.884 51.5513ZM124.398 51.5513C124.398 51.6249 124.371 51.6956 124.315 51.7515C124.204 51.8634 124.024 51.8663 123.912 51.7545L122.602 50.468C122.49 50.3561 122.487 50.1765 122.599 50.0647C122.711 49.9528 122.891 49.9499 123.002 50.0617L124.313 51.3482C124.371 51.4041 124.398 51.4777 124.398 51.5513ZM126.703 51.3423C126.703 51.413 126.676 51.4866 126.621 51.5425C126.512 51.6544 126.329 51.6573 126.217 51.5455L125.119 50.468C125.007 50.3561 125.004 50.1765 125.116 50.0647C125.225 49.9528 125.408 49.9499 125.52 50.0617L126.618 51.1392C126.674 51.1951 126.703 51.2687 126.703 51.3423Z" fill="#3EBED0"/>
<path d="M127.841 45.3191L127.841 49.5171C127.841 50.5063 127.214 51.3865 126.281 51.7103C126.181 51.7457 126.069 51.7751 125.96 51.7957C125.821 51.8222 125.671 51.8369 125.521 51.8369L111.323 51.8369C111.276 51.8369 111.229 51.8369 111.181 51.834C111.025 51.8251 110.869 51.7986 110.71 51.7574C110.705 51.7574 110.702 51.7545 110.696 51.7545C110.487 51.6956 110.286 51.6073 110.101 51.4925C109.412 51.0627 109 50.3267 109 49.5171L109 45.3221C109 44.2858 109.698 43.3673 110.693 43.0877C110.849 43.0435 111.014 43.0141 111.176 43.0052C111.223 43.0023 111.27 43.0023 111.32 43.0023L125.518 43.0023C125.668 43.0023 125.818 43.017 125.96 43.0465C126.066 43.0671 126.175 43.0936 126.281 43.1318C127.214 43.4498 127.841 44.33 127.841 45.3191ZM110.84 51.1981C110.843 51.1981 110.846 51.201 110.852 51.201C110.972 51.2334 111.096 51.254 111.217 51.2629C111.252 51.2658 111.287 51.2658 111.326 51.2658L125.524 51.2658C125.639 51.2658 125.751 51.254 125.857 51.2334C125.942 51.2187 126.019 51.1981 126.092 51.1687C126.799 50.9243 127.273 50.259 127.273 49.5142L127.273 45.3191C127.273 44.5743 126.799 43.909 126.095 43.6676C126.016 43.6382 125.939 43.6176 125.86 43.6029C125.748 43.5823 125.636 43.5705 125.524 43.5705L111.323 43.5705C111.287 43.5705 111.249 43.5705 111.214 43.5734C111.09 43.5823 110.969 43.6029 110.849 43.6352C110.095 43.8472 109.571 44.539 109.571 45.3191L109.571 49.5171C109.571 50.1265 109.88 50.6829 110.401 51.0067C110.537 51.0892 110.684 51.1539 110.84 51.1981Z" fill="#3EBED0"/>
</svg>
