<svg width="254" height="69" viewBox="0 0 254 69" fill="none" xmlns="http://www.w3.org/2000/svg">
<rect x="127" width="127" height="60" fill="#EBEBEB"/>
<rect x="70" width="86" height="44" fill="#EBEBEB"/>
<rect x="0.75" y="35.75" width="128.5" height="24.5" fill="#EBEBEB" stroke="#212734" stroke-width="0.5"/>
<circle cx="104.568" cy="53.5679" r="10.4374" fill="#EBEBEB" stroke="#626262" stroke-width="8.26087"/>
<circle cx="104.813" cy="53.8094" r="2.99499" stroke="white" stroke-width="1.65217"/>
<circle cx="70.5679" cy="53.5679" r="10.4374" fill="#EBEBEB" stroke="#626262" stroke-width="8.26087"/>
<circle cx="70.8133" cy="53.8094" r="2.99499" stroke="white" stroke-width="1.65217"/>
<circle cx="229.568" cy="53.2632" r="10.4374" fill="#EBEBEB" stroke="#626262" stroke-width="8.26087"/>
<circle cx="229.813" cy="53.5047" r="2.99499" stroke="white" stroke-width="1.65217"/>
<circle cx="195.568" cy="53.2632" r="10.4374" fill="#EBEBEB" stroke="#626262" stroke-width="8.26087"/>
<circle cx="195.813" cy="53.5047" r="2.99499" stroke="white" stroke-width="1.65217"/>
<rect x="34.4375" y="9.56445" width="12.4185" height="49.674" fill="#EBEBEB"/>
<path d="M1 28.2773L16.5231 9.56445H34.4344V59.2385H1V28.2773Z" fill="#EBEBEB"/>
<circle cx="25.6976" cy="53.3069" r="3.90069" fill="#EBEBEB"/>
<circle cx="25.6976" cy="53.3069" r="3.90069" fill="#EBEBEB"/>
<circle cx="25.6976" cy="53.3069" r="3.90069" fill="#EBEBEB"/>
<circle cx="25.6976" cy="53.3069" r="3.90069" fill="#EBEBEB"/>
<circle cx="25.6976" cy="53.3069" r="3.90069" fill="#EBEBEB"/>
<circle cx="25.6976" cy="53.3069" r="3.90069" fill="#EBEBEB"/>
<circle cx="25.6976" cy="53.3069" r="3.90069" fill="#EBEBEB"/>
<rect x="20.3398" y="11.9551" width="13.8514" height="16.7172" fill="#9E9E9E"/>
<path d="M20.0657 11.9551L33.9606 28.6723H6.25781L20.0657 11.9551Z" fill="#9E9E9E"/>
<circle cx="24.6382" cy="53.2632" r="10.4374" fill="#EBEBEB" stroke="#9E9E9E" stroke-width="8.26087"/>
<circle cx="24.8836" cy="53.5047" r="2.99499" stroke="white" stroke-width="1.65217"/>
</svg>
