<svg width="327" height="60" viewBox="0 0 327 60" fill="none" xmlns="http://www.w3.org/2000/svg">
<rect x="53" width="130" height="51" fill="#EBEBEB"/>
<rect x="2.5" y="36.5" width="104.219" height="11.9029" fill="#EBEBEB" stroke="#EBEBEB" stroke-width="5"/>
<circle cx="162" cy="44" r="10" fill="#EBEBEB" stroke="#626262" stroke-width="10"/>
<circle cx="162" cy="44" r="3" stroke="white" stroke-width="2"/>
<rect x="197" width="130" height="51" fill="#EBEBEB"/>
<circle cx="306" cy="44" r="10" fill="#EBEBEB" stroke="#9E9E9E" stroke-width="10"/>
<circle cx="306" cy="44" r="3" stroke="white" stroke-width="2"/>
<circle cx="219" cy="45" r="10" fill="#EBEBEB" stroke="#9E9E9E" stroke-width="10"/>
<circle cx="219" cy="45" r="3" stroke="white" stroke-width="2"/>
<rect x="33.4375" width="12.4184" height="49.6738" fill="#EBEBEB"/>
<path d="M0 18.7127L15.5231 0H33.4343V49.6738H0V18.7127Z" fill="#EBEBEB"/>
<circle cx="24.7014" cy="43.7469" r="3.90067" fill="#EBEBEB"/>
<circle cx="24.7014" cy="43.7469" r="3.90067" fill="#EBEBEB"/>
<circle cx="24.7014" cy="43.7469" r="3.90067" fill="#EBEBEB"/>
<circle cx="24.7014" cy="43.7469" r="3.90067" fill="#EBEBEB"/>
<circle cx="24.7014" cy="43.7469" r="3.90067" fill="#EBEBEB"/>
<circle cx="24.7014" cy="43.7469" r="3.90067" fill="#EBEBEB"/>
<circle cx="24.7014" cy="43.7469" r="3.90067" fill="#EBEBEB"/>
<rect x="19.3477" y="2.39014" width="13.8513" height="16.7171" fill="#9E9E9E"/>
<path d="M19.0618 2.39014L32.9566 19.1073H5.25391L19.0618 2.39014Z" fill="#9E9E9E"/>
<circle cx="24" cy="44" r="10" fill="#EBEBEB" stroke="#9E9E9E" stroke-width="10"/>
<circle cx="24" cy="44" r="3" stroke="white" stroke-width="2"/>
<rect x="180" y="35" width="17" height="5" fill="#EBEBEB"/>
<rect x="180" y="46" width="17" height="5" fill="#EBEBEB"/>
</svg>
