<svg width="276" height="60" viewBox="0 0 276 60" fill="none" xmlns="http://www.w3.org/2000/svg">
<rect x="68" width="208" height="51" fill="#EBEBEB"/>
<rect x="0.75" y="26.75" width="130.5" height="24.5" fill="#EBEBEB" stroke="#212734" stroke-width="0.5"/>
<circle cx="106" cy="44" r="10" fill="#EBEBEB" stroke="#626262" stroke-width="10"/>
<circle cx="106" cy="44" r="3" stroke="white" stroke-width="2"/>
<circle cx="251" cy="45" r="10" fill="#EBEBEB" stroke="#626262" stroke-width="10"/>
<circle cx="251" cy="45" r="3" stroke="white" stroke-width="2"/>
<circle cx="216" cy="45" r="10" fill="#EBEBEB" stroke="#626262" stroke-width="10"/>
<circle cx="216" cy="45" r="3" stroke="white" stroke-width="2"/>
<circle cx="181" cy="45" r="10" fill="#EBEBEB" stroke="#626262" stroke-width="10"/>
<circle cx="181" cy="45" r="3" stroke="white" stroke-width="2"/>
<rect x="34.4375" width="12.4184" height="49.6738" fill="#EBEBEB"/>
<path d="M1 18.7127L16.5231 0H34.4343V49.6738H1V18.7127Z" fill="#EBEBEB"/>
<circle cx="25.7014" cy="43.7469" r="3.90067" fill="#EBEBEB"/>
<circle cx="25.7014" cy="43.7469" r="3.90067" fill="#EBEBEB"/>
<circle cx="25.7014" cy="43.7469" r="3.90067" fill="#EBEBEB"/>
<circle cx="25.7014" cy="43.7469" r="3.90067" fill="#EBEBEB"/>
<circle cx="25.7014" cy="43.7469" r="3.90067" fill="#EBEBEB"/>
<circle cx="25.7014" cy="43.7469" r="3.90067" fill="#EBEBEB"/>
<circle cx="25.7014" cy="43.7469" r="3.90067" fill="#EBEBEB"/>
<rect x="20.3477" y="2.39014" width="13.8513" height="16.7171" fill="#9E9E9E"/>
<path d="M20.0618 2.39014L33.9566 19.1073H6.25391L20.0618 2.39014Z" fill="#9E9E9E"/>
<circle cx="25" cy="44" r="10" fill="#EBEBEB" stroke="#9E9E9E" stroke-width="10"/>
<circle cx="25" cy="44" r="3" stroke="white" stroke-width="2"/>
</svg>
